<svg width="1921" height="651" viewBox="0 0 1921 651" fill="none" xmlns="http://www.w3.org/2000/svg">
<g clip-path="url(#clip0_457_8981)">
<rect width="1920" height="651" transform="translate(0.317871)" fill="#F9FAFB"/>
<path d="M1839.69 631.013L1879.24 631.013L1907.97 659.747L1936.7 631.013L1975.94 631.014" stroke="#13322B" stroke-opacity="0.1" stroke-width="2"/>
<path d="M1839.68 288.92L1879.24 288.92L1907.97 317.654L1936.7 288.92L1975.94 288.92" stroke="#13322B" stroke-opacity="0.1" stroke-width="2"/>
<path d="M1839.69 597.639L1879.24 597.639L1907.97 626.372L1936.7 597.639L1975.94 597.639" stroke="#13322B" stroke-opacity="0.1" stroke-width="2"/>
<path d="M1839.68 255.545L1879.24 255.545L1907.97 284.279L1936.7 255.545L1975.94 255.546" stroke="#13322B" stroke-opacity="0.1" stroke-width="2"/>
<path d="M1839.69 563.22L1879.24 563.22L1907.97 591.953L1936.7 563.22L1975.94 563.22" stroke="#13322B" stroke-opacity="0.1" stroke-width="2"/>
<path d="M1839.68 221.126L1879.24 221.126L1907.97 249.86L1936.7 221.127L1975.94 221.127" stroke="#13322B" stroke-opacity="0.1" stroke-width="2"/>
<path d="M1839.69 528.802L1879.24 528.802L1907.97 557.536L1936.7 528.802L1975.94 528.803" stroke="#13322B" stroke-opacity="0.1" stroke-width="2"/>
<path d="M1839.68 186.709L1879.24 186.709L1907.97 215.443L1936.7 186.709L1975.94 186.709" stroke="#13322B" stroke-opacity="0.1" stroke-width="2"/>
<path d="M1839.69 494.385L1879.24 494.385L1907.97 523.118L1936.7 494.385L1975.94 494.385" stroke="#13322B" stroke-opacity="0.1" stroke-width="2"/>
<path d="M1839.68 152.291L1879.24 152.291L1907.97 181.025L1936.7 152.291L1975.94 152.292" stroke="#13322B" stroke-opacity="0.1" stroke-width="2"/>
<path d="M1839.69 459.966L1879.24 459.966L1907.97 488.7L1936.7 459.966L1975.94 459.966" stroke="#13322B" stroke-opacity="0.1" stroke-width="2"/>
<path d="M1839.68 117.873L1879.24 117.873L1907.97 146.606L1936.7 117.873L1975.94 117.873" stroke="#13322B" stroke-opacity="0.1" stroke-width="2"/>
<path d="M1839.69 425.548L1879.24 425.548L1907.97 454.282L1936.7 425.548L1975.94 425.549" stroke="#13322B" stroke-opacity="0.1" stroke-width="2"/>
<path d="M1839.69 83.455L1879.24 83.455L1907.97 112.189L1936.7 83.4551L1975.94 83.4556" stroke="#13322B" stroke-opacity="0.1" stroke-width="2"/>
<path d="M1839.68 391.131L1879.24 391.131L1907.97 419.865L1936.7 391.131L1975.94 391.131" stroke="#13322B" stroke-opacity="0.1" stroke-width="2"/>
<path d="M1839.69 49.0375L1879.24 49.0375L1907.97 77.7712L1936.7 49.0375L1975.94 49.038" stroke="#13322B" stroke-opacity="0.1" stroke-width="2"/>
<path d="M1839.68 356.712L1879.24 356.712L1907.97 385.446L1936.7 356.712L1975.94 356.713" stroke="#13322B" stroke-opacity="0.1" stroke-width="2"/>
<path d="M1839.69 14.6187L1879.24 14.6187L1907.97 43.3525L1936.7 14.6188L1975.94 14.6193" stroke="#13322B" stroke-opacity="0.1" stroke-width="2"/>
<path d="M1839.68 322.295L1879.24 322.295L1907.97 351.028L1936.7 322.295L1975.94 322.295" stroke="#13322B" stroke-opacity="0.1" stroke-width="2"/>
<path d="M1839.69 -19.7988L1879.24 -19.7988L1907.97 8.93494L1936.7 -19.7988L1975.94 -19.7983" stroke="#13322B" stroke-opacity="0.1" stroke-width="2"/>
<path d="M1616.44 631.013L1655.99 631.013L1684.72 659.747L1713.46 631.013L1752.69 631.014" stroke="#13322B" stroke-opacity="0.1" stroke-width="2"/>
<path d="M1616.44 288.92L1655.99 288.92L1684.72 317.654L1713.46 288.92L1752.69 288.92" stroke="#13322B" stroke-opacity="0.1" stroke-width="2"/>
<path d="M1616.44 597.639L1655.99 597.639L1684.72 626.372L1713.46 597.639L1752.69 597.639" stroke="#13322B" stroke-opacity="0.1" stroke-width="2"/>
<path d="M1616.44 255.545L1655.99 255.545L1684.72 284.279L1713.46 255.545L1752.69 255.546" stroke="#13322B" stroke-opacity="0.1" stroke-width="2"/>
<path d="M1616.44 563.22L1655.99 563.22L1684.72 591.953L1713.46 563.22L1752.69 563.22" stroke="#13322B" stroke-opacity="0.1" stroke-width="2"/>
<path d="M1616.44 221.126L1655.99 221.126L1684.72 249.86L1713.46 221.127L1752.69 221.127" stroke="#13322B" stroke-opacity="0.1" stroke-width="2"/>
<path d="M1616.44 528.802L1655.99 528.802L1684.72 557.536L1713.46 528.802L1752.69 528.803" stroke="#13322B" stroke-opacity="0.1" stroke-width="2"/>
<path d="M1616.44 186.709L1655.99 186.709L1684.72 215.443L1713.46 186.709L1752.69 186.709" stroke="#13322B" stroke-opacity="0.1" stroke-width="2"/>
<path d="M1616.44 494.385L1655.99 494.385L1684.72 523.118L1713.46 494.385L1752.69 494.385" stroke="#13322B" stroke-opacity="0.1" stroke-width="2"/>
<path d="M1616.44 152.291L1655.99 152.291L1684.72 181.025L1713.46 152.291L1752.69 152.292" stroke="#13322B" stroke-opacity="0.1" stroke-width="2"/>
<path d="M1616.44 459.966L1655.99 459.966L1684.72 488.7L1713.46 459.966L1752.69 459.966" stroke="#13322B" stroke-opacity="0.1" stroke-width="2"/>
<path d="M1616.44 117.873L1655.99 117.873L1684.72 146.606L1713.46 117.873L1752.69 117.873" stroke="#13322B" stroke-opacity="0.1" stroke-width="2"/>
<path d="M1616.44 425.548L1655.99 425.548L1684.72 454.282L1713.46 425.548L1752.69 425.549" stroke="#13322B" stroke-opacity="0.1" stroke-width="2"/>
<path d="M1616.44 83.455L1655.99 83.455L1684.72 112.189L1713.46 83.4551L1752.69 83.4556" stroke="#13322B" stroke-opacity="0.1" stroke-width="2"/>
<path d="M1616.44 391.131L1655.99 391.131L1684.72 419.865L1713.46 391.131L1752.69 391.131" stroke="#13322B" stroke-opacity="0.1" stroke-width="2"/>
<path d="M1616.44 49.0375L1655.99 49.0375L1684.72 77.7712L1713.46 49.0375L1752.69 49.038" stroke="#13322B" stroke-opacity="0.1" stroke-width="2"/>
<path d="M1616.44 356.712L1655.99 356.712L1684.72 385.446L1713.46 356.712L1752.69 356.713" stroke="#13322B" stroke-opacity="0.1" stroke-width="2"/>
<path d="M1616.44 14.6187L1655.99 14.6187L1684.72 43.3525L1713.46 14.6188L1752.69 14.6193" stroke="#13322B" stroke-opacity="0.1" stroke-width="2"/>
<path d="M1616.44 322.295L1655.99 322.295L1684.72 351.028L1713.46 322.295L1752.69 322.295" stroke="#13322B" stroke-opacity="0.1" stroke-width="2"/>
<path d="M1616.44 -19.7988L1655.99 -19.7988L1684.72 8.93494L1713.46 -19.7988L1752.69 -19.7983" stroke="#13322B" stroke-opacity="0.1" stroke-width="2"/>
<path d="M1393.19 631.013L1432.74 631.013L1461.47 659.747L1490.21 631.013L1529.44 631.014" stroke="#13322B" stroke-opacity="0.1" stroke-width="2"/>
<path d="M1393.19 288.92L1432.74 288.92L1461.47 317.654L1490.21 288.92L1529.44 288.92" stroke="#13322B" stroke-opacity="0.1" stroke-width="2"/>
<path d="M1393.19 597.639L1432.74 597.639L1461.47 626.372L1490.21 597.639L1529.44 597.639" stroke="#13322B" stroke-opacity="0.1" stroke-width="2"/>
<path d="M1393.19 255.545L1432.74 255.545L1461.47 284.279L1490.21 255.545L1529.44 255.546" stroke="#13322B" stroke-opacity="0.1" stroke-width="2"/>
<path d="M1393.19 563.22L1432.74 563.22L1461.47 591.953L1490.21 563.22L1529.44 563.22" stroke="#13322B" stroke-opacity="0.1" stroke-width="2"/>
<path d="M1393.19 221.126L1432.74 221.126L1461.47 249.86L1490.21 221.127L1529.44 221.127" stroke="#13322B" stroke-opacity="0.1" stroke-width="2"/>
<path d="M1393.19 528.802L1432.74 528.802L1461.47 557.536L1490.21 528.802L1529.44 528.803" stroke="#13322B" stroke-opacity="0.1" stroke-width="2"/>
<path d="M1393.19 186.709L1432.74 186.709L1461.47 215.443L1490.21 186.709L1529.44 186.709" stroke="#13322B" stroke-opacity="0.1" stroke-width="2"/>
<path d="M1393.19 494.385L1432.74 494.385L1461.47 523.118L1490.21 494.385L1529.44 494.385" stroke="#13322B" stroke-opacity="0.1" stroke-width="2"/>
<path d="M1393.19 152.291L1432.74 152.291L1461.47 181.025L1490.21 152.291L1529.44 152.292" stroke="#13322B" stroke-opacity="0.1" stroke-width="2"/>
<path d="M1393.19 459.966L1432.74 459.966L1461.47 488.7L1490.21 459.966L1529.44 459.966" stroke="#13322B" stroke-opacity="0.1" stroke-width="2"/>
<path d="M1393.19 117.873L1432.74 117.873L1461.47 146.606L1490.21 117.873L1529.44 117.873" stroke="#13322B" stroke-opacity="0.1" stroke-width="2"/>
<path d="M1393.19 425.548L1432.74 425.548L1461.47 454.282L1490.21 425.548L1529.44 425.549" stroke="#13322B" stroke-opacity="0.1" stroke-width="2"/>
<path d="M1393.19 83.455L1432.74 83.455L1461.47 112.189L1490.21 83.4551L1529.44 83.4556" stroke="#13322B" stroke-opacity="0.1" stroke-width="2"/>
<path d="M1393.19 391.131L1432.74 391.131L1461.47 419.865L1490.21 391.131L1529.44 391.131" stroke="#13322B" stroke-opacity="0.1" stroke-width="2"/>
<path d="M1393.19 49.0375L1432.74 49.0375L1461.47 77.7712L1490.21 49.0375L1529.44 49.038" stroke="#13322B" stroke-opacity="0.1" stroke-width="2"/>
<path d="M1393.19 356.712L1432.74 356.712L1461.47 385.446L1490.21 356.712L1529.44 356.713" stroke="#13322B" stroke-opacity="0.1" stroke-width="2"/>
<path d="M1393.19 14.6187L1432.74 14.6187L1461.47 43.3525L1490.21 14.6188L1529.44 14.6193" stroke="#13322B" stroke-opacity="0.1" stroke-width="2"/>
<path d="M1393.19 322.295L1432.74 322.295L1461.47 351.028L1490.21 322.295L1529.44 322.295" stroke="#13322B" stroke-opacity="0.1" stroke-width="2"/>
<path d="M1393.19 -19.7988L1432.74 -19.7988L1461.47 8.93494L1490.21 -19.7988L1529.44 -19.7983" stroke="#13322B" stroke-opacity="0.1" stroke-width="2"/>
<path d="M1169.94 631.013L1209.49 631.013L1238.23 659.747L1266.96 631.013L1306.2 631.014" stroke="#13322B" stroke-opacity="0.1" stroke-width="2"/>
<path d="M1169.94 288.92L1209.49 288.92L1238.23 317.654L1266.96 288.92L1306.2 288.92" stroke="#13322B" stroke-opacity="0.1" stroke-width="2"/>
<path d="M1169.94 597.639L1209.49 597.639L1238.23 626.372L1266.96 597.639L1306.2 597.639" stroke="#13322B" stroke-opacity="0.1" stroke-width="2"/>
<path d="M1169.94 255.545L1209.49 255.545L1238.23 284.279L1266.96 255.545L1306.2 255.546" stroke="#13322B" stroke-opacity="0.1" stroke-width="2"/>
<path d="M1169.94 563.22L1209.49 563.22L1238.23 591.953L1266.96 563.22L1306.2 563.22" stroke="#13322B" stroke-opacity="0.1" stroke-width="2"/>
<path d="M1169.94 221.126L1209.49 221.126L1238.23 249.86L1266.96 221.127L1306.2 221.127" stroke="#13322B" stroke-opacity="0.1" stroke-width="2"/>
<path d="M1169.94 528.802L1209.49 528.802L1238.23 557.536L1266.96 528.802L1306.2 528.803" stroke="#13322B" stroke-opacity="0.1" stroke-width="2"/>
<path d="M1169.94 186.709L1209.49 186.709L1238.23 215.443L1266.96 186.709L1306.2 186.709" stroke="#13322B" stroke-opacity="0.1" stroke-width="2"/>
<path d="M1169.94 494.385L1209.49 494.385L1238.23 523.118L1266.96 494.385L1306.2 494.385" stroke="#13322B" stroke-opacity="0.1" stroke-width="2"/>
<path d="M1169.94 152.291L1209.49 152.291L1238.23 181.025L1266.96 152.291L1306.2 152.292" stroke="#13322B" stroke-opacity="0.1" stroke-width="2"/>
<path d="M1169.94 459.966L1209.49 459.966L1238.23 488.7L1266.96 459.966L1306.2 459.966" stroke="#13322B" stroke-opacity="0.1" stroke-width="2"/>
<path d="M1169.94 117.873L1209.49 117.873L1238.23 146.606L1266.96 117.873L1306.2 117.873" stroke="#13322B" stroke-opacity="0.1" stroke-width="2"/>
<path d="M1169.94 425.548L1209.49 425.548L1238.23 454.282L1266.96 425.548L1306.2 425.549" stroke="#13322B" stroke-opacity="0.1" stroke-width="2"/>
<path d="M1169.94 83.455L1209.49 83.455L1238.23 112.189L1266.96 83.4551L1306.2 83.4556" stroke="#13322B" stroke-opacity="0.1" stroke-width="2"/>
<path d="M1169.94 391.131L1209.49 391.131L1238.23 419.865L1266.96 391.131L1306.2 391.131" stroke="#13322B" stroke-opacity="0.1" stroke-width="2"/>
<path d="M1169.94 49.0375L1209.49 49.0375L1238.23 77.7712L1266.96 49.0375L1306.2 49.038" stroke="#13322B" stroke-opacity="0.1" stroke-width="2"/>
<path d="M1169.94 356.712L1209.49 356.712L1238.23 385.446L1266.96 356.712L1306.2 356.713" stroke="#13322B" stroke-opacity="0.1" stroke-width="2"/>
<path d="M1169.94 14.6187L1209.49 14.6187L1238.23 43.3525L1266.96 14.6188L1306.2 14.6193" stroke="#13322B" stroke-opacity="0.1" stroke-width="2"/>
<path d="M1169.94 322.295L1209.49 322.295L1238.23 351.028L1266.96 322.295L1306.2 322.295" stroke="#13322B" stroke-opacity="0.1" stroke-width="2"/>
<path d="M1169.94 -19.7988L1209.49 -19.7988L1238.23 8.93494L1266.96 -19.7988L1306.2 -19.7983" stroke="#13322B" stroke-opacity="0.1" stroke-width="2"/>
<path d="M946.695 631.013L986.245 631.013L1014.98 659.747L1043.71 631.013L1082.95 631.014" stroke="#13322B" stroke-opacity="0.1" stroke-width="2"/>
<path d="M946.695 288.92L986.245 288.92L1014.98 317.654L1043.71 288.92L1082.95 288.92" stroke="#13322B" stroke-opacity="0.1" stroke-width="2"/>
<path d="M946.695 597.639L986.245 597.639L1014.98 626.372L1043.71 597.639L1082.95 597.639" stroke="#13322B" stroke-opacity="0.1" stroke-width="2"/>
<path d="M946.695 255.545L986.245 255.545L1014.98 284.279L1043.71 255.545L1082.95 255.546" stroke="#13322B" stroke-opacity="0.1" stroke-width="2"/>
<path d="M946.695 563.22L986.245 563.22L1014.98 591.953L1043.71 563.22L1082.95 563.22" stroke="#13322B" stroke-opacity="0.1" stroke-width="2"/>
<path d="M946.695 221.126L986.245 221.126L1014.98 249.86L1043.71 221.127L1082.95 221.127" stroke="#13322B" stroke-opacity="0.1" stroke-width="2"/>
<path d="M946.695 528.802L986.245 528.802L1014.98 557.536L1043.71 528.802L1082.95 528.803" stroke="#13322B" stroke-opacity="0.1" stroke-width="2"/>
<path d="M946.695 186.709L986.245 186.709L1014.98 215.443L1043.71 186.709L1082.95 186.709" stroke="#13322B" stroke-opacity="0.1" stroke-width="2"/>
<path d="M946.695 494.385L986.245 494.385L1014.98 523.118L1043.71 494.385L1082.95 494.385" stroke="#13322B" stroke-opacity="0.1" stroke-width="2"/>
<path d="M946.695 152.291L986.245 152.291L1014.98 181.025L1043.71 152.291L1082.95 152.292" stroke="#13322B" stroke-opacity="0.1" stroke-width="2"/>
<path d="M946.695 459.966L986.245 459.966L1014.98 488.7L1043.71 459.966L1082.95 459.966" stroke="#13322B" stroke-opacity="0.1" stroke-width="2"/>
<path d="M946.695 117.873L986.245 117.873L1014.98 146.606L1043.71 117.873L1082.95 117.873" stroke="#13322B" stroke-opacity="0.1" stroke-width="2"/>
<path d="M946.695 425.548L986.245 425.548L1014.98 454.282L1043.71 425.548L1082.95 425.549" stroke="#13322B" stroke-opacity="0.1" stroke-width="2"/>
<path d="M946.695 83.455L986.245 83.455L1014.98 112.189L1043.71 83.4551L1082.95 83.4556" stroke="#13322B" stroke-opacity="0.1" stroke-width="2"/>
<path d="M946.695 391.131L986.245 391.131L1014.98 419.865L1043.71 391.131L1082.95 391.131" stroke="#13322B" stroke-opacity="0.1" stroke-width="2"/>
<path d="M946.695 49.0375L986.245 49.0375L1014.98 77.7712L1043.71 49.0375L1082.95 49.038" stroke="#13322B" stroke-opacity="0.1" stroke-width="2"/>
<path d="M946.695 356.712L986.245 356.712L1014.98 385.446L1043.71 356.712L1082.95 356.713" stroke="#13322B" stroke-opacity="0.1" stroke-width="2"/>
<path d="M946.695 14.6187L986.245 14.6187L1014.98 43.3525L1043.71 14.6188L1082.95 14.6193" stroke="#13322B" stroke-opacity="0.1" stroke-width="2"/>
<path d="M946.695 322.295L986.245 322.295L1014.98 351.028L1043.71 322.295L1082.95 322.295" stroke="#13322B" stroke-opacity="0.1" stroke-width="2"/>
<path d="M946.695 -19.7988L986.245 -19.7988L1014.98 8.93494L1043.71 -19.7988L1082.95 -19.7983" stroke="#13322B" stroke-opacity="0.1" stroke-width="2"/>
<path d="M723.447 631.013L762.998 631.013L791.732 659.747L820.465 631.013L859.702 631.014" stroke="#13322B" stroke-opacity="0.1" stroke-width="2"/>
<path d="M723.447 288.92L762.998 288.92L791.732 317.654L820.465 288.92L859.702 288.92" stroke="#13322B" stroke-opacity="0.1" stroke-width="2"/>
<path d="M723.447 597.639L762.998 597.639L791.732 626.372L820.465 597.639L859.702 597.639" stroke="#13322B" stroke-opacity="0.1" stroke-width="2"/>
<path d="M723.447 255.545L762.998 255.545L791.732 284.279L820.465 255.545L859.702 255.546" stroke="#13322B" stroke-opacity="0.1" stroke-width="2"/>
<path d="M723.447 563.22L762.998 563.22L791.732 591.953L820.465 563.22L859.702 563.22" stroke="#13322B" stroke-opacity="0.1" stroke-width="2"/>
<path d="M723.447 221.126L762.998 221.126L791.732 249.86L820.465 221.127L859.702 221.127" stroke="#13322B" stroke-opacity="0.1" stroke-width="2"/>
<path d="M723.447 528.802L762.998 528.802L791.732 557.536L820.465 528.802L859.702 528.803" stroke="#13322B" stroke-opacity="0.1" stroke-width="2"/>
<path d="M723.447 186.709L762.998 186.709L791.732 215.443L820.465 186.709L859.702 186.709" stroke="#13322B" stroke-opacity="0.1" stroke-width="2"/>
<path d="M723.447 494.385L762.998 494.385L791.732 523.118L820.465 494.385L859.702 494.385" stroke="#13322B" stroke-opacity="0.1" stroke-width="2"/>
<path d="M723.447 152.291L762.998 152.291L791.732 181.025L820.465 152.291L859.702 152.292" stroke="#13322B" stroke-opacity="0.1" stroke-width="2"/>
<path d="M723.447 459.966L762.998 459.966L791.732 488.7L820.465 459.966L859.702 459.966" stroke="#13322B" stroke-opacity="0.1" stroke-width="2"/>
<path d="M723.447 117.873L762.998 117.873L791.732 146.606L820.465 117.873L859.702 117.873" stroke="#13322B" stroke-opacity="0.1" stroke-width="2"/>
<path d="M723.447 425.548L762.998 425.548L791.732 454.282L820.465 425.548L859.702 425.549" stroke="#13322B" stroke-opacity="0.1" stroke-width="2"/>
<path d="M723.447 83.455L762.998 83.455L791.732 112.189L820.465 83.4551L859.702 83.4556" stroke="#13322B" stroke-opacity="0.1" stroke-width="2"/>
<path d="M723.447 391.131L762.998 391.131L791.732 419.865L820.465 391.131L859.702 391.131" stroke="#13322B" stroke-opacity="0.1" stroke-width="2"/>
<path d="M723.447 49.0375L762.998 49.0375L791.732 77.7712L820.465 49.0375L859.702 49.038" stroke="#13322B" stroke-opacity="0.1" stroke-width="2"/>
<path d="M723.447 356.712L762.998 356.712L791.732 385.446L820.465 356.712L859.702 356.713" stroke="#13322B" stroke-opacity="0.1" stroke-width="2"/>
<path d="M723.447 14.6187L762.998 14.6187L791.732 43.3525L820.465 14.6188L859.702 14.6193" stroke="#13322B" stroke-opacity="0.1" stroke-width="2"/>
<path d="M723.447 322.295L762.998 322.295L791.732 351.028L820.465 322.295L859.702 322.295" stroke="#13322B" stroke-opacity="0.1" stroke-width="2"/>
<path d="M723.447 -19.7988L762.998 -19.7988L791.732 8.93494L820.465 -19.7988L859.702 -19.7983" stroke="#13322B" stroke-opacity="0.1" stroke-width="2"/>
<path d="M500.2 631.013L539.751 631.013L568.484 659.747L597.218 631.013L636.455 631.014" stroke="#13322B" stroke-opacity="0.1" stroke-width="2"/>
<path d="M500.2 288.92L539.751 288.92L568.484 317.654L597.218 288.92L636.455 288.92" stroke="#13322B" stroke-opacity="0.1" stroke-width="2"/>
<path d="M500.2 597.639L539.751 597.639L568.484 626.372L597.218 597.639L636.455 597.639" stroke="#13322B" stroke-opacity="0.1" stroke-width="2"/>
<path d="M500.2 255.545L539.751 255.545L568.484 284.279L597.218 255.545L636.455 255.546" stroke="#13322B" stroke-opacity="0.1" stroke-width="2"/>
<path d="M500.2 563.22L539.751 563.22L568.484 591.953L597.218 563.22L636.455 563.22" stroke="#13322B" stroke-opacity="0.1" stroke-width="2"/>
<path d="M500.2 221.126L539.751 221.126L568.484 249.86L597.218 221.127L636.455 221.127" stroke="#13322B" stroke-opacity="0.1" stroke-width="2"/>
<path d="M500.2 528.802L539.751 528.802L568.484 557.536L597.218 528.802L636.455 528.803" stroke="#13322B" stroke-opacity="0.1" stroke-width="2"/>
<path d="M500.2 186.709L539.751 186.709L568.484 215.443L597.218 186.709L636.455 186.709" stroke="#13322B" stroke-opacity="0.1" stroke-width="2"/>
<path d="M500.2 494.385L539.751 494.385L568.484 523.118L597.218 494.385L636.455 494.385" stroke="#13322B" stroke-opacity="0.1" stroke-width="2"/>
<path d="M500.2 152.291L539.751 152.291L568.484 181.025L597.218 152.291L636.455 152.292" stroke="#13322B" stroke-opacity="0.1" stroke-width="2"/>
<path d="M500.2 459.966L539.751 459.966L568.484 488.7L597.218 459.966L636.455 459.966" stroke="#13322B" stroke-opacity="0.1" stroke-width="2"/>
<path d="M500.2 117.873L539.751 117.873L568.484 146.606L597.218 117.873L636.455 117.873" stroke="#13322B" stroke-opacity="0.1" stroke-width="2"/>
<path d="M500.2 425.548L539.751 425.548L568.484 454.282L597.218 425.548L636.455 425.549" stroke="#13322B" stroke-opacity="0.1" stroke-width="2"/>
<path d="M500.2 83.455L539.751 83.455L568.484 112.189L597.218 83.4551L636.455 83.4556" stroke="#13322B" stroke-opacity="0.1" stroke-width="2"/>
<path d="M500.2 391.131L539.751 391.131L568.484 419.865L597.218 391.131L636.455 391.131" stroke="#13322B" stroke-opacity="0.1" stroke-width="2"/>
<path d="M500.2 49.0375L539.751 49.0375L568.484 77.7712L597.218 49.0375L636.455 49.038" stroke="#13322B" stroke-opacity="0.1" stroke-width="2"/>
<path d="M500.2 356.712L539.751 356.712L568.484 385.446L597.218 356.712L636.455 356.713" stroke="#13322B" stroke-opacity="0.1" stroke-width="2"/>
<path d="M500.2 14.6187L539.751 14.6187L568.484 43.3525L597.218 14.6188L636.455 14.6193" stroke="#13322B" stroke-opacity="0.1" stroke-width="2"/>
<path d="M500.2 322.295L539.751 322.295L568.484 351.028L597.218 322.295L636.455 322.295" stroke="#13322B" stroke-opacity="0.1" stroke-width="2"/>
<path d="M500.2 -19.7988L539.751 -19.7988L568.484 8.93494L597.218 -19.7988L636.455 -19.7983" stroke="#13322B" stroke-opacity="0.1" stroke-width="2"/>
<path d="M276.952 631.013L316.503 631.013L345.237 659.747L373.971 631.013L413.207 631.014" stroke="#13322B" stroke-opacity="0.1" stroke-width="2"/>
<path d="M276.952 288.92L316.503 288.92L345.237 317.654L373.971 288.92L413.207 288.92" stroke="#13322B" stroke-opacity="0.1" stroke-width="2"/>
<path d="M276.952 597.639L316.503 597.639L345.237 626.372L373.971 597.639L413.207 597.639" stroke="#13322B" stroke-opacity="0.1" stroke-width="2"/>
<path d="M276.952 255.545L316.503 255.545L345.237 284.279L373.971 255.545L413.207 255.546" stroke="#13322B" stroke-opacity="0.1" stroke-width="2"/>
<path d="M276.952 563.22L316.503 563.22L345.237 591.953L373.971 563.22L413.207 563.22" stroke="#13322B" stroke-opacity="0.1" stroke-width="2"/>
<path d="M276.952 221.126L316.503 221.126L345.237 249.86L373.971 221.127L413.207 221.127" stroke="#13322B" stroke-opacity="0.1" stroke-width="2"/>
<path d="M276.952 528.802L316.503 528.802L345.237 557.536L373.971 528.802L413.207 528.803" stroke="#13322B" stroke-opacity="0.1" stroke-width="2"/>
<path d="M276.952 186.709L316.503 186.709L345.237 215.443L373.971 186.709L413.207 186.709" stroke="#13322B" stroke-opacity="0.1" stroke-width="2"/>
<path d="M276.952 494.385L316.503 494.385L345.237 523.118L373.971 494.385L413.207 494.385" stroke="#13322B" stroke-opacity="0.1" stroke-width="2"/>
<path d="M276.952 152.291L316.503 152.291L345.237 181.025L373.971 152.291L413.207 152.292" stroke="#13322B" stroke-opacity="0.1" stroke-width="2"/>
<path d="M276.952 459.966L316.503 459.966L345.237 488.7L373.971 459.966L413.207 459.966" stroke="#13322B" stroke-opacity="0.1" stroke-width="2"/>
<path d="M276.952 117.873L316.503 117.873L345.237 146.606L373.971 117.873L413.207 117.873" stroke="#13322B" stroke-opacity="0.1" stroke-width="2"/>
<path d="M276.952 425.548L316.503 425.548L345.237 454.282L373.971 425.548L413.207 425.549" stroke="#13322B" stroke-opacity="0.1" stroke-width="2"/>
<path d="M276.952 83.455L316.503 83.455L345.237 112.189L373.971 83.4551L413.207 83.4556" stroke="#13322B" stroke-opacity="0.1" stroke-width="2"/>
<path d="M276.952 391.131L316.503 391.131L345.237 419.865L373.971 391.131L413.207 391.131" stroke="#13322B" stroke-opacity="0.1" stroke-width="2"/>
<path d="M276.952 49.0375L316.503 49.0375L345.237 77.7712L373.971 49.0375L413.207 49.038" stroke="#13322B" stroke-opacity="0.1" stroke-width="2"/>
<path d="M276.952 356.712L316.503 356.712L345.237 385.446L373.971 356.712L413.207 356.713" stroke="#13322B" stroke-opacity="0.1" stroke-width="2"/>
<path d="M276.952 14.6187L316.503 14.6187L345.237 43.3525L373.971 14.6188L413.207 14.6193" stroke="#13322B" stroke-opacity="0.1" stroke-width="2"/>
<path d="M276.952 322.295L316.503 322.295L345.237 351.028L373.971 322.295L413.207 322.295" stroke="#13322B" stroke-opacity="0.1" stroke-width="2"/>
<path d="M276.952 -19.7988L316.503 -19.7988L345.237 8.93494L373.971 -19.7988L413.207 -19.7983" stroke="#13322B" stroke-opacity="0.1" stroke-width="2"/>
<path d="M53.7054 631.013L93.2561 631.013L121.99 659.747L150.724 631.013L189.96 631.014" stroke="#13322B" stroke-opacity="0.1" stroke-width="2"/>
<path d="M53.7054 288.92L93.2561 288.92L121.99 317.654L150.724 288.92L189.96 288.92" stroke="#13322B" stroke-opacity="0.1" stroke-width="2"/>
<path d="M53.7054 597.639L93.2561 597.639L121.99 626.372L150.724 597.639L189.96 597.639" stroke="#13322B" stroke-opacity="0.1" stroke-width="2"/>
<path d="M53.7054 255.545L93.2561 255.545L121.99 284.279L150.724 255.545L189.96 255.546" stroke="#13322B" stroke-opacity="0.1" stroke-width="2"/>
<path d="M53.7054 563.22L93.2561 563.22L121.99 591.953L150.724 563.22L189.96 563.22" stroke="#13322B" stroke-opacity="0.1" stroke-width="2"/>
<path d="M53.7054 221.126L93.2561 221.126L121.99 249.86L150.724 221.127L189.96 221.127" stroke="#13322B" stroke-opacity="0.1" stroke-width="2"/>
<path d="M53.7054 528.802L93.2561 528.802L121.99 557.536L150.724 528.802L189.96 528.803" stroke="#13322B" stroke-opacity="0.1" stroke-width="2"/>
<path d="M53.7054 186.709L93.2561 186.709L121.99 215.443L150.724 186.709L189.96 186.709" stroke="#13322B" stroke-opacity="0.1" stroke-width="2"/>
<path d="M53.7054 494.385L93.2561 494.385L121.99 523.118L150.724 494.385L189.96 494.385" stroke="#13322B" stroke-opacity="0.1" stroke-width="2"/>
<path d="M53.7054 152.291L93.2561 152.291L121.99 181.025L150.724 152.291L189.96 152.292" stroke="#13322B" stroke-opacity="0.1" stroke-width="2"/>
<path d="M53.7054 459.966L93.2561 459.966L121.99 488.7L150.724 459.966L189.96 459.966" stroke="#13322B" stroke-opacity="0.1" stroke-width="2"/>
<path d="M53.7054 117.873L93.2561 117.873L121.99 146.606L150.724 117.873L189.96 117.873" stroke="#13322B" stroke-opacity="0.1" stroke-width="2"/>
<path d="M53.7054 425.548L93.2561 425.548L121.99 454.282L150.724 425.548L189.96 425.549" stroke="#13322B" stroke-opacity="0.1" stroke-width="2"/>
<path d="M53.7054 83.455L93.2561 83.455L121.99 112.189L150.724 83.4551L189.96 83.4556" stroke="#13322B" stroke-opacity="0.1" stroke-width="2"/>
<path d="M53.7054 391.131L93.2561 391.131L121.99 419.865L150.724 391.131L189.96 391.131" stroke="#13322B" stroke-opacity="0.1" stroke-width="2"/>
<path d="M53.7054 49.0375L93.2561 49.0375L121.99 77.7712L150.724 49.0375L189.96 49.038" stroke="#13322B" stroke-opacity="0.1" stroke-width="2"/>
<path d="M53.7054 356.712L93.2561 356.712L121.99 385.446L150.724 356.712L189.96 356.713" stroke="#13322B" stroke-opacity="0.1" stroke-width="2"/>
<path d="M53.7054 14.6187L93.2561 14.6187L121.99 43.3525L150.724 14.6188L189.96 14.6193" stroke="#13322B" stroke-opacity="0.1" stroke-width="2"/>
<path d="M53.7054 322.295L93.2561 322.295L121.99 351.028L150.724 322.295L189.96 322.295" stroke="#13322B" stroke-opacity="0.1" stroke-width="2"/>
<path d="M53.7054 -19.7988L93.2561 -19.7988L121.99 8.93494L150.724 -19.7988L189.96 -19.7983" stroke="#13322B" stroke-opacity="0.1" stroke-width="2"/>
<path d="M1728.68 648.054L1768.23 648.054L1796.96 676.787L1825.69 648.054L1864.93 648.054" stroke="#13322B" stroke-opacity="0.1" stroke-width="2"/>
<path d="M1728.68 305.96L1768.23 305.96L1796.96 334.694L1825.69 305.96L1864.93 305.961" stroke="#13322B" stroke-opacity="0.1" stroke-width="2"/>
<path d="M1728.68 614.679L1768.23 614.679L1796.96 643.413L1825.69 614.679L1864.93 614.679" stroke="#13322B" stroke-opacity="0.1" stroke-width="2"/>
<path d="M1728.68 272.586L1768.23 272.586L1796.96 301.319L1825.69 272.586L1864.93 272.586" stroke="#13322B" stroke-opacity="0.1" stroke-width="2"/>
<path d="M1728.68 580.26L1768.23 580.26L1796.96 608.994L1825.69 580.26L1864.93 580.261" stroke="#13322B" stroke-opacity="0.1" stroke-width="2"/>
<path d="M1728.68 238.167L1768.23 238.167L1796.96 266.901L1825.69 238.167L1864.93 238.167" stroke="#13322B" stroke-opacity="0.1" stroke-width="2"/>
<path d="M1728.68 545.843L1768.23 545.843L1796.96 574.576L1825.69 545.843L1864.93 545.843" stroke="#13322B" stroke-opacity="0.1" stroke-width="2"/>
<path d="M1728.68 203.749L1768.23 203.749L1796.96 232.483L1825.69 203.749L1864.93 203.75" stroke="#13322B" stroke-opacity="0.1" stroke-width="2"/>
<path d="M1728.68 511.425L1768.23 511.425L1796.96 540.159L1825.69 511.425L1864.93 511.426" stroke="#13322B" stroke-opacity="0.1" stroke-width="2"/>
<path d="M1728.68 169.332L1768.23 169.332L1796.96 198.066L1825.69 169.332L1864.93 169.332" stroke="#13322B" stroke-opacity="0.1" stroke-width="2"/>
<path d="M1728.68 477.006L1768.23 477.006L1796.96 505.74L1825.69 477.006L1864.93 477.007" stroke="#13322B" stroke-opacity="0.1" stroke-width="2"/>
<path d="M1728.68 134.913L1768.23 134.913L1796.96 163.647L1825.69 134.913L1864.93 134.914" stroke="#13322B" stroke-opacity="0.1" stroke-width="2"/>
<path d="M1728.68 442.589L1768.23 442.589L1796.96 471.323L1825.69 442.589L1864.93 442.589" stroke="#13322B" stroke-opacity="0.1" stroke-width="2"/>
<path d="M1728.68 100.496L1768.23 100.496L1796.96 129.229L1825.69 100.496L1864.93 100.496" stroke="#13322B" stroke-opacity="0.1" stroke-width="2"/>
<path d="M1728.68 408.171L1768.23 408.171L1796.96 436.905L1825.69 408.171L1864.93 408.172" stroke="#13322B" stroke-opacity="0.1" stroke-width="2"/>
<path d="M1728.68 66.078L1768.23 66.078L1796.96 94.8118L1825.69 66.0781L1864.93 66.0785" stroke="#13322B" stroke-opacity="0.1" stroke-width="2"/>
<path d="M1728.68 373.753L1768.23 373.753L1796.96 402.486L1825.69 373.753L1864.93 373.753" stroke="#13322B" stroke-opacity="0.1" stroke-width="2"/>
<path d="M1728.68 31.6592L1768.23 31.6593L1796.96 60.393L1825.69 31.6593L1864.93 31.6598" stroke="#13322B" stroke-opacity="0.1" stroke-width="2"/>
<path d="M1728.68 339.335L1768.23 339.335L1796.96 368.069L1825.69 339.335L1864.93 339.336" stroke="#13322B" stroke-opacity="0.1" stroke-width="2"/>
<path d="M1728.68 -2.75829L1768.23 -2.75827L1796.96 25.9755L1825.69 -2.75824L1864.93 -2.75776" stroke="#13322B" stroke-opacity="0.1" stroke-width="2"/>
<path d="M1505.43 648.054L1544.98 648.054L1573.71 676.787L1602.45 648.054L1641.68 648.054" stroke="#13322B" stroke-opacity="0.1" stroke-width="2"/>
<path d="M1505.43 305.96L1544.98 305.96L1573.71 334.694L1602.45 305.96L1641.68 305.961" stroke="#13322B" stroke-opacity="0.1" stroke-width="2"/>
<path d="M1505.43 614.679L1544.98 614.679L1573.71 643.413L1602.45 614.679L1641.68 614.679" stroke="#13322B" stroke-opacity="0.1" stroke-width="2"/>
<path d="M1505.43 272.586L1544.98 272.586L1573.71 301.319L1602.45 272.586L1641.68 272.586" stroke="#13322B" stroke-opacity="0.1" stroke-width="2"/>
<path d="M1505.43 580.26L1544.98 580.26L1573.71 608.994L1602.45 580.26L1641.68 580.261" stroke="#13322B" stroke-opacity="0.1" stroke-width="2"/>
<path d="M1505.43 238.167L1544.98 238.167L1573.71 266.901L1602.45 238.167L1641.68 238.167" stroke="#13322B" stroke-opacity="0.1" stroke-width="2"/>
<path d="M1505.43 545.843L1544.98 545.843L1573.71 574.576L1602.45 545.843L1641.68 545.843" stroke="#13322B" stroke-opacity="0.1" stroke-width="2"/>
<path d="M1505.43 203.749L1544.98 203.749L1573.71 232.483L1602.45 203.749L1641.68 203.75" stroke="#13322B" stroke-opacity="0.1" stroke-width="2"/>
<path d="M1505.43 511.425L1544.98 511.425L1573.71 540.159L1602.45 511.425L1641.68 511.426" stroke="#13322B" stroke-opacity="0.1" stroke-width="2"/>
<path d="M1505.43 169.332L1544.98 169.332L1573.71 198.066L1602.45 169.332L1641.68 169.332" stroke="#13322B" stroke-opacity="0.1" stroke-width="2"/>
<path d="M1505.43 477.006L1544.98 477.006L1573.71 505.74L1602.45 477.006L1641.68 477.007" stroke="#13322B" stroke-opacity="0.1" stroke-width="2"/>
<path d="M1505.43 134.913L1544.98 134.913L1573.71 163.647L1602.45 134.913L1641.68 134.914" stroke="#13322B" stroke-opacity="0.1" stroke-width="2"/>
<path d="M1505.43 442.589L1544.98 442.589L1573.71 471.323L1602.45 442.589L1641.68 442.589" stroke="#13322B" stroke-opacity="0.1" stroke-width="2"/>
<path d="M1505.43 100.496L1544.98 100.496L1573.71 129.229L1602.45 100.496L1641.68 100.496" stroke="#13322B" stroke-opacity="0.1" stroke-width="2"/>
<path d="M1505.43 408.171L1544.98 408.171L1573.71 436.905L1602.45 408.171L1641.68 408.172" stroke="#13322B" stroke-opacity="0.1" stroke-width="2"/>
<path d="M1505.43 66.078L1544.98 66.078L1573.71 94.8118L1602.45 66.0781L1641.68 66.0785" stroke="#13322B" stroke-opacity="0.1" stroke-width="2"/>
<path d="M1505.43 373.753L1544.98 373.753L1573.71 402.486L1602.45 373.753L1641.68 373.753" stroke="#13322B" stroke-opacity="0.1" stroke-width="2"/>
<path d="M1505.43 31.6592L1544.98 31.6593L1573.71 60.393L1602.45 31.6593L1641.68 31.6598" stroke="#13322B" stroke-opacity="0.1" stroke-width="2"/>
<path d="M1505.43 339.335L1544.98 339.335L1573.71 368.069L1602.45 339.335L1641.68 339.336" stroke="#13322B" stroke-opacity="0.1" stroke-width="2"/>
<path d="M1505.43 -2.75829L1544.98 -2.75827L1573.71 25.9755L1602.45 -2.75824L1641.68 -2.75776" stroke="#13322B" stroke-opacity="0.1" stroke-width="2"/>
<path d="M1282.18 648.054L1321.73 648.054L1350.46 676.787L1379.2 648.054L1418.43 648.054" stroke="#13322B" stroke-opacity="0.1" stroke-width="2"/>
<path d="M1282.18 305.96L1321.73 305.96L1350.46 334.694L1379.2 305.96L1418.43 305.961" stroke="#13322B" stroke-opacity="0.1" stroke-width="2"/>
<path d="M1282.18 614.679L1321.73 614.679L1350.46 643.413L1379.2 614.679L1418.43 614.679" stroke="#13322B" stroke-opacity="0.1" stroke-width="2"/>
<path d="M1282.18 272.586L1321.73 272.586L1350.46 301.319L1379.2 272.586L1418.43 272.586" stroke="#13322B" stroke-opacity="0.1" stroke-width="2"/>
<path d="M1282.18 580.26L1321.73 580.26L1350.46 608.994L1379.2 580.26L1418.43 580.261" stroke="#13322B" stroke-opacity="0.1" stroke-width="2"/>
<path d="M1282.18 238.167L1321.73 238.167L1350.46 266.901L1379.2 238.167L1418.43 238.167" stroke="#13322B" stroke-opacity="0.1" stroke-width="2"/>
<path d="M1282.18 545.843L1321.73 545.843L1350.46 574.576L1379.2 545.843L1418.43 545.843" stroke="#13322B" stroke-opacity="0.1" stroke-width="2"/>
<path d="M1282.18 203.749L1321.73 203.749L1350.46 232.483L1379.2 203.749L1418.43 203.75" stroke="#13322B" stroke-opacity="0.1" stroke-width="2"/>
<path d="M1282.18 511.425L1321.73 511.425L1350.46 540.159L1379.2 511.425L1418.43 511.426" stroke="#13322B" stroke-opacity="0.1" stroke-width="2"/>
<path d="M1282.18 169.332L1321.73 169.332L1350.46 198.066L1379.2 169.332L1418.43 169.332" stroke="#13322B" stroke-opacity="0.1" stroke-width="2"/>
<path d="M1282.18 477.006L1321.73 477.006L1350.46 505.74L1379.2 477.006L1418.43 477.007" stroke="#13322B" stroke-opacity="0.1" stroke-width="2"/>
<path d="M1282.18 134.913L1321.73 134.913L1350.46 163.647L1379.2 134.913L1418.43 134.914" stroke="#13322B" stroke-opacity="0.1" stroke-width="2"/>
<path d="M1282.18 442.589L1321.73 442.589L1350.46 471.323L1379.2 442.589L1418.43 442.589" stroke="#13322B" stroke-opacity="0.1" stroke-width="2"/>
<path d="M1282.18 100.496L1321.73 100.496L1350.46 129.229L1379.2 100.496L1418.43 100.496" stroke="#13322B" stroke-opacity="0.1" stroke-width="2"/>
<path d="M1282.18 408.171L1321.73 408.171L1350.46 436.905L1379.2 408.171L1418.43 408.172" stroke="#13322B" stroke-opacity="0.1" stroke-width="2"/>
<path d="M1282.18 66.078L1321.73 66.078L1350.46 94.8118L1379.2 66.0781L1418.43 66.0785" stroke="#13322B" stroke-opacity="0.1" stroke-width="2"/>
<path d="M1282.18 373.753L1321.73 373.753L1350.46 402.486L1379.2 373.753L1418.43 373.753" stroke="#13322B" stroke-opacity="0.1" stroke-width="2"/>
<path d="M1282.18 31.6592L1321.73 31.6593L1350.46 60.393L1379.2 31.6593L1418.43 31.6598" stroke="#13322B" stroke-opacity="0.1" stroke-width="2"/>
<path d="M1282.18 339.335L1321.73 339.335L1350.46 368.069L1379.2 339.335L1418.43 339.336" stroke="#13322B" stroke-opacity="0.1" stroke-width="2"/>
<path d="M1282.18 -2.75829L1321.73 -2.75827L1350.46 25.9755L1379.2 -2.75824L1418.43 -2.75776" stroke="#13322B" stroke-opacity="0.1" stroke-width="2"/>
<path d="M1058.93 648.054L1098.48 648.054L1127.22 676.787L1155.95 648.054L1195.19 648.054" stroke="#13322B" stroke-opacity="0.1" stroke-width="2"/>
<path d="M1058.93 305.96L1098.48 305.96L1127.22 334.694L1155.95 305.96L1195.19 305.961" stroke="#13322B" stroke-opacity="0.1" stroke-width="2"/>
<path d="M1058.93 614.679L1098.48 614.679L1127.22 643.413L1155.95 614.679L1195.19 614.679" stroke="#13322B" stroke-opacity="0.1" stroke-width="2"/>
<path d="M1058.93 272.586L1098.48 272.586L1127.22 301.319L1155.95 272.586L1195.19 272.586" stroke="#13322B" stroke-opacity="0.1" stroke-width="2"/>
<path d="M1058.93 580.26L1098.48 580.26L1127.22 608.994L1155.95 580.26L1195.19 580.261" stroke="#13322B" stroke-opacity="0.1" stroke-width="2"/>
<path d="M1058.93 238.167L1098.48 238.167L1127.22 266.901L1155.95 238.167L1195.19 238.167" stroke="#13322B" stroke-opacity="0.1" stroke-width="2"/>
<path d="M1058.93 545.843L1098.48 545.843L1127.22 574.576L1155.95 545.843L1195.19 545.843" stroke="#13322B" stroke-opacity="0.1" stroke-width="2"/>
<path d="M1058.93 203.749L1098.48 203.749L1127.22 232.483L1155.95 203.749L1195.19 203.75" stroke="#13322B" stroke-opacity="0.1" stroke-width="2"/>
<path d="M1058.93 511.425L1098.48 511.425L1127.22 540.159L1155.95 511.425L1195.19 511.426" stroke="#13322B" stroke-opacity="0.1" stroke-width="2"/>
<path d="M1058.93 169.332L1098.48 169.332L1127.22 198.066L1155.95 169.332L1195.19 169.332" stroke="#13322B" stroke-opacity="0.1" stroke-width="2"/>
<path d="M1058.93 477.006L1098.48 477.006L1127.22 505.74L1155.95 477.006L1195.19 477.007" stroke="#13322B" stroke-opacity="0.1" stroke-width="2"/>
<path d="M1058.93 134.913L1098.48 134.913L1127.22 163.647L1155.95 134.913L1195.19 134.914" stroke="#13322B" stroke-opacity="0.1" stroke-width="2"/>
<path d="M1058.93 442.589L1098.48 442.589L1127.22 471.323L1155.95 442.589L1195.19 442.589" stroke="#13322B" stroke-opacity="0.1" stroke-width="2"/>
<path d="M1058.93 100.496L1098.48 100.496L1127.22 129.229L1155.95 100.496L1195.19 100.496" stroke="#13322B" stroke-opacity="0.1" stroke-width="2"/>
<path d="M1058.93 408.171L1098.48 408.171L1127.22 436.905L1155.95 408.171L1195.19 408.172" stroke="#13322B" stroke-opacity="0.1" stroke-width="2"/>
<path d="M1058.93 66.078L1098.48 66.078L1127.22 94.8118L1155.95 66.0781L1195.19 66.0785" stroke="#13322B" stroke-opacity="0.1" stroke-width="2"/>
<path d="M1058.93 373.753L1098.48 373.753L1127.22 402.486L1155.95 373.753L1195.19 373.753" stroke="#13322B" stroke-opacity="0.1" stroke-width="2"/>
<path d="M1058.93 31.6592L1098.48 31.6593L1127.22 60.393L1155.95 31.6593L1195.19 31.6598" stroke="#13322B" stroke-opacity="0.1" stroke-width="2"/>
<path d="M1058.93 339.335L1098.48 339.335L1127.22 368.069L1155.95 339.335L1195.19 339.336" stroke="#13322B" stroke-opacity="0.1" stroke-width="2"/>
<path d="M1058.93 -2.75829L1098.48 -2.75827L1127.22 25.9755L1155.95 -2.75824L1195.19 -2.75776" stroke="#13322B" stroke-opacity="0.1" stroke-width="2"/>
<path d="M835.685 648.054L875.235 648.054L903.969 676.787L932.703 648.054L971.939 648.054" stroke="#13322B" stroke-opacity="0.1" stroke-width="2"/>
<path d="M835.685 305.96L875.235 305.96L903.969 334.694L932.703 305.96L971.939 305.961" stroke="#13322B" stroke-opacity="0.1" stroke-width="2"/>
<path d="M835.685 614.679L875.235 614.679L903.969 643.413L932.703 614.679L971.939 614.679" stroke="#13322B" stroke-opacity="0.1" stroke-width="2"/>
<path d="M835.685 272.586L875.235 272.586L903.969 301.319L932.703 272.586L971.939 272.586" stroke="#13322B" stroke-opacity="0.1" stroke-width="2"/>
<path d="M835.685 580.26L875.235 580.26L903.969 608.994L932.703 580.26L971.939 580.261" stroke="#13322B" stroke-opacity="0.1" stroke-width="2"/>
<path d="M835.685 238.167L875.235 238.167L903.969 266.901L932.703 238.167L971.939 238.167" stroke="#13322B" stroke-opacity="0.1" stroke-width="2"/>
<path d="M835.685 545.843L875.235 545.843L903.969 574.576L932.703 545.843L971.939 545.843" stroke="#13322B" stroke-opacity="0.1" stroke-width="2"/>
<path d="M835.685 203.749L875.235 203.749L903.969 232.483L932.703 203.749L971.939 203.75" stroke="#13322B" stroke-opacity="0.1" stroke-width="2"/>
<path d="M835.685 511.425L875.235 511.425L903.969 540.159L932.703 511.425L971.939 511.426" stroke="#13322B" stroke-opacity="0.1" stroke-width="2"/>
<path d="M835.685 169.332L875.235 169.332L903.969 198.066L932.703 169.332L971.939 169.332" stroke="#13322B" stroke-opacity="0.1" stroke-width="2"/>
<path d="M835.685 477.006L875.235 477.006L903.969 505.74L932.703 477.006L971.939 477.007" stroke="#13322B" stroke-opacity="0.1" stroke-width="2"/>
<path d="M835.685 134.913L875.235 134.913L903.969 163.647L932.703 134.913L971.939 134.914" stroke="#13322B" stroke-opacity="0.1" stroke-width="2"/>
<path d="M835.685 442.589L875.235 442.589L903.969 471.323L932.703 442.589L971.939 442.589" stroke="#13322B" stroke-opacity="0.1" stroke-width="2"/>
<path d="M835.685 100.496L875.235 100.496L903.969 129.229L932.703 100.496L971.939 100.496" stroke="#13322B" stroke-opacity="0.1" stroke-width="2"/>
<path d="M835.685 408.171L875.235 408.171L903.969 436.905L932.703 408.171L971.939 408.172" stroke="#13322B" stroke-opacity="0.1" stroke-width="2"/>
<path d="M835.685 66.078L875.235 66.078L903.969 94.8118L932.703 66.0781L971.939 66.0785" stroke="#13322B" stroke-opacity="0.1" stroke-width="2"/>
<path d="M835.685 373.753L875.235 373.753L903.969 402.486L932.703 373.753L971.939 373.753" stroke="#13322B" stroke-opacity="0.1" stroke-width="2"/>
<path d="M835.685 31.6592L875.235 31.6593L903.969 60.393L932.703 31.6593L971.939 31.6598" stroke="#13322B" stroke-opacity="0.1" stroke-width="2"/>
<path d="M835.685 339.335L875.235 339.335L903.969 368.069L932.703 339.335L971.939 339.336" stroke="#13322B" stroke-opacity="0.1" stroke-width="2"/>
<path d="M835.685 -2.75829L875.235 -2.75827L903.969 25.9755L932.703 -2.75824L971.939 -2.75776" stroke="#13322B" stroke-opacity="0.1" stroke-width="2"/>
<path d="M612.437 648.054L651.988 648.054L680.722 676.787L709.455 648.054L748.692 648.054" stroke="#13322B" stroke-opacity="0.1" stroke-width="2"/>
<path d="M612.437 305.96L651.988 305.96L680.722 334.694L709.455 305.96L748.692 305.961" stroke="#13322B" stroke-opacity="0.1" stroke-width="2"/>
<path d="M612.437 614.679L651.988 614.679L680.722 643.413L709.455 614.679L748.692 614.679" stroke="#13322B" stroke-opacity="0.1" stroke-width="2"/>
<path d="M612.437 272.586L651.988 272.586L680.722 301.319L709.455 272.586L748.692 272.586" stroke="#13322B" stroke-opacity="0.1" stroke-width="2"/>
<path d="M612.437 580.26L651.988 580.26L680.722 608.994L709.455 580.26L748.692 580.261" stroke="#13322B" stroke-opacity="0.1" stroke-width="2"/>
<path d="M612.437 238.167L651.988 238.167L680.722 266.901L709.455 238.167L748.692 238.167" stroke="#13322B" stroke-opacity="0.1" stroke-width="2"/>
<path d="M612.437 545.843L651.988 545.843L680.722 574.576L709.455 545.843L748.692 545.843" stroke="#13322B" stroke-opacity="0.1" stroke-width="2"/>
<path d="M612.437 203.749L651.988 203.749L680.722 232.483L709.455 203.749L748.692 203.75" stroke="#13322B" stroke-opacity="0.1" stroke-width="2"/>
<path d="M612.437 511.425L651.988 511.425L680.722 540.159L709.455 511.425L748.692 511.426" stroke="#13322B" stroke-opacity="0.1" stroke-width="2"/>
<path d="M612.437 169.332L651.988 169.332L680.722 198.066L709.455 169.332L748.692 169.332" stroke="#13322B" stroke-opacity="0.1" stroke-width="2"/>
<path d="M612.437 477.006L651.988 477.006L680.722 505.74L709.455 477.006L748.692 477.007" stroke="#13322B" stroke-opacity="0.1" stroke-width="2"/>
<path d="M612.437 134.913L651.988 134.913L680.722 163.647L709.455 134.913L748.692 134.914" stroke="#13322B" stroke-opacity="0.1" stroke-width="2"/>
<path d="M612.437 442.589L651.988 442.589L680.722 471.323L709.455 442.589L748.692 442.589" stroke="#13322B" stroke-opacity="0.1" stroke-width="2"/>
<path d="M612.437 100.496L651.988 100.496L680.722 129.229L709.455 100.496L748.692 100.496" stroke="#13322B" stroke-opacity="0.1" stroke-width="2"/>
<path d="M612.437 408.171L651.988 408.171L680.722 436.905L709.455 408.171L748.692 408.172" stroke="#13322B" stroke-opacity="0.1" stroke-width="2"/>
<path d="M612.437 66.078L651.988 66.078L680.722 94.8118L709.455 66.0781L748.692 66.0785" stroke="#13322B" stroke-opacity="0.1" stroke-width="2"/>
<path d="M612.437 373.753L651.988 373.753L680.722 402.486L709.455 373.753L748.692 373.753" stroke="#13322B" stroke-opacity="0.1" stroke-width="2"/>
<path d="M612.437 31.6592L651.988 31.6593L680.722 60.393L709.455 31.6593L748.692 31.6598" stroke="#13322B" stroke-opacity="0.1" stroke-width="2"/>
<path d="M612.437 339.335L651.988 339.335L680.722 368.069L709.455 339.335L748.692 339.336" stroke="#13322B" stroke-opacity="0.1" stroke-width="2"/>
<path d="M612.437 -2.75829L651.988 -2.75827L680.722 25.9755L709.455 -2.75824L748.692 -2.75776" stroke="#13322B" stroke-opacity="0.1" stroke-width="2"/>
<path d="M389.19 648.054L428.741 648.054L457.475 676.787L486.208 648.054L525.445 648.054" stroke="#13322B" stroke-opacity="0.1" stroke-width="2"/>
<path d="M389.19 305.96L428.741 305.96L457.475 334.694L486.208 305.96L525.445 305.961" stroke="#13322B" stroke-opacity="0.1" stroke-width="2"/>
<path d="M389.19 614.679L428.741 614.679L457.475 643.413L486.208 614.679L525.445 614.679" stroke="#13322B" stroke-opacity="0.1" stroke-width="2"/>
<path d="M389.19 272.586L428.741 272.586L457.475 301.319L486.208 272.586L525.445 272.586" stroke="#13322B" stroke-opacity="0.1" stroke-width="2"/>
<path d="M389.19 580.26L428.741 580.26L457.475 608.994L486.208 580.26L525.445 580.261" stroke="#13322B" stroke-opacity="0.1" stroke-width="2"/>
<path d="M389.19 238.167L428.741 238.167L457.475 266.901L486.208 238.167L525.445 238.167" stroke="#13322B" stroke-opacity="0.1" stroke-width="2"/>
<path d="M389.19 545.843L428.741 545.843L457.475 574.576L486.208 545.843L525.445 545.843" stroke="#13322B" stroke-opacity="0.1" stroke-width="2"/>
<path d="M389.19 203.749L428.741 203.749L457.475 232.483L486.208 203.749L525.445 203.75" stroke="#13322B" stroke-opacity="0.1" stroke-width="2"/>
<path d="M389.19 511.425L428.741 511.425L457.475 540.159L486.208 511.425L525.445 511.426" stroke="#13322B" stroke-opacity="0.1" stroke-width="2"/>
<path d="M389.19 169.332L428.741 169.332L457.475 198.066L486.208 169.332L525.445 169.332" stroke="#13322B" stroke-opacity="0.1" stroke-width="2"/>
<path d="M389.19 477.006L428.741 477.006L457.475 505.74L486.208 477.006L525.445 477.007" stroke="#13322B" stroke-opacity="0.1" stroke-width="2"/>
<path d="M389.19 134.913L428.741 134.913L457.475 163.647L486.208 134.913L525.445 134.914" stroke="#13322B" stroke-opacity="0.1" stroke-width="2"/>
<path d="M389.19 442.589L428.741 442.589L457.475 471.323L486.208 442.589L525.445 442.589" stroke="#13322B" stroke-opacity="0.1" stroke-width="2"/>
<path d="M389.19 100.496L428.741 100.496L457.475 129.229L486.208 100.496L525.445 100.496" stroke="#13322B" stroke-opacity="0.1" stroke-width="2"/>
<path d="M389.19 408.171L428.741 408.171L457.475 436.905L486.208 408.171L525.445 408.172" stroke="#13322B" stroke-opacity="0.1" stroke-width="2"/>
<path d="M389.19 66.078L428.741 66.078L457.475 94.8118L486.208 66.0781L525.445 66.0785" stroke="#13322B" stroke-opacity="0.1" stroke-width="2"/>
<path d="M389.19 373.753L428.741 373.753L457.475 402.486L486.208 373.753L525.445 373.753" stroke="#13322B" stroke-opacity="0.1" stroke-width="2"/>
<path d="M389.19 31.6592L428.741 31.6593L457.475 60.393L486.208 31.6593L525.445 31.6598" stroke="#13322B" stroke-opacity="0.1" stroke-width="2"/>
<path d="M389.19 339.335L428.741 339.335L457.475 368.069L486.208 339.335L525.445 339.336" stroke="#13322B" stroke-opacity="0.1" stroke-width="2"/>
<path d="M389.19 -2.75829L428.741 -2.75827L457.475 25.9755L486.208 -2.75824L525.445 -2.75776" stroke="#13322B" stroke-opacity="0.1" stroke-width="2"/>
<path d="M165.943 648.054L205.493 648.054L234.227 676.787L262.961 648.054L302.197 648.054" stroke="#13322B" stroke-opacity="0.1" stroke-width="2"/>
<path d="M165.943 305.96L205.493 305.96L234.227 334.694L262.961 305.96L302.197 305.961" stroke="#13322B" stroke-opacity="0.1" stroke-width="2"/>
<path d="M165.943 614.679L205.493 614.679L234.227 643.413L262.961 614.679L302.197 614.679" stroke="#13322B" stroke-opacity="0.1" stroke-width="2"/>
<path d="M165.943 272.586L205.493 272.586L234.227 301.319L262.961 272.586L302.197 272.586" stroke="#13322B" stroke-opacity="0.1" stroke-width="2"/>
<path d="M165.943 580.26L205.493 580.26L234.227 608.994L262.961 580.26L302.197 580.261" stroke="#13322B" stroke-opacity="0.1" stroke-width="2"/>
<path d="M165.943 238.167L205.493 238.167L234.227 266.901L262.961 238.167L302.197 238.167" stroke="#13322B" stroke-opacity="0.1" stroke-width="2"/>
<path d="M165.943 545.843L205.493 545.843L234.227 574.576L262.961 545.843L302.197 545.843" stroke="#13322B" stroke-opacity="0.1" stroke-width="2"/>
<path d="M165.943 203.749L205.493 203.749L234.227 232.483L262.961 203.749L302.197 203.75" stroke="#13322B" stroke-opacity="0.1" stroke-width="2"/>
<path d="M165.943 511.425L205.493 511.425L234.227 540.159L262.961 511.425L302.197 511.426" stroke="#13322B" stroke-opacity="0.1" stroke-width="2"/>
<path d="M165.943 169.332L205.493 169.332L234.227 198.066L262.961 169.332L302.197 169.332" stroke="#13322B" stroke-opacity="0.1" stroke-width="2"/>
<path d="M165.943 477.006L205.493 477.006L234.227 505.74L262.961 477.006L302.197 477.007" stroke="#13322B" stroke-opacity="0.1" stroke-width="2"/>
<path d="M165.943 134.913L205.493 134.913L234.227 163.647L262.961 134.913L302.197 134.914" stroke="#13322B" stroke-opacity="0.1" stroke-width="2"/>
<path d="M165.943 442.589L205.493 442.589L234.227 471.323L262.961 442.589L302.197 442.589" stroke="#13322B" stroke-opacity="0.1" stroke-width="2"/>
<path d="M165.943 100.496L205.493 100.496L234.227 129.229L262.961 100.496L302.197 100.496" stroke="#13322B" stroke-opacity="0.1" stroke-width="2"/>
<path d="M165.943 408.171L205.493 408.171L234.227 436.905L262.961 408.171L302.197 408.172" stroke="#13322B" stroke-opacity="0.1" stroke-width="2"/>
<path d="M165.943 66.078L205.493 66.078L234.227 94.8118L262.961 66.0781L302.197 66.0785" stroke="#13322B" stroke-opacity="0.1" stroke-width="2"/>
<path d="M165.943 373.753L205.493 373.753L234.227 402.486L262.961 373.753L302.197 373.753" stroke="#13322B" stroke-opacity="0.1" stroke-width="2"/>
<path d="M165.943 31.6592L205.493 31.6593L234.227 60.393L262.961 31.6593L302.197 31.6598" stroke="#13322B" stroke-opacity="0.1" stroke-width="2"/>
<path d="M165.943 339.335L205.493 339.335L234.227 368.069L262.961 339.335L302.197 339.336" stroke="#13322B" stroke-opacity="0.1" stroke-width="2"/>
<path d="M165.943 -2.75829L205.493 -2.75827L234.227 25.9755L262.961 -2.75824L302.197 -2.75776" stroke="#13322B" stroke-opacity="0.1" stroke-width="2"/>
<path d="M-57.3048 648.054L-17.7542 648.054L10.9796 676.787L39.7133 648.054L78.9499 648.054" stroke="#13322B" stroke-opacity="0.1" stroke-width="2"/>
<path d="M-57.3048 305.96L-17.7542 305.96L10.9796 334.694L39.7133 305.96L78.9499 305.961" stroke="#13322B" stroke-opacity="0.1" stroke-width="2"/>
<path d="M-57.3048 614.679L-17.7542 614.679L10.9796 643.413L39.7133 614.679L78.9499 614.679" stroke="#13322B" stroke-opacity="0.1" stroke-width="2"/>
<path d="M-57.3048 272.586L-17.7542 272.586L10.9796 301.319L39.7133 272.586L78.9499 272.586" stroke="#13322B" stroke-opacity="0.1" stroke-width="2"/>
<path d="M-57.3048 580.26L-17.7542 580.26L10.9796 608.994L39.7133 580.26L78.9499 580.261" stroke="#13322B" stroke-opacity="0.1" stroke-width="2"/>
<path d="M-57.3048 238.167L-17.7542 238.167L10.9796 266.901L39.7133 238.167L78.9499 238.167" stroke="#13322B" stroke-opacity="0.1" stroke-width="2"/>
<path d="M-57.3048 545.843L-17.7542 545.843L10.9796 574.576L39.7133 545.843L78.9499 545.843" stroke="#13322B" stroke-opacity="0.1" stroke-width="2"/>
<path d="M-57.3048 203.749L-17.7542 203.749L10.9796 232.483L39.7133 203.749L78.9499 203.75" stroke="#13322B" stroke-opacity="0.1" stroke-width="2"/>
<path d="M-57.3048 511.425L-17.7542 511.425L10.9796 540.159L39.7133 511.425L78.9499 511.426" stroke="#13322B" stroke-opacity="0.1" stroke-width="2"/>
<path d="M-57.3048 169.332L-17.7542 169.332L10.9796 198.066L39.7133 169.332L78.9499 169.332" stroke="#13322B" stroke-opacity="0.1" stroke-width="2"/>
<path d="M-57.3048 477.006L-17.7542 477.006L10.9796 505.74L39.7133 477.006L78.9499 477.007" stroke="#13322B" stroke-opacity="0.1" stroke-width="2"/>
<path d="M-57.3048 134.913L-17.7542 134.913L10.9796 163.647L39.7133 134.913L78.9499 134.914" stroke="#13322B" stroke-opacity="0.1" stroke-width="2"/>
<path d="M-57.3048 442.589L-17.7542 442.589L10.9796 471.323L39.7133 442.589L78.9499 442.589" stroke="#13322B" stroke-opacity="0.1" stroke-width="2"/>
<path d="M-57.3048 100.496L-17.7542 100.496L10.9796 129.229L39.7133 100.496L78.9499 100.496" stroke="#13322B" stroke-opacity="0.1" stroke-width="2"/>
<path d="M-57.3048 408.171L-17.7542 408.171L10.9796 436.905L39.7133 408.171L78.9499 408.172" stroke="#13322B" stroke-opacity="0.1" stroke-width="2"/>
<path d="M-57.3048 66.078L-17.7542 66.078L10.9796 94.8118L39.7133 66.0781L78.9499 66.0785" stroke="#13322B" stroke-opacity="0.1" stroke-width="2"/>
<path d="M-57.3048 373.753L-17.7542 373.753L10.9796 402.486L39.7133 373.753L78.9499 373.753" stroke="#13322B" stroke-opacity="0.1" stroke-width="2"/>
<path d="M-57.3048 31.6592L-17.7542 31.6593L10.9796 60.393L39.7133 31.6593L78.9499 31.6598" stroke="#13322B" stroke-opacity="0.1" stroke-width="2"/>
<path d="M-57.3048 339.335L-17.7542 339.335L10.9796 368.069L39.7133 339.335L78.9499 339.336" stroke="#13322B" stroke-opacity="0.1" stroke-width="2"/>
<path d="M-57.3048 -2.75829L-17.7542 -2.75827L10.9796 25.9755L39.7133 -2.75824L78.9499 -2.75776" stroke="#13322B" stroke-opacity="0.1" stroke-width="2"/>
</g>
<defs>
<clipPath id="clip0_457_8981">
<rect width="1920" height="651" fill="white" transform="translate(0.317871)"/>
</clipPath>
</defs>
</svg>
