<svg width="240" height="352" viewBox="0 0 240 352" fill="none" xmlns="http://www.w3.org/2000/svg">
<rect width="240" height="352" rx="12" fill="#009085"/>
<g filter="url(#filter0_d_25_4)">
<path d="M70.1798 251.513C71.6037 251.513 72.9786 251.832 74.3043 252.471C75.6792 253.06 76.9068 253.87 77.987 254.901C79.0673 255.932 79.9265 257.135 80.5649 258.51C81.2032 259.836 81.5224 261.211 81.5224 262.635C81.5224 264.059 81.2032 265.434 80.5649 266.759C79.9265 268.085 79.0673 269.263 77.987 270.295C76.9068 271.326 75.6792 272.136 74.3043 272.725C72.9786 273.363 71.6037 273.683 70.1798 273.683C68.7558 273.683 67.3564 273.363 65.9815 272.725C64.6067 272.136 63.3791 271.326 62.2989 270.295C61.2677 269.263 60.433 268.085 59.7947 266.759C59.1564 265.434 58.8372 264.059 58.8372 262.635C58.8372 261.211 59.1564 259.836 59.7947 258.51C60.433 257.135 61.2677 255.932 62.2989 254.901C63.3791 253.87 64.6067 253.06 65.9815 252.471C67.3564 251.832 68.7558 251.513 70.1798 251.513ZM70.1798 264.329C70.6217 264.329 70.99 264.157 71.2846 263.813C71.6283 263.469 71.8001 263.101 71.8001 262.708C71.8001 262.266 71.6283 261.898 71.2846 261.604C70.99 261.26 70.6217 261.088 70.1798 261.088C69.7379 261.088 69.345 261.26 69.0013 261.604C68.7067 261.898 68.5594 262.266 68.5594 262.708C68.5594 263.101 68.7067 263.469 69.0013 263.813C69.345 264.157 69.7379 264.329 70.1798 264.329ZM63.33 224.63L74.2307 231.553L45.8742 276.113L34.9736 269.19L63.33 224.63ZM39.0245 249.156C37.6005 249.156 36.2011 248.862 34.8263 248.272C33.5005 247.634 32.2975 246.799 31.2173 245.768C30.137 244.737 29.2777 243.559 28.6394 242.233C28.0011 240.907 27.6819 239.532 27.6819 238.108C27.6819 236.684 28.0011 235.309 28.6394 233.984C29.2777 232.658 30.137 231.479 31.2173 230.448C32.2975 229.417 33.5005 228.607 34.8263 228.018C36.2011 227.379 37.6005 227.06 39.0245 227.06C40.4484 227.06 41.8233 227.379 43.1491 228.018C44.5239 228.607 45.7269 229.417 46.7581 230.448C47.8383 231.479 48.6976 232.658 49.3359 233.984C49.9743 235.309 50.2934 236.684 50.2934 238.108C50.2934 239.532 49.9743 240.907 49.3359 242.233C48.6976 243.559 47.8383 244.737 46.7581 245.768C45.7269 246.799 44.5239 247.634 43.1491 248.272C41.8233 248.862 40.4484 249.156 39.0245 249.156ZM39.0245 236.341C38.5335 236.341 38.1161 236.512 37.7724 236.856C37.4778 237.2 37.3305 237.568 37.3305 237.961C37.3305 238.452 37.4778 238.845 37.7724 239.139C38.1161 239.434 38.5335 239.581 39.0245 239.581C39.4664 239.581 39.8347 239.434 40.1293 239.139C40.473 238.845 40.6449 238.452 40.6449 237.961C40.6449 237.568 40.473 237.2 40.1293 236.856C39.8347 236.512 39.4664 236.341 39.0245 236.341ZM102.595 244.516C102.448 243.681 102.35 243.067 102.301 242.675C102.252 242.233 102.227 241.742 102.227 241.202C102.227 239.336 102.546 237.617 103.184 236.046C103.872 234.475 104.805 233.124 105.983 231.995C107.162 230.817 108.537 229.908 110.108 229.27C111.679 228.631 113.373 228.312 115.19 228.312C116.417 228.312 117.792 228.435 119.314 228.681C120.837 228.926 122.703 229.466 124.912 230.301L122.04 242.012C120.223 241.668 118.922 241.447 118.136 241.349C117.35 241.251 116.638 241.202 116 241.202C114.38 241.202 113.57 241.815 113.57 243.043C113.57 244.27 114.257 244.884 115.632 244.884C116.761 244.884 117.989 244.712 119.314 244.369C120.64 244.025 122.089 243.657 123.66 243.264L126.532 254.975C123.488 256.006 120.665 256.742 118.062 257.184C115.509 257.626 113.201 257.847 111.139 257.847C109.764 257.847 108.193 257.774 106.425 257.626C104.658 257.43 102.988 257.062 101.417 256.521V274.051H88.0855V256.227C88.0855 253.919 88.0119 251.808 87.8646 249.893C87.7173 247.929 87.4718 246.038 87.1281 244.221C86.8334 242.405 86.4406 240.612 85.9496 238.845C85.5077 237.028 84.9921 235.113 84.4029 233.1L97.3658 228.681L100.607 242.822C100.754 243.46 100.95 243.902 101.196 244.148C101.441 244.393 101.908 244.516 102.595 244.516ZM145.643 238.403C147.558 238.403 149.424 238.82 151.241 239.655C153.107 240.49 154.752 241.594 156.176 242.969C157.649 244.344 158.827 245.94 159.711 247.757C160.595 249.574 161.037 251.439 161.037 253.354C161.037 255.318 160.595 257.209 159.711 259.026C158.827 260.793 157.649 262.389 156.176 263.813C154.752 265.188 153.107 266.293 151.241 267.128C149.424 267.962 147.558 268.38 145.643 268.38C143.679 268.38 141.764 267.962 139.898 267.128C138.081 266.293 136.437 265.188 134.963 263.813C133.54 262.389 132.386 260.793 131.502 259.026C130.667 257.209 130.25 255.318 130.25 253.354C130.25 251.439 130.667 249.574 131.502 247.757C132.386 245.94 133.54 244.344 134.963 242.969C136.437 241.594 138.081 240.49 139.898 239.655C141.764 238.82 143.679 238.403 145.643 238.403ZM145.643 255.785C146.282 255.785 146.822 255.539 147.264 255.048C147.755 254.557 148 253.993 148 253.354C148 252.716 147.755 252.176 147.264 251.734C146.822 251.243 146.282 250.997 145.643 250.997C144.956 250.997 144.367 251.243 143.876 251.734C143.434 252.176 143.213 252.716 143.213 253.354C143.213 253.993 143.434 254.557 143.876 255.048C144.367 255.539 144.956 255.785 145.643 255.785Z" fill="white"/>
</g>
<g filter="url(#filter1_d_25_4)">
<path d="M98.7695 96.088C98.7055 95.608 98.6468 95.1653 98.5935 94.76C98.5508 94.344 98.5135 93.944 98.4815 93.56C98.4602 93.1653 98.4442 92.7707 98.4335 92.376C98.4228 91.9707 98.4175 91.5387 98.4175 91.08V89.24H101.314V91.08C101.314 91.5387 101.308 91.9707 101.298 92.376C101.287 92.7707 101.266 93.1653 101.234 93.56C101.212 93.944 101.175 94.344 101.122 94.76C101.079 95.1653 101.026 95.608 100.962 96.088H98.7695ZM101.394 98.024C101.394 98.536 101.255 98.8987 100.978 99.112C100.711 99.336 100.348 99.448 99.8895 99.448C99.4202 99.448 99.0522 99.336 98.7855 99.112C98.5188 98.8987 98.3855 98.536 98.3855 98.024C98.3855 97.512 98.5188 97.16 98.7855 96.968C99.0522 96.7653 99.4202 96.664 99.8895 96.664C100.348 96.664 100.711 96.7653 100.978 96.968C101.255 97.16 101.394 97.512 101.394 98.024ZM103.684 92.664L105.876 90.552L108.692 93.992C109.097 94.472 109.359 94.904 109.476 95.288C109.604 95.672 109.668 96.0293 109.668 96.36C109.668 96.7227 109.604 97.064 109.476 97.384C109.359 97.704 109.177 97.9867 108.932 98.232C108.687 98.4667 108.372 98.6533 107.988 98.792C107.615 98.9307 107.172 99 106.66 99H102.436L102.18 95.912H105.876C106.047 95.912 106.132 95.8427 106.132 95.704C106.132 95.608 106.073 95.4853 105.956 95.336L103.684 92.664ZM114.398 95.912C114.462 95.912 114.515 95.928 114.558 95.96C114.611 95.9813 114.648 96.04 114.67 96.136C114.702 96.232 114.723 96.3813 114.734 96.584C114.744 96.7867 114.75 97.064 114.75 97.416C114.75 97.7893 114.744 98.0827 114.734 98.296C114.723 98.5093 114.702 98.6693 114.67 98.776C114.648 98.8827 114.611 98.9467 114.558 98.968C114.515 98.9893 114.462 99 114.398 99H113.614C113.059 99 112.59 98.92 112.206 98.76C111.832 98.5893 111.528 98.3653 111.294 98.088C111.059 97.8107 110.888 97.4853 110.782 97.112C110.675 96.728 110.622 96.328 110.622 95.912V89.24H113.534V95.656C113.534 95.8267 113.619 95.912 113.79 95.912H114.398ZM114.999 95.912C115.073 95.912 115.137 95.8907 115.191 95.848C115.244 95.7947 115.271 95.7307 115.271 95.656V93.272H118.183V95.656C118.183 95.8267 118.268 95.912 118.439 95.912H119.047C119.111 95.912 119.164 95.928 119.207 95.96C119.26 95.9813 119.297 96.04 119.319 96.136C119.351 96.232 119.372 96.3813 119.383 96.584C119.393 96.7867 119.399 97.064 119.399 97.416C119.399 97.7893 119.393 98.0827 119.383 98.296C119.372 98.5093 119.351 98.6693 119.319 98.776C119.297 98.8827 119.26 98.9467 119.207 98.968C119.164 98.9893 119.111 99 119.047 99H118.551C118.188 99 117.852 98.968 117.543 98.904C117.244 98.84 116.983 98.696 116.759 98.472C116.503 98.696 116.241 98.84 115.975 98.904C115.719 98.968 115.484 99 115.271 99H114.391C114.327 99 114.273 98.9893 114.231 98.968C114.177 98.9467 114.14 98.888 114.119 98.792C114.087 98.6853 114.065 98.5307 114.055 98.328C114.044 98.1253 114.039 97.848 114.039 97.496C114.039 97.1227 114.044 96.8293 114.055 96.616C114.065 96.4027 114.087 96.248 114.119 96.152C114.14 96.0453 114.177 95.9813 114.231 95.96C114.273 95.928 114.327 95.912 114.391 95.912H114.999ZM118.967 102.072H114.391V99.864H118.967V102.072ZM119.655 95.912C119.73 95.912 119.794 95.8907 119.847 95.848C119.9 95.7947 119.927 95.7307 119.927 95.656C119.927 94.5893 120.21 93.752 120.775 93.144C121.351 92.5253 122.135 92.216 123.127 92.216C124.172 92.216 124.956 92.52 125.479 93.128C126.002 93.736 126.263 94.5467 126.263 95.56C126.263 96.6267 125.975 97.4693 125.399 98.088C124.823 98.696 124.028 99 123.015 99C122.706 99 122.402 98.9573 122.103 98.872C121.804 98.7867 121.548 98.6533 121.335 98.472C121.207 98.5893 121.068 98.68 120.919 98.744C120.78 98.808 120.62 98.8613 120.439 98.904C120.268 98.9467 120.071 98.9733 119.847 98.984C119.623 98.9947 119.356 99 119.047 99C118.983 99 118.93 98.9893 118.887 98.968C118.834 98.9467 118.796 98.888 118.775 98.792C118.743 98.6853 118.722 98.5307 118.711 98.328C118.7 98.1253 118.695 97.848 118.695 97.496C118.695 97.1227 118.7 96.8293 118.711 96.616C118.722 96.4027 118.743 96.248 118.775 96.152C118.796 96.0453 118.834 95.9813 118.887 95.96C118.93 95.928 118.983 95.912 119.047 95.912H119.655ZM122.567 95.56C122.567 95.784 122.615 95.928 122.711 95.992C122.807 96.056 122.924 96.088 123.063 96.088C123.18 96.088 123.287 96.056 123.383 95.992C123.479 95.928 123.527 95.784 123.527 95.56C123.527 95.208 123.372 95.032 123.063 95.032C122.732 95.032 122.567 95.208 122.567 95.56ZM133.366 98.296C133.366 98.8933 133.265 99.4587 133.062 99.992C132.859 100.525 132.577 100.989 132.214 101.384C131.851 101.789 131.414 102.109 130.902 102.344C130.401 102.579 129.841 102.696 129.222 102.696H127.462L127.19 99.624H128.87C129.446 99.624 129.851 99.5067 130.086 99.272C130.331 99.0373 130.454 98.744 130.454 98.392V93.272H133.366V98.296ZM138.101 95.912C138.165 95.912 138.218 95.928 138.261 95.96C138.314 95.9813 138.352 96.04 138.373 96.136C138.405 96.232 138.426 96.3813 138.437 96.584C138.448 96.7867 138.453 97.064 138.453 97.416C138.453 97.7893 138.448 98.0827 138.437 98.296C138.426 98.5093 138.405 98.6693 138.373 98.776C138.352 98.8827 138.314 98.9467 138.261 98.968C138.218 98.9893 138.165 99 138.101 99H137.317C136.762 99 136.293 98.92 135.909 98.76C135.536 98.5893 135.232 98.3653 134.997 98.088C134.762 97.8107 134.592 97.4853 134.485 97.112C134.378 96.728 134.325 96.328 134.325 95.912V89.24H137.237V95.656C137.237 95.8267 137.322 95.912 137.493 95.912H138.101ZM141.262 95.912C141.443 95.912 141.534 95.8427 141.534 95.704C141.534 95.6187 141.475 95.512 141.358 95.384L138.446 92.488V90.376L144.702 88.088L145.406 90.984L142.318 92.136L143.55 93.368C143.838 93.656 144.072 93.9227 144.254 94.168C144.435 94.4027 144.579 94.632 144.686 94.856C144.792 95.0693 144.862 95.2827 144.894 95.496C144.936 95.7093 144.958 95.9387 144.958 96.184C144.958 96.6853 144.878 97.1173 144.718 97.48C144.568 97.832 144.355 98.12 144.078 98.344C143.811 98.568 143.496 98.7333 143.134 98.84C142.771 98.9467 142.382 99 141.966 99H138.094C138.03 99 137.976 98.9893 137.934 98.968C137.88 98.9467 137.843 98.888 137.822 98.792C137.79 98.6853 137.768 98.5307 137.758 98.328C137.747 98.1253 137.742 97.848 137.742 97.496C137.742 97.1227 137.747 96.8293 137.758 96.616C137.768 96.4027 137.79 96.248 137.822 96.152C137.843 96.0453 137.88 95.9813 137.934 95.96C137.976 95.928 138.03 95.912 138.094 95.912H141.262ZM151.82 95.912C151.884 95.912 151.937 95.928 151.98 95.96C152.033 95.9813 152.07 96.04 152.092 96.136C152.124 96.232 152.145 96.3813 152.156 96.584C152.166 96.7867 152.172 97.064 152.172 97.416C152.172 97.7893 152.166 98.0827 152.156 98.296C152.145 98.5093 152.124 98.6693 152.092 98.776C152.07 98.8827 152.033 98.9467 151.98 98.968C151.937 98.9893 151.884 99 151.82 99H151.036C150.481 99 150.012 98.92 149.628 98.76C149.254 98.5893 148.95 98.3653 148.716 98.088C148.481 97.8107 148.31 97.4853 148.204 97.112C148.097 96.728 148.044 96.328 148.044 95.912V89.24H150.956V95.656C150.956 95.8267 151.041 95.912 151.212 95.912H151.82ZM152.789 95.912C152.853 95.912 152.911 95.8907 152.965 95.848C153.018 95.7947 153.045 95.7307 153.045 95.656V93.272H155.941V95.912C155.941 96.424 155.866 96.872 155.717 97.256C155.578 97.64 155.381 97.96 155.125 98.216C154.869 98.472 154.559 98.6693 154.197 98.808C153.845 98.936 153.461 99 153.045 99H151.812C151.748 99 151.695 98.9893 151.652 98.968C151.599 98.9467 151.562 98.888 151.54 98.792C151.508 98.6853 151.487 98.5307 151.476 98.328C151.466 98.1253 151.46 97.848 151.46 97.496C151.46 97.1227 151.466 96.8293 151.476 96.616C151.487 96.4027 151.508 96.248 151.54 96.152C151.562 96.0453 151.599 95.9813 151.652 95.96C151.695 95.928 151.748 95.912 151.812 95.912H152.789ZM155.429 102.072H152.517V99.864H155.429V102.072ZM161.596 99C161.042 99 160.572 98.92 160.188 98.76C159.815 98.5893 159.511 98.3653 159.276 98.088C159.042 97.8107 158.871 97.4853 158.764 97.112C158.658 96.728 158.604 96.328 158.604 95.912V93.272H161.5V95.656C161.5 95.7307 161.527 95.7947 161.58 95.848C161.634 95.8907 161.698 95.912 161.772 95.912H165.82C165.884 95.912 165.943 95.8907 165.996 95.848C166.05 95.7947 166.076 95.7307 166.076 95.656V93.272H168.972V95.912C168.972 96.424 168.898 96.872 168.748 97.256C168.61 97.64 168.407 97.96 168.14 98.216C167.884 98.472 167.58 98.6693 167.228 98.808C166.876 98.936 166.492 99 166.076 99H161.596ZM165.196 102.072H162.284V99.864H165.196V102.072ZM177.438 95.912C177.502 95.912 177.555 95.928 177.598 95.96C177.641 95.9813 177.673 96.04 177.694 96.136C177.726 96.232 177.747 96.3813 177.758 96.584C177.769 96.7867 177.774 97.064 177.774 97.416C177.774 97.7893 177.769 98.0827 177.758 98.296C177.747 98.5093 177.726 98.6693 177.694 98.776C177.673 98.8827 177.641 98.9467 177.598 98.968C177.555 98.9893 177.502 99 177.438 99H176.526C176.494 99.6507 176.371 100.221 176.158 100.712C175.955 101.203 175.678 101.613 175.326 101.944C174.974 102.285 174.558 102.541 174.078 102.712C173.598 102.883 173.075 102.968 172.51 102.968H170.126L169.95 99.88H172.686C173.038 99.88 173.283 99.8107 173.422 99.672C173.571 99.5333 173.646 99.3093 173.646 99H173.39C172.729 99 172.185 98.9253 171.758 98.776C171.331 98.6267 170.995 98.4187 170.75 98.152C170.515 97.8747 170.35 97.5387 170.254 97.144C170.169 96.7493 170.126 96.312 170.126 95.832C170.126 95.3733 170.195 94.936 170.334 94.52C170.473 94.104 170.675 93.7413 170.942 93.432C171.219 93.112 171.555 92.8613 171.95 92.68C172.345 92.488 172.793 92.392 173.294 92.392C173.731 92.392 174.147 92.456 174.542 92.584C174.937 92.712 175.283 92.92 175.582 93.208C175.881 93.4853 176.115 93.848 176.286 94.296C176.467 94.7333 176.558 95.272 176.558 95.912H177.438ZM172.862 95.64C172.862 95.8107 172.894 95.944 172.958 96.04C173.022 96.136 173.166 96.184 173.39 96.184H173.822V95.736C173.822 95.3307 173.657 95.128 173.326 95.128C173.017 95.128 172.862 95.2987 172.862 95.64ZM178.67 95.912C178.936 95.912 179.198 95.912 179.454 95.912C179.72 95.9013 179.992 95.8747 180.27 95.832C180.558 95.7787 180.862 95.7093 181.182 95.624C181.512 95.528 181.875 95.3893 182.27 95.208C182.227 95.08 182.163 94.9947 182.078 94.952C181.992 94.8987 181.88 94.872 181.742 94.872H178.318L178.574 91.96H182.542C182.851 91.96 183.15 92.0027 183.438 92.088C183.736 92.1733 184.024 92.36 184.302 92.648C184.579 92.9253 184.84 93.336 185.086 93.88C185.342 94.424 185.576 95.16 185.79 96.088L182.542 97.944C182.19 98.1467 181.864 98.3173 181.566 98.456C181.267 98.584 180.963 98.6907 180.654 98.776C180.355 98.8507 180.035 98.9093 179.694 98.952C179.363 98.984 178.99 99 178.574 99H177.438C177.373 99 177.32 98.9893 177.277 98.968C177.224 98.9467 177.187 98.888 177.165 98.792C177.133 98.6853 177.112 98.5307 177.101 98.328C177.091 98.1253 177.085 97.848 177.085 97.496C177.085 97.1227 177.091 96.8293 177.101 96.616C177.112 96.4027 177.133 96.248 177.165 96.152C177.187 96.0453 177.224 95.9813 177.277 95.96C177.32 95.928 177.373 95.912 177.438 95.912H178.67ZM182.99 90.984H180.078V88.792H182.99V90.984ZM189.762 92.664L191.954 90.552L194.77 93.992C195.176 94.472 195.437 94.904 195.554 95.288C195.682 95.672 195.746 96.0293 195.746 96.36C195.746 96.7227 195.682 97.064 195.554 97.384C195.437 97.704 195.256 97.9867 195.01 98.232C194.765 98.4667 194.45 98.6533 194.066 98.792C193.693 98.9307 193.25 99 192.738 99H188.514L188.258 95.912H191.954C192.125 95.912 192.21 95.8427 192.21 95.704C192.21 95.608 192.152 95.4853 192.034 95.336L189.762 92.664ZM204.188 95.912C204.252 95.912 204.305 95.928 204.348 95.96C204.391 95.9813 204.423 96.04 204.444 96.136C204.476 96.232 204.497 96.3813 204.508 96.584C204.519 96.7867 204.524 97.064 204.524 97.416C204.524 97.7893 204.519 98.0827 204.508 98.296C204.497 98.5093 204.476 98.6693 204.444 98.776C204.423 98.8827 204.391 98.9467 204.348 98.968C204.305 98.9893 204.252 99 204.188 99H203.276C203.244 99.6507 203.121 100.221 202.908 100.712C202.705 101.203 202.428 101.613 202.076 101.944C201.724 102.285 201.308 102.541 200.828 102.712C200.348 102.883 199.825 102.968 199.26 102.968H196.876L196.7 99.88H199.436C199.788 99.88 200.033 99.8107 200.172 99.672C200.321 99.5333 200.396 99.3093 200.396 99H200.14C199.479 99 198.935 98.9253 198.508 98.776C198.081 98.6267 197.745 98.4187 197.5 98.152C197.265 97.8747 197.1 97.5387 197.004 97.144C196.919 96.7493 196.876 96.312 196.876 95.832C196.876 95.3733 196.945 94.936 197.084 94.52C197.223 94.104 197.425 93.7413 197.692 93.432C197.969 93.112 198.305 92.8613 198.7 92.68C199.095 92.488 199.543 92.392 200.044 92.392C200.481 92.392 200.897 92.456 201.292 92.584C201.687 92.712 202.033 92.92 202.332 93.208C202.631 93.4853 202.865 93.848 203.036 94.296C203.217 94.7333 203.308 95.272 203.308 95.912H204.188ZM199.612 95.64C199.612 95.8107 199.644 95.944 199.708 96.04C199.772 96.136 199.916 96.184 200.14 96.184H200.572V95.736C200.572 95.3307 200.407 95.128 200.076 95.128C199.767 95.128 199.612 95.2987 199.612 95.64ZM204.796 95.912C204.87 95.912 204.934 95.8907 204.988 95.848C205.041 95.7947 205.068 95.7307 205.068 95.656V93.272H207.884V95.656C207.884 95.7307 207.91 95.7947 207.964 95.848C208.017 95.8907 208.081 95.912 208.156 95.912C208.22 95.912 208.278 95.8907 208.332 95.848C208.385 95.7947 208.411 95.7307 208.411 95.656V93.272H211.228V95.656C211.228 95.7307 211.254 95.7947 211.308 95.848C211.361 95.8907 211.425 95.912 211.5 95.912C211.564 95.912 211.622 95.8907 211.676 95.848C211.729 95.7947 211.756 95.7307 211.756 95.656V93.272H214.572V95.912C214.572 96.4453 214.486 96.904 214.316 97.288C214.145 97.672 213.916 97.992 213.628 98.248C213.34 98.504 213.009 98.696 212.635 98.824C212.273 98.9413 211.894 99 211.5 99C211.276 99 211.009 98.968 210.7 98.904C210.39 98.84 210.129 98.696 209.916 98.472C209.638 98.696 209.377 98.84 209.132 98.904C208.897 98.968 208.716 99 208.588 99H208.156C207.932 99 207.665 98.968 207.356 98.904C207.046 98.84 206.78 98.696 206.556 98.472C206.3 98.696 206.049 98.84 205.804 98.904C205.558 98.968 205.372 99 205.243 99H204.188C204.123 99 204.07 98.9893 204.027 98.968C203.974 98.9467 203.937 98.888 203.915 98.792C203.883 98.6853 203.862 98.5307 203.851 98.328C203.841 98.1253 203.835 97.848 203.835 97.496C203.835 97.1227 203.841 96.8293 203.851 96.616C203.862 96.4027 203.883 96.248 203.915 96.152C203.937 96.0453 203.974 95.9813 204.027 95.96C204.07 95.928 204.123 95.912 204.188 95.912H204.796Z" fill="white"/>
</g>
<g filter="url(#filter2_d_25_4)">
<path d="M30.6386 131.4C30.6386 131.784 30.564 132.136 30.4146 132.456C30.276 132.776 30.084 133.053 29.8386 133.288C29.5933 133.512 29.3053 133.688 28.9746 133.816C28.6546 133.944 28.3186 134.008 27.9666 134.008C27.5826 134.008 27.2253 133.944 26.8946 133.816C26.564 133.688 26.276 133.512 26.0306 133.288C25.796 133.053 25.6093 132.776 25.4706 132.456C25.3426 132.136 25.2786 131.784 25.2786 131.4C25.2786 131.005 25.3426 130.648 25.4706 130.328C25.6093 129.997 25.796 129.715 26.0306 129.48C26.276 129.245 26.564 129.069 26.8946 128.952C27.2253 128.824 27.5826 128.76 27.9666 128.76C28.3506 128.76 28.708 128.824 29.0386 128.952C29.3693 129.069 29.652 129.245 29.8866 129.48C30.1213 129.715 30.3026 129.997 30.4306 130.328C30.5693 130.648 30.6386 131.005 30.6386 131.4ZM28.3666 131.4C28.3666 131.027 28.324 130.776 28.2386 130.648C28.164 130.509 28.0733 130.44 27.9666 130.44C27.8493 130.44 27.7533 130.509 27.6786 130.648C27.604 130.776 27.5666 131.027 27.5666 131.4C27.5666 131.773 27.604 132.019 27.6786 132.136C27.7533 132.253 27.8493 132.312 27.9666 132.312C28.0733 132.312 28.164 132.253 28.2386 132.136C28.324 132.019 28.3666 131.773 28.3666 131.4ZM33.6626 129.24C33.748 129.123 33.8493 129.032 33.9666 128.968C34.0946 128.893 34.292 128.856 34.5586 128.856H36.5906L29.0066 138.616C28.9106 138.733 28.788 138.829 28.6386 138.904C28.4893 138.968 28.308 139 28.0946 139H26.0146L33.6626 129.24ZM37.4066 136.52C37.4066 136.904 37.332 137.256 37.1826 137.576C37.0333 137.896 36.8306 138.173 36.5746 138.408C36.3293 138.632 36.0466 138.808 35.7266 138.936C35.4066 139.064 35.0706 139.128 34.7186 139.128C34.3346 139.128 33.9773 139.064 33.6466 138.936C33.316 138.808 33.0333 138.632 32.7986 138.408C32.564 138.173 32.3773 137.896 32.2386 137.576C32.1106 137.256 32.0466 136.904 32.0466 136.52C32.0466 136.125 32.1106 135.763 32.2386 135.432C32.3773 135.101 32.564 134.824 32.7986 134.6C33.0333 134.365 33.316 134.184 33.6466 134.056C33.9773 133.928 34.3346 133.864 34.7186 133.864C35.1026 133.864 35.46 133.928 35.7906 134.056C36.1213 134.184 36.404 134.365 36.6386 134.6C36.884 134.824 37.0706 135.101 37.1986 135.432C37.3373 135.763 37.4066 136.125 37.4066 136.52ZM35.1346 136.52C35.1346 136.136 35.092 135.88 35.0066 135.752C34.932 135.613 34.836 135.544 34.7186 135.544C34.6013 135.544 34.5053 135.613 34.4306 135.752C34.3666 135.88 34.3346 136.136 34.3346 136.52C34.3346 136.861 34.3666 137.096 34.4306 137.224C34.5053 137.352 34.6013 137.416 34.7186 137.416C34.836 137.416 34.932 137.352 35.0066 137.224C35.092 137.096 35.1346 136.861 35.1346 136.52ZM41.628 133.464C41.596 133.283 41.5747 133.149 41.564 133.064C41.5533 132.968 41.548 132.861 41.548 132.744C41.548 132.339 41.6173 131.965 41.756 131.624C41.9053 131.283 42.108 130.989 42.364 130.744C42.62 130.488 42.9187 130.291 43.26 130.152C43.6013 130.013 43.9693 129.944 44.364 129.944C44.6307 129.944 44.9293 129.971 45.26 130.024C45.5907 130.077 45.996 130.195 46.476 130.376L45.852 132.92C45.4573 132.845 45.1747 132.797 45.004 132.776C44.8333 132.755 44.6787 132.744 44.54 132.744C44.188 132.744 44.012 132.877 44.012 133.144C44.012 133.411 44.1613 133.544 44.46 133.544C44.7053 133.544 44.972 133.507 45.26 133.432C45.548 133.357 45.8627 133.277 46.204 133.192L46.828 135.736C46.1667 135.96 45.5533 136.12 44.988 136.216C44.4333 136.312 43.932 136.36 43.484 136.36C43.1853 136.36 42.844 136.344 42.46 136.312C42.076 136.269 41.7133 136.189 41.372 136.072V139.88H38.476V136.008C38.476 135.507 38.46 135.048 38.428 134.632C38.396 134.205 38.3427 133.795 38.268 133.4C38.204 133.005 38.1187 132.616 38.012 132.232C37.916 131.837 37.804 131.421 37.676 130.984L40.492 130.024L41.196 133.096C41.228 133.235 41.2707 133.331 41.324 133.384C41.3773 133.437 41.4787 133.464 41.628 133.464ZM50.9795 132.136C51.3955 132.136 51.8008 132.227 52.1955 132.408C52.6008 132.589 52.9582 132.829 53.2675 133.128C53.5875 133.427 53.8435 133.773 54.0355 134.168C54.2275 134.563 54.3235 134.968 54.3235 135.384C54.3235 135.811 54.2275 136.221 54.0355 136.616C53.8435 137 53.5875 137.347 53.2675 137.656C52.9582 137.955 52.6008 138.195 52.1955 138.376C51.8008 138.557 51.3955 138.648 50.9795 138.648C50.5528 138.648 50.1368 138.557 49.7315 138.376C49.3368 138.195 48.9795 137.955 48.6595 137.656C48.3502 137.347 48.0995 137 47.9075 136.616C47.7262 136.221 47.6355 135.811 47.6355 135.384C47.6355 134.968 47.7262 134.563 47.9075 134.168C48.0995 133.773 48.3502 133.427 48.6595 133.128C48.9795 132.829 49.3368 132.589 49.7315 132.408C50.1368 132.227 50.5528 132.136 50.9795 132.136ZM50.9795 135.912C51.1182 135.912 51.2355 135.859 51.3315 135.752C51.4382 135.645 51.4915 135.523 51.4915 135.384C51.4915 135.245 51.4382 135.128 51.3315 135.032C51.2355 134.925 51.1182 134.872 50.9795 134.872C50.8302 134.872 50.7022 134.925 50.5955 135.032C50.4995 135.128 50.4515 135.245 50.4515 135.384C50.4515 135.523 50.4995 135.645 50.5955 135.752C50.7022 135.859 50.8302 135.912 50.9795 135.912ZM61.4129 138.296C61.4129 138.893 61.3115 139.459 61.1089 139.992C60.9062 140.525 60.6235 140.989 60.2609 141.384C59.8982 141.789 59.4609 142.109 58.9489 142.344C58.4475 142.579 57.8875 142.696 57.2689 142.696H55.5089L55.2369 139.624H56.9169C57.4929 139.624 57.8982 139.507 58.1329 139.272C58.3782 139.037 58.5009 138.744 58.5009 138.392V133.272H61.4129V138.296ZM61.4129 132.392H58.5009V130.2H61.4129V132.392ZM62.3717 129.24H65.2838V139H62.3717V129.24ZM77.3381 133.272V135.656C77.3381 135.731 77.3648 135.795 77.4181 135.848C77.4715 135.891 77.5355 135.912 77.6101 135.912C77.7808 135.912 77.8661 135.827 77.8661 135.656V133.272H80.6981V135.656C80.6981 135.827 80.7835 135.912 80.9541 135.912C81.0288 135.912 81.0928 135.891 81.1461 135.848C81.1995 135.795 81.2261 135.731 81.2261 135.656V133.272H84.0261V135.656C84.0261 135.731 84.0528 135.795 84.1061 135.848C84.1595 135.891 84.2235 135.912 84.2981 135.912H84.9061C84.9701 135.912 85.0235 135.928 85.0661 135.96C85.1195 135.981 85.1568 136.04 85.1781 136.136C85.2101 136.232 85.2315 136.381 85.2421 136.584C85.2528 136.787 85.2581 137.064 85.2581 137.416C85.2581 137.789 85.2528 138.083 85.2421 138.296C85.2315 138.509 85.2101 138.669 85.1781 138.776C85.1568 138.883 85.1195 138.947 85.0661 138.968C85.0235 138.989 84.9701 139 84.9061 139H84.4101C84.0475 139 83.7275 138.968 83.4501 138.904C83.1835 138.84 82.9381 138.696 82.7141 138.472C82.4475 138.696 82.1648 138.84 81.8661 138.904C81.5675 138.968 81.2635 139 80.9541 139C80.7408 139 80.4795 138.968 80.1701 138.904C79.8608 138.84 79.5941 138.696 79.3701 138.472C79.1035 138.696 78.8475 138.84 78.6021 138.904C78.3675 138.968 78.1808 139 78.0421 139C77.8288 139 77.6155 138.979 77.4021 138.936C77.1995 138.893 77.0341 138.829 76.9061 138.744L77.3381 138.024C77.3381 138.643 77.2421 139.224 77.0501 139.768C76.8581 140.312 76.5755 140.787 76.2021 141.192C75.8395 141.608 75.3915 141.933 74.8581 142.168C74.3248 142.403 73.7168 142.52 73.0341 142.52H72.2341C71.5728 142.52 70.9808 142.419 70.4581 142.216C69.9461 142.013 69.5088 141.72 69.1461 141.336C68.7835 140.963 68.5061 140.504 68.3141 139.96C68.1221 139.416 68.0261 138.803 68.0261 138.12V134.776H70.9221V138.2C70.9221 138.605 71.0395 138.915 71.2741 139.128C71.5088 139.341 71.8875 139.448 72.4101 139.448H72.9381C73.5141 139.448 73.9248 139.331 74.1701 139.096C74.4155 138.861 74.5381 138.563 74.5381 138.2V133.272H77.3381ZM80.3301 129.752H78.0421V127.56H80.3301V129.752ZM81.4821 132.392H76.9061V130.2H81.4821V132.392ZM85.5143 135.912C85.5889 135.912 85.6529 135.891 85.7063 135.848C85.7596 135.795 85.7863 135.731 85.7863 135.656V133.272H88.6983V135.656C88.6983 135.827 88.7836 135.912 88.9543 135.912H89.5623C89.6263 135.912 89.6796 135.928 89.7223 135.96C89.7756 135.981 89.8129 136.04 89.8343 136.136C89.8663 136.232 89.8876 136.381 89.8983 136.584C89.9089 136.787 89.9143 137.064 89.9143 137.416C89.9143 137.789 89.9089 138.083 89.8983 138.296C89.8876 138.509 89.8663 138.669 89.8343 138.776C89.8129 138.883 89.7756 138.947 89.7223 138.968C89.6796 138.989 89.6263 139 89.5623 139H89.0663C88.7036 139 88.3676 138.968 88.0583 138.904C87.7596 138.84 87.4983 138.696 87.2743 138.472C87.0183 138.696 86.7569 138.84 86.4903 138.904C86.2343 138.968 85.9996 139 85.7863 139H84.9062C84.8422 139 84.7889 138.989 84.7462 138.968C84.6929 138.947 84.6556 138.888 84.6342 138.792C84.6022 138.685 84.5809 138.531 84.5702 138.328C84.5596 138.125 84.5542 137.848 84.5542 137.496C84.5542 137.123 84.5596 136.829 84.5702 136.616C84.5809 136.403 84.6022 136.248 84.6342 136.152C84.6556 136.045 84.6929 135.981 84.7462 135.96C84.7889 135.928 84.8422 135.912 84.9062 135.912H85.5143ZM89.4823 142.072H84.9062V139.864H89.4823V142.072ZM90.5385 135.912C90.6025 135.912 90.6612 135.891 90.7145 135.848C90.7678 135.795 90.7945 135.731 90.7945 135.656V133.272H93.6905V135.912C93.6905 136.424 93.6158 136.872 93.4665 137.256C93.3278 137.64 93.1305 137.96 92.8745 138.216C92.6185 138.472 92.3092 138.669 91.9465 138.808C91.5945 138.936 91.2105 139 90.7945 139H89.5625C89.4985 139 89.4452 138.989 89.4025 138.968C89.3492 138.947 89.3118 138.888 89.2905 138.792C89.2585 138.685 89.2372 138.531 89.2265 138.328C89.2158 138.125 89.2105 137.848 89.2105 137.496C89.2105 137.123 89.2158 136.829 89.2265 136.616C89.2372 136.403 89.2585 136.248 89.2905 136.152C89.3118 136.045 89.3492 135.981 89.4025 135.96C89.4452 135.928 89.4985 135.912 89.5625 135.912H90.5385ZM93.1785 142.072H90.2665V139.864H93.1785V142.072ZM102.77 135.656C102.77 135.731 102.797 135.795 102.85 135.848C102.904 135.891 102.968 135.912 103.042 135.912H103.65C103.714 135.912 103.768 135.928 103.81 135.96C103.864 135.981 103.901 136.04 103.922 136.136C103.954 136.232 103.976 136.381 103.986 136.584C103.997 136.787 104.002 137.064 104.002 137.416C104.002 137.789 103.997 138.083 103.986 138.296C103.976 138.509 103.954 138.669 103.922 138.776C103.901 138.883 103.864 138.947 103.81 138.968C103.768 138.989 103.714 139 103.65 139H102.946C102.552 139 102.173 138.925 101.81 138.776C101.458 138.616 101.192 138.312 101.01 137.864C100.744 138.077 100.466 138.221 100.178 138.296C99.9009 138.36 99.5649 138.392 99.1703 138.392C98.7543 138.392 98.3703 138.333 98.0182 138.216C97.6769 138.088 97.3783 137.896 97.1223 137.64C96.8769 137.373 96.6849 137.043 96.5463 136.648C96.4183 136.243 96.3543 135.763 96.3543 135.208C96.3543 134.792 96.4236 134.381 96.5623 133.976C96.7116 133.56 96.9143 133.192 97.1703 132.872C97.4369 132.552 97.7569 132.291 98.1303 132.088C98.5143 131.885 98.9463 131.784 99.4263 131.784H99.8743V130.808H102.77V135.656ZM99.0743 135.128C99.0743 135.309 99.1116 135.427 99.1863 135.48C99.2716 135.533 99.3836 135.56 99.5223 135.56C99.7036 135.56 99.8316 135.523 99.9062 135.448C99.9916 135.363 100.034 135.256 100.034 135.128V134.6H99.6023C99.2503 134.6 99.0743 134.776 99.0743 135.128ZM104.632 135.912C104.696 135.912 104.755 135.891 104.808 135.848C104.862 135.795 104.888 135.731 104.888 135.656V133.272H107.784V135.912C107.784 136.424 107.71 136.872 107.56 137.256C107.422 137.64 107.224 137.96 106.968 138.216C106.712 138.472 106.403 138.669 106.04 138.808C105.688 138.936 105.304 139 104.888 139H103.656C103.592 139 103.539 138.989 103.496 138.968C103.443 138.947 103.406 138.888 103.384 138.792C103.352 138.685 103.331 138.531 103.32 138.328C103.31 138.125 103.304 137.848 103.304 137.496C103.304 137.123 103.31 136.829 103.32 136.616C103.331 136.403 103.352 136.248 103.384 136.152C103.406 136.045 103.443 135.981 103.496 135.96C103.539 135.928 103.592 135.912 103.656 135.912H104.632ZM107.8 132.392H104.888V130.2H107.8V132.392ZM115.607 129.24V135.912C115.607 136.445 115.532 136.904 115.383 137.288C115.244 137.672 115.041 137.992 114.775 138.248C114.519 138.504 114.209 138.696 113.847 138.824C113.495 138.941 113.111 139 112.695 139H108.919V129.24H111.831V135.912H112.439C112.609 135.912 112.695 135.827 112.695 135.656V129.24H115.607ZM120.445 135.912C120.509 135.912 120.562 135.928 120.605 135.96C120.658 135.981 120.695 136.04 120.717 136.136C120.749 136.232 120.77 136.381 120.781 136.584C120.791 136.787 120.797 137.064 120.797 137.416C120.797 137.789 120.791 138.083 120.781 138.296C120.77 138.509 120.749 138.669 120.717 138.776C120.695 138.883 120.658 138.947 120.605 138.968C120.562 138.989 120.509 139 120.445 139H119.661C119.106 139 118.637 138.92 118.253 138.76C117.879 138.589 117.575 138.365 117.341 138.088C117.106 137.811 116.935 137.485 116.829 137.112C116.722 136.728 116.669 136.328 116.669 135.912V129.24H119.581V135.656C119.581 135.827 119.666 135.912 119.837 135.912H120.445ZM121.046 135.912C121.12 135.912 121.184 135.891 121.238 135.848C121.291 135.795 121.318 135.731 121.318 135.656V133.272H124.134V135.656C124.134 135.731 124.16 135.795 124.214 135.848C124.267 135.891 124.331 135.912 124.406 135.912C124.47 135.912 124.528 135.891 124.582 135.848C124.635 135.795 124.661 135.731 124.661 135.656V133.272H127.478V135.656C127.478 135.731 127.504 135.795 127.558 135.848C127.611 135.891 127.675 135.912 127.75 135.912C127.814 135.912 127.872 135.891 127.926 135.848C127.979 135.795 128.006 135.731 128.006 135.656V133.272H130.822V135.912C130.822 136.445 130.736 136.904 130.566 137.288C130.395 137.672 130.166 137.992 129.878 138.248C129.59 138.504 129.259 138.696 128.885 138.824C128.523 138.941 128.144 139 127.75 139C127.526 139 127.259 138.968 126.95 138.904C126.64 138.84 126.379 138.696 126.166 138.472C125.888 138.696 125.627 138.84 125.382 138.904C125.147 138.968 124.966 139 124.838 139H124.406C124.182 139 123.915 138.968 123.606 138.904C123.296 138.84 123.03 138.696 122.806 138.472C122.55 138.696 122.299 138.84 122.054 138.904C121.808 138.968 121.622 139 121.493 139H120.438C120.373 139 120.32 138.989 120.277 138.968C120.224 138.947 120.187 138.888 120.165 138.792C120.133 138.685 120.112 138.531 120.101 138.328C120.091 138.125 120.085 137.848 120.085 137.496C120.085 137.123 120.091 136.829 120.101 136.616C120.112 136.403 120.133 136.248 120.165 136.152C120.187 136.045 120.224 135.981 120.277 135.96C120.32 135.928 120.373 135.912 120.438 135.912H121.046ZM134.872 132.664L137.064 130.552L139.88 133.992C140.285 134.472 140.546 134.904 140.664 135.288C140.792 135.672 140.856 136.029 140.856 136.36C140.856 136.723 140.792 137.064 140.664 137.384C140.546 137.704 140.365 137.987 140.12 138.232C139.874 138.467 139.56 138.653 139.176 138.792C138.802 138.931 138.36 139 137.848 139H133.624L133.368 135.912H137.064C137.234 135.912 137.32 135.843 137.32 135.704C137.32 135.608 137.261 135.485 137.144 135.336L134.872 132.664ZM149.297 135.912C149.361 135.912 149.415 135.928 149.457 135.96C149.5 135.981 149.532 136.04 149.553 136.136C149.585 136.232 149.607 136.381 149.617 136.584C149.628 136.787 149.633 137.064 149.633 137.416C149.633 137.789 149.628 138.083 149.617 138.296C149.607 138.509 149.585 138.669 149.553 138.776C149.532 138.883 149.5 138.947 149.457 138.968C149.415 138.989 149.361 139 149.297 139H148.385C148.353 139.651 148.231 140.221 148.017 140.712C147.815 141.203 147.537 141.613 147.185 141.944C146.833 142.285 146.417 142.541 145.937 142.712C145.457 142.883 144.935 142.968 144.369 142.968H141.985L141.809 139.88H144.545C144.897 139.88 145.143 139.811 145.281 139.672C145.431 139.533 145.505 139.309 145.505 139H145.249C144.588 139 144.044 138.925 143.617 138.776C143.191 138.627 142.855 138.419 142.609 138.152C142.375 137.875 142.209 137.539 142.113 137.144C142.028 136.749 141.985 136.312 141.985 135.832C141.985 135.373 142.055 134.936 142.193 134.52C142.332 134.104 142.535 133.741 142.801 133.432C143.079 133.112 143.415 132.861 143.809 132.68C144.204 132.488 144.652 132.392 145.153 132.392C145.591 132.392 146.007 132.456 146.401 132.584C146.796 132.712 147.143 132.92 147.441 133.208C147.74 133.485 147.975 133.848 148.145 134.296C148.327 134.733 148.417 135.272 148.417 135.912H149.297ZM144.721 135.64C144.721 135.811 144.753 135.944 144.817 136.04C144.881 136.136 145.025 136.184 145.249 136.184H145.681V135.736C145.681 135.331 145.516 135.128 145.185 135.128C144.876 135.128 144.721 135.299 144.721 135.64ZM149.905 135.912C149.98 135.912 150.044 135.891 150.097 135.848C150.15 135.795 150.177 135.731 150.177 135.656V133.272H152.993V135.656C152.993 135.731 153.02 135.795 153.073 135.848C153.126 135.891 153.19 135.912 153.265 135.912C153.329 135.912 153.388 135.891 153.441 135.848C153.494 135.795 153.521 135.731 153.521 135.656V133.272H156.337V135.656C156.337 135.731 156.364 135.795 156.417 135.848C156.47 135.891 156.534 135.912 156.609 135.912C156.673 135.912 156.732 135.891 156.785 135.848C156.838 135.795 156.865 135.731 156.865 135.656V133.272H159.681V135.912C159.681 136.445 159.596 136.904 159.425 137.288C159.254 137.672 159.025 137.992 158.737 138.248C158.449 138.504 158.118 138.696 157.745 138.824C157.382 138.941 157.004 139 156.609 139C156.385 139 156.118 138.968 155.809 138.904C155.5 138.84 155.238 138.696 155.025 138.472C154.748 138.696 154.486 138.84 154.241 138.904C154.006 138.968 153.825 139 153.697 139H153.265C153.041 139 152.774 138.968 152.465 138.904C152.156 138.84 151.889 138.696 151.665 138.472C151.409 138.696 151.158 138.84 150.913 138.904C150.668 138.968 150.481 139 150.353 139H149.297C149.233 139 149.18 138.989 149.137 138.968C149.084 138.947 149.046 138.888 149.025 138.792C148.993 138.685 148.972 138.531 148.961 138.328C148.95 138.125 148.945 137.848 148.945 137.496C148.945 137.123 148.95 136.829 148.961 136.616C148.972 136.403 148.993 136.248 149.025 136.152C149.046 136.045 149.084 135.981 149.137 135.96C149.18 135.928 149.233 135.912 149.297 135.912H149.905ZM166.355 138.744L166.627 135.912H172.787C172.851 135.912 172.904 135.928 172.947 135.96C172.99 135.981 173.027 136.04 173.059 136.136C173.091 136.232 173.112 136.381 173.123 136.584C173.134 136.787 173.139 137.064 173.139 137.416C173.139 137.789 173.134 138.083 173.123 138.296C173.112 138.509 173.091 138.669 173.059 138.776C173.027 138.883 172.99 138.947 172.947 138.968C172.904 138.989 172.851 139 172.787 139H172.067C172.024 139.523 171.891 139.997 171.667 140.424C171.454 140.861 171.16 141.235 170.787 141.544C170.414 141.853 169.966 142.093 169.443 142.264C168.92 142.435 168.334 142.52 167.683 142.52H166.531C165.87 142.52 165.278 142.419 164.755 142.216C164.243 142.013 163.806 141.72 163.443 141.336C163.08 140.963 162.803 140.504 162.611 139.96C162.419 139.416 162.323 138.803 162.323 138.12V134.776H165.219V138.2C165.219 138.605 165.336 138.915 165.571 139.128C165.806 139.341 166.184 139.448 166.707 139.448H168.131C168.44 139.448 168.707 139.416 168.931 139.352C169.155 139.299 169.267 139.181 169.267 139C169.267 138.829 169.182 138.744 169.011 138.744H166.355ZM173.389 135.912C173.464 135.912 173.528 135.891 173.581 135.848C173.635 135.795 173.661 135.731 173.661 135.656V133.272H176.573V135.656C176.573 135.827 176.659 135.912 176.829 135.912H177.437C177.501 135.912 177.555 135.928 177.597 135.96C177.651 135.981 177.688 136.04 177.709 136.136C177.741 136.232 177.763 136.381 177.773 136.584C177.784 136.787 177.789 137.064 177.789 137.416C177.789 137.789 177.784 138.083 177.773 138.296C177.763 138.509 177.741 138.669 177.709 138.776C177.688 138.883 177.651 138.947 177.597 138.968C177.555 138.989 177.501 139 177.437 139H176.941C176.579 139 176.243 138.968 175.933 138.904C175.635 138.84 175.373 138.696 175.149 138.472C174.893 138.696 174.632 138.84 174.365 138.904C174.109 138.968 173.875 139 173.661 139H172.781C172.717 139 172.664 138.989 172.621 138.968C172.568 138.947 172.531 138.888 172.509 138.792C172.477 138.685 172.456 138.531 172.445 138.328C172.435 138.125 172.429 137.848 172.429 137.496C172.429 137.123 172.435 136.829 172.445 136.616C172.456 136.403 172.477 136.248 172.509 136.152C172.531 136.045 172.568 135.981 172.621 135.96C172.664 135.928 172.717 135.912 172.781 135.912H173.389ZM176.573 132.392H173.661V130.2H176.573V132.392ZM178.046 135.912C178.12 135.912 178.184 135.891 178.238 135.848C178.291 135.795 178.318 135.731 178.318 135.656V133.272H181.23V135.656C181.23 135.827 181.315 135.912 181.486 135.912H182.094C182.158 135.912 182.211 135.928 182.254 135.96C182.307 135.981 182.344 136.04 182.366 136.136C182.398 136.232 182.419 136.381 182.43 136.584C182.44 136.787 182.446 137.064 182.446 137.416C182.446 137.789 182.44 138.083 182.43 138.296C182.419 138.509 182.398 138.669 182.366 138.776C182.344 138.883 182.307 138.947 182.254 138.968C182.211 138.989 182.158 139 182.094 139H181.598C181.235 139 180.899 138.968 180.59 138.904C180.291 138.84 180.03 138.696 179.806 138.472C179.55 138.696 179.288 138.84 179.022 138.904C178.766 138.968 178.531 139 178.318 139H177.438C177.373 139 177.32 138.989 177.277 138.968C177.224 138.947 177.187 138.888 177.165 138.792C177.133 138.685 177.112 138.531 177.101 138.328C177.091 138.125 177.085 137.848 177.085 137.496C177.085 137.123 177.091 136.829 177.101 136.616C177.112 136.403 177.133 136.248 177.165 136.152C177.187 136.045 177.224 135.981 177.277 135.96C177.32 135.928 177.373 135.912 177.438 135.912H178.046ZM182.014 142.072H177.438V139.864H182.014V142.072ZM183.07 135.912C183.134 135.912 183.192 135.891 183.246 135.848C183.299 135.795 183.326 135.731 183.326 135.656V133.272H186.222V135.912C186.222 136.424 186.147 136.872 185.998 137.256C185.859 137.64 185.662 137.96 185.406 138.216C185.15 138.472 184.84 138.669 184.478 138.808C184.126 138.936 183.742 139 183.326 139H182.094C182.03 139 181.976 138.989 181.934 138.968C181.88 138.947 181.843 138.888 181.822 138.792C181.79 138.685 181.768 138.531 181.758 138.328C181.747 138.125 181.742 137.848 181.742 137.496C181.742 137.123 181.747 136.829 181.758 136.616C181.768 136.403 181.79 136.248 181.822 136.152C181.843 136.045 181.88 135.981 181.934 135.96C181.976 135.928 182.03 135.912 182.094 135.912H183.07ZM185.71 142.072H182.798V139.864H185.71V142.072ZM198.198 133.272V135.656C198.198 135.731 198.224 135.795 198.278 135.848C198.331 135.891 198.395 135.912 198.47 135.912C198.64 135.912 198.726 135.827 198.726 135.656V133.272H201.558V135.656C201.558 135.827 201.643 135.912 201.814 135.912C201.888 135.912 201.952 135.891 202.006 135.848C202.059 135.795 202.086 135.731 202.086 135.656V133.272H204.885V135.656C204.885 135.731 204.912 135.795 204.965 135.848C205.019 135.891 205.083 135.912 205.158 135.912H205.766C205.83 135.912 205.883 135.928 205.926 135.96C205.979 135.981 206.016 136.04 206.038 136.136C206.07 136.232 206.091 136.381 206.102 136.584C206.112 136.787 206.118 137.064 206.118 137.416C206.118 137.789 206.112 138.083 206.102 138.296C206.091 138.509 206.07 138.669 206.038 138.776C206.016 138.883 205.979 138.947 205.926 138.968C205.883 138.989 205.83 139 205.766 139H205.27C204.907 139 204.587 138.968 204.31 138.904C204.043 138.84 203.798 138.696 203.574 138.472C203.307 138.696 203.024 138.84 202.726 138.904C202.427 138.968 202.123 139 201.814 139C201.6 139 201.339 138.968 201.03 138.904C200.72 138.84 200.454 138.696 200.23 138.472C199.963 138.696 199.707 138.84 199.462 138.904C199.227 138.968 199.04 139 198.902 139C198.688 139 198.475 138.979 198.262 138.936C198.059 138.893 197.894 138.829 197.766 138.744L198.198 138.024C198.198 138.643 198.102 139.224 197.91 139.768C197.718 140.312 197.435 140.787 197.062 141.192C196.699 141.608 196.251 141.933 195.718 142.168C195.184 142.403 194.576 142.52 193.894 142.52H193.094C192.432 142.52 191.84 142.419 191.318 142.216C190.806 142.013 190.368 141.72 190.006 141.336C189.643 140.963 189.366 140.504 189.174 139.96C188.982 139.416 188.886 138.803 188.886 138.12V134.776H191.782V138.2C191.782 138.605 191.899 138.915 192.134 139.128C192.368 139.341 192.747 139.448 193.27 139.448H193.798C194.374 139.448 194.784 139.331 195.03 139.096C195.275 138.861 195.398 138.563 195.398 138.2V133.272H198.198ZM201.19 129.752H198.902V127.56H201.19V129.752ZM202.342 132.392H197.766V130.2H202.342V132.392ZM206.374 135.912C206.448 135.912 206.512 135.891 206.566 135.848C206.619 135.795 206.646 135.731 206.646 135.656V133.272H209.558V135.656C209.558 135.827 209.643 135.912 209.814 135.912H210.422C210.486 135.912 210.539 135.928 210.582 135.96C210.635 135.981 210.672 136.04 210.694 136.136C210.726 136.232 210.747 136.381 210.758 136.584C210.768 136.787 210.774 137.064 210.774 137.416C210.774 137.789 210.768 138.083 210.758 138.296C210.747 138.509 210.726 138.669 210.694 138.776C210.672 138.883 210.635 138.947 210.582 138.968C210.539 138.989 210.486 139 210.422 139H209.926C209.563 139 209.227 138.968 208.918 138.904C208.619 138.84 208.358 138.696 208.134 138.472C207.878 138.696 207.616 138.84 207.35 138.904C207.094 138.968 206.859 139 206.646 139H205.766C205.702 139 205.648 138.989 205.606 138.968C205.552 138.947 205.515 138.888 205.494 138.792C205.462 138.685 205.44 138.531 205.43 138.328C205.419 138.125 205.414 137.848 205.414 137.496C205.414 137.123 205.419 136.829 205.43 136.616C205.44 136.403 205.462 136.248 205.494 136.152C205.515 136.045 205.552 135.981 205.606 135.96C205.648 135.928 205.702 135.912 205.766 135.912H206.374ZM210.342 142.072H205.766V139.864H210.342V142.072ZM211.398 135.912C211.462 135.912 211.521 135.891 211.574 135.848C211.627 135.795 211.654 135.731 211.654 135.656V133.272H214.55V135.912C214.55 136.424 214.475 136.872 214.326 137.256C214.187 137.64 213.99 137.96 213.734 138.216C213.478 138.472 213.169 138.669 212.806 138.808C212.454 138.936 212.07 139 211.654 139H210.422C210.358 139 210.305 138.989 210.262 138.968C210.209 138.947 210.171 138.888 210.15 138.792C210.118 138.685 210.097 138.531 210.086 138.328C210.075 138.125 210.07 137.848 210.07 137.496C210.07 137.123 210.075 136.829 210.086 136.616C210.097 136.403 210.118 136.248 210.15 136.152C210.171 136.045 210.209 135.981 210.262 135.96C210.305 135.928 210.358 135.912 210.422 135.912H211.398ZM213.846 144.712H211.558V142.504H213.846V144.712ZM214.998 142.072H210.422V139.864H214.998V142.072Z" fill="white"/>
</g>
<defs>
<filter id="filter0_d_25_4" x="19.6819" y="218.63" width="149.355" height="67.4836" filterUnits="userSpaceOnUse" color-interpolation-filters="sRGB">
<feFlood flood-opacity="0" result="BackgroundImageFix"/>
<feColorMatrix in="SourceAlpha" type="matrix" values="0 0 0 0 0 0 0 0 0 0 0 0 0 0 0 0 0 0 127 0" result="hardAlpha"/>
<feOffset dy="2"/>
<feGaussianBlur stdDeviation="4"/>
<feComposite in2="hardAlpha" operator="out"/>
<feColorMatrix type="matrix" values="0 0 0 0 0 0 0 0 0 0 0 0 0 0 0 0 0 0 0.15 0"/>
<feBlend mode="normal" in2="BackgroundImageFix" result="effect1_dropShadow_25_4"/>
<feBlend mode="normal" in="SourceGraphic" in2="effect1_dropShadow_25_4" result="shape"/>
</filter>
<filter id="filter1_d_25_4" x="90.3855" y="82.088" width="132.186" height="30.88" filterUnits="userSpaceOnUse" color-interpolation-filters="sRGB">
<feFlood flood-opacity="0" result="BackgroundImageFix"/>
<feColorMatrix in="SourceAlpha" type="matrix" values="0 0 0 0 0 0 0 0 0 0 0 0 0 0 0 0 0 0 127 0" result="hardAlpha"/>
<feOffset dy="2"/>
<feGaussianBlur stdDeviation="4"/>
<feComposite in2="hardAlpha" operator="out"/>
<feColorMatrix type="matrix" values="0 0 0 0 0 0 0 0 0 0 0 0 0 0 0 0 0 0 0.15 0"/>
<feBlend mode="normal" in2="BackgroundImageFix" result="effect1_dropShadow_25_4"/>
<feBlend mode="normal" in="SourceGraphic" in2="effect1_dropShadow_25_4" result="shape"/>
</filter>
<filter id="filter2_d_25_4" x="17.2786" y="121.56" width="205.719" height="33.152" filterUnits="userSpaceOnUse" color-interpolation-filters="sRGB">
<feFlood flood-opacity="0" result="BackgroundImageFix"/>
<feColorMatrix in="SourceAlpha" type="matrix" values="0 0 0 0 0 0 0 0 0 0 0 0 0 0 0 0 0 0 127 0" result="hardAlpha"/>
<feOffset dy="2"/>
<feGaussianBlur stdDeviation="4"/>
<feComposite in2="hardAlpha" operator="out"/>
<feColorMatrix type="matrix" values="0 0 0 0 0 0 0 0 0 0 0 0 0 0 0 0 0 0 0.15 0"/>
<feBlend mode="normal" in2="BackgroundImageFix" result="effect1_dropShadow_25_4"/>
<feBlend mode="normal" in="SourceGraphic" in2="effect1_dropShadow_25_4" result="shape"/>
</filter>
</defs>
</svg>
