<svg width="64" height="64" viewBox="0 0 64 64" fill="none" xmlns="http://www.w3.org/2000/svg">
<g clip-path="url(#clip0_1442_15275)">
<path d="M63.9996 50.6661V32.9061C64.0991 24.686 61.0852 16.7325 55.5631 10.6426C50.041 4.55266 42.4195 0.777162 34.2289 0.0741293C29.6573 -0.245717 25.0703 0.420102 20.7783 2.02654C16.4863 3.63297 12.5895 6.14254 9.35135 9.38546C6.11324 12.6284 3.60945 16.529 2.00938 20.8233C0.409306 25.1177 -0.249712 29.7057 0.0769108 34.2768C1.25558 51.2208 16.2182 63.9995 34.8876 63.9995H50.6663C54.2012 63.9952 57.5901 62.5891 60.0897 60.0896C62.5892 57.59 63.9953 54.2011 63.9996 50.6661ZM33.8662 5.3968C40.7101 6.00223 47.0714 9.17522 51.6718 14.2783C56.2723 19.3813 58.7711 26.0363 58.6663 32.9061V50.6661C58.6663 52.7879 57.8234 54.8227 56.3231 56.323C54.8228 57.8233 52.788 58.6661 50.6663 58.6661H34.8876C18.7969 58.6661 6.39958 48.2661 5.39958 33.9088C5.13705 30.2517 5.63151 26.5797 6.85207 23.1223C8.07262 19.6649 9.99305 16.4963 12.4934 13.8146C14.9937 11.1328 18.0202 8.9955 21.3838 7.53612C24.7473 6.07675 28.3757 5.32669 32.0422 5.3328C32.6476 5.3328 33.2582 5.3568 33.8662 5.3968Z" fill="#FF848B"/>
<path d="M44 22.6666C43.6249 22.2917 43.1163 22.0811 42.586 22.0811C42.0556 22.0811 41.547 22.2917 41.172 22.6666L32 31.8386L22.828 22.6666C22.4529 22.2917 21.9443 22.0811 21.414 22.0811C20.8836 22.0811 20.375 22.2917 20 22.6666C19.625 23.0417 19.4144 23.5503 19.4144 24.0806C19.4144 24.611 19.625 25.1196 20 25.4946L29.172 34.6666L20 43.8386C19.625 44.2137 19.4144 44.7223 19.4144 45.2526C19.4144 45.783 19.625 46.2916 20 46.6666C20.375 47.0416 20.8836 47.2522 21.414 47.2522C21.9443 47.2522 22.4529 47.0416 22.828 46.6666L32 37.4946L41.172 46.6666C41.547 47.0416 42.0556 47.2522 42.586 47.2522C43.1163 47.2522 43.6249 47.0416 44 46.6666C44.3749 46.2916 44.5855 45.783 44.5855 45.2526C44.5855 44.7223 44.3749 44.2137 44 43.8386L34.828 34.6666L44 25.4946C44.3749 25.1196 44.5855 24.611 44.5855 24.0806C44.5855 23.5503 44.3749 23.0417 44 22.6666Z" fill="#FF848B"/>
</g>
<defs>
<clipPath id="clip0_1442_15275">
<rect width="64" height="64" fill="white"/>
</clipPath>
</defs>
</svg>
