<svg width="85" height="80" viewBox="0 0 85 80" fill="none" xmlns="http://www.w3.org/2000/svg">
<line x1="72.887" y1="1.85396e-08" x2="72.887" y2="80" stroke="#EAECF0" stroke-width="0.848276" stroke-dasharray="1.7 1.7"/>
<line x1="13.178" y1="1.85396e-08" x2="13.178" y2="80" stroke="#EAECF0" stroke-width="0.848276" stroke-dasharray="1.7 1.7"/>
<line x1="0.00292502" y1="12.3295" x2="84.0609" y2="12.9092" stroke="#EAECF0" stroke-width="0.848276" stroke-dasharray="1.7 1.7"/>
<line x1="0.00292502" y1="70.8801" x2="84.0609" y2="71.4598" stroke="#EAECF0" stroke-width="0.848276" stroke-dasharray="1.7 1.7"/>
<g filter="url(#filter0_d_290_6697)">
<path d="M18.5508 20.233C18.5508 18.9837 19.5635 17.9709 20.8129 17.9709H65.5641C66.8134 17.9709 67.8261 18.9837 67.8261 20.233V64.4045C67.8261 65.6538 66.8134 66.6666 65.5641 66.6666H20.8128C19.5635 66.6666 18.5508 65.6538 18.5508 64.4045V20.233Z" fill="white"/>
</g>
<g clip-path="url(#clip0_290_6697)">
<path d="M57.7782 38.9562C57.4432 38.7319 57.2227 38.3501 57.2227 37.9167C57.2227 37.2657 57.7203 36.7309 58.3559 36.672C58.4859 35.8811 59.1727 35.2778 60.0004 35.2778C60.8281 35.2778 61.5149 35.8811 61.645 36.672C62.2806 36.7309 62.7782 37.2657 62.7782 37.9167C62.7782 38.3501 62.5577 38.7319 62.2227 38.9562M58.8893 38.8889L60.0004 37.7778M60.0004 37.7778L61.1115 38.8889M60.0004 37.7778V40.2778" stroke="#4B41FC" stroke-width="0.5" stroke-linecap="round" stroke-linejoin="round"/>
</g>
<g clip-path="url(#clip1_290_6697)">
<path d="M57.7782 47.845C57.4432 47.6208 57.2227 47.2389 57.2227 46.8055C57.2227 46.1545 57.7203 45.6198 58.3559 45.5609C58.4859 44.77 59.1727 44.1666 60.0004 44.1666C60.8281 44.1666 61.5149 44.77 61.645 45.5609C62.2806 45.6198 62.7782 46.1545 62.7782 46.8055C62.7782 47.2389 62.5577 47.6208 62.2227 47.845M58.8893 47.7777L60.0004 46.6666M60.0004 46.6666L61.1115 47.7777M60.0004 46.6666V49.1666" stroke="#4B41FC" stroke-width="0.5" stroke-linecap="round" stroke-linejoin="round"/>
</g>
<path d="M61.3601 52.7776H58.9311C57.8761 52.7776 57.2471 53.3804 57.2471 54.3915V56.7165C57.2471 57.7304 57.8761 58.3332 58.9311 58.3332H61.3572C62.4123 58.3332 63.0413 57.7304 63.0413 56.7193V54.3915C63.0442 53.3804 62.4152 52.7776 61.3601 52.7776ZM61.5311 54.9165L59.8876 56.4915C59.8471 56.5304 59.792 56.5526 59.734 56.5526C59.6761 56.5526 59.621 56.5304 59.5804 56.4915L58.7601 55.7054C58.6761 55.6249 58.6761 55.4915 58.7601 55.411C58.8442 55.3304 58.9833 55.3304 59.0674 55.411L59.734 56.0499L61.2239 54.6221C61.3079 54.5415 61.4471 54.5415 61.5311 54.6221C61.6152 54.7026 61.6152 54.8332 61.5311 54.9165Z" fill="#4B41FC"/>
<g filter="url(#filter1_d_290_6697)">
<rect x="21.4492" y="20.29" width="44.6377" height="9.85507" rx="3.3931" fill="url(#paint0_radial_290_6697)"/>
</g>
<g filter="url(#filter2_d_290_6697)">
<path d="M27.8828 26.1161C27.8828 26.0361 27.8895 25.9511 27.9028 25.8611C27.9195 25.7678 27.9428 25.6694 27.9728 25.5661C28.0061 25.4594 28.0461 25.3478 28.0928 25.2311L28.4528 25.3711C28.4195 25.4644 28.3895 25.5528 28.3628 25.6361C28.3395 25.7194 28.3211 25.7978 28.3078 25.8711C28.2978 25.9444 28.2928 26.0144 28.2928 26.0811C28.2928 26.2111 28.3195 26.3244 28.3728 26.4211C28.4295 26.5178 28.5078 26.5978 28.6078 26.6611C28.7078 26.7278 28.8245 26.7778 28.9578 26.8111C29.0911 26.8444 29.2345 26.8611 29.3878 26.8611C29.6278 26.8611 29.8378 26.8344 30.0178 26.7811C30.1978 26.7311 30.3478 26.6661 30.4678 26.5861C30.5878 26.5061 30.6761 26.4228 30.7328 26.3361C30.7928 26.2494 30.8228 26.1728 30.8228 26.1061C30.8228 26.0594 30.7945 26.0178 30.7378 25.9811C30.6811 25.9444 30.6078 25.9094 30.5178 25.8761C30.4278 25.8428 30.3328 25.8078 30.2328 25.7711C30.1328 25.7311 30.0378 25.6844 29.9478 25.6311C29.8578 25.5778 29.7845 25.5144 29.7278 25.4411C29.6711 25.3644 29.6428 25.2744 29.6428 25.1711C29.6428 25.0344 29.6761 24.8994 29.7428 24.7661C29.8128 24.6294 29.9061 24.5044 30.0228 24.3911C30.1428 24.2778 30.2761 24.1878 30.4228 24.1211C30.5695 24.0511 30.7211 24.0161 30.8778 24.0161C31.0178 24.0161 31.1378 24.0361 31.2378 24.0761C31.3378 24.1128 31.4095 24.1478 31.4528 24.1811L31.2878 24.5361C31.2311 24.5094 31.1678 24.4844 31.0978 24.4611C31.0278 24.4378 30.9545 24.4261 30.8778 24.4261C30.7811 24.4261 30.6828 24.4461 30.5828 24.4861C30.4861 24.5261 30.3961 24.5794 30.3128 24.6461C30.2328 24.7128 30.1678 24.7861 30.1178 24.8661C30.0678 24.9461 30.0428 25.0261 30.0428 25.1061C30.0428 25.1628 30.0711 25.2144 30.1278 25.2611C30.1878 25.3078 30.2645 25.3511 30.3578 25.3911C30.4511 25.4311 30.5495 25.4728 30.6528 25.5161C30.7595 25.5561 30.8595 25.6011 30.9528 25.6511C31.0461 25.6978 31.1211 25.7528 31.1778 25.8161C31.2378 25.8794 31.2678 25.9544 31.2678 26.0411C31.2678 26.1644 31.2261 26.2978 31.1428 26.4411C31.0595 26.5844 30.9361 26.7178 30.7728 26.8411C30.6095 26.9678 30.4095 27.0711 30.1728 27.1511C29.9395 27.2311 29.6695 27.2711 29.3628 27.2711C29.1528 27.2711 28.9578 27.2478 28.7778 27.2011C28.6011 27.1544 28.4445 27.0828 28.3078 26.9861C28.1745 26.8928 28.0695 26.7728 27.9928 26.6261C27.9195 26.4828 27.8828 26.3128 27.8828 26.1161ZM32.0764 26.1111L31.9764 22.5411H32.3814L32.4814 26.1111H32.0764ZM35.3938 26.1111C35.2304 26.1111 35.0838 26.0828 34.9538 26.0261C34.8238 25.9694 34.7204 25.8828 34.6438 25.7661C34.5704 25.6494 34.5338 25.5011 34.5338 25.3211C34.5338 25.1778 34.5888 24.9994 34.6988 24.7861C34.8088 24.5694 35.0004 24.3411 35.2738 24.1011L35.3688 24.3711L35.0288 24.0661L35.2888 23.7561C35.4621 23.8928 35.6221 24.0394 35.7688 24.1961C35.9154 24.3528 36.0338 24.5194 36.1238 24.6961C36.2138 24.8728 36.2588 25.0594 36.2588 25.2561C36.2588 25.3328 36.2454 25.4194 36.2188 25.5161C36.1921 25.6128 36.1471 25.7078 36.0838 25.8011C36.0204 25.8911 35.9321 25.9661 35.8188 26.0261C35.7054 26.0828 35.5638 26.1111 35.3938 26.1111ZM35.3938 25.7011C35.5071 25.7011 35.6004 25.6828 35.6738 25.6461C35.7504 25.6061 35.8071 25.5511 35.8438 25.4811C35.8838 25.4111 35.9038 25.3294 35.9038 25.2361C35.9038 25.1528 35.8888 25.0661 35.8588 24.9761C35.8321 24.8828 35.7754 24.7828 35.6888 24.6761C35.6054 24.5661 35.4771 24.4428 35.3038 24.3061L35.5238 24.2961C35.4004 24.4028 35.2938 24.5161 35.2038 24.6361C35.1138 24.7528 35.0454 24.8678 34.9988 24.9811C34.9521 25.0911 34.9288 25.1911 34.9288 25.2811C34.9288 25.4211 34.9721 25.5261 35.0588 25.5961C35.1488 25.6661 35.2604 25.7011 35.3938 25.7011ZM36.3148 27.2611L36.1698 26.8811C36.5064 26.7744 36.7648 26.6461 36.9448 26.4961C37.1281 26.3494 37.2531 26.1961 37.3198 26.0361C37.3898 25.8761 37.4248 25.7228 37.4248 25.5761C37.4248 25.4828 37.4148 25.3928 37.3948 25.3061C37.3748 25.2194 37.3398 25.1211 37.2898 25.0111C37.2398 24.9011 37.1698 24.7644 37.0798 24.6011L37.4448 24.4161C37.5714 24.6328 37.6614 24.8378 37.7148 25.0311C37.7714 25.2244 37.7998 25.3944 37.7998 25.5411C37.7998 25.7511 37.7648 25.9411 37.6948 26.1111C37.6281 26.2811 37.5381 26.4311 37.4248 26.5611C37.3148 26.6944 37.1931 26.8078 37.0598 26.9011C36.9298 26.9944 36.7981 27.0711 36.6648 27.1311C36.5348 27.1911 36.4181 27.2344 36.3148 27.2611ZM38.5055 27.2611L38.4155 26.8511C38.6155 26.8244 38.7989 26.7861 38.9655 26.7361C39.1355 26.6894 39.2805 26.6211 39.4005 26.5311C39.5239 26.4411 39.6189 26.3228 39.6855 26.1761C39.7522 26.0294 39.7855 25.8461 39.7855 25.6261C39.7855 25.5228 39.7755 25.4244 39.7555 25.3311C39.7355 25.2344 39.7055 25.1494 39.6655 25.0761C39.6255 25.0028 39.5772 24.9444 39.5205 24.9011C39.4672 24.8578 39.4055 24.8361 39.3355 24.8361C39.2589 24.8361 39.1889 24.8661 39.1255 24.9261C39.0655 24.9828 39.0172 25.0561 38.9805 25.1461C38.9472 25.2361 38.9305 25.3261 38.9305 25.4161C38.9305 25.4861 38.9439 25.5478 38.9705 25.6011C39.0005 25.6511 39.0489 25.6894 39.1155 25.7161C39.1822 25.7428 39.2689 25.7561 39.3755 25.7561C39.4722 25.7561 39.5689 25.7461 39.6655 25.7261C39.7655 25.7061 39.8505 25.6794 39.9205 25.6461L39.9405 25.9961C39.8605 26.0528 39.7655 26.0928 39.6555 26.1161C39.5489 26.1394 39.4405 26.1511 39.3305 26.1511C39.2039 26.1511 39.0905 26.1378 38.9905 26.1111C38.8939 26.0844 38.8105 26.0461 38.7405 25.9961C38.6739 25.9428 38.6222 25.8761 38.5855 25.7961C38.5522 25.7161 38.5355 25.6228 38.5355 25.5161C38.5355 25.3894 38.5555 25.2628 38.5955 25.1361C38.6355 25.0061 38.6922 24.8878 38.7655 24.7811C38.8389 24.6744 38.9272 24.5894 39.0305 24.5261C39.1339 24.4594 39.2489 24.4261 39.3755 24.4261C39.5089 24.4261 39.6255 24.4611 39.7255 24.5311C39.8255 24.5978 39.9089 24.6894 39.9755 24.8061C40.0422 24.9228 40.0922 25.0544 40.1255 25.2011C40.1589 25.3478 40.1755 25.4994 40.1755 25.6561C40.1755 25.9661 40.1122 26.2328 39.9855 26.4561C39.8622 26.6828 39.6755 26.8628 39.4255 26.9961C39.1789 27.1294 38.8722 27.2178 38.5055 27.2611ZM40.7117 25.8861L40.9117 25.5411C40.9783 25.5844 41.0717 25.6261 41.1917 25.6661C41.3117 25.7061 41.4517 25.7261 41.6117 25.7261C41.7783 25.7261 41.91 25.7094 42.0067 25.6761C42.1067 25.6428 42.1783 25.5944 42.2217 25.5311C42.2683 25.4644 42.2917 25.3878 42.2917 25.3011C42.2917 25.2344 42.2767 25.1528 42.2467 25.0561C42.22 24.9561 42.16 24.8228 42.0667 24.6561C41.9733 24.4861 41.83 24.2644 41.6367 23.9911L41.9817 23.7661C42.1583 24.0094 42.2983 24.2294 42.4017 24.4261C42.5083 24.6228 42.5833 24.7961 42.6267 24.9461C42.6733 25.0928 42.6967 25.2194 42.6967 25.3261C42.6967 25.4594 42.6633 25.5894 42.5967 25.7161C42.53 25.8394 42.4183 25.9411 42.2617 26.0211C42.105 26.1011 41.8883 26.1411 41.6117 26.1411C41.4917 26.1411 41.375 26.1311 41.2617 26.1111C41.1517 26.0911 41.05 26.0628 40.9567 26.0261C40.8633 25.9861 40.7817 25.9394 40.7117 25.8861ZM46.0604 27.2711C45.8704 27.2711 45.6904 27.2444 45.5204 27.1911C45.3504 27.1411 45.1987 27.0661 45.0654 26.9661C44.9354 26.8661 44.8321 26.7444 44.7554 26.6011C44.6821 26.4611 44.6454 26.2994 44.6454 26.1161C44.6454 26.0361 44.6521 25.9511 44.6654 25.8611C44.6821 25.7678 44.7054 25.6694 44.7354 25.5661C44.7687 25.4594 44.8087 25.3478 44.8554 25.2311L45.2154 25.3711C45.1821 25.4644 45.1521 25.5528 45.1254 25.6361C45.1021 25.7194 45.0837 25.7978 45.0704 25.8711C45.0604 25.9444 45.0554 26.0144 45.0554 26.0811C45.0554 26.2511 45.1004 26.3944 45.1904 26.5111C45.2837 26.6278 45.4071 26.7144 45.5604 26.7711C45.7171 26.8311 45.8887 26.8611 46.0754 26.8611C46.3021 26.8611 46.4921 26.8344 46.6454 26.7811C46.7987 26.7311 46.9204 26.6628 47.0104 26.5761C47.1004 26.4928 47.1637 26.3994 47.2004 26.2961C47.2404 26.1928 47.2604 26.0878 47.2604 25.9811C47.2604 25.8344 47.2487 25.6961 47.2254 25.5661C47.2054 25.4361 47.1771 25.3094 47.1404 25.1861C47.1071 25.0594 47.0704 24.9311 47.0304 24.8011L47.4354 24.6911C47.4721 24.8178 47.5004 24.9211 47.5204 25.0011C47.5404 25.0778 47.5554 25.1394 47.5654 25.1861C47.5787 25.2328 47.5904 25.2744 47.6004 25.3111C47.6371 25.4344 47.6787 25.5261 47.7254 25.5861C47.7754 25.6428 47.8321 25.6811 47.8954 25.7011C47.9621 25.7178 48.0371 25.7261 48.1204 25.7261C48.1871 25.7261 48.2454 25.7178 48.2954 25.7011C48.3487 25.6844 48.3971 25.6444 48.4404 25.5811C48.4871 25.5178 48.5271 25.4161 48.5604 25.2761C48.5971 25.1361 48.6304 24.9444 48.6604 24.7011L49.0404 24.7711C49.0304 24.8311 49.0187 24.9044 49.0054 24.9911C48.9921 25.0778 48.9787 25.1644 48.9654 25.2511C48.9554 25.3344 48.9504 25.4044 48.9504 25.4611C48.9504 25.5078 48.9604 25.5528 48.9804 25.5961C49.0037 25.6361 49.0471 25.6678 49.1104 25.6911C49.1771 25.7144 49.2754 25.7261 49.4054 25.7261C49.5087 25.7261 49.5971 25.7194 49.6704 25.7061C49.7471 25.6894 49.8054 25.6511 49.8454 25.5911C49.8887 25.5278 49.9104 25.4294 49.9104 25.2961C49.9104 25.2128 49.8971 25.1144 49.8704 25.0011C49.8437 24.8844 49.8087 24.7611 49.7654 24.6311C49.7221 24.5011 49.6754 24.3728 49.6254 24.2461L50.0304 24.0961C50.0737 24.2028 50.1137 24.3244 50.1504 24.4611C50.1904 24.5978 50.2237 24.7328 50.2504 24.8661C50.2771 24.9994 50.2904 25.1161 50.2904 25.2161C50.2904 25.3861 50.2671 25.5294 50.2204 25.6461C50.1771 25.7628 50.1154 25.8578 50.0354 25.9311C49.9554 26.0044 49.8604 26.0578 49.7504 26.0911C49.6437 26.1211 49.5271 26.1361 49.4004 26.1361C49.2837 26.1361 49.1821 26.1261 49.0954 26.1061C49.0121 26.0861 48.9404 26.0561 48.8804 26.0161C48.8237 25.9728 48.7787 25.9194 48.7454 25.8561C48.7154 25.7894 48.6937 25.7128 48.6804 25.6261H48.8504C48.7971 25.7461 48.7371 25.8444 48.6704 25.9211C48.6037 25.9944 48.5237 26.0494 48.4304 26.0861C48.3404 26.1194 48.2287 26.1361 48.0954 26.1361C47.9921 26.1361 47.9037 26.1228 47.8304 26.0961C47.7571 26.0661 47.6954 26.0294 47.6454 25.9861C47.5987 25.9394 47.5621 25.8878 47.5354 25.8311C47.5087 25.7711 47.4887 25.7111 47.4754 25.6511L47.6804 25.9061C47.6637 26.0661 47.6271 26.2261 47.5704 26.3861C47.5171 26.5461 47.4304 26.6928 47.3104 26.8261C47.1937 26.9628 47.0337 27.0711 46.8304 27.1511C46.6271 27.2311 46.3704 27.2711 46.0604 27.2711ZM48.6154 23.3861C48.5454 23.3861 48.4854 23.3628 48.4354 23.3161C48.3887 23.2661 48.3654 23.2078 48.3654 23.1411C48.3654 23.0744 48.3887 23.0161 48.4354 22.9661C48.4854 22.9161 48.5454 22.8911 48.6154 22.8911C48.6821 22.8911 48.7387 22.9161 48.7854 22.9661C48.8354 23.0161 48.8604 23.0744 48.8604 23.1411C48.8604 23.2078 48.8354 23.2661 48.7854 23.3161C48.7387 23.3628 48.6821 23.3861 48.6154 23.3861ZM48.2754 23.9361C48.2054 23.9361 48.1454 23.9128 48.0954 23.8661C48.0487 23.8161 48.0254 23.7578 48.0254 23.6911C48.0254 23.6244 48.0487 23.5661 48.0954 23.5161C48.1454 23.4661 48.2054 23.4411 48.2754 23.4411C48.3421 23.4411 48.3987 23.4661 48.4454 23.5161C48.4954 23.5661 48.5204 23.6244 48.5204 23.6911C48.5204 23.7578 48.4954 23.8161 48.4454 23.8661C48.3987 23.9128 48.3421 23.9361 48.2754 23.9361ZM48.9554 23.9361C48.8854 23.9361 48.8254 23.9128 48.7754 23.8661C48.7287 23.8161 48.7054 23.7578 48.7054 23.6911C48.7054 23.6244 48.7287 23.5661 48.7754 23.5161C48.8254 23.4661 48.8854 23.4411 48.9554 23.4411C49.0221 23.4411 49.0787 23.4661 49.1254 23.5161C49.1754 23.5661 49.2004 23.6244 49.2004 23.6911C49.2004 23.7578 49.1754 23.8161 49.1254 23.8661C49.0787 23.9128 49.0221 23.9361 48.9554 23.9361ZM50.6451 27.2611L50.5001 26.8811C50.8368 26.7744 51.0951 26.6461 51.2751 26.4961C51.4585 26.3494 51.5835 26.1961 51.6501 26.0361C51.7201 25.8761 51.7551 25.7228 51.7551 25.5761C51.7551 25.4828 51.7451 25.3928 51.7251 25.3061C51.7051 25.2194 51.6701 25.1211 51.6201 25.0111C51.5701 24.9011 51.5001 24.7644 51.4101 24.6011L51.7751 24.4161C51.9018 24.6328 51.9918 24.8378 52.0451 25.0311C52.1018 25.2244 52.1301 25.3944 52.1301 25.5411C52.1301 25.7511 52.0951 25.9411 52.0251 26.1111C51.9585 26.2811 51.8685 26.4311 51.7551 26.5611C51.6451 26.6944 51.5235 26.8078 51.3901 26.9011C51.2601 26.9944 51.1285 27.0711 50.9951 27.1311C50.8651 27.1911 50.7485 27.2344 50.6451 27.2611ZM53.0059 26.1111L52.9059 22.5411H53.3109L53.4109 26.1111H53.0059ZM53.7152 27.2711L53.5702 26.8911C53.8135 26.8111 54.0152 26.7194 54.1752 26.6161C54.3385 26.5128 54.4669 26.4028 54.5602 26.2861C54.6569 26.1694 54.7252 26.0511 54.7652 25.9311C54.8052 25.8078 54.8252 25.6894 54.8252 25.5761C54.8252 25.4128 54.7885 25.2478 54.7152 25.0811C54.6452 24.9111 54.5669 24.7511 54.4802 24.6011L54.8452 24.4161C54.9085 24.5328 54.9635 24.6478 55.0102 24.7611C55.0602 24.8744 55.1035 24.9811 55.1402 25.0811C55.1802 25.1811 55.2119 25.2728 55.2352 25.3561C55.2819 25.4994 55.3419 25.5978 55.4152 25.6511C55.4919 25.7011 55.5952 25.7261 55.7252 25.7261C55.7952 25.7261 55.8452 25.7461 55.8752 25.7861C55.9085 25.8228 55.9252 25.8678 55.9252 25.9211C55.9252 25.9744 55.9019 26.0244 55.8552 26.0711C55.8085 26.1144 55.7485 26.1361 55.6752 26.1361C55.5285 26.1361 55.4085 26.1111 55.3152 26.0611C55.2252 26.0078 55.1569 25.9394 55.1102 25.8561C55.0635 25.7694 55.0319 25.6794 55.0152 25.5861L55.1752 25.6761C55.1752 25.8961 55.1252 26.0961 55.0252 26.2761C54.9285 26.4594 54.8035 26.6178 54.6502 26.7511C54.4969 26.8878 54.3369 26.9994 54.1702 27.0861C54.0035 27.1728 53.8519 27.2344 53.7152 27.2711ZM54.5102 23.8411C54.4402 23.8411 54.3802 23.8178 54.3302 23.7711C54.2835 23.7211 54.2602 23.6628 54.2602 23.5961C54.2602 23.5294 54.2835 23.4711 54.3302 23.4211C54.3802 23.3711 54.4402 23.3461 54.5102 23.3461C54.5769 23.3461 54.6335 23.3711 54.6802 23.4211C54.7302 23.4711 54.7552 23.5294 54.7552 23.5961C54.7552 23.6628 54.7302 23.7211 54.6802 23.7711C54.6335 23.8178 54.5769 23.8411 54.5102 23.8411ZM55.7574 23.3611L55.5724 23.0811C55.7024 23.0011 55.8574 22.9061 56.0374 22.7961C56.2208 22.6861 56.4308 22.5644 56.6674 22.4311C56.9041 22.2978 57.1658 22.1561 57.4524 22.0061L57.5924 22.3111C57.3024 22.4644 57.0441 22.6044 56.8174 22.7311C56.5941 22.8578 56.3958 22.9728 56.2224 23.0761C56.0491 23.1794 55.8941 23.2744 55.7574 23.3611ZM55.7624 26.1361L55.8124 25.7261H56.2824C56.4791 25.7261 56.6341 25.7161 56.7474 25.6961C56.8641 25.6728 56.9491 25.6444 57.0024 25.6111C57.0591 25.5744 57.0958 25.5361 57.1124 25.4961C57.1324 25.4528 57.1424 25.4094 57.1424 25.3661C57.1424 25.2894 57.1124 25.1944 57.0524 25.0811C56.9958 24.9678 56.8774 24.8211 56.6974 24.6411C56.6041 24.5478 56.5108 24.4628 56.4174 24.3861C56.3241 24.3061 56.2374 24.2361 56.1574 24.1761C56.0808 24.1128 56.0191 24.0594 55.9724 24.0161C55.9258 23.9728 55.9024 23.9394 55.9024 23.9161C55.9024 23.8661 55.9058 23.8178 55.9124 23.7711C55.9224 23.7244 55.9341 23.6811 55.9474 23.6411C55.9641 23.6011 55.9841 23.5694 56.0074 23.5461C56.0741 23.4761 56.1591 23.4061 56.2624 23.3361C56.3691 23.2661 56.4924 23.1928 56.6324 23.1161C56.7758 23.0394 56.9358 22.9578 57.1124 22.8711C57.2924 22.7811 57.4891 22.6828 57.7024 22.5761L57.8724 22.9461C57.6058 23.0728 57.3824 23.1811 57.2024 23.2711C57.0258 23.3578 56.8758 23.4361 56.7524 23.5061C56.6291 23.5728 56.5208 23.6361 56.4274 23.6961C56.3341 23.7561 56.2391 23.8228 56.1424 23.8961L56.2174 23.7061C56.4274 23.8728 56.6124 24.0294 56.7724 24.1761C56.9358 24.3228 57.0724 24.4644 57.1824 24.6011C57.2924 24.7344 57.3758 24.8661 57.4324 24.9961C57.4891 25.1261 57.5174 25.2578 57.5174 25.3911C57.5174 25.4644 57.5041 25.5444 57.4774 25.6311C57.4508 25.7178 57.3941 25.7994 57.3074 25.8761C57.2208 25.9528 57.0908 26.0161 56.9174 26.0661C56.7441 26.1128 56.5108 26.1361 56.2174 26.1361H55.7624Z" fill="white"/>
</g>
<path d="M25.5078 36.8115H53.9136" stroke="#EAECF0" stroke-width="1.69655" stroke-linecap="round"/>
<path d="M25.5078 45.797H53.9136" stroke="#EAECF0" stroke-width="1.69655" stroke-linecap="round"/>
<path d="M25.5078 54.4927H53.9136" stroke="#EAECF0" stroke-width="1.69655" stroke-linecap="round"/>
<path d="M41.7383 40L53.9122 40" stroke="#EAECF0" stroke-width="1.69655" stroke-linecap="round"/>
<path d="M48.1162 49.2751L53.9133 49.2751" stroke="#EAECF0" stroke-width="1.69655" stroke-linecap="round"/>
<path d="M41.7383 57.9709L53.9122 57.9709" stroke="#EAECF0" stroke-width="1.69655" stroke-linecap="round"/>
<defs>
<filter id="filter0_d_290_6697" x="15.7232" y="16.2744" width="54.9306" height="54.3508" filterUnits="userSpaceOnUse" color-interpolation-filters="sRGB">
<feFlood flood-opacity="0" result="BackgroundImageFix"/>
<feColorMatrix in="SourceAlpha" type="matrix" values="0 0 0 0 0 0 0 0 0 0 0 0 0 0 0 0 0 0 127 0" result="hardAlpha"/>
<feOffset dy="1.13103"/>
<feGaussianBlur stdDeviation="1.41379"/>
<feComposite in2="hardAlpha" operator="out"/>
<feColorMatrix type="matrix" values="0 0 0 0 0 0 0 0 0 0 0 0 0 0 0 0 0 0 0.1 0"/>
<feBlend mode="normal" in2="BackgroundImageFix" result="effect1_dropShadow_290_6697"/>
<feBlend mode="normal" in="SourceGraphic" in2="effect1_dropShadow_290_6697" result="shape"/>
</filter>
<filter id="filter1_d_290_6697" x="18.6216" y="18.5934" width="50.2929" height="15.5102" filterUnits="userSpaceOnUse" color-interpolation-filters="sRGB">
<feFlood flood-opacity="0" result="BackgroundImageFix"/>
<feColorMatrix in="SourceAlpha" type="matrix" values="0 0 0 0 0 0 0 0 0 0 0 0 0 0 0 0 0 0 127 0" result="hardAlpha"/>
<feOffset dy="1.13103"/>
<feGaussianBlur stdDeviation="1.41379"/>
<feComposite in2="hardAlpha" operator="out"/>
<feColorMatrix type="matrix" values="0 0 0 0 0 0 0 0 0 0 0 0 0 0 0 0 0 0 0.1 0"/>
<feBlend mode="normal" in2="BackgroundImageFix" result="effect1_dropShadow_290_6697"/>
<feBlend mode="normal" in="SourceGraphic" in2="effect1_dropShadow_290_6697" result="shape"/>
</filter>
<filter id="filter2_d_290_6697" x="25.6207" y="19.744" width="34.5134" height="9.78909" filterUnits="userSpaceOnUse" color-interpolation-filters="sRGB">
<feFlood flood-opacity="0" result="BackgroundImageFix"/>
<feColorMatrix in="SourceAlpha" type="matrix" values="0 0 0 0 0 0 0 0 0 0 0 0 0 0 0 0 0 0 127 0" result="hardAlpha"/>
<feOffset/>
<feGaussianBlur stdDeviation="1.13103"/>
<feComposite in2="hardAlpha" operator="out"/>
<feColorMatrix type="matrix" values="0 0 0 0 0 0 0 0 0 0 0 0 0 0 0 0 0 0 0.25 0"/>
<feBlend mode="normal" in2="BackgroundImageFix" result="effect1_dropShadow_290_6697"/>
<feBlend mode="normal" in="SourceGraphic" in2="effect1_dropShadow_290_6697" result="shape"/>
</filter>
<radialGradient id="paint0_radial_290_6697" cx="0" cy="0" r="1" gradientUnits="userSpaceOnUse" gradientTransform="translate(43.7681 25.2175) rotate(0.550904) scale(30.1463 11.0531)">
<stop stop-color="#5266FF"/>
<stop offset="1" stop-color="#4726FF"/>
</radialGradient>
<clipPath id="clip0_290_6697">
<rect width="6.66667" height="6.66667" fill="white" transform="translate(56.667 34.4445)"/>
</clipPath>
<clipPath id="clip1_290_6697">
<rect width="6.66667" height="6.66667" fill="white" transform="translate(56.667 43.3333)"/>
</clipPath>
</defs>
</svg>
