<svg width="226" height="170" viewBox="0 0 226 170" fill="none" xmlns="http://www.w3.org/2000/svg">
<path d="M168.278 0H60.9817C56.0436 0 52.0404 4.00316 52.0404 8.94132V116.237C52.0404 121.175 56.0436 125.178 60.9817 125.178H168.278C173.216 125.178 177.219 121.175 177.219 116.237V8.94132C177.219 4.00316 173.216 0 168.278 0Z" fill="#F1F1F1"/>
<g filter="url(#filter0_d_1128_3431)">
<path d="M71.7089 48.2832H192.417C193.602 48.2832 194.74 48.7542 195.578 49.5926C196.416 50.431 196.887 51.5682 196.887 52.7539V75.1072C196.887 76.2928 196.416 77.43 195.578 78.2684C194.74 79.1068 193.602 79.5778 192.417 79.5778H71.7089C70.5232 79.5778 69.3861 79.1068 68.5477 78.2684C67.7093 77.43 67.2383 76.2928 67.2383 75.1072V52.7539C67.2383 51.5682 67.7093 50.431 68.5477 49.5926C69.3861 48.7542 70.5232 48.2832 71.7089 48.2832V48.2832Z" fill="white"/>
</g>
<path d="M137.876 55.436H114.629C113.147 55.436 111.946 56.637 111.946 58.1184C111.946 59.5999 113.147 60.8008 114.629 60.8008H137.876C139.358 60.8008 140.559 59.5999 140.559 58.1184C140.559 56.637 139.358 55.436 137.876 55.436Z" fill="#BDBDBD"/>
<path d="M153.971 67.0596H114.629C113.147 67.0596 111.947 68.2605 111.947 69.742C111.947 71.2234 113.147 72.4244 114.629 72.4244H153.971C155.452 72.4244 156.653 71.2234 156.653 69.742C156.653 68.2605 155.452 67.0596 153.971 67.0596Z" fill="#E8E8E8"/>
<path d="M94.5113 72.4245C99.2026 72.4245 103.006 68.6215 103.006 63.9303C103.006 59.239 99.2026 55.436 94.5113 55.436C89.8201 55.436 86.0171 59.239 86.0171 63.9303C86.0171 68.6215 89.8201 72.4245 94.5113 72.4245Z" fill="#CACACA"/>
<g filter="url(#filter1_d_1128_3431)">
<path d="M33.2634 86.7305H153.971C155.157 86.7305 156.294 87.2015 157.132 88.0399C157.971 88.8783 158.442 90.0154 158.442 91.2011V113.554C158.442 114.74 157.971 115.877 157.132 116.716C156.294 117.554 155.157 118.025 153.971 118.025H33.2634C32.0777 118.025 30.9406 117.554 30.1022 116.716C29.2637 115.877 28.7927 114.74 28.7927 113.554V91.2011C28.7927 90.0154 29.2637 88.8783 30.1022 88.0399C30.9406 87.2015 32.0777 86.7305 33.2634 86.7305V86.7305Z" fill="white"/>
</g>
<path d="M99.4284 93.8838H76.1809C74.6995 93.8838 73.4985 95.0847 73.4985 96.5662C73.4985 98.0476 74.6995 99.2486 76.1809 99.2486H99.4284C100.91 99.2486 102.111 98.0476 102.111 96.5662C102.111 95.0847 100.91 93.8838 99.4284 93.8838Z" fill="#BDBDBD"/>
<path d="M115.522 105.507H76.1807C74.6992 105.507 73.4983 106.708 73.4983 108.19C73.4983 109.671 74.6992 110.872 76.1807 110.872H115.522C117.004 110.872 118.205 109.671 118.205 108.19C118.205 106.708 117.004 105.507 115.522 105.507Z" fill="#E8E8E8"/>
<path d="M44.4401 110.872C49.1313 110.872 52.9343 107.069 52.9343 102.378C52.9343 97.6868 49.1313 93.8838 44.4401 93.8838C39.7488 93.8838 35.9458 97.6868 35.9458 102.378C35.9458 107.069 39.7488 110.872 44.4401 110.872Z" fill="#CACACA"/>
<g filter="url(#filter2_d_1128_3431)">
<path d="M153.971 9.83545H33.2634C30.7943 9.83545 28.7927 11.837 28.7927 14.3061V36.6594C28.7927 39.1285 30.7943 41.1301 33.2634 41.1301H153.971C156.44 41.1301 158.442 39.1285 158.442 36.6594V14.3061C158.442 11.837 156.44 9.83545 153.971 9.83545Z" fill="white"/>
</g>
<path d="M97.6406 16.9888H74.3932C72.9118 16.9888 71.7108 18.1897 71.7108 19.6712C71.7108 21.1526 72.9118 22.3536 74.3932 22.3536H97.6406C99.1221 22.3536 100.323 21.1526 100.323 19.6712C100.323 18.1897 99.1221 16.9888 97.6406 16.9888Z" fill="#BDBDBD"/>
<path d="M113.735 28.6123H74.3933C72.9119 28.6123 71.7109 29.8133 71.7109 31.2947C71.7109 32.7761 72.9119 33.9771 74.3933 33.9771H113.735C115.217 33.9771 116.418 32.7761 116.418 31.2947C116.418 29.8133 115.217 28.6123 113.735 28.6123Z" fill="#E8E8E8"/>
<path d="M56.0646 33.9773C60.7558 33.9773 64.5588 30.1743 64.5588 25.483C64.5588 20.7918 60.7558 16.9888 56.0646 16.9888C51.3733 16.9888 47.5703 20.7918 47.5703 25.483C47.5703 30.1743 51.3733 33.9773 56.0646 33.9773Z" fill="#CACACA"/>
<path d="M28.733 155.566C28.9757 155.837 29.1484 156.107 29.251 156.378C29.363 156.639 29.419 156.896 29.419 157.148C29.419 157.652 29.237 158.072 28.873 158.408C28.5184 158.735 28.0097 158.898 27.347 158.898H23.441L23.371 157.932H27.235C27.599 157.932 27.879 157.848 28.075 157.68C28.2804 157.512 28.383 157.293 28.383 157.022C28.383 156.891 28.3504 156.747 28.285 156.588C28.2197 156.429 28.1217 156.28 27.991 156.14L25.387 153.2L26.101 152.528L28.733 155.566ZM32.4775 158.674C32.4775 159.215 32.3888 159.705 32.2115 160.144C32.0435 160.592 31.8102 160.975 31.5115 161.292C31.2128 161.609 30.8582 161.852 30.4475 162.02C30.0462 162.197 29.6075 162.286 29.1315 162.286H28.3055L28.2355 161.334H28.9215C29.3882 161.334 29.7895 161.259 30.1255 161.11C30.4615 160.961 30.7368 160.76 30.9515 160.508C31.1662 160.265 31.3248 159.985 31.4275 159.668C31.5302 159.351 31.5815 159.019 31.5815 158.674V154.894H32.4775V158.674ZM34.236 150.218H35.146V158.898H34.236V150.218ZM39.6834 157.932C39.8888 157.932 40.0614 157.909 40.2014 157.862C40.3414 157.806 40.4534 157.741 40.5374 157.666C40.6308 157.582 40.6961 157.493 40.7334 157.4C40.7801 157.307 40.8034 157.218 40.8034 157.134C40.8034 157.041 40.7848 156.915 40.7474 156.756C40.7101 156.597 40.6401 156.364 40.5374 156.056C40.4441 155.748 40.3041 155.337 40.1174 154.824C39.9401 154.311 39.7068 153.653 39.4174 152.85L40.2714 152.5L41.7694 156.77C41.9188 157.19 42.0914 157.489 42.2874 157.666C42.4834 157.843 42.7588 157.932 43.1134 157.932H43.3094C43.5148 157.932 43.6174 158.091 43.6174 158.408C43.6174 158.735 43.5148 158.898 43.3094 158.898H43.1134C42.8054 158.898 42.5114 158.842 42.2314 158.73C41.9514 158.609 41.6948 158.352 41.4614 157.96C41.2654 158.343 41.0181 158.595 40.7194 158.716C40.4301 158.837 40.1128 158.898 39.7674 158.898H36.7574L36.6874 157.932H39.6834ZM44.5652 157.932C44.9292 157.932 45.2185 157.834 45.4332 157.638C45.6572 157.442 45.7692 157.171 45.7692 156.826V154.894H46.6792V156.826C46.6792 157.489 46.4925 158.002 46.1192 158.366C45.7552 158.721 45.2558 158.898 44.6212 158.898H43.3052C43.1838 158.898 43.1045 158.861 43.0672 158.786C43.0205 158.711 42.9972 158.595 42.9972 158.436C42.9972 158.268 43.0205 158.142 43.0672 158.058C43.1045 157.974 43.1838 157.932 43.3052 157.932H44.5652ZM46.3012 153.102H45.1252V152.08H46.3012V153.102ZM55.5299 155.566C55.7726 155.837 55.9452 156.107 56.0479 156.378C56.1599 156.639 56.2159 156.896 56.2159 157.148C56.2159 157.652 56.0339 158.072 55.6699 158.408C55.3152 158.735 54.8066 158.898 54.1439 158.898H50.2379L50.1679 157.932H54.0319C54.3959 157.932 54.6759 157.848 54.8719 157.68C55.0772 157.512 55.1799 157.293 55.1799 157.022C55.1799 156.891 55.1472 156.747 55.0819 156.588C55.0166 156.429 54.9186 156.28 54.7879 156.14L52.1839 153.2L52.8979 152.528L55.5299 155.566ZM58.9664 161.334C59.377 161.334 59.7364 161.269 60.0444 161.138C60.3617 161.007 60.6277 160.83 60.8424 160.606C61.057 160.382 61.2204 160.121 61.3324 159.822C61.4444 159.533 61.5097 159.225 61.5284 158.898H60.1284C59.6524 158.898 59.2604 158.847 58.9524 158.744C58.6444 158.641 58.4017 158.492 58.2244 158.296C58.047 158.1 57.921 157.867 57.8464 157.596C57.781 157.316 57.7484 157.003 57.7484 156.658C57.7484 156.303 57.7997 155.967 57.9024 155.65C58.005 155.333 58.1544 155.053 58.3504 154.81C58.5464 154.567 58.789 154.376 59.0784 154.236C59.377 154.087 59.7177 154.012 60.1004 154.012C60.4084 154.012 60.7024 154.063 60.9824 154.166C61.2624 154.269 61.5097 154.432 61.7244 154.656C61.939 154.871 62.107 155.155 62.2284 155.51C62.359 155.855 62.4244 156.275 62.4244 156.77V157.932H63.7684C63.8804 157.932 63.955 157.974 63.9924 158.058C64.039 158.133 64.0624 158.249 64.0624 158.408C64.0624 158.576 64.039 158.702 63.9924 158.786C63.955 158.861 63.8804 158.898 63.7684 158.898H62.3964C62.3777 159.355 62.2844 159.789 62.1164 160.2C61.9577 160.611 61.7337 160.97 61.4444 161.278C61.155 161.586 60.8097 161.829 60.4084 162.006C60.007 162.193 59.5544 162.286 59.0504 162.286H57.5664L57.4824 161.334H58.9664ZM58.6164 156.602C58.6164 156.835 58.6397 157.036 58.6864 157.204C58.7424 157.372 58.831 157.512 58.9524 157.624C59.083 157.727 59.2557 157.806 59.4704 157.862C59.685 157.909 59.9557 157.932 60.2824 157.932H61.5424V156.882C61.5424 156.191 61.407 155.697 61.1364 155.398C60.8657 155.099 60.4924 154.95 60.0164 154.95C59.5684 154.95 59.223 155.099 58.9804 155.398C58.7377 155.697 58.6164 156.098 58.6164 156.602ZM67.818 158.072C67.5753 158.212 67.342 158.338 67.118 158.45C66.894 158.553 66.6513 158.637 66.39 158.702C66.1286 158.767 65.8393 158.819 65.522 158.856C65.214 158.884 64.8593 158.898 64.458 158.898H63.772C63.6506 158.898 63.5713 158.861 63.534 158.786C63.4873 158.711 63.464 158.595 63.464 158.436C63.464 158.268 63.4873 158.142 63.534 158.058C63.5713 157.974 63.6506 157.932 63.772 157.932H64.472C64.836 157.932 65.158 157.923 65.438 157.904C65.718 157.876 65.9746 157.839 66.208 157.792C66.4413 157.736 66.6606 157.666 66.866 157.582C67.0713 157.498 67.2813 157.391 67.496 157.26L69.862 155.888C69.7873 155.692 69.708 155.515 69.624 155.356C69.54 155.188 69.4326 155.048 69.302 154.936C69.1806 154.824 69.0266 154.74 68.84 154.684C68.6533 154.619 68.42 154.586 68.14 154.586H65.004L65.088 153.62H68.266C68.5086 153.62 68.756 153.648 69.008 153.704C69.2693 153.76 69.512 153.881 69.736 154.068C69.9693 154.245 70.184 154.511 70.38 154.866C70.5853 155.221 70.7533 155.692 70.884 156.28L67.818 158.072ZM67.776 161.544H66.6V160.522H67.776V161.544ZM73.5953 161.334C74.0059 161.334 74.3653 161.269 74.6733 161.138C74.9906 161.007 75.2566 160.83 75.4713 160.606C75.6859 160.382 75.8493 160.121 75.9613 159.822C76.0733 159.533 76.1386 159.225 76.1573 158.898H74.7573C74.2813 158.898 73.8893 158.847 73.5813 158.744C73.2733 158.641 73.0306 158.492 72.8533 158.296C72.6759 158.1 72.5499 157.867 72.4753 157.596C72.4099 157.316 72.3773 157.003 72.3773 156.658C72.3773 156.303 72.4286 155.967 72.5313 155.65C72.6339 155.333 72.7833 155.053 72.9793 154.81C73.1753 154.567 73.4179 154.376 73.7073 154.236C74.0059 154.087 74.3466 154.012 74.7293 154.012C75.0373 154.012 75.3313 154.063 75.6113 154.166C75.8913 154.269 76.1386 154.432 76.3533 154.656C76.5679 154.871 76.7359 155.155 76.8573 155.51C76.9879 155.855 77.0533 156.275 77.0533 156.77V158.674C77.0533 159.15 76.9739 159.607 76.8153 160.046C76.6659 160.485 76.4466 160.867 76.1573 161.194C75.8679 161.53 75.5133 161.796 75.0933 161.992C74.6733 162.188 74.2019 162.286 73.6793 162.286H72.1953L72.1113 161.334H73.5953ZM73.2453 156.602C73.2453 156.835 73.2686 157.036 73.3153 157.204C73.3713 157.372 73.4599 157.512 73.5813 157.624C73.7119 157.727 73.8846 157.806 74.0993 157.862C74.3139 157.909 74.5846 157.932 74.9113 157.932H76.1713V156.882C76.1713 156.191 76.0359 155.697 75.7653 155.398C75.4946 155.099 75.1213 154.95 74.6453 154.95C74.1973 154.95 73.8519 155.099 73.6093 155.398C73.3666 155.697 73.2453 156.098 73.2453 156.602ZM88.2748 156.868C88.2748 157.195 88.3868 157.456 88.6108 157.652C88.8348 157.839 89.1382 157.932 89.5208 157.932C89.9502 157.932 90.2768 157.834 90.5008 157.638C90.7342 157.442 90.8508 157.171 90.8508 156.826V154.894H91.7468V156.826C91.7468 157.237 91.8635 157.526 92.0968 157.694C92.3302 157.853 92.5915 157.932 92.8808 157.932C93.2542 157.932 93.5388 157.834 93.7348 157.638C93.9402 157.442 94.0428 157.171 94.0428 156.826V154.894H94.9528V156.826C94.9528 157.031 94.9855 157.204 95.0508 157.344C95.1255 157.484 95.2142 157.601 95.3168 157.694C95.4288 157.778 95.5548 157.839 95.6948 157.876C95.8348 157.913 95.9748 157.932 96.1148 157.932H96.3808C96.5862 157.932 96.6888 158.091 96.6888 158.408C96.6888 158.735 96.5862 158.898 96.3808 158.898H96.1148C95.7788 158.898 95.4662 158.837 95.1768 158.716C94.8875 158.585 94.6495 158.343 94.4628 157.988C94.2575 158.343 94.0102 158.585 93.7208 158.716C93.4408 158.837 93.1608 158.898 92.8808 158.898C92.5542 158.898 92.2462 158.837 91.9568 158.716C91.6768 158.585 91.4435 158.343 91.2568 157.988C91.0422 158.343 90.7808 158.585 90.4728 158.716C90.1741 158.837 89.8615 158.898 89.5348 158.898C89.2362 158.898 88.9795 158.851 88.7648 158.758C88.5502 158.655 88.3775 158.52 88.2468 158.352V158.674C88.2468 159.15 88.1675 159.607 88.0088 160.046C87.8502 160.485 87.6215 160.867 87.3228 161.194C87.0335 161.53 86.6788 161.796 86.2588 161.992C85.8388 162.188 85.3628 162.286 84.8308 162.286H84.0048C82.9595 162.286 82.1475 161.964 81.5688 161.32C80.9901 160.676 80.7008 159.794 80.7008 158.674V156.224H81.5968V158.646C81.5968 159.047 81.6435 159.411 81.7368 159.738C81.8395 160.065 81.9935 160.345 82.1988 160.578C82.4135 160.821 82.6795 161.007 82.9968 161.138C83.3141 161.269 83.6968 161.334 84.1448 161.334H84.7608C85.1995 161.334 85.5821 161.259 85.9088 161.11C86.2355 160.97 86.5062 160.779 86.7208 160.536C86.9448 160.293 87.1081 160.009 87.2108 159.682C87.3228 159.355 87.3788 159.015 87.3788 158.66V154.894H88.2748V156.868ZM91.8588 151.422H90.7388V150.442H91.8588V151.422ZM92.7408 153.102H91.6208V152.108H92.7408V153.102ZM90.9628 153.102H89.8428V152.108H90.9628V153.102ZM97.6394 157.932C98.0034 157.932 98.2927 157.834 98.5074 157.638C98.7314 157.442 98.8434 157.171 98.8434 156.826V154.894H99.7534V156.826C99.7534 157.489 99.5667 158.002 99.1934 158.366C98.8294 158.721 98.3301 158.898 97.6954 158.898H96.3794C96.2581 158.898 96.1787 158.861 96.1414 158.786C96.0947 158.711 96.0714 158.595 96.0714 158.436C96.0714 158.268 96.0947 158.142 96.1414 158.058C96.1787 157.974 96.2581 157.932 96.3794 157.932H97.6394ZM99.3754 161.516H98.3114V160.522H99.3754V161.516ZM97.5554 161.516H96.4774V160.522H97.5554V161.516ZM103.364 158.898C103.121 158.898 102.888 158.865 102.664 158.8C102.44 158.725 102.239 158.604 102.062 158.436C101.894 158.268 101.758 158.049 101.656 157.778C101.553 157.498 101.502 157.153 101.502 156.742V150.218H102.412V156.574C102.412 156.966 102.496 157.293 102.664 157.554C102.841 157.806 103.126 157.932 103.518 157.932H103.756C103.961 157.932 104.064 158.091 104.064 158.408C104.064 158.735 103.961 158.898 103.756 158.898H103.364ZM103.986 157.932C104.35 157.932 104.626 157.843 104.812 157.666C104.999 157.489 105.092 157.251 105.092 156.952V156.42C105.092 155.608 105.298 154.973 105.708 154.516C106.128 154.059 106.707 153.83 107.444 153.83C108.21 153.83 108.784 154.063 109.166 154.53C109.549 154.997 109.74 155.594 109.74 156.322V156.756C109.74 157.204 109.843 157.512 110.048 157.68C110.254 157.848 110.51 157.932 110.818 157.932H111.056C111.178 157.932 111.257 157.974 111.294 158.058C111.341 158.133 111.364 158.249 111.364 158.408C111.364 158.576 111.341 158.702 111.294 158.786C111.257 158.861 111.178 158.898 111.056 158.898H110.818C110.669 158.898 110.52 158.884 110.37 158.856C110.23 158.828 110.09 158.777 109.95 158.702C109.82 158.627 109.698 158.525 109.586 158.394C109.474 158.254 109.376 158.077 109.292 157.862C109.04 158.282 108.742 158.562 108.396 158.702C108.06 158.833 107.715 158.898 107.36 158.898C106.987 158.898 106.632 158.828 106.296 158.688C105.96 158.539 105.694 158.277 105.498 157.904C105.414 158.119 105.312 158.291 105.19 158.422C105.069 158.553 104.943 158.655 104.812 158.73C104.682 158.795 104.542 158.842 104.392 158.87C104.252 158.889 104.117 158.898 103.986 158.898H103.762C103.641 158.898 103.562 158.861 103.524 158.786C103.478 158.711 103.454 158.595 103.454 158.436C103.454 158.268 103.478 158.142 103.524 158.058C103.562 157.974 103.641 157.932 103.762 157.932H103.986ZM108.844 156.434C108.844 155.949 108.737 155.557 108.522 155.258C108.308 154.95 107.939 154.796 107.416 154.796C106.446 154.796 105.96 155.361 105.96 156.49C105.96 156.966 106.091 157.325 106.352 157.568C106.623 157.811 106.968 157.932 107.388 157.932C107.864 157.932 108.224 157.801 108.466 157.54C108.718 157.279 108.844 156.91 108.844 156.434ZM112.323 157.932C112.687 157.932 112.976 157.834 113.191 157.638C113.415 157.442 113.527 157.171 113.527 156.826V154.894H114.437V156.826C114.437 157.489 114.25 158.002 113.877 158.366C113.513 158.721 113.014 158.898 112.379 158.898H111.063C110.942 158.898 110.862 158.861 110.825 158.786C110.778 158.711 110.755 158.595 110.755 158.436C110.755 158.268 110.778 158.142 110.825 158.058C110.862 157.974 110.942 157.932 111.063 157.932H112.323ZM114.059 153.102H112.883V152.08H114.059V153.102ZM122.448 161.334C122.84 161.334 123.204 161.283 123.54 161.18C123.876 161.077 124.165 160.933 124.408 160.746C124.66 160.569 124.856 160.354 124.996 160.102C125.145 159.859 125.22 159.598 125.22 159.318C125.22 159.066 125.15 158.856 125.01 158.688C124.87 158.511 124.594 158.422 124.184 158.422H121.748V156C121.748 155.291 121.953 154.717 122.364 154.278C122.774 153.83 123.344 153.606 124.072 153.606H125.682L125.752 154.572H124.016C123.838 154.572 123.666 154.605 123.498 154.67C123.339 154.726 123.194 154.815 123.064 154.936C122.942 155.048 122.84 155.193 122.756 155.37C122.681 155.538 122.644 155.739 122.644 155.972V157.456H124.352C124.697 157.456 124.982 157.503 125.206 157.596C125.439 157.68 125.621 157.801 125.752 157.96C125.892 158.109 125.985 158.287 126.032 158.492C126.088 158.697 126.116 158.917 126.116 159.15C126.116 159.589 126.022 159.999 125.836 160.382C125.649 160.765 125.397 161.096 125.08 161.376C124.762 161.656 124.384 161.875 123.946 162.034C123.516 162.202 123.059 162.286 122.574 162.286H121.384C120.338 162.286 119.526 161.964 118.948 161.32C118.369 160.676 118.08 159.794 118.08 158.674V156.224H118.976V158.646C118.976 159.047 119.022 159.411 119.116 159.738C119.218 160.065 119.372 160.345 119.578 160.578C119.792 160.821 120.058 161.007 120.376 161.138C120.693 161.269 121.076 161.334 121.524 161.334H122.448ZM127.793 150.218H128.703V158.898H127.793V150.218ZM132.008 158.674C132.008 159.215 131.924 159.705 131.756 160.144C131.588 160.592 131.355 160.975 131.056 161.292C130.757 161.609 130.407 161.852 130.006 162.02C129.605 162.197 129.166 162.286 128.69 162.286H127.864L127.794 161.334H128.48C128.947 161.334 129.348 161.259 129.684 161.11C130.02 160.961 130.295 160.76 130.51 160.508C130.725 160.265 130.883 159.985 130.986 159.668C131.089 159.351 131.14 159.019 131.14 158.674V154.894H132.036V156.868C132.036 157.195 132.143 157.456 132.358 157.652C132.582 157.839 132.871 157.932 133.226 157.932H133.38C133.585 157.932 133.688 158.091 133.688 158.408C133.688 158.735 133.585 158.898 133.38 158.898H133.226C133.002 158.898 132.778 158.856 132.554 158.772C132.339 158.688 132.157 158.543 132.008 158.338V158.674ZM134.635 157.932C134.999 157.932 135.289 157.834 135.503 157.638C135.727 157.442 135.839 157.171 135.839 156.826V154.894H136.749V156.826C136.749 157.489 136.563 158.002 136.189 158.366C135.825 158.721 135.326 158.898 134.691 158.898H133.375C133.254 158.898 133.175 158.861 133.137 158.786C133.091 158.711 133.067 158.595 133.067 158.436C133.067 158.268 133.091 158.142 133.137 158.058C133.175 157.974 133.254 157.932 133.375 157.932H134.635ZM135.195 161.544H134.019V160.522H135.195V161.544ZM144.76 161.334C145.152 161.334 145.516 161.283 145.852 161.18C146.188 161.077 146.478 160.933 146.72 160.746C146.972 160.569 147.168 160.354 147.308 160.102C147.458 159.859 147.532 159.598 147.532 159.318C147.532 159.066 147.462 158.856 147.322 158.688C147.182 158.511 146.907 158.422 146.496 158.422H144.06V156C144.06 155.291 144.266 154.717 144.676 154.278C145.087 153.83 145.656 153.606 146.384 153.606H147.994L148.064 154.572H146.328C146.151 154.572 145.978 154.605 145.81 154.67C145.652 154.726 145.507 154.815 145.376 154.936C145.255 155.048 145.152 155.193 145.068 155.37C144.994 155.538 144.956 155.739 144.956 155.972V157.456H146.664C147.01 157.456 147.294 157.503 147.518 157.596C147.752 157.68 147.934 157.801 148.064 157.96C148.204 158.109 148.298 158.287 148.344 158.492C148.4 158.697 148.428 158.917 148.428 159.15C148.428 159.589 148.335 159.999 148.148 160.382C147.962 160.765 147.71 161.096 147.392 161.376C147.075 161.656 146.697 161.875 146.258 162.034C145.829 162.202 145.372 162.286 144.886 162.286H143.696C142.651 162.286 141.839 161.964 141.26 161.32C140.682 160.676 140.392 159.794 140.392 158.674V156.224H141.288V158.646C141.288 159.047 141.335 159.411 141.428 159.738C141.531 160.065 141.685 160.345 141.89 160.578C142.105 160.821 142.371 161.007 142.688 161.138C143.006 161.269 143.388 161.334 143.836 161.334H144.76ZM150.105 150.218H151.015V158.898H150.105V150.218ZM154.857 156.742C154.857 156.462 154.894 156.196 154.969 155.944C155.044 155.692 155.16 155.435 155.319 155.174C155.478 154.913 155.678 154.642 155.921 154.362C156.164 154.082 156.453 153.769 156.789 153.424L156.145 152.766L156.761 152.108C157.34 152.687 157.82 153.186 158.203 153.606C158.595 154.017 158.908 154.39 159.141 154.726C159.384 155.062 159.556 155.375 159.659 155.664C159.762 155.944 159.813 156.243 159.813 156.56C159.813 156.896 159.748 157.209 159.617 157.498C159.496 157.778 159.318 158.025 159.085 158.24C158.861 158.445 158.595 158.609 158.287 158.73C157.979 158.842 157.643 158.898 157.279 158.898C156.915 158.898 156.584 158.847 156.285 158.744C155.986 158.632 155.73 158.483 155.515 158.296C155.31 158.1 155.146 157.871 155.025 157.61C154.913 157.349 154.857 157.059 154.857 156.742ZM158.917 156.546C158.917 156.369 158.889 156.196 158.833 156.028C158.786 155.851 158.702 155.669 158.581 155.482C158.46 155.295 158.296 155.09 158.091 154.866C157.895 154.633 157.643 154.367 157.335 154.068C156.999 154.395 156.724 154.684 156.509 154.936C156.304 155.179 156.145 155.398 156.033 155.594C155.921 155.79 155.846 155.967 155.809 156.126C155.772 156.285 155.753 156.443 155.753 156.602C155.753 156.975 155.884 157.293 156.145 157.554C156.416 157.806 156.798 157.932 157.293 157.932C157.526 157.932 157.741 157.895 157.937 157.82C158.142 157.745 158.315 157.647 158.455 157.526C158.604 157.395 158.716 157.246 158.791 157.078C158.875 156.91 158.917 156.733 158.917 156.546ZM166.45 155.566C166.692 155.837 166.865 156.107 166.968 156.378C167.08 156.639 167.136 156.896 167.136 157.148C167.136 157.652 166.954 158.072 166.59 158.408C166.235 158.735 165.726 158.898 165.064 158.898H161.158L161.088 157.932H164.952C165.316 157.932 165.596 157.848 165.792 157.68C165.997 157.512 166.1 157.293 166.1 157.022C166.1 156.891 166.067 156.747 166.002 156.588C165.936 156.429 165.838 156.28 165.708 156.14L163.104 153.2L163.818 152.528L166.45 155.566ZM168.808 150.218H169.718V158.898H168.808V150.218ZM176.622 155.566C176.864 155.837 177.037 156.107 177.14 156.378C177.252 156.639 177.308 156.896 177.308 157.148C177.308 157.652 177.126 158.072 176.762 158.408C176.407 158.735 175.898 158.898 175.236 158.898H171.33L171.26 157.932H175.124C175.488 157.932 175.768 157.848 175.964 157.68C176.169 157.512 176.272 157.293 176.272 157.022C176.272 156.891 176.239 156.747 176.174 156.588C176.108 156.429 176.01 156.28 175.88 156.14L173.276 153.2L173.99 152.528L176.622 155.566ZM185.971 155.804C185.896 155.608 185.821 155.435 185.747 155.286C185.672 155.137 185.574 155.011 185.453 154.908C185.331 154.796 185.177 154.717 184.991 154.67C184.813 154.614 184.585 154.586 184.305 154.586H181.365L181.449 153.62H184.417C184.669 153.62 184.916 153.643 185.159 153.69C185.411 153.737 185.649 153.849 185.873 154.026C186.106 154.194 186.316 154.455 186.503 154.81C186.699 155.155 186.862 155.627 186.993 156.224L185.957 156.826C186.125 157.246 186.311 157.535 186.517 157.694C186.722 157.853 187.002 157.932 187.357 157.932H188.085C188.206 157.932 188.285 157.974 188.323 158.058C188.369 158.133 188.393 158.249 188.393 158.408C188.393 158.576 188.369 158.702 188.323 158.786C188.285 158.861 188.206 158.898 188.085 158.898H187.273C186.965 158.898 186.703 158.856 186.489 158.772C186.283 158.688 186.106 158.571 185.957 158.422C185.817 158.273 185.695 158.095 185.593 157.89C185.49 157.675 185.397 157.447 185.313 157.204L184.221 157.834C183.306 158.375 182.657 158.884 182.275 159.36C181.892 159.845 181.701 160.363 181.701 160.914C181.701 161.698 181.911 162.295 182.331 162.706C182.76 163.126 183.441 163.336 184.375 163.336H186.965L186.895 164.288H184.319C183.675 164.288 183.129 164.199 182.681 164.022C182.233 163.854 181.869 163.621 181.589 163.322C181.309 163.023 181.103 162.678 180.973 162.286C180.851 161.894 180.791 161.474 180.791 161.026C180.791 160.643 180.842 160.279 180.945 159.934C181.047 159.598 181.211 159.271 181.435 158.954C181.668 158.646 181.967 158.343 182.331 158.044C182.704 157.736 183.157 157.428 183.689 157.12L185.971 155.804ZM185.103 162.202H184.095V161.32H185.103V162.202ZM185.873 160.704H184.879V159.822H185.873V160.704ZM184.305 160.704H183.311V159.822H184.305V160.704ZM189.154 157.932C189.546 157.932 189.845 157.834 190.05 157.638C190.256 157.442 190.358 157.171 190.358 156.826V154.894H191.268V156.826C191.268 157.031 191.301 157.204 191.366 157.344C191.441 157.484 191.534 157.601 191.646 157.694C191.758 157.778 191.884 157.839 192.024 157.876C192.164 157.913 192.309 157.932 192.458 157.932H192.878C193.093 157.932 193.2 158.091 193.2 158.408C193.2 158.735 193.093 158.898 192.878 158.898H192.43C192.094 158.898 191.782 158.837 191.492 158.716C191.203 158.585 190.965 158.343 190.778 157.988C190.564 158.343 190.316 158.585 190.036 158.716C189.766 158.837 189.472 158.898 189.154 158.898H188.09C187.969 158.898 187.89 158.861 187.852 158.786C187.806 158.711 187.782 158.595 187.782 158.436C187.782 158.268 187.806 158.142 187.852 158.058C187.89 157.974 187.969 157.932 188.09 157.932H189.154ZM191.87 161.516H190.806V160.522H191.87V161.516ZM190.05 161.516H188.972V160.522H190.05V161.516ZM196.487 154.418C196.021 154.418 195.647 154.567 195.367 154.866C195.097 155.165 194.961 155.529 194.961 155.958C194.961 156.201 195.013 156.415 195.115 156.602C195.218 156.789 195.349 156.957 195.507 157.106C195.666 157.255 195.839 157.386 196.025 157.498C196.221 157.61 196.413 157.708 196.599 157.792C196.739 157.708 196.893 157.615 197.061 157.512C197.229 157.4 197.383 157.269 197.523 157.12C197.663 156.971 197.78 156.803 197.873 156.616C197.967 156.429 198.013 156.224 198.013 156C198.013 155.524 197.878 155.141 197.607 154.852C197.337 154.563 196.963 154.418 196.487 154.418ZM192.875 158.898C192.754 158.898 192.675 158.861 192.637 158.786C192.591 158.711 192.567 158.595 192.567 158.436C192.567 158.268 192.591 158.142 192.637 158.058C192.675 157.974 192.754 157.932 192.875 157.932H195.563C195.125 157.689 194.77 157.395 194.499 157.05C194.238 156.705 194.107 156.299 194.107 155.832C194.107 155.524 194.163 155.23 194.275 154.95C194.387 154.661 194.551 154.409 194.765 154.194C194.98 153.979 195.237 153.807 195.535 153.676C195.843 153.545 196.193 153.48 196.585 153.48C196.968 153.48 197.299 153.545 197.579 153.676C197.869 153.807 198.107 153.984 198.293 154.208C198.489 154.423 198.634 154.665 198.727 154.936C198.821 155.207 198.867 155.482 198.867 155.762C198.867 156.621 198.429 157.344 197.551 157.932H200.029C200.393 157.932 200.673 157.848 200.869 157.68C201.075 157.512 201.177 157.293 201.177 157.022C201.177 156.891 201.145 156.751 201.079 156.602C201.023 156.443 200.921 156.28 200.771 156.112L198.237 153.172L198.909 152.542L201.485 155.538C201.728 155.837 201.901 156.117 202.003 156.378C202.106 156.639 202.157 156.896 202.157 157.148C202.157 157.652 201.975 158.072 201.611 158.408C201.257 158.735 200.753 158.898 200.099 158.898H198.559C198.13 158.898 197.747 158.889 197.411 158.87C197.085 158.842 196.823 158.781 196.627 158.688C196.497 158.744 196.333 158.786 196.137 158.814C195.951 158.842 195.755 158.865 195.549 158.884C195.353 158.893 195.157 158.898 194.961 158.898C194.775 158.898 194.616 158.898 194.485 158.898H192.875Z" fill="#707070"/>
<defs>
<filter id="filter0_d_1128_3431" x="61.8735" y="45.6008" width="140.379" height="42.024" filterUnits="userSpaceOnUse" color-interpolation-filters="sRGB">
<feFlood flood-opacity="0" result="BackgroundImageFix"/>
<feColorMatrix in="SourceAlpha" type="matrix" values="0 0 0 0 0 0 0 0 0 0 0 0 0 0 0 0 0 0 127 0" result="hardAlpha"/>
<feOffset dy="2.6824"/>
<feGaussianBlur stdDeviation="2.6824"/>
<feColorMatrix type="matrix" values="0 0 0 0 0 0 0 0 0 0 0 0 0 0 0 0 0 0 0.161 0"/>
<feBlend mode="normal" in2="BackgroundImageFix" result="effect1_dropShadow_1128_3431"/>
<feBlend mode="normal" in="SourceGraphic" in2="effect1_dropShadow_1128_3431" result="shape"/>
</filter>
<filter id="filter1_d_1128_3431" x="23.4279" y="84.0481" width="140.379" height="42.024" filterUnits="userSpaceOnUse" color-interpolation-filters="sRGB">
<feFlood flood-opacity="0" result="BackgroundImageFix"/>
<feColorMatrix in="SourceAlpha" type="matrix" values="0 0 0 0 0 0 0 0 0 0 0 0 0 0 0 0 0 0 127 0" result="hardAlpha"/>
<feOffset dy="2.6824"/>
<feGaussianBlur stdDeviation="2.6824"/>
<feColorMatrix type="matrix" values="0 0 0 0 0 0 0 0 0 0 0 0 0 0 0 0 0 0 0.161 0"/>
<feBlend mode="normal" in2="BackgroundImageFix" result="effect1_dropShadow_1128_3431"/>
<feBlend mode="normal" in="SourceGraphic" in2="effect1_dropShadow_1128_3431" result="shape"/>
</filter>
<filter id="filter2_d_1128_3431" x="23.4279" y="7.15305" width="140.379" height="42.024" filterUnits="userSpaceOnUse" color-interpolation-filters="sRGB">
<feFlood flood-opacity="0" result="BackgroundImageFix"/>
<feColorMatrix in="SourceAlpha" type="matrix" values="0 0 0 0 0 0 0 0 0 0 0 0 0 0 0 0 0 0 127 0" result="hardAlpha"/>
<feOffset dy="2.6824"/>
<feGaussianBlur stdDeviation="2.6824"/>
<feColorMatrix type="matrix" values="0 0 0 0 0 0 0 0 0 0 0 0 0 0 0 0 0 0 0.161 0"/>
<feBlend mode="normal" in2="BackgroundImageFix" result="effect1_dropShadow_1128_3431"/>
<feBlend mode="normal" in="SourceGraphic" in2="effect1_dropShadow_1128_3431" result="shape"/>
</filter>
</defs>
</svg>
