<svg width="312" height="193" viewBox="0 0 312 193" fill="none" xmlns="http://www.w3.org/2000/svg">
<rect width="312" height="193" rx="10" fill="#00A48F"/>
<g opacity="0.5">
<mask id="mask0_587_11699" style="mask-type:alpha" maskUnits="userSpaceOnUse" x="0" y="0" width="312" height="193">
<rect width="312" height="193" rx="10" fill="#00A48F"/>
</mask>
<g mask="url(#mask0_587_11699)">
<g opacity="0.2">
<path d="M432.861 -163.224C430.673 -163.082 429.015 -161.197 429.156 -159.01C429.209 -158.195 429.502 -157.455 429.964 -156.853L388.269 -118.352C388.162 -118.355 388.055 -118.354 387.943 -118.347C387.398 -118.311 386.885 -118.167 386.426 -117.938L335.645 -199.73C336.67 -200.508 337.299 -201.767 337.211 -203.147C337.07 -205.334 335.185 -206.991 332.996 -206.853C330.807 -206.711 329.149 -204.826 329.287 -202.637C329.344 -201.773 329.674 -200.993 330.187 -200.373L282.797 -153.318C282.042 -153.95 281.055 -154.304 279.998 -154.235C278.579 -154.142 277.385 -153.313 276.757 -152.147L232.938 -170.622C233.08 -171.08 233.152 -171.567 233.12 -172.075C232.978 -174.263 231.094 -175.92 228.905 -175.778C226.717 -175.636 225.059 -173.751 225.197 -171.562C225.283 -170.236 226.014 -169.105 227.062 -168.452L203.446 -121.314C202.924 -121.516 202.348 -121.618 201.752 -121.581C199.79 -121.454 198.256 -119.92 198.062 -118.029L144.169 -120.882C144.003 -123.044 142.131 -124.679 139.958 -124.539C137.77 -124.397 136.112 -122.512 136.253 -120.325C136.276 -119.944 136.359 -119.579 136.482 -119.235L100.322 -101.073C99.5742 -102.272 98.207 -103.03 96.6995 -102.932C96.3066 -102.908 95.9341 -102.825 95.5845 -102.697L69.0954 -158.185C70.3336 -158.925 71.1243 -160.309 71.026 -161.848C70.8847 -164.035 69 -165.692 66.8119 -165.55C64.6237 -165.408 62.9657 -163.524 63.107 -161.336C63.1182 -161.175 63.1382 -161.021 63.1663 -160.867L-24.113 -136.099C-24.7192 -137.672 -26.2979 -138.741 -28.0716 -138.628C-30.2564 -138.488 -31.9178 -136.602 -31.7765 -134.414C-31.6352 -132.227 -29.7505 -130.57 -27.5623 -130.712C-26.9393 -130.752 -26.3612 -130.939 -25.8527 -131.228L50.3477 -22.5368C49.5254 -21.7552 49.043 -20.6284 49.1215 -19.4057C49.2628 -17.2182 51.1475 -15.5613 53.3371 -15.6998C55.5252 -15.8417 57.1832 -17.7263 57.042 -19.9138C57.0267 -20.1325 56.9912 -20.3428 56.9455 -20.5489L100.426 -37.6017C101.102 -36.1757 102.596 -35.2339 104.265 -35.3428C104.808 -35.3774 105.317 -35.5207 105.775 -35.7494L166.695 56.3169C165.724 57.1009 165.131 58.3244 165.218 59.6622C165.359 61.8497 167.244 63.5066 169.432 63.3647C171.62 63.2228 173.278 61.3382 173.14 59.1493C173.106 58.6463 172.979 58.1742 172.782 57.7462L216.998 32.168C217.769 33.2507 219.062 33.9245 220.486 33.8339L220.124 33.8847L237.831 162.506C235.972 162.938 234.645 164.658 234.772 166.622C234.839 167.633 235.279 168.529 235.952 169.191L201.56 211.216C200.858 210.74 199.999 210.487 199.087 210.544C196.899 210.686 195.241 212.57 195.382 214.758C195.523 216.945 197.408 218.602 199.596 218.46C200.45 218.404 201.221 218.082 201.836 217.583L259.102 276.267C258.455 277.023 258.093 278.021 258.16 279.091C258.301 281.279 260.186 282.936 262.374 282.794C263.285 282.733 264.098 282.37 264.736 281.81L301.221 316.297C300.639 317.039 300.315 317.985 300.381 318.996C300.522 321.184 302.407 322.841 304.597 322.702C304.827 322.686 305.052 322.648 305.268 322.598L336.629 409.13C335.241 409.822 334.329 411.296 334.431 412.939C334.512 414.177 335.151 415.247 336.091 415.916L305.314 471.1C304.731 470.828 304.073 470.697 303.388 470.739C301.199 470.881 299.541 472.766 299.683 474.953C299.824 477.14 301.709 478.797 303.898 478.659C303.913 478.657 303.928 478.655 303.948 478.654L323.367 550.336C321.95 551.016 321.016 552.502 321.123 554.167C321.265 556.355 323.149 558.012 325.339 557.873C327.039 557.763 328.414 556.599 328.879 555.057L385.246 560.059C385.245 560.114 385.245 560.17 385.249 560.227C385.39 562.415 387.275 564.072 389.464 563.933C391.652 563.791 393.31 561.907 393.169 559.719C393.136 559.2 393.003 558.714 392.793 558.272L439.332 533.586C440.09 534.741 441.428 535.467 442.904 535.371C445.092 535.229 446.75 533.344 446.613 531.155C446.501 529.441 445.317 528.056 443.755 527.603L461.045 437.387C461.254 437.407 461.467 437.414 461.682 437.4C463.87 437.258 465.528 435.374 465.39 433.185C465.249 430.997 463.364 429.34 461.175 429.479C460.825 429.501 460.491 429.572 460.172 429.68L439.592 382.993C440.889 382.271 441.728 380.851 441.625 379.272C441.483 377.084 439.599 375.427 437.409 375.566C436.441 375.63 435.577 376.034 434.928 376.653L392.685 339.821C393.205 339.101 393.489 338.202 393.426 337.245C393.36 336.207 392.896 335.293 392.199 334.63L474.349 230.684C475.04 231.133 475.875 231.376 476.764 231.321C478.952 231.179 480.611 229.294 480.469 227.107C480.328 224.919 478.443 223.262 476.254 223.401C475.616 223.443 475.028 223.635 474.512 223.935L381.423 93.6534C383.401 93.3181 384.844 91.5341 384.714 89.4881C384.572 87.3007 382.688 85.6437 380.498 85.7822C380.298 85.794 380.105 85.826 379.914 85.8695L362.201 29.7254C363.714 29.0884 364.736 27.5457 364.625 25.8152C364.569 24.9425 364.233 24.1577 363.712 23.5362L416.354 -29.1682L416.673 -28.2145L416.859 -29.6766L417.175 -29.9925L416.91 -30.0884L432.982 -155.293C433.114 -155.288 433.243 -155.29 433.375 -155.297C435.563 -155.439 437.221 -157.324 437.08 -159.511C436.938 -161.699 435.054 -163.356 432.864 -163.217L432.861 -163.224ZM472.532 227.46L407.444 235.209C407.041 233.315 405.306 231.952 403.313 232.08L397.103 192.909L472.733 226.102C472.59 226.528 472.522 226.986 472.536 227.458L472.532 227.46ZM324.819 549.949C324.554 549.968 324.295 550.011 324.045 550.075L315.323 517.882L304.662 478.529C305.036 478.43 305.387 478.277 305.708 478.078L358.538 530.534L328.237 551.514C327.458 550.489 326.2 549.86 324.819 549.949ZM265.791 277.337C265.426 276.445 264.749 275.723 263.901 275.295L277.62 240.399L327.988 256.813C327.904 257.175 327.872 257.556 327.895 257.945C327.907 258.129 327.934 258.308 327.972 258.486L265.789 277.342L265.791 277.337ZM242.69 166.108C242.652 165.508 242.478 164.952 242.207 164.46L291.886 130.958L250.019 168.528L242.663 166.873C242.694 166.623 242.707 166.369 242.69 166.108ZM170.728 55.7564L195.832 -22.6999L239.289 -15.0155C239.274 -14.8236 239.266 -14.6311 239.282 -14.4321C239.337 -13.5628 239.672 -12.7779 240.19 -12.155L171.71 56.3538C171.415 56.1084 171.087 55.9082 170.728 55.7564ZM53.7779 -23.5627L58.5433 -71.6866L100.561 -41.2612C100.19 -40.6106 99.9995 -39.849 100.05 -39.0487C100.067 -38.7874 100.111 -38.5372 100.172 -38.294L56.7148 -21.2509C56.1899 -22.4551 55.0884 -23.3342 53.7765 -23.566L53.7779 -23.5627ZM58.6255 -72.5296L67.0454 -157.622C67.1369 -157.621 67.2318 -157.62 67.3239 -157.627C67.5047 -157.638 67.682 -157.668 67.8544 -157.7L102.38 -42.9199C101.834 -42.6746 101.356 -42.3115 100.98 -41.8641L58.6241 -72.533L58.6255 -72.5296ZM-23.8527 -134.924C-23.8639 -135.085 -23.8853 -135.242 -23.9121 -135.393L63.3714 -160.151C63.8591 -158.884 64.9795 -157.949 66.3222 -157.691L57.9416 -73.0287L-24.4017 -132.649C-24.0085 -133.312 -23.8029 -134.096 -23.8561 -134.922L-23.8527 -134.924ZM360.035 22.1495C359.249 22.2728 358.546 22.6263 357.989 23.1326L315.792 -15.48L352.859 -53.0841C353.52 -52.5441 354.352 -52.2127 355.258 -52.1884L360.039 22.1481L360.035 22.1495ZM457.456 433.687C457.519 434.671 457.94 435.547 458.578 436.203L409.236 494.215C408.952 494.013 408.639 493.85 408.306 493.731L432.169 402.039L458.481 430.769C457.784 431.538 457.386 432.571 457.457 433.69L457.456 433.687ZM419.702 392.687L407.083 493.494C406.955 493.491 406.829 493.492 406.701 493.497C405.978 493.544 405.319 493.784 404.755 494.159L357.496 435.802L417.597 391.452C418.147 392.066 418.877 392.506 419.702 392.687ZM408.021 491.922L420.432 392.78C420.559 392.783 420.685 392.782 420.813 392.777C421.62 392.723 422.357 392.431 422.955 391.979L431.583 401.397L408.022 491.926L408.021 491.922ZM416.598 389.071C416.608 389.24 416.632 389.404 416.663 389.565L342.077 411.21C341.817 410.564 341.393 410.005 340.863 409.58L373.804 361.156L416.986 387.095C416.699 387.691 416.554 388.362 416.601 389.069L416.598 389.071ZM307.809 320.661C307.892 320.508 307.969 320.35 308.031 320.186L385.516 337.015C385.485 337.256 385.476 337.501 385.492 337.751C385.567 338.888 386.115 339.881 386.929 340.552L373.586 360.169L307.811 320.656L307.809 320.661ZM385.671 336.299L308.233 319.479C308.294 319.158 308.319 318.828 308.297 318.486C308.255 317.821 308.047 317.204 307.721 316.671L349.037 282.12L386.843 334.509C386.299 334.982 385.892 335.6 385.667 336.301L385.671 336.299ZM334.465 260.671C335.365 259.885 335.903 258.711 335.819 257.428C335.806 257.243 335.781 257.068 335.745 256.894L399.894 237.53C400.005 237.8 400.142 238.055 400.307 238.291L349.176 281.052L334.469 260.669L334.465 260.671ZM223.331 27.3938L252.147 3.14324L266.236 28.7388C265.329 29.3541 264.694 30.3308 264.533 31.4512L224.169 29.3762C224.073 28.6266 223.777 27.9477 223.331 27.3938ZM205.977 -117.871C205.958 -118.156 205.909 -118.427 205.836 -118.689L243.948 -134.658L253.69 -110.811C252.731 -110.313 252.011 -109.435 251.713 -108.389L205.948 -117.062C205.985 -117.326 205.996 -117.595 205.977 -117.871ZM230.999 -168.298C231.707 -168.67 232.287 -169.244 232.661 -169.944L276.481 -151.468C276.337 -151.014 276.267 -150.523 276.302 -150.017C276.321 -149.693 276.387 -149.381 276.479 -149.083L244.348 -135.62L230.999 -168.298ZM276.76 -148.41C277.055 -147.86 277.47 -147.389 277.973 -147.032L257.177 -110.906C256.597 -111.172 255.947 -111.302 255.267 -111.257C254.954 -111.239 254.656 -111.179 254.368 -111.091L244.624 -134.945L276.76 -148.41ZM356.694 25.9528L272.379 31.3958C272.265 30.6613 271.948 29.9989 271.493 29.4607L315.282 -14.9654L357.499 23.6666C357.011 24.3103 356.716 25.0989 356.692 25.9495L356.694 25.9528ZM331.608 253.724C331.296 253.742 330.994 253.804 330.706 253.891L302.119 184.077C302.463 183.963 302.784 183.803 303.076 183.603L344.948 205.623L332.5 253.77C332.212 253.723 331.916 253.703 331.613 253.726L331.608 253.724ZM399.613 236.296C399.624 236.477 399.651 236.655 399.687 236.83L386.342 240.857L335.537 256.19C335.112 255.142 334.259 254.33 333.205 253.948L345.612 205.968L399.908 234.524C399.682 235.067 399.57 235.666 399.612 236.292L399.613 236.296ZM345.136 204.894L303.684 183.096C304.043 182.731 304.326 182.298 304.524 181.821L343.025 175.572L349.878 174.458C350.201 175.718 351.121 176.723 352.303 177.175L345.136 204.894ZM349.761 173.725C349.761 173.725 349.762 173.729 349.763 173.732L304.752 181.036C304.808 180.721 304.836 180.398 304.813 180.064C304.776 179.515 304.633 178.998 304.4 178.537L326.897 152.535L350.38 171.334C349.941 172.021 349.705 172.844 349.759 173.722L349.761 173.725ZM299.52 129.68C299.904 129.024 300.101 128.248 300.049 127.433C300.028 127.114 299.968 126.807 299.875 126.514L299.918 126.496L377.299 91.6897C377.461 91.9779 377.66 92.2473 377.888 92.4846L326.807 151.522L299.518 129.677L299.52 129.68ZM246.906 -16.2309C246.411 -17.4001 245.38 -18.2727 244.133 -18.5554L247.948 -47.3253L291.64 -34.5987C291.577 -34.2728 291.55 -33.9377 291.57 -33.5911C291.578 -33.4875 291.592 -33.3867 291.607 -33.2826L246.906 -16.2309ZM270.301 28.5046L294.368 -30.0576C294.815 -29.9224 295.292 -29.8586 295.785 -29.8886C296.635 -29.9436 297.402 -30.2646 298.019 -30.76L314.743 -15.4573L270.974 28.9489C270.765 28.7785 270.542 28.6299 270.301 28.5046ZM351.415 -55.9019C351.431 -55.6324 351.476 -55.3707 351.543 -55.1221L332.138 -47.8975L299.094 -35.5968C298.995 -35.7969 298.879 -35.9819 298.753 -36.1627L333.952 -66.7199L351.695 -57.632C351.481 -57.0977 351.375 -56.5132 351.415 -55.9019ZM298.273 -36.7142C297.497 -37.4555 296.431 -37.8838 295.277 -37.8098C294.812 -37.7795 294.373 -37.6655 293.967 -37.4935L257.739 -104.009C258.196 -104.317 258.582 -104.713 258.875 -105.177L333.253 -67.0826L298.275 -36.719L298.273 -36.7142ZM255.784 -103.34C256.249 -103.371 256.688 -103.485 257.095 -103.657L293.323 -37.1407C292.659 -36.6929 292.141 -36.0529 291.845 -35.307L248.046 -48.0642L255.373 -103.332C255.508 -103.329 255.646 -103.331 255.786 -103.337L255.784 -103.34ZM293.509 -30.4368L269.615 28.2196C269.173 28.0864 268.699 28.0213 268.211 28.0532C267.738 28.083 267.292 28.1998 266.884 28.3765L252.726 2.65163L292.75 -31.0312C292.978 -30.8054 293.235 -30.6037 293.511 -30.4415L293.509 -30.4368ZM295.833 123.727C295.776 123.731 295.716 123.74 295.66 123.747L280.03 70.2676L269.926 35.7048C270.709 35.3931 271.366 34.8416 271.809 34.1455L334.685 66.4677L298.128 124.283C297.461 123.884 296.672 123.673 295.833 123.727ZM298.549 -31.2748C299.196 -32.0315 299.564 -33.0322 299.496 -34.1054C299.48 -34.3748 299.435 -34.6365 299.366 -34.8885L351.803 -54.436C351.948 -54.1328 352.132 -53.8577 352.343 -53.6054L315.261 -15.9828L298.549 -31.2748ZM357 -59.7793C356.428 -60.0364 355.791 -60.1641 355.121 -60.1206C353.806 -60.0353 352.689 -59.3174 352.029 -58.2869L334.551 -67.2395L385.515 -111.483C385.662 -111.346 385.82 -111.222 385.985 -111.109L368.16 -79.5405L357 -59.7793ZM384.296 -113.735C384.401 -113.099 384.662 -112.516 385.027 -112.024L333.847 -67.5961L259.208 -105.824C259.374 -106.236 259.476 -106.677 259.494 -107.142L384.293 -113.733L384.296 -113.735ZM254.647 -103.435L247.334 -48.2757L211.15 -58.818C211.213 -59.1439 211.241 -59.479 211.22 -59.8256C211.164 -60.6868 210.835 -61.4663 210.326 -62.0852L252.981 -104.267C253.458 -103.868 254.028 -103.578 254.651 -103.437L254.647 -103.435ZM210.944 -58.1131L247.235 -47.5401L243.408 -18.6583C243.272 -18.6615 243.135 -18.6599 242.995 -18.6536C242.28 -18.6069 241.623 -18.3712 241.065 -18.0024L210.009 -56.7163C210.412 -57.1078 210.729 -57.5822 210.941 -58.1117L210.944 -58.1131ZM247.214 -14.9491C247.202 -15.1496 247.169 -15.345 247.127 -15.5328L291.78 -32.5684C291.901 -32.2161 292.069 -31.8867 292.275 -31.5888L252.362 2.00056L245.103 -11.1881C246.442 -11.895 247.314 -13.3405 247.211 -14.9477L247.214 -14.9491ZM299.093 130.271L326.327 152.072L303.992 177.885C303.25 176.928 302.079 176.33 300.793 176.352L297.108 131.517C297.898 131.309 298.583 130.864 299.096 130.27L299.093 130.271ZM400.255 233.872L345.804 205.238L353.009 177.365C353.321 177.422 353.643 177.446 353.977 177.423C354.666 177.379 355.298 177.161 355.843 176.818L400.828 233.177C400.61 233.385 400.42 233.622 400.256 233.875L400.255 233.872ZM353.47 169.502C352.424 169.57 351.5 170.039 350.833 170.748L327.38 151.973L378.443 92.958C378.673 93.1235 378.923 93.2609 379.187 93.3731L354.515 169.575C354.178 169.505 353.826 169.477 353.47 169.502ZM376.789 89.9861C376.812 90.3476 376.887 90.6917 376.998 91.017L299.593 125.833C299.37 125.408 299.072 125.03 298.717 124.715L335.337 66.8025L377.073 88.2546C376.859 88.7888 376.75 89.3747 376.79 89.9895L376.789 89.9861ZM272.141 33.4873C272.313 33.0612 272.415 32.6007 272.429 32.1175L356.743 26.6745C356.904 27.7052 357.46 28.5926 358.243 29.1969L335.073 65.8379L272.141 33.4873ZM384.249 -114.643L384.055 -114.464L259.452 -107.883C259.323 -108.769 258.905 -109.551 258.303 -110.139L288.425 -147.185L384.342 -115.297C384.293 -115.083 384.264 -114.866 384.249 -114.643ZM258.115 -111.072L278.61 -146.675C279.19 -146.41 279.84 -146.279 280.52 -146.324C282.051 -146.423 283.319 -147.377 283.899 -148.69L287.684 -147.431L258.119 -111.073L258.115 -111.072ZM229.425 -167.865C229.737 -167.884 230.036 -167.944 230.324 -168.031L243.676 -135.347L205.577 -119.384C205.247 -120.049 204.738 -120.604 204.115 -120.994L227.731 -168.133C228.254 -167.927 228.828 -167.828 229.428 -167.867L229.425 -167.865ZM205.779 -116.361L245.372 -108.856L203.019 -113.788C204.325 -114.126 205.356 -115.109 205.776 -116.359L205.779 -116.361ZM251.561 -107.398C251.558 -107.283 251.558 -107.168 251.567 -107.05C251.623 -106.188 251.953 -105.409 252.461 -104.79L209.806 -62.6085C209.05 -63.2436 208.062 -63.601 207.001 -63.5301C206.066 -63.4714 205.228 -63.09 204.585 -62.5048L143.47 -118.301C143.804 -118.774 144.033 -119.318 144.133 -119.908L251.558 -107.397L251.561 -107.398ZM138.924 -116.822C139.407 -116.654 139.932 -116.579 140.475 -116.614C141.459 -116.677 142.332 -117.097 142.989 -117.735L204.087 -61.9518C203.919 -61.7283 203.772 -61.4902 203.653 -61.2355L126.402 -88.837L138.928 -116.82L138.924 -116.822ZM203.405 -60.545C203.303 -60.1516 203.258 -59.7344 203.289 -59.3052C203.293 -59.2558 203.3 -59.2111 203.305 -59.1617L107.797 -40.4837C107.477 -41.516 106.746 -42.3588 105.81 -42.8367L126.098 -88.1669L203.405 -60.545ZM105.129 -43.1081C104.698 -43.234 104.235 -43.2952 103.758 -43.2641L97.7785 -95.0892C99.0247 -95.3513 100.042 -96.186 100.561 -97.2921L125.408 -88.4145L105.129 -43.1081ZM97.0509 -95.0058L103.006 -43.3918L68.7941 -157.117L94.9245 -102.373C93.6863 -101.633 92.8957 -100.248 92.9974 -98.7115C93.1346 -96.5816 94.9315 -94.9555 97.0475 -95.0044L97.0509 -95.0058ZM107.973 -39.5582C107.969 -39.6273 107.956 -39.6969 107.951 -39.7659L203.444 -58.4417C203.781 -57.2904 204.62 -56.3696 205.698 -55.9109L195.335 -23.529L107.964 -38.9781C107.98 -39.17 107.987 -39.3625 107.973 -39.5582ZM206.395 -55.6857C206.751 -55.6077 207.123 -55.576 207.504 -55.5993C208.22 -55.646 208.876 -55.8817 209.435 -56.2505L240.491 -17.5366C239.986 -17.0478 239.614 -16.4284 239.423 -15.7338L196.067 -23.4011L206.398 -55.6871L206.395 -55.6857ZM241.662 -11.0497C242.221 -10.8033 242.848 -10.6829 243.5 -10.7276C243.819 -10.7488 244.126 -10.8085 244.416 -10.9005L251.785 2.48743L222.819 26.863C222.636 26.7058 222.439 26.5624 222.23 26.4394L241.664 -11.0544L241.662 -11.0497ZM224.193 30.1124L264.496 32.1847C264.497 32.2158 264.493 32.245 264.499 32.2781C264.64 34.4656 266.525 36.1226 268.714 35.984C268.884 35.9733 269.051 35.9477 269.215 35.9154L294.934 123.901C294.674 123.981 294.425 124.084 294.192 124.208L223.083 32.6352C223.728 31.9701 224.141 31.0853 224.196 30.111L224.193 30.1124ZM293.386 130.603C294.157 131.315 295.204 131.727 296.335 131.655C296.347 131.654 296.362 131.652 296.373 131.651L300.056 176.443C298.635 176.73 297.508 177.768 297.072 179.105L250.9 168.728L293.384 130.608L293.386 130.603ZM296.913 179.818C296.882 180.067 296.868 180.322 296.885 180.583C296.9 180.81 296.938 181.027 296.987 181.24L202.964 212.894C202.844 212.623 202.696 212.369 202.524 212.136L250.231 169.328L296.909 179.819L296.913 179.818ZM203.301 214.246C203.286 214.02 203.248 213.802 203.2 213.59L297.223 181.936C297.597 182.776 298.25 183.457 299.063 183.867L277.196 239.488L203.211 215.377C203.295 215.015 203.327 214.634 203.301 214.246ZM299.742 184.135C300.172 184.258 300.627 184.319 301.101 184.289C301.201 184.283 301.297 184.267 301.394 184.254L330.026 254.176C329.217 254.597 328.581 255.286 328.219 256.122L277.893 239.721L299.744 184.139L299.742 184.135ZM330.575 261.444C331.054 261.61 331.574 261.683 332.113 261.65C332.756 261.609 333.353 261.41 333.871 261.106L348.608 281.531L307.28 316.092C307.024 315.807 306.725 315.559 306.394 315.36L330.572 261.446L330.575 261.444ZM307.393 321.271L373.172 360.782L340.248 409.183C339.621 408.85 338.897 408.675 338.136 408.725C337.852 408.744 337.576 408.794 337.311 408.868L305.961 322.363C306.524 322.111 307.013 321.736 307.397 321.269L307.393 321.271ZM342.348 412.432C342.336 412.26 342.313 412.088 342.279 411.92L416.861 390.272C416.944 390.483 417.046 390.681 417.16 390.871L357.035 435.239L341.107 415.574C341.937 414.793 342.425 413.66 342.347 412.429L342.348 412.432ZM404.186 494.627C403.722 495.079 403.368 495.648 403.17 496.278L307.454 475.766C307.572 475.346 307.626 474.901 307.595 474.444C307.561 473.902 307.417 473.393 307.189 472.935L356.906 436.247L404.188 494.63L404.186 494.627ZM306.299 477.636C306.663 477.304 306.965 476.907 307.188 476.46L403.016 496.993C402.987 497.23 402.976 497.471 402.991 497.718C403.032 498.332 403.213 498.905 403.496 499.408L359.149 530.112L306.298 477.633L306.299 477.636ZM403.918 500.011C404.339 500.512 404.884 500.906 405.498 501.15L389.508 556.017C389.321 556.004 389.133 555.999 388.944 556.01C387.945 556.075 387.053 556.506 386.396 557.164L359.679 530.639L403.915 500.012L403.918 500.011ZM390.485 556.214C390.407 556.187 390.322 556.163 390.239 556.142L406.203 501.356C406.529 501.419 406.865 501.446 407.21 501.422C408.117 501.363 408.929 501.004 409.565 500.45L417.936 508.415L390.483 556.218L390.485 556.214ZM410.071 499.917C410.657 499.174 410.984 498.226 410.918 497.207C410.855 496.222 410.434 495.346 409.796 494.69L459.119 436.702L418.316 507.757L410.071 499.917ZM459.023 430.273L432.392 401.194L437.014 383.434C437.305 383.479 437.601 383.499 437.909 383.478C438.259 383.456 438.593 383.385 438.912 383.277L459.495 429.963C459.332 430.055 459.175 430.155 459.025 430.268L459.023 430.273ZM436.304 383.253L431.803 400.552L423.497 391.483C424.194 390.713 424.593 389.68 424.521 388.561C424.491 388.096 424.377 387.658 424.205 387.251L434.363 381.73C434.833 382.428 435.513 382.964 436.307 383.252L436.304 383.253ZM417.36 386.471L374.214 360.553L387.536 340.968C388.176 341.323 388.924 341.508 389.708 341.457C390.239 341.423 390.738 341.284 391.188 341.062L418.2 385.626C417.88 385.865 417.598 386.147 417.362 386.466L417.36 386.471ZM389.199 333.54C388.556 333.58 387.958 333.776 387.438 334.086L349.604 281.657L400.776 238.863C401.29 239.373 401.941 239.743 402.662 239.911L389.634 333.542C389.489 333.535 389.343 333.536 389.197 333.545L389.199 333.54ZM402.589 232.201C402.157 232.312 401.753 232.491 401.394 232.73L356.417 176.38C356.722 176.096 356.98 175.764 357.183 175.396L396.305 192.564L402.589 232.201ZM357.479 174.725C357.636 174.254 357.71 173.746 357.673 173.216C357.574 171.647 356.569 170.353 355.204 169.8L379.87 93.612C380.113 93.6655 380.364 93.6999 380.624 93.7071L396.162 191.703L357.474 174.723L357.479 174.725ZM377.399 87.6106L335.722 66.1856L358.855 29.5992C359.471 29.9134 360.173 30.0735 360.911 30.0252C361.111 30.0135 361.303 29.9815 361.495 29.938L379.208 86.082C378.457 86.3961 377.831 86.935 377.401 87.6059L377.399 87.6106ZM360.767 22.1039L356.023 -51.6557L374.215 -44.9794L361.055 22.123C360.961 22.1146 360.865 22.1028 360.767 22.1039ZM356.36 -52.3119C358.169 -52.7788 359.455 -54.4743 359.328 -56.4072C359.247 -57.6644 358.589 -58.7424 357.629 -59.4118L386.62 -110.748C386.769 -110.683 386.922 -110.628 387.083 -110.583L374.36 -45.7101L356.362 -52.3167L356.36 -52.3119ZM385.806 -117.547C385.268 -117.14 384.842 -116.601 384.567 -115.978L288.91 -147.78L331.046 -199.594C331.745 -199.125 332.6 -198.871 333.508 -198.93C334.053 -198.966 334.566 -199.11 335.025 -199.339L385.806 -117.547ZM328.622 -197.776L288.169 -148.026L284.123 -149.371C284.207 -149.741 284.245 -150.127 284.218 -150.527C284.161 -151.391 283.831 -152.171 283.318 -152.792L328.623 -197.773L328.622 -197.776ZM198.059 -117.289C198.174 -115.892 199 -114.725 200.158 -114.11L151.852 -119.737L198.059 -117.289ZM136.798 -118.565C137.152 -117.965 137.655 -117.466 138.257 -117.127L125.707 -89.0866L100.804 -97.9846C100.906 -98.378 100.951 -98.7952 100.92 -99.2244C100.893 -99.6434 100.799 -100.043 100.657 -100.415L136.802 -118.566L136.798 -118.565ZM-25.248 -131.648C-25.0983 -131.773 -24.9575 -131.91 -24.8276 -132.054L57.856 -72.1842L53.0507 -23.6215C52.9769 -23.6187 52.9036 -23.6239 52.8312 -23.6177C52.1275 -23.5718 51.4794 -23.3436 50.9283 -22.9858L-25.248 -131.648ZM106.397 -36.1365C107.093 -36.6607 107.603 -37.4042 107.835 -38.2578L195.109 -22.8239L170.034 55.538C169.678 55.46 169.306 55.4283 168.924 55.4516C168.339 55.488 167.792 55.6547 167.308 55.9176L106.399 -36.1332L106.397 -36.1365ZM172.414 57.1128C172.356 57.0301 172.295 56.9488 172.228 56.8737L240.709 -11.6351C240.806 -11.5529 240.909 -11.4768 241.018 -11.4035L221.56 26.136C221.065 25.9614 220.529 25.8786 219.975 25.914C217.787 26.0559 216.129 27.9406 216.271 30.128C216.305 30.631 216.432 31.1032 216.629 31.5312L172.412 57.1094L172.414 57.1128ZM220.851 33.7898C221.47 33.692 222.034 33.4513 222.52 33.1084L293.577 124.612C292.617 125.395 292.033 126.611 292.117 127.942C292.155 128.542 292.329 129.097 292.6 129.59L241.8 163.847C241.035 162.912 239.85 162.339 238.555 162.396L220.849 33.7864L220.851 33.7898ZM238.985 170.322C240.654 170.213 242.017 169.086 242.503 167.586L249.354 169.126L202.636 211.048L236.514 169.653C237.216 170.129 238.076 170.385 238.987 170.325L238.985 170.322ZM202.358 217.067C202.613 216.768 202.822 216.433 202.98 216.068L276.923 240.165L263.219 275.02C262.789 274.898 262.334 274.837 261.862 274.87C261.009 274.927 260.237 275.249 259.622 275.748L202.356 217.064L202.358 217.067ZM265.238 281.276C265.82 280.534 266.143 279.587 266.081 278.575C266.068 278.391 266.042 278.212 266.004 278.034L328.187 259.178C328.527 260.013 329.139 260.7 329.911 261.135L305.744 315.029C305.229 314.835 304.67 314.742 304.088 314.777C303.177 314.838 302.364 315.201 301.726 315.761L265.241 281.274L265.238 281.276ZM336.719 416.28C337.301 416.55 337.96 416.684 338.644 416.638C339.341 416.595 339.982 416.37 340.531 416.017L356.446 435.668L306.804 472.3C306.561 471.978 306.27 471.696 305.945 471.463L336.719 416.28ZM329.02 554.328C329.043 554.106 329.052 553.881 329.04 553.649C329.004 553.103 328.859 552.591 328.63 552.133L359.073 531.055L385.932 557.723C385.61 558.196 385.388 558.737 385.292 559.318L329.022 554.323L329.02 554.328ZM392.409 557.63C392.074 557.172 391.648 556.791 391.158 556.512L418.486 508.926L439.532 528.945C438.946 529.688 438.616 530.637 438.685 531.655C438.713 532.105 438.821 532.53 438.985 532.928L392.41 557.633L392.409 557.63ZM443.027 527.454C442.817 527.434 442.605 527.427 442.389 527.441C441.482 527.5 440.672 527.862 440.035 528.413L418.859 508.27L459.768 437.038C459.943 437.12 460.127 437.182 460.316 437.238L443.027 527.454ZM434.434 377.197C433.914 377.917 433.63 378.816 433.693 379.773C433.724 380.238 433.837 380.676 434.009 381.083L423.851 386.604C423.091 385.47 421.766 384.757 420.301 384.853C419.77 384.887 419.271 385.026 418.821 385.247L391.809 340.684C391.942 340.585 392.069 340.481 392.185 340.37L434.429 377.203L434.434 377.197ZM391.614 334.169C391.236 333.922 390.812 333.738 390.36 333.629L403.389 239.998C403.534 240.005 403.679 240.004 403.826 239.995C405.961 239.859 407.589 238.054 407.534 235.933L472.622 228.184C472.794 228.982 473.199 229.687 473.764 230.223L391.614 334.169ZM473.029 225.431L396.964 192.047L381.604 95.1731L473.907 224.354C473.555 224.657 473.258 225.021 473.032 225.43L473.029 225.431ZM363.187 23.0109C362.778 22.6707 362.297 22.4153 361.775 22.2599L374.912 -44.7265L415.84 -29.7057L363.183 23.0123L363.187 23.0109ZM415.916 -30.4593L375.053 -45.4557L387.799 -110.445C388.014 -110.423 388.231 -110.414 388.454 -110.427C388.678 -110.441 388.895 -110.479 389.104 -110.526L415.914 -30.4546L415.916 -30.4593ZM416.345 -31.4852L389.8 -110.762C391.28 -111.417 392.271 -112.935 392.161 -114.646C392.047 -116.395 390.817 -117.805 389.209 -118.227L430.461 -156.32C430.962 -155.872 431.573 -155.548 432.248 -155.396L416.342 -31.4838L416.345 -31.4852Z" fill="white"/>
</g>
<path d="M373.258 -262.67C372.197 -263.881 370.353 -264.004 369.137 -262.941C368.154 -262.081 367.886 -260.704 368.386 -259.568L310.033 -227.165C309.966 -227.26 309.899 -227.355 309.821 -227.441C308.759 -228.652 306.915 -228.778 305.7 -227.713C304.488 -226.651 304.361 -224.807 305.427 -223.594C306.174 -222.741 307.305 -222.431 308.333 -222.686L323.329 -180.007C323.08 -179.893 322.842 -179.743 322.625 -179.551C321.786 -178.818 321.468 -177.715 321.7 -176.702L293.424 -167.401C293.312 -167.643 293.165 -167.874 292.979 -168.085C291.918 -169.297 290.074 -169.42 288.859 -168.357C287.655 -167.304 287.525 -165.478 288.563 -164.264L261.952 -134.799C260.867 -135.685 259.274 -135.69 258.184 -134.735C257.853 -134.444 257.604 -134.093 257.439 -133.717L220.657 -146.033C220.863 -146.919 220.658 -147.884 220.014 -148.621C218.953 -149.833 217.109 -149.959 215.894 -148.893C214.682 -147.832 214.555 -145.988 215.621 -144.774C215.867 -144.493 216.156 -144.273 216.468 -144.109L203.215 -111.73C202.281 -112.011 201.228 -111.825 200.442 -111.137C199.857 -110.623 199.525 -109.926 199.459 -109.207L150.328 -109.134C150.274 -109.723 150.043 -110.303 149.619 -110.783C148.558 -111.995 146.715 -112.118 145.499 -111.055C144.287 -109.994 144.163 -108.151 145.226 -106.936C145.897 -106.171 146.878 -105.842 147.817 -105.969L163.804 -36.9674C163.447 -36.8476 163.102 -36.658 162.802 -36.3918C162.741 -36.3389 162.684 -36.2841 162.629 -36.2258L120.906 -34.6526C120.835 -35.2073 120.605 -35.744 120.209 -36.1962C119.148 -37.4078 117.303 -37.5341 116.089 -36.4682C114.877 -35.407 114.75 -33.5627 115.816 -32.3491C116.877 -31.1375 118.722 -31.0113 119.936 -32.0772C120.008 -32.1424 120.08 -32.2076 120.145 -32.2781L193.523 24.6503L193.434 24.8369L193.763 24.8393L194.618 25.5044L194.29 24.8428L249.092 24.9926C249.144 25.5868 249.376 26.1696 249.801 26.6533C250.643 27.612 251.973 27.8876 253.093 27.4332L273.006 65.8983C272.884 65.9762 272.768 66.0595 272.658 66.1563C271.446 67.2174 271.322 69.0603 272.385 70.2753C273.379 71.4118 275.057 71.5914 276.264 70.7376L295.369 186.98C294.946 187.091 294.537 187.296 294.182 187.604C292.97 188.665 292.846 190.508 293.909 191.723C294.97 192.935 296.813 193.058 298.029 191.995C298.522 191.563 298.832 191.004 298.958 190.411L395.744 201.953C395.724 202.66 395.957 203.376 396.464 203.953C396.928 204.483 397.542 204.806 398.186 204.911L395.283 246.041C394.621 246.054 393.961 246.291 393.424 246.762C392.212 247.823 392.085 249.667 393.151 250.881C393.919 251.755 395.091 252.061 396.142 251.765L409.651 286.789C409.432 286.899 409.219 287.034 409.025 287.205C407.813 288.266 407.689 290.109 408.752 291.324C409.813 292.536 411.656 292.658 412.872 291.596C412.991 291.492 413.097 291.376 413.197 291.256L469.044 329.312C468.464 330.356 468.564 331.696 469.398 332.646C470.459 333.858 472.303 333.981 473.518 332.918C474.339 332.2 474.659 331.129 474.453 330.133L511.531 318.842C511.652 319.183 511.833 319.506 512.086 319.793C513.147 321.005 514.99 321.127 516.206 320.065C517.418 319.004 517.542 317.161 516.479 315.946C516.451 315.914 516.423 315.886 516.396 315.858L543.184 283.991C544.225 284.551 545.547 284.444 546.49 283.62C547.702 282.559 547.825 280.716 546.763 279.501C545.956 278.579 544.695 278.291 543.604 278.67L516.518 231.22C516.518 231.22 516.535 231.205 516.544 231.197C517.756 230.136 517.88 228.293 516.817 227.078C515.756 225.867 513.913 225.744 512.697 226.806C512.318 227.141 512.041 227.551 511.881 227.996L467.191 215.204C467.332 214.368 467.114 213.479 466.511 212.793C465.712 211.88 464.473 211.586 463.39 211.947L434.819 150.557C434.961 150.471 435.095 150.376 435.223 150.264C436.435 149.203 436.559 147.36 435.496 146.145C435.003 145.583 434.344 145.259 433.654 145.173L434.77 108.254C435.39 108.215 436.007 107.98 436.512 107.539C437.724 106.478 437.851 104.633 436.785 103.42C436.264 102.826 435.558 102.494 434.827 102.436L434.217 42.1181C434.797 42.0601 435.369 41.828 435.841 41.4121C437.053 40.351 437.176 38.5081 436.114 37.2931C435.053 36.0815 433.209 35.9586 431.994 37.0211C431.489 37.4625 431.175 38.0419 431.054 38.6565L391.31 34.6009C391.316 33.9078 391.085 33.2139 390.592 32.6517C389.637 31.5622 388.055 31.3551 386.859 32.0935L329.318 -44.1515L329.105 -43.9885C329.893 -44.681 330.217 -45.703 330.06 -46.6681L366.387 -56.287C366.507 -55.9577 366.686 -55.6487 366.928 -55.3696C367.989 -54.158 369.832 -54.0352 371.048 -55.0977C372.264 -56.1602 372.384 -58.0017 371.321 -59.2167C370.671 -59.9587 369.728 -60.2916 368.813 -60.1938L352.777 -139.813C353.134 -139.932 353.475 -140.121 353.776 -140.387C354.705 -141.197 354.991 -142.464 354.603 -143.558L386.122 -157.238C386.204 -157.106 386.296 -156.979 386.402 -156.856C387.463 -155.645 389.308 -155.519 390.522 -156.584C391.734 -157.646 391.861 -159.49 390.795 -160.704C390.203 -161.382 389.366 -161.716 388.529 -161.698L371.826 -257.914C372.241 -258.027 372.639 -258.23 372.988 -258.532C374.2 -259.593 374.324 -261.436 373.261 -262.651L373.258 -262.67ZM385.873 -157.735L354.371 -144.062C354.277 -144.221 354.169 -144.378 354.044 -144.519C353.655 -144.963 353.161 -145.26 352.63 -145.408L358.741 -183.083L386.206 -160.466C385.644 -159.666 385.526 -158.634 385.878 -157.733L385.873 -157.735ZM366.208 -57.5824L294.942 -57.7455C294.89 -58.3398 294.657 -58.9225 294.233 -59.4062C294.136 -59.5162 294.033 -59.612 293.924 -59.7049L312.587 -86.2711L366.401 -58.4044C366.294 -58.1389 366.226 -57.8624 366.199 -57.583L366.208 -57.5824ZM386.179 36.4793C386.306 36.6242 386.445 36.7521 386.591 36.8656L383.615 41.5443L342.287 43.6924L385.577 35.3662C385.694 35.7639 385.89 36.1445 386.181 36.4746L386.179 36.4793ZM431.879 106.456L389.676 128.906C389.602 128.794 389.526 128.687 389.437 128.586C389.248 128.368 389.032 128.189 388.802 128.043L406.537 93.3388L431.805 104.411C431.585 105.074 431.606 105.803 431.879 106.456ZM543.095 278.88C542.933 278.975 542.773 279.085 542.626 279.216C541.86 279.888 541.531 280.868 541.654 281.808L514.967 286.601L515.276 231.828C515.546 231.764 515.808 231.663 516.053 231.519L532.251 259.89L543.09 278.878L543.095 278.88ZM298.211 187.78C297.972 187.527 297.699 187.324 297.405 187.177L319.601 130.611L336.697 154.254C335.592 155.22 335.393 156.833 336.168 158.029L298.214 187.778L298.211 187.78ZM261.569 -130.027L242.051 -105.472L258.799 -129.937C259.668 -129.506 260.713 -129.527 261.572 -130.028L261.569 -130.027ZM292.699 -163.972C293.002 -164.235 293.235 -164.548 293.4 -164.885L314.457 -156.798L288.516 -102.305C288.321 -102.375 288.119 -102.425 287.918 -102.453L290.81 -163.25C291.483 -163.256 292.154 -163.494 292.703 -163.973L292.699 -163.972ZM326.557 -175.25C327.685 -176.324 327.779 -178.104 326.742 -179.286C325.995 -180.138 324.864 -180.448 323.836 -180.193L309.041 -222.3L350.246 -145.252L326.557 -175.25ZM323.54 -174.62C324.386 -174.311 325.35 -174.405 326.135 -174.914L349.922 -144.795C349.658 -144.563 349.449 -144.295 349.289 -144.004L315.196 -157.095L323.538 -174.623L323.54 -174.62ZM349.073 -143.505C348.832 -142.769 348.889 -141.952 349.26 -141.245L289.773 -101.403C289.75 -101.43 289.73 -101.461 289.707 -101.487C289.498 -101.724 289.26 -101.918 289.003 -102.072L314.964 -156.605L349.073 -143.505ZM324.86 -44.4183L304.898 -22.3836C304.234 -22.8829 303.394 -23.0611 302.603 -22.9119L296.659 -43.5667L324.271 -45.8839C324.328 -45.3629 324.522 -44.8549 324.865 -44.4163L324.86 -44.4183ZM413.131 287.463C412.59 286.841 411.842 286.511 411.084 286.473L409.887 257.835L469.925 293.247C469.813 293.483 469.738 293.731 469.692 293.983L413.854 289.355C413.848 288.682 413.612 288.006 413.135 287.461L413.131 287.463ZM410.998 247.11C411.071 247.048 411.134 246.982 411.201 246.915L469.14 292.159L409.863 257.193L409.468 247.805C410.018 247.731 410.552 247.503 411.001 247.109L410.998 247.11ZM470.642 292.296C470.568 292.358 470.505 292.424 470.438 292.491L411.527 246.489C411.864 245.967 412.016 245.359 411.983 244.753L466.337 236.677L471.994 291.631C471.508 291.725 471.038 291.947 470.637 292.294L470.642 292.296ZM461.617 215.848L411.494 243.282C411.425 243.184 411.352 243.084 411.271 242.991C410.928 242.6 410.501 242.322 410.044 242.163L419.091 206.224L461.405 214.369C461.346 214.867 461.415 215.379 461.618 215.852L461.617 215.848ZM418.695 205.598L401.554 202.3C401.63 201.527 401.401 200.725 400.848 200.094C400.727 199.954 400.594 199.831 400.454 199.723L432.113 150.727C432.23 150.782 432.35 150.823 432.475 150.858L418.696 205.602L418.695 205.598ZM431.089 149.978C431.254 150.167 431.442 150.326 431.64 150.461L400.001 199.429C399.523 199.18 398.988 199.07 398.462 199.106L390.975 152.169L430.453 148.733C430.558 149.179 430.771 149.608 431.092 149.977L431.089 149.978ZM390.348 151.683L341.493 155.933C341.454 155.724 341.397 155.518 341.313 155.324L384.807 132.117C384.879 132.225 384.955 132.332 385.044 132.433C385.665 133.144 386.557 133.478 387.434 133.42L390.346 151.679L390.348 151.683ZM214.176 -18.8886C214.633 -19.3694 214.896 -19.9753 214.961 -20.6021L253.804 -20.2397L251.851 21.7967C251.298 21.824 250.748 22.0036 250.275 22.3491L214.177 -18.8853L214.176 -18.8886ZM218.68 -143.926L228.683 -119.962L204.946 -110.301C204.838 -110.505 204.711 -110.698 204.552 -110.881C204.306 -111.162 204.017 -111.382 203.705 -111.545L216.955 -143.924C217.514 -143.756 218.115 -143.755 218.675 -143.928L218.68 -143.926ZM205.148 -109.801L228.889 -119.463L236.194 -101.967C236 -101.864 235.811 -101.738 235.639 -101.589C235.262 -101.259 234.992 -100.852 234.826 -100.412L205.232 -108.45C205.309 -108.896 205.283 -109.359 205.15 -109.797L205.148 -109.801ZM257.55 -131.126C257.65 -130.95 257.765 -130.785 257.901 -130.628C258.036 -130.474 258.182 -130.341 258.337 -130.223L238.979 -101.945C238.277 -102.334 237.449 -102.419 236.69 -102.18L229.389 -119.669L257.548 -131.129L257.55 -131.126ZM285.307 -97.645C285.473 -97.4531 285.666 -97.292 285.866 -97.1533L272.473 -72.8743L240.025 -97.8344C240.276 -98.2302 240.423 -98.6777 240.464 -99.1328L284.598 -99.2861C284.655 -98.698 284.885 -98.122 285.304 -97.6436L285.307 -97.645ZM289.328 -56.3941L257.174 -42.0811C257.13 -42.1415 257.085 -42.202 257.033 -42.2597C256.867 -42.4516 256.674 -42.6127 256.475 -42.7514L272.644 -72.0686L289.566 -59.05C289.065 -58.2551 288.977 -57.2635 289.327 -56.3975L289.328 -56.3941ZM385.311 128.309C385.143 128.457 384.997 128.62 384.872 128.794L353.388 110.157L363.786 76.9436C364.043 76.8967 364.293 76.8132 364.532 76.6946L385.873 127.93C385.679 128.034 385.49 128.16 385.316 128.311L385.311 128.309ZM334.638 96.4688L340.876 91.9938L362.104 76.762C362.453 76.9099 362.829 76.9876 363.202 76.9915L352.908 109.874L334.783 99.144C335.163 98.2963 335.124 97.294 334.638 96.4688ZM384.596 129.255C384.244 130 384.223 130.866 384.544 131.633L350.253 149.931L341.05 154.841C340.978 154.732 340.902 154.626 340.813 154.524C340.507 154.177 340.138 153.923 339.741 153.755L353.223 110.683L384.596 129.255ZM361.045 75.9955C361.209 76.1807 361.387 76.3358 361.58 76.4692L334.324 96.0259C334.324 96.0259 334.323 96.0225 334.322 96.0191C333.895 95.5321 333.346 95.2259 332.759 95.0937L335.242 73.1017L360.471 74.9776C360.589 75.3394 360.781 75.6821 361.046 75.9874L361.045 75.9955ZM334.763 72.534L277.486 68.2753C277.481 68.0328 277.444 67.7913 277.382 67.5562L330.709 47.4478L335.823 45.5174C335.928 45.7147 336.055 45.9071 336.207 46.0849C336.603 46.5371 337.107 46.8383 337.648 46.9819L334.763 72.534ZM253.994 22.5889C253.54 22.1571 252.974 21.8972 252.388 21.8157L254.34 -20.2404L300.231 -19.8125C300.274 -19.2974 300.453 -18.7872 300.774 -18.3437L253.994 22.5889ZM167.575 -33.6583C167.602 -33.8036 167.621 -33.9495 167.627 -34.0979L217.164 -37.4891L212.698 -23.7487C211.819 -23.9461 210.863 -23.7368 210.135 -23.1005C209.763 -22.7772 209.497 -22.3792 209.331 -21.9478L196.381 -25.5788L167.575 -33.6583ZM256.759 -38.144C257.031 -38.3829 257.247 -38.6651 257.409 -38.9691L300.356 -20.9339C300.296 -20.7435 300.258 -20.55 300.235 -20.3553L254.365 -20.7834L255.137 -37.4428C255.716 -37.5042 256.284 -37.7349 256.754 -38.146L256.759 -38.144ZM254.279 -43.2022L238.636 -96.6846C238.938 -96.8052 239.228 -96.9724 239.485 -97.201C239.56 -97.2675 239.634 -97.3375 239.702 -97.4128L272.213 -72.4039L256.003 -43.0143C255.459 -43.2514 254.86 -43.3158 254.279 -43.2022ZM236.918 -96.5514C237.309 -96.4643 237.72 -96.4561 238.114 -96.5324L253.757 -43.05C253.456 -42.9294 253.166 -42.7621 252.909 -42.5336C252.267 -41.9728 251.933 -41.1953 251.915 -40.4065L217.92 -38.0776L236.916 -96.5466L236.918 -96.5514ZM251.955 -39.8704C251.981 -39.7114 252.019 -39.5533 252.071 -39.3974L229.377 -29.074L214.595 -22.3494C214.499 -22.515 214.386 -22.6736 214.258 -22.8219C213.96 -23.1607 213.603 -23.412 213.214 -23.5791L217.744 -37.5275L251.958 -39.8718L251.955 -39.8704ZM214.814 -21.8559L252.298 -38.8871C252.394 -38.7215 252.507 -38.5629 252.637 -38.4112C253.158 -37.8175 253.869 -37.4834 254.599 -37.4259L253.826 -20.7779L214.964 -21.1401C214.944 -21.3804 214.896 -21.621 214.814 -21.8559ZM302.5 -17.2053C303.091 -17.0744 303.721 -17.1256 304.291 -17.3725L316.701 5.40315L336.581 41.8848C336.548 41.9102 336.512 41.9371 336.48 41.9659C336.016 42.3709 335.713 42.8906 335.571 43.4464L286.499 32.2825L302.498 -17.2087L302.5 -17.2053ZM301.215 -22.2478C300.942 -22.009 300.729 -21.7315 300.569 -21.4322L257.66 -39.6055C257.719 -39.8351 257.747 -40.0719 257.748 -40.3091L296.1 -43.5252L302.075 -22.765C301.769 -22.6463 301.477 -22.4744 301.216 -22.2444L301.215 -22.2478ZM235.575 -97.2517C235.825 -97.0194 236.106 -96.8437 236.405 -96.7143L217.339 -38.0392L167.596 -34.6301C167.53 -35.0765 167.366 -35.5137 167.091 -35.9015L235.575 -97.2517ZM254.349 22.9989L301.129 -17.9337C301.384 -17.688 301.679 -17.5016 301.99 -17.3696L285.977 32.1665L254.879 25.0932C254.973 24.3753 254.804 23.6205 254.351 23.0023L254.349 22.9989ZM286.337 32.7993L335.492 43.9805C335.47 44.329 335.513 44.6821 335.617 45.0184L277.193 67.0502C277.084 66.8231 276.942 66.6052 276.769 66.4046C276.471 66.0658 276.109 65.8124 275.721 65.6454L286.339 32.7945L286.337 32.7993ZM277.447 68.8123L334.704 73.0712L332.225 95.034C331.508 95.0102 330.783 95.2427 330.203 95.7506C330.002 95.9243 329.835 96.1233 329.696 96.3308L277.276 69.4118C277.354 69.2178 277.413 69.0159 277.449 68.8075L277.447 68.8123ZM334.046 100.143C334.228 99.981 334.387 99.801 334.517 99.6091L352.742 110.4L339.221 153.595C339.005 153.55 338.782 153.528 338.561 153.528L332.756 100.794C333.218 100.69 333.662 100.475 334.042 100.141L334.046 100.143ZM360.346 74.437L335.301 72.576L338.183 47.0728C338.757 47.1157 339.345 46.9912 339.865 46.69L361.218 71.9772C360.534 72.6347 360.234 73.5521 360.346 74.437ZM295.955 -44.0575L257.71 -40.85C257.664 -41.115 257.581 -41.3729 257.46 -41.6188L289.58 -55.918C289.658 -55.7963 289.742 -55.6807 289.84 -55.5673C290.623 -54.675 291.825 -54.3742 292.891 -54.6999L295.952 -44.0561L295.955 -44.0575ZM290.116 -59.6877C290.041 -59.6211 289.967 -59.5512 289.9 -59.4759L272.909 -72.5452L286.34 -96.8951C286.724 -96.7301 287.135 -96.6433 287.549 -96.6527L291.458 -60.3485C290.977 -60.2523 290.511 -60.0322 290.113 -59.6863L290.116 -59.6877ZM290.272 -163.301L287.379 -102.487C286.739 -102.459 286.106 -102.222 285.586 -101.77C284.997 -101.255 284.667 -100.554 284.602 -99.8322L240.468 -99.6789C240.41 -100.267 240.18 -100.843 239.762 -101.321C239.704 -101.384 239.643 -101.446 239.583 -101.504L289.093 -163.793C289.451 -163.538 289.855 -163.373 290.272 -163.301ZM257.332 -131.624L229.186 -120.17L219.18 -144.14C219.374 -144.244 219.563 -144.369 219.734 -144.519C220.064 -144.809 220.314 -145.161 220.479 -145.537L257.261 -133.221C257.138 -132.696 257.158 -132.14 257.333 -131.621L257.332 -131.624ZM204.279 -106.762C204.656 -107.091 204.926 -107.499 205.092 -107.938L234.259 -100.016L199.973 -103.622L201.291 -106.242C202.275 -105.859 203.432 -106.021 204.279 -106.762ZM234.646 -99.4337C234.637 -98.8143 234.824 -98.189 235.22 -97.6616L166.846 -36.4083L166.651 -36.4027C166.528 -36.5097 166.399 -36.6105 166.262 -36.6957L199.71 -103.111L234.644 -99.437L234.646 -99.4337ZM167.425 -33.1424L209.189 -21.4313C209.033 -20.5853 209.252 -19.6813 209.861 -18.9815C210.802 -17.9095 212.349 -17.6918 213.534 -18.3868L207.581 -5.59915L167.272 -32.8148C167.33 -32.9218 167.381 -33.0294 167.425 -33.1424ZM214.049 -18.2205L249.867 22.6911C249.817 22.7431 249.772 22.7972 249.728 22.8512L208.033 -5.30004L214.051 -18.2253L214.049 -18.2205ZM253.906 26.8963C254.314 26.538 254.599 26.089 254.755 25.6062L285.807 32.6711L275.201 65.4771C274.628 65.3508 274.022 65.3956 273.468 65.6207L253.555 27.1557C253.677 27.0777 253.792 26.9944 253.902 26.8977L253.906 26.8963ZM329.436 96.8013C329.012 97.8013 329.162 98.9948 329.923 99.8643C330.179 100.157 330.481 100.384 330.81 100.548L319.455 129.484L276.683 70.3277C276.812 70.1914 276.928 70.0411 277.026 69.8862L329.435 96.7979L329.436 96.8013ZM331.31 100.744C331.606 100.831 331.914 100.87 332.221 100.857L338.027 153.583C337.715 153.649 337.414 153.761 337.128 153.93L319.828 130.005L331.31 100.744ZM341.529 156.459L390.421 152.205L397.915 199.177C397.487 199.287 397.071 199.495 396.714 199.807C396.634 199.88 396.558 199.955 396.487 200.032L341.089 157.986C341.38 157.523 341.524 156.993 341.529 156.459ZM400.561 204.198C400.996 203.818 401.29 203.333 401.44 202.817L418.551 206.111L409.512 242.02C409.225 241.977 408.929 241.977 408.638 242.018L399.586 204.763C399.935 204.643 400.266 204.459 400.561 204.198ZM406.865 246.827C407.409 247.447 408.154 247.779 408.916 247.816L409.293 256.856L397.965 250.175C398.23 249.612 398.307 248.976 398.187 248.37L406.347 245.975C406.468 246.277 406.634 246.564 406.862 246.821L406.865 246.827ZM397.25 251.13C397.418 250.981 397.567 250.817 397.693 250.643L409.322 257.5L410.535 286.483C410.4 286.499 410.266 286.53 410.133 286.57L396.624 251.546C396.843 251.436 397.056 251.301 397.25 251.13ZM469.634 294.512C469.639 295.185 469.875 295.861 470.353 296.406C470.847 296.971 471.51 297.297 472.203 297.378L471.975 305.745L413.817 289.887L469.634 294.512ZM472.742 297.392C473.362 297.354 473.971 297.118 474.473 296.678C474.665 296.512 474.827 296.322 474.961 296.121L511.725 316.394C511.693 316.45 511.663 316.502 511.634 316.557L472.508 305.888L472.738 297.39L472.742 297.392ZM512.335 315.652C512.227 315.744 512.134 315.846 512.043 315.951L475.225 295.649C475.419 295.202 475.498 294.715 475.458 294.234L514.419 287.234L514.26 314.932C513.576 314.931 512.888 315.167 512.335 315.652ZM475.364 293.701C475.25 293.29 475.049 292.899 474.749 292.557C474.63 292.421 474.501 292.301 474.362 292.192L513.661 231.741C514.006 231.859 514.37 231.91 514.735 231.893L514.426 286.687L475.369 293.703L475.364 293.701ZM512.401 230.899C512.625 231.154 512.883 231.359 513.162 231.517L473.909 291.898C473.476 291.674 473.002 291.558 472.522 291.563L466.863 236.582L511.827 229.901C511.947 230.258 512.135 230.599 512.401 230.899ZM466.276 236.126L411.899 244.207C411.862 244.049 411.809 243.893 411.743 243.743L461.863 216.311C461.934 216.416 462.007 216.516 462.092 216.615C462.689 217.296 463.53 217.632 464.37 217.609L466.277 236.129L466.276 236.126ZM462.367 212.491C461.943 212.86 461.657 213.325 461.505 213.826L419.212 205.684L432.991 150.941C433.435 150.983 433.886 150.927 434.308 150.764L462.871 212.133C462.693 212.23 462.525 212.347 462.365 212.488L462.367 212.491ZM430.36 148.183L390.874 151.619L387.956 133.318C388.385 133.208 388.797 133.003 389.157 132.688C389.456 132.427 389.688 132.118 389.854 131.785L430.445 147.339C430.378 147.615 430.353 147.898 430.363 148.182L430.36 148.183ZM388.314 127.787C387.695 127.541 387.003 127.511 386.364 127.712L364.991 76.3988C365.048 76.3555 365.105 76.3122 365.161 76.2655C365.421 76.0356 365.63 75.7676 365.788 75.4813L406.033 93.1128L388.31 127.788L388.314 127.787ZM366.006 74.9849C366.217 74.349 366.203 73.6561 365.961 73.022L431.411 40.7155C431.496 40.8541 431.589 40.9852 431.7 41.1092C431.889 41.3273 432.105 41.5064 432.335 41.6522L406.283 92.6268L366.009 74.9835L366.006 74.9849ZM431.171 40.2304L365.721 72.5369C365.637 72.3982 365.543 72.2672 365.432 72.1431C365.305 71.9982 365.169 71.869 365.02 71.7568L383.909 42.0545L431.003 39.6049C431.036 39.8166 431.091 40.0266 431.166 40.2284L431.171 40.2304ZM364.57 71.4692C363.648 70.9972 362.526 71.0424 361.636 71.631L340.304 46.3666C340.304 46.3666 340.319 46.3562 340.328 46.3487C340.955 45.8016 341.288 45.0404 341.321 44.269L383.258 42.0863L364.575 71.4631L364.57 71.4692ZM337.03 41.5769L304.76 -17.6414C304.862 -17.711 304.962 -17.7839 305.058 -17.867C306.27 -18.9281 306.397 -20.7724 305.331 -21.986C305.316 -22.0034 305.299 -22.0161 305.284 -22.0336L325.216 -44.0361C325.749 -43.5577 326.423 -43.3112 327.107 -43.3013L337.573 41.3526C337.386 41.4062 337.204 41.4814 337.027 41.5783L337.03 41.5769ZM324.251 -46.4399L296.498 -44.1117L293.389 -54.9176C293.587 -55.0228 293.779 -55.1497 293.957 -55.3021C294.32 -55.6178 294.582 -56.0063 294.749 -56.4262L324.344 -46.9681C324.298 -46.7948 324.268 -46.6169 324.254 -46.4413L324.251 -46.4399ZM293.481 -60.0312C293.022 -60.2916 292.506 -60.422 291.987 -60.4168L288.078 -96.721C288.559 -96.8172 289.025 -97.0372 289.423 -97.3832C289.635 -97.5692 289.812 -97.7805 289.956 -98.0057L312.102 -86.5367L293.481 -60.0312ZM290.205 -98.4835C290.528 -99.2798 290.488 -100.199 290.066 -100.972L349.542 -140.809C349.575 -140.768 349.604 -140.728 349.64 -140.688C349.737 -140.578 349.839 -140.482 349.944 -140.391L312.417 -86.9786L290.206 -98.4801L290.205 -98.4835ZM352.087 -145.519C351.658 -145.555 351.22 -145.496 350.809 -145.343L309.222 -223.104C309.331 -223.177 309.438 -223.253 309.539 -223.342C309.591 -223.387 309.637 -223.438 309.685 -223.485L358.246 -183.499L352.086 -145.522L352.087 -145.519ZM310.028 -223.899C310.592 -224.732 310.692 -225.799 310.287 -226.713L368.64 -259.117C368.707 -259.022 368.774 -258.927 368.852 -258.841C369.255 -258.384 369.768 -258.079 370.319 -257.939L358.346 -184.116L310.026 -223.902L310.028 -223.899ZM322.342 -175.456C322.55 -175.218 322.788 -175.024 323.046 -174.87L314.682 -157.306L293.584 -165.406C293.721 -165.897 293.722 -166.419 293.596 -166.915L321.862 -176.216C321.98 -175.949 322.138 -175.691 322.34 -175.459L322.342 -175.456ZM262.88 -131.701C263.167 -132.621 262.99 -133.661 262.326 -134.448L285.144 -159.711L262.88 -131.701ZM200.153 -107.047C200.347 -106.827 200.566 -106.641 200.804 -106.495L199.394 -103.694L152.479 -108.629L199.448 -108.698C199.502 -108.108 199.733 -107.529 200.157 -107.049L200.153 -107.047ZM148.328 -106.117C148.685 -106.237 149.03 -106.427 149.33 -106.693C149.835 -107.134 150.147 -107.709 150.267 -108.315L199.13 -103.175L165.774 -36.9402C165.307 -37.1226 164.804 -37.1833 164.315 -37.1155L148.328 -106.117ZM120.458 -32.7349C120.731 -33.1634 120.886 -33.6496 120.912 -34.1418L162.192 -35.6979C161.572 -34.6448 161.663 -33.2691 162.513 -32.3017C163.342 -31.3537 164.646 -31.0751 165.76 -31.5036L193.079 23.6024L120.461 -32.7363L120.458 -32.7349ZM193.832 23.9151L166.241 -31.7455C166.376 -31.829 166.507 -31.9226 166.633 -32.0298C166.758 -32.1369 166.863 -32.2553 166.967 -32.377L207.352 -5.11348L193.836 23.9171L193.832 23.9151ZM194.262 24.27L207.801 -4.80961L249.424 23.2923C249.234 23.6434 249.116 24.0275 249.079 24.4175L194.262 24.27ZM276.938 71.5959L319.221 130.074L296.899 186.964C296.567 186.868 296.226 186.835 295.884 186.858L276.943 71.5978L276.938 71.5959ZM299.003 189.84C299.018 189.266 298.867 188.689 298.54 188.184L336.493 158.436C337.566 159.571 339.351 159.667 340.537 158.628C340.618 158.556 340.694 158.481 340.768 158.403L396.166 200.449C395.984 200.737 395.863 201.055 395.792 201.38L299.006 189.839L299.003 189.84ZM398.703 204.91C398.824 204.908 398.943 204.898 399.062 204.881L408.114 242.136C407.765 242.256 407.434 242.44 407.139 242.7C406.327 243.411 406.006 244.47 406.2 245.456L398.04 247.851C397.919 247.55 397.754 247.263 397.525 247.006C397.061 246.475 396.446 246.153 395.803 246.048L398.706 204.917L398.703 204.91ZM413.474 290.779C413.544 290.651 413.606 290.523 413.658 290.391L471.963 306.291L471.378 327.783C470.758 327.822 470.149 328.058 469.647 328.498C469.529 328.602 469.422 328.717 469.322 328.837L413.476 290.782L413.474 290.779ZM474.271 329.588C474.152 329.298 473.985 329.019 473.768 328.77C473.274 328.204 472.61 327.878 471.917 327.797L472.496 306.434L511.445 317.054C511.334 317.455 511.31 317.876 511.373 318.287L474.27 329.584L474.271 329.588ZM515.964 315.472C515.611 315.219 515.214 315.052 514.802 314.973L514.958 287.126L541.77 282.309C541.89 282.666 542.08 283.01 542.346 283.31C542.458 283.438 542.579 283.55 542.709 283.654L515.966 315.467L515.964 315.472ZM511.719 228.482C511.67 228.774 511.666 229.072 511.704 229.364L466.807 236.037L464.902 217.531C465.371 217.432 465.822 217.214 466.21 216.872C466.589 216.538 466.862 216.129 467.027 215.686L511.717 228.478L511.719 228.482ZM433.091 145.121C432.472 145.16 431.854 145.395 431.349 145.837C431.028 146.12 430.781 146.458 430.617 146.826L390.04 131.278C390.214 130.649 390.176 129.974 389.924 129.364L432.128 106.914C432.201 107.026 432.277 107.133 432.366 107.234C432.859 107.796 433.518 108.12 434.209 108.206L433.093 145.125L433.091 145.121ZM434.267 102.407C433.686 102.465 433.115 102.698 432.643 103.113C432.383 103.343 432.173 103.611 432.015 103.898L406.778 92.8408L432.816 41.8914C433.087 42.0008 433.37 42.0653 433.66 42.0878L434.27 102.406L434.267 102.407ZM430.386 39.0942L384.268 41.4915L387.041 37.1335C388.073 37.6626 389.368 37.5463 390.295 36.733C390.8 36.2917 391.114 35.7122 391.235 35.0977L430.384 39.0908L430.386 39.0942ZM386.41 32.3818C385.704 33.0246 385.384 33.934 385.471 34.822L341.203 43.3347C341.087 42.9369 340.89 42.5564 340.6 42.2263C339.954 41.4863 339.016 41.1554 338.11 41.2456L327.65 -43.3441C328.082 -43.416 328.502 -43.5854 328.871 -43.8565L386.406 32.3832L386.41 32.3818ZM329.902 -47.2225C329.782 -47.5518 329.603 -47.8608 329.361 -48.1399C328.3 -49.3515 326.457 -49.4743 325.241 -48.4118C324.933 -48.1428 324.694 -47.823 324.53 -47.4749L294.897 -56.9455C294.914 -57.0392 294.927 -57.1315 294.936 -57.2258L366.201 -57.0627C366.207 -56.9902 366.218 -56.9159 366.229 -56.8414L329.902 -47.2225ZM368.271 -60.12C367.881 -60.0024 367.512 -59.8065 367.187 -59.5224C366.976 -59.3364 366.799 -59.125 366.655 -58.8998L312.905 -86.7341L350.39 -140.086C350.954 -139.762 351.609 -139.638 352.241 -139.725L368.275 -60.1214L368.271 -60.12ZM387.983 -161.67C387.512 -161.57 387.056 -161.354 386.664 -161.011C386.624 -160.974 386.585 -160.934 386.548 -160.899L358.833 -183.721L370.856 -257.853C370.998 -257.844 371.143 -257.845 371.288 -257.858L387.987 -161.671L387.983 -161.67Z" fill="white"/>
</g>
</g>
<mask id="mask1_587_11699" style="mask-type:alpha" maskUnits="userSpaceOnUse" x="0" y="0" width="261" height="193">
<rect width="261" height="193" rx="10" fill="#00A48F"/>
</mask>
<g mask="url(#mask1_587_11699)">
<path fill-rule="evenodd" clip-rule="evenodd" d="M54.0867 75.6738H20.1374L55.0226 147.037L27.9796 205.403L-36.1376 76.1116H-70.4834L27.9796 277.054L72.2169 182.21L94.8257 228.46L165.919 75.6738H132.37L94.8257 155.667L89.4869 145.184L121.704 76.1116H87.8844L71.8902 110.632L54.0867 75.6738Z" fill="black" fill-opacity="0.1"/>
</g>
<g filter="url(#filter0_d_587_11699)">
<path d="M91.2407 37.724C91.1687 37.184 91.1027 36.686 91.0427 36.23C90.9947 35.762 90.9527 35.312 90.9167 34.88C90.8927 34.436 90.8747 33.992 90.8627 33.548C90.8507 33.092 90.8447 32.606 90.8447 32.09V30.02H94.1027V32.09C94.1027 32.606 94.0967 33.092 94.0847 33.548C94.0727 33.992 94.0487 34.436 94.0127 34.88C93.9887 35.312 93.9467 35.762 93.8867 36.23C93.8387 36.686 93.7787 37.184 93.7067 37.724H91.2407ZM94.1927 39.902C94.1927 40.478 94.0367 40.886 93.7247 41.126C93.4247 41.378 93.0167 41.504 92.5007 41.504C91.9727 41.504 91.5587 41.378 91.2587 41.126C90.9587 40.886 90.8087 40.478 90.8087 39.902C90.8087 39.326 90.9587 38.93 91.2587 38.714C91.5587 38.486 91.9727 38.372 92.5007 38.372C93.0167 38.372 93.4247 38.486 93.7247 38.714C94.0367 38.93 94.1927 39.326 94.1927 39.902ZM96.7696 33.872L99.2356 31.496L102.404 35.366C102.86 35.906 103.154 36.392 103.286 36.824C103.43 37.256 103.502 37.658 103.502 38.03C103.502 38.438 103.43 38.822 103.286 39.182C103.154 39.542 102.95 39.86 102.674 40.136C102.398 40.4 102.044 40.61 101.612 40.766C101.192 40.922 100.694 41 100.118 41H95.3656L95.0776 37.526H99.2356C99.4276 37.526 99.5236 37.448 99.5236 37.292C99.5236 37.184 99.4576 37.046 99.3256 36.878L96.7696 33.872ZM108.822 37.526C108.894 37.526 108.954 37.544 109.002 37.58C109.062 37.604 109.104 37.67 109.128 37.778C109.164 37.886 109.188 38.054 109.2 38.282C109.212 38.51 109.218 38.822 109.218 39.218C109.218 39.638 109.212 39.968 109.2 40.208C109.188 40.448 109.164 40.628 109.128 40.748C109.104 40.868 109.062 40.94 109.002 40.964C108.954 40.988 108.894 41 108.822 41H107.94C107.316 41 106.788 40.91 106.356 40.73C105.936 40.538 105.594 40.286 105.33 39.974C105.066 39.662 104.874 39.296 104.754 38.876C104.634 38.444 104.574 37.994 104.574 37.526V30.02H107.85V37.238C107.85 37.43 107.946 37.526 108.138 37.526H108.822ZM109.498 37.526C109.582 37.526 109.654 37.502 109.714 37.454C109.774 37.394 109.804 37.322 109.804 37.238V34.556H113.08V37.238C113.08 37.43 113.176 37.526 113.368 37.526H114.052C114.124 37.526 114.184 37.544 114.232 37.58C114.292 37.604 114.334 37.67 114.358 37.778C114.394 37.886 114.418 38.054 114.43 38.282C114.442 38.51 114.448 38.822 114.448 39.218C114.448 39.638 114.442 39.968 114.43 40.208C114.418 40.448 114.394 40.628 114.358 40.748C114.334 40.868 114.292 40.94 114.232 40.964C114.184 40.988 114.124 41 114.052 41H113.494C113.086 41 112.708 40.964 112.36 40.892C112.024 40.82 111.73 40.658 111.478 40.406C111.19 40.658 110.896 40.82 110.596 40.892C110.308 40.964 110.044 41 109.804 41H108.814C108.742 41 108.682 40.988 108.634 40.964C108.574 40.94 108.532 40.874 108.508 40.766C108.472 40.646 108.448 40.472 108.436 40.244C108.424 40.016 108.418 39.704 108.418 39.308C108.418 38.888 108.424 38.558 108.436 38.318C108.448 38.078 108.472 37.904 108.508 37.796C108.532 37.676 108.574 37.604 108.634 37.58C108.682 37.544 108.742 37.526 108.814 37.526H109.498ZM113.962 44.456H108.814V41.972H113.962V44.456ZM114.737 37.526C114.821 37.526 114.893 37.502 114.953 37.454C115.013 37.394 115.043 37.322 115.043 37.238C115.043 36.038 115.361 35.096 115.997 34.412C116.645 33.716 117.527 33.368 118.643 33.368C119.819 33.368 120.701 33.71 121.289 34.394C121.877 35.078 122.171 35.99 122.171 37.13C122.171 38.33 121.847 39.278 121.199 39.974C120.551 40.658 119.657 41 118.517 41C118.169 41 117.827 40.952 117.491 40.856C117.155 40.76 116.867 40.61 116.627 40.406C116.483 40.538 116.327 40.64 116.159 40.712C116.003 40.784 115.823 40.844 115.619 40.892C115.427 40.94 115.205 40.97 114.953 40.982C114.701 40.994 114.401 41 114.053 41C113.981 41 113.921 40.988 113.873 40.964C113.813 40.94 113.771 40.874 113.747 40.766C113.711 40.646 113.687 40.472 113.675 40.244C113.663 40.016 113.657 39.704 113.657 39.308C113.657 38.888 113.663 38.558 113.675 38.318C113.687 38.078 113.711 37.904 113.747 37.796C113.771 37.676 113.813 37.604 113.873 37.58C113.921 37.544 113.981 37.526 114.053 37.526H114.737ZM118.013 37.13C118.013 37.382 118.067 37.544 118.175 37.616C118.283 37.688 118.415 37.724 118.571 37.724C118.703 37.724 118.823 37.688 118.931 37.616C119.039 37.544 119.093 37.382 119.093 37.13C119.093 36.734 118.919 36.536 118.571 36.536C118.199 36.536 118.013 36.734 118.013 37.13ZM130.162 40.208C130.162 40.88 130.048 41.516 129.82 42.116C129.592 42.716 129.274 43.238 128.866 43.682C128.458 44.138 127.966 44.498 127.39 44.762C126.826 45.026 126.196 45.158 125.5 45.158H123.52L123.214 41.702H125.104C125.752 41.702 126.208 41.57 126.472 41.306C126.748 41.042 126.886 40.712 126.886 40.316V34.556H130.162V40.208ZM135.488 37.526C135.56 37.526 135.62 37.544 135.668 37.58C135.728 37.604 135.77 37.67 135.794 37.778C135.83 37.886 135.854 38.054 135.866 38.282C135.878 38.51 135.884 38.822 135.884 39.218C135.884 39.638 135.878 39.968 135.866 40.208C135.854 40.448 135.83 40.628 135.794 40.748C135.77 40.868 135.728 40.94 135.668 40.964C135.62 40.988 135.56 41 135.488 41H134.606C133.982 41 133.454 40.91 133.022 40.73C132.602 40.538 132.26 40.286 131.996 39.974C131.732 39.662 131.54 39.296 131.42 38.876C131.3 38.444 131.24 37.994 131.24 37.526V30.02H134.516V37.238C134.516 37.43 134.612 37.526 134.804 37.526H135.488ZM139.044 37.526C139.248 37.526 139.35 37.448 139.35 37.292C139.35 37.196 139.284 37.076 139.152 36.932L135.876 33.674V31.298L142.914 28.724L143.706 31.982L140.232 33.278L141.618 34.664C141.942 34.988 142.206 35.288 142.41 35.564C142.614 35.828 142.776 36.086 142.896 36.338C143.016 36.578 143.094 36.818 143.13 37.058C143.178 37.298 143.202 37.556 143.202 37.832C143.202 38.396 143.112 38.882 142.932 39.29C142.764 39.686 142.524 40.01 142.212 40.262C141.912 40.514 141.558 40.7 141.15 40.82C140.742 40.94 140.304 41 139.836 41H135.48C135.408 41 135.348 40.988 135.3 40.964C135.24 40.94 135.198 40.874 135.174 40.766C135.138 40.646 135.114 40.472 135.102 40.244C135.09 40.016 135.084 39.704 135.084 39.308C135.084 38.888 135.09 38.558 135.102 38.318C135.114 38.078 135.138 37.904 135.174 37.796C135.198 37.676 135.24 37.604 135.3 37.58C135.348 37.544 135.408 37.526 135.48 37.526H139.044ZM150.922 37.526C150.994 37.526 151.054 37.544 151.102 37.58C151.162 37.604 151.204 37.67 151.228 37.778C151.264 37.886 151.288 38.054 151.3 38.282C151.312 38.51 151.318 38.822 151.318 39.218C151.318 39.638 151.312 39.968 151.3 40.208C151.288 40.448 151.264 40.628 151.228 40.748C151.204 40.868 151.162 40.94 151.102 40.964C151.054 40.988 150.994 41 150.922 41H150.04C149.416 41 148.888 40.91 148.456 40.73C148.036 40.538 147.694 40.286 147.43 39.974C147.166 39.662 146.974 39.296 146.854 38.876C146.734 38.444 146.674 37.994 146.674 37.526V30.02H149.95V37.238C149.95 37.43 150.046 37.526 150.238 37.526H150.922ZM152.012 37.526C152.084 37.526 152.15 37.502 152.21 37.454C152.27 37.394 152.3 37.322 152.3 37.238V34.556H155.558V37.526C155.558 38.102 155.474 38.606 155.306 39.038C155.15 39.47 154.928 39.83 154.64 40.118C154.352 40.406 154.004 40.628 153.596 40.784C153.2 40.928 152.768 41 152.3 41H150.914C150.842 41 150.782 40.988 150.734 40.964C150.674 40.94 150.632 40.874 150.608 40.766C150.572 40.646 150.548 40.472 150.536 40.244C150.524 40.016 150.518 39.704 150.518 39.308C150.518 38.888 150.524 38.558 150.536 38.318C150.548 38.078 150.572 37.904 150.608 37.796C150.632 37.676 150.674 37.604 150.734 37.58C150.782 37.544 150.842 37.526 150.914 37.526H152.012ZM154.982 44.456H151.706V41.972H154.982V44.456ZM161.921 41C161.297 41 160.769 40.91 160.337 40.73C159.917 40.538 159.575 40.286 159.311 39.974C159.047 39.662 158.855 39.296 158.735 38.876C158.615 38.444 158.555 37.994 158.555 37.526V34.556H161.813V37.238C161.813 37.322 161.843 37.394 161.903 37.454C161.963 37.502 162.035 37.526 162.119 37.526H166.673C166.745 37.526 166.811 37.502 166.871 37.454C166.931 37.394 166.961 37.322 166.961 37.238V34.556H170.219V37.526C170.219 38.102 170.135 38.606 169.967 39.038C169.811 39.47 169.583 39.83 169.283 40.118C168.995 40.406 168.653 40.628 168.257 40.784C167.861 40.928 167.429 41 166.961 41H161.921ZM165.971 44.456H162.695V41.972H165.971V44.456ZM179.743 37.526C179.815 37.526 179.875 37.544 179.923 37.58C179.971 37.604 180.007 37.67 180.031 37.778C180.067 37.886 180.091 38.054 180.103 38.282C180.115 38.51 180.121 38.822 180.121 39.218C180.121 39.638 180.115 39.968 180.103 40.208C180.091 40.448 180.067 40.628 180.031 40.748C180.007 40.868 179.971 40.94 179.923 40.964C179.875 40.988 179.815 41 179.743 41H178.717C178.681 41.732 178.543 42.374 178.303 42.926C178.075 43.478 177.763 43.94 177.367 44.312C176.971 44.696 176.503 44.984 175.963 45.176C175.423 45.368 174.835 45.464 174.199 45.464H171.517L171.319 41.99H174.397C174.793 41.99 175.069 41.912 175.225 41.756C175.393 41.6 175.477 41.348 175.477 41H175.189C174.445 41 173.833 40.916 173.353 40.748C172.873 40.58 172.495 40.346 172.219 40.046C171.955 39.734 171.769 39.356 171.661 38.912C171.565 38.468 171.517 37.976 171.517 37.436C171.517 36.92 171.595 36.428 171.751 35.96C171.907 35.492 172.135 35.084 172.435 34.736C172.747 34.376 173.125 34.094 173.569 33.89C174.013 33.674 174.517 33.566 175.081 33.566C175.573 33.566 176.041 33.638 176.485 33.782C176.929 33.926 177.319 34.16 177.655 34.484C177.991 34.796 178.255 35.204 178.447 35.708C178.651 36.2 178.753 36.806 178.753 37.526H179.743ZM174.595 37.22C174.595 37.412 174.631 37.562 174.703 37.67C174.775 37.778 174.937 37.832 175.189 37.832H175.675V37.328C175.675 36.872 175.489 36.644 175.117 36.644C174.769 36.644 174.595 36.836 174.595 37.22ZM181.128 37.526C181.428 37.526 181.722 37.526 182.01 37.526C182.31 37.514 182.616 37.484 182.928 37.436C183.252 37.376 183.594 37.298 183.954 37.202C184.326 37.094 184.734 36.938 185.178 36.734C185.13 36.59 185.058 36.494 184.962 36.446C184.866 36.386 184.74 36.356 184.584 36.356H180.732L181.02 33.08H185.484C185.832 33.08 186.168 33.128 186.492 33.224C186.828 33.32 187.152 33.53 187.464 33.854C187.776 34.166 188.07 34.628 188.346 35.24C188.634 35.852 188.898 36.68 189.138 37.724L185.484 39.812C185.088 40.04 184.722 40.232 184.386 40.388C184.05 40.532 183.708 40.652 183.36 40.748C183.024 40.832 182.664 40.898 182.28 40.946C181.908 40.982 181.488 41 181.02 41H179.742C179.67 41 179.61 40.988 179.562 40.964C179.502 40.94 179.46 40.874 179.436 40.766C179.4 40.646 179.376 40.472 179.364 40.244C179.352 40.016 179.346 39.704 179.346 39.308C179.346 38.888 179.352 38.558 179.364 38.318C179.376 38.078 179.4 37.904 179.436 37.796C179.46 37.676 179.502 37.604 179.562 37.58C179.61 37.544 179.67 37.526 179.742 37.526H181.128ZM185.988 31.982H182.712V29.516H185.988V31.982ZM193.608 33.872L196.074 31.496L199.242 35.366C199.698 35.906 199.992 36.392 200.124 36.824C200.268 37.256 200.34 37.658 200.34 38.03C200.34 38.438 200.268 38.822 200.124 39.182C199.992 39.542 199.788 39.86 199.512 40.136C199.236 40.4 198.882 40.61 198.45 40.766C198.03 40.922 197.532 41 196.956 41H192.204L191.916 37.526H196.074C196.266 37.526 196.362 37.448 196.362 37.292C196.362 37.184 196.296 37.046 196.164 36.878L193.608 33.872ZM209.836 37.526C209.908 37.526 209.968 37.544 210.016 37.58C210.064 37.604 210.1 37.67 210.124 37.778C210.16 37.886 210.184 38.054 210.196 38.282C210.208 38.51 210.214 38.822 210.214 39.218C210.214 39.638 210.208 39.968 210.196 40.208C210.184 40.448 210.16 40.628 210.124 40.748C210.1 40.868 210.064 40.94 210.016 40.964C209.968 40.988 209.908 41 209.836 41H208.81C208.774 41.732 208.636 42.374 208.396 42.926C208.168 43.478 207.856 43.94 207.46 44.312C207.064 44.696 206.596 44.984 206.056 45.176C205.516 45.368 204.928 45.464 204.292 45.464H201.61L201.412 41.99H204.49C204.886 41.99 205.162 41.912 205.318 41.756C205.486 41.6 205.57 41.348 205.57 41H205.282C204.538 41 203.926 40.916 203.446 40.748C202.966 40.58 202.588 40.346 202.312 40.046C202.048 39.734 201.862 39.356 201.754 38.912C201.658 38.468 201.61 37.976 201.61 37.436C201.61 36.92 201.688 36.428 201.844 35.96C202 35.492 202.228 35.084 202.528 34.736C202.84 34.376 203.218 34.094 203.662 33.89C204.106 33.674 204.61 33.566 205.174 33.566C205.666 33.566 206.134 33.638 206.578 33.782C207.022 33.926 207.412 34.16 207.748 34.484C208.084 34.796 208.348 35.204 208.54 35.708C208.744 36.2 208.846 36.806 208.846 37.526H209.836ZM204.688 37.22C204.688 37.412 204.724 37.562 204.796 37.67C204.868 37.778 205.03 37.832 205.282 37.832H205.768V37.328C205.768 36.872 205.582 36.644 205.21 36.644C204.862 36.644 204.688 36.836 204.688 37.22ZM210.52 37.526C210.604 37.526 210.676 37.502 210.736 37.454C210.796 37.394 210.826 37.322 210.826 37.238V34.556H213.994V37.238C213.994 37.322 214.024 37.394 214.084 37.454C214.144 37.502 214.216 37.526 214.3 37.526C214.372 37.526 214.438 37.502 214.498 37.454C214.558 37.394 214.588 37.322 214.588 37.238V34.556H217.756V37.238C217.756 37.322 217.786 37.394 217.846 37.454C217.906 37.502 217.978 37.526 218.062 37.526C218.134 37.526 218.2 37.502 218.26 37.454C218.32 37.394 218.35 37.322 218.35 37.238V34.556H221.518V37.526C221.518 38.126 221.422 38.642 221.23 39.074C221.038 39.506 220.78 39.866 220.456 40.154C220.132 40.442 219.76 40.658 219.34 40.802C218.932 40.934 218.506 41 218.062 41C217.81 41 217.51 40.964 217.162 40.892C216.814 40.82 216.52 40.658 216.28 40.406C215.968 40.658 215.674 40.82 215.398 40.892C215.134 40.964 214.93 41 214.786 41H214.3C214.048 41 213.748 40.964 213.4 40.892C213.052 40.82 212.752 40.658 212.5 40.406C212.212 40.658 211.93 40.82 211.654 40.892C211.378 40.964 211.168 41 211.024 41H209.836C209.764 41 209.704 40.988 209.656 40.964C209.596 40.94 209.554 40.874 209.53 40.766C209.494 40.646 209.47 40.472 209.458 40.244C209.446 40.016 209.44 39.704 209.44 39.308C209.44 38.888 209.446 38.558 209.458 38.318C209.47 38.078 209.494 37.904 209.53 37.796C209.554 37.676 209.596 37.604 209.656 37.58C209.704 37.544 209.764 37.526 209.836 37.526H210.52Z" fill="white"/>
</g>
<g filter="url(#filter1_d_587_11699)">
<path d="M55.5935 68.45C55.5935 68.882 55.5095 69.278 55.3415 69.638C55.1855 69.998 54.9695 70.31 54.6935 70.574C54.4175 70.826 54.0935 71.024 53.7215 71.168C53.3615 71.312 52.9835 71.384 52.5875 71.384C52.1555 71.384 51.7535 71.312 51.3815 71.168C51.0095 71.024 50.6855 70.826 50.4095 70.574C50.1455 70.31 49.9355 69.998 49.7795 69.638C49.6355 69.278 49.5635 68.882 49.5635 68.45C49.5635 68.006 49.6355 67.604 49.7795 67.244C49.9355 66.872 50.1455 66.554 50.4095 66.29C50.6855 66.026 51.0095 65.828 51.3815 65.696C51.7535 65.552 52.1555 65.48 52.5875 65.48C53.0195 65.48 53.4215 65.552 53.7935 65.696C54.1655 65.828 54.4835 66.026 54.7475 66.29C55.0115 66.554 55.2155 66.872 55.3595 67.244C55.5155 67.604 55.5935 68.006 55.5935 68.45ZM53.0375 68.45C53.0375 68.03 52.9895 67.748 52.8935 67.604C52.8095 67.448 52.7075 67.37 52.5875 67.37C52.4555 67.37 52.3475 67.448 52.2635 67.604C52.1795 67.748 52.1375 68.03 52.1375 68.45C52.1375 68.87 52.1795 69.146 52.2635 69.278C52.3475 69.41 52.4555 69.476 52.5875 69.476C52.7075 69.476 52.8095 69.41 52.8935 69.278C52.9895 69.146 53.0375 68.87 53.0375 68.45ZM58.9955 66.02C59.0915 65.888 59.2055 65.786 59.3375 65.714C59.4815 65.63 59.7035 65.588 60.0035 65.588H62.2895L53.7575 76.568C53.6495 76.7 53.5115 76.808 53.3435 76.892C53.1755 76.964 52.9715 77 52.7315 77H50.3915L58.9955 66.02ZM63.2075 74.21C63.2075 74.642 63.1235 75.038 62.9555 75.398C62.7875 75.758 62.5595 76.07 62.2715 76.334C61.9955 76.586 61.6775 76.784 61.3175 76.928C60.9575 77.072 60.5795 77.144 60.1835 77.144C59.7515 77.144 59.3495 77.072 58.9775 76.928C58.6055 76.784 58.2875 76.586 58.0235 76.334C57.7595 76.07 57.5495 75.758 57.3935 75.398C57.2495 75.038 57.1775 74.642 57.1775 74.21C57.1775 73.766 57.2495 73.358 57.3935 72.986C57.5495 72.614 57.7595 72.302 58.0235 72.05C58.2875 71.786 58.6055 71.582 58.9775 71.438C59.3495 71.294 59.7515 71.222 60.1835 71.222C60.6155 71.222 61.0175 71.294 61.3895 71.438C61.7615 71.582 62.0795 71.786 62.3435 72.05C62.6195 72.302 62.8295 72.614 62.9735 72.986C63.1295 73.358 63.2075 73.766 63.2075 74.21ZM60.6515 74.21C60.6515 73.778 60.6035 73.49 60.5075 73.346C60.4235 73.19 60.3155 73.112 60.1835 73.112C60.0515 73.112 59.9435 73.19 59.8595 73.346C59.7875 73.49 59.7515 73.778 59.7515 74.21C59.7515 74.594 59.7875 74.858 59.8595 75.002C59.9435 75.146 60.0515 75.218 60.1835 75.218C60.3155 75.218 60.4235 75.146 60.5075 75.002C60.6035 74.858 60.6515 74.594 60.6515 74.21ZM67.9565 70.772C67.9205 70.568 67.8965 70.418 67.8845 70.322C67.8725 70.214 67.8665 70.094 67.8665 69.962C67.8665 69.506 67.9445 69.086 68.1005 68.702C68.2685 68.318 68.4965 67.988 68.7845 67.712C69.0725 67.424 69.4085 67.202 69.7925 67.046C70.1765 66.89 70.5905 66.812 71.0345 66.812C71.3345 66.812 71.6705 66.842 72.0425 66.902C72.4145 66.962 72.8705 67.094 73.4105 67.298L72.7085 70.16C72.2645 70.076 71.9465 70.022 71.7545 69.998C71.5625 69.974 71.3885 69.962 71.2325 69.962C70.8365 69.962 70.6385 70.112 70.6385 70.412C70.6385 70.712 70.8065 70.862 71.1425 70.862C71.4185 70.862 71.7185 70.82 72.0425 70.736C72.3665 70.652 72.7205 70.562 73.1045 70.466L73.8065 73.328C73.0625 73.58 72.3725 73.76 71.7365 73.868C71.1125 73.976 70.5485 74.03 70.0445 74.03C69.7085 74.03 69.3245 74.012 68.8925 73.976C68.4605 73.928 68.0525 73.838 67.6685 73.706V77.99H64.4105V73.634C64.4105 73.07 64.3925 72.554 64.3565 72.086C64.3205 71.606 64.2605 71.144 64.1765 70.7C64.1045 70.256 64.0085 69.818 63.8885 69.386C63.7805 68.942 63.6545 68.474 63.5105 67.982L66.6785 66.902L67.4705 70.358C67.5065 70.514 67.5545 70.622 67.6145 70.682C67.6745 70.742 67.7885 70.772 67.9565 70.772ZM78.4769 69.278C78.9449 69.278 79.4009 69.38 79.8449 69.584C80.3009 69.788 80.7029 70.058 81.0509 70.394C81.4109 70.73 81.6989 71.12 81.9149 71.564C82.1309 72.008 82.2389 72.464 82.2389 72.932C82.2389 73.412 82.1309 73.874 81.9149 74.318C81.6989 74.75 81.4109 75.14 81.0509 75.488C80.7029 75.824 80.3009 76.094 79.8449 76.298C79.4009 76.502 78.9449 76.604 78.4769 76.604C77.9969 76.604 77.5289 76.502 77.0729 76.298C76.6289 76.094 76.2269 75.824 75.8669 75.488C75.5189 75.14 75.2369 74.75 75.0209 74.318C74.8169 73.874 74.7149 73.412 74.7149 72.932C74.7149 72.464 74.8169 72.008 75.0209 71.564C75.2369 71.12 75.5189 70.73 75.8669 70.394C76.2269 70.058 76.6289 69.788 77.0729 69.584C77.5289 69.38 77.9969 69.278 78.4769 69.278ZM78.4769 73.526C78.6329 73.526 78.7649 73.466 78.8729 73.346C78.9929 73.226 79.0529 73.088 79.0529 72.932C79.0529 72.776 78.9929 72.644 78.8729 72.536C78.7649 72.416 78.6329 72.356 78.4769 72.356C78.3089 72.356 78.1649 72.416 78.0449 72.536C77.9369 72.644 77.8829 72.776 77.8829 72.932C77.8829 73.088 77.9369 73.226 78.0449 73.346C78.1649 73.466 78.3089 73.526 78.4769 73.526ZM90.2145 76.208C90.2145 76.88 90.1005 77.516 89.8725 78.116C89.6445 78.716 89.3265 79.238 88.9185 79.682C88.5105 80.138 88.0185 80.498 87.4425 80.762C86.8785 81.026 86.2485 81.158 85.5525 81.158H83.5725L83.2665 77.702H85.1565C85.8045 77.702 86.2605 77.57 86.5245 77.306C86.8005 77.042 86.9385 76.712 86.9385 76.316V70.556H90.2145V76.208ZM90.2145 69.566H86.9385V67.1H90.2145V69.566ZM91.2932 66.02H94.5692V77H91.2932V66.02ZM108.13 70.556V73.238C108.13 73.322 108.16 73.394 108.22 73.454C108.28 73.502 108.352 73.526 108.436 73.526C108.628 73.526 108.724 73.43 108.724 73.238V70.556H111.91V73.238C111.91 73.43 112.006 73.526 112.198 73.526C112.282 73.526 112.354 73.502 112.414 73.454C112.474 73.394 112.504 73.322 112.504 73.238V70.556H115.654V73.238C115.654 73.322 115.684 73.394 115.744 73.454C115.804 73.502 115.876 73.526 115.96 73.526H116.644C116.716 73.526 116.776 73.544 116.824 73.58C116.884 73.604 116.926 73.67 116.95 73.778C116.986 73.886 117.01 74.054 117.022 74.282C117.034 74.51 117.04 74.822 117.04 75.218C117.04 75.638 117.034 75.968 117.022 76.208C117.01 76.448 116.986 76.628 116.95 76.748C116.926 76.868 116.884 76.94 116.824 76.964C116.776 76.988 116.716 77 116.644 77H116.086C115.678 77 115.318 76.964 115.006 76.892C114.706 76.82 114.43 76.658 114.178 76.406C113.878 76.658 113.56 76.82 113.224 76.892C112.888 76.964 112.546 77 112.198 77C111.958 77 111.664 76.964 111.316 76.892C110.968 76.82 110.668 76.658 110.416 76.406C110.116 76.658 109.828 76.82 109.552 76.892C109.288 76.964 109.078 77 108.922 77C108.682 77 108.442 76.976 108.202 76.928C107.974 76.88 107.788 76.808 107.644 76.712L108.13 75.902C108.13 76.598 108.022 77.252 107.806 77.864C107.59 78.476 107.272 79.01 106.852 79.466C106.444 79.934 105.94 80.3 105.34 80.564C104.74 80.828 104.056 80.96 103.288 80.96H102.388C101.644 80.96 100.978 80.846 100.39 80.618C99.8144 80.39 99.3224 80.06 98.9144 79.628C98.5064 79.208 98.1944 78.692 97.9784 78.08C97.7624 77.468 97.6544 76.778 97.6544 76.01V72.248H100.912V76.1C100.912 76.556 101.044 76.904 101.308 77.144C101.572 77.384 101.998 77.504 102.586 77.504H103.18C103.828 77.504 104.29 77.372 104.566 77.108C104.842 76.844 104.98 76.508 104.98 76.1V70.556H108.13ZM111.496 66.596H108.922V64.13H111.496V66.596ZM112.792 69.566H107.644V67.1H112.792V69.566ZM117.329 73.526C117.413 73.526 117.485 73.502 117.545 73.454C117.605 73.394 117.635 73.322 117.635 73.238V70.556H120.911V73.238C120.911 73.43 121.007 73.526 121.199 73.526H121.883C121.955 73.526 122.015 73.544 122.063 73.58C122.123 73.604 122.165 73.67 122.189 73.778C122.225 73.886 122.249 74.054 122.261 74.282C122.273 74.51 122.279 74.822 122.279 75.218C122.279 75.638 122.273 75.968 122.261 76.208C122.249 76.448 122.225 76.628 122.189 76.748C122.165 76.868 122.123 76.94 122.063 76.964C122.015 76.988 121.955 77 121.883 77H121.325C120.917 77 120.539 76.964 120.191 76.892C119.855 76.82 119.561 76.658 119.309 76.406C119.021 76.658 118.727 76.82 118.427 76.892C118.139 76.964 117.875 77 117.635 77H116.645C116.573 77 116.513 76.988 116.465 76.964C116.405 76.94 116.363 76.874 116.339 76.766C116.303 76.646 116.279 76.472 116.267 76.244C116.255 76.016 116.249 75.704 116.249 75.308C116.249 74.888 116.255 74.558 116.267 74.318C116.279 74.078 116.303 73.904 116.339 73.796C116.363 73.676 116.405 73.604 116.465 73.58C116.513 73.544 116.573 73.526 116.645 73.526H117.329ZM121.793 80.456H116.645V77.972H121.793V80.456ZM122.981 73.526C123.053 73.526 123.119 73.502 123.179 73.454C123.239 73.394 123.269 73.322 123.269 73.238V70.556H126.527V73.526C126.527 74.102 126.443 74.606 126.275 75.038C126.119 75.47 125.897 75.83 125.609 76.118C125.321 76.406 124.973 76.628 124.565 76.784C124.169 76.928 123.737 77 123.269 77H121.883C121.811 77 121.751 76.988 121.703 76.964C121.643 76.94 121.601 76.874 121.577 76.766C121.541 76.646 121.517 76.472 121.505 76.244C121.493 76.016 121.487 75.704 121.487 75.308C121.487 74.888 121.493 74.558 121.505 74.318C121.517 74.078 121.541 73.904 121.577 73.796C121.601 73.676 121.643 73.604 121.703 73.58C121.751 73.544 121.811 73.526 121.883 73.526H122.981ZM125.951 80.456H122.675V77.972H125.951V80.456ZM136.742 73.238C136.742 73.322 136.772 73.394 136.832 73.454C136.892 73.502 136.964 73.526 137.048 73.526H137.732C137.804 73.526 137.864 73.544 137.912 73.58C137.972 73.604 138.014 73.67 138.038 73.778C138.074 73.886 138.098 74.054 138.11 74.282C138.122 74.51 138.128 74.822 138.128 75.218C138.128 75.638 138.122 75.968 138.11 76.208C138.098 76.448 138.074 76.628 138.038 76.748C138.014 76.868 137.972 76.94 137.912 76.964C137.864 76.988 137.804 77 137.732 77H136.94C136.496 77 136.07 76.916 135.662 76.748C135.266 76.568 134.966 76.226 134.762 75.722C134.462 75.962 134.15 76.124 133.826 76.208C133.514 76.28 133.136 76.316 132.692 76.316C132.224 76.316 131.792 76.25 131.396 76.118C131.012 75.974 130.676 75.758 130.388 75.47C130.112 75.17 129.896 74.798 129.74 74.354C129.596 73.898 129.524 73.358 129.524 72.734C129.524 72.266 129.602 71.804 129.758 71.348C129.926 70.88 130.154 70.466 130.442 70.106C130.742 69.746 131.102 69.452 131.522 69.224C131.954 68.996 132.44 68.882 132.98 68.882H133.484V67.784H136.742V73.238ZM132.584 72.644C132.584 72.848 132.626 72.98 132.71 73.04C132.806 73.1 132.932 73.13 133.088 73.13C133.292 73.13 133.436 73.088 133.52 73.004C133.616 72.908 133.664 72.788 133.664 72.644V72.05H133.178C132.782 72.05 132.584 72.248 132.584 72.644ZM138.836 73.526C138.908 73.526 138.974 73.502 139.034 73.454C139.094 73.394 139.124 73.322 139.124 73.238V70.556H142.382V73.526C142.382 74.102 142.298 74.606 142.13 75.038C141.974 75.47 141.752 75.83 141.464 76.118C141.176 76.406 140.828 76.628 140.42 76.784C140.024 76.928 139.592 77 139.124 77H137.738C137.666 77 137.606 76.988 137.558 76.964C137.498 76.94 137.456 76.874 137.432 76.766C137.396 76.646 137.372 76.472 137.36 76.244C137.348 76.016 137.342 75.704 137.342 75.308C137.342 74.888 137.348 74.558 137.36 74.318C137.372 74.078 137.396 73.904 137.432 73.796C137.456 73.676 137.498 73.604 137.558 73.58C137.606 73.544 137.666 73.526 137.738 73.526H138.836ZM142.4 69.566H139.124V67.1H142.4V69.566ZM151.182 66.02V73.526C151.182 74.126 151.098 74.642 150.93 75.074C150.774 75.506 150.546 75.866 150.246 76.154C149.958 76.442 149.61 76.658 149.202 76.802C148.806 76.934 148.374 77 147.906 77H143.658V66.02H146.934V73.526H147.618C147.81 73.526 147.906 73.43 147.906 73.238V66.02H151.182ZM156.625 73.526C156.697 73.526 156.757 73.544 156.805 73.58C156.865 73.604 156.907 73.67 156.931 73.778C156.967 73.886 156.991 74.054 157.003 74.282C157.015 74.51 157.021 74.822 157.021 75.218C157.021 75.638 157.015 75.968 157.003 76.208C156.991 76.448 156.967 76.628 156.931 76.748C156.907 76.868 156.865 76.94 156.805 76.964C156.757 76.988 156.697 77 156.625 77H155.743C155.119 77 154.591 76.91 154.159 76.73C153.739 76.538 153.397 76.286 153.133 75.974C152.869 75.662 152.677 75.296 152.557 74.876C152.437 74.444 152.377 73.994 152.377 73.526V66.02H155.653V73.238C155.653 73.43 155.749 73.526 155.941 73.526H156.625ZM157.301 73.526C157.385 73.526 157.457 73.502 157.517 73.454C157.577 73.394 157.607 73.322 157.607 73.238V70.556H160.775V73.238C160.775 73.322 160.805 73.394 160.865 73.454C160.925 73.502 160.997 73.526 161.081 73.526C161.153 73.526 161.219 73.502 161.279 73.454C161.339 73.394 161.369 73.322 161.369 73.238V70.556H164.537V73.238C164.537 73.322 164.567 73.394 164.627 73.454C164.687 73.502 164.759 73.526 164.843 73.526C164.915 73.526 164.981 73.502 165.041 73.454C165.101 73.394 165.131 73.322 165.131 73.238V70.556H168.299V73.526C168.299 74.126 168.203 74.642 168.011 75.074C167.819 75.506 167.561 75.866 167.237 76.154C166.913 76.442 166.541 76.658 166.121 76.802C165.713 76.934 165.287 77 164.843 77C164.591 77 164.291 76.964 163.943 76.892C163.595 76.82 163.301 76.658 163.061 76.406C162.749 76.658 162.455 76.82 162.179 76.892C161.915 76.964 161.711 77 161.567 77H161.081C160.829 77 160.529 76.964 160.181 76.892C159.833 76.82 159.533 76.658 159.281 76.406C158.993 76.658 158.711 76.82 158.435 76.892C158.159 76.964 157.949 77 157.805 77H156.617C156.545 77 156.485 76.988 156.437 76.964C156.377 76.94 156.335 76.874 156.311 76.766C156.275 76.646 156.251 76.472 156.239 76.244C156.227 76.016 156.221 75.704 156.221 75.308C156.221 74.888 156.227 74.558 156.239 74.318C156.251 74.078 156.275 73.904 156.311 73.796C156.335 73.676 156.377 73.604 156.437 73.58C156.485 73.544 156.545 73.526 156.617 73.526H157.301ZM172.856 69.872L175.322 67.496L178.49 71.366C178.946 71.906 179.24 72.392 179.372 72.824C179.516 73.256 179.588 73.658 179.588 74.03C179.588 74.438 179.516 74.822 179.372 75.182C179.24 75.542 179.036 75.86 178.76 76.136C178.484 76.4 178.13 76.61 177.698 76.766C177.278 76.922 176.78 77 176.204 77H171.452L171.164 73.526H175.322C175.514 73.526 175.61 73.448 175.61 73.292C175.61 73.184 175.544 73.046 175.412 72.878L172.856 69.872ZM189.084 73.526C189.156 73.526 189.216 73.544 189.264 73.58C189.312 73.604 189.348 73.67 189.372 73.778C189.408 73.886 189.432 74.054 189.444 74.282C189.456 74.51 189.462 74.822 189.462 75.218C189.462 75.638 189.456 75.968 189.444 76.208C189.432 76.448 189.408 76.628 189.372 76.748C189.348 76.868 189.312 76.94 189.264 76.964C189.216 76.988 189.156 77 189.084 77H188.058C188.022 77.732 187.884 78.374 187.644 78.926C187.416 79.478 187.104 79.94 186.708 80.312C186.312 80.696 185.844 80.984 185.304 81.176C184.764 81.368 184.176 81.464 183.54 81.464H180.858L180.66 77.99H183.738C184.134 77.99 184.41 77.912 184.566 77.756C184.734 77.6 184.818 77.348 184.818 77H184.53C183.786 77 183.174 76.916 182.694 76.748C182.214 76.58 181.836 76.346 181.56 76.046C181.296 75.734 181.11 75.356 181.002 74.912C180.906 74.468 180.858 73.976 180.858 73.436C180.858 72.92 180.936 72.428 181.092 71.96C181.248 71.492 181.476 71.084 181.776 70.736C182.088 70.376 182.466 70.094 182.91 69.89C183.354 69.674 183.858 69.566 184.422 69.566C184.914 69.566 185.382 69.638 185.826 69.782C186.27 69.926 186.66 70.16 186.996 70.484C187.332 70.796 187.596 71.204 187.788 71.708C187.992 72.2 188.094 72.806 188.094 73.526H189.084ZM183.936 73.22C183.936 73.412 183.972 73.562 184.044 73.67C184.116 73.778 184.278 73.832 184.53 73.832H185.016V73.328C185.016 72.872 184.83 72.644 184.458 72.644C184.11 72.644 183.936 72.836 183.936 73.22ZM189.768 73.526C189.852 73.526 189.924 73.502 189.984 73.454C190.044 73.394 190.074 73.322 190.074 73.238V70.556H193.242V73.238C193.242 73.322 193.272 73.394 193.332 73.454C193.392 73.502 193.464 73.526 193.548 73.526C193.62 73.526 193.686 73.502 193.746 73.454C193.806 73.394 193.836 73.322 193.836 73.238V70.556H197.004V73.238C197.004 73.322 197.034 73.394 197.094 73.454C197.154 73.502 197.226 73.526 197.31 73.526C197.382 73.526 197.448 73.502 197.508 73.454C197.568 73.394 197.598 73.322 197.598 73.238V70.556H200.766V73.526C200.766 74.126 200.67 74.642 200.478 75.074C200.286 75.506 200.028 75.866 199.704 76.154C199.38 76.442 199.008 76.658 198.588 76.802C198.18 76.934 197.754 77 197.31 77C197.058 77 196.758 76.964 196.41 76.892C196.062 76.82 195.768 76.658 195.528 76.406C195.216 76.658 194.922 76.82 194.646 76.892C194.382 76.964 194.178 77 194.034 77H193.548C193.296 77 192.996 76.964 192.648 76.892C192.3 76.82 192 76.658 191.748 76.406C191.46 76.658 191.178 76.82 190.902 76.892C190.626 76.964 190.416 77 190.272 77H189.084C189.012 77 188.952 76.988 188.904 76.964C188.844 76.94 188.802 76.874 188.778 76.766C188.742 76.646 188.718 76.472 188.706 76.244C188.694 76.016 188.688 75.704 188.688 75.308C188.688 74.888 188.694 74.558 188.706 74.318C188.718 74.078 188.742 73.904 188.778 73.796C188.802 73.676 188.844 73.604 188.904 73.58C188.952 73.544 189.012 73.526 189.084 73.526H189.768ZM208.274 76.712L208.58 73.526H215.51C215.582 73.526 215.642 73.544 215.69 73.58C215.738 73.604 215.78 73.67 215.816 73.778C215.852 73.886 215.876 74.054 215.888 74.282C215.9 74.51 215.906 74.822 215.906 75.218C215.906 75.638 215.9 75.968 215.888 76.208C215.876 76.448 215.852 76.628 215.816 76.748C215.78 76.868 215.738 76.94 215.69 76.964C215.642 76.988 215.582 77 215.51 77H214.7C214.652 77.588 214.502 78.122 214.25 78.602C214.01 79.094 213.68 79.514 213.26 79.862C212.84 80.21 212.336 80.48 211.748 80.672C211.16 80.864 210.5 80.96 209.768 80.96H208.472C207.728 80.96 207.062 80.846 206.474 80.618C205.898 80.39 205.406 80.06 204.998 79.628C204.59 79.208 204.278 78.692 204.062 78.08C203.846 77.468 203.738 76.778 203.738 76.01V72.248H206.996V76.1C206.996 76.556 207.128 76.904 207.392 77.144C207.656 77.384 208.082 77.504 208.67 77.504H210.272C210.62 77.504 210.92 77.468 211.172 77.396C211.424 77.336 211.55 77.204 211.55 77C211.55 76.808 211.454 76.712 211.262 76.712H208.274ZM216.188 73.526C216.272 73.526 216.344 73.502 216.404 73.454C216.464 73.394 216.494 73.322 216.494 73.238V70.556H219.77V73.238C219.77 73.43 219.866 73.526 220.058 73.526H220.742C220.814 73.526 220.874 73.544 220.922 73.58C220.982 73.604 221.024 73.67 221.048 73.778C221.084 73.886 221.108 74.054 221.12 74.282C221.132 74.51 221.138 74.822 221.138 75.218C221.138 75.638 221.132 75.968 221.12 76.208C221.108 76.448 221.084 76.628 221.048 76.748C221.024 76.868 220.982 76.94 220.922 76.964C220.874 76.988 220.814 77 220.742 77H220.184C219.776 77 219.398 76.964 219.05 76.892C218.714 76.82 218.42 76.658 218.168 76.406C217.88 76.658 217.586 76.82 217.286 76.892C216.998 76.964 216.734 77 216.494 77H215.504C215.432 77 215.372 76.988 215.324 76.964C215.264 76.94 215.222 76.874 215.198 76.766C215.162 76.646 215.138 76.472 215.126 76.244C215.114 76.016 215.108 75.704 215.108 75.308C215.108 74.888 215.114 74.558 215.126 74.318C215.138 74.078 215.162 73.904 215.198 73.796C215.222 73.676 215.264 73.604 215.324 73.58C215.372 73.544 215.432 73.526 215.504 73.526H216.188ZM219.77 69.566H216.494V67.1H219.77V69.566ZM221.426 73.526C221.51 73.526 221.582 73.502 221.642 73.454C221.702 73.394 221.732 73.322 221.732 73.238V70.556H225.008V73.238C225.008 73.43 225.104 73.526 225.296 73.526H225.98C226.052 73.526 226.112 73.544 226.16 73.58C226.22 73.604 226.262 73.67 226.286 73.778C226.322 73.886 226.346 74.054 226.358 74.282C226.37 74.51 226.376 74.822 226.376 75.218C226.376 75.638 226.37 75.968 226.358 76.208C226.346 76.448 226.322 76.628 226.286 76.748C226.262 76.868 226.22 76.94 226.16 76.964C226.112 76.988 226.052 77 225.98 77H225.422C225.014 77 224.636 76.964 224.288 76.892C223.952 76.82 223.658 76.658 223.406 76.406C223.118 76.658 222.824 76.82 222.524 76.892C222.236 76.964 221.972 77 221.732 77H220.742C220.67 77 220.61 76.988 220.562 76.964C220.502 76.94 220.46 76.874 220.436 76.766C220.4 76.646 220.376 76.472 220.364 76.244C220.352 76.016 220.346 75.704 220.346 75.308C220.346 74.888 220.352 74.558 220.364 74.318C220.376 74.078 220.4 73.904 220.436 73.796C220.46 73.676 220.502 73.604 220.562 73.58C220.61 73.544 220.67 73.526 220.742 73.526H221.426ZM225.89 80.456H220.742V77.972H225.89V80.456ZM227.078 73.526C227.15 73.526 227.216 73.502 227.276 73.454C227.336 73.394 227.366 73.322 227.366 73.238V70.556H230.624V73.526C230.624 74.102 230.54 74.606 230.372 75.038C230.216 75.47 229.994 75.83 229.706 76.118C229.418 76.406 229.07 76.628 228.662 76.784C228.266 76.928 227.834 77 227.366 77H225.98C225.908 77 225.848 76.988 225.8 76.964C225.74 76.94 225.698 76.874 225.674 76.766C225.638 76.646 225.614 76.472 225.602 76.244C225.59 76.016 225.584 75.704 225.584 75.308C225.584 74.888 225.59 74.558 225.602 74.318C225.614 74.078 225.638 73.904 225.674 73.796C225.698 73.676 225.74 73.604 225.8 73.58C225.848 73.544 225.908 73.526 225.98 73.526H227.078ZM230.048 80.456H226.772V77.972H230.048V80.456ZM244.097 70.556V73.238C244.097 73.322 244.127 73.394 244.187 73.454C244.247 73.502 244.319 73.526 244.403 73.526C244.595 73.526 244.691 73.43 244.691 73.238V70.556H247.877V73.238C247.877 73.43 247.973 73.526 248.165 73.526C248.249 73.526 248.321 73.502 248.381 73.454C248.441 73.394 248.471 73.322 248.471 73.238V70.556H251.621V73.238C251.621 73.322 251.651 73.394 251.711 73.454C251.771 73.502 251.843 73.526 251.927 73.526H252.611C252.683 73.526 252.743 73.544 252.791 73.58C252.851 73.604 252.893 73.67 252.917 73.778C252.953 73.886 252.977 74.054 252.989 74.282C253.001 74.51 253.007 74.822 253.007 75.218C253.007 75.638 253.001 75.968 252.989 76.208C252.977 76.448 252.953 76.628 252.917 76.748C252.893 76.868 252.851 76.94 252.791 76.964C252.743 76.988 252.683 77 252.611 77H252.053C251.645 77 251.285 76.964 250.973 76.892C250.673 76.82 250.397 76.658 250.145 76.406C249.845 76.658 249.527 76.82 249.191 76.892C248.855 76.964 248.513 77 248.165 77C247.925 77 247.631 76.964 247.283 76.892C246.935 76.82 246.635 76.658 246.383 76.406C246.083 76.658 245.795 76.82 245.519 76.892C245.255 76.964 245.045 77 244.889 77C244.649 77 244.409 76.976 244.169 76.928C243.941 76.88 243.755 76.808 243.611 76.712L244.097 75.902C244.097 76.598 243.989 77.252 243.773 77.864C243.557 78.476 243.239 79.01 242.819 79.466C242.411 79.934 241.907 80.3 241.307 80.564C240.707 80.828 240.023 80.96 239.255 80.96H238.355C237.611 80.96 236.945 80.846 236.357 80.618C235.781 80.39 235.289 80.06 234.881 79.628C234.473 79.208 234.161 78.692 233.945 78.08C233.729 77.468 233.621 76.778 233.621 76.01V72.248H236.879V76.1C236.879 76.556 237.011 76.904 237.275 77.144C237.539 77.384 237.965 77.504 238.553 77.504H239.147C239.795 77.504 240.257 77.372 240.533 77.108C240.809 76.844 240.947 76.508 240.947 76.1V70.556H244.097ZM247.463 66.596H244.889V64.13H247.463V66.596ZM248.759 69.566H243.611V67.1H248.759V69.566ZM253.295 73.526C253.379 73.526 253.451 73.502 253.511 73.454C253.571 73.394 253.601 73.322 253.601 73.238V70.556H256.877V73.238C256.877 73.43 256.973 73.526 257.165 73.526H257.849C257.921 73.526 257.981 73.544 258.029 73.58C258.089 73.604 258.131 73.67 258.155 73.778C258.191 73.886 258.215 74.054 258.227 74.282C258.239 74.51 258.245 74.822 258.245 75.218C258.245 75.638 258.239 75.968 258.227 76.208C258.215 76.448 258.191 76.628 258.155 76.748C258.131 76.868 258.089 76.94 258.029 76.964C257.981 76.988 257.921 77 257.849 77H257.291C256.883 77 256.505 76.964 256.157 76.892C255.821 76.82 255.527 76.658 255.275 76.406C254.987 76.658 254.693 76.82 254.393 76.892C254.105 76.964 253.841 77 253.601 77H252.611C252.539 77 252.479 76.988 252.431 76.964C252.371 76.94 252.329 76.874 252.305 76.766C252.269 76.646 252.245 76.472 252.233 76.244C252.221 76.016 252.215 75.704 252.215 75.308C252.215 74.888 252.221 74.558 252.233 74.318C252.245 74.078 252.269 73.904 252.305 73.796C252.329 73.676 252.371 73.604 252.431 73.58C252.479 73.544 252.539 73.526 252.611 73.526H253.295ZM257.759 80.456H252.611V77.972H257.759V80.456ZM258.948 73.526C259.02 73.526 259.086 73.502 259.146 73.454C259.206 73.394 259.236 73.322 259.236 73.238V70.556H262.494V73.526C262.494 74.102 262.41 74.606 262.242 75.038C262.086 75.47 261.864 75.83 261.576 76.118C261.288 76.406 260.94 76.628 260.532 76.784C260.136 76.928 259.704 77 259.236 77H257.85C257.778 77 257.718 76.988 257.67 76.964C257.61 76.94 257.568 76.874 257.544 76.766C257.508 76.646 257.484 76.472 257.472 76.244C257.46 76.016 257.454 75.704 257.454 75.308C257.454 74.888 257.46 74.558 257.472 74.318C257.484 74.078 257.508 73.904 257.544 73.796C257.568 73.676 257.61 73.604 257.67 73.58C257.718 73.544 257.778 73.526 257.85 73.526H258.948ZM261.702 83.426H259.128V80.942H261.702V83.426ZM262.998 80.456H257.85V77.972H262.998V80.456Z" fill="white"/>
</g>
<g filter="url(#filter2_d_587_11699)">
<path d="M132.18 137.513C133.604 137.513 134.979 137.832 136.304 138.471C137.679 139.06 138.907 139.87 139.987 140.901C141.067 141.932 141.927 143.135 142.565 144.51C143.203 145.836 143.522 147.211 143.522 148.635C143.522 150.059 143.203 151.434 142.565 152.759C141.927 154.085 141.067 155.263 139.987 156.295C138.907 157.326 137.679 158.136 136.304 158.725C134.979 159.363 133.604 159.683 132.18 159.683C130.756 159.683 129.356 159.363 127.982 158.725C126.607 158.136 125.379 157.326 124.299 156.295C123.268 155.263 122.433 154.085 121.795 152.759C121.156 151.434 120.837 150.059 120.837 148.635C120.837 147.211 121.156 145.836 121.795 144.51C122.433 143.135 123.268 141.932 124.299 140.901C125.379 139.87 126.607 139.06 127.982 138.471C129.356 137.832 130.756 137.513 132.18 137.513ZM132.18 150.329C132.622 150.329 132.99 150.157 133.285 149.813C133.628 149.469 133.8 149.101 133.8 148.708C133.8 148.266 133.628 147.898 133.285 147.604C132.99 147.26 132.622 147.088 132.18 147.088C131.738 147.088 131.345 147.26 131.001 147.604C130.707 147.898 130.559 148.266 130.559 148.708C130.559 149.101 130.707 149.469 131.001 149.813C131.345 150.157 131.738 150.329 132.18 150.329ZM125.33 110.63L136.231 117.553L107.874 162.113L96.9736 155.19L125.33 110.63ZM101.024 135.156C99.6005 135.156 98.2011 134.862 96.8263 134.272C95.5005 133.634 94.2975 132.799 93.2173 131.768C92.137 130.737 91.2777 129.559 90.6394 128.233C90.0011 126.907 89.6819 125.532 89.6819 124.108C89.6819 122.684 90.0011 121.309 90.6394 119.984C91.2777 118.658 92.137 117.479 93.2173 116.448C94.2975 115.417 95.5005 114.607 96.8263 114.018C98.2011 113.379 99.6005 113.06 101.024 113.06C102.448 113.06 103.823 113.379 105.149 114.018C106.524 114.607 107.727 115.417 108.758 116.448C109.838 117.479 110.698 118.658 111.336 119.984C111.974 121.309 112.293 122.684 112.293 124.108C112.293 125.532 111.974 126.907 111.336 128.233C110.698 129.559 109.838 130.737 108.758 131.768C107.727 132.799 106.524 133.634 105.149 134.272C103.823 134.862 102.448 135.156 101.024 135.156ZM101.024 122.341C100.533 122.341 100.116 122.512 99.7724 122.856C99.4778 123.2 99.3305 123.568 99.3305 123.961C99.3305 124.452 99.4778 124.845 99.7724 125.139C100.116 125.434 100.533 125.581 101.024 125.581C101.466 125.581 101.835 125.434 102.129 125.139C102.473 124.845 102.645 124.452 102.645 123.961C102.645 123.568 102.473 123.2 102.129 122.856C101.835 122.512 101.466 122.341 101.024 122.341ZM164.595 130.516C164.448 129.681 164.35 129.067 164.301 128.675C164.252 128.233 164.227 127.742 164.227 127.202C164.227 125.336 164.546 123.617 165.184 122.046C165.872 120.475 166.805 119.124 167.983 117.995C169.162 116.817 170.537 115.908 172.108 115.27C173.679 114.631 175.373 114.312 177.19 114.312C178.417 114.312 179.792 114.435 181.314 114.681C182.837 114.926 184.703 115.466 186.912 116.301L184.04 128.012C182.223 127.668 180.922 127.447 180.136 127.349C179.35 127.251 178.638 127.202 178 127.202C176.38 127.202 175.57 127.815 175.57 129.043C175.57 130.27 176.257 130.884 177.632 130.884C178.761 130.884 179.989 130.712 181.314 130.369C182.64 130.025 184.089 129.657 185.66 129.264L188.532 140.975C185.488 142.006 182.665 142.742 180.062 143.184C177.509 143.626 175.201 143.847 173.139 143.847C171.764 143.847 170.193 143.774 168.425 143.626C166.658 143.43 164.988 143.062 163.417 142.521V160.051H150.086V142.227C150.086 139.919 150.012 137.808 149.865 135.893C149.717 133.929 149.472 132.038 149.128 130.221C148.833 128.405 148.441 126.612 147.95 124.845C147.508 123.028 146.992 121.113 146.403 119.1L159.366 114.681L162.607 128.822C162.754 129.46 162.95 129.902 163.196 130.148C163.441 130.393 163.908 130.516 164.595 130.516ZM207.643 124.403C209.558 124.403 211.424 124.82 213.241 125.655C215.107 126.49 216.752 127.594 218.176 128.969C219.649 130.344 220.827 131.94 221.711 133.757C222.595 135.574 223.037 137.439 223.037 139.354C223.037 141.318 222.595 143.209 221.711 145.026C220.827 146.793 219.649 148.389 218.176 149.813C216.752 151.188 215.107 152.293 213.241 153.128C211.424 153.962 209.558 154.38 207.643 154.38C205.679 154.38 203.764 153.962 201.898 153.128C200.081 152.293 198.437 151.188 196.963 149.813C195.54 148.389 194.386 146.793 193.502 145.026C192.667 143.209 192.25 141.318 192.25 139.354C192.25 137.439 192.667 135.574 193.502 133.757C194.386 131.94 195.54 130.344 196.963 128.969C198.437 127.594 200.081 126.49 201.898 125.655C203.764 124.82 205.679 124.403 207.643 124.403ZM207.643 141.785C208.282 141.785 208.822 141.539 209.264 141.048C209.755 140.557 210 139.993 210 139.354C210 138.716 209.755 138.176 209.264 137.734C208.822 137.243 208.282 136.997 207.643 136.997C206.956 136.997 206.367 137.243 205.876 137.734C205.434 138.176 205.213 138.716 205.213 139.354C205.213 139.993 205.434 140.557 205.876 141.048C206.367 141.539 206.956 141.785 207.643 141.785Z" fill="white"/>
</g>
<defs>
<filter id="filter0_d_587_11699" x="82.8086" y="22.7241" width="146.709" height="32.74" filterUnits="userSpaceOnUse" color-interpolation-filters="sRGB">
<feFlood flood-opacity="0" result="BackgroundImageFix"/>
<feColorMatrix in="SourceAlpha" type="matrix" values="0 0 0 0 0 0 0 0 0 0 0 0 0 0 0 0 0 0 127 0" result="hardAlpha"/>
<feOffset dy="2"/>
<feGaussianBlur stdDeviation="4"/>
<feComposite in2="hardAlpha" operator="out"/>
<feColorMatrix type="matrix" values="0 0 0 0 0 0 0 0 0 0 0 0 0 0 0 0 0 0 0.15 0"/>
<feBlend mode="normal" in2="BackgroundImageFix" result="effect1_dropShadow_587_11699"/>
<feBlend mode="normal" in="SourceGraphic" in2="effect1_dropShadow_587_11699" result="shape"/>
</filter>
<filter id="filter1_d_587_11699" x="41.5635" y="58.1299" width="229.435" height="35.2961" filterUnits="userSpaceOnUse" color-interpolation-filters="sRGB">
<feFlood flood-opacity="0" result="BackgroundImageFix"/>
<feColorMatrix in="SourceAlpha" type="matrix" values="0 0 0 0 0 0 0 0 0 0 0 0 0 0 0 0 0 0 127 0" result="hardAlpha"/>
<feOffset dy="2"/>
<feGaussianBlur stdDeviation="4"/>
<feComposite in2="hardAlpha" operator="out"/>
<feColorMatrix type="matrix" values="0 0 0 0 0 0 0 0 0 0 0 0 0 0 0 0 0 0 0.15 0"/>
<feBlend mode="normal" in2="BackgroundImageFix" result="effect1_dropShadow_587_11699"/>
<feBlend mode="normal" in="SourceGraphic" in2="effect1_dropShadow_587_11699" result="shape"/>
</filter>
<filter id="filter2_d_587_11699" x="81.6816" y="104.63" width="149.355" height="67.4836" filterUnits="userSpaceOnUse" color-interpolation-filters="sRGB">
<feFlood flood-opacity="0" result="BackgroundImageFix"/>
<feColorMatrix in="SourceAlpha" type="matrix" values="0 0 0 0 0 0 0 0 0 0 0 0 0 0 0 0 0 0 127 0" result="hardAlpha"/>
<feOffset dy="2"/>
<feGaussianBlur stdDeviation="4"/>
<feComposite in2="hardAlpha" operator="out"/>
<feColorMatrix type="matrix" values="0 0 0 0 0 0 0 0 0 0 0 0 0 0 0 0 0 0 0.15 0"/>
<feBlend mode="normal" in2="BackgroundImageFix" result="effect1_dropShadow_587_11699"/>
<feBlend mode="normal" in="SourceGraphic" in2="effect1_dropShadow_587_11699" result="shape"/>
</filter>
</defs>
</svg>
