<svg width="78" height="67" viewBox="0 0 78 67" fill="none" xmlns="http://www.w3.org/2000/svg">
<g clip-path="url(#clip0_1_28)">
<path d="M67.9167 16.9167L68.8333 17.8333M77.0833 16.9167L76.1667 17.8333M77.0833 26.0833L76.1667 25.1667M67.9167 26.0833L68.8333 25.1667M67.9167 23.3333H68.6042M70.6667 16.9167V17.6042M77.0833 19.6667H76.3958M74.3333 26.0833V25.3958M75.25 23.3333H76.8542M74.3333 16.9167V18.75M67.9167 19.6667H69.75M70.6667 26.0833V24.25M74.3333 21.5C74.3333 22.5125 73.5125 23.3333 72.5 23.3333C71.4875 23.3333 70.6667 22.5125 70.6667 21.5C70.6667 20.4875 71.4875 19.6667 72.5 19.6667C73.5125 19.6667 74.3333 20.4875 74.3333 21.5Z" stroke="#01B69B" stroke-width="1.5" stroke-linecap="round" stroke-linejoin="round"/>
</g>
<g clip-path="url(#clip1_1_28)">
<path d="M51.9167 0.916668L52.8333 1.83333M61.0833 0.916668L60.1667 1.83333M61.0833 10.0833L60.1667 9.16667M51.9167 10.0833L52.8333 9.16667M51.9167 7.33333H52.6042M54.6667 0.916668V1.60417M61.0833 3.66667H60.3958M58.3333 10.0833V9.39583M59.25 7.33333H60.8542M58.3333 0.916668V2.75M51.9167 3.66667H53.75M54.6667 10.0833V8.25M58.3333 5.5C58.3333 6.51252 57.5125 7.33333 56.5 7.33333C55.4875 7.33333 54.6667 6.51252 54.6667 5.5C54.6667 4.48748 55.4875 3.66667 56.5 3.66667C57.5125 3.66667 58.3333 4.48748 58.3333 5.5Z" stroke="#01B69B" stroke-width="1.5" stroke-linecap="round" stroke-linejoin="round"/>
</g>
<g clip-path="url(#clip2_1_28)">
<path d="M0.916672 33.9167L1.83334 34.8333M10.0833 33.9167L9.16667 34.8333M10.0833 43.0833L9.16667 42.1667M0.916672 43.0833L1.83334 42.1667M0.916672 40.3333H1.60417M3.66667 33.9167V34.6042M10.0833 36.6667H9.39584M7.33334 43.0833V42.3958M8.25 40.3333H9.85417M7.33334 33.9167V35.75M0.916672 36.6667H2.75001M3.66667 43.0833V41.25M7.33334 38.5C7.33334 39.5125 6.51253 40.3333 5.5 40.3333C4.48748 40.3333 3.66667 39.5125 3.66667 38.5C3.66667 37.4875 4.48748 36.6667 5.5 36.6667C6.51253 36.6667 7.33334 37.4875 7.33334 38.5Z" stroke="#01B69B" stroke-width="1.5" stroke-linecap="round" stroke-linejoin="round"/>
</g>
<path d="M18.5 39.5L41.5 67L65 39.5L54 25.5H30.5L18.5 39.5Z" fill="url(#paint0_linear_1_28)"/>
<defs>
<linearGradient id="paint0_linear_1_28" x1="41.75" y1="25.5" x2="41.75" y2="67" gradientUnits="userSpaceOnUse">
<stop stop-color="#00E0BF"/>
<stop offset="1" stop-color="#005044"/>
</linearGradient>
<clipPath id="clip0_1_28">
<rect width="11" height="11" fill="white" transform="translate(67 16)"/>
</clipPath>
<clipPath id="clip1_1_28">
<rect width="11" height="11" fill="white" transform="translate(51)"/>
</clipPath>
<clipPath id="clip2_1_28">
<rect width="11" height="11" fill="white" transform="translate(0 33)"/>
</clipPath>
</defs>
</svg>
