<svg width="68" height="68" viewBox="0 0 68 68" fill="none" xmlns="http://www.w3.org/2000/svg">
<rect width="68" height="68" rx="8" fill="#F9F9F9"/>
<path d="M40.421 32.1627C37.533 32.1627 34.5934 32.0431 31.8435 31.2624C29.1453 30.4992 26.668 29.0186 24.4598 27.3059C23.0141 26.191 21.6996 25.3048 19.8226 25.4384C17.986 25.538 16.2295 26.2371 14.8127 27.4325C12.4251 29.5637 12.784 33.5096 13.7397 36.2774C15.175 40.452 19.5431 43.3569 23.2557 45.2419C27.5444 47.4259 32.2575 48.692 36.981 49.4235C41.1214 50.0636 46.4417 50.5313 50.0301 47.7741C53.3251 45.2419 54.2291 39.4602 53.4217 35.5565C53.226 34.4022 52.6236 33.3604 51.7276 32.6269C49.4125 30.9036 45.9587 32.0537 43.3572 32.1134C42.3911 32.1345 41.4077 32.1556 40.421 32.1627Z" fill="#F2F2F2"/>
<path d="M37.042 19.7733L19.7238 22.0913C18.6013 22.2415 17.8109 23.2908 17.9583 24.4349L20.5979 44.9248C20.7453 46.0689 21.7748 46.8746 22.8972 46.7243L40.2154 44.4064C41.3379 44.2561 42.1283 43.2068 41.9809 42.0627L39.3412 21.5729C39.1939 20.4287 38.1644 19.623 37.042 19.7733Z" fill="#D2D2D2"/>
<path d="M42.087 22.7793H24.594C23.4601 22.7793 22.541 23.7162 22.541 24.8718V45.5687C22.541 46.7243 23.4601 47.6612 24.594 47.6612H42.087C43.2208 47.6612 44.14 46.7243 44.14 45.5687V24.8718C44.14 23.7162 43.2208 22.7793 42.087 22.7793Z" fill="white" stroke="#BABABA" stroke-linecap="round" stroke-linejoin="round"/>
<g clip-path="url(#clip0_290_7589)">
<path d="M27.498 39H33.498M27.498 36H36.498M27.498 42H36.498" stroke="#BABABA" stroke-width="1.5" stroke-linecap="round" stroke-linejoin="round"/>
</g>
<defs>
<clipPath id="clip0_290_7589">
<rect width="12" height="12" fill="white" transform="translate(25.998 33)"/>
</clipPath>
</defs>
</svg>
