<svg width="206" height="145" viewBox="0 0 206 145" fill="none" xmlns="http://www.w3.org/2000/svg">
<circle cx="102.999" cy="43.4652" r="43.4652" fill="#EAECF0"/>
<circle cx="57.3612" cy="10.867" r="4.34652" fill="#F2F4F7"/>
<circle cx="150.812" cy="68.4581" r="3.25989" fill="#F2F4F7"/>
<circle cx="56.8189" cy="74.9771" r="5.43315" fill="#F2F4F7"/>
<circle cx="157.331" cy="20.646" r="5.43315" fill="#F2F4F7"/>
<circle cx="147.009" cy="5.97703" r="3.80321" fill="#F2F4F7"/>
<g filter="url(#filter0_dd_290_6740)">
<path d="M73.7046 67.4866L102.202 54.198C103.633 53.5308 104.252 51.8301 103.585 50.3993L86.7553 14.3083L75.359 10.1604L52.0428 21.0329C50.612 21.7001 49.993 23.4009 50.6602 24.8317L69.9058 66.104C70.573 67.5348 72.2738 68.1538 73.7046 67.4866Z" fill="url(#paint0_linear_290_6740)"/>
<path d="M75.3584 10.1599L86.7546 14.3078L78.9826 17.932L75.3584 10.1599Z" fill="#D0D5DD"/>
</g>
<g filter="url(#filter1_dd_290_6740)">
<path d="M87.3263 57.7765H118.77C120.349 57.7765 121.628 56.4967 121.628 54.918V15.096L113.053 6.52051H87.3263C85.7476 6.52051 84.4678 7.80031 84.4678 9.37902V54.918C84.4678 56.4967 85.7476 57.7765 87.3263 57.7765Z" fill="url(#paint1_linear_290_6740)"/>
<path d="M113.054 6.52051L121.629 15.096H113.054V6.52051Z" fill="#D0D5DD"/>
</g>
<g filter="url(#filter2_dd_290_6740)">
<path d="M103.496 54.1823L131.994 67.4709C133.425 68.1381 135.125 67.5191 135.793 66.0883L152.622 29.9973L148.474 18.6011L125.158 7.72857C123.727 7.06137 122.027 7.6804 121.359 9.1112L102.114 50.3835C101.447 51.8143 102.066 53.5151 103.496 54.1823Z" fill="url(#paint2_linear_290_6740)"/>
<path d="M148.474 18.6006L152.622 29.9968L144.849 26.3727L148.474 18.6006Z" fill="#D0D5DD"/>
</g>
<rect x="87.7861" y="47.8125" width="30.4256" height="30.4256" rx="15.2128" fill="url(#paint3_linear_290_6740)"/>
<g clip-path="url(#clip0_290_6740)">
<path d="M105.535 65.5607L102.999 63.0253M102.999 63.0253L100.464 65.5607M102.999 63.0253V68.7301M108.318 67.0757C108.936 66.7386 109.424 66.2053 109.706 65.5599C109.987 64.9144 110.046 64.1936 109.872 63.5112C109.698 62.8289 109.302 62.2237 108.746 61.7914C108.191 61.3591 107.507 61.1241 106.803 61.1237H106.004C105.812 60.3815 105.454 59.6926 104.958 59.1086C104.462 58.5246 103.839 58.0607 103.138 57.7519C102.436 57.443 101.674 57.2972 100.908 57.3254C100.142 57.3537 99.3921 57.5552 98.7152 57.9148C98.0383 58.2744 97.4517 58.7828 96.9996 59.4018C96.5474 60.0208 96.2415 60.7342 96.1048 61.4884C95.968 62.2426 96.0041 63.018 96.2101 63.7563C96.4162 64.4946 96.787 65.1765 97.2946 65.7509" stroke="white" stroke-width="1.26773" stroke-linecap="round" stroke-linejoin="round"/>
</g>
<g clip-path="url(#clip1_290_6740)">
<path d="M143.999 25.6514H74.0677C73.1243 25.652 72.2196 26.027 71.5525 26.6941C70.8854 27.3612 70.5103 28.2659 70.5098 29.2093V93.3716C70.5103 94.315 70.8854 95.2197 71.5525 95.8868C72.2196 96.5539 73.1243 96.929 74.0677 96.9295H143.999C144.942 96.929 145.847 96.554 146.514 95.8869C147.181 95.2198 147.556 94.3151 147.557 93.3716V29.2093C147.556 28.2658 147.181 27.3611 146.514 26.694C145.847 26.0269 144.942 25.6519 143.999 25.6514Z" fill="#C6C6C6"/>
<path d="M139.396 74.6328H78.6732C76.7083 74.6328 75.1152 73.0397 75.1152 71.0748V14.3841C75.1152 12.4193 76.7083 10.8262 78.6732 10.8262H139.396C141.361 10.8262 142.954 12.4193 142.954 14.3841V71.0748C142.954 73.0397 141.361 74.6328 139.396 74.6328Z" fill="#F9F9F9"/>
<path d="M76.2417 72.2009V15.5106C76.2417 13.5457 77.8348 11.9527 79.7997 11.9527H140.523C141.217 11.9527 141.862 12.1544 142.409 12.4979C141.78 11.4949 140.667 10.8262 139.396 10.8262H78.6732C76.7083 10.8262 75.1152 12.4193 75.1152 14.3841V71.0748C75.1152 72.3464 75.7839 73.4586 76.7869 74.0879C76.4434 73.5405 76.2417 72.8953 76.2417 72.2013V72.2009Z" fill="url(#paint4_linear_290_6740)"/>
<path d="M131.924 22.8057H86.1445V25.4146H131.924V22.8057ZM131.924 32.7675H86.1445V35.3765H131.924V32.7675ZM131.924 42.7316H86.1445V45.3405H131.924V42.7316ZM131.924 52.6934H86.1445V55.3027H131.924V52.6934Z" fill="white"/>
<path d="M91.5996 44.2716L103.103 55.7758H91.5996V44.2716Z" fill="url(#paint5_linear_290_6740)"/>
<path d="M147.557 56.7247V30.2557L142.953 25.6514V56.7243H147.557V56.7247Z" fill="#C6C6C6"/>
<path d="M152.949 59.1197L147.989 94.2334C147.741 95.9889 146.239 97.2935 144.466 97.2935H73.5999C71.8271 97.2935 70.3248 95.9889 70.0768 94.2334L63.3735 46.7863C63.0711 44.6443 64.7333 42.7305 66.8965 42.7305H88.7814C90.5542 42.7305 92.0565 44.0351 92.3045 45.7902L93.1829 52.0038C93.4309 53.7593 94.9333 55.0639 96.706 55.0639H149.427C151.589 55.0639 153.252 56.9777 152.95 59.1197H152.949Z" fill="url(#paint6_linear_290_6740)"/>
<path d="M135.375 81.6303H82.6928C82.404 81.6302 82.1252 81.5248 81.9086 81.3339C81.692 81.1429 81.5524 80.8796 81.516 80.5931L80.8569 75.3745C80.8359 75.2075 80.8507 75.038 80.9003 74.8772C80.9499 74.7165 81.033 74.568 81.1443 74.4419C81.2556 74.3157 81.3925 74.2146 81.5458 74.1453C81.6991 74.076 81.8654 74.0402 82.0337 74.0401H136.034C136.202 74.0402 136.368 74.076 136.522 74.1453C136.675 74.2146 136.812 74.3157 136.923 74.4419C137.035 74.568 137.118 74.7165 137.167 74.8772C137.217 75.038 137.232 75.2075 137.211 75.3745L136.552 80.5931C136.515 80.8796 136.376 81.1429 136.159 81.3339C135.942 81.5248 135.663 81.6302 135.375 81.6303Z" fill="#D5D5D5"/>
</g>
<path d="M11.769 131.199V130.093H15.465V131.199H11.769ZM20.029 135.679C20.085 135.679 20.169 135.735 20.169 136.295C20.169 136.841 20.085 136.883 20.029 136.883H19.609C18.783 136.883 18.195 136.617 17.929 136.057C17.593 136.617 16.977 136.883 16.165 136.883H11.223C9.543 136.883 8.745 135.917 8.745 134.461V132.375H9.907V134.307C9.907 135.147 10.313 135.679 11.293 135.679H16.165C16.893 135.679 17.355 135.287 17.355 134.657V132.375H18.517V134.615C18.517 135.315 18.909 135.679 19.651 135.679H20.029ZM21.1174 135.679C21.9574 135.679 22.4194 135.245 22.4194 134.573V132.375H23.5954V134.573C23.5954 135.273 23.9874 135.679 24.8414 135.679C25.6814 135.679 26.1434 135.245 26.1434 134.573V132.375H27.3054V134.573C27.3054 135.273 27.7114 135.679 28.4954 135.679C29.2794 135.679 29.6994 135.273 29.6994 134.573V132.375H30.8614V134.545C30.8614 136.015 29.9374 136.883 28.4954 136.883C27.5294 136.883 26.9414 136.575 26.6754 136.015C26.3394 136.575 25.7234 136.883 24.8414 136.883C23.8054 136.883 23.2174 136.575 22.9514 136.015C22.6154 136.575 21.9994 136.883 21.1174 136.883H20.0254C19.9694 136.883 19.8854 136.841 19.8854 136.295C19.8854 135.735 19.9694 135.679 20.0254 135.679H21.1174ZM33.262 136.883V127.825H34.424V136.883H33.262ZM40.1493 134.573C40.1493 133.537 40.6393 132.585 42.1093 131.129L41.4933 130.499L42.3193 129.617C45.0913 132.221 45.6653 133.159 45.6653 134.433C45.6653 135.931 44.5033 137.023 42.7953 137.023C41.1993 137.023 40.1493 136.029 40.1493 134.573ZM44.5033 134.433C44.5033 133.663 44.1393 133.019 42.9073 131.871C41.7173 133.019 41.3113 133.733 41.3113 134.503C41.3113 135.259 41.8853 135.819 42.8373 135.819C43.8033 135.819 44.5033 135.231 44.5033 134.433ZM50.8972 135.679C51.5553 135.679 51.9893 135.357 51.9893 134.923C51.9893 134.517 51.7233 133.817 50.4353 130.345L51.5133 129.855L53.1513 134.503C53.4453 135.343 53.7533 135.679 54.4253 135.679H54.7193C54.7893 135.679 54.8593 135.749 54.8593 136.295C54.8593 136.869 54.7893 136.883 54.7193 136.883H54.3833C53.5433 136.883 52.9833 136.617 52.6613 136.001C52.3113 136.617 51.7513 136.883 50.8972 136.883H47.6213L47.5093 135.679H50.8972ZM62.0326 127.671V128.777H60.7586V127.671H62.0326ZM59.5406 130.695V129.589H63.2366V130.695H59.5406ZM67.0726 135.679C67.1426 135.679 67.2266 135.735 67.2266 136.295C67.2266 136.841 67.1426 136.883 67.0726 136.883H66.6666C65.7846 136.883 65.1966 136.617 64.9306 136.057C64.5946 136.617 64.0066 136.883 63.1946 136.883C62.2286 136.883 61.6406 136.575 61.3746 136.015C61.0386 136.575 60.4226 136.883 59.5406 136.883C58.5046 136.883 57.9166 136.575 57.6506 136.015C57.3146 136.575 56.6986 136.883 55.8166 136.883H54.7246C54.6686 136.883 54.5846 136.841 54.5846 136.295C54.5846 135.735 54.6686 135.679 54.7246 135.679H55.8166C56.6566 135.679 57.1186 135.245 57.1186 134.573V132.375H58.2946V134.573C58.2946 135.273 58.6866 135.679 59.5406 135.679C60.3806 135.679 60.8426 135.245 60.8426 134.573V132.375H62.0046V134.573C62.0046 135.273 62.4106 135.679 63.1946 135.679C63.9786 135.679 64.3986 135.245 64.3986 134.573V132.375H65.5606V134.573C65.5606 135.315 65.9526 135.679 66.6666 135.679H67.0726ZM70.192 130.695H68.708V129.533H70.192V130.695ZM70.836 134.657C70.836 136.057 69.912 136.883 68.54 136.883H67.084C67.028 136.883 66.944 136.841 66.944 136.295C66.944 135.735 67.028 135.679 67.084 135.679H68.54C69.198 135.679 69.674 135.315 69.674 134.643V132.375H70.836V134.657ZM79.4311 131.199V130.093H83.1271V131.199H79.4311ZM87.6911 135.679C87.7471 135.679 87.8311 135.735 87.8311 136.295C87.8311 136.841 87.7471 136.883 87.6911 136.883H87.2711C86.4451 136.883 85.8571 136.617 85.5911 136.057C85.2551 136.617 84.6391 136.883 83.8271 136.883H78.8851C77.2051 136.883 76.4071 135.917 76.4071 134.461V132.375H77.5691V134.307C77.5691 135.147 77.9751 135.679 78.9551 135.679H83.8271C84.5551 135.679 85.0171 135.287 85.0171 134.657V132.375H86.1791V134.615C86.1791 135.315 86.5711 135.679 87.3131 135.679H87.6911ZM89.3675 135.679C90.0815 135.679 90.5575 135.287 90.5575 134.643V132.375H91.7195V134.615C91.7195 135.315 92.1115 135.679 92.8395 135.679H93.2315C93.2875 135.679 93.3715 135.735 93.3715 136.281C93.3715 136.841 93.2875 136.883 93.2315 136.883H92.7975C91.9715 136.883 91.3835 136.617 91.1175 136.057C90.7815 136.617 90.1655 136.883 89.3675 136.883H87.6875C87.6315 136.883 87.5475 136.841 87.5475 136.295C87.5475 135.735 87.6315 135.679 87.6875 135.679H89.3675ZM89.8855 139.823H88.4015V138.647H89.8855V139.823ZM96.2203 127.671V128.777H94.9463V127.671H96.2203ZM97.4243 129.589V130.695H93.7283V129.589H97.4243ZM95.8283 134.643V132.375H96.9903V134.657C96.9903 136.057 96.0663 136.883 94.6943 136.883H93.2383C93.1823 136.883 93.0983 136.841 93.0983 136.295C93.0983 135.735 93.1823 135.679 93.2383 135.679H94.6943C95.3523 135.679 95.8283 135.315 95.8283 134.643ZM106.551 136.841L106.677 135.679H112.347C112.403 135.679 112.487 135.735 112.487 136.295C112.487 136.841 112.403 136.883 112.347 136.883H110.891C111.031 137.023 111.101 137.275 111.101 137.541C111.101 139.165 109.617 140.299 107.307 140.299H106.229C103.863 140.299 102.561 138.857 102.561 136.421V133.775H103.723V136.393C103.723 138.157 104.591 139.095 106.257 139.095H107.307C109.043 139.095 109.939 138.507 109.939 137.569C109.939 137.065 109.701 136.841 109.155 136.841H106.551ZM119.66 127.671V128.777H118.386V127.671H119.66ZM117.168 130.695V129.589H120.864V130.695H117.168ZM122.026 132.375H123.188V134.545C123.188 136.015 122.264 136.883 120.822 136.883C119.856 136.883 119.268 136.575 119.002 136.015C118.666 136.575 118.05 136.883 117.168 136.883C116.132 136.883 115.544 136.575 115.278 136.015C114.942 136.575 114.326 136.883 113.444 136.883H112.352C112.296 136.883 112.212 136.841 112.212 136.295C112.212 135.735 112.296 135.679 112.352 135.679H113.444C114.284 135.679 114.746 135.245 114.746 134.573V132.375H115.922V134.573C115.922 135.273 116.314 135.679 117.168 135.679C118.008 135.679 118.47 135.245 118.47 134.573V132.375H119.632V134.573C119.632 135.273 120.038 135.679 120.822 135.679C121.606 135.679 122.026 135.273 122.026 134.573V132.375ZM127.458 136.477C127.458 138.843 125.96 140.299 123.79 140.299H122.81L122.698 139.095H123.762C125.344 139.095 126.296 138.129 126.296 136.477V132.375H127.458V136.477ZM129.84 136.883V127.825H131.002V136.883H129.84ZM135.457 130.695H133.973V129.533H135.457V130.695ZM135.401 134.601C135.401 135.287 135.807 135.679 136.577 135.679H136.759C136.815 135.679 136.899 135.749 136.899 136.295C136.899 136.841 136.815 136.883 136.759 136.883H136.577C136.073 136.883 135.597 136.687 135.401 136.407V136.575C135.359 138.843 133.903 140.299 131.733 140.299H130.753L130.641 139.095H131.705C133.287 139.095 134.239 138.129 134.239 136.477V132.375H135.401V134.601ZM138.072 127.461L142.622 125.557L142.86 126.313L138.072 128.301V127.461ZM140.634 135.679C141.446 135.679 141.922 135.329 141.922 134.797C141.922 134.419 141.754 134.083 141.348 133.663L138.058 130.401V129.393L143.168 127.363L143.518 128.483L139.43 130.093L142.23 132.907C142.846 133.523 143.084 134.181 143.084 134.811C143.084 136.015 142.23 136.883 140.634 136.883H136.756C136.7 136.883 136.616 136.841 136.616 136.295C136.616 135.735 136.7 135.679 136.756 135.679H140.634ZM152.55 140.299C150.184 140.299 148.882 138.857 148.882 136.421V133.775H150.044V136.393C150.044 138.157 150.912 139.095 152.578 139.095H153.166C154.762 139.095 155.812 138.101 155.812 136.505V127.825H156.974V136.393C156.974 138.843 155.392 140.299 153.166 140.299H152.55ZM162.028 135.679C162.098 135.679 162.168 135.735 162.168 136.295C162.168 136.841 162.098 136.883 162.028 136.883H161.664C160.222 136.883 159.494 135.973 159.494 134.433V127.825H160.656V134.377C160.656 135.245 161.006 135.679 161.72 135.679H162.028ZM163.015 135.679C164.429 135.679 165.227 135.483 166.207 134.923L168.335 133.677C168.041 132.655 167.579 132.333 166.571 132.333H163.295L163.449 131.115H166.767C168.433 131.115 169.161 131.857 169.693 134.069L166.753 135.889C165.563 136.631 164.625 136.883 162.973 136.883H162.035C161.979 136.883 161.895 136.841 161.895 136.295C161.895 135.735 161.979 135.679 162.035 135.679H163.015ZM180.151 134.279C180.151 135.287 180.515 135.679 181.173 135.679H181.509C181.579 135.679 181.649 135.735 181.649 136.295C181.649 136.841 181.579 136.883 181.509 136.883H181.173C180.193 136.883 179.521 136.491 179.297 135.553C178.877 136.001 178.065 136.197 177.295 136.197C175.727 136.197 174.845 135.343 174.845 133.663C174.845 132.095 175.937 130.807 177.575 130.807H178.989V129.841H180.151V134.279ZM176.007 133.635C176.007 134.531 176.441 134.993 177.365 134.993C178.359 134.993 178.989 134.601 178.989 133.985V131.983H177.575C176.609 131.983 176.007 132.571 176.007 133.635ZM185.256 134.657C185.256 136.057 184.332 136.883 182.96 136.883H181.504C181.448 136.883 181.364 136.841 181.364 136.295C181.364 135.735 181.448 135.679 181.504 135.679H182.96C183.618 135.679 184.094 135.315 184.094 134.643V132.375H185.256V134.657ZM183.366 139.823H181.882V138.647H183.366V139.823ZM193.501 135.679C193.571 135.679 193.641 135.735 193.641 136.295C193.641 136.841 193.571 136.883 193.501 136.883H193.137C191.695 136.883 190.967 135.973 190.967 134.433V127.825H192.129V134.377C192.129 135.245 192.479 135.679 193.193 135.679H193.501ZM197.694 129.589V130.695H193.998V129.589H197.694ZM196.098 134.643V132.375H197.26V134.657C197.26 136.057 196.336 136.883 194.964 136.883H193.508C193.452 136.883 193.368 136.841 193.368 136.295C193.368 135.735 193.452 135.679 193.508 135.679H194.964C195.622 135.679 196.098 135.315 196.098 134.643Z" fill="#707070"/>
<defs>
<filter id="filter0_dd_290_6740" x="38.5858" y="6.53624" width="77.0734" height="83.8911" filterUnits="userSpaceOnUse" color-interpolation-filters="sRGB">
<feFlood flood-opacity="0" result="BackgroundImageFix"/>
<feColorMatrix in="SourceAlpha" type="matrix" values="0 0 0 0 0 0 0 0 0 0 0 0 0 0 0 0 0 0 127 0" result="hardAlpha"/>
<feMorphology radius="2.17326" operator="erode" in="SourceAlpha" result="effect1_dropShadow_290_6740"/>
<feOffset dy="4.34652"/>
<feGaussianBlur stdDeviation="2.17326"/>
<feColorMatrix type="matrix" values="0 0 0 0 0.0627451 0 0 0 0 0.0941176 0 0 0 0 0.156863 0 0 0 0.03 0"/>
<feBlend mode="normal" in2="BackgroundImageFix" result="effect1_dropShadow_290_6740"/>
<feColorMatrix in="SourceAlpha" type="matrix" values="0 0 0 0 0 0 0 0 0 0 0 0 0 0 0 0 0 0 127 0" result="hardAlpha"/>
<feMorphology radius="2.17326" operator="erode" in="SourceAlpha" result="effect2_dropShadow_290_6740"/>
<feOffset dy="10.8663"/>
<feGaussianBlur stdDeviation="6.51978"/>
<feColorMatrix type="matrix" values="0 0 0 0 0.0627451 0 0 0 0 0.0941176 0 0 0 0 0.156863 0 0 0 0.08 0"/>
<feBlend mode="normal" in2="effect1_dropShadow_290_6740" result="effect2_dropShadow_290_6740"/>
<feBlend mode="normal" in="SourceGraphic" in2="effect2_dropShadow_290_6740" result="shape"/>
</filter>
<filter id="filter1_dd_290_6740" x="73.6015" y="6.52051" width="58.8937" height="72.9886" filterUnits="userSpaceOnUse" color-interpolation-filters="sRGB">
<feFlood flood-opacity="0" result="BackgroundImageFix"/>
<feColorMatrix in="SourceAlpha" type="matrix" values="0 0 0 0 0 0 0 0 0 0 0 0 0 0 0 0 0 0 127 0" result="hardAlpha"/>
<feMorphology radius="2.17326" operator="erode" in="SourceAlpha" result="effect1_dropShadow_290_6740"/>
<feOffset dy="4.34652"/>
<feGaussianBlur stdDeviation="2.17326"/>
<feColorMatrix type="matrix" values="0 0 0 0 0.0627451 0 0 0 0 0.0941176 0 0 0 0 0.156863 0 0 0 0.03 0"/>
<feBlend mode="normal" in2="BackgroundImageFix" result="effect1_dropShadow_290_6740"/>
<feColorMatrix in="SourceAlpha" type="matrix" values="0 0 0 0 0 0 0 0 0 0 0 0 0 0 0 0 0 0 127 0" result="hardAlpha"/>
<feMorphology radius="2.17326" operator="erode" in="SourceAlpha" result="effect2_dropShadow_290_6740"/>
<feOffset dy="10.8663"/>
<feGaussianBlur stdDeviation="6.51978"/>
<feColorMatrix type="matrix" values="0 0 0 0 0.0627451 0 0 0 0 0.0941176 0 0 0 0 0.156863 0 0 0 0.08 0"/>
<feBlend mode="normal" in2="effect1_dropShadow_290_6740" result="effect2_dropShadow_290_6740"/>
<feBlend mode="normal" in="SourceGraphic" in2="effect2_dropShadow_290_6740" result="shape"/>
</filter>
<filter id="filter2_dd_290_6740" x="90.039" y="6.52051" width="77.0734" height="83.8911" filterUnits="userSpaceOnUse" color-interpolation-filters="sRGB">
<feFlood flood-opacity="0" result="BackgroundImageFix"/>
<feColorMatrix in="SourceAlpha" type="matrix" values="0 0 0 0 0 0 0 0 0 0 0 0 0 0 0 0 0 0 127 0" result="hardAlpha"/>
<feMorphology radius="2.17326" operator="erode" in="SourceAlpha" result="effect1_dropShadow_290_6740"/>
<feOffset dy="4.34652"/>
<feGaussianBlur stdDeviation="2.17326"/>
<feColorMatrix type="matrix" values="0 0 0 0 0.0627451 0 0 0 0 0.0941176 0 0 0 0 0.156863 0 0 0 0.03 0"/>
<feBlend mode="normal" in2="BackgroundImageFix" result="effect1_dropShadow_290_6740"/>
<feColorMatrix in="SourceAlpha" type="matrix" values="0 0 0 0 0 0 0 0 0 0 0 0 0 0 0 0 0 0 127 0" result="hardAlpha"/>
<feMorphology radius="2.17326" operator="erode" in="SourceAlpha" result="effect2_dropShadow_290_6740"/>
<feOffset dy="10.8663"/>
<feGaussianBlur stdDeviation="6.51978"/>
<feColorMatrix type="matrix" values="0 0 0 0 0.0627451 0 0 0 0 0.0941176 0 0 0 0 0.156863 0 0 0 0.08 0"/>
<feBlend mode="normal" in2="effect1_dropShadow_290_6740" result="effect2_dropShadow_290_6740"/>
<feBlend mode="normal" in="SourceGraphic" in2="effect2_dropShadow_290_6740" result="shape"/>
</filter>
<linearGradient id="paint0_linear_290_6740" x1="72.0303" y1="67.5979" x2="49.32" y2="26.6267" gradientUnits="userSpaceOnUse">
<stop stop-color="#E4E7EC"/>
<stop offset="1" stop-color="#F9FAFB"/>
</linearGradient>
<linearGradient id="paint1_linear_290_6740" x1="85.7619" y1="57.1698" x2="82.4945" y2="10.4395" gradientUnits="userSpaceOnUse">
<stop stop-color="#E4E7EC"/>
<stop offset="1" stop-color="#F9FAFB"/>
</linearGradient>
<linearGradient id="paint2_linear_290_6740" x1="102.335" y1="52.9713" x2="119.123" y2="9.2384" gradientUnits="userSpaceOnUse">
<stop stop-color="#E4E7EC"/>
<stop offset="1" stop-color="#F9FAFB"/>
</linearGradient>
<linearGradient id="paint3_linear_290_6740" x1="102.999" y1="32.5997" x2="72.5733" y2="63.0253" gradientUnits="userSpaceOnUse">
<stop stop-color="#FF8960"/>
<stop offset="1" stop-color="#FF62A5"/>
</linearGradient>
<linearGradient id="paint4_linear_290_6740" x1="111.121" y1="44.8119" x2="66.1248" y2="-0.184598" gradientUnits="userSpaceOnUse">
<stop stop-color="white"/>
</linearGradient>
<linearGradient id="paint5_linear_290_6740" x1="99.2001" y1="57.6216" x2="85.2949" y2="43.7168" gradientUnits="userSpaceOnUse">
<stop stop-color="#C2CECE" stop-opacity="0"/>
<stop offset="0.179" stop-color="#AFBCBC" stop-opacity="0.179"/>
<stop offset="1" stop-color="#5B6A6A"/>
</linearGradient>
<linearGradient id="paint6_linear_290_6740" x1="108.161" y1="42.7305" x2="108.161" y2="97.2935" gradientUnits="userSpaceOnUse">
<stop stop-color="#EEF0F4"/>
<stop offset="0.927" stop-color="#E4E4E4"/>
</linearGradient>
<clipPath id="clip0_290_6740">
<rect width="15.2128" height="15.2128" fill="white" transform="translate(95.3926 55.4189)"/>
</clipPath>
<clipPath id="clip1_290_6740">
<rect width="89.647" height="89.647" fill="white" transform="translate(63.3379 9.23634)"/>
</clipPath>
</defs>
</svg>
