<svg width="85" height="80" viewBox="0 0 85 80" fill="none" xmlns="http://www.w3.org/2000/svg">
<line x1="73.006" y1="2.37397e-08" x2="73.006" y2="80" stroke="#EAECF0" stroke-width="1.08621" stroke-dasharray="2.17 2.17"/>
<line x1="13.297" y1="2.37397e-08" x2="13.297" y2="80" stroke="#EAECF0" stroke-width="1.08621" stroke-dasharray="2.17 2.17"/>
<line x1="0.00374545" y1="12.2106" x2="84.0617" y2="12.7903" stroke="#EAECF0" stroke-width="1.08621" stroke-dasharray="2.17 2.17"/>
<line x1="0.00374545" y1="70.7612" x2="84.0617" y2="71.3409" stroke="#EAECF0" stroke-width="1.08621" stroke-dasharray="2.17 2.17"/>
<g filter="url(#filter0_d_290_6687)">
<rect x="18.5508" y="17.9709" width="49.2754" height="48.6957" rx="2.89655" fill="white"/>
</g>
<g opacity="0.9" filter="url(#filter1_d_290_6687)">
<path d="M21.4975 56.5186C21.4975 54.1191 23.4427 52.174 25.8423 52.174H62.3204C64.72 52.174 66.6653 54.1192 66.6653 56.5188V58.2082C66.6653 60.6077 64.7234 62.553 62.3239 62.553C54.1096 62.553 36.0311 62.553 23.8976 62.553C22.389 62.553 21.2001 63.4179 20.9032 63.1296C20.6929 62.9255 21.4982 61.9764 21.4975 59.9582C21.4975 58.9243 21.4975 57.6932 21.4975 56.5186Z" fill="url(#paint0_radial_290_6687)"/>
<path d="M21.0664 63.0069C21.0604 63.0065 21.0554 63.006 21.051 63.0054C21.0545 62.9793 21.0633 62.9408 21.0805 62.885C21.1046 62.8067 21.136 62.7209 21.1739 62.6176C21.2085 62.5231 21.2485 62.4139 21.2932 62.2824C21.4723 61.7551 21.6789 60.9929 21.6785 59.9582C21.6785 59.9582 21.6785 59.9582 21.6785 59.9582L21.6785 59.9522V59.9461V59.94V59.934V59.9279V59.9218V59.9157V59.9096V59.9035V59.8974V59.8913V59.8852V59.8791V59.873V59.8669V59.8607V59.8546V59.8485V59.8423V59.8362V59.83V59.8239V59.8177V59.8116V59.8054V59.7992V59.7931V59.7869V59.7807V59.7745V59.7683V59.7621V59.7559V59.7497V59.7435V59.7373V59.7311V59.7249V59.7186V59.7124V59.7062V59.6999V59.6937V59.6875V59.6812V59.675V59.6687V59.6624V59.6562V59.6499V59.6436V59.6374V59.6311V59.6248V59.6185V59.6122V59.6059V59.5996V59.5933V59.587V59.5807V59.5744V59.5681V59.5618V59.5554V59.5491V59.5428V59.5364V59.5301V59.5237V59.5174V59.511V59.5047V59.4983V59.492V59.4856V59.4792V59.4729V59.4665V59.4601V59.4537V59.4473V59.4409V59.4345V59.4281V59.4217V59.4153V59.4089V59.4025V59.3961V59.3897V59.3832V59.3768V59.3704V59.364V59.3575V59.3511V59.3446V59.3382V59.3317V59.3253V59.3188V59.3124V59.3059V59.2994V59.293V59.2865V59.28V59.2735V59.267V59.2606V59.2541V59.2476V59.2411V59.2346V59.2281V59.2216V59.215V59.2085V59.202V59.1955V59.189V59.1824V59.1759V59.1694V59.1629V59.1563V59.1498V59.1432V59.1367V59.1301V59.1236V59.117V59.1105V59.1039V59.0973V59.0908V59.0842V59.0776V59.071V59.0645V59.0579V59.0513V59.0447V59.0381V59.0315V59.0249V59.0183V59.0117V59.0051V58.9985V58.9919V58.9853V58.9787V58.972V58.9654V58.9588V58.9522V58.9455V58.9389V58.9323V58.9256V58.919V58.9123V58.9057V58.899V58.8924V58.8857V58.8791V58.8724V58.8657V58.8591V58.8524V58.8457V58.8391V58.8324V58.8257V58.819V58.8124V58.8057V58.799V58.7923V58.7856V58.7789V58.7722V58.7655V58.7588V58.7521V58.7454V58.7387V58.732V58.7253V58.7185V58.7118V58.7051V58.6984V58.6916V58.6849V58.6782V58.6715V58.6647V58.658V58.6512V58.6445V58.6378V58.631V58.6243V58.6175V58.6108V58.604V58.5972V58.5905V58.5837V58.577V58.5702V58.5634V58.5567V58.5499V58.5431V58.5363V58.5296V58.5228V58.516V58.5092V58.5024V58.4956V58.4889V58.4821V58.4753V58.4685V58.4617V58.4549V58.4481V58.4413V58.4345V58.4277V58.4209V58.414V58.4072V58.4004V58.3936V58.3868V58.38V58.3731V58.3663V58.3595V58.3527V58.3458V58.339V58.3322V58.3254V58.3185V58.3117V58.3048V58.298V58.2912V58.2843V58.2775V58.2706V58.2638V58.2569V58.2501V58.2432V58.2364V58.2295V58.2227V58.2158V58.2089V58.2021V58.1952V58.1884V58.1815V58.1746V58.1678V58.1609V58.154V58.1471V58.1403V58.1334V58.1265V58.1196V58.1128V58.1059V58.099V58.0921V58.0852V58.0784V58.0715V58.0646V58.0577V58.0508V58.0439V58.037V58.0301V58.0232V58.0163V58.0094V58.0025V57.9956V57.9887V57.9818V57.9749V57.968V57.9611V57.9542V57.9473V57.9404V57.9335V57.9266V57.9197V57.9127V57.9058V57.8989V57.892V57.8851V57.8782V57.8712V57.8643V57.8574V57.8505V57.8436V57.8366V57.8297V57.8228V57.8159V57.8089V57.802V57.7951V57.7882V57.7812V57.7743V57.7674V57.7604V57.7535V57.7466V57.7396V57.7327V57.7258V57.7188V57.7119V57.705V57.698V57.6911V57.6841V57.6772V57.6703V57.6633V57.6564V57.6494V57.6425V57.6356V57.6286V57.6217V57.6147V57.6078V57.6008V57.5939V57.5869V57.58V57.573V57.5661V57.5591V57.5522V57.5452V57.5383V57.5313V57.5244V57.5174V57.5105V57.5035V57.4966V57.4896V57.4827V57.4757V57.4688V57.4618V57.4549V57.4479V57.441V57.434V57.4271V57.4201V57.4131V57.4062V57.3992V57.3923V57.3853V57.3784V57.3714V57.3645V57.3575V57.3506V57.3436V57.3366V57.3297V57.3227V57.3158V57.3088V57.3019V57.2949V57.2879V57.281V57.274V57.2671V57.2601V57.2532V57.2462V57.2393V57.2323V57.2253V57.2184V57.2114V57.2045V57.1975V57.1906V57.1836V57.1767V57.1697V57.1628V57.1558V57.1489V57.1419V57.1349V57.128V57.121V57.1141V57.1071V57.1002V57.0932V57.0863V57.0793V57.0724V57.0654V57.0585V57.0515V57.0446V57.0376V57.0307V57.0238V57.0168V57.0099V57.0029V56.996V56.989V56.9821V56.9751V56.9682V56.9613V56.9543V56.9474V56.9404V56.9335V56.9266V56.9196V56.9127V56.9057V56.8988V56.8919V56.8849V56.878V56.8711V56.8641V56.8572V56.8503V56.8433V56.8364V56.8295V56.8225V56.8156V56.8087V56.8018V56.7948V56.7879V56.781V56.7741V56.7672V56.7602V56.7533V56.7464V56.7395V56.7326V56.7256V56.7187V56.7118V56.7049V56.698V56.6911V56.6842V56.6773V56.6703V56.6634V56.6565V56.6496V56.6427V56.6358V56.6289V56.622V56.6151V56.6082V56.6013V56.5944V56.5875V56.5806V56.5737V56.5669V56.56V56.5531V56.5462V56.5393V56.5324V56.5255V56.5186C21.6785 54.2191 23.5427 52.355 25.8423 52.355H62.3204C64.62 52.355 66.4842 54.2192 66.4842 56.5188V58.2082C66.4842 60.5079 64.6233 62.372 62.3239 62.372H62.2756H62.2271H62.1785H62.1295H62.0804H62.031H61.9815H61.9316H61.8816H61.8314H61.7809H61.7302H61.6793H61.6282H61.5769H61.5253H61.4736H61.4216H61.3694H61.317H61.2644H61.2116H61.1586H61.1053H61.0519H60.9982H60.9444H60.8903H60.836H60.7815H60.7268H60.6719H60.6168H60.5616H60.5061H60.4504H60.3945H60.3383H60.2821H60.2256H60.1689H60.112H60.0549H59.9976H59.9401H59.8824H59.8246H59.7665H59.7083H59.6498H59.5912H59.5324H59.4734H59.4142H59.3548H59.2952H59.2355H59.1755H59.1154H59.0551H58.9946H58.9339H58.873H58.812H58.7508H58.6894H58.6278H58.566H58.5041H58.442H58.3797H58.3172H58.2546H58.1918H58.1288H58.0656H58.0023H57.9388H57.8751H57.8112H57.7472H57.683H57.6187H57.5542H57.4895H57.4246H57.3596H57.2944H57.2291H57.1636H57.0979H57.0321H56.9661H56.8999H56.8336H56.7672H56.7005H56.6338H56.5668H56.4997H56.4325H56.3651H56.2975H56.2298H56.1619H56.0939H56.0257H55.9574H55.889H55.8203H55.7516H55.6827H55.6136H55.5444H55.4751H55.4056H55.3359H55.2661H55.1962H55.1262H55.056H54.9856H54.9151H54.8445H54.7737H54.7028H54.6318H54.5606H54.4893H54.4179H54.3463H54.2746H54.2027H54.1308H54.0587H53.9864H53.9141H53.8416H53.769H53.6962H53.6233H53.5503H53.4772H53.4039H53.3306H53.2571H53.1834H53.1097H53.0358H52.9619H52.8877H52.8135H52.7392H52.6647H52.5901H52.5154H52.4406H52.3657H52.2907H52.2155H52.1403H52.0649H51.9894H51.9138H51.8381H51.7623H51.6863H51.6103H51.5342H51.4579H51.3816H51.3051H51.2286H51.1519H51.0751H50.9982H50.9213H50.8442H50.767H50.6898H50.6124H50.5349H50.4574H50.3797H50.3019H50.2241H50.1461H50.0681H49.99H49.9117H49.8334H49.755H49.6765H49.5979H49.5193H49.4405H49.3616H49.2827H49.2037H49.1246H49.0454H48.9661H48.8867H48.8073H48.7278H48.6482H48.5685H48.4887H48.4089H48.329H48.249H48.1689H48.0887H48.0085H47.9282H47.8478H47.7674H47.6869H47.6063H47.5256H47.4449H47.3641H47.2832H47.2023H47.1213H47.0402H46.959H46.8778H46.7966H46.7152H46.6338H46.5524H46.4709H46.3893H46.3076H46.2259H46.1442H46.0624H45.9805H45.8985H45.8165H45.7345H45.6524H45.5702H45.488H45.4058H45.3235H45.2411H45.1587H45.0762H44.9937H44.9111H44.8285H44.7459H44.6632H44.5804H44.4976H44.4148H44.3319H44.249H44.166H44.083H44H43.9169H43.8338H43.7506H43.6674H43.5842H43.5009H43.4176H43.3342H43.2508H43.1674H43.084H43.0005H42.917H42.8335H42.7499H42.6663H42.5826H42.499H42.4153H42.3316H42.2479H42.1641H42.0803H41.9965H41.9127H41.8288H41.7449H41.661H41.5771H41.4932H41.4092H41.3253H41.2413H41.1573H41.0732H40.9892H40.9051H40.8211H40.737H40.6529H40.5688H40.4847H40.4006H40.3164H40.2323H40.1481H40.064H39.9798H39.8956H39.8115H39.7273H39.6431H39.5589H39.4747H39.3905H39.3063H39.2221H39.1379H39.0537H38.9696H38.8854H38.8012H38.717H38.6328H38.5487H38.4645H38.3803H38.2962H38.212H38.1279H38.0438H37.9597H37.8756H37.7915H37.7074H37.6233H37.5393H37.4552H37.3712H37.2872H37.2032H37.1192H37.0353H36.9514H36.8674H36.7835H36.6997H36.6158H36.532H36.4482H36.3644H36.2806H36.1969H36.1132H36.0295H35.9458H35.8622H35.7786H35.6951H35.6115H35.528H35.4445H35.3611H35.2777H35.1943H35.1109H35.0276H34.9444H34.8611H34.7779H34.6948H34.6116H34.5286H34.4455H34.3625H34.2795H34.1966H34.1137H34.0309H33.9481H33.8654H33.7827H33.7H33.6174H33.5349H33.4524H33.3699H33.2875H33.2051H33.1228H33.0406H32.9584H32.8762H32.7941H32.7121H32.6301H32.5481H32.4663H32.3845H32.3027H32.221H32.1394H32.0578H31.9763H31.8948H31.8134H31.7321H31.6508H31.5696H31.4885H31.4074H31.3264H31.2455H31.1646H31.0838H31.0031H30.9224H30.8418H30.7613H30.6809H30.6005H30.5202H30.44H30.3599H30.2798H30.1998H30.1199H30.04H29.9603H29.8806H29.801H29.7215H29.642H29.5627H29.4834H29.4042H29.3251H29.2461H29.1672H29.0883H29.0096H28.9309H28.8523H28.7738H28.6954H28.6171H28.5389H28.4608H28.3827H28.3048H28.227H28.1492H28.0716H27.994H27.9165H27.8392H27.7619H27.6847H27.6077H27.5307H27.4539H27.3771H27.3004H27.2239H27.1474H27.0711H26.9948H26.9187H26.8427H26.7668H26.691H26.6153H26.5397H26.4642H26.3888H26.3136H26.2384H26.1634H26.0885H26.0137H25.939H25.8644H25.79H25.7156H25.6414H25.5673H25.4933H25.4195H25.3457H25.2721H25.1986H25.1253H25.052H24.9789H24.9059H24.833H24.7603H24.6877H24.6152H24.5428H24.4706H24.3985H24.3266H24.2547H24.183H24.1115H24.04H23.9687H23.8976C23.1106 62.372 22.4115 62.5975 21.887 62.7783C21.8481 62.7917 21.8103 62.8048 21.7738 62.8174C21.5586 62.892 21.3844 62.9524 21.2437 62.9847C21.1622 63.0034 21.105 63.0093 21.0664 63.0069ZM21.0282 62.9988C21.0282 62.9988 21.0285 62.999 21.0289 62.9994L21.0282 62.9988Z" stroke="#0F9E82" stroke-width="0.362069"/>
</g>
<g filter="url(#filter2_d_290_6687)">
<path d="M52.0493 40.3136C52.035 39.6655 52.814 39.3265 53.2785 39.7787L57.4418 43.8321C57.9243 44.3019 57.5604 45.1183 56.8885 45.0735L54.9698 44.9456C54.7242 44.9292 54.4871 45.0387 54.3403 45.2364L53.4801 46.3946C53.069 46.9482 52.1901 46.6683 52.1748 45.9789L52.0493 40.3136Z" fill="#292D32"/>
</g>
<g filter="url(#filter3_d_290_6687)">
<path d="M37.5685 25.062C38.081 24.6652 38.8168 25.09 38.7294 25.7323L37.4415 35.1944C37.3495 35.8698 36.4603 36.0556 36.1056 35.4736L34.2958 32.5039C34.1644 32.2882 33.93 32.1566 33.6774 32.1566L30.5241 32.1566C29.8338 32.1566 29.535 31.2825 30.0807 30.8599L37.5685 25.062Z" fill="#0070CC"/>
</g>
<g filter="url(#filter4_d_290_6687)">
<path d="M33.8804 58.3383C33.8804 58.2583 33.8871 58.1733 33.9004 58.0833C33.9171 57.99 33.9404 57.8916 33.9704 57.7883C34.0037 57.6816 34.0437 57.57 34.0904 57.4533L34.4504 57.5933C34.4171 57.6866 34.3871 57.775 34.3604 57.8583C34.3371 57.9416 34.3187 58.02 34.3054 58.0933C34.2954 58.1666 34.2904 58.2366 34.2904 58.3033C34.2904 58.4433 34.3204 58.5616 34.3804 58.6583C34.4437 58.7583 34.5304 58.84 34.6404 58.9033C34.7504 58.9666 34.8754 59.0133 35.0154 59.0433C35.1587 59.0733 35.3104 59.0883 35.4704 59.0883C35.6637 59.0883 35.8437 59.0716 36.0104 59.0383C36.1804 59.005 36.3287 58.9566 36.4554 58.8933C36.5854 58.8333 36.6871 58.7633 36.7604 58.6833C36.8337 58.6066 36.8704 58.5233 36.8704 58.4333C36.8704 58.39 36.8537 58.35 36.8204 58.3133C36.7871 58.2766 36.7371 58.2416 36.6704 58.2083C36.6037 58.175 36.5237 58.1433 36.4304 58.1133C36.3371 58.08 36.2304 58.0466 36.1104 58.0133L36.2054 57.5983C36.3787 57.665 36.5321 57.7216 36.6654 57.7683C36.7987 57.8116 36.9154 57.8466 37.0154 57.8733C37.1154 57.9 37.2021 57.92 37.2754 57.9333C37.3487 57.9433 37.4104 57.9483 37.4604 57.9483C37.5304 57.9483 37.5804 57.9683 37.6104 58.0083C37.6437 58.045 37.6604 58.09 37.6604 58.1433C37.6604 58.1966 37.6371 58.2466 37.5904 58.2933C37.5437 58.3366 37.4837 58.3583 37.4104 58.3583C37.3904 58.3583 37.3704 58.3583 37.3504 58.3583C37.3304 58.3583 37.3087 58.3583 37.2854 58.3583C37.2654 58.3583 37.2454 58.3583 37.2254 58.3583C37.2321 58.3883 37.2371 58.4116 37.2404 58.4283C37.2437 58.4483 37.2454 58.4733 37.2454 58.5033C37.2454 58.6266 37.2021 58.7466 37.1154 58.8633C37.0321 58.98 36.9087 59.085 36.7454 59.1783C36.5821 59.275 36.3837 59.3516 36.1504 59.4083C35.9204 59.465 35.6571 59.4933 35.3604 59.4933C35.0971 59.4933 34.8521 59.45 34.6254 59.3633C34.4021 59.28 34.2221 59.1533 34.0854 58.9833C33.9487 58.8133 33.8804 58.5983 33.8804 58.3383ZM37.5207 58.3583L37.5657 57.9483C37.7557 57.9483 37.889 57.93 37.9657 57.8933C38.0423 57.8566 38.0857 57.7916 38.0957 57.6983C38.109 57.605 38.1123 57.475 38.1057 57.3083L38.0107 54.7633H38.4157L38.5157 57.2633C38.5223 57.44 38.5157 57.5966 38.4957 57.7333C38.479 57.87 38.4357 57.985 38.3657 58.0783C38.299 58.1716 38.1973 58.2416 38.0607 58.2883C37.9273 58.335 37.7473 58.3583 37.5207 58.3583ZM40.3831 58.3583C40.1164 58.3583 39.9114 58.3283 39.7681 58.2683C39.6281 58.2083 39.5314 58.115 39.4781 57.9883C39.4248 57.8616 39.3948 57.6983 39.3881 57.4983L39.2881 54.7633H39.6981L39.7981 57.3383C39.8048 57.5016 39.8198 57.6283 39.8431 57.7183C39.8698 57.805 39.9264 57.865 40.0131 57.8983C40.1031 57.9316 40.2431 57.9483 40.4331 57.9483C40.5031 57.9483 40.5531 57.9683 40.5831 58.0083C40.6164 58.045 40.6331 58.09 40.6331 58.1433C40.6331 58.1966 40.6098 58.2466 40.5631 58.2933C40.5164 58.3366 40.4564 58.3583 40.3831 58.3583ZM40.4918 58.3583L40.5418 57.9483C40.6351 57.9483 40.7135 57.9283 40.7768 57.8883C40.8401 57.8483 40.9018 57.7816 40.9618 57.6883C41.0218 57.595 41.0868 57.47 41.1568 57.3133C41.2535 57.1 41.3485 56.9383 41.4418 56.8283C41.5385 56.7183 41.6335 56.6433 41.7268 56.6033C41.8235 56.5633 41.9185 56.5433 42.0118 56.5433C42.1251 56.5433 42.2301 56.5733 42.3268 56.6333C42.4235 56.69 42.5085 56.7666 42.5818 56.8633C42.6551 56.96 42.7118 57.0666 42.7518 57.1833C42.7951 57.2966 42.8168 57.41 42.8168 57.5233C42.8168 57.7233 42.7818 57.8833 42.7118 58.0033C42.6418 58.12 42.5518 58.205 42.4418 58.2583C42.3351 58.3083 42.2235 58.3333 42.1068 58.3333C42.0035 58.3333 41.8701 58.3133 41.7068 58.2733C41.5468 58.2333 41.3435 58.1316 41.0968 57.9683L41.2918 57.6533C41.4551 57.7566 41.6018 57.8283 41.7318 57.8683C41.8651 57.905 41.9751 57.9233 42.0618 57.9233C42.1585 57.9233 42.2351 57.91 42.2918 57.8833C42.3485 57.8533 42.3901 57.8116 42.4168 57.7583C42.4435 57.705 42.4568 57.645 42.4568 57.5783C42.4568 57.4816 42.4335 57.385 42.3868 57.2883C42.3401 57.1916 42.2801 57.1116 42.2068 57.0483C42.1368 56.985 42.0618 56.9533 41.9818 56.9533C41.9218 56.9533 41.8635 56.97 41.8068 57.0033C41.7501 57.0366 41.6918 57.0983 41.6318 57.1883C41.5718 57.2783 41.5035 57.4083 41.4268 57.5783C41.3468 57.7583 41.2701 57.9016 41.1968 58.0083C41.1268 58.1116 41.0551 58.1883 40.9818 58.2383C40.9085 58.2883 40.8318 58.32 40.7518 58.3333C40.6751 58.35 40.5885 58.3583 40.4918 58.3583ZM44.8922 58.3383C44.8922 58.2183 44.9089 58.085 44.9422 57.9383C44.9756 57.7916 45.0289 57.63 45.1022 57.4533L45.4622 57.5933C45.4089 57.7333 45.3689 57.8616 45.3422 57.9783C45.3156 58.095 45.3022 58.2033 45.3022 58.3033C45.3022 58.4866 45.3472 58.635 45.4372 58.7483C45.5306 58.865 45.6539 58.95 45.8072 59.0033C45.9639 59.0566 46.1356 59.0833 46.3222 59.0833C46.5489 59.0833 46.7389 59.0583 46.8922 59.0083C47.0456 58.9616 47.1672 58.8966 47.2572 58.8133C47.3472 58.73 47.4106 58.635 47.4472 58.5283C47.4872 58.425 47.5072 58.3166 47.5072 58.2033C47.5072 58.0566 47.4956 57.9183 47.4722 57.7883C47.4522 57.6583 47.4239 57.5316 47.3872 57.4083C47.3539 57.2816 47.3172 57.1533 47.2772 57.0233L47.6822 56.9133C47.7189 57.04 47.7472 57.1433 47.7672 57.2233C47.7872 57.3 47.8022 57.3616 47.8122 57.4083C47.8256 57.455 47.8372 57.4966 47.8472 57.5333C47.8839 57.6566 47.9322 57.7483 47.9922 57.8083C48.0522 57.865 48.1206 57.9033 48.1972 57.9233C48.2772 57.94 48.3589 57.9483 48.4422 57.9483C48.5122 57.9483 48.5622 57.9683 48.5922 58.0083C48.6256 58.045 48.6422 58.09 48.6422 58.1433C48.6422 58.1966 48.6189 58.2466 48.5722 58.2933C48.5256 58.3366 48.4656 58.3583 48.3922 58.3583C48.2522 58.3583 48.1356 58.335 48.0422 58.2883C47.9489 58.2383 47.8756 58.1766 47.8222 58.1033C47.7722 58.03 47.7389 57.9533 47.7222 57.8733L47.9272 58.1283C47.9172 58.2983 47.8839 58.4633 47.8272 58.6233C47.7739 58.7866 47.6872 58.9333 47.5672 59.0633C47.4472 59.1966 47.2839 59.3016 47.0772 59.3783C46.8739 59.455 46.6172 59.4933 46.3072 59.4933C46.1172 59.4933 45.9372 59.47 45.7672 59.4233C45.5972 59.3766 45.4456 59.305 45.3122 59.2083C45.1822 59.115 45.0789 58.995 45.0022 58.8483C44.9289 58.705 44.8922 58.535 44.8922 58.3383ZM46.4022 56.3433C46.3322 56.3433 46.2722 56.32 46.2222 56.2733C46.1756 56.2233 46.1522 56.165 46.1522 56.0983C46.1522 56.0316 46.1756 55.9733 46.2222 55.9233C46.2722 55.8733 46.3322 55.8483 46.4022 55.8483C46.4689 55.8483 46.5256 55.8733 46.5722 55.9233C46.6222 55.9733 46.6472 56.0316 46.6472 56.0983C46.6472 56.165 46.6222 56.2233 46.5722 56.2733C46.5256 56.32 46.4689 56.3433 46.4022 56.3433ZM48.5032 58.3583L48.5532 57.9483C48.7199 57.9483 48.8499 57.9366 48.9432 57.9133C49.0365 57.8866 49.1065 57.8383 49.1532 57.7683C49.2032 57.695 49.2432 57.59 49.2732 57.4533C49.3032 57.3166 49.3399 57.1383 49.3832 56.9183L49.7732 56.9933C49.7599 57.0533 49.7449 57.12 49.7282 57.1933C49.7115 57.2666 49.6965 57.34 49.6832 57.4133C49.6732 57.4833 49.6682 57.545 49.6682 57.5983C49.6682 57.6483 49.6715 57.695 49.6782 57.7383C49.6849 57.7816 49.7099 57.8183 49.7532 57.8483C49.7965 57.8783 49.8699 57.9033 49.9732 57.9233C50.0765 57.94 50.2249 57.9483 50.4182 57.9483C50.4882 57.9483 50.5382 57.9683 50.5682 58.0083C50.6015 58.045 50.6182 58.09 50.6182 58.1433C50.6182 58.1966 50.5949 58.2466 50.5482 58.2933C50.5015 58.3366 50.4415 58.3583 50.3682 58.3583C50.1649 58.3583 50.0032 58.3483 49.8832 58.3283C49.7632 58.305 49.6715 58.2716 49.6082 58.2283C49.5482 58.185 49.5049 58.1316 49.4782 58.0683C49.4549 58.0016 49.4365 57.925 49.4232 57.8383L49.5732 57.8483C49.5199 57.955 49.4615 58.0416 49.3982 58.1083C49.3382 58.175 49.2682 58.2266 49.1882 58.2633C49.1082 58.3 49.0115 58.325 48.8982 58.3383C48.7882 58.3516 48.6565 58.3583 48.5032 58.3583ZM49.7632 59.3033C49.6932 59.3033 49.6332 59.2783 49.5832 59.2283C49.5365 59.1816 49.5132 59.125 49.5132 59.0583C49.5132 58.9916 49.5365 58.9333 49.5832 58.8833C49.6332 58.8333 49.6932 58.8083 49.7632 58.8083C49.8299 58.8083 49.8865 58.8333 49.9332 58.8833C49.9832 58.9333 50.0082 58.9916 50.0082 59.0583C50.0082 59.125 49.9832 59.1816 49.9332 59.2283C49.8865 59.2783 49.8299 59.3033 49.7632 59.3033ZM49.0782 59.3033C49.0082 59.3033 48.9482 59.2783 48.8982 59.2283C48.8515 59.1816 48.8282 59.125 48.8282 59.0583C48.8282 58.9916 48.8515 58.9333 48.8982 58.8833C48.9482 58.8333 49.0082 58.8083 49.0782 58.8083C49.1449 58.8083 49.2015 58.8333 49.2482 58.8833C49.2982 58.9333 49.3232 58.9916 49.3232 59.0583C49.3232 59.125 49.2982 59.1816 49.2482 59.2283C49.2015 59.2783 49.1449 59.3033 49.0782 59.3033ZM50.4771 58.3583L50.5271 57.9483C50.6204 57.9483 50.6987 57.9283 50.7621 57.8883C50.8254 57.8483 50.8871 57.7816 50.9471 57.6883C51.0071 57.595 51.0721 57.47 51.1421 57.3133C51.2387 57.1 51.3337 56.9383 51.4271 56.8283C51.5237 56.7183 51.6187 56.6433 51.7121 56.6033C51.8087 56.5633 51.9037 56.5433 51.9971 56.5433C52.1104 56.5433 52.2154 56.5733 52.3121 56.6333C52.4087 56.69 52.4937 56.7666 52.5671 56.8633C52.6404 56.96 52.6971 57.0666 52.7371 57.1833C52.7804 57.2966 52.8021 57.41 52.8021 57.5233C52.8021 57.7233 52.7671 57.8833 52.6971 58.0033C52.6271 58.12 52.5371 58.205 52.4271 58.2583C52.3204 58.3083 52.2087 58.3333 52.0921 58.3333C51.9887 58.3333 51.8554 58.3133 51.6921 58.2733C51.5321 58.2333 51.3287 58.1316 51.0821 57.9683L51.2771 57.6533C51.4404 57.7566 51.5871 57.8283 51.7171 57.8683C51.8504 57.905 51.9604 57.9233 52.0471 57.9233C52.1437 57.9233 52.2204 57.91 52.2771 57.8833C52.3337 57.8533 52.3754 57.8116 52.4021 57.7583C52.4287 57.705 52.4421 57.645 52.4421 57.5783C52.4421 57.4816 52.4187 57.385 52.3721 57.2883C52.3254 57.1916 52.2654 57.1116 52.1921 57.0483C52.1221 56.985 52.0471 56.9533 51.9671 56.9533C51.9071 56.9533 51.8487 56.97 51.7921 57.0033C51.7354 57.0366 51.6771 57.0983 51.6171 57.1883C51.5571 57.2783 51.4887 57.4083 51.4121 57.5783C51.3321 57.7583 51.2554 57.9016 51.1821 58.0083C51.1121 58.1116 51.0404 58.1883 50.9671 58.2383C50.8937 58.2883 50.8171 58.32 50.7371 58.3333C50.6604 58.35 50.5737 58.3583 50.4771 58.3583ZM54.6676 58.3583C54.401 58.3583 54.196 58.3283 54.0526 58.2683C53.9126 58.2083 53.816 58.115 53.7626 57.9883C53.7093 57.8616 53.6793 57.6983 53.6726 57.4983L53.5726 54.7633H53.9826L54.0826 57.3383C54.0893 57.5016 54.1043 57.6283 54.1276 57.7183C54.1543 57.805 54.211 57.865 54.2976 57.8983C54.3876 57.9316 54.5276 57.9483 54.7176 57.9483C54.7876 57.9483 54.8376 57.9683 54.8676 58.0083C54.901 58.045 54.9176 58.09 54.9176 58.1433C54.9176 58.1966 54.8943 58.2466 54.8476 58.2933C54.801 58.3366 54.741 58.3583 54.6676 58.3583ZM54.7763 58.3583L54.8263 57.9483C55.023 57.9483 55.1763 57.9416 55.2863 57.9283C55.3963 57.9116 55.4747 57.8733 55.5213 57.8133C55.568 57.75 55.5913 57.6516 55.5913 57.5183C55.5913 57.435 55.578 57.3366 55.5513 57.2233C55.5247 57.1066 55.4897 56.9833 55.4463 56.8533C55.403 56.7233 55.3563 56.595 55.3063 56.4683L55.7113 56.3183C55.7547 56.425 55.7947 56.5466 55.8313 56.6833C55.8713 56.82 55.9047 56.955 55.9313 57.0883C55.958 57.2216 55.9713 57.3383 55.9713 57.4383C55.9713 57.605 55.948 57.7466 55.9013 57.8633C55.858 57.98 55.788 58.075 55.6913 58.1483C55.5947 58.2216 55.4697 58.275 55.3163 58.3083C55.1663 58.3416 54.9863 58.3583 54.7763 58.3583ZM55.8663 55.7983C55.7963 55.7983 55.7363 55.775 55.6863 55.7283C55.6397 55.6783 55.6163 55.62 55.6163 55.5533C55.6163 55.4866 55.6397 55.4283 55.6863 55.3783C55.7363 55.3283 55.7963 55.3033 55.8663 55.3033C55.933 55.3033 55.9897 55.3283 56.0363 55.3783C56.0863 55.4283 56.1113 55.4866 56.1113 55.5533C56.1113 55.62 56.0863 55.6783 56.0363 55.7283C55.9897 55.775 55.933 55.7983 55.8663 55.7983ZM55.1813 55.7983C55.1113 55.7983 55.0513 55.775 55.0013 55.7283C54.9547 55.6783 54.9313 55.62 54.9313 55.5533C54.9313 55.4866 54.9547 55.4283 55.0013 55.3783C55.0513 55.3283 55.1113 55.3033 55.1813 55.3033C55.248 55.3033 55.3047 55.3283 55.3513 55.3783C55.4013 55.4283 55.4263 55.4866 55.4263 55.5533C55.4263 55.62 55.4013 55.6783 55.3513 55.7283C55.3047 55.775 55.248 55.7983 55.1813 55.7983Z" fill="white"/>
</g>
<defs>
<filter id="filter0_d_290_6687" x="14.9301" y="15.7985" width="56.5168" height="55.937" filterUnits="userSpaceOnUse" color-interpolation-filters="sRGB">
<feFlood flood-opacity="0" result="BackgroundImageFix"/>
<feColorMatrix in="SourceAlpha" type="matrix" values="0 0 0 0 0 0 0 0 0 0 0 0 0 0 0 0 0 0 127 0" result="hardAlpha"/>
<feOffset dy="1.44828"/>
<feGaussianBlur stdDeviation="1.81034"/>
<feComposite in2="hardAlpha" operator="out"/>
<feColorMatrix type="matrix" values="0 0 0 0 0 0 0 0 0 0 0 0 0 0 0 0 0 0 0.1 0"/>
<feBlend mode="normal" in2="BackgroundImageFix" result="effect1_dropShadow_290_6687"/>
<feBlend mode="normal" in="SourceGraphic" in2="effect1_dropShadow_290_6687" result="shape"/>
</filter>
<filter id="filter1_d_290_6687" x="13.6268" y="48.5533" width="60.2796" height="25.4973" filterUnits="userSpaceOnUse" color-interpolation-filters="sRGB">
<feFlood flood-opacity="0" result="BackgroundImageFix"/>
<feColorMatrix in="SourceAlpha" type="matrix" values="0 0 0 0 0 0 0 0 0 0 0 0 0 0 0 0 0 0 127 0" result="hardAlpha"/>
<feOffset dy="3.62069"/>
<feGaussianBlur stdDeviation="3.62069"/>
<feComposite in2="hardAlpha" operator="out"/>
<feColorMatrix type="matrix" values="0 0 0 0 0 0 0 0 0 0 0 0 0 0 0 0 0 0 0.15 0"/>
<feBlend mode="normal" in2="BackgroundImageFix" result="effect1_dropShadow_290_6687"/>
<feBlend mode="normal" in="SourceGraphic" in2="effect1_dropShadow_290_6687" result="shape"/>
</filter>
<filter id="filter2_d_290_6687" x="49.1523" y="39.5718" width="11.4074" height="12.9096" filterUnits="userSpaceOnUse" color-interpolation-filters="sRGB">
<feFlood flood-opacity="0" result="BackgroundImageFix"/>
<feColorMatrix in="SourceAlpha" type="matrix" values="0 0 0 0 0 0 0 0 0 0 0 0 0 0 0 0 0 0 127 0" result="hardAlpha"/>
<feOffset dy="2.89655"/>
<feGaussianBlur stdDeviation="1.44828"/>
<feComposite in2="hardAlpha" operator="out"/>
<feColorMatrix type="matrix" values="0 0 0 0 0 0 0 0 0 0 0 0 0 0 0 0 0 0 0.25 0"/>
<feBlend mode="normal" in2="BackgroundImageFix" result="effect1_dropShadow_290_6687"/>
<feBlend mode="normal" in="SourceGraphic" in2="effect1_dropShadow_290_6687" result="shape"/>
</filter>
<filter id="filter3_d_290_6687" x="26.9023" y="24.9084" width="14.7306" height="16.7062" filterUnits="userSpaceOnUse" color-interpolation-filters="sRGB">
<feFlood flood-opacity="0" result="BackgroundImageFix"/>
<feColorMatrix in="SourceAlpha" type="matrix" values="0 0 0 0 0 0 0 0 0 0 0 0 0 0 0 0 0 0 127 0" result="hardAlpha"/>
<feOffset dy="2.89655"/>
<feGaussianBlur stdDeviation="1.44828"/>
<feComposite in2="hardAlpha" operator="out"/>
<feColorMatrix type="matrix" values="0 0 0 0 0 0 0 0 0 0 0 0 0 0 0 0 0 0 0.25 0"/>
<feBlend mode="normal" in2="BackgroundImageFix" result="effect1_dropShadow_290_6687"/>
<feBlend mode="normal" in="SourceGraphic" in2="effect1_dropShadow_290_6687" result="shape"/>
</filter>
<filter id="filter4_d_290_6687" x="30.9843" y="51.8668" width="28.0236" height="10.5231" filterUnits="userSpaceOnUse" color-interpolation-filters="sRGB">
<feFlood flood-opacity="0" result="BackgroundImageFix"/>
<feColorMatrix in="SourceAlpha" type="matrix" values="0 0 0 0 0 0 0 0 0 0 0 0 0 0 0 0 0 0 127 0" result="hardAlpha"/>
<feOffset/>
<feGaussianBlur stdDeviation="1.44828"/>
<feComposite in2="hardAlpha" operator="out"/>
<feColorMatrix type="matrix" values="0 0 0 0 0 0 0 0 0 0 0 0 0 0 0 0 0 0 0.25 0"/>
<feBlend mode="normal" in2="BackgroundImageFix" result="effect1_dropShadow_290_6687"/>
<feBlend mode="normal" in="SourceGraphic" in2="effect1_dropShadow_290_6687" result="shape"/>
</filter>
<radialGradient id="paint0_radial_290_6687" cx="0" cy="0" r="1" gradientUnits="userSpaceOnUse" gradientTransform="translate(43.7667 57.6812) scale(22.8986 9.98839)">
<stop offset="0.00787812" stop-color="#2AB096"/>
<stop offset="1" stop-color="#00977A"/>
</radialGradient>
</defs>
</svg>
