<svg width="80" height="80" viewBox="0 0 80 80" fill="none" xmlns="http://www.w3.org/2000/svg">
<rect width="80" height="80" rx="8" fill="#F9F9F9"/>
<path d="M51.1492 37.1578C46.5935 37.1578 41.9563 36.9728 37.6183 35.7645C33.362 34.5834 29.4541 32.2919 25.9707 29.6413C23.6901 27.9159 21.6164 26.5443 18.6555 26.7512C15.7583 26.9052 12.9875 27.9872 10.7525 29.8372C6.98609 33.1356 7.55215 39.2424 9.05981 43.5259C11.324 49.9866 18.2146 54.4824 24.0711 57.3997C30.8366 60.7797 38.2715 62.7391 45.7227 63.8712C52.2541 64.8618 60.6469 65.5857 66.3075 61.3185C71.5054 57.3997 72.9314 48.4517 71.6577 42.4102C71.349 40.6238 70.3987 39.0115 68.9853 37.8763C65.3332 35.2093 59.8849 36.9891 55.781 37.0816C54.257 37.1143 52.7058 37.1469 51.1492 37.1578Z" fill="#F2F2F2"/>
<path d="M45.8202 17.9838L18.501 21.5712C16.7303 21.8037 15.4834 23.4276 15.7159 25.1983L19.88 56.909C20.1125 58.6797 21.7364 59.9266 23.5071 59.6941L50.8262 56.1067C52.5969 55.8742 53.8438 54.2503 53.6113 52.4796L49.4473 20.7689C49.2148 18.9982 47.5909 17.7513 45.8202 17.9838Z" fill="#D2D2D2"/>
<path d="M53.7779 22.6357H26.1828C24.3943 22.6357 22.9443 24.0857 22.9443 25.8742V57.9053C22.9443 59.6938 24.3943 61.1437 26.1828 61.1437H53.7779C55.5665 61.1437 57.0164 59.6938 57.0164 57.9053V25.8742C57.0164 24.0857 55.5665 22.6357 53.7779 22.6357Z" fill="white" stroke="#BABABA" stroke-linecap="round" stroke-linejoin="round"/>
<path d="M29.876 49.5001H37.376M29.876 45.7501H41.126M29.876 53.2501H41.126" stroke="#BABABA" stroke-width="1.5" stroke-linecap="round" stroke-linejoin="round"/>
</svg>
