<svg width="42" height="43" viewBox="0 0 42 43" fill="none" xmlns="http://www.w3.org/2000/svg">
<path d="M37.1 39C37.59 39 37.8351 39 38.0222 38.9046C38.1869 38.8207 38.3207 38.6869 38.4046 38.5222C38.5 38.3351 38.5 38.09 38.5 37.6V19.4C38.5 18.91 38.5 18.6649 38.4046 18.4778C38.3207 18.3131 38.1869 18.1793 38.0222 18.0954C37.8351 18 37.59 18 37.1 18H32.9C32.41 18 32.1649 18 31.9778 18.0954C31.8131 18.1793 31.6793 18.3131 31.5954 18.4778C31.5 18.6649 31.5 18.91 31.5 19.4V23.6C31.5 24.09 31.5 24.3351 31.4046 24.5222C31.3207 24.6869 31.1869 24.8207 31.0222 24.9046C30.8351 25 30.59 25 30.1 25H25.9C25.41 25 25.1649 25 24.9778 25.0954C24.8131 25.1793 24.6793 25.3131 24.5954 25.4778C24.5 25.6649 24.5 25.91 24.5 26.4V30.6C24.5 31.09 24.5 31.3351 24.4046 31.5222C24.3207 31.6869 24.1869 31.8207 24.0222 31.9046C23.8351 32 23.59 32 23.1 32H18.9C18.41 32 18.1649 32 17.9778 32.0954C17.8131 32.1793 17.6793 32.3131 17.5954 32.4778C17.5 32.6649 17.5 32.91 17.5 33.4V37.6C17.5 38.09 17.5 38.3351 17.5954 38.5222C17.6793 38.6869 17.8131 38.8207 17.9778 38.9046C18.1649 39 18.41 39 18.9 39H37.1Z" stroke="#003C32" stroke-width="1.5" stroke-linecap="round" stroke-linejoin="round"/>
<path d="M17.5 12.4C17.5 11.91 17.5 11.6649 17.5954 11.4778C17.6793 11.3131 17.8131 11.1793 17.9778 11.0954C18.1649 11 18.41 11 18.9 11H23.1C23.59 11 23.8351 11 24.0222 11.0954C24.1869 11.1793 24.3207 11.3131 24.4046 11.4778C24.5 11.6649 24.5 11.91 24.5 12.4V16.6C24.5 17.09 24.5 17.3351 24.4046 17.5222C24.3207 17.6869 24.1869 17.8207 24.0222 17.9046C23.8351 18 23.59 18 23.1 18H18.9C18.41 18 18.1649 18 17.9778 17.9046C17.8131 17.8207 17.6793 17.6869 17.5954 17.5222C17.5 17.3351 17.5 17.09 17.5 16.6V12.4Z" stroke="#003C32" stroke-width="1.5" stroke-linecap="round" stroke-linejoin="round"/>
<path d="M5.25 22.9C5.25 22.41 5.25 22.1649 5.34537 21.9778C5.42926 21.8131 5.56312 21.6793 5.72776 21.5954C5.91493 21.5 6.15995 21.5 6.65 21.5H10.85C11.34 21.5 11.5851 21.5 11.7722 21.5954C11.9369 21.6793 12.0707 21.8131 12.1546 21.9778C12.25 22.1649 12.25 22.41 12.25 22.9V27.1C12.25 27.59 12.25 27.8351 12.1546 28.0222C12.0707 28.1869 11.9369 28.3207 11.7722 28.4046C11.5851 28.5 11.34 28.5 10.85 28.5H6.65C6.15995 28.5 5.91493 28.5 5.72776 28.4046C5.56312 28.3207 5.42926 28.1869 5.34537 28.0222C5.25 27.8351 5.25 27.59 5.25 27.1V22.9Z" stroke="#003C32" stroke-width="1.5" stroke-linecap="round" stroke-linejoin="round"/>
<path d="M3.5 5.4C3.5 4.90995 3.5 4.66493 3.59537 4.47776C3.67926 4.31312 3.81312 4.17926 3.97776 4.09537C4.16493 4 4.40995 4 4.9 4H9.1C9.59005 4 9.83507 4 10.0222 4.09537C10.1869 4.17926 10.3207 4.31312 10.4046 4.47776C10.5 4.66493 10.5 4.90995 10.5 5.4V9.6C10.5 10.0901 10.5 10.3351 10.4046 10.5222C10.3207 10.6869 10.1869 10.8207 10.0222 10.9046C9.83507 11 9.59005 11 9.1 11H4.9C4.40995 11 4.16493 11 3.97776 10.9046C3.81312 10.8207 3.67926 10.6869 3.59537 10.5222C3.5 10.3351 3.5 10.0901 3.5 9.6V5.4Z" stroke="#003C32" stroke-width="1.5" stroke-linecap="round" stroke-linejoin="round"/>
</svg>
