<svg width="50" height="51" viewBox="0 0 50 51" fill="none" xmlns="http://www.w3.org/2000/svg">
<g clip-path="url(#clip0_23_23)">
<mask id="mask0_23_23" style="mask-type:luminance" maskUnits="userSpaceOnUse" x="0" y="0" width="50" height="51">
<path d="M50 0.5H0V50.5H50V0.5Z" fill="white"/>
</mask>
<g mask="url(#mask0_23_23)">
<path opacity="0.15" d="M25 50.5C38.8071 50.5 50 39.3071 50 25.5C50 11.6929 38.8071 0.5 25 0.5C11.1929 0.5 0 11.6929 0 25.5C0 39.3071 11.1929 50.5 25 50.5Z" fill="#003C32"/>
<path opacity="0.15" d="M24.9997 43.7691C35.0895 43.7691 43.2689 35.5897 43.2689 25.4999C43.2689 15.4101 35.0895 7.23071 24.9997 7.23071C14.9099 7.23071 6.73053 15.4101 6.73053 25.4999C6.73053 35.5897 14.9099 43.7691 24.9997 43.7691Z" fill="#003C32"/>
<path d="M33.3087 31.775C33.3087 32.075 33.242 32.3833 33.1003 32.6833C32.9587 32.9833 32.7753 33.2667 32.5337 33.5333C32.1253 33.9833 31.6753 34.3083 31.167 34.5167C30.667 34.725 30.1253 34.8333 29.542 34.8333C28.692 34.8333 27.7837 34.6333 26.8253 34.225C25.867 33.8167 24.9087 33.2667 23.9587 32.575C23.0003 31.875 22.092 31.1 21.2253 30.2417C20.367 29.375 19.592 28.4667 18.9003 27.5167C18.217 26.5667 17.667 25.6167 17.267 24.675C16.867 23.725 16.667 22.8167 16.667 21.95C16.667 21.3833 16.767 20.8417 16.967 20.3417C17.167 19.8333 17.4837 19.3667 17.9253 18.95C18.4587 18.425 19.042 18.1667 19.6587 18.1667C19.892 18.1667 20.1253 18.2167 20.3337 18.3167C20.5503 18.4167 20.742 18.5667 20.892 18.7833L22.8253 21.5083C22.9753 21.7167 23.0837 21.9083 23.1587 22.0917C23.2337 22.2667 23.2753 22.4417 23.2753 22.6C23.2753 22.8 23.217 23 23.1003 23.1917C22.992 23.3833 22.8337 23.5833 22.6337 23.7833L22.0003 24.4417C21.9087 24.5333 21.867 24.6417 21.867 24.775C21.867 24.8417 21.8753 24.9 21.892 24.9667C21.917 25.0333 21.942 25.0833 21.9587 25.1333C22.1087 25.4083 22.367 25.7667 22.7337 26.2C23.1087 26.6333 23.5087 27.075 23.942 27.5167C24.392 27.9583 24.8253 28.3667 25.267 28.7417C25.7003 29.1083 26.0587 29.3583 26.342 29.5083C26.3837 29.525 26.4337 29.55 26.492 29.575C26.5587 29.6 26.6253 29.6083 26.7003 29.6083C26.842 29.6083 26.9503 29.5583 27.042 29.4667L27.6753 28.8417C27.8837 28.6333 28.0837 28.475 28.2753 28.375C28.467 28.2583 28.6587 28.2 28.867 28.2C29.0253 28.2 29.192 28.2333 29.3753 28.3083C29.5587 28.3833 29.7503 28.4917 29.9587 28.6333L32.717 30.5917C32.9337 30.7417 33.0837 30.9167 33.1753 31.125C33.2587 31.3333 33.3087 31.5417 33.3087 31.775Z" stroke="#003C32" stroke-width="1.5" stroke-miterlimit="10"/>
<path d="M30.4167 24C30.4167 23.5 30.025 22.7333 29.4417 22.1083C28.9083 21.5333 28.2 21.0833 27.5 21.0833" stroke="#003C32" stroke-width="1.5" stroke-linecap="round" stroke-linejoin="round"/>
<path d="M33.3333 24C33.3333 20.775 30.725 18.1667 27.5 18.1667" stroke="#003C32" stroke-width="1.5" stroke-linecap="round" stroke-linejoin="round"/>
</g>
</g>
<defs>
<clipPath id="clip0_23_23">
<rect width="50" height="50" fill="white" transform="translate(0 0.5)"/>
</clipPath>
</defs>
</svg>
