<svg width="32" height="32" viewBox="0 0 32 32" fill="none" xmlns="http://www.w3.org/2000/svg">
<circle cx="16" cy="16" r="16" fill="#CCCCCC"/>
<path fill-rule="evenodd" clip-rule="evenodd" d="M14.5 12.1464C14.6953 12.3417 14.6953 12.6583 14.5 12.8536L11.2071 16.091L14.5 19.1464C14.6953 19.3417 14.6953 19.6583 14.5 19.8535C14.3047 20.0488 13.9882 20.0488 13.7929 19.8535L10.1464 16.4445C10.0527 16.3508 10 16.2236 10 16.091C10 15.9584 10.0527 15.8312 10.1464 15.7374L13.7929 12.1464C13.9882 11.9512 14.3047 11.9512 14.5 12.1464Z" fill="#3C4656"/>
<path fill-rule="evenodd" clip-rule="evenodd" d="M10 16.0909C10 15.8148 10.2239 15.5909 10.5 15.5909H20.7239C21 15.5909 21.2239 15.8148 21.2239 16.0909C21.2239 16.3671 21 16.5909 20.7239 16.5909H10.5C10.2239 16.5909 10 16.3671 10 16.0909Z" fill="#3C4656"/>
</svg>
