<svg width="18" height="19" viewBox="0 0 18 19" fill="none" xmlns="http://www.w3.org/2000/svg">
<g clip-path="url(#clip0_23_67)">
<mask id="mask0_23_67" style="mask-type:luminance" maskUnits="userSpaceOnUse" x="0" y="0" width="18" height="19">
<path d="M18 0.5H0V18.5H18V0.5Z" fill="white"/>
</mask>
<g mask="url(#mask0_23_67)">
<path d="M10.1471 6.76389C9.7178 7.06996 9.19243 7.25 8.625 7.25C7.17525 7.25 6 6.07475 6 4.625C6 3.17525 7.17525 2 8.625 2C9.56474 2 10.3891 2.49381 10.8529 3.23611M4.5 15.5654H6.45772C6.71297 15.5654 6.96666 15.5957 7.21411 15.6565L9.28267 16.1592C9.73151 16.2685 10.1991 16.2791 10.6526 16.1911L12.9397 15.7461C13.5439 15.6284 14.0997 15.3391 14.5353 14.9154L16.1534 13.3413C16.6155 12.8925 16.6155 12.1643 16.1534 11.7148C15.7374 11.3101 15.0785 11.2645 14.6078 11.6077L12.7219 12.9836C12.4519 13.1811 12.1232 13.2874 11.7852 13.2874H9.96412L11.1233 13.2873C11.7767 13.2873 12.3059 12.7725 12.3059 12.1369V11.9069C12.3059 11.3791 11.9367 10.919 11.4106 10.7914L9.62145 10.3563C9.33029 10.2857 9.0321 10.25 8.73235 10.25C8.00875 10.25 6.69892 10.8491 6.69892 10.8491L4.5 11.7687M15 5.375C15 6.82475 13.8247 8 12.375 8C10.9253 8 9.75 6.82475 9.75 5.375C9.75 3.92525 10.9253 2.75 12.375 2.75C13.8247 2.75 15 3.92525 15 5.375ZM1.5 11.45V15.8C1.5 16.22 1.5 16.4301 1.58175 16.5905C1.65365 16.7316 1.76839 16.8463 1.90951 16.9183C2.06994 17 2.27996 17 2.7 17H3.3C3.72004 17 3.93006 17 4.09049 16.9183C4.23161 16.8463 4.34635 16.7316 4.41825 16.5905C4.5 16.4301 4.5 16.22 4.5 15.8V11.45C4.5 11.03 4.5 10.8199 4.41825 10.6595C4.34635 10.5184 4.23161 10.4036 4.09049 10.3317C3.93006 10.25 3.72004 10.25 3.3 10.25H2.7C2.27996 10.25 2.06994 10.25 1.90951 10.3317C1.76839 10.4036 1.65365 10.5184 1.58175 10.6595C1.5 10.8199 1.5 11.03 1.5 11.45Z" stroke="#003C32" stroke-width="1.5" stroke-linecap="round" stroke-linejoin="round"/>
</g>
</g>
<defs>
<clipPath id="clip0_23_67">
<rect width="18" height="18" fill="white" transform="translate(0 0.5)"/>
</clipPath>
</defs>
</svg>
