<svg width="20" height="21" viewBox="0 0 20 21" fill="none" xmlns="http://www.w3.org/2000/svg">
<path d="M7.91675 11.9582C7.91675 12.7666 8.54176 13.4166 9.30843 13.4166H10.8751C11.5417 13.4166 12.0834 12.8499 12.0834 12.1416C12.0834 11.3832 11.7501 11.1082 11.2584 10.9332L8.75008 10.0583C8.25841 9.88328 7.92509 9.61662 7.92509 8.84995C7.92509 8.14995 8.46674 7.57495 9.13341 7.57495H10.7001C11.4667 7.57495 12.0918 8.22495 12.0918 9.03329" stroke="#003C32" stroke-width="1.5" stroke-linecap="round" stroke-linejoin="round"/>
<path d="M10 6.75V14.25" stroke="#003C32" stroke-width="1.5" stroke-linecap="round" stroke-linejoin="round"/>
<path d="M18.3334 10.5001C18.3334 15.1001 14.6001 18.8335 10.0001 18.8335C5.40008 18.8335 1.66675 15.1001 1.66675 10.5001C1.66675 5.90008 5.40008 2.16675 10.0001 2.16675" stroke="#003C32" stroke-width="1.5" stroke-linecap="round" stroke-linejoin="round"/>
<path d="M14.1667 3V6.33333H17.5001" stroke="#003C32" stroke-width="1.5" stroke-linecap="round" stroke-linejoin="round"/>
<path d="M18.3334 2.16675L14.1667 6.33341" stroke="#003C32" stroke-width="1.5" stroke-linecap="round" stroke-linejoin="round"/>
</svg>
