<svg width="20" height="21" viewBox="0 0 20 21" fill="none" xmlns="http://www.w3.org/2000/svg">
<path d="M10.8337 6.33333L9.90404 4.4741C9.6365 3.939 9.50271 3.67144 9.30313 3.47597C9.12664 3.30311 8.91393 3.17164 8.68039 3.09109C8.4163 3 8.11716 3 7.5189 3H4.33366C3.40024 3 2.93353 3 2.57701 3.18166C2.2634 3.34144 2.00844 3.59641 1.84865 3.91002C1.66699 4.26654 1.66699 4.73325 1.66699 5.66667V6.33333M1.66699 6.33333H14.3337C15.7338 6.33333 16.4339 6.33333 16.9686 6.60582C17.439 6.8455 17.8215 7.22795 18.0612 7.69836C18.3337 8.23314 18.3337 8.9332 18.3337 10.3333V14C18.3337 15.4001 18.3337 16.1002 18.0612 16.635C17.8215 17.1054 17.439 17.4878 16.9686 17.7275C16.4339 18 15.7338 18 14.3337 18H5.66699C4.26686 18 3.5668 18 3.03202 17.7275C2.56161 17.4878 2.17916 17.1054 1.93948 16.635C1.66699 16.1002 1.66699 15.4001 1.66699 14V6.33333Z" stroke="#003C32" stroke-width="1.5" stroke-linecap="round" stroke-linejoin="round"/>
</svg>
