<svg width="20" height="21" viewBox="0 0 20 21" fill="none" xmlns="http://www.w3.org/2000/svg">
<path d="M15.8333 8.83325H4.16666M15.8333 8.83325L17.3868 11.4223C17.7349 12.0026 17.909 12.2927 17.9994 12.605C18.0795 12.8817 18.1112 13.1703 18.093 13.4578C18.0725 13.7823 17.9655 14.1032 17.7515 14.7452L17.5784 15.2648C17.2505 16.2483 17.0866 16.7401 16.7825 17.1037C16.5141 17.4247 16.1693 17.6732 15.7798 17.8264C15.3387 17.9999 14.8203 17.9999 13.7836 17.9999H6.21636C5.17964 17.9999 4.66127 17.9999 4.22021 17.8264C3.83072 17.6732 3.48592 17.4247 3.21744 17.1037C2.91339 16.7401 2.74947 16.2483 2.42163 15.2648L2.24844 14.7452C2.03445 14.1032 1.92745 13.7823 1.90695 13.4578C1.88879 13.1703 1.92046 12.8817 2.00056 12.605C2.09097 12.2927 2.26504 12.0026 2.6132 11.4223L4.16666 8.83325M15.8333 8.83325L16.1811 7.61621C16.3459 7.03923 16.4283 6.75073 16.3636 6.52248C16.3069 6.32255 16.1775 6.15102 16.0008 6.04155C15.7991 5.91659 15.4991 5.91659 14.899 5.91659H5.10097C4.50089 5.91659 4.20085 5.91659 3.99917 6.04155C3.82251 6.15102 3.69312 6.32255 3.6364 6.52248C3.57165 6.75073 3.65408 7.03923 3.81893 7.61622L4.16666 8.83325M9.99999 5.91659H7.05356C6.61943 5.91659 6.20308 5.74099 5.8961 5.42843C5.58912 5.11587 5.41666 4.69195 5.41666 4.24992C5.41666 3.80789 5.58912 3.38397 5.8961 3.07141C6.20308 2.75885 6.61943 2.58325 7.05356 2.58325C9.34523 2.58325 9.99999 5.91659 9.99999 5.91659ZM9.99999 5.91659H12.9464C13.3806 5.91659 13.7969 5.74099 14.1039 5.42843C14.4109 5.11587 14.5833 4.69195 14.5833 4.24992C14.5833 3.80789 14.4109 3.38397 14.1039 3.07141C13.7969 2.75885 13.3806 2.58325 12.9464 2.58325C10.6548 2.58325 9.99999 5.91659 9.99999 5.91659Z" stroke="#003C32" stroke-width="1.5" stroke-linecap="round" stroke-linejoin="round"/>
</svg>
