<svg width="18" height="19" viewBox="0 0 18 19" fill="none" xmlns="http://www.w3.org/2000/svg">
<path d="M6 13.2501H12M8.26327 2.57306L3.17654 6.5294C2.83652 6.79387 2.6665 6.9261 2.54402 7.0917C2.43552 7.23839 2.3547 7.40365 2.30552 7.57935C2.25 7.7777 2.25 7.99308 2.25 8.42385V13.8501C2.25 14.6902 2.25 15.1102 2.41349 15.4311C2.5573 15.7133 2.78677 15.9428 3.06901 16.0866C3.38988 16.2501 3.80992 16.2501 4.65 16.2501H13.35C14.1901 16.2501 14.6101 16.2501 14.931 16.0866C15.2132 15.9428 15.4427 15.7133 15.5865 15.4311C15.75 15.1102 15.75 14.6902 15.75 13.8501V8.42385C15.75 7.99308 15.75 7.7777 15.6945 7.57935C15.6453 7.40365 15.5645 7.23839 15.456 7.0917C15.3335 6.9261 15.1635 6.79387 14.8235 6.5294L9.73673 2.57306C9.47324 2.36812 9.34149 2.26565 9.19601 2.22626C9.06765 2.19151 8.93235 2.19151 8.80399 2.22626C8.65851 2.26565 8.52677 2.36812 8.26327 2.57306Z" stroke="#003C32" stroke-width="1.5" stroke-linecap="round" stroke-linejoin="round"/>
</svg>
