<svg width="20" height="22" viewBox="0 0 20 22" fill="none" xmlns="http://www.w3.org/2000/svg">
<path d="M14.7826 5.93244V5.94369M0.728516 6.49461C0.728516 5.30185 1.20234 4.15794 2.04574 3.31454C2.88915 2.47113 4.03306 1.99731 5.22581 1.99731H14.2204C15.4132 1.99731 16.5571 2.47113 17.4005 3.31454C18.2439 4.15794 18.7177 5.30185 18.7177 6.49461V15.4892C18.7177 16.6819 18.2439 17.8259 17.4005 18.6693C16.5571 19.5127 15.4132 19.9865 14.2204 19.9865H5.22581C4.03306 19.9865 2.88915 19.5127 2.04574 18.6693C1.20234 17.8259 0.728516 16.6819 0.728516 15.4892V6.49461ZM6.35014 10.9919C6.35014 11.8865 6.7055 12.7444 7.33806 13.3769C7.97061 14.0095 8.82854 14.3649 9.72311 14.3649C10.6177 14.3649 11.4756 14.0095 12.1082 13.3769C12.7407 12.7444 13.0961 11.8865 13.0961 10.9919C13.0961 10.0973 12.7407 9.23941 12.1082 8.60685C11.4756 7.9743 10.6177 7.61893 9.72311 7.61893C8.82854 7.61893 7.97061 7.9743 7.33806 8.60685C6.7055 9.23941 6.35014 10.0973 6.35014 10.9919Z" stroke="#003C32" stroke-width="1.12432" stroke-linecap="round" stroke-linejoin="round"/>
</svg>
