<svg width="18" height="19" viewBox="0 0 18 19" fill="none" xmlns="http://www.w3.org/2000/svg">
<path d="M9.75 4.25C9.75 5.07843 7.90317 5.75 5.625 5.75C3.34683 5.75 1.5 5.07843 1.5 4.25M9.75 4.25C9.75 3.42157 7.90317 2.75 5.625 2.75C3.34683 2.75 1.5 3.42157 1.5 4.25M9.75 4.25V5.375M1.5 4.25V13.25C1.5 14.0784 3.34683 14.75 5.625 14.75M5.625 8.75C5.49859 8.75 5.37351 8.74793 5.25 8.74388C3.14756 8.67499 1.5 8.03246 1.5 7.25M5.625 11.75C3.34683 11.75 1.5 11.0784 1.5 10.25M16.5 9.125C16.5 9.95343 14.6532 10.625 12.375 10.625C10.0968 10.625 8.25 9.95343 8.25 9.125M16.5 9.125C16.5 8.29657 14.6532 7.625 12.375 7.625C10.0968 7.625 8.25 8.29657 8.25 9.125M16.5 9.125V14.75C16.5 15.5784 14.6532 16.25 12.375 16.25C10.0968 16.25 8.25 15.5784 8.25 14.75V9.125M16.5 11.9375C16.5 12.7659 14.6532 13.4375 12.375 13.4375C10.0968 13.4375 8.25 12.7659 8.25 11.9375" stroke="#003C32" stroke-width="1.2" stroke-linecap="round" stroke-linejoin="round"/>
</svg>
