<svg width="20" height="21" viewBox="0 0 20 21" fill="none" xmlns="http://www.w3.org/2000/svg">
<g clip-path="url(#clip0_23_127)">
<mask id="mask0_23_127" style="mask-type:luminance" maskUnits="userSpaceOnUse" x="0" y="0" width="20" height="21">
<path d="M20 0.5H0V20.5H20V0.5Z" fill="white"/>
</mask>
<g mask="url(#mask0_23_127)">
<path d="M17.6667 18.8335C17.9001 18.8335 18.0168 18.8335 18.1059 18.7881C18.1843 18.7482 18.2481 18.6844 18.288 18.606C18.3334 18.5169 18.3334 18.4002 18.3334 18.1669V9.50017C18.3334 9.26682 18.3334 9.15014 18.288 9.06101C18.2481 8.98261 18.1843 8.91887 18.1059 8.87892C18.0168 8.83351 17.9001 8.83351 17.6667 8.83351L15.6667 8.8335C15.4334 8.8335 15.3167 8.8335 15.2276 8.87892C15.1492 8.91887 15.0854 8.98261 15.0455 9.06101C15.0001 9.15014 15.0001 9.26682 15.0001 9.50017V11.5002C15.0001 11.7335 15.0001 11.8502 14.9547 11.9394C14.9147 12.0178 14.851 12.0815 14.7726 12.1214C14.6834 12.1669 14.5668 12.1669 14.3334 12.1669H12.3334C12.1001 12.1669 11.9834 12.1669 11.8943 12.2123C11.8159 12.2522 11.7521 12.316 11.7122 12.3944C11.6667 12.4835 11.6667 12.6002 11.6667 12.8335V14.8335C11.6667 15.0669 11.6667 15.1836 11.6213 15.2727C11.5814 15.3511 11.5176 15.4148 11.4392 15.4548C11.3501 15.5002 11.2334 15.5002 11.0001 15.5002H9.00003C8.76668 15.5002 8.65 15.5002 8.56087 15.5456C8.48247 15.5856 8.41873 15.6493 8.37878 15.7277C8.33337 15.8168 8.33337 15.9335 8.33337 16.1669V18.1669C8.33337 18.4002 8.33337 18.5169 8.37878 18.606C8.41873 18.6844 8.48247 18.7482 8.56087 18.7881C8.65 18.8335 8.76668 18.8335 9.00003 18.8335H17.6667Z" stroke="#003C32" stroke-width="1.5" stroke-linecap="round" stroke-linejoin="round"/>
<path d="M8.33337 6.16667C8.33337 5.93331 8.33337 5.81663 8.37878 5.7275C8.41873 5.6491 8.48247 5.58536 8.56087 5.54541C8.65 5.5 8.76668 5.5 9.00003 5.5H11.0001C11.2334 5.5 11.3501 5.5 11.4392 5.54541C11.5176 5.58536 11.5814 5.6491 11.6213 5.7275C11.6667 5.81663 11.6667 5.93331 11.6667 6.16667V8.16667C11.6667 8.40002 11.6667 8.5167 11.6213 8.60583C11.5814 8.68423 11.5176 8.74797 11.4392 8.78792C11.3501 8.83333 11.2334 8.83333 11.0001 8.83333H9.00003C8.76668 8.83333 8.65 8.83333 8.56087 8.78792C8.48247 8.74797 8.41873 8.68423 8.37878 8.60583C8.33337 8.5167 8.33337 8.40002 8.33337 8.16667V6.16667Z" stroke="#003C32" stroke-width="1.5" stroke-linecap="round" stroke-linejoin="round"/>
<path d="M2.50012 11.1667C2.50012 10.9333 2.50012 10.8166 2.54554 10.7275C2.58548 10.6491 2.64922 10.5854 2.72763 10.5454C2.81676 10.5 2.93343 10.5 3.16679 10.5H5.16679C5.40014 10.5 5.51682 10.5 5.60595 10.5454C5.68435 10.5854 5.74809 10.6491 5.78804 10.7275C5.83345 10.8166 5.83345 10.9333 5.83345 11.1667V13.1667C5.83345 13.4 5.83345 13.5167 5.78804 13.6058C5.74809 13.6842 5.68435 13.748 5.60595 13.7879C5.51682 13.8333 5.40014 13.8333 5.16679 13.8333H3.16679C2.93343 13.8333 2.81676 13.8333 2.72763 13.7879C2.64922 13.748 2.58548 13.6842 2.54554 13.6058C2.50012 13.5167 2.50012 13.4 2.50012 13.1667V11.1667Z" stroke="#003C32" stroke-width="1.5" stroke-linecap="round" stroke-linejoin="round"/>
<path d="M1.66675 2.83341C1.66675 2.60006 1.66675 2.48338 1.71216 2.39425C1.75211 2.31585 1.81585 2.25211 1.89425 2.21216C1.98338 2.16675 2.10006 2.16675 2.33341 2.16675H4.33341C4.56677 2.16675 4.68345 2.16675 4.77258 2.21216C4.85098 2.25211 4.91472 2.31585 4.95467 2.39425C5.00008 2.48338 5.00008 2.60006 5.00008 2.83341V4.83341C5.00008 5.06677 5.00008 5.18345 4.95467 5.27258C4.91472 5.35098 4.85098 5.41472 4.77258 5.45467C4.68345 5.50008 4.56677 5.50008 4.33341 5.50008H2.33341C2.10006 5.50008 1.98338 5.50008 1.89425 5.45467C1.81585 5.41472 1.75211 5.35098 1.71216 5.27258C1.66675 5.18345 1.66675 5.06677 1.66675 4.83341V2.83341Z" stroke="#003C32" stroke-width="1.5" stroke-linecap="round" stroke-linejoin="round"/>
</g>
</g>
<defs>
<clipPath id="clip0_23_127">
<rect width="20" height="20" fill="white" transform="translate(0 0.5)"/>
</clipPath>
</defs>
</svg>
