<svg width="50" height="51" viewBox="0 0 50 51" fill="none" xmlns="http://www.w3.org/2000/svg">
<g clip-path="url(#clip0_23_87)">
<mask id="mask0_23_87" style="mask-type:luminance" maskUnits="userSpaceOnUse" x="0" y="0" width="50" height="51">
<path d="M50 0.5H0V50.5H50V0.5Z" fill="white"/>
</mask>
<g mask="url(#mask0_23_87)">
<path opacity="0.15" d="M25 50.5C38.8071 50.5 50 39.3071 50 25.5C50 11.6929 38.8071 0.5 25 0.5C11.1929 0.5 0 11.6929 0 25.5C0 39.3071 11.1929 50.5 25 50.5Z" fill="#003C32"/>
<path opacity="0.15" d="M24.9997 43.7691C35.0895 43.7691 43.2689 35.5897 43.2689 25.4999C43.2689 15.4101 35.0895 7.23071 24.9997 7.23071C14.9099 7.23071 6.73053 15.4101 6.73053 25.4999C6.73053 35.5897 14.9099 43.7691 24.9997 43.7691Z" fill="#003C32"/>
<path d="M25.0004 26.6917C26.4363 26.6917 27.6004 25.5276 27.6004 24.0917C27.6004 22.6557 26.4363 21.4917 25.0004 21.4917C23.5645 21.4917 22.4004 22.6557 22.4004 24.0917C22.4004 25.5276 23.5645 26.6917 25.0004 26.6917Z" stroke="#003C32" stroke-width="1.5"/>
<path d="M18.0167 22.5751C19.6584 15.3584 30.3501 15.3668 31.9834 22.5834C32.9417 26.8168 30.3084 30.4001 28.0001 32.6168C26.3251 34.2334 23.6751 34.2334 21.9917 32.6168C19.6918 30.4001 17.0584 26.8084 18.0167 22.5751Z" stroke="#003C32" stroke-width="1.5"/>
</g>
</g>
<defs>
<clipPath id="clip0_23_87">
<rect width="50" height="50" fill="white" transform="translate(0 0.5)"/>
</clipPath>
</defs>
</svg>
