<svg width="50" height="51" viewBox="0 0 50 51" fill="none" xmlns="http://www.w3.org/2000/svg">
<g clip-path="url(#clip0_23_148)">
<mask id="mask0_23_148" style="mask-type:luminance" maskUnits="userSpaceOnUse" x="0" y="0" width="50" height="51">
<path d="M50 0.5H0V50.5H50V0.5Z" fill="white"/>
</mask>
<g mask="url(#mask0_23_148)">
<path opacity="0.15" d="M25 50.5C38.8071 50.5 50 39.3071 50 25.5C50 11.6929 38.8071 0.5 25 0.5C11.1929 0.5 0 11.6929 0 25.5C0 39.3071 11.1929 50.5 25 50.5Z" fill="#003C32"/>
<path opacity="0.15" d="M24.9997 43.7691C35.0895 43.7691 43.2689 35.5897 43.2689 25.4999C43.2689 15.4101 35.0895 7.23071 24.9997 7.23071C14.9099 7.23071 6.73047 15.4101 6.73047 25.4999C6.73047 35.5897 14.9099 43.7691 24.9997 43.7691Z" fill="#003C32"/>
<path d="M29.167 33.2083H20.8337C17.792 33.2083 16.042 31.4583 16.042 28.4167V22.5833C16.042 19.5417 17.792 17.7917 20.8337 17.7917H29.167C32.2087 17.7917 33.9587 19.5417 33.9587 22.5833V28.4167C33.9587 31.4583 32.2087 33.2083 29.167 33.2083ZM20.8337 19.0417C18.4503 19.0417 17.292 20.2 17.292 22.5833V28.4167C17.292 30.8 18.4503 31.9583 20.8337 31.9583H29.167C31.5503 31.9583 32.7087 30.8 32.7087 28.4167V22.5833C32.7087 20.2 31.5503 19.0417 29.167 19.0417H20.8337Z" fill="#003C32"/>
<path d="M25 26.225C24.3 26.225 23.5916 26.0083 23.05 25.5666L20.4416 23.4833C20.175 23.2666 20.125 22.875 20.3416 22.6083C20.5583 22.3416 20.95 22.2916 21.2166 22.5083L23.825 24.5916C24.4583 25.1 25.5333 25.1 26.1666 24.5916L28.775 22.5083C29.0416 22.2916 29.4416 22.3333 29.65 22.6083C29.8666 22.875 29.825 23.275 29.55 23.4833L26.9416 25.5666C26.4083 26.0083 25.7 26.225 25 26.225Z" fill="#003C32"/>
</g>
</g>
<defs>
<clipPath id="clip0_23_148">
<rect width="50" height="50" fill="white" transform="translate(0 0.5)"/>
</clipPath>
</defs>
</svg>
