<svg width="20" height="21" viewBox="0 0 20 21" fill="none" xmlns="http://www.w3.org/2000/svg">
<g clip-path="url(#clip0_23_172)">
<mask id="mask0_23_172" style="mask-type:luminance" maskUnits="userSpaceOnUse" x="0" y="0" width="20" height="21">
<path d="M20 0.5H0V20.5H20V0.5Z" fill="white"/>
</mask>
<g mask="url(#mask0_23_172)">
<path d="M17.6667 18.8335C17.9 18.8335 18.0167 18.8335 18.1059 18.788C18.1843 18.7481 18.248 18.6844 18.2879 18.606C18.3334 18.5168 18.3334 18.4001 18.3334 18.1668V9.50017C18.3334 9.26682 18.3334 9.15014 18.2879 9.06101C18.248 8.98261 18.1843 8.91887 18.1059 8.87892C18.0167 8.83351 17.9 8.83351 17.6667 8.83351L15.6667 8.8335C15.4333 8.8335 15.3167 8.8335 15.2275 8.87892C15.1491 8.91887 15.0854 8.98261 15.0454 9.06101C15 9.15014 15 9.26682 15 9.50017V11.5001C15 11.7335 15 11.8502 14.9546 11.9393C14.9147 12.0177 14.8509 12.0814 14.7725 12.1214C14.6834 12.1668 14.5667 12.1668 14.3334 12.1668H12.3334C12.1 12.1668 11.9833 12.1668 11.8942 12.2122C11.8158 12.2521 11.752 12.3159 11.7121 12.3943C11.6667 12.4834 11.6667 12.6001 11.6667 12.8335V14.8335C11.6667 15.0668 11.6667 15.1835 11.6213 15.2726C11.5813 15.351 11.5176 15.4148 11.4392 15.4547C11.3501 15.5001 11.2334 15.5001 11 15.5001H9.00004C8.76669 15.5001 8.65001 15.5001 8.56088 15.5455C8.48248 15.5855 8.41874 15.6492 8.37879 15.7276C8.33337 15.8168 8.33337 15.9334 8.33337 16.1668V18.1668C8.33337 18.4001 8.33337 18.5168 8.37879 18.6059C8.41874 18.6843 8.48248 18.7481 8.56088 18.788C8.65001 18.8335 8.76669 18.8335 9.00004 18.8335H17.6667Z" stroke="#003C32" stroke-width="1.5" stroke-linecap="round" stroke-linejoin="round"/>
<path d="M8.33337 6.16667C8.33337 5.93331 8.33337 5.81663 8.37879 5.7275C8.41874 5.6491 8.48248 5.58536 8.56088 5.54541C8.65001 5.5 8.76669 5.5 9.00004 5.5H11C11.2334 5.5 11.3501 5.5 11.4392 5.54541C11.5176 5.58536 11.5813 5.6491 11.6213 5.7275C11.6667 5.81663 11.6667 5.93331 11.6667 6.16667V8.16667C11.6667 8.40002 11.6667 8.5167 11.6213 8.60583C11.5813 8.68423 11.5176 8.74797 11.4392 8.78792C11.3501 8.83333 11.2334 8.83333 11 8.83333H9.00004C8.76669 8.83333 8.65001 8.83333 8.56088 8.78792C8.48248 8.74797 8.41874 8.68423 8.37879 8.60583C8.33337 8.5167 8.33337 8.40002 8.33337 8.16667V6.16667Z" stroke="#003C32" stroke-width="1.5" stroke-linecap="round" stroke-linejoin="round"/>
<path d="M2.5 11.1667C2.5 10.9333 2.5 10.8167 2.54541 10.7275C2.58536 10.6491 2.6491 10.5854 2.7275 10.5454C2.81663 10.5 2.93331 10.5 3.16667 10.5H5.16667C5.40002 10.5 5.5167 10.5 5.60583 10.5454C5.68423 10.5854 5.74797 10.6491 5.78792 10.7275C5.83333 10.8167 5.83333 10.9333 5.83333 11.1667V13.1667C5.83333 13.4 5.83333 13.5167 5.78792 13.6059C5.74797 13.6843 5.68423 13.748 5.60583 13.7879C5.5167 13.8334 5.40002 13.8334 5.16667 13.8334H3.16667C2.93331 13.8334 2.81663 13.8334 2.7275 13.7879C2.6491 13.748 2.58536 13.6843 2.54541 13.6059C2.5 13.5167 2.5 13.4 2.5 13.1667V11.1667Z" stroke="#003C32" stroke-width="1.5" stroke-linecap="round" stroke-linejoin="round"/>
<path d="M1.66669 2.83341C1.66669 2.60006 1.66669 2.48338 1.7121 2.39425C1.75205 2.31585 1.81579 2.25211 1.89419 2.21216C1.98332 2.16675 2.1 2.16675 2.33335 2.16675H4.33335C4.56671 2.16675 4.68339 2.16675 4.77252 2.21216C4.85092 2.25211 4.91466 2.31585 4.95461 2.39425C5.00002 2.48338 5.00002 2.60006 5.00002 2.83341V4.83341C5.00002 5.06677 5.00002 5.18345 4.95461 5.27258C4.91466 5.35098 4.85092 5.41472 4.77252 5.45467C4.68339 5.50008 4.56671 5.50008 4.33335 5.50008H2.33335C2.1 5.50008 1.98332 5.50008 1.89419 5.45467C1.81579 5.41472 1.75205 5.35098 1.7121 5.27258C1.66669 5.18345 1.66669 5.06677 1.66669 4.83341V2.83341Z" stroke="#003C32" stroke-width="1.5" stroke-linecap="round" stroke-linejoin="round"/>
</g>
</g>
<defs>
<clipPath id="clip0_23_172">
<rect width="20" height="20" fill="white" transform="translate(0 0.5)"/>
</clipPath>
</defs>
</svg>
