<svg width="25" height="26" viewBox="0 0 25 26" fill="none" xmlns="http://www.w3.org/2000/svg">
<path d="M12.3362 8.39575C11.6602 8.39575 11.1123 8.94141 11.1123 9.6145C11.1123 10.0632 10.747 10.427 10.2964 10.427C9.84577 10.427 9.48047 10.0632 9.48047 9.6145C9.48047 8.04394 10.759 6.77075 12.3362 6.77075C13.9133 6.77075 15.1918 8.04394 15.1918 9.6145C15.1918 10.6582 14.6268 11.5695 13.7887 12.0633C13.5747 12.1894 13.398 12.3271 13.2829 12.4622C13.1711 12.5933 13.1521 12.6789 13.1521 12.7291V14.0833C13.1521 14.532 12.7868 14.8958 12.3362 14.8958C11.8856 14.8958 11.5203 14.532 11.5203 14.0833V12.7291C11.5203 12.1811 11.7612 11.7364 12.0387 11.4107C12.3129 11.089 12.6548 10.8433 12.9578 10.6647C13.3201 10.4513 13.56 10.0604 13.56 9.6145C13.56 8.94141 13.0121 8.39575 12.3362 8.39575Z" fill="#003C32"/>
<path d="M12.3362 18.4166C12.937 18.4166 13.424 17.9316 13.424 17.3333C13.424 16.735 12.937 16.25 12.3362 16.25C11.7354 16.25 11.2483 16.735 11.2483 17.3333C11.2483 17.9316 11.7354 18.4166 12.3362 18.4166Z" fill="#003C32"/>
<path fill-rule="evenodd" clip-rule="evenodd" d="M12.2737 1.354H12.3986C14.9098 1.35399 16.8778 1.35398 18.4133 1.55957C19.985 1.76999 21.2252 2.20911 22.1986 3.17849C23.172 4.14786 23.613 5.38289 23.8243 6.94802C24.0307 8.47713 24.0307 10.4369 24.0307 12.9377V13.062C24.0307 15.5628 24.0307 17.5226 23.8243 19.0517C23.613 20.6168 23.172 21.8518 22.1986 22.8212C21.2252 23.7906 19.985 24.2297 18.4133 24.4401C16.8778 24.6457 14.9098 24.6457 12.3986 24.6457H12.2737C9.76252 24.6457 7.79453 24.6457 6.25902 24.4401C4.68734 24.2297 3.44715 23.7906 2.47372 22.8212C1.50028 21.8518 1.05933 20.6168 0.848021 19.0517C0.641578 17.5226 0.641588 15.5628 0.641602 13.062V12.9377C0.641588 10.4369 0.641578 8.47713 0.848021 6.94802C1.05933 5.38289 1.50028 4.14786 2.47372 3.17849C3.44715 2.20911 4.68734 1.76999 6.25902 1.55957C7.79453 1.35398 9.76253 1.35399 12.2737 1.354ZM6.47646 3.17007C5.08572 3.35627 4.24728 3.71041 3.62757 4.32754C3.00786 4.94466 2.65225 5.77961 2.46527 7.16455C2.27513 8.57286 2.2734 10.4234 2.2734 12.9999C2.2734 15.5763 2.27513 17.4268 2.46527 18.8352C2.65225 20.2201 3.00786 21.055 3.62757 21.6722C4.24728 22.2893 5.08572 22.6434 6.47646 22.8296C7.89066 23.019 9.74897 23.0207 12.3362 23.0207C14.9234 23.0207 16.7817 23.019 18.1959 22.8296C19.5866 22.6434 20.425 22.2893 21.0448 21.6722C21.6645 21.055 22.0201 20.2201 22.2071 18.8352C22.3972 17.4268 22.3989 15.5763 22.3989 12.9999C22.3989 10.4234 22.3972 8.57286 22.2071 7.16455C22.0201 5.77961 21.6645 4.94466 21.0448 4.32754C20.425 3.71041 19.5866 3.35627 18.1959 3.17007C16.7817 2.98073 14.9234 2.97901 12.3362 2.97901C9.74897 2.97901 7.89066 2.98073 6.47646 3.17007Z" fill="#003C32"/>
</svg>
