<svg width="18" height="19" viewBox="0 0 18 19" fill="none" xmlns="http://www.w3.org/2000/svg">
<path d="M9.69 2.19488L14.5725 4.82738C15.1425 5.13488 15.1425 6.01238 14.5725 6.31988L9.69 8.95238C9.255 9.18488 8.745 9.18488 8.31 8.95238L3.4275 6.31988C2.8575 6.01238 2.8575 5.13488 3.4275 4.82738L8.31 2.19488C8.745 1.96238 9.255 1.96238 9.69 2.19488Z" stroke="#003C32" stroke-width="1.5" stroke-linecap="round" stroke-linejoin="round"/>
<path d="M2.7075 8.09726L7.245 10.3698C7.8075 10.6548 8.1675 11.2323 8.1675 11.8623V16.1523C8.1675 16.7748 7.515 17.1723 6.96 16.8948L2.4225 14.6223C1.86 14.3373 1.5 13.7598 1.5 13.1298V8.83976C1.5 8.21726 2.1525 7.81976 2.7075 8.09726Z" stroke="#003C32" stroke-width="1.5" stroke-linecap="round" stroke-linejoin="round"/>
<path d="M15.2925 8.09726L10.755 10.3698C10.1925 10.6548 9.83252 11.2323 9.83252 11.8623V16.1523C9.83252 16.7748 10.485 17.1723 11.04 16.8948L15.5775 14.6223C16.14 14.3373 16.5 13.7598 16.5 13.1298V8.83976C16.5 8.21726 15.8475 7.81976 15.2925 8.09726Z" stroke="#003C32" stroke-width="1.5" stroke-linecap="round" stroke-linejoin="round"/>
</svg>
