<svg width="24" height="24" viewBox="0 0 24 24" fill="none" xmlns="http://www.w3.org/2000/svg">
<path d="M12.92 2.25992L19.43 5.76992C20.19 6.17992 20.19 7.34992 19.43 7.75992L12.92 11.2699C12.34 11.5799 11.66 11.5799 11.08 11.2699L4.57 7.75992C3.81 7.34992 3.81 6.17992 4.57 5.76992L11.08 2.25992C11.66 1.94992 12.34 1.94992 12.92 2.25992Z" stroke="#292D32" stroke-width="1.2" stroke-linecap="round" stroke-linejoin="round"/>
<path d="M3.60976 10.1301L9.65976 13.1601C10.4098 13.5401 10.8898 14.3101 10.8898 15.1501V20.8701C10.8898 21.7001 10.0198 22.2301 9.27976 21.8601L3.22976 18.8301C2.47976 18.4501 1.99976 17.6801 1.99976 16.8401V11.1201C1.99976 10.2901 2.86976 9.7601 3.60976 10.1301Z" stroke="#292D32" stroke-width="1.2" stroke-linecap="round" stroke-linejoin="round"/>
<path d="M20.3899 10.1301L14.3399 13.1601C13.5899 13.5401 13.1099 14.3101 13.1099 15.1501V20.8701C13.1099 21.7001 13.9799 22.2301 14.7199 21.8601L20.7699 18.8301C21.5199 18.4501 21.9999 17.6801 21.9999 16.8401V11.1201C21.9999 10.2901 21.1299 9.7601 20.3899 10.1301Z" stroke="#292D32" stroke-width="1.2" stroke-linecap="round" stroke-linejoin="round"/>
</svg>
