<svg width="50" height="51" viewBox="0 0 50 51" fill="none" xmlns="http://www.w3.org/2000/svg">
<g clip-path="url(#clip0_23_213)">
<mask id="mask0_23_213" style="mask-type:luminance" maskUnits="userSpaceOnUse" x="0" y="0" width="50" height="51">
<path d="M50 0.5H0V50.5H50V0.5Z" fill="white"/>
</mask>
<g mask="url(#mask0_23_213)">
<path opacity="0.15" d="M25 50.5C38.8071 50.5 50 39.3071 50 25.5C50 11.6929 38.8071 0.5 25 0.5C11.1929 0.5 0 11.6929 0 25.5C0 39.3071 11.1929 50.5 25 50.5Z" fill="#003C32"/>
<path opacity="0.15" d="M24.9997 43.7691C35.0895 43.7691 43.2689 35.5897 43.2689 25.4999C43.2689 15.4101 35.0895 7.23071 24.9997 7.23071C14.9099 7.23071 6.73053 15.4101 6.73053 25.4999C6.73053 35.5897 14.9099 43.7691 24.9997 43.7691Z" fill="#003C32"/>
<path d="M32.4503 26.3709C32.6267 24.8611 32.3403 23.3333 31.6289 21.99C30.9175 20.6467 29.8148 19.5513 28.4667 18.8489C27.1187 18.1464 25.5891 17.8702 24.0805 18.0568C22.572 18.2433 21.1557 18.8838 20.0194 19.8935C18.8831 20.9031 18.0804 22.2342 17.7176 23.7103C17.3549 25.1865 17.4493 26.738 17.9882 28.1593C18.5272 29.5806 19.4853 30.8046 20.7356 31.6691C21.9859 32.5335 23.4694 32.9977 24.9894 33M18.0002 23H32.0002M18.0002 28H25.8336M24.5836 18C23.1797 20.2497 22.4354 22.8483 22.4354 25.5C22.4354 28.1518 23.1797 30.7504 24.5836 33M25.4169 18C27.0162 20.5616 27.7547 23.5674 27.5244 26.5784M28.3336 33.8334L32.5003 29.6667M32.5003 29.6667V33.4167M32.5003 29.6667H28.7503" stroke="#003C32" stroke-width="1.12432" stroke-linecap="round" stroke-linejoin="round"/>
</g>
</g>
<defs>
<clipPath id="clip0_23_213">
<rect width="50" height="50" fill="white" transform="translate(0 0.5)"/>
</clipPath>
</defs>
</svg>
