<svg width="76" height="77" viewBox="0 0 76 77" fill="none" xmlns="http://www.w3.org/2000/svg">
<g clip-path="url(#clip0_23_226)">
<path opacity="0.15" d="M38 76.5C58.9868 76.5 76 59.4868 76 38.5C76 17.5132 58.9868 0.5 38 0.5C17.0132 0.5 0 17.5132 0 38.5C0 59.4868 17.0132 76.5 38 76.5Z" fill="#003C32"/>
<path opacity="0.15" d="M37.9997 66.2694C53.3362 66.2694 65.7689 53.8367 65.7689 38.5002C65.7689 23.1637 53.3362 10.731 37.9997 10.731C22.6632 10.731 10.2305 23.1637 10.2305 38.5002C10.2305 53.8367 22.6632 66.2694 37.9997 66.2694Z" fill="#003C32"/>
<path d="M48.0402 47.2694C49.4287 46.2317 50.5687 43.9663 50.5687 42.2417V31.3825C50.5687 29.5848 49.1949 27.5971 47.5141 26.9686L40.221 24.2356C39.0079 23.7825 37.0202 23.7825 35.8071 24.2356L28.5141 26.9686C26.8333 27.5971 25.4595 29.5848 25.4595 31.3825V42.2417C25.4595 43.9663 26.5994 46.2317 27.9879 47.2694L34.2725 51.961C36.3333 53.5102 39.7241 53.5102 41.7848 51.961L42.8664 51.1425" stroke="#003C32" stroke-width="2.19231" stroke-linecap="round" stroke-linejoin="round"/>
<path d="M37.9995 36.9218C37.941 36.9218 37.8679 36.9218 37.8095 36.9218C36.4356 36.8779 35.3395 35.7379 35.3395 34.3495C35.3395 32.9318 36.4941 31.7771 37.9118 31.7771C39.3295 31.7771 40.4841 32.9318 40.4841 34.3495C40.4695 35.7525 39.3733 36.8779 37.9995 36.9218Z" stroke="#003C32" stroke-width="2.19231" stroke-linecap="round" stroke-linejoin="round"/>
<path d="M35.091 41.014C33.6879 41.9494 33.6879 43.484 35.091 44.4194C36.6841 45.4863 39.3002 45.4863 40.8933 44.4194C42.2964 43.484 42.2964 41.9494 40.8933 41.014C39.3149 39.9471 36.6987 39.9471 35.091 41.014Z" stroke="#003C32" stroke-width="2.19231" stroke-linecap="round" stroke-linejoin="round"/>
</g>
<defs>
<clipPath id="clip0_23_226">
<rect width="76" height="76" fill="white" transform="translate(0 0.5)"/>
</clipPath>
</defs>
</svg>
