<svg width="24" height="25" viewBox="0 0 24 25" fill="none" xmlns="http://www.w3.org/2000/svg">
<path d="M8.37988 12.5001L10.7899 14.9201L15.6199 10.0801" stroke="#003C32" stroke-width="1.5" stroke-linecap="round" stroke-linejoin="round"/>
<path d="M10.7499 2.95007C11.4399 2.36007 12.5699 2.36007 13.2699 2.95007L14.8499 4.31007C15.1499 4.57007 15.7099 4.78007 16.1099 4.78007H17.8099C18.8699 4.78007 19.7399 5.65007 19.7399 6.71007V8.41007C19.7399 8.80007 19.9499 9.37007 20.2099 9.67007L21.5699 11.2501C22.1599 11.9401 22.1599 13.0701 21.5699 13.7701L20.2099 15.3501C19.9499 15.6501 19.7399 16.2101 19.7399 16.6101V18.3101C19.7399 19.3701 18.8699 20.2401 17.8099 20.2401H16.1099C15.7199 20.2401 15.1499 20.4501 14.8499 20.7101L13.2699 22.0701C12.5799 22.6601 11.4499 22.6601 10.7499 22.0701L9.16988 20.7101C8.86988 20.4501 8.30988 20.2401 7.90988 20.2401H6.17988C5.11988 20.2401 4.24988 19.3701 4.24988 18.3101V16.6001C4.24988 16.2101 4.03988 15.6501 3.78988 15.3501L2.43988 13.7601C1.85988 13.0701 1.85988 11.9501 2.43988 11.2601L3.78988 9.67007C4.03988 9.37007 4.24988 8.81007 4.24988 8.42007V6.70007C4.24988 5.64007 5.11988 4.77007 6.17988 4.77007H7.90988C8.29988 4.77007 8.86988 4.56007 9.16988 4.30007L10.7499 2.95007Z" stroke="#003C32" stroke-width="1.5" stroke-linecap="round" stroke-linejoin="round"/>
</svg>
