<svg width="18" height="19" viewBox="0 0 18 19" fill="none" xmlns="http://www.w3.org/2000/svg">
<path d="M12 6.49999V3.87548C12 3.25168 12 2.93978 11.8686 2.7481C11.7538 2.58063 11.576 2.46687 11.3758 2.4328C11.1467 2.39382 10.8635 2.52452 10.2971 2.78593L3.64426 5.85649C3.13913 6.08963 2.88656 6.20619 2.70158 6.38698C2.53804 6.54681 2.41321 6.74191 2.33663 6.95737C2.25 7.20108 2.25 7.47925 2.25 8.03559V11.75M12.375 11.375H12.3825M2.25 8.89999V13.85C2.25 14.6901 2.25 15.1101 2.41349 15.431C2.5573 15.7132 2.78677 15.9427 3.06901 16.0865C3.38988 16.25 3.80992 16.25 4.65 16.25H13.35C14.1901 16.25 14.6101 16.25 14.931 16.0865C15.2132 15.9427 15.4427 15.7132 15.5865 15.431C15.75 15.1101 15.75 14.6901 15.75 13.85V8.89999C15.75 8.05992 15.75 7.63988 15.5865 7.31901C15.4427 7.03677 15.2132 6.80729 14.931 6.66348C14.6101 6.49999 14.1901 6.49999 13.35 6.49999H4.65C3.80992 6.49999 3.38988 6.49999 3.06901 6.66348C2.78677 6.80729 2.5573 7.03676 2.41349 7.31901C2.25 7.63987 2.25 8.05991 2.25 8.89999ZM12.75 11.375C12.75 11.5821 12.5821 11.75 12.375 11.75C12.1679 11.75 12 11.5821 12 11.375C12 11.1679 12.1679 11 12.375 11C12.5821 11 12.75 11.1679 12.75 11.375Z" stroke="#003C32" stroke-width="1.5" stroke-linecap="round" stroke-linejoin="round"/>
</svg>
