<svg width="635" height="146" viewBox="0 0 635 146" fill="none" xmlns="http://www.w3.org/2000/svg">
<g clip-path="url(#clip0_148_22)">
<path d="M443.182 57.5108L425.671 63.8771V113.204L390.657 125.937V145.992L425.671 133.241C436.319 129.367 443.182 122.907 443.182 112.871V57.5022V57.5108Z" fill="white"/>
<path d="M171.228 63.8515V89.0269L144.899 79.9211V66.0447L127.387 72.4111V89.0269H92.3742V57.5108L74.8629 63.8771V125.945H17.5747V84.171L0.0634766 90.5288V128.932C0.0634766 138.362 8.09244 146 18.0053 146H74.4323C84.3451 146 92.3742 138.362 92.3742 128.932V109.082H124.849C132.429 109.082 139.023 105.062 142.432 99.165L171.156 109.082L188.731 102.604V57.4851L171.22 63.8515H171.228Z" fill="white"/>
<path d="M408.168 102.716L390.657 109.082V18.9115L408.168 12.5452V102.716Z" fill="white"/>
<path d="M443.191 30.8848H425.679V47.5431H443.191V30.8848Z" fill="white"/>
<path d="M312.359 0L254.631 20.9681V28.6316L312.359 7.66355V0Z" fill="white"/>
<path d="M340.518 47.5429H266.697L266.536 47.3979L312.359 30.7566V12.7498L254.631 33.7178V67.5979H345.255C350.36 67.5979 355.653 72.2319 355.653 77.4888V89.0268H223.753V57.4851L206.242 63.877V113.212L171.228 125.945V146L206.242 133.25C216.891 129.376 223.753 122.916 223.753 112.88V109.09H373.155V68.6476C373.155 51.5027 360.057 47.5515 340.518 47.5515V47.5429Z" fill="white"/>
<path d="M615.764 118.597H500.73L519.91 82.1228H634.935L615.764 118.597Z" fill="#D22630"/>
<path d="M596.593 63.8769H481.559L500.73 27.4026H615.764L596.593 63.8769Z" fill="#D22630"/>
<path d="M9.5198 31.2522C8.5462 31.2522 7.63344 31.0785 6.78154 30.7312C5.92963 30.3839 5.19943 29.9208 4.59094 29.3419C3.98243 28.7399 3.49563 28.0453 3.13053 27.258C2.78977 26.4476 2.61938 25.5908 2.61938 24.6878V18.6792H5.61322V24.5142C5.61322 25.4635 5.94181 26.2623 6.59899 26.9107C7.25617 27.5358 8.09591 27.8484 9.11819 27.8484H33.5434C34.1033 27.8484 34.5658 27.6632 34.9308 27.2927C35.3203 26.9223 35.515 26.4708 35.515 25.9382V23.5416C35.515 22.9628 35.3081 22.4766 34.8943 22.0829C34.4806 21.6662 33.9694 21.4577 33.3609 21.4577H16.0551L13.8645 19.5128L23.8318 8.3985L26.0224 10.3087L18.8664 18.3319H33.1054C33.8599 18.3319 34.5658 18.4708 35.2229 18.7486C35.8801 19.0033 36.452 19.3738 36.9388 19.8601C37.4257 20.3231 37.803 20.8673 38.0707 21.4925C38.3628 22.1177 38.5088 22.7776 38.5088 23.4722V25.6604C38.5332 26.2623 38.7644 26.7833 39.2025 27.2233C39.6649 27.64 40.2126 27.8484 40.8454 27.8484H42.5249C42.671 27.8484 42.7926 27.9063 42.89 28.0221C42.9874 28.1147 43.0361 28.2305 43.0361 28.3694V30.7312C43.0361 30.8701 42.9874 30.9975 42.89 31.1133C42.7926 31.2059 42.671 31.2522 42.5249 31.2522H41.3932C40.5412 31.2522 39.738 31.0785 38.9834 30.7312C38.2533 30.3839 37.6326 29.8976 37.1215 29.2725C36.6347 29.8976 36.0383 30.3839 35.3325 30.7312C34.6509 31.0785 33.9086 31.2522 33.1054 31.2522H9.5198ZM11.893 15.4144L19.6331 6.73136L21.203 8.08591L13.4994 16.6648L11.893 15.4144ZM47.7125 16.3174H51.181V13.0179H47.7125V16.3174ZM56.0003 30.7659C56.0003 30.8817 55.9516 30.9975 55.8543 31.1133C55.7569 31.2059 55.6352 31.2522 55.4892 31.2522H53.043C52.6536 31.2522 52.2519 31.1943 51.8381 31.0785C51.4243 30.9627 51.0349 30.8122 50.6698 30.627C50.3047 30.4186 49.9883 30.1755 49.7206 29.8976C49.4529 29.6198 49.2581 29.3303 49.1364 29.0293C48.747 29.6545 48.1506 30.1871 47.3474 30.627C46.5685 31.0437 45.7653 31.2522 44.9377 31.2522H42.5281C42.1873 31.2522 42.0169 31.0901 42.0169 30.7659V28.3347C42.0169 28.0105 42.1873 27.8484 42.5281 27.8484H45.1203C45.7532 27.8484 46.3008 27.6632 46.7632 27.2927C47.25 26.9223 47.5543 26.4476 47.676 25.8687L48.9173 20.1032L51.8747 20.5894L50.8524 25.4172C50.7306 26.0423 50.8889 26.6096 51.327 27.1191C51.7895 27.6054 52.3737 27.8484 53.0795 27.8484H55.4892C55.8299 27.8484 56.0003 28.0105 56.0003 28.3347V30.7659ZM55.7983 35.42H59.2303V38.7196H55.7983V35.42ZM61.1288 35.42H64.5973V38.7196H61.1288V35.42ZM62.7353 27.8484C63.3681 27.8484 63.9158 27.6284 64.3782 27.1885C64.8407 26.7486 65.0719 26.2276 65.0719 25.6256V18.957H68.0657V25.6256C68.0657 26.3897 67.9076 27.1191 67.5911 27.8137C67.299 28.4852 66.8852 29.0757 66.3498 29.585C65.8143 30.0945 65.1815 30.4996 64.4512 30.8007C63.7454 31.1017 62.9786 31.2522 62.1511 31.2522H55.5063C55.3603 31.2522 55.2386 31.2059 55.1412 31.1133C55.0438 30.9975 54.9951 30.8817 54.9951 30.7659V28.3694C54.9951 28.2305 55.0438 28.1147 55.1412 28.0221C55.2386 27.9063 55.3603 27.8484 55.5063 27.8484H62.7353ZM91.499 27.8484H92.3752C92.4969 27.8484 92.6065 27.9063 92.7038 28.0221C92.8255 28.1147 92.8864 28.2305 92.8864 28.3694V30.7659C92.8864 31.0901 92.7159 31.2522 92.3752 31.2522H91.645C90.7201 31.2522 89.8804 31.0437 89.1258 30.627C88.3713 30.1871 87.7506 29.6198 87.2637 28.9251C86.7527 29.6661 86.0954 30.2449 85.2923 30.6618C84.489 31.0553 83.625 31.2522 82.7 31.2522H77.7712C77.187 31.2522 76.6394 31.148 76.1282 30.9396C75.6171 30.708 75.1668 30.4186 74.7774 30.0713C74.3879 29.7008 74.0837 29.2725 73.8646 28.7862C73.6455 28.2768 73.536 27.7442 73.536 27.1885V23.2291H76.1282V26.598C76.1282 26.9454 76.2378 27.2464 76.4568 27.5011C76.6758 27.7326 76.9801 27.8484 77.3696 27.8484H82.7C83.1625 27.8484 83.5762 27.7558 83.9414 27.5706C84.3309 27.3853 84.6472 27.1423 84.8907 26.8412C85.1584 26.517 85.3409 26.1581 85.4383 25.7645C85.56 25.3709 85.5722 24.9773 85.4748 24.5836L82.7 14.9976L85.5478 13.9904L89.0893 26.0771C89.2353 26.6096 89.5274 27.0381 89.9656 27.3622C90.428 27.6864 90.9392 27.8484 91.499 27.8484ZM97.4111 27.8484C98.0442 27.8484 98.5919 27.6284 99.0542 27.1885C99.5166 26.7486 99.7477 26.2276 99.7477 25.6256V18.957H102.741V25.6256C102.741 26.3897 102.583 27.1191 102.268 27.8137C101.975 28.4852 101.562 29.0757 101.025 29.585C100.49 30.0945 99.8571 30.4996 99.1271 30.8007C98.4211 31.1017 97.6547 31.2522 96.8269 31.2522H92.3729C92.2269 31.2522 92.1052 31.2059 92.0078 31.1133C91.9105 30.9975 91.8617 30.8817 91.8617 30.7659V28.3694C91.8617 28.2305 91.9105 28.1147 92.0078 28.0221C92.1052 27.9063 92.2269 27.8484 92.3729 27.8484H97.4111ZM99.3832 15.1365H102.852V11.837H99.3832V15.1365ZM115.182 30.7659C115.182 31.0901 115.012 31.2522 114.67 31.2522H113.393C112.59 31.2522 111.835 31.1133 111.129 30.8354C110.423 30.5344 109.802 30.1291 109.267 29.6198C108.732 29.1103 108.306 28.52 107.989 27.8484C107.697 27.1538 107.551 26.4244 107.551 25.6604V8.05118H110.545V25.6256C110.545 26.2276 110.776 26.7486 111.239 27.1885C111.701 27.6284 112.249 27.8484 112.881 27.8484H114.67C114.817 27.8484 114.939 27.9063 115.036 28.0221C115.134 28.1147 115.182 28.2305 115.182 28.3694V30.7659ZM121.265 21.8745H126.449V17.7414C126.449 17.2089 126.255 16.7574 125.865 16.3869C125.476 16.0164 125.002 15.8312 124.442 15.8312H122.032C121.545 15.8312 121.108 15.9817 120.718 16.2827C120.353 16.5605 120.134 16.931 120.06 17.3941L119.55 19.8948C119.452 20.4274 119.574 20.8904 119.914 21.2841C120.255 21.6778 120.706 21.8745 121.265 21.8745ZM129.443 25.6256C129.443 26.4128 129.286 27.1538 128.969 27.8484C128.677 28.52 128.263 29.1103 127.728 29.6198C127.192 30.1291 126.56 30.5344 125.829 30.8354C125.123 31.1133 124.356 31.2522 123.529 31.2522H114.657C114.316 31.2522 114.146 31.0901 114.146 30.7659V28.3347C114.146 28.2189 114.194 28.1147 114.292 28.0221C114.389 27.9063 114.511 27.8484 114.657 27.8484H123.894C124.575 27.8484 125.172 27.6632 125.683 27.2927C126.194 26.9223 126.449 26.3318 126.449 25.5214V24.9657C125.914 25.1741 125.342 25.2783 124.733 25.2783H121.63C120.827 25.2783 120.073 25.1161 119.367 24.792C118.686 24.4678 118.113 24.0395 117.651 23.507C117.188 22.9512 116.86 22.3261 116.665 21.6314C116.471 20.9136 116.446 20.1843 116.592 19.4433L117.176 16.5605C117.298 15.9817 117.505 15.4607 117.797 14.9976C118.113 14.5113 118.491 14.0945 118.928 13.7472C119.367 13.3999 119.865 13.1337 120.426 12.9484C120.986 12.74 121.57 12.6358 122.178 12.6358H124.113C124.844 12.6358 125.537 12.7748 126.194 13.0526C126.851 13.3073 127.411 13.6662 127.874 14.1293C128.36 14.5924 128.738 15.1365 129.006 15.7617C129.297 16.3869 129.443 17.0468 129.443 17.7414V25.6256ZM121.557 5.58521H125.026V8.88475H121.557V5.58521ZM142.806 31.2522C142.222 31.2522 141.674 31.148 141.163 30.9396C140.652 30.708 140.202 30.4186 139.812 30.0713C139.423 29.7008 139.118 29.2725 138.899 28.7862C138.68 28.2768 138.57 27.7442 138.57 27.1885V23.2291H141.126V26.598C141.126 26.9454 141.236 27.2464 141.454 27.5011C141.674 27.7326 141.991 27.8484 142.404 27.8484H148.209C148.842 27.8484 149.378 27.7211 149.816 27.4664C150.253 27.1885 150.57 26.8528 150.765 26.4592C150.984 26.0423 151.094 25.6024 151.094 25.1393C151.094 24.6762 150.972 24.2479 150.728 23.8542L146.42 16.5258L148.939 14.9281L153.357 22.3955C153.965 23.4143 154.258 24.4563 154.233 25.5214C154.209 26.5634 153.941 27.5127 153.43 28.3694C152.919 29.203 152.2 29.8976 151.276 30.4534C150.375 30.9859 149.329 31.2522 148.136 31.2522H142.806ZM161.851 31.2522H158.857V8.05118H161.851V31.2522ZM170.003 19.9643V25.7645C170.003 26.3665 170.234 26.8644 170.697 27.258C171.183 27.6516 171.744 27.8484 172.376 27.8484H175.698C176.039 27.8484 176.21 28.0105 176.21 28.3347V30.7659C176.21 31.0901 176.039 31.2522 175.698 31.2522H172.887C172.328 31.2522 171.791 31.1595 171.281 30.9743C170.77 30.7659 170.344 30.4302 170.003 29.9671V31.2175C170.003 32.0511 169.857 32.8499 169.565 33.614C169.297 34.378 168.907 35.0843 168.397 35.7326C167.91 36.381 167.325 36.9367 166.644 37.3998C165.962 37.886 165.207 38.2681 164.381 38.546L159.89 40.0047L158.94 37.2261L163.65 35.7326C164.672 35.4084 165.488 34.8411 166.097 34.0307C166.705 33.2203 167.009 32.3057 167.009 31.2869V19.9643H170.003ZM179.604 21.5272L177.377 19.5475L187.344 8.46797L189.535 10.3783L182.378 18.4013H196.618C197.372 18.4013 198.078 18.5402 198.735 18.8181C199.392 19.0728 199.965 19.4317 200.451 19.8948C200.938 20.3579 201.315 20.902 201.583 21.5272C201.875 22.1523 202.021 22.8239 202.021 23.5416V26.1119C202.021 26.8296 201.875 27.5127 201.583 28.1611C201.291 28.7862 200.889 29.3303 200.378 29.7934C199.892 30.2334 199.307 30.5922 198.625 30.8701C197.968 31.1249 197.275 31.2522 196.545 31.2522H175.697C175.552 31.2522 175.43 31.2059 175.332 31.1133C175.235 30.9975 175.186 30.8817 175.186 30.7659V28.3347C175.186 28.0105 175.357 27.8484 175.697 27.8484H197.019C197.555 27.8484 198.017 27.6632 198.407 27.2927C198.82 26.9223 199.027 26.4708 199.027 25.9382V23.6112C199.051 23.0091 198.845 22.5113 198.407 22.1177C197.992 21.724 197.482 21.5272 196.873 21.5272H179.604Z" fill="white"/>
</g>
<defs>
<clipPath id="clip0_148_22">
<rect width="635" height="146" fill="white"/>
</clipPath>
</defs>
</svg>
