<svg width="662" height="160" viewBox="0 0 662 160" fill="none" xmlns="http://www.w3.org/2000/svg">
<path d="M462.026 63.0255L443.77 70.0023V124.059L407.268 138.013V159.991L443.77 146.018C454.871 141.772 462.026 134.693 462.026 123.694V63.0161V63.0255Z" fill="#232222"/>
<path d="M178.509 69.9743V97.5637L151.06 87.5848V72.3778L132.804 79.3547V97.5637H96.3021V63.0255L78.0463 70.0023V138.022H18.3222V92.2422L0.0664062 99.2097V141.295C0.0664062 151.63 8.43676 160 18.7711 160H77.5974C87.9317 160 96.3021 151.63 96.3021 141.295V119.542H130.158C138.06 119.542 144.934 115.137 148.488 108.674L178.434 119.542L196.756 112.443V62.9974L178.5 69.9743H178.509Z" fill="#232222"/>
<path d="M425.523 112.565L407.268 119.542V20.7248L425.523 13.748V112.565Z" fill="#232222"/>
<path d="M462.035 33.8462H443.779V52.1019H462.035V33.8462Z" fill="#232222"/>
<path d="M325.64 0L265.458 22.9787V31.3771L325.64 8.39841V0Z" fill="#232222"/>
<path d="M354.997 52.1019H278.037L277.869 51.943L325.64 33.7059V13.9724L265.458 36.9511V74.08H359.935C365.257 74.08 370.775 79.1583 370.775 84.9193V97.5637H233.267V62.9974L215.011 70.0023V124.068L178.509 138.022V160L215.011 146.028C226.113 141.782 233.267 134.702 233.267 123.704V119.551H389.021V75.2303C389.021 56.4414 375.367 52.1113 354.997 52.1113V52.1019Z" fill="#232222"/>
<path d="M641.946 129.969H522.021L542.016 89.9975H661.932L641.946 129.969Z" fill="#D22630"/>
<path d="M621.96 70.0022H502.035L522.021 30.0303H641.946L621.96 70.0022Z" fill="#D22630"/>
<path d="M9.9246 34.249C8.9096 34.249 7.95803 34.0587 7.06991 33.6781C6.18178 33.2975 5.42053 32.79 4.78616 32.1556C4.15178 31.4958 3.64428 30.7346 3.26366 29.8718C2.90841 28.9837 2.73078 28.0448 2.73078 27.0552V20.4704H5.85191V26.8649C5.85191 27.9053 6.19447 28.7807 6.8796 29.4912C7.56472 30.1763 8.44016 30.5189 9.50591 30.5189H34.9697C35.5534 30.5189 36.0355 30.3159 36.4161 29.9099C36.8221 29.5039 37.0251 29.0091 37.0251 28.4255V25.7991C37.0251 25.1648 36.8094 24.6319 36.378 24.2005C35.9467 23.7438 35.4138 23.5154 34.7794 23.5154H16.7378L14.454 21.3839L24.8451 9.20389L27.1289 11.2973L19.6686 20.0898H34.513C35.2996 20.0898 36.0355 20.242 36.7206 20.5465C37.4057 20.8256 38.002 21.2316 38.5095 21.7645C39.017 22.272 39.4104 22.8683 39.6895 23.5535C39.994 24.2386 40.1462 24.9618 40.1462 25.723V28.121C40.1716 28.7807 40.4127 29.3516 40.8694 29.8338C41.3515 30.2905 41.9225 30.5189 42.5822 30.5189H44.3331C44.4854 30.5189 44.6122 30.5823 44.7137 30.7092C44.8152 30.8107 44.866 30.9376 44.866 31.0898V33.6781C44.866 33.8303 44.8152 33.9699 44.7137 34.0968C44.6122 34.1983 44.4854 34.249 44.3331 34.249H43.1532C42.265 34.249 41.4277 34.0587 40.641 33.6781C39.8798 33.2975 39.2327 32.7646 38.6999 32.0795C38.1924 32.7646 37.5707 33.2975 36.8348 33.6781C36.1243 34.0587 35.3504 34.249 34.513 34.249H9.9246ZM12.3987 16.8925L20.4679 7.37689L22.1046 8.86133L14.0734 18.2628L12.3987 16.8925ZM49.7412 17.8821H53.3572V14.2662H49.7412V17.8821ZM58.3814 33.7161C58.3814 33.843 58.3307 33.9699 58.2292 34.0968C58.1277 34.1983 58.0008 34.249 57.8486 34.249H55.2984C54.8924 34.249 54.4737 34.1856 54.0423 34.0587C53.6109 33.9318 53.2049 33.7669 52.8243 33.5639C52.4437 33.3355 52.1138 33.0691 51.8347 32.7646C51.5556 32.4601 51.3526 32.1429 51.2257 31.813C50.8197 32.4981 50.198 33.0818 49.3606 33.5639C48.5486 34.0206 47.7112 34.249 46.8485 34.249H44.3364C43.9811 34.249 43.8035 34.0714 43.8035 33.7161V31.0518C43.8035 30.6965 43.9811 30.5189 44.3364 30.5189H47.0388C47.6986 30.5189 48.2695 30.3159 48.7516 29.9099C49.2591 29.5039 49.5763 28.9837 49.7032 28.3493L50.9973 22.031L54.0804 22.5638L53.0146 27.8545C52.8877 28.5396 53.0527 29.1613 53.5094 29.7196C53.9916 30.2525 54.6006 30.5189 55.3364 30.5189H57.8486C58.2038 30.5189 58.3814 30.6965 58.3814 31.0518V33.7161ZM58.1709 38.8165H61.7488V42.4325H58.1709V38.8165ZM63.728 38.8165H67.344V42.4325H63.728V38.8165ZM65.4028 30.5189C66.0625 30.5189 66.6335 30.2778 67.1156 29.7957C67.5977 29.3136 67.8388 28.7426 67.8388 28.0829V20.7749H70.9599V28.0829C70.9599 28.9203 70.795 29.7196 70.4651 30.4808C70.1606 31.2167 69.7292 31.8638 69.171 32.422C68.6127 32.9803 67.953 33.4243 67.1917 33.7542C66.4558 34.0841 65.6565 34.249 64.7938 34.249H57.8664C57.7142 34.249 57.5873 34.1983 57.4858 34.0968C57.3843 33.9699 57.3335 33.843 57.3335 33.7161V31.0898C57.3335 30.9376 57.3843 30.8107 57.4858 30.7092C57.5873 30.5823 57.7142 30.5189 57.8664 30.5189H65.4028ZM95.3895 30.5189H96.303C96.4299 30.5189 96.5441 30.5823 96.6456 30.7092C96.7724 30.8107 96.8359 30.9376 96.8359 31.0898V33.7161C96.8359 34.0714 96.6582 34.249 96.303 34.249H95.5417C94.5775 34.249 93.7021 34.0206 92.9154 33.5639C92.1288 33.0818 91.4817 32.4601 90.9742 31.6988C90.4414 32.5108 89.7562 33.1452 88.9189 33.602C88.0815 34.0333 87.1807 34.249 86.2164 34.249H81.078C80.469 34.249 79.8981 34.1348 79.3652 33.9065C78.8323 33.6527 78.3629 33.3355 77.9569 32.9549C77.5509 32.5489 77.2337 32.0795 77.0053 31.5466C76.7769 30.9883 76.6627 30.4047 76.6627 29.7957V25.4566H79.3652V29.1486C79.3652 29.5293 79.4794 29.8591 79.7077 30.1383C79.9361 30.392 80.2533 30.5189 80.6593 30.5189H86.2164C86.6986 30.5189 87.1299 30.4174 87.5106 30.2144C87.9166 30.0114 88.2464 29.745 88.5002 29.4151C88.7793 29.0598 88.9696 28.6665 89.0711 28.2351C89.198 27.8038 89.2107 27.3724 89.1092 26.941L86.2164 16.4358L89.1853 15.332L92.8774 28.5777C93.0296 29.1613 93.3341 29.6308 93.7909 29.986C94.273 30.3413 94.8059 30.5189 95.3895 30.5189ZM101.553 30.5189C102.213 30.5189 102.784 30.2778 103.266 29.7957C103.748 29.3136 103.989 28.7426 103.989 28.0829V20.7749H107.11V28.0829C107.11 28.9203 106.945 29.7196 106.616 30.4808C106.311 31.2167 105.88 31.8638 105.321 32.422C104.763 32.9803 104.103 33.4243 103.342 33.7542C102.606 34.0841 101.807 34.249 100.944 34.249H96.3006C96.1484 34.249 96.0215 34.1983 95.92 34.0968C95.8185 33.9699 95.7677 33.843 95.7677 33.7161V31.0898C95.7677 30.9376 95.8185 30.8107 95.92 30.7092C96.0215 30.5823 96.1484 30.5189 96.3006 30.5189H101.553ZM103.609 16.588H107.225V12.9721H103.609V16.588ZM120.079 33.7161C120.079 34.0714 119.902 34.249 119.546 34.249H118.214C117.377 34.249 116.59 34.0968 115.854 33.7923C115.118 33.4624 114.471 33.0183 113.913 32.4601C113.355 31.9018 112.911 31.2548 112.581 30.5189C112.276 29.7576 112.124 28.9583 112.124 28.121V8.82327H115.245V28.0829C115.245 28.7426 115.486 29.3136 115.969 29.7957C116.451 30.2778 117.022 30.5189 117.681 30.5189H119.546C119.699 30.5189 119.826 30.5823 119.927 30.7092C120.029 30.8107 120.079 30.9376 120.079 31.0898V33.7161ZM126.421 23.9721H131.826V19.4427C131.826 18.8591 131.623 18.3643 131.217 17.9583C130.811 17.5523 130.317 17.3493 129.733 17.3493H127.221C126.713 17.3493 126.257 17.5142 125.851 17.8441C125.47 18.1486 125.242 18.5546 125.165 19.0621L124.633 21.8026C124.531 22.3862 124.658 22.8937 125.013 23.3251C125.368 23.7565 125.838 23.9721 126.421 23.9721ZM134.947 28.0829C134.947 28.9456 134.783 29.7576 134.453 30.5189C134.148 31.2548 133.717 31.9018 133.159 32.4601C132.6 33.0183 131.941 33.4624 131.179 33.7923C130.443 34.0968 129.644 34.249 128.781 34.249H119.532C119.177 34.249 118.999 34.0714 118.999 33.7161V31.0518C118.999 30.9249 119.05 30.8107 119.152 30.7092C119.253 30.5823 119.38 30.5189 119.532 30.5189H129.162C129.872 30.5189 130.494 30.3159 131.027 29.9099C131.56 29.5039 131.826 28.8568 131.826 27.9687V27.3597C131.268 27.5881 130.672 27.7023 130.037 27.7023H126.802C125.965 27.7023 125.178 27.5246 124.442 27.1694C123.732 26.8141 123.135 26.3447 122.653 25.7611C122.171 25.1521 121.829 24.467 121.626 23.7057C121.423 22.9191 121.397 22.1198 121.549 21.3078L122.158 18.1486C122.285 17.5142 122.501 16.9433 122.806 16.4358C123.135 15.9029 123.529 15.4461 123.985 15.0655C124.442 14.6849 124.962 14.3931 125.546 14.1901C126.13 13.9617 126.739 13.8475 127.373 13.8475H129.39C130.152 13.8475 130.875 13.9998 131.56 14.3043C132.245 14.5834 132.829 14.9767 133.311 15.4842C133.818 15.9917 134.212 16.588 134.491 17.2731C134.795 17.9583 134.947 18.6815 134.947 19.4427V28.0829ZM126.726 6.12083H130.342V9.73677H126.726V6.12083ZM148.878 34.249C148.269 34.249 147.698 34.1348 147.165 33.9065C146.632 33.6527 146.163 33.3355 145.757 32.9549C145.351 32.5489 145.033 32.0795 144.805 31.5466C144.577 30.9883 144.462 30.4047 144.462 29.7957V25.4566H147.127V29.1486C147.127 29.5293 147.241 29.8591 147.469 30.1383C147.698 30.392 148.028 30.5189 148.459 30.5189H154.511C155.171 30.5189 155.729 30.3793 156.186 30.1002C156.642 29.7957 156.972 29.4278 157.175 28.9964C157.404 28.5396 157.518 28.0575 157.518 27.55C157.518 27.0425 157.391 26.5731 157.137 26.1417L152.646 18.1105L155.272 16.3596L159.878 24.5431C160.512 25.6596 160.817 26.8015 160.791 27.9687C160.766 29.1106 160.487 30.151 159.954 31.0898C159.421 32.0033 158.672 32.7646 157.708 33.3736C156.769 33.9572 155.678 34.249 154.435 34.249H148.878ZM168.733 34.249H165.612V8.82327H168.733V34.249ZM177.231 21.8787V28.2351C177.231 28.8949 177.472 29.4405 177.955 29.8718C178.462 30.3032 179.046 30.5189 179.705 30.5189H183.169C183.524 30.5189 183.702 30.6965 183.702 31.0518V33.7161C183.702 34.0714 183.524 34.249 183.169 34.249H180.238C179.655 34.249 179.096 34.1475 178.564 33.9445C178.031 33.7161 177.587 33.3482 177.231 32.8407V34.211C177.231 35.1245 177.079 35.9999 176.775 36.8373C176.495 37.6746 176.089 38.4486 175.557 39.1591C175.049 39.8696 174.44 40.4786 173.73 40.9861C173.019 41.519 172.232 41.9377 171.37 42.2422L166.688 43.8408L165.698 40.7958L170.608 39.1591C171.674 38.8038 172.524 38.1821 173.159 37.294C173.793 36.4059 174.11 35.4036 174.11 34.2871V21.8787H177.231ZM187.241 23.5915L184.919 21.422L195.31 9.28002L197.594 11.3735L190.133 20.1659H204.978C205.764 20.1659 206.5 20.3181 207.185 20.6226C207.87 20.9018 208.467 21.2951 208.974 21.8026C209.482 22.3101 209.875 22.9064 210.154 23.5915C210.459 24.2766 210.611 25.0125 210.611 25.7991V28.6158C210.611 29.4024 210.459 30.151 210.154 30.8615C209.85 31.5466 209.431 32.1429 208.898 32.6504C208.391 33.1325 207.782 33.5258 207.071 33.8303C206.386 34.1095 205.663 34.249 204.902 34.249H183.168C183.016 34.249 182.889 34.1983 182.787 34.0968C182.686 33.9699 182.635 33.843 182.635 33.7161V31.0518C182.635 30.6965 182.813 30.5189 183.168 30.5189H205.396C205.955 30.5189 206.437 30.3159 206.843 29.9099C207.274 29.5039 207.49 29.0091 207.49 28.4255V25.8753C207.515 25.2155 207.3 24.67 206.843 24.2386C206.411 23.8072 205.879 23.5915 205.244 23.5915H187.241Z" fill="#232222"/>
</svg>
