<svg width="1032" height="187" viewBox="0 0 1032 187" fill="none" xmlns="http://www.w3.org/2000/svg">
<rect width="1032" height="187" rx="12" fill="#C9B777"/>
<g opacity="0.5">
<mask id="mask0_139_434" style="mask-type:alpha" maskUnits="userSpaceOnUse" x="0" y="0" width="1032" height="187">
<rect width="1032" height="187" rx="10" fill="#00A48F"/>
</mask>
<g mask="url(#mask0_139_434)">
<g opacity="0.2">
<path d="M1071.86 -152.167C1069.67 -152.025 1068.02 -150.141 1068.16 -147.953C1068.21 -147.138 1068.5 -146.399 1068.96 -145.796L1027.27 -107.295C1027.16 -107.298 1027.06 -107.297 1026.94 -107.291C1026.4 -107.255 1025.88 -107.11 1025.43 -106.881L974.645 -188.673C975.67 -189.451 976.299 -190.71 976.211 -192.09C976.07 -194.278 974.185 -195.935 971.996 -195.796C969.807 -195.654 968.149 -193.77 968.287 -191.581C968.344 -190.716 968.674 -189.937 969.187 -189.316L921.797 -142.262C921.042 -142.893 920.055 -143.247 918.998 -143.178C917.579 -143.085 916.385 -142.257 915.757 -141.09L871.938 -159.566C872.08 -160.023 872.152 -160.511 872.12 -161.018C871.978 -163.206 870.094 -164.863 867.905 -164.721C865.717 -164.579 864.059 -162.694 864.197 -160.506C864.283 -159.179 865.014 -158.049 866.062 -157.396L842.446 -110.257C841.924 -110.46 841.348 -110.562 840.752 -110.524C838.79 -110.397 837.256 -108.864 837.062 -106.972L783.169 -109.826C783.003 -111.987 781.131 -113.622 778.958 -113.482C776.77 -113.34 775.112 -111.456 775.253 -109.268C775.276 -108.887 775.359 -108.523 775.482 -108.179L739.322 -90.0167C738.574 -91.2156 737.207 -91.9732 735.699 -91.8756C735.307 -91.8515 734.934 -91.7687 734.584 -91.6401L708.095 -147.128C709.334 -147.868 710.124 -149.253 710.026 -150.791C709.885 -152.978 708 -154.635 705.812 -154.493C703.624 -154.352 701.966 -152.467 702.107 -150.279C702.118 -150.118 702.138 -149.965 702.166 -149.811L614.887 -125.042C614.281 -126.616 612.702 -127.684 610.928 -127.572C608.744 -127.431 607.082 -125.545 607.224 -123.358C607.365 -121.17 609.249 -119.513 611.438 -119.655C612.061 -119.695 612.639 -119.883 613.147 -120.172L689.348 -11.4802C688.525 -10.6985 688.043 -9.57177 688.122 -8.34905C688.263 -6.16158 690.147 -4.50464 692.337 -4.64318C694.525 -4.78509 696.183 -6.66969 696.042 -8.85716C696.027 -9.07583 695.991 -9.28614 695.946 -9.49227L739.426 -26.5451C740.102 -25.119 741.596 -24.1772 743.265 -24.2862C743.808 -24.3207 744.317 -24.464 744.775 -24.6928L805.695 67.3735C804.724 68.1575 804.131 69.381 804.218 70.7188C804.359 72.9063 806.244 74.5633 808.432 74.4213C810.62 74.2794 812.278 72.3948 812.14 70.206C812.106 69.7029 811.979 69.2308 811.782 68.8028L855.998 43.2246C856.769 44.3074 858.062 44.9811 859.486 44.8905L859.124 44.9414L876.831 173.563C874.972 173.995 873.645 175.715 873.772 177.679C873.839 178.69 874.279 179.585 874.952 180.247L840.56 222.272C839.858 221.797 838.999 221.543 838.087 221.6C835.899 221.742 834.241 223.627 834.382 225.814C834.523 228.002 836.408 229.659 838.596 229.517C839.45 229.461 840.221 229.138 840.836 228.639L898.102 287.323C897.455 288.08 897.093 289.078 897.16 290.148C897.301 292.335 899.186 293.992 901.374 293.85C902.285 293.79 903.098 293.426 903.736 292.867L940.221 327.354C939.639 328.095 939.315 329.042 939.381 330.053C939.522 332.24 941.407 333.897 943.597 333.759C943.827 333.743 944.052 333.705 944.268 333.655L975.629 420.187C974.241 420.879 973.329 422.352 973.431 423.996C973.512 425.233 974.151 426.303 975.091 426.973L944.314 482.157C943.731 481.884 943.073 481.753 942.388 481.796C940.2 481.938 938.541 483.822 938.683 486.01C938.824 488.197 940.709 489.854 942.898 489.716C942.913 489.713 942.928 489.711 942.948 489.711L962.367 561.392C960.95 562.072 960.016 563.559 960.123 565.224C960.265 567.411 962.149 569.068 964.339 568.93C966.039 568.82 967.414 567.656 967.879 566.114L1024.25 571.115C1024.25 571.171 1024.24 571.226 1024.25 571.284C1024.39 573.472 1026.27 575.128 1028.46 574.99C1030.65 574.848 1032.31 572.963 1032.17 570.776C1032.14 570.257 1032 569.771 1031.79 569.329L1078.33 544.643C1079.09 545.798 1080.43 546.524 1081.9 546.427C1084.09 546.286 1085.75 544.401 1085.61 542.212C1085.5 540.498 1084.32 539.112 1082.76 538.66L1100.04 448.444C1100.25 448.464 1100.47 448.471 1100.68 448.457C1102.87 448.315 1104.53 446.43 1104.39 444.241C1104.25 442.054 1102.36 440.397 1100.17 440.536C1099.82 440.558 1099.49 440.629 1099.17 440.737L1078.59 394.049C1079.89 393.328 1080.73 391.908 1080.62 390.328C1080.48 388.141 1078.6 386.484 1076.41 386.622C1075.44 386.687 1074.58 387.091 1073.93 387.71L1031.68 350.877C1032.2 350.157 1032.49 349.258 1032.43 348.302C1032.36 347.263 1031.9 346.35 1031.2 345.686L1113.35 241.74C1114.04 242.189 1114.88 242.433 1115.76 242.377C1117.95 242.235 1119.61 240.351 1119.47 238.163C1119.33 235.976 1117.44 234.319 1115.25 234.457C1114.62 234.5 1114.03 234.691 1113.51 234.991L1020.42 104.71C1022.4 104.375 1023.84 102.591 1023.71 100.545C1023.57 98.3573 1021.69 96.7004 1019.5 96.8389C1019.3 96.8506 1019.11 96.8826 1018.91 96.9261L1001.2 40.7821C1002.71 40.1451 1003.74 38.6023 1003.63 36.8718C1003.57 35.9991 1003.23 35.2143 1002.71 34.5928L1055.35 -18.1115L1055.67 -17.1578L1055.86 -18.62L1056.17 -18.9358L1055.91 -19.0318L1071.98 -144.236C1072.11 -144.231 1072.24 -144.234 1072.37 -144.241C1074.56 -144.382 1076.22 -146.267 1076.08 -148.454C1075.94 -150.642 1074.05 -152.299 1071.86 -152.16L1071.86 -152.167ZM1111.53 238.516L1046.44 246.265C1046.04 244.372 1044.31 243.008 1042.31 243.137L1036.1 203.966L1111.73 237.158C1111.59 237.585 1111.52 238.043 1111.54 238.515L1111.53 238.516ZM963.819 561.006C963.554 561.024 963.295 561.068 963.045 561.132L954.323 528.939L943.662 489.586C944.036 489.487 944.387 489.334 944.708 489.134L997.538 541.59L967.237 562.57C966.458 561.546 965.2 560.917 963.819 561.006ZM904.791 288.394C904.426 287.502 903.749 286.779 902.901 286.352L916.62 251.455L966.988 267.87C966.904 268.232 966.872 268.613 966.895 269.002C966.907 269.186 966.934 269.365 966.972 269.542L904.789 288.398L904.791 288.394ZM881.69 177.164C881.652 176.564 881.478 176.009 881.207 175.517L930.886 142.015L889.019 179.584L881.663 177.93C881.694 177.68 881.707 177.426 881.69 177.164ZM809.728 66.8131L834.832 -11.6433L878.289 -3.95886C878.274 -3.76695 878.266 -3.57446 878.282 -3.37544C878.337 -2.50612 878.672 -1.72127 879.19 -1.09837L810.71 67.4104C810.415 67.1651 810.087 66.9648 809.728 66.8131ZM692.778 -12.506L697.543 -60.6299L739.561 -30.2045C739.19 -29.554 738.999 -28.7923 739.05 -27.9921C739.067 -27.7307 739.111 -27.4805 739.172 -27.2373L695.715 -10.1943C695.19 -11.3984 694.088 -12.2776 692.776 -12.5094L692.778 -12.506ZM697.625 -61.473L706.045 -146.566C706.137 -146.564 706.232 -146.564 706.324 -146.57C706.505 -146.582 706.682 -146.612 706.854 -146.643L741.38 -31.8633C740.834 -31.618 740.356 -31.2548 739.98 -30.8075L697.624 -61.4764L697.625 -61.473ZM615.147 -123.867C615.136 -124.028 615.115 -124.185 615.088 -124.336L702.371 -149.094C702.859 -147.827 703.979 -146.893 705.322 -146.634L696.942 -61.9721L614.598 -121.592C614.992 -122.256 615.197 -123.039 615.144 -123.866L615.147 -123.867ZM999.035 33.2061C998.249 33.3295 997.546 33.6829 996.989 34.1892L954.792 -4.42333L991.859 -42.0274C992.52 -41.4875 993.352 -41.1561 994.258 -41.1318L999.039 33.2047L999.035 33.2061ZM1096.46 444.744C1096.52 445.728 1096.94 446.604 1097.58 447.26L1048.24 505.271C1047.95 505.069 1047.64 504.906 1047.31 504.787L1071.17 413.096L1097.48 441.825C1096.78 442.595 1096.39 443.628 1096.46 444.747L1096.46 444.744ZM1058.7 403.743L1046.08 504.55C1045.96 504.548 1045.83 504.549 1045.7 504.554C1044.98 504.6 1044.32 504.841 1043.76 505.216L996.496 446.859L1056.6 402.509C1057.15 403.123 1057.88 403.563 1058.7 403.743ZM1047.02 502.979L1059.43 403.837C1059.56 403.839 1059.69 403.839 1059.81 403.833C1060.62 403.78 1061.36 403.488 1061.96 403.035L1070.58 412.454L1047.02 502.982L1047.02 502.979ZM1055.6 400.127C1055.61 400.297 1055.63 400.46 1055.66 400.621L981.077 422.267C980.817 421.62 980.393 421.061 979.863 420.637L1012.8 372.213L1055.99 398.151C1055.7 398.747 1055.55 399.419 1055.6 400.126L1055.6 400.127ZM946.809 331.718C946.892 331.565 946.969 331.407 947.031 331.243L1024.52 348.071C1024.49 348.313 1024.48 348.557 1024.49 348.807C1024.57 349.945 1025.12 350.938 1025.93 351.608L1012.59 371.225L946.811 331.713L946.809 331.718ZM1024.67 347.356L947.233 330.536C947.294 330.215 947.319 329.885 947.297 329.543C947.255 328.877 947.047 328.26 946.721 327.728L988.037 293.176L1025.84 345.566C1025.3 346.039 1024.89 346.657 1024.67 347.357L1024.67 347.356ZM973.465 271.727C974.365 270.941 974.903 269.768 974.819 268.484C974.806 268.3 974.781 268.125 974.745 267.95L1038.89 248.586C1039 248.856 1039.14 249.111 1039.31 249.347L988.176 292.108L973.469 271.726L973.465 271.727ZM862.331 38.4504L891.147 14.1999L905.236 39.7955C904.329 40.4107 903.694 41.3874 903.533 42.5078L863.169 40.4329C863.073 39.6833 862.777 39.0044 862.331 38.4504ZM844.977 -106.815C844.958 -107.099 844.909 -107.371 844.836 -107.633L882.948 -123.601L892.69 -99.7548C891.731 -99.2562 891.011 -98.3788 890.713 -97.332L844.948 -106.005C844.985 -106.269 844.996 -106.538 844.977 -106.815ZM869.999 -157.242C870.707 -157.613 871.287 -158.188 871.661 -158.887L915.481 -140.411C915.337 -139.957 915.267 -139.466 915.302 -138.96C915.321 -138.636 915.387 -138.324 915.479 -138.026L883.348 -124.564L869.999 -157.242ZM915.76 -137.353C916.055 -136.804 916.47 -136.332 916.973 -135.975L896.177 -99.849C895.597 -100.115 894.947 -100.245 894.267 -100.201C893.954 -100.182 893.656 -100.122 893.368 -100.035L883.624 -123.888L915.76 -137.353ZM995.694 37.0095L911.379 42.4524C911.265 41.7179 910.948 41.0555 910.493 40.5173L954.282 -3.90876L996.499 34.7232C996.011 35.367 995.716 36.1555 995.692 37.0061L995.694 37.0095ZM970.608 264.78C970.296 264.799 969.994 264.86 969.706 264.948L941.119 195.134C941.463 195.02 941.784 194.86 942.076 194.66L983.948 216.68L971.5 264.827C971.212 264.78 970.916 264.76 970.613 264.782L970.608 264.78ZM1038.61 247.352C1038.62 247.533 1038.65 247.712 1038.69 247.886L1025.34 251.914L974.537 267.247C974.112 266.199 973.259 265.387 972.205 265.005L984.612 217.025L1038.91 245.581C1038.68 246.124 1038.57 246.723 1038.61 247.349L1038.61 247.352ZM984.136 215.951L942.684 194.152C943.043 193.787 943.326 193.354 943.524 192.878L982.025 186.628L988.878 185.515C989.201 186.775 990.121 187.78 991.303 188.231L984.136 215.951ZM988.761 184.782C988.761 184.782 988.762 184.785 988.763 184.789L943.752 192.093C943.808 191.778 943.836 191.454 943.813 191.121C943.776 190.571 943.633 190.054 943.4 189.594L965.897 163.592L989.38 182.391C988.941 183.077 988.705 183.901 988.759 184.778L988.761 184.782ZM938.52 140.737C938.904 140.081 939.101 139.305 939.049 138.49C939.028 138.171 938.968 137.864 938.875 137.571L938.918 137.553L1016.3 102.746C1016.46 103.035 1016.66 103.304 1016.89 103.541L965.807 162.579L938.518 140.733L938.52 140.737ZM885.906 -5.17426C885.411 -6.34349 884.38 -7.21603 883.133 -7.49872L886.948 -36.2686L930.64 -23.542C930.577 -23.2161 930.55 -22.8811 930.57 -22.5344C930.578 -22.4309 930.592 -22.3301 930.607 -22.2259L885.906 -5.17426ZM909.301 39.5612L933.368 -19.0009C933.815 -18.8657 934.292 -18.802 934.785 -18.8319C935.635 -18.8869 936.402 -19.2079 937.019 -19.7034L953.743 -4.40065L909.974 40.0055C909.765 39.8351 909.542 39.6865 909.301 39.5612ZM990.415 -44.8452C990.431 -44.5758 990.476 -44.3141 990.543 -44.0655L971.138 -36.8409L938.094 -24.5401C937.995 -24.7403 937.879 -24.9253 937.753 -25.1061L972.952 -55.6632L990.695 -46.5754C990.481 -46.0411 990.375 -45.4566 990.415 -44.8452ZM937.273 -25.6576C936.497 -26.3988 935.431 -26.8272 934.277 -26.7532C933.812 -26.7229 933.373 -26.6088 932.967 -26.4369L896.739 -92.9528C897.196 -93.2601 897.582 -93.6561 897.875 -94.1208L972.253 -56.026L937.275 -25.6624L937.273 -25.6576ZM894.784 -92.2837C895.249 -92.314 895.688 -92.4281 896.095 -92.6L932.323 -26.0841C931.659 -25.6362 931.141 -24.9962 930.845 -24.2503L887.046 -37.0076L894.373 -92.2757C894.508 -92.2725 894.646 -92.274 894.786 -92.2803L894.784 -92.2837ZM932.509 -19.3801L908.615 39.2763C908.173 39.1431 907.699 39.0779 907.211 39.1099C906.738 39.1396 906.292 39.2564 905.884 39.4331L891.726 13.7083L931.75 -19.9745C931.978 -19.7488 932.235 -19.5471 932.511 -19.3849L932.509 -19.3801ZM934.833 134.784C934.776 134.788 934.716 134.797 934.66 134.804L919.03 81.3242L908.926 46.7614C909.709 46.4497 910.366 45.8983 910.809 45.2022L973.685 77.5243L937.128 135.34C936.461 134.94 935.672 134.73 934.833 134.784ZM937.549 -20.2182C938.196 -20.9748 938.564 -21.9756 938.496 -23.0487C938.48 -23.3182 938.435 -23.5799 938.366 -23.8318L990.803 -43.3794C990.948 -43.0761 991.132 -42.8011 991.343 -42.5487L954.261 -4.92616L937.549 -20.2182ZM996 -48.7227C995.428 -48.9798 994.791 -49.1074 994.121 -49.064C992.806 -48.9787 991.689 -48.2607 991.029 -47.2302L973.551 -56.1829L1024.51 -100.426C1024.66 -100.29 1024.82 -100.166 1024.99 -100.052L1007.16 -68.4839L996 -48.7227ZM1023.3 -102.678C1023.4 -102.043 1023.66 -101.459 1024.03 -100.967L972.847 -56.5394L898.208 -94.7675C898.374 -95.1793 898.476 -95.6202 898.494 -96.0851L1023.29 -102.677L1023.3 -102.678ZM893.647 -92.3786L886.334 -37.2191L850.15 -47.7614C850.213 -48.0873 850.241 -48.4223 850.22 -48.769C850.164 -49.6302 849.835 -50.4096 849.326 -51.0286L891.981 -93.2101C892.458 -92.811 893.028 -92.5213 893.651 -92.38L893.647 -92.3786ZM849.944 -47.0565L886.235 -36.4835L882.408 -7.60162C882.272 -7.60483 882.135 -7.6033 881.995 -7.59698C881.28 -7.55029 880.623 -7.31455 880.065 -6.94577L849.009 -45.6597C849.412 -46.0511 849.729 -46.5256 849.941 -47.0551L849.944 -47.0565ZM886.214 -3.8925C886.202 -4.09291 886.169 -4.28832 886.127 -4.4762L930.78 -21.5117C930.901 -21.1594 931.069 -20.83 931.275 -20.5322L891.362 13.0572L884.103 -0.131466C885.442 -0.838327 886.314 -2.28383 886.211 -3.8911L886.214 -3.8925ZM938.093 141.328L965.327 163.129L942.992 188.941C942.25 187.985 941.079 187.387 939.793 187.409L936.108 142.574C936.898 142.366 937.583 141.921 938.096 141.326L938.093 141.328ZM1039.25 244.929L984.804 216.295L992.009 188.421C992.321 188.478 992.643 188.503 992.977 188.48C993.666 188.436 994.298 188.218 994.843 187.874L1039.83 244.234C1039.61 244.442 1039.42 244.679 1039.26 244.932L1039.25 244.929ZM992.47 180.558C991.424 180.627 990.5 181.095 989.833 181.805L966.38 163.029L1017.44 104.015C1017.67 104.18 1017.92 104.318 1018.19 104.43L993.515 180.632C993.178 180.562 992.826 180.533 992.47 180.558ZM1015.79 101.043C1015.81 101.404 1015.89 101.748 1016 102.074L938.593 136.89C938.37 136.465 938.072 136.087 937.717 135.772L974.337 77.8591L1016.07 99.3112C1015.86 99.8455 1015.75 100.431 1015.79 101.046L1015.79 101.043ZM911.141 44.5439C911.313 44.1179 911.415 43.6574 911.429 43.1741L995.743 37.7312C995.904 38.7619 996.46 39.6492 997.243 40.2536L974.073 76.8946L911.141 44.5439ZM1023.25 -103.586L1023.05 -103.407L898.452 -96.8259C898.323 -97.712 897.905 -98.4945 897.303 -99.0826L927.425 -136.128L1023.34 -104.24C1023.29 -104.026 1023.26 -103.809 1023.25 -103.586ZM897.115 -100.015L917.61 -135.619C918.19 -135.353 918.84 -135.223 919.52 -135.267C921.051 -135.366 922.319 -136.32 922.899 -137.633L926.684 -136.374L897.119 -100.017L897.115 -100.015ZM868.425 -156.809C868.737 -156.827 869.036 -156.887 869.324 -156.975L882.676 -124.29L844.577 -108.327C844.247 -108.992 843.738 -109.547 843.115 -109.937L866.731 -157.076C867.254 -156.87 867.828 -156.771 868.428 -156.81L868.425 -156.809ZM844.779 -105.304L884.372 -97.7998L842.019 -102.732C843.325 -103.07 844.356 -104.052 844.776 -105.303L844.779 -105.304ZM890.561 -96.3418C890.558 -96.2259 890.558 -96.1114 890.567 -95.993C890.623 -95.1318 890.953 -94.3523 891.461 -93.7334L848.806 -51.5519C848.05 -52.187 847.062 -52.5444 846.001 -52.4735C845.066 -52.4148 844.228 -52.0334 843.585 -51.4482L782.47 -107.244C782.804 -107.717 783.033 -108.262 783.133 -108.852L890.558 -96.3404L890.561 -96.3418ZM777.924 -105.765C778.407 -105.598 778.932 -105.522 779.475 -105.557C780.459 -105.62 781.332 -106.04 781.989 -106.678L843.087 -50.8951C842.919 -50.6717 842.772 -50.4336 842.653 -50.1788L765.402 -77.7804L777.928 -105.763L777.924 -105.765ZM842.405 -49.4884C842.303 -49.0949 842.258 -48.6777 842.289 -48.2485C842.293 -48.1991 842.3 -48.1545 842.305 -48.1051L746.797 -29.4271C746.477 -30.4594 745.746 -31.3021 744.81 -31.7801L765.098 -77.1102L842.405 -49.4884ZM744.129 -32.0515C743.698 -32.1774 743.235 -32.2386 742.758 -32.2074L736.779 -84.0326C738.025 -84.2946 739.042 -85.1293 739.561 -86.2355L764.408 -77.3579L744.129 -32.0515ZM736.051 -83.9492L742.006 -32.3351L707.794 -146.06L733.925 -91.3163C732.686 -90.576 731.896 -89.1917 731.997 -87.6549C732.135 -85.5249 733.932 -83.8988 736.048 -83.9478L736.051 -83.9492ZM746.973 -28.5016C746.969 -28.5706 746.956 -28.6402 746.951 -28.7093L842.444 -47.3851C842.781 -46.2337 843.62 -45.313 844.698 -44.8543L834.335 -12.4724L746.964 -27.9215C746.98 -28.1134 746.987 -28.3059 746.973 -28.5016ZM845.395 -44.6291C845.751 -44.5511 846.123 -44.5194 846.504 -44.5427C847.22 -44.5894 847.876 -44.8251 848.435 -45.1939L879.491 -6.47993C878.986 -5.99116 878.614 -5.37177 878.423 -4.67719L835.067 -12.3445L845.398 -44.6304L845.395 -44.6291ZM880.662 0.00698034C881.221 0.253377 881.848 0.373699 882.5 0.329066C882.819 0.30785 883.126 0.248136 883.416 0.156111L890.785 13.5441L861.819 37.9196C861.636 37.7625 861.439 37.619 861.23 37.4961L880.664 0.00223127L880.662 0.00698034ZM863.193 41.1691L903.496 43.2413C903.497 43.2725 903.493 43.3017 903.499 43.3348C903.64 45.5223 905.525 47.1792 907.714 47.0407C907.884 47.03 908.051 47.0043 908.215 46.972L933.934 134.958C933.674 135.037 933.425 135.14 933.192 135.264L862.083 43.6918C862.728 43.0267 863.141 42.1419 863.196 41.1677L863.193 41.1691ZM932.386 141.66C933.157 142.371 934.204 142.784 935.335 142.711C935.347 142.71 935.362 142.708 935.373 142.707L939.056 187.5C937.635 187.787 936.508 188.825 936.072 190.161L889.9 179.785L932.384 141.665L932.386 141.66ZM935.913 190.874C935.882 191.124 935.868 191.378 935.885 191.64C935.9 191.866 935.938 192.083 935.987 192.296L841.964 223.95C841.844 223.68 841.696 223.426 841.524 223.192L889.231 180.385L935.909 190.876L935.913 190.874ZM842.301 225.303C842.286 225.076 842.248 224.859 842.2 224.646L936.223 192.992C936.597 193.832 937.25 194.514 938.063 194.924L916.196 250.545L842.211 226.433C842.295 226.071 842.327 225.691 842.301 225.303ZM938.742 195.192C939.172 195.315 939.627 195.375 940.101 195.345C940.201 195.34 940.297 195.324 940.394 195.311L969.026 265.232C968.217 265.654 967.581 266.342 967.219 267.178L916.893 250.778L938.744 195.195L938.742 195.192ZM969.575 272.501C970.054 272.666 970.574 272.74 971.113 272.706C971.756 272.666 972.353 272.467 972.871 272.162L987.608 292.588L946.28 327.148C946.024 326.863 945.725 326.616 945.394 326.417L969.572 272.502L969.575 272.501ZM946.393 332.327L1012.17 371.838L979.248 420.24C978.621 419.906 977.897 419.732 977.136 419.782C976.852 419.8 976.576 419.851 976.311 419.925L944.961 333.42C945.524 333.168 946.013 332.792 946.397 332.326L946.393 332.327ZM981.348 423.489C981.336 423.316 981.313 423.144 981.279 422.977L1055.86 401.329C1055.94 401.539 1056.05 401.738 1056.16 401.928L996.035 446.296L980.107 426.63C980.937 425.849 981.425 424.716 981.347 423.486L981.348 423.489ZM1043.19 505.683C1042.72 506.136 1042.37 506.704 1042.17 507.335L946.454 486.822C946.572 486.402 946.626 485.958 946.595 485.501C946.561 484.959 946.417 484.449 946.189 483.991L995.906 447.304L1043.19 505.687L1043.19 505.683ZM945.299 488.693C945.663 488.361 945.965 487.963 946.188 487.516L1042.02 508.05C1041.99 508.287 1041.98 508.528 1041.99 508.774C1042.03 509.389 1042.21 509.961 1042.5 510.464L998.149 541.168L945.298 488.689L945.299 488.693ZM1042.92 511.067C1043.34 511.569 1043.88 511.963 1044.5 512.207L1028.51 567.074C1028.32 567.06 1028.13 567.055 1027.94 567.066C1026.94 567.132 1026.05 567.563 1025.4 568.221L998.679 541.695L1042.91 511.069L1042.92 511.067ZM1029.49 567.27C1029.41 567.243 1029.32 567.219 1029.24 567.199L1045.2 512.413C1045.53 512.476 1045.86 512.503 1046.21 512.479C1047.12 512.42 1047.93 512.061 1048.56 511.506L1056.94 519.472L1029.48 567.275L1029.49 567.27ZM1049.07 510.974C1049.66 510.23 1049.98 509.282 1049.92 508.263C1049.86 507.279 1049.43 506.403 1048.8 505.747L1098.12 447.759L1057.32 518.814L1049.07 510.974ZM1098.02 441.329L1071.39 412.25L1076.01 394.49C1076.31 394.536 1076.6 394.555 1076.91 394.535C1077.26 394.513 1077.59 394.442 1077.91 394.334L1098.5 441.02C1098.33 441.111 1098.18 441.211 1098.02 441.325L1098.02 441.329ZM1075.3 394.31L1070.8 411.609L1062.5 402.539C1063.19 401.77 1063.59 400.737 1063.52 399.618C1063.49 399.153 1063.38 398.714 1063.21 398.308L1073.36 392.786C1073.83 393.484 1074.51 394.021 1075.31 394.308L1075.3 394.31ZM1056.36 397.527L1013.21 371.609L1026.54 352.025C1027.18 352.38 1027.92 352.565 1028.71 352.513C1029.24 352.479 1029.74 352.34 1030.19 352.119L1057.2 396.683C1056.88 396.922 1056.6 397.204 1056.36 397.522L1056.36 397.527ZM1028.2 344.597C1027.56 344.637 1026.96 344.833 1026.44 345.142L988.604 292.713L1039.78 249.919C1040.29 250.429 1040.94 250.8 1041.66 250.968L1028.63 344.599C1028.49 344.591 1028.34 344.592 1028.2 344.601L1028.2 344.597ZM1041.59 243.258C1041.16 243.369 1040.75 243.548 1040.39 243.787L995.417 187.436C995.722 187.152 995.98 186.821 996.183 186.453L1035.3 203.621L1041.59 243.258ZM996.479 185.782C996.636 185.311 996.71 184.803 996.673 184.273C996.574 182.704 995.569 181.409 994.204 180.856L1018.87 104.669C1019.11 104.722 1019.36 104.757 1019.62 104.764L1035.16 202.76L996.474 185.78L996.479 185.782ZM1016.4 98.6673L974.722 77.2423L997.855 40.6559C998.471 40.9701 999.173 41.1302 999.911 41.0819C1000.11 41.0701 1000.3 41.0381 1000.49 40.9947L1018.21 97.1387C1017.46 97.4527 1016.83 97.9917 1016.4 98.6625L1016.4 98.6673ZM999.767 33.1606L995.023 -40.599L1013.22 -33.9228L1000.05 33.1797C999.961 33.1713 999.865 33.1595 999.767 33.1606ZM995.36 -41.2553C997.169 -41.7222 998.455 -43.4176 998.328 -45.3505C998.247 -46.6078 997.589 -47.6857 996.629 -48.3551L1025.62 -99.6909C1025.77 -99.6262 1025.92 -99.571 1026.08 -99.5267L1013.36 -34.6534L995.362 -41.2601L995.36 -41.2553ZM1024.81 -106.491C1024.27 -106.083 1023.84 -105.544 1023.57 -104.921L927.91 -136.723L970.046 -188.538C970.745 -188.069 971.6 -187.814 972.508 -187.873C973.053 -187.909 973.566 -188.054 974.025 -188.282L1024.81 -106.491ZM967.622 -186.72L927.169 -136.969L923.123 -138.314C923.207 -138.684 923.245 -139.071 923.218 -139.47C923.161 -140.335 922.831 -141.114 922.318 -141.735L967.623 -186.716L967.622 -186.72ZM837.059 -106.233C837.174 -104.836 838 -103.669 839.158 -103.054L790.852 -108.681L837.059 -106.233ZM775.798 -107.508C776.152 -106.908 776.655 -106.409 777.257 -106.07L764.707 -78.03L739.804 -86.9279C739.906 -87.3214 739.951 -87.7385 739.92 -88.1677C739.893 -88.5868 739.799 -88.9862 739.657 -89.3579L775.802 -107.509L775.798 -107.508ZM613.752 -120.591C613.902 -120.716 614.043 -120.853 614.172 -120.998L696.856 -61.1276L692.051 -12.5649C691.977 -12.562 691.904 -12.5673 691.831 -12.5611C691.128 -12.5152 690.479 -12.287 689.928 -11.9291L613.752 -120.591ZM745.397 -25.0799C746.093 -25.604 746.603 -26.3476 746.835 -27.2012L834.109 -11.7673L809.034 66.5946C808.678 66.5166 808.306 66.4849 807.924 66.5082C807.339 66.5446 806.792 66.7114 806.308 66.9743L745.399 -25.0765L745.397 -25.0799ZM811.414 68.1694C811.356 68.0867 811.295 68.0054 811.228 67.9303L879.709 -0.578481C879.806 -0.496242 879.909 -0.420177 880.018 -0.346882L860.56 37.1926C860.065 37.018 859.529 36.9353 858.975 36.9707C856.787 37.1126 855.129 38.9972 855.271 41.1847C855.305 41.6877 855.432 42.1598 855.629 42.5878L811.412 68.166L811.414 68.1694ZM859.851 44.8465C860.47 44.7487 861.034 44.5079 861.52 44.165L932.577 135.668C931.617 136.452 931.033 137.668 931.117 138.999C931.155 139.598 931.329 140.154 931.6 140.646L880.8 174.903C880.035 173.968 878.85 173.395 877.555 173.453L859.849 44.8431L859.851 44.8465ZM877.985 181.378C879.654 181.269 881.017 180.142 881.503 178.643L888.354 180.183L841.636 222.104L875.514 180.71C876.216 181.186 877.076 181.442 877.987 181.382L877.985 181.378ZM841.358 228.124C841.613 227.825 841.822 227.49 841.98 227.125L915.923 251.222L902.219 286.077C901.789 285.955 901.334 285.894 900.862 285.927C900.009 285.983 899.237 286.306 898.622 286.805L841.356 228.121L841.358 228.124ZM904.238 292.332C904.82 291.591 905.143 290.644 905.081 289.632C905.068 289.447 905.042 289.269 905.004 289.091L967.187 270.235C967.527 271.069 968.139 271.756 968.911 272.191L944.744 326.086C944.229 325.892 943.67 325.799 943.088 325.834C942.177 325.894 941.364 326.258 940.726 326.817L904.241 292.331L904.238 292.332ZM975.719 427.337C976.301 427.606 976.96 427.74 977.644 427.695C978.341 427.652 978.982 427.426 979.531 427.073L995.446 446.725L945.804 483.357C945.561 483.035 945.27 482.752 944.945 482.52L975.719 427.337ZM968.02 565.385C968.043 565.162 968.052 564.937 968.04 564.706C968.004 564.16 967.859 563.647 967.63 563.189L998.073 542.111L1024.93 568.78C1024.61 569.252 1024.39 569.794 1024.29 570.374L968.022 565.38L968.02 565.385ZM1031.41 568.686C1031.07 568.229 1030.65 567.848 1030.16 567.569L1057.49 519.982L1078.53 540.001C1077.95 540.744 1077.62 541.694 1077.68 542.711C1077.71 543.162 1077.82 543.587 1077.99 543.985L1031.41 568.69L1031.41 568.686ZM1082.03 538.511C1081.82 538.491 1081.6 538.484 1081.39 538.497C1080.48 538.556 1079.67 538.919 1079.03 539.47L1057.86 519.327L1098.77 448.095C1098.94 448.176 1099.13 448.239 1099.32 448.295L1082.03 538.511ZM1073.43 388.254C1072.91 388.974 1072.63 389.873 1072.69 390.829C1072.72 391.294 1072.84 391.733 1073.01 392.139L1062.85 397.661C1062.09 396.526 1060.77 395.814 1059.3 395.91C1058.77 395.944 1058.27 396.083 1057.82 396.304L1030.81 351.74C1030.94 351.642 1031.07 351.538 1031.19 351.427L1073.43 388.26L1073.43 388.254ZM1030.61 345.225C1030.24 344.979 1029.81 344.795 1029.36 344.685L1042.39 251.055C1042.53 251.062 1042.68 251.061 1042.83 251.052C1044.96 250.916 1046.59 249.111 1046.53 246.99L1111.62 239.241C1111.79 240.039 1112.2 240.743 1112.76 241.28L1030.61 345.225ZM1112.03 236.488L1035.96 203.104L1020.6 106.23L1112.91 235.411C1112.55 235.714 1112.26 236.077 1112.03 236.486L1112.03 236.488ZM1002.19 34.0676C1001.78 33.7273 1001.3 33.4719 1000.77 33.3165L1013.91 -33.6698L1054.84 -18.6491L1002.18 34.069L1002.19 34.0676ZM1054.92 -19.4027L1014.05 -34.3991L1026.8 -99.3884C1027.01 -99.3665 1027.23 -99.3574 1027.45 -99.3708C1027.68 -99.3841 1027.89 -99.4225 1028.1 -99.4696L1054.91 -19.3979L1054.92 -19.4027ZM1055.34 -20.4286L1028.8 -99.7058C1030.28 -100.36 1031.27 -101.879 1031.16 -103.59C1031.05 -105.338 1029.82 -106.749 1028.21 -107.17L1069.46 -145.263C1069.96 -144.815 1070.57 -144.491 1071.25 -144.34L1055.34 -20.4272L1055.34 -20.4286Z" fill="white"/>
</g>
<path d="M1012.26 -251.613C1011.2 -252.825 1009.35 -252.947 1008.14 -251.885C1007.15 -251.025 1006.89 -249.647 1007.39 -248.512L949.033 -216.109C948.966 -216.203 948.899 -216.298 948.82 -216.384C947.759 -217.596 945.915 -217.722 944.7 -216.656C943.488 -215.595 943.361 -213.75 944.427 -212.537C945.174 -211.685 946.305 -211.374 947.333 -211.629L962.328 -168.951C962.08 -168.836 961.841 -168.686 961.625 -168.494C960.786 -167.761 960.468 -166.659 960.7 -165.646L932.423 -156.344C932.312 -156.586 932.165 -156.817 931.979 -157.029C930.918 -158.24 929.074 -158.363 927.859 -157.301C926.655 -156.247 926.525 -154.421 927.563 -153.208L900.952 -123.742C899.867 -124.628 898.274 -124.633 897.183 -123.678C896.853 -123.388 896.604 -123.036 896.439 -122.66L859.657 -134.976C859.863 -135.863 859.658 -136.828 859.014 -137.564C857.953 -138.776 856.108 -138.902 854.894 -137.836C853.682 -136.775 853.555 -134.931 854.621 -133.717C854.867 -133.436 855.156 -133.216 855.468 -133.053L842.214 -100.673C841.281 -100.954 840.228 -100.768 839.442 -100.081C838.857 -99.5665 838.525 -98.869 838.458 -98.1508L789.328 -98.0772C789.274 -98.6667 789.043 -99.2461 788.619 -99.7265C787.558 -100.938 785.715 -101.061 784.499 -99.9984C783.287 -98.9372 783.163 -97.0944 784.226 -95.8794C784.897 -95.1146 785.878 -94.7855 786.817 -94.9126L802.804 -25.9108C802.446 -25.7909 802.102 -25.6014 801.802 -25.3351C801.74 -25.2823 801.684 -25.2274 801.629 -25.1692L759.906 -23.5959C759.835 -24.1507 759.605 -24.6874 759.209 -25.1396C758.148 -26.3512 756.303 -26.4774 755.089 -25.4115C753.877 -24.3504 753.75 -22.5061 754.816 -21.2925C755.877 -20.0809 757.722 -19.9547 758.936 -21.0206C759.008 -21.0857 759.08 -21.1509 759.145 -21.2214L832.523 35.7069L832.434 35.8936L832.763 35.8959L833.618 36.5611L833.29 35.8995L888.092 36.0492C888.144 36.6435 888.376 37.2262 888.801 37.7099C889.643 38.6686 890.973 38.9442 892.093 38.4899L912.006 76.9549C911.884 77.0328 911.768 77.1161 911.658 77.2129C910.446 78.274 910.322 80.1169 911.385 81.3319C912.379 82.4684 914.057 82.648 915.264 81.7943L934.369 198.036C933.946 198.148 933.536 198.353 933.182 198.661C931.97 199.722 931.846 201.565 932.909 202.78C933.97 203.991 935.813 204.114 937.029 203.052C937.522 202.619 937.832 202.061 937.958 201.468L1034.74 213.009C1034.72 213.716 1034.96 214.433 1035.46 215.009C1035.93 215.54 1036.54 215.862 1037.19 215.968L1034.28 257.098C1033.62 257.111 1032.96 257.348 1032.42 257.818C1031.21 258.879 1031.09 260.724 1032.15 261.937C1032.92 262.812 1034.09 263.117 1035.14 262.822L1048.65 297.845C1048.43 297.955 1048.22 298.091 1048.02 298.262C1046.81 299.323 1046.69 301.166 1047.75 302.381C1048.81 303.592 1050.66 303.715 1051.87 302.652C1051.99 302.548 1052.1 302.433 1052.2 302.313L1108.04 340.368C1107.46 341.413 1107.56 342.753 1108.4 343.703C1109.46 344.915 1111.3 345.037 1112.52 343.975C1113.34 343.257 1113.66 342.186 1113.45 341.189L1150.53 329.898C1150.65 330.239 1150.83 330.563 1151.09 330.85C1152.15 332.061 1153.99 332.184 1155.21 331.121C1156.42 330.06 1156.54 328.217 1155.48 327.002C1155.45 326.971 1155.42 326.943 1155.4 326.915L1182.18 295.047C1183.22 295.608 1184.55 295.5 1185.49 294.677C1186.7 293.616 1186.83 291.773 1185.76 290.558C1184.96 289.636 1183.7 289.347 1182.6 289.727L1155.52 242.277C1155.52 242.277 1155.54 242.262 1155.54 242.254C1156.76 241.193 1156.88 239.35 1155.82 238.135C1154.76 236.923 1152.91 236.801 1151.7 237.863C1151.32 238.197 1151.04 238.608 1150.88 239.053L1106.19 226.261C1106.33 225.425 1106.11 224.536 1105.51 223.85C1104.71 222.937 1103.47 222.643 1102.39 223.003L1073.82 161.614C1073.96 161.528 1074.1 161.433 1074.22 161.321C1075.44 160.26 1075.56 158.417 1074.5 157.202C1074 156.64 1073.34 156.316 1072.65 156.23L1073.77 119.311C1074.39 119.272 1075.01 119.037 1075.51 118.595C1076.72 117.534 1076.85 115.69 1075.79 114.476C1075.26 113.883 1074.56 113.55 1073.83 113.493L1073.22 53.1747C1073.8 53.1167 1074.37 52.8846 1074.84 52.4687C1076.05 51.4076 1076.18 49.5647 1075.11 48.3497C1074.05 47.1381 1072.21 47.0153 1070.99 48.0778C1070.49 48.5191 1070.18 49.0986 1070.05 49.7131L1030.31 45.6576C1030.32 44.9644 1030.08 44.2705 1029.59 43.7083C1028.64 42.6188 1027.05 42.4117 1025.86 43.1502L968.318 -33.0949L968.105 -32.9319C968.893 -33.6244 969.217 -34.6464 969.06 -35.6114L1005.39 -45.2303C1005.51 -44.9011 1005.69 -44.5921 1005.93 -44.313C1006.99 -43.1014 1008.83 -42.9785 1010.05 -44.0411C1011.26 -45.1036 1011.38 -46.9451 1010.32 -48.1601C1009.67 -48.9021 1008.73 -49.2349 1007.81 -49.1372L991.777 -128.756C992.134 -128.876 992.475 -129.064 992.776 -129.33C993.705 -130.14 993.991 -131.407 993.602 -132.502L1025.12 -146.181C1025.2 -146.05 1025.3 -145.922 1025.4 -145.8C1026.46 -144.588 1028.31 -144.462 1029.52 -145.528C1030.73 -146.589 1030.86 -148.433 1029.8 -149.647C1029.2 -150.326 1028.37 -150.659 1027.53 -150.641L1010.83 -246.857C1011.24 -246.97 1011.64 -247.174 1011.99 -247.476C1013.2 -248.537 1013.32 -250.38 1012.26 -251.595L1012.26 -251.613ZM1024.87 -146.679L993.37 -133.006C993.277 -133.165 993.169 -133.321 993.044 -133.463C992.655 -133.906 992.161 -134.203 991.63 -134.351L997.741 -172.027L1025.21 -149.409C1024.64 -148.609 1024.53 -147.577 1024.88 -146.677L1024.87 -146.679ZM1005.21 -46.5258L933.942 -46.6889C933.89 -47.2831 933.657 -47.8659 933.232 -48.3496C933.136 -48.4596 933.033 -48.5553 932.923 -48.6483L951.587 -75.2145L1005.4 -47.3477C1005.29 -47.0823 1005.23 -46.8058 1005.2 -46.5263L1005.21 -46.5258ZM1025.18 47.536C1025.31 47.6809 1025.45 47.8087 1025.59 47.9222L1022.61 52.6009L981.287 54.749L1024.58 46.4228C1024.69 46.8205 1024.89 47.2011 1025.18 47.5312L1025.18 47.536ZM1070.88 117.513L1028.68 139.962C1028.6 139.851 1028.53 139.744 1028.44 139.643C1028.25 139.425 1028.03 139.245 1027.8 139.1L1045.54 104.395L1070.8 115.467C1070.58 116.131 1070.61 116.86 1070.88 117.513ZM1182.09 289.937C1181.93 290.032 1181.77 290.141 1181.63 290.273C1180.86 290.944 1180.53 291.925 1180.65 292.865L1153.97 297.658L1154.28 242.884C1154.55 242.82 1154.81 242.72 1155.05 242.575L1171.25 270.947L1182.09 289.935L1182.09 289.937ZM937.211 198.836C936.972 198.583 936.699 198.381 936.405 198.233L958.601 141.668L975.697 165.311C974.592 166.277 974.393 167.89 975.167 169.086L937.214 198.835L937.211 198.836ZM900.569 -118.97L881.051 -94.4153L897.799 -118.88C898.668 -118.449 899.713 -118.471 900.572 -118.972L900.569 -118.97ZM931.699 -152.915C932.001 -153.178 932.235 -153.492 932.4 -153.828L953.457 -145.742L927.516 -91.2487C927.321 -91.3183 927.119 -91.3689 926.918 -91.3964L929.81 -152.194C930.483 -152.199 931.154 -152.437 931.703 -152.916L931.699 -152.915ZM965.557 -164.194C966.685 -165.267 966.779 -167.047 965.742 -168.229C964.995 -169.081 963.864 -169.392 962.836 -169.137L948.041 -211.243L989.246 -134.196L965.557 -164.194ZM962.539 -163.563C963.386 -163.254 964.35 -163.348 965.135 -163.858L988.922 -133.738C988.658 -133.507 988.449 -133.239 988.289 -132.948L954.196 -146.039L962.538 -163.567L962.539 -163.563ZM988.073 -132.448C987.831 -131.713 987.888 -130.896 988.26 -130.188L928.773 -90.3469C928.75 -90.373 928.729 -90.404 928.707 -90.4301C928.498 -90.6676 928.26 -90.8614 928.003 -91.0157L953.964 -145.548L988.073 -132.448ZM963.86 -33.3617L943.898 -11.3269C943.234 -11.8262 942.394 -12.0044 941.603 -11.8552L935.659 -32.5101L963.271 -34.8273C963.328 -34.3062 963.522 -33.7982 963.865 -33.3597L963.86 -33.3617ZM1052.13 298.519C1051.59 297.898 1050.84 297.568 1050.08 297.53L1048.89 268.891L1108.92 304.304C1108.81 304.54 1108.74 304.788 1108.69 305.04L1052.85 300.412C1052.85 299.739 1052.61 299.063 1052.13 298.518L1052.13 298.519ZM1050 258.167C1050.07 258.105 1050.13 258.039 1050.2 257.972L1108.14 303.215L1048.86 268.25L1048.47 258.861C1049.02 258.788 1049.55 258.56 1050 258.165L1050 258.167ZM1109.64 303.353C1109.57 303.415 1109.5 303.48 1109.44 303.547L1050.53 257.545C1050.86 257.023 1051.02 256.416 1050.98 255.81L1105.34 247.733L1110.99 302.688C1110.51 302.782 1110.04 303.003 1109.64 303.351L1109.64 303.353ZM1100.62 226.905L1050.49 254.338C1050.43 254.24 1050.35 254.14 1050.27 254.048C1049.93 253.656 1049.5 253.379 1049.04 253.22L1058.09 217.28L1100.4 225.426C1100.35 225.924 1100.42 226.436 1100.62 226.908L1100.62 226.905ZM1057.69 216.655L1040.55 213.357C1040.63 212.584 1040.4 211.782 1039.85 211.15C1039.73 211.011 1039.59 210.888 1039.45 210.78L1071.11 161.784C1071.23 161.838 1071.35 161.88 1071.48 161.915L1057.7 216.658L1057.69 216.655ZM1070.09 161.035C1070.25 161.223 1070.44 161.382 1070.64 161.518L1039 210.486C1038.52 210.237 1037.99 210.126 1037.46 210.162L1029.98 163.226L1069.45 159.79C1069.56 160.236 1069.77 160.665 1070.09 161.033L1070.09 161.035ZM1029.35 162.739L980.493 166.989C980.454 166.78 980.397 166.575 980.313 166.381L1023.81 143.173C1023.88 143.282 1023.95 143.388 1024.04 143.49C1024.66 144.2 1025.56 144.534 1026.43 144.476L1029.35 162.736L1029.35 162.739ZM853.176 -7.83199C853.633 -8.31277 853.896 -8.91871 853.961 -9.54548L892.803 -9.18309L890.851 32.8534C890.297 32.8806 889.748 33.0603 889.274 33.4057L853.177 -7.82861L853.176 -7.83199ZM857.68 -132.869L867.683 -108.906L843.945 -99.2446C843.837 -99.4486 843.711 -99.641 843.552 -99.8241C843.306 -100.105 843.017 -100.326 842.705 -100.489L855.955 -132.867C856.514 -132.699 857.115 -132.699 857.675 -132.871L857.68 -132.869ZM844.148 -98.7441L867.889 -108.407L875.194 -90.9108C875 -90.807 874.81 -90.6815 874.639 -90.5319C874.262 -90.2024 873.992 -89.7949 873.826 -89.3553L844.232 -97.3934C844.309 -97.8394 844.283 -98.3026 844.15 -98.7408L844.148 -98.7441ZM896.549 -120.069C896.65 -119.893 896.765 -119.728 896.901 -119.571C897.036 -119.417 897.182 -119.284 897.337 -119.167L877.979 -90.8887C877.277 -91.2778 876.449 -91.362 875.69 -91.1237L868.388 -108.613L896.548 -120.072L896.549 -120.069ZM924.307 -86.5884C924.473 -86.3965 924.666 -86.2354 924.866 -86.0967L911.473 -61.8177L879.025 -86.7778C879.276 -87.1736 879.423 -87.6211 879.464 -88.0761L923.598 -88.2294C923.655 -87.6413 923.885 -87.0653 924.304 -86.587L924.307 -86.5884ZM928.328 -45.3375L896.174 -31.0244C896.13 -31.0849 896.085 -31.1454 896.033 -31.2031C895.867 -31.395 895.674 -31.5561 895.475 -31.6947L911.644 -61.012L928.566 -47.9934C928.065 -47.1984 927.977 -46.2069 928.327 -45.3409L928.328 -45.3375ZM1024.31 139.365C1024.14 139.514 1024 139.677 1023.87 139.851L992.388 121.214L1002.79 88.0003C1003.04 87.9533 1003.29 87.8699 1003.53 87.7513L1024.87 138.987C1024.68 139.091 1024.49 139.216 1024.32 139.367L1024.31 139.365ZM973.637 107.525L979.876 103.05L1001.1 87.8187C1001.45 87.9665 1001.83 88.0443 1002.2 88.0482L991.908 120.931L973.783 110.201C974.163 109.353 974.124 108.351 973.637 107.525ZM1023.6 140.312C1023.24 141.057 1023.22 141.922 1023.54 142.69L989.252 160.988L980.05 165.897C979.978 165.789 979.902 165.682 979.813 165.581C979.507 165.233 979.138 164.979 978.741 164.812L992.222 121.74L1023.6 140.312ZM1000.05 87.0522C1000.21 87.2373 1000.39 87.3925 1000.58 87.5258L973.324 107.083C973.324 107.083 973.323 107.079 973.321 107.076C972.895 106.589 972.346 106.283 971.759 106.15L974.242 84.1584L999.471 86.0342C999.589 86.3961 999.781 86.7387 1000.05 87.044L1000.05 87.0522ZM973.763 83.5906L916.486 79.3319C916.48 79.0894 916.444 78.848 916.382 78.6129L969.709 58.5044L974.822 56.5741C974.928 56.7714 975.054 56.9637 975.207 57.1415C975.603 57.5937 976.106 57.895 976.647 58.0386L973.763 83.5906ZM892.994 33.6456C892.54 33.2137 891.974 32.9538 891.388 32.8724L893.34 -9.18373L939.23 -8.7559C939.273 -8.24079 939.452 -7.73061 939.774 -7.28707L892.994 33.6456ZM806.575 -22.6017C806.602 -22.747 806.621 -22.8928 806.626 -23.0413L856.164 -26.4325L851.698 -12.6921C850.819 -12.8895 849.863 -12.6802 849.134 -12.0439C848.763 -11.7206 848.496 -11.3226 848.331 -10.8912L835.38 -14.5222L806.575 -22.6017ZM895.759 -27.0874C896.031 -27.3263 896.246 -27.6085 896.409 -27.9125L939.356 -9.87726C939.296 -9.68688 939.258 -9.49334 939.235 -9.29864L893.365 -9.72671L894.137 -26.3862C894.716 -26.4476 895.284 -26.6783 895.754 -27.0894L895.759 -27.0874ZM893.279 -32.1456L877.636 -85.6279C877.938 -85.7486 878.228 -85.9158 878.485 -86.1443C878.56 -86.2109 878.634 -86.2808 878.701 -86.3561L911.213 -61.3472L895.003 -31.9577C894.459 -32.1948 893.86 -32.2592 893.279 -32.1456ZM875.918 -85.4947C876.309 -85.4077 876.719 -85.3994 877.114 -85.4757L892.757 -31.9933C892.456 -31.8727 892.165 -31.7055 891.908 -31.477C891.267 -30.9162 890.933 -30.1387 890.915 -29.3499L856.92 -27.021L875.916 -85.49L875.918 -85.4947ZM890.955 -28.8137C890.981 -28.6548 891.019 -28.4967 891.071 -28.3408L868.377 -18.0173L853.595 -11.2927C853.499 -11.4583 853.386 -11.617 853.257 -11.7652C852.96 -12.104 852.603 -12.3554 852.214 -12.5224L856.744 -26.4709L890.958 -28.8151L890.955 -28.8137ZM853.814 -10.7993L891.298 -27.8304C891.394 -27.6648 891.507 -27.5062 891.637 -27.3546C892.158 -26.7609 892.869 -26.4267 893.599 -26.3693L892.826 -9.7213L853.964 -10.0835C853.944 -10.3238 853.895 -10.5644 853.814 -10.7993ZM941.5 -6.14867C942.091 -6.0178 942.721 -6.06896 943.29 -6.3159L955.701 16.4598L975.581 52.9414C975.548 52.9669 975.512 52.9937 975.48 53.0225C975.016 53.4275 974.713 53.9472 974.571 54.503L925.499 43.3392L941.498 -6.15202L941.5 -6.14867ZM940.215 -11.1912C939.942 -10.9523 939.729 -10.6748 939.568 -10.3756L896.66 -28.5488C896.719 -28.7785 896.747 -29.0153 896.748 -29.2524L935.1 -32.4686L941.075 -11.7083C940.769 -11.5897 940.477 -11.4177 940.216 -11.1878L940.215 -11.1912ZM874.574 -86.195C874.824 -85.9628 875.106 -85.7871 875.404 -85.6576L856.339 -26.9826L806.596 -23.5735C806.53 -24.0199 806.366 -24.4571 806.091 -24.8449L874.574 -86.195ZM893.349 34.0555L940.129 -6.87711C940.384 -6.63134 940.678 -6.44494 940.99 -6.31295L924.977 43.2231L893.879 36.1499C893.973 35.432 893.803 34.6771 893.351 34.0589L893.349 34.0555ZM925.337 43.8559L974.492 55.0371C974.47 55.3856 974.513 55.7388 974.616 56.075L916.193 78.1069C916.084 77.8798 915.942 77.6619 915.769 77.4612C915.471 77.1225 915.109 76.8691 914.721 76.702L925.339 43.8512L925.337 43.8559ZM916.447 79.8689L973.704 84.1279L971.225 106.091C970.508 106.067 969.783 106.299 969.203 106.807C969.002 106.981 968.835 107.18 968.696 107.387L916.276 80.4684C916.354 80.2745 916.413 80.0726 916.449 79.8642L916.447 79.8689ZM973.046 111.2C973.228 111.038 973.387 110.858 973.517 110.666L991.742 121.457L978.221 164.652C978.005 164.607 977.782 164.584 977.561 164.585L971.756 111.851C972.218 111.747 972.662 111.532 973.041 111.198L973.046 111.2ZM999.346 85.4936L974.301 83.6327L977.182 58.1294C977.757 58.1724 978.345 58.0479 978.864 57.7466L1000.22 83.0339C999.534 83.6913 999.233 84.6087 999.346 85.4936ZM934.955 -33.0008L896.71 -29.7933C896.664 -30.0584 896.581 -30.3163 896.46 -30.5622L928.58 -44.8614C928.658 -44.7396 928.741 -44.624 928.84 -44.5106C929.623 -43.6184 930.825 -43.3176 931.891 -43.6433L934.952 -32.9994L934.955 -33.0008ZM929.116 -48.631C929.041 -48.5645 928.967 -48.4945 928.9 -48.4192L911.909 -61.4886L925.34 -85.8385C925.724 -85.6734 926.135 -85.5866 926.549 -85.596L930.458 -49.2919C929.977 -49.1956 929.511 -48.9756 929.113 -48.6296L929.116 -48.631ZM929.272 -152.244L926.379 -91.4303C925.739 -91.4027 925.106 -91.1652 924.586 -90.7135C923.997 -90.1981 923.667 -89.4972 923.601 -88.7756L879.467 -88.6223C879.41 -89.2104 879.18 -89.7864 878.761 -90.2647C878.704 -90.3278 878.643 -90.3894 878.583 -90.4477L928.093 -152.736C928.451 -152.481 928.855 -152.317 929.272 -152.244ZM896.332 -120.567L868.186 -109.113L858.18 -133.083C858.374 -133.187 858.563 -133.313 858.734 -133.462C859.064 -133.753 859.314 -134.104 859.479 -134.48L896.261 -122.164C896.138 -121.64 896.158 -121.084 896.333 -120.564L896.332 -120.567ZM843.279 -95.7051C843.656 -96.0346 843.926 -96.4421 844.092 -96.8817L873.259 -88.9594L838.973 -92.565L840.291 -95.1856C841.275 -94.8024 842.432 -94.9645 843.279 -95.7051ZM873.646 -88.377C873.637 -87.7577 873.824 -87.1324 874.22 -86.605L805.846 -25.3516L805.651 -25.346C805.528 -25.4531 805.399 -25.5539 805.261 -25.6391L838.71 -92.0539L873.644 -88.3804L873.646 -88.377ZM806.425 -22.0857L848.189 -10.3747C848.033 -9.52871 848.252 -8.62467 848.861 -7.92488C849.801 -6.85282 851.348 -6.63517 852.534 -7.33014L846.581 5.4575L806.272 -21.7581C806.33 -21.8652 806.381 -21.9728 806.425 -22.0857ZM853.049 -7.16387L888.867 33.7477C888.817 33.7998 888.772 33.8538 888.728 33.9078L847.033 5.7566L853.051 -7.16864L853.049 -7.16387ZM892.905 37.9529C893.314 37.5946 893.599 37.1456 893.755 36.6628L924.807 43.7278L914.201 76.5338C913.628 76.4075 913.022 76.4522 912.468 76.6773L892.555 38.2123C892.676 38.1344 892.792 38.0511 892.902 37.9543L892.905 37.9529ZM968.436 107.858C968.012 108.858 968.161 110.051 968.923 110.921C969.179 111.214 969.481 111.44 969.81 111.605L958.455 140.54L915.683 81.3844C915.812 81.2481 915.928 81.0977 916.026 80.9428L968.435 107.855L968.436 107.858ZM970.309 111.801C970.606 111.888 970.914 111.926 971.221 111.914L977.027 164.639C976.715 164.705 976.414 164.818 976.128 164.987L958.828 141.061L970.309 111.801ZM980.529 167.515L1029.42 163.261L1036.91 210.234C1036.49 210.344 1036.07 210.551 1035.71 210.864C1035.63 210.937 1035.56 211.012 1035.49 211.088L980.089 169.043C980.38 168.579 980.524 168.05 980.529 167.515ZM1039.56 215.255C1040 214.874 1040.29 214.39 1040.44 213.874L1057.55 217.168L1048.51 253.077C1048.22 253.033 1047.93 253.033 1047.64 253.075L1038.59 215.82C1038.93 215.699 1039.27 215.515 1039.56 215.255ZM1045.86 257.884C1046.41 258.504 1047.15 258.836 1047.92 258.872L1048.29 267.913L1036.97 261.232C1037.23 260.669 1037.31 260.033 1037.19 259.427L1045.35 257.032C1045.47 257.334 1045.63 257.62 1045.86 257.877L1045.86 257.884ZM1036.25 262.186C1036.42 262.038 1036.57 261.874 1036.69 261.7L1048.32 268.556L1049.53 297.539C1049.4 297.556 1049.27 297.587 1049.13 297.626L1035.62 262.603C1035.84 262.492 1036.06 262.357 1036.25 262.186ZM1108.63 305.569C1108.64 306.241 1108.87 306.918 1109.35 307.462C1109.85 308.028 1110.51 308.354 1111.2 308.435L1110.97 316.802L1052.82 300.944L1108.63 305.569ZM1111.74 308.449C1112.36 308.41 1112.97 308.174 1113.47 307.734C1113.66 307.568 1113.83 307.379 1113.96 307.177L1150.72 327.45C1150.69 327.507 1150.66 327.559 1150.63 327.614L1111.51 316.945L1111.74 308.447L1111.74 308.449ZM1151.33 326.709C1151.23 326.801 1151.13 326.902 1151.04 327.007L1114.22 306.706C1114.42 306.258 1114.5 305.772 1114.46 305.291L1153.42 298.291L1153.26 325.989C1152.58 325.987 1151.89 326.224 1151.33 326.709ZM1114.36 304.757C1114.25 304.347 1114.05 303.956 1113.75 303.614C1113.63 303.478 1113.5 303.357 1113.36 303.249L1152.66 242.797C1153.01 242.916 1153.37 242.966 1153.73 242.95L1153.43 297.743L1114.37 304.759L1114.36 304.757ZM1151.4 241.956C1151.62 242.211 1151.88 242.416 1152.16 242.573L1112.91 302.955C1112.48 302.731 1112 302.615 1111.52 302.619L1105.86 247.639L1150.83 240.958C1150.95 241.315 1151.13 241.655 1151.4 241.956ZM1105.28 247.183L1050.9 255.264C1050.86 255.106 1050.81 254.95 1050.74 254.8L1100.86 227.368C1100.93 227.472 1101.01 227.573 1101.09 227.672C1101.69 228.353 1102.53 228.688 1103.37 228.665L1105.28 247.186L1105.28 247.183ZM1101.37 223.548C1100.94 223.917 1100.66 224.382 1100.5 224.883L1058.21 216.741L1071.99 161.998C1072.43 162.039 1072.89 161.984 1073.31 161.821L1101.87 223.19C1101.69 223.287 1101.52 223.404 1101.37 223.545L1101.37 223.548ZM1069.36 159.24L1029.87 162.676L1026.96 144.375C1027.38 144.265 1027.8 144.059 1028.16 143.745C1028.46 143.483 1028.69 143.174 1028.85 142.841L1069.45 158.396C1069.38 158.672 1069.35 158.955 1069.36 159.239L1069.36 159.24ZM1027.31 138.844C1026.69 138.598 1026 138.568 1025.36 138.769L1003.99 87.4555C1004.05 87.4122 1004.1 87.3688 1004.16 87.3221C1004.42 87.0922 1004.63 86.8243 1004.79 86.5379L1045.03 104.169L1027.31 138.845L1027.31 138.844ZM1005.01 86.0415C1005.22 85.4057 1005.2 84.7127 1004.96 84.0786L1070.41 51.7721C1070.5 51.9107 1070.59 52.0418 1070.7 52.1659C1070.89 52.384 1071.1 52.5631 1071.33 52.7089L1045.28 103.683L1005.01 86.0402L1005.01 86.0415ZM1070.17 51.287L1004.72 83.5935C1004.64 83.4549 1004.54 83.3238 1004.43 83.1997C1004.31 83.0548 1004.17 82.9256 1004.02 82.8134L1022.91 53.1112L1070 50.6615C1070.04 50.8732 1070.09 51.0833 1070.17 51.285L1070.17 51.287ZM1003.57 82.5259C1002.65 82.0539 1001.53 82.099 1000.64 82.6877L979.303 57.4232C979.303 57.4232 979.319 57.4129 979.328 57.4053C979.955 56.8583 980.288 56.097 980.321 55.3256L1022.26 53.1429L1003.58 82.5197L1003.57 82.5259ZM976.03 52.6335L943.76 -6.58475C943.861 -6.65433 943.962 -6.72728 944.058 -6.81034C945.27 -7.87147 945.397 -9.71575 944.331 -10.9294C944.316 -10.9468 944.299 -10.9595 944.284 -10.9769L964.216 -32.9795C964.749 -32.5011 965.423 -32.2546 966.106 -32.2447L976.573 52.4092C976.386 52.4628 976.204 52.538 976.027 52.6349L976.03 52.6335ZM963.251 -35.3833L935.497 -33.055L932.389 -43.861C932.587 -43.9662 932.779 -44.093 932.957 -44.2454C933.32 -44.5612 933.582 -44.9497 933.748 -45.3696L963.344 -35.9114C963.297 -35.7381 963.268 -35.5603 963.254 -35.3847L963.251 -35.3833ZM932.481 -48.9746C932.022 -49.235 931.506 -49.3653 930.987 -49.3602L927.078 -85.6643C927.559 -85.7606 928.025 -85.9806 928.423 -86.3266C928.635 -86.5125 928.812 -86.7239 928.956 -86.9491L951.102 -75.48L932.481 -48.9746ZM929.205 -87.4269C929.527 -88.2232 929.487 -89.1422 929.066 -89.9152L988.542 -129.753C988.575 -129.711 988.603 -129.671 988.64 -129.631C988.737 -129.521 988.839 -129.425 988.944 -129.334L951.417 -75.9219L929.206 -87.4235L929.205 -87.4269ZM991.087 -134.462C990.657 -134.498 990.22 -134.44 989.809 -134.286L948.222 -212.048C948.331 -212.12 948.437 -212.196 948.539 -212.285C948.591 -212.33 948.637 -212.381 948.685 -212.428L997.246 -172.442L991.085 -134.466L991.087 -134.462ZM949.027 -212.842C949.592 -213.675 949.692 -214.743 949.287 -215.657L1007.64 -248.06C1007.71 -247.965 1007.77 -247.871 1007.85 -247.785C1008.25 -247.327 1008.77 -247.022 1009.32 -246.882L997.346 -173.06L949.026 -212.846L949.027 -212.842ZM961.342 -164.399C961.55 -164.161 961.788 -163.968 962.045 -163.813L953.682 -146.249L932.584 -154.35C932.72 -154.841 932.722 -155.362 932.596 -155.859L960.862 -165.16C960.98 -164.893 961.138 -164.634 961.34 -164.402L961.342 -164.399ZM901.88 -120.644C902.167 -121.564 901.99 -122.604 901.326 -123.391L924.144 -148.654L901.88 -120.644ZM839.153 -95.9905C839.347 -95.7705 839.566 -95.5846 839.804 -95.4382L838.394 -92.6377L791.479 -97.5724L838.448 -97.6411C838.502 -97.0516 838.733 -96.4723 839.156 -95.9919L839.153 -95.9905ZM787.328 -95.0607C787.685 -95.1806 788.029 -95.3701 788.33 -95.6364C788.835 -96.0777 789.146 -96.6524 789.267 -97.2588L838.13 -92.1185L804.773 -25.8836C804.307 -26.066 803.804 -26.1267 803.315 -26.0589L787.328 -95.0607ZM759.458 -21.6782C759.731 -22.1068 759.886 -22.593 759.912 -23.0851L801.192 -24.6412C800.572 -23.5881 800.663 -22.2124 801.512 -21.245C802.342 -20.2971 803.646 -20.0184 804.76 -20.447L832.078 34.6591L759.461 -21.6796L759.458 -21.6782ZM832.831 34.9717L805.241 -20.6889C805.376 -20.7724 805.507 -20.866 805.633 -20.9731C805.758 -21.0802 805.863 -21.1986 805.967 -21.3204L846.352 5.94316L832.836 34.9737L832.831 34.9717ZM833.262 35.3266L846.801 6.24703L888.424 34.3489C888.233 34.7 888.116 35.0841 888.079 35.4741L833.262 35.3266ZM915.938 82.6525L958.221 141.13L935.899 198.02C935.567 197.924 935.226 197.892 934.884 197.915L915.943 82.6545L915.938 82.6525ZM938.003 200.897C938.018 200.322 937.867 199.745 937.54 199.241L975.493 169.492C976.566 170.628 978.351 170.724 979.537 169.685C979.618 169.612 979.694 169.538 979.768 169.46L1035.17 211.505C1034.98 211.793 1034.86 212.112 1034.79 212.437L938.006 200.896L938.003 200.897ZM1037.7 215.967C1037.82 215.964 1037.94 215.955 1038.06 215.937L1047.11 253.192C1046.76 253.313 1046.43 253.497 1046.14 253.757C1045.33 254.467 1045.01 255.527 1045.2 256.513L1037.04 258.908C1036.92 258.606 1036.75 258.32 1036.53 258.063C1036.06 257.532 1035.45 257.21 1034.8 257.104L1037.71 215.974L1037.7 215.967ZM1052.47 301.835C1052.54 301.708 1052.61 301.58 1052.66 301.448L1110.96 317.348L1110.38 338.84C1109.76 338.879 1109.15 339.114 1108.65 339.554C1108.53 339.659 1108.42 339.774 1108.32 339.894L1052.48 301.839L1052.47 301.835ZM1113.27 340.644C1113.15 340.354 1112.99 340.076 1112.77 339.826C1112.27 339.261 1111.61 338.935 1110.92 338.854L1111.5 317.491L1150.44 328.111C1150.33 328.512 1150.31 328.932 1150.37 329.344L1113.27 340.641L1113.27 340.644ZM1154.96 326.529C1154.61 326.276 1154.21 326.108 1153.8 326.03L1153.96 298.182L1180.77 293.365C1180.89 293.722 1181.08 294.066 1181.35 294.367C1181.46 294.494 1181.58 294.606 1181.71 294.71L1154.97 326.524L1154.96 326.529ZM1150.72 239.538C1150.67 239.831 1150.67 240.128 1150.7 240.42L1105.81 247.093L1103.9 228.587C1104.37 228.489 1104.82 228.271 1105.21 227.929C1105.59 227.595 1105.86 227.186 1106.03 226.743L1150.72 239.535L1150.72 239.538ZM1072.09 156.178C1071.47 156.217 1070.85 156.452 1070.35 156.893C1070.03 157.176 1069.78 157.515 1069.62 157.883L1029.04 142.334C1029.21 141.706 1029.18 141.031 1028.92 140.42L1071.13 117.971C1071.2 118.082 1071.28 118.189 1071.37 118.29C1071.86 118.853 1072.52 119.177 1073.21 119.262L1072.09 156.181L1072.09 156.178ZM1073.27 113.464C1072.69 113.522 1072.11 113.754 1071.64 114.17C1071.38 114.4 1071.17 114.668 1071.02 114.954L1045.78 103.897L1071.82 52.948C1072.09 53.0574 1072.37 53.122 1072.66 53.1445L1073.27 113.463L1073.27 113.464ZM1069.39 50.1509L1023.27 52.5481L1026.04 48.1902C1027.07 48.7192 1028.37 48.603 1029.3 47.7896C1029.8 47.3483 1030.11 46.7689 1030.23 46.1543L1069.38 50.1475L1069.39 50.1509ZM1025.41 43.4384C1024.7 44.0812 1024.38 44.9907 1024.47 45.8786L980.203 54.3913C980.086 53.9936 979.89 53.613 979.6 53.2829C978.954 52.5429 978.016 52.212 977.11 52.3022L966.65 -32.2874C967.082 -32.3594 967.501 -32.5287 967.871 -32.7999L1025.41 43.4398L1025.41 43.4384ZM968.902 -36.1659C968.781 -36.4952 968.603 -36.8041 968.361 -37.0833C967.3 -38.2949 965.456 -38.4177 964.241 -37.3552C963.933 -37.0861 963.694 -36.7663 963.53 -36.4183L933.897 -45.8889C933.914 -45.9825 933.927 -46.0749 933.935 -46.1691L1005.2 -46.006C1005.21 -45.9336 1005.22 -45.8592 1005.23 -45.7848L968.902 -36.1659ZM1007.27 -49.0633C1006.88 -48.9458 1006.51 -48.7499 1006.19 -48.4657C1005.98 -48.2797 1005.8 -48.0684 1005.65 -47.8432L951.905 -75.6774L989.39 -129.029C989.954 -128.706 990.609 -128.581 991.241 -128.669L1007.27 -49.0647L1007.27 -49.0633ZM1026.98 -150.613C1026.51 -150.513 1026.06 -150.297 1025.66 -149.954C1025.62 -149.918 1025.59 -149.878 1025.55 -149.843L997.833 -172.665L1009.86 -246.796C1010 -246.788 1010.14 -246.789 1010.29 -246.801L1026.99 -150.615L1026.98 -150.613Z" fill="white"/>
</g>
</g>
</svg>
