<svg width="1920" height="1080" viewBox="0 0 1920 1080" fill="none" xmlns="http://www.w3.org/2000/svg">
<g clip-path="url(#clip0_522_745)">
<rect width="1920" height="1080" fill="white"/>
<g clip-path="url(#clip1_522_745)">
<rect width="1947" height="1095" fill="#232222"/>
<path d="M-6 534.216L71.9083 521.041L150.33 459.662L192.947 475.857L242.387 459.662L261.134 465.62L539.872 341.141L547.55 318.977L667.733 261L710.35 301.926L762.346 296.813L787.926 323.245L828.833 319.833L842.478 332.616L865.493 344.553L904.698 404.241L909.82 422.993L919.189 429.818L929.423 411.911L948.171 439.199L980.564 445.167L1038.53 489.496L1125.47 432.374L1145.93 439.199L1186.85 397.608L1225.21 379.511L1240.54 389.747L1255.89 383.778L1272.94 397.608L1295.1 371.841L1314.71 381.222L1331.76 370.985L1370.12 373.542L1399.94 353.079L1416.14 363.315L1491.15 448.57L1496.27 468.187L1515.02 484.382L1531.22 476.713L1569.58 509.959L1615.6 499.732L1688.06 528.721L1714.48 515.072L1785.23 509.103L1893.49 492.052L1926 475.736M-6 551.308L71.5259 538.575L150.109 479.169L192.585 494.85L241.833 479.179L260.511 484.956L538.513 364.513L546.563 343.064L666.485 286.969L709.324 326.576L761.058 321.634L786.799 347.211L827.504 343.919L841.2 356.3L864.174 367.855L904.054 425.61L909.529 443.768L918.907 450.371L929.363 433.039L948.412 459.45L980.644 465.228L1038.71 508.137L1125.66 452.867L1146.04 459.47L1187.22 419.229L1225.48 401.715L1240.83 411.619L1256.12 405.852L1273.21 419.239L1295.58 394.297L1315.14 403.376L1332.17 393.481L1370.33 395.957L1400.18 376.159L1416.38 386.063L1492.04 468.58L1497.53 487.563L1516.35 503.235L1532.5 495.817L1571 527.996L1616.82 518.102L1689.05 546.154L1715.43 532.958L1785.82 527.191L1893.55 510.693L1926 494.911M-6 568.409L71.1536 556.099L149.887 498.685L192.222 513.844L241.29 498.706L259.887 504.292L537.144 387.885L545.587 367.16L665.237 312.938L708.297 351.237L759.76 346.456L785.672 371.186L826.166 368.006L839.932 379.974L862.856 391.146L903.4 446.989L909.237 464.533L918.626 470.925L929.313 454.176L948.644 479.702L980.725 485.288L1038.89 526.778L1125.85 473.361L1146.15 479.742L1187.58 440.849L1225.76 423.929L1241.11 433.502L1256.35 427.915L1273.49 440.859L1296.05 416.763L1315.57 425.54L1332.59 415.968L1370.55 418.373L1400.42 399.229L1416.61 408.811L1492.93 488.59L1498.8 506.929L1517.68 522.088L1533.8 514.921L1572.43 546.033L1618.05 536.471L1690.05 563.597L1716.38 550.845L1786.4 545.268L1893.62 529.335L1926 514.075M-6 585.5L70.7712 573.623L149.676 518.202L191.86 532.847L240.737 518.222L259.263 523.617L535.786 411.257L544.611 391.247L663.99 338.907L707.271 375.887L758.472 371.287L784.545 395.162L824.828 392.092L838.664 403.647L861.548 414.438L902.746 468.358L908.945 485.308L918.354 491.468L929.262 475.303L948.875 499.954L980.805 505.359L1039.07 545.419L1126.05 493.844L1146.27 500.014L1187.95 462.47L1226.04 446.134L1241.39 455.374L1256.58 449.989L1273.76 462.49L1296.53 439.219L1316 447.704L1333.01 438.464L1370.77 440.779L1400.66 422.309L1416.83 431.559L1493.8 508.59L1500.07 526.305L1519.01 540.95L1535.09 534.025L1573.86 564.071L1619.27 554.84L1691.05 581.041L1717.32 568.721L1787 563.356L1893.68 547.976L1926 533.25M-6 602.591L70.3888 591.147L149.454 537.719L191.508 551.841L240.183 537.749L258.639 542.953L534.417 434.629L543.635 415.333L662.732 364.885L706.244 400.547L757.174 396.108L783.418 419.138L823.489 416.179L837.386 427.331L860.23 437.729L902.102 489.737L908.653 506.083L918.072 512.022L929.202 496.441L949.117 520.205L980.886 525.419L1039.26 564.06L1126.24 514.337L1146.38 520.286L1188.33 484.08L1226.32 468.338L1241.67 477.256L1256.82 472.062L1274.03 484.121L1297.01 461.685L1316.43 469.858L1333.43 460.95L1370.99 463.195L1400.89 445.389L1417.06 454.307L1494.69 528.6L1501.33 545.681L1520.35 559.803L1536.39 553.119L1575.29 582.098L1620.48 573.21L1692.04 598.484L1718.28 586.607L1787.58 581.433L1893.74 566.617L1926 552.415M-6 619.692L70.0165 608.67L149.243 557.226L191.146 570.834L239.64 557.266L258.015 562.279L533.059 458.001L542.649 439.42L661.484 390.854L705.218 425.198L755.886 420.93L782.291 443.114L822.151 440.266L836.118 451.005L858.911 461.02L901.448 511.106L908.361 526.848L917.79 532.576L929.152 517.568L949.348 540.467L980.966 545.48L1039.44 582.702L1126.43 534.83L1146.49 540.558L1188.7 505.701L1226.6 490.542L1241.95 499.128L1257.05 494.136L1274.31 505.741L1297.49 484.141L1316.86 492.022L1333.85 483.446L1371.21 485.61L1401.12 468.459L1417.29 477.045L1495.57 548.6L1502.6 565.057L1521.68 578.655L1537.68 572.223L1576.72 600.135L1621.71 591.579L1693.04 615.918L1719.22 604.493L1788.18 599.511L1893.81 585.258L1926 571.589M-6 636.783L69.6341 626.204L149.022 576.743L190.783 589.828L239.086 576.793L257.391 581.615L531.69 481.373L541.673 463.517L660.236 416.823L704.181 449.858L754.587 445.751L781.164 467.09L820.823 464.362L834.84 474.679L857.603 484.322L900.804 532.485L908.069 547.624L917.509 553.129L929.091 538.696L949.58 560.719L981.037 565.55L1039.62 601.333L1126.62 555.324L1146.6 560.829L1189.07 527.322L1226.88 512.747L1242.23 521.011L1257.28 516.209L1274.59 527.372L1297.96 506.607L1317.29 514.176L1334.26 505.943L1371.43 508.016L1401.36 491.539L1417.52 499.793L1496.46 568.61L1503.86 584.433L1523 597.508L1538.97 591.328L1578.15 618.172L1622.93 609.949L1694.03 633.361L1720.17 622.37L1788.76 617.599L1893.87 603.899L1926 590.754M-6 653.874L69.2617 643.728L148.8 596.26L190.421 608.821L238.533 596.31L256.767 600.95L530.322 504.745L540.697 487.603L658.988 442.792L703.155 474.508L753.289 470.583L780.047 491.066L819.484 488.449L833.572 498.353L856.285 507.613L900.15 553.864L907.778 568.389L917.227 573.683L929.041 559.833L949.821 580.97L981.117 585.611L1039.81 619.974L1126.81 575.807L1146.73 581.101L1189.43 548.942L1227.16 534.951L1242.52 542.883L1257.51 538.273L1274.86 549.003L1298.45 529.063L1317.73 536.34L1334.68 528.429L1371.66 530.432L1401.59 514.609L1417.75 522.54L1497.34 588.62L1505.13 603.809L1524.34 616.371L1540.26 610.432L1579.58 636.21L1624.15 628.318L1695.02 650.804L1721.12 640.256L1789.35 635.676L1893.93 622.541L1926 609.929M-6 670.976L68.8793 661.252L148.589 615.777L190.059 627.825L237.989 615.837L256.143 620.276L528.963 528.117L539.721 511.69L657.74 468.761L702.129 499.169L752.001 495.404L778.92 515.032L818.146 512.535L832.294 522.037L854.967 530.905L899.496 575.233L907.496 589.164L916.945 594.227L928.991 580.96L950.053 601.222L981.198 605.671L1039.99 638.615L1127 596.3L1146.84 601.373L1189.81 570.563L1227.43 557.166L1242.8 564.765L1257.74 560.346L1275.13 570.623L1298.92 551.529L1318.16 558.504L1335.1 550.925L1371.88 552.848L1401.83 537.689L1417.99 545.288L1498.23 608.62L1506.4 623.185L1525.67 635.223L1541.56 629.536L1581.01 654.247L1625.38 646.688L1696.02 668.238L1722.07 658.142L1789.94 653.764L1894 641.182L1926 629.093M-6 688.067L68.497 678.776L148.368 635.284L189.697 646.819L237.436 635.354L255.519 639.612L527.595 551.489L538.734 535.777L656.493 494.73L701.102 523.819L750.703 520.225L777.793 539.008L816.807 536.622L831.027 545.711L853.658 554.196L898.852 596.612L907.204 609.939L916.663 614.78L928.93 602.088L950.284 621.484L981.278 625.741L1040.17 657.256L1127.19 616.793L1146.95 621.645L1190.18 592.183L1227.71 579.37L1243.08 586.647L1257.97 582.42L1275.4 592.254L1299.39 573.985L1318.59 580.658L1335.52 573.411L1372.09 575.263L1402.07 560.759L1418.22 568.036L1499.11 628.63L1507.67 642.561L1527 654.076L1542.85 648.64L1582.44 672.274L1626.59 665.057L1697.01 685.681L1723.02 676.018L1790.53 671.841L1894.06 659.823L1926 648.268M-6 705.158L68.1246 696.3L148.156 654.8L189.334 665.812L236.882 654.881L254.895 658.937L526.236 574.861L537.758 559.863L655.235 520.698L700.076 548.469L749.415 545.047L776.666 562.983L815.469 560.709L829.759 569.385L852.34 577.498L898.198 617.981L906.912 630.704L916.382 635.334L928.88 623.225L950.526 641.735L981.359 645.802L1040.35 675.898L1127.38 637.287L1147.06 641.927L1190.55 613.794L1227.99 601.574L1243.36 608.519L1258.2 604.493L1275.68 613.884L1299.88 596.451L1319.03 602.822L1335.93 595.907L1372.31 597.669L1402.3 583.839L1418.45 590.784L1499.99 648.64L1508.94 661.937L1528.34 672.928L1544.15 667.745L1583.87 690.311L1627.81 683.427L1698.01 703.125L1723.96 693.905L1791.11 689.919L1894.13 678.464L1926 667.433M-6 722.259L67.7422 713.834L147.935 674.317L188.982 684.805L236.339 674.408L254.271 678.273L524.867 598.233L536.782 583.96L653.987 546.667L699.049 573.129L748.117 569.878L775.539 586.959L814.131 584.795L828.481 593.069L851.022 600.789L897.553 639.36L906.62 651.479L916.1 655.887L928.819 644.352L950.757 661.987L981.439 665.862L1040.54 694.539L1127.57 657.78L1147.17 662.199L1190.91 635.414L1228.28 623.779L1243.64 630.402L1258.43 626.567L1275.96 635.505L1300.35 618.907L1319.46 624.987L1336.35 618.404L1372.53 620.085L1402.54 606.919L1418.68 613.532L1500.88 668.64L1510.19 681.313L1529.67 691.781L1545.43 686.849L1585.29 708.349L1629.04 701.786L1699.01 720.568L1724.91 711.791L1791.71 708.006L1894.19 697.095L1926 686.607M-6 739.35L67.3699 731.358L147.713 693.834L188.62 703.799L235.786 693.925L253.648 697.599L523.509 621.605L535.806 608.046L652.739 572.646L698.023 597.78L746.819 594.7L774.412 610.935L812.802 608.882L827.213 616.743L849.714 624.081L896.899 660.729L906.329 672.244L915.828 676.441L928.769 665.49L950.988 682.239L981.52 685.933L1040.72 713.18L1127.76 678.263L1147.29 682.47L1191.28 657.035L1228.55 645.983L1243.92 652.274L1258.66 648.63L1276.23 657.136L1300.83 641.373L1319.88 647.141L1336.78 640.89L1372.75 642.5L1402.77 629.989L1418.91 636.28L1501.76 688.65L1511.46 700.689L1530.99 710.643L1546.73 705.953L1586.72 726.386L1630.26 720.155L1700 738.001L1725.86 729.667L1792.29 726.084L1894.25 715.737L1926 705.772M-6 756.451L66.9875 748.882L147.502 713.341L188.258 722.803L235.232 713.452L253.024 716.934L522.14 644.977L534.82 632.133L651.491 598.615L696.986 622.44L745.531 619.521L773.285 634.911L811.464 632.968L825.935 640.417L848.395 647.372L896.245 682.108L906.037 693.019L915.546 696.995L928.719 686.617L951.22 702.49L981.6 705.993L1040.9 731.811L1127.95 698.756L1147.4 702.742L1191.66 678.656L1228.83 668.198L1244.21 674.156L1258.89 670.704L1276.5 678.756L1301.3 663.839L1320.31 669.305L1337.19 663.386L1372.97 664.906L1403.01 653.069L1419.14 659.028L1502.65 708.651L1512.73 720.065L1532.32 729.496L1548.02 725.057L1588.15 744.423L1631.47 738.525L1701 755.445L1726.81 747.553L1792.89 744.161L1894.32 734.378L1926 724.946M-6 773.542L66.6152 766.406L147.281 732.858L187.895 741.796L234.689 732.969L252.4 736.27L520.782 668.348L533.844 656.22L650.243 624.584L695.96 647.09L744.232 644.342L772.168 658.887L810.126 657.065L824.667 664.091L847.077 670.674L895.601 703.477L905.745 713.794L915.265 717.538L928.658 707.745L951.461 722.752L981.681 726.054L1041.08 750.452L1128.14 719.249L1147.51 723.014L1192.03 700.276L1229.11 690.402L1244.5 696.028L1259.12 692.777L1276.77 700.387L1301.79 686.295L1320.75 691.459L1337.61 685.872L1373.19 687.322L1403.24 676.139L1419.37 681.776L1503.53 728.661L1514 739.441L1533.66 748.349L1549.32 744.161L1589.58 762.45L1632.7 756.894L1702 772.888L1727.76 765.44L1793.47 762.249L1894.38 753.019L1926 744.111M-6 790.634L66.2328 783.93L147.059 752.375L187.533 760.79L234.135 752.496L251.776 755.596L519.413 691.72L532.868 680.316L648.996 650.553L694.933 671.751L742.944 669.174L771.041 682.863L808.787 681.152L823.399 687.775L845.769 693.965L894.947 724.856L905.463 734.559L914.983 738.092L928.608 728.882L951.693 743.004L981.761 746.124L1041.26 769.094L1128.33 739.743L1147.62 743.286L1192.4 721.897L1229.39 712.606L1244.78 717.911L1259.35 714.851L1277.05 722.017L1302.26 708.761L1321.18 713.623L1338.02 708.369L1373.42 709.738L1403.47 699.219L1419.6 704.524L1504.42 748.671L1515.27 758.817L1534.99 767.201L1550.61 763.266L1591.01 780.488L1633.92 775.264L1702.99 790.322L1728.7 783.326L1794.06 780.327L1894.44 771.66L1926 763.286M-6 807.735L65.8504 801.464L146.848 771.892L187.171 779.783L233.582 772.013L251.152 774.931L518.055 715.092L531.891 704.403L647.738 676.522L693.907 696.401L741.646 693.995L769.913 706.829L807.449 705.238L822.121 711.449L844.451 717.256L894.303 746.235L905.171 755.334L914.701 758.646L928.548 750.009L951.924 763.256L981.842 766.185L1041.45 787.735L1128.52 760.226L1147.74 763.558L1192.76 743.517L1229.67 734.811L1245.06 739.783L1259.58 736.924L1277.32 743.638L1302.73 731.217L1321.61 735.787L1338.45 730.855L1373.63 732.143L1403.72 722.289L1419.83 727.272L1505.3 768.671L1516.53 778.193L1536.32 786.064L1551.91 782.37L1592.45 798.525L1635.14 793.633L1703.99 807.765L1729.65 801.202L1794.65 798.414L1894.51 790.301L1926 782.45M-6 824.826L65.478 818.988L146.627 791.399L186.819 798.777L233.038 791.539L250.528 794.257L516.686 738.464L530.905 728.49L646.49 702.49L692.881 721.061L740.358 718.817L768.786 730.805L806.12 729.325L820.853 735.123L843.132 740.548L893.649 767.604L904.879 776.099L914.419 779.199L928.497 771.137L952.166 783.507L981.912 786.255L1041.63 806.376L1128.71 780.719L1147.85 783.829L1193.14 765.128L1229.95 757.015L1245.34 761.665L1259.81 758.988L1277.6 765.269L1303.22 753.683L1322.04 757.941L1338.86 753.351L1373.85 754.559L1403.95 745.369L1420.06 750.02L1506.19 788.681L1517.8 797.569L1537.66 804.916L1553.19 801.474L1593.88 816.562L1636.36 812.003L1704.98 825.208L1730.61 819.089L1795.24 816.492L1894.57 808.943L1926 801.625M-6 841.917L65.0956 836.512L146.415 810.915L186.456 817.78L232.485 811.056L249.894 813.593L515.328 761.836L529.929 752.576L645.242 728.459L691.854 745.711L739.06 743.648L767.659 754.78L804.782 753.412L819.575 758.807L841.824 763.849L893.005 788.983L904.588 796.874L914.137 799.753L928.447 792.274L952.397 803.759L981.993 806.316L1041.81 825.017L1128.9 801.212L1147.96 804.101L1193.51 786.748L1230.23 779.219L1245.63 783.537L1260.05 781.061L1277.87 786.899L1303.69 776.139L1322.48 780.105L1339.28 775.847L1374.07 776.975L1404.19 768.449L1420.29 772.767L1507.06 808.681L1519.07 816.935L1538.98 823.769L1554.49 820.578L1595.31 834.599L1637.58 830.372L1705.98 842.652L1731.55 836.975L1795.82 834.569L1894.63 827.584L1926 820.79M-6 859.018L64.7233 854.036L146.194 830.432L186.094 836.774L231.931 830.583L249.27 832.919L513.959 785.208L528.953 776.673L643.994 754.428L690.818 770.362L737.762 768.469L766.532 778.756L803.444 777.498L818.307 782.481L840.506 787.141L892.351 810.352L904.296 817.649L913.856 820.307L928.387 813.402L952.629 824.021L982.073 826.376L1042 843.658L1129.09 821.706L1148.07 824.373L1193.88 808.369L1230.5 801.434L1245.91 805.42L1260.28 803.135L1278.15 808.52L1304.17 798.605L1322.91 802.269L1339.69 798.334L1374.29 799.391L1404.42 791.519L1420.52 795.515L1507.95 828.691L1520.33 836.311L1540.31 842.622L1555.78 839.683L1596.74 852.627L1638.8 848.741L1706.98 860.085L1732.5 854.851L1796.42 852.657L1894.7 846.225L1926 839.964M-6 876.109L64.3409 871.57L145.973 849.949L185.732 855.767L231.388 850.1L248.646 852.254L512.601 808.58L527.967 800.759L642.746 780.407L689.791 795.022L736.474 793.291L765.405 802.732L802.105 801.585L817.029 806.155L839.188 810.432L891.697 831.731L904.004 838.414L913.574 840.85L928.336 834.539L952.87 844.272L982.154 846.446L1042.18 862.289L1129.29 842.189L1148.18 844.645L1194.24 829.989L1230.78 823.638L1246.19 827.302L1260.51 825.208L1278.42 830.151L1304.65 821.061L1323.34 824.423L1340.12 820.83L1374.51 821.796L1404.65 814.599L1420.75 818.263L1508.84 848.701L1521.6 855.687L1541.65 861.474L1557.08 858.787L1598.16 870.664L1640.03 867.111L1707.97 877.529L1733.44 872.737L1797 870.734L1894.76 864.866L1926 859.129M-6 893.2L63.9585 889.094L145.761 869.456L185.37 874.761L230.834 869.627L248.022 871.59L511.232 831.952L526.991 824.846L641.499 806.376L688.765 819.672L735.176 818.112L764.278 826.708L800.767 825.671L815.761 829.828L837.879 833.724L891.053 853.1L903.712 859.189L913.302 861.404L928.276 855.666L953.102 864.524L982.234 866.507L1042.36 880.931L1129.48 862.682L1148.31 864.927L1194.62 851.61L1231.06 845.843L1246.47 849.174L1260.74 847.282L1278.69 851.781L1305.13 843.528L1323.78 846.587L1340.54 843.316L1374.73 844.212L1404.89 837.669L1420.98 841.001L1509.72 868.701L1522.86 875.063L1542.98 880.337L1558.37 877.891L1599.59 888.701L1641.25 885.48L1708.97 894.972L1734.4 890.624L1797.6 888.812L1894.83 883.507L1926 878.304M-6 910.302L63.5862 906.618L145.54 888.973L185.007 893.764L230.281 889.154L247.398 890.916L509.863 855.324L526.015 848.933L640.241 832.345L687.738 844.333L733.888 842.944L763.161 850.684L799.428 849.758L814.493 853.512L836.561 857.025L890.399 874.479L903.43 879.954L913.02 881.957L928.226 876.794L953.333 884.776L982.315 886.567L1042.54 899.572L1129.67 883.175L1148.42 885.198L1194.99 873.231L1231.35 868.047L1246.75 871.056L1260.97 869.345L1278.96 873.402L1305.6 865.984L1324.2 868.752L1340.95 865.812L1374.96 866.628L1405.13 860.749L1421.22 863.749L1510.61 888.711L1524.13 894.438L1544.31 899.189L1559.66 896.995L1601.02 906.739L1642.46 903.85L1709.97 912.405L1735.34 908.5L1798.18 906.9L1894.9 902.149L1926 897.468M-6 927.393L63.2038 924.142L145.329 908.49L184.645 912.758L229.738 908.671L246.774 910.251L508.505 878.696L525.039 873.019L638.993 858.314L686.712 868.983L732.589 867.765L762.034 874.65L798.1 873.855L813.215 877.186L835.243 880.317L889.755 895.848L903.139 900.729L912.739 902.511L928.175 897.931L953.575 905.027L982.395 906.638L1042.72 918.213L1129.86 903.669L1148.53 905.47L1195.36 894.841L1231.62 890.251L1247.03 892.929L1261.2 891.419L1279.25 895.032L1306.07 888.45L1324.63 890.906L1341.38 888.309L1375.17 889.033L1405.37 883.819L1421.45 886.497L1511.49 908.721L1525.4 913.814L1545.64 918.042L1560.95 916.099L1602.45 924.776L1643.69 922.219L1710.96 929.849L1736.29 926.386L1798.77 924.977L1894.96 920.79L1926 916.643M-6 944.484L62.8314 941.666L145.107 928.007L184.293 931.751L229.184 928.198L246.15 929.577L507.136 902.068L524.052 897.116L637.745 884.283L685.686 893.643L731.291 892.586L760.907 898.626L796.762 897.941L811.947 900.86L833.925 903.608L889.101 917.227L902.847 921.504L912.457 923.065L928.115 919.059L953.806 925.289L982.476 926.698L1042.9 936.854L1130.05 924.162L1148.64 925.742L1195.73 916.462L1231.9 912.466L1247.32 914.811L1261.43 913.492L1279.52 916.663L1306.56 910.906L1325.06 913.07L1341.79 910.795L1375.39 911.449L1405.6 906.9L1421.68 909.245L1512.38 928.721L1526.67 933.19L1546.97 936.895L1562.25 935.204L1603.88 942.813L1644.91 940.589L1711.95 947.292L1737.24 944.273L1799.36 943.065L1895.03 939.421L1926 935.808M-6 961.585L62.449 959.2L144.886 947.514L183.931 950.745L228.631 947.715L245.527 948.913L505.778 925.44L523.076 921.203L636.497 910.251L684.659 918.294L730.003 917.408L759.78 922.602L795.423 922.028L810.669 924.544L832.616 926.9L888.446 938.596L902.555 942.27L912.175 943.618L928.065 940.186L954.038 945.541L982.556 946.759L1043.09 955.496L1130.24 944.645L1148.75 946.014L1196.09 938.082L1232.18 934.67L1247.6 936.683L1261.67 935.566L1279.79 938.284L1307.03 933.372L1325.5 935.224L1342.21 933.291L1375.61 933.865L1405.83 929.98L1421.91 931.993L1513.25 948.732L1527.93 952.566L1548.3 955.757L1563.54 954.308L1605.31 960.84L1646.13 958.958L1712.94 964.726L1738.18 962.149L1799.95 961.142L1895.09 958.062L1926 954.982M-6 978.676L62.0666 976.723L144.674 967.03L183.568 969.738L228.087 967.242L244.903 968.248L504.409 948.812L522.1 945.289L635.249 936.22L683.623 942.954L728.705 942.239L758.653 946.577L794.085 946.115L809.401 948.218L831.298 950.201L887.802 959.975L902.263 963.045L911.893 964.162L928.004 961.323L954.279 965.792L982.637 966.829L1043.28 974.137L1130.43 965.138L1148.87 966.286L1196.47 959.703L1232.46 956.874L1247.88 958.565L1261.9 957.639L1280.06 959.914L1307.51 955.828L1325.93 957.388L1342.62 955.777L1375.83 956.271L1406.07 953.05L1422.14 954.741L1514.14 968.732L1529.19 971.942L1549.63 974.61L1564.84 973.412L1606.74 978.878L1647.35 977.327L1713.94 982.169L1739.14 980.035L1800.53 979.22L1895.15 976.703L1926 974.147M-6 995.767L61.6943 994.247L144.453 986.547L183.206 988.742L227.534 986.759L244.279 987.574L503.051 972.184L521.124 969.376L634.002 962.189L682.596 967.604L727.417 967.061L757.526 970.553L792.747 970.201L808.133 971.892L829.98 973.493L887.148 981.354L901.971 983.81L911.612 984.715L927.954 982.451L954.511 986.044L982.707 986.89L1043.46 992.768L1130.62 985.631L1148.98 986.557L1196.84 981.323L1232.73 979.079L1248.16 980.438L1262.13 979.703L1280.34 981.545L1307.99 978.294L1326.36 979.552L1343.05 978.274L1376.05 978.686L1406.3 976.13L1422.37 977.488L1515.02 988.742L1530.46 991.318L1550.97 993.462L1566.12 992.516L1608.17 996.915L1648.57 995.697L1714.94 999.612L1740.08 997.921L1801.13 997.307L1895.22 995.345L1926 993.321M-6 1012.87L61.3119 1011.77L144.232 1006.06L182.844 1007.74L226.98 1006.29L243.655 1006.91L501.682 995.556L520.138 993.472L632.744 988.168L681.57 992.254L726.119 991.882L756.399 994.529L791.408 994.288L806.855 995.566L828.672 996.784L886.504 1002.72L901.679 1004.58L911.33 1005.27L927.904 1003.59L954.742 1006.3L982.788 1006.95L1043.64 1011.41L1130.82 1006.12L1149.09 1006.83L1197.21 1002.94L1233.02 1001.28L1248.44 1002.32L1262.36 1001.78L1280.61 1003.17L1308.47 1000.75L1326.79 1001.71L1343.47 1000.76L1376.27 1001.1L1406.54 999.2L1422.59 1000.24L1515.91 1008.75L1531.73 1010.69L1552.3 1012.31L1567.42 1011.61L1609.6 1014.95L1649.79 1014.07L1715.93 1017.06L1741.03 1015.8L1801.71 1015.38L1895.28 1013.99L1926 1012.5M-6 1029.96L60.9396 1029.3L144.02 1025.57L182.481 1026.73L226.437 1025.8L243.031 1026.24L500.324 1018.93L519.162 1017.56L631.496 1014.14L680.543 1016.91L724.831 1016.7L755.282 1018.51L790.08 1018.37L805.587 1019.25L827.354 1020.08L885.85 1024.1L901.398 1025.35L911.048 1025.82L927.843 1024.72L954.983 1026.56L982.868 1027.02L1043.82 1030.05L1131 1026.61L1149.2 1027.1L1197.57 1024.55L1233.3 1023.49L1248.72 1024.19L1262.59 1023.85L1280.89 1024.8L1308.94 1023.22L1327.23 1023.87L1343.88 1023.26L1376.5 1023.51L1406.78 1022.28L1422.83 1022.98L1516.79 1028.75L1533 1030.07L1553.63 1031.17L1568.71 1030.71L1611.03 1032.99L1651.02 1032.44L1716.93 1034.49L1741.98 1033.68L1802.29 1033.46L1895.34 1032.63L1926 1031.66M-6 1047.06L60.5572 1046.83L143.799 1045.09L182.119 1045.72L225.883 1045.33L242.407 1045.57L498.955 1042.3L518.186 1041.65L630.248 1040.11L679.517 1041.57L723.533 1041.53L754.155 1042.47L788.742 1042.46L804.309 1042.92L826.035 1043.38L885.196 1045.47L901.106 1046.12L910.776 1046.38L927.793 1045.84L955.215 1046.81L982.949 1047.08L1044 1048.69L1131.19 1047.1L1149.32 1047.37L1197.95 1046.18L1233.57 1045.7L1249.01 1046.07L1262.82 1045.92L1281.16 1046.43L1309.42 1045.67L1327.66 1046.03L1344.3 1045.75L1376.72 1045.92L1407.01 1045.35L1423.06 1045.73L1517.68 1048.76L1534.26 1049.45L1554.96 1050.03L1570.01 1049.82L1612.45 1051.02L1652.23 1050.81L1717.93 1051.93L1742.93 1051.57L1802.89 1051.55L1895.41 1051.27L1926 1050.84M-6 1064.15L1926 1070" stroke="url(#paint0_linear_522_745)" stroke-width="1.5" stroke-miterlimit="10"/>
</g>
<path d="M1784.61 983.264H1786.98V985.04H1784.61V989H1782.45V985.04H1774.67V983.768L1782.3 971.936H1784.61V983.264ZM1777.12 983.264H1782.45V974.912L1782.18 975.368L1777.12 983.264ZM1799.28 976.4C1799.28 977.232 1799.06 977.984 1798.61 978.656C1798.18 979.312 1797.57 979.832 1796.79 980.216C1797.68 980.6 1798.39 981.16 1798.9 981.896C1799.43 982.632 1799.69 983.464 1799.69 984.392C1799.69 985.368 1799.46 986.224 1799 986.96C1798.55 987.68 1797.92 988.24 1797.1 988.64C1796.28 989.04 1795.34 989.24 1794.27 989.24C1792.62 989.24 1791.3 988.8 1790.31 987.92C1789.33 987.04 1788.84 985.864 1788.84 984.392C1788.84 983.464 1789.09 982.632 1789.59 981.896C1790.1 981.16 1790.8 980.6 1791.68 980.216C1790.91 979.832 1790.31 979.304 1789.88 978.632C1789.44 977.96 1789.23 977.216 1789.23 976.4C1789.23 974.976 1789.69 973.84 1790.62 972.992C1791.55 972.128 1792.76 971.696 1794.27 971.696C1795.26 971.696 1796.13 971.888 1796.88 972.272C1797.65 972.656 1798.24 973.208 1798.66 973.928C1799.08 974.632 1799.28 975.456 1799.28 976.4ZM1797.53 984.344C1797.53 983.72 1797.39 983.16 1797.1 982.664C1796.83 982.168 1796.44 981.784 1795.95 981.512C1795.45 981.24 1794.88 981.104 1794.24 981.104C1793.6 981.104 1793.04 981.24 1792.54 981.512C1792.06 981.784 1791.68 982.168 1791.41 982.664C1791.14 983.144 1791 983.704 1791 984.344C1791 985.32 1791.29 986.088 1791.87 986.648C1792.44 987.192 1793.24 987.464 1794.27 987.464C1795.28 987.464 1796.07 987.184 1796.64 986.624C1797.24 986.064 1797.53 985.304 1797.53 984.344ZM1797.12 976.424C1797.12 975.864 1797 975.36 1796.74 974.912C1796.5 974.464 1796.16 974.12 1795.73 973.88C1795.3 973.624 1794.81 973.496 1794.27 973.496C1793.4 973.496 1792.71 973.76 1792.18 974.288C1791.67 974.816 1791.41 975.528 1791.41 976.424C1791.41 977.288 1791.67 977.992 1792.18 978.536C1792.71 979.064 1793.4 979.328 1794.27 979.328C1794.84 979.328 1795.35 979.208 1795.78 978.968C1796.21 978.728 1796.54 978.392 1796.76 977.96C1797 977.512 1797.12 977 1797.12 976.424Z" fill="white"/>
<path d="M122 990H139.999L142.999 983.999H124.999L122 990Z" fill="#C9B777"/>
<path d="M139.999 975H122L119 980.999H137L139.999 975Z" fill="#C9B777"/>
<path d="M149.991 989.5V972.436H154.791C156.295 972.436 157.615 972.764 158.751 973.42C159.887 974.076 160.759 975.004 161.367 976.204C161.991 977.404 162.311 978.804 162.327 980.404V981.484C162.327 983.1 162.015 984.516 161.391 985.732C160.767 986.932 159.879 987.86 158.727 988.516C157.575 989.156 156.231 989.484 154.695 989.5H149.991ZM152.223 974.284V987.652H154.599C155.751 987.652 156.735 987.412 157.551 986.932C158.383 986.452 159.015 985.748 159.447 984.82C159.879 983.892 160.095 982.764 160.095 981.436V980.452C160.095 979.156 159.887 978.052 159.471 977.14C159.071 976.212 158.479 975.508 157.695 975.028C156.911 974.532 155.967 974.284 154.863 974.284H152.223ZM169.533 986.332L169.725 985.732L172.485 976.828H174.813L169.725 991.468L169.509 991.996C169.141 992.876 168.653 993.532 168.045 993.964C167.453 994.396 166.757 994.612 165.957 994.612C165.557 994.564 165.149 994.508 164.733 994.444V992.668C164.925 992.684 165.117 992.7 165.309 992.716C166.029 992.78 166.597 992.644 167.013 992.308C167.445 991.988 167.789 991.436 168.045 990.652L168.525 989.356L164.013 976.828H166.365L169.533 986.332ZM178.789 976.828L178.861 978.412C179.341 977.804 179.893 977.348 180.517 977.044C181.157 976.74 181.869 976.588 182.653 976.588C183.981 976.588 184.981 976.972 185.653 977.74C186.341 978.492 186.693 979.62 186.709 981.124V989.5H184.549V981.1C184.533 980.188 184.317 979.516 183.901 979.084C183.501 978.652 182.869 978.436 182.005 978.436C181.301 978.436 180.677 978.62 180.133 978.988C179.605 979.34 179.197 979.836 178.909 980.476V989.5H176.725V976.828H178.789ZM197.815 989.5C197.671 989.18 197.567 988.732 197.503 988.156C196.991 988.684 196.431 989.084 195.823 989.356C195.231 989.612 194.583 989.74 193.879 989.74C193.063 989.74 192.327 989.58 191.671 989.26C191.031 988.924 190.527 988.476 190.159 987.916C189.791 987.34 189.607 986.7 189.607 985.996C189.607 984.668 190.103 983.644 191.095 982.924C192.103 982.188 193.519 981.82 195.343 981.82H197.455V980.812C197.455 980.044 197.223 979.444 196.759 979.012C196.311 978.564 195.655 978.34 194.791 978.34C194.279 978.34 193.815 978.428 193.399 978.604C192.983 978.78 192.655 979.02 192.415 979.324C192.175 979.628 192.055 979.964 192.055 980.332H189.871C189.871 979.708 190.087 979.108 190.519 978.532C190.967 977.956 191.575 977.492 192.343 977.14C193.111 976.772 193.967 976.588 194.911 976.588C196.367 976.588 197.511 976.956 198.343 977.692C199.175 978.412 199.607 979.412 199.639 980.692V986.524C199.639 987.676 199.783 988.604 200.071 989.308V989.5H197.815ZM194.215 987.844C194.887 987.844 195.527 987.668 196.135 987.316C196.743 986.964 197.183 986.508 197.455 985.948V983.356H195.775C194.447 983.356 193.447 983.548 192.775 983.932C192.119 984.316 191.791 984.9 191.791 985.684C191.791 986.356 192.007 986.884 192.439 987.268C192.887 987.652 193.479 987.844 194.215 987.844ZM205.062 976.828L205.134 978.22C205.598 977.676 206.142 977.268 206.766 976.996C207.406 976.724 208.118 976.588 208.902 976.588C209.782 976.588 210.518 976.756 211.11 977.092C211.718 977.428 212.182 977.94 212.502 978.628C212.95 977.988 213.51 977.492 214.182 977.14C214.87 976.772 215.662 976.588 216.558 976.588C217.95 976.588 219.006 976.956 219.726 977.692C220.446 978.428 220.806 979.532 220.806 981.004V989.5H218.622V981.124C218.622 980.196 218.414 979.516 217.998 979.084C217.582 978.652 216.886 978.436 215.91 978.436C215.174 978.436 214.558 978.636 214.062 979.036C213.438 979.516 213.078 980.196 212.982 981.076V981.268V989.5H210.822V981.196C210.822 980.268 210.59 979.58 210.126 979.132C209.678 978.668 209.006 978.436 208.11 978.436C207.374 978.436 206.774 978.588 206.31 978.892C205.814 979.196 205.438 979.644 205.182 980.236V989.5H203.022V976.828H205.062ZM226.421 989.5H224.237V976.828H226.421V989.5ZM224.069 973.468C224.069 973.1 224.181 972.796 224.405 972.556C224.629 972.316 224.941 972.196 225.341 972.196C225.741 972.196 226.053 972.316 226.277 972.556C226.517 972.796 226.637 973.1 226.637 973.468C226.637 973.82 226.525 974.116 226.301 974.356C226.077 974.58 225.757 974.692 225.341 974.692C224.941 974.692 224.629 974.58 224.405 974.356C224.181 974.132 224.069 973.836 224.069 973.468ZM234.969 987.964C235.753 987.964 236.433 987.732 237.009 987.268C237.585 986.788 237.905 986.196 237.969 985.492H240.009C239.977 986.212 239.737 986.9 239.289 987.556C238.841 988.212 238.233 988.74 237.465 989.14C236.713 989.54 235.881 989.74 234.969 989.74C233.817 989.74 232.817 989.484 231.969 988.972C231.121 988.444 230.465 987.7 230.001 986.74C229.553 985.764 229.329 984.612 229.329 983.284V982.924C229.329 981.66 229.553 980.548 230.001 979.588C230.465 978.628 231.121 977.892 231.969 977.38C232.817 976.852 233.817 976.588 234.969 976.588C235.913 976.588 236.761 976.78 237.513 977.164C238.265 977.548 238.857 978.092 239.289 978.796C239.737 979.484 239.977 980.276 240.009 981.172H237.969C237.905 980.356 237.593 979.684 237.033 979.156C236.473 978.628 235.785 978.364 234.969 978.364C233.865 978.364 233.009 978.764 232.401 979.564C231.793 980.364 231.489 981.508 231.489 982.996V983.404C231.489 984.86 231.785 985.988 232.377 986.788C232.985 987.572 233.849 987.964 234.969 987.964ZM261.562 983.308C261.562 984.572 261.362 985.692 260.962 986.668C260.562 987.644 259.986 988.404 259.234 988.948C258.498 989.476 257.634 989.74 256.642 989.74C255.874 989.74 255.186 989.62 254.578 989.38C253.986 989.14 253.466 988.772 253.018 988.276V994.372H250.834V976.828H252.826L252.922 978.22C253.37 977.676 253.898 977.268 254.506 976.996C255.13 976.724 255.834 976.588 256.618 976.588C258.154 976.588 259.362 977.164 260.242 978.316C261.122 979.452 261.562 981.044 261.562 983.092V983.308ZM259.378 983.044C259.394 981.62 259.09 980.5 258.466 979.684C257.858 978.852 257.026 978.436 255.97 978.436C255.314 978.436 254.738 978.58 254.242 978.868C253.746 979.156 253.338 979.588 253.018 980.164V986.236C253.338 986.812 253.746 987.244 254.242 987.532C254.738 987.82 255.322 987.964 255.994 987.964C257.034 987.964 257.85 987.564 258.442 986.764C259.05 985.948 259.362 984.764 259.378 983.212V983.044ZM272.135 989.5C271.991 989.18 271.887 988.732 271.823 988.156C271.311 988.684 270.751 989.084 270.143 989.356C269.551 989.612 268.903 989.74 268.199 989.74C267.383 989.74 266.647 989.58 265.991 989.26C265.351 988.924 264.847 988.476 264.479 987.916C264.111 987.34 263.927 986.7 263.927 985.996C263.927 984.668 264.423 983.644 265.415 982.924C266.423 982.188 267.839 981.82 269.663 981.82H271.775V980.812C271.775 980.044 271.543 979.444 271.079 979.012C270.631 978.564 269.975 978.34 269.111 978.34C268.599 978.34 268.135 978.428 267.719 978.604C267.303 978.78 266.975 979.02 266.735 979.324C266.495 979.628 266.375 979.964 266.375 980.332H264.191C264.191 979.708 264.407 979.108 264.839 978.532C265.287 977.956 265.895 977.492 266.663 977.14C267.431 976.772 268.287 976.588 269.231 976.588C270.687 976.588 271.831 976.956 272.663 977.692C273.495 978.412 273.927 979.412 273.959 980.692V986.524C273.959 987.676 274.103 988.604 274.391 989.308V989.5H272.135ZM268.535 987.844C269.207 987.844 269.847 987.668 270.455 987.316C271.063 986.964 271.503 986.508 271.775 985.948V983.356H270.095C268.767 983.356 267.767 983.548 267.095 983.932C266.439 984.316 266.111 984.9 266.111 985.684C266.111 986.356 266.327 986.884 266.759 987.268C267.207 987.652 267.799 987.844 268.535 987.844ZM280.294 973.756V976.828H282.67V978.508H280.294V986.356C280.294 986.884 280.398 987.276 280.606 987.532C280.83 987.772 281.19 987.892 281.686 987.892C281.942 987.892 282.286 987.844 282.718 987.748V989.5C282.174 989.66 281.622 989.74 281.062 989.74C280.102 989.74 279.374 989.452 278.878 988.876C278.382 988.3 278.134 987.46 278.134 986.356V978.508H275.806V976.828H278.134V973.756H280.294ZM288.146 973.756V976.828H290.522V978.508H288.146V986.356C288.146 986.884 288.25 987.276 288.458 987.532C288.682 987.772 289.042 987.892 289.538 987.892C289.794 987.892 290.138 987.844 290.57 987.748V989.5C290.026 989.66 289.474 989.74 288.914 989.74C287.954 989.74 287.226 989.452 286.73 988.876C286.234 988.3 285.986 987.46 285.986 986.356V978.508H283.658V976.828H285.986V973.756H288.146ZM298.325 989.74C297.173 989.74 296.157 989.484 295.277 988.972C294.397 988.46 293.709 987.732 293.213 986.788C292.733 985.844 292.493 984.748 292.493 983.5V983.116C292.493 981.948 292.717 980.868 293.165 979.876C293.613 978.884 294.253 978.092 295.085 977.5C295.933 976.892 296.917 976.588 298.037 976.588C299.125 976.588 300.061 976.836 300.845 977.332C301.629 977.812 302.229 978.524 302.645 979.468C303.061 980.412 303.269 981.548 303.269 982.876V983.788H294.677V983.86C294.693 984.66 294.861 985.372 295.181 985.996C295.517 986.62 295.965 987.108 296.525 987.46C297.085 987.796 297.717 987.964 298.421 987.964C299.157 987.964 299.797 987.82 300.341 987.532C300.885 987.228 301.365 986.804 301.781 986.26L303.101 987.292C302.557 988.108 301.885 988.724 301.085 989.14C300.301 989.54 299.381 989.74 298.325 989.74ZM298.037 978.364C297.461 978.364 296.941 978.508 296.477 978.796C296.013 979.084 295.629 979.5 295.325 980.044C295.021 980.588 294.829 981.236 294.749 981.988H301.085V981.844C301.053 981.108 300.909 980.484 300.653 979.972C300.397 979.444 300.045 979.044 299.597 978.772C299.165 978.5 298.645 978.364 298.037 978.364ZM311.916 978.772C311.66 978.708 311.3 978.676 310.836 978.676C310.132 978.676 309.54 978.828 309.06 979.132C308.58 979.436 308.212 979.892 307.956 980.5V989.5H305.772V976.828H307.884L307.932 978.292C308.284 977.732 308.708 977.308 309.204 977.02C309.716 976.732 310.3 976.588 310.956 976.588C311.388 976.588 311.708 976.644 311.916 976.756V978.772ZM315.945 976.828L316.017 978.412C316.497 977.804 317.049 977.348 317.673 977.044C318.313 976.74 319.025 976.588 319.809 976.588C321.137 976.588 322.137 976.972 322.809 977.74C323.497 978.492 323.849 979.62 323.865 981.124V989.5H321.705V981.1C321.689 980.188 321.473 979.516 321.057 979.084C320.657 978.652 320.025 978.436 319.161 978.436C318.457 978.436 317.833 978.62 317.289 978.988C316.761 979.34 316.353 979.836 316.065 980.476V989.5H313.881V976.828H315.945Z" fill="white"/>
<path d="M126.608 119.824L123.952 122.64V130H120.464V107.248H123.952V118.256L126.16 115.632L133.392 107.248H137.648L128.976 117.296L138.224 130H134.032L126.608 119.824ZM147.062 130.32C145.483 130.32 144.086 129.979 142.87 129.296C141.675 128.613 140.747 127.643 140.086 126.384C139.425 125.125 139.094 123.664 139.094 122V121.488C139.094 119.888 139.393 118.437 139.99 117.136C140.609 115.813 141.483 114.757 142.614 113.968C143.766 113.179 145.11 112.784 146.646 112.784C148.118 112.784 149.387 113.115 150.454 113.776C151.521 114.416 152.331 115.365 152.886 116.624C153.462 117.883 153.75 119.397 153.75 121.168V122.544H142.486V122.64C142.529 123.621 142.753 124.485 143.158 125.232C143.585 125.979 144.15 126.565 144.854 126.992C145.558 127.397 146.347 127.6 147.222 127.6C148.182 127.6 149.014 127.419 149.718 127.056C150.422 126.672 151.051 126.139 151.606 125.456L153.494 127.12C152.769 128.165 151.862 128.965 150.774 129.52C149.707 130.053 148.47 130.32 147.062 130.32ZM146.614 115.504C145.91 115.504 145.27 115.685 144.694 116.048C144.118 116.389 143.638 116.901 143.254 117.584C142.891 118.245 142.667 119.045 142.582 119.984H150.39V119.728C150.347 118.832 150.166 118.075 149.846 117.456C149.547 116.816 149.121 116.336 148.566 116.016C148.033 115.675 147.382 115.504 146.614 115.504ZM162.433 125.136L162.689 124.368L166.145 113.104H169.761L162.945 132.656L162.657 133.36C162.166 134.533 161.516 135.397 160.705 135.952C159.894 136.528 158.945 136.816 157.857 136.816C157.281 136.773 156.694 136.699 156.097 136.592V133.936C156.353 133.957 156.609 133.968 156.865 133.968C157.782 134.053 158.497 133.893 159.009 133.488C159.542 133.104 159.969 132.432 160.289 131.472L160.897 129.872L154.881 113.104H158.529L162.433 125.136ZM175.279 113.104L175.375 115.184C176.015 114.395 176.751 113.797 177.583 113.392C178.415 112.987 179.353 112.784 180.399 112.784C182.169 112.784 183.503 113.296 184.399 114.32C185.295 115.344 185.753 116.869 185.775 118.896V130H182.415V118.896C182.393 117.744 182.127 116.901 181.615 116.368C181.124 115.835 180.324 115.568 179.215 115.568C178.361 115.568 177.604 115.781 176.943 116.208C176.303 116.635 175.812 117.232 175.471 118V130H172.079V113.104H175.279ZM189.093 121.392C189.093 119.792 189.402 118.341 190.021 117.04C190.639 115.717 191.535 114.683 192.709 113.936C193.903 113.168 195.29 112.784 196.869 112.784C198.426 112.784 199.791 113.147 200.965 113.872C202.159 114.597 203.077 115.621 203.717 116.944C204.357 118.245 204.677 119.771 204.677 121.52V121.744C204.677 123.451 204.346 124.955 203.685 126.256C203.023 127.536 202.106 128.539 200.933 129.264C199.759 129.968 198.415 130.32 196.901 130.32C195.365 130.32 194.01 129.968 192.837 129.264C191.685 128.539 190.778 127.536 190.117 126.256C189.455 124.955 189.114 123.44 189.093 121.712V121.392ZM192.485 121.744C192.485 122.939 192.666 123.984 193.029 124.88C193.391 125.755 193.903 126.427 194.565 126.896C195.226 127.365 196.005 127.6 196.901 127.6C197.797 127.6 198.575 127.376 199.237 126.928C199.898 126.459 200.41 125.787 200.773 124.912C201.135 124.016 201.317 122.949 201.317 121.712V121.392C201.317 120.197 201.135 119.163 200.773 118.288C200.431 117.392 199.919 116.709 199.237 116.24C198.554 115.749 197.765 115.504 196.869 115.504C196.015 115.504 195.258 115.728 194.597 116.176C193.957 116.624 193.445 117.296 193.061 118.192C192.698 119.067 192.506 120.112 192.485 121.328V121.744Z" fill="white"/>
</g>
<defs>
<linearGradient id="paint0_linear_522_745" x1="960" y1="261" x2="960" y2="1070" gradientUnits="userSpaceOnUse">
<stop stop-color="#C9B777"/>
<stop offset="0.981157" stop-color="#232222"/>
</linearGradient>
<clipPath id="clip0_522_745">
<rect width="1920" height="1080" fill="white"/>
</clipPath>
<clipPath id="clip1_522_745">
<rect width="1947" height="1095" fill="white"/>
</clipPath>
</defs>
</svg>
