<svg width="1920" height="1080" viewBox="0 0 1920 1080" fill="none" xmlns="http://www.w3.org/2000/svg">
<g clip-path="url(#clip0_33_26)">
<rect width="1920" height="1080" fill="#232222"/>
<path d="M-0.259998 737.9L17.86 763.88L33.67 784.77L56.82 789.85L77.15 785.9L103.69 755.41L117.81 779.69L139.27 782.51L154.52 775.17L184.44 793.81L196.87 784.77L226.8 796.63L250.52 787.59L273.67 798.32L290.61 781.38L307.28 764.2L324.49 756.54L334.66 744.68L354.99 731.12L389.12 702.96L395.08 688.21L409.76 676.35L414.84 656.02L435.11 638.19L456.35 622.42L486.04 593.39L498.14 574.98L516.16 563.06L538.72 539.22L576.07 527.55L593.5 511.08L616.44 500.16L626.89 478.14L640.16 465.71L653.71 444.25L671.78 429.57L680.26 408.11L695.78 390.04L720.63 368.58L731.08 362.09L740.68 344.3L757.34 327.93L787.83 328.77L799.41 316.07L815.5 304.49L823.69 296.02L845.39 287.56L895.97 237.57L923.64 210.47L952.44 191.27L961.2 192.96L963.74 182.52L988.79 162.11L996.89 160.76L1003.86 164.49L1020.73 143.24L1039.78 138L1122.42 183.93L1158.37 220.25L1202.23 244.16L1226.14 262.8L1230.09 283.88L1240.25 307.41L1256.44 328.3L1266.42 342.61L1284.68 356.54L1334.94 384.4L1353.76 394.56L1401.57 409.62L1421.71 419.41L1453.71 435.6L1476.87 438.98L1494.18 437.1L1503.41 450.28L1515.45 457.24L1522.98 462.89L1533.52 477.95L1541.05 473.05L1542.18 487.36L1587.74 510.32L1589.99 516.91L1614.47 525.95L1623.12 537.81L1644.96 558.14L1673.57 583.92L1707.64 611.6L1749.24 653.76L1763.36 617.05L1775.41 615.55L1779.55 637.76L1828.11 577.9L1851.08 561.71L1863.12 542.89L1874.79 532.35L1903.41 491.31L1919.74 474.37M-1.8 748.81L16.5 773.95L32.44 794.17L55.42 799.08L75.6 795.26L102.27 765.75L116.61 789.25L137.9 791.98L153.07 784.88L182.89 802.91L195.28 794.17L225.03 805.64L248.6 796.9L271.62 807.28L288.6 790.89L305.32 774.26L322.43 766.84L332.64 755.37L352.91 742.25L387.02 714.99L393.17 700.72L407.84 689.24L413.27 669.57L433.53 652.32L454.73 637.05L484.47 608.95L496.72 591.15L514.68 579.61L537.32 556.54L574.41 545.24L591.86 529.3L614.68 518.74L625.38 497.42L638.67 485.4L652.4 464.63L670.45 450.43L679.21 429.66L694.82 412.17L719.66 391.4L730.07 385.12L739.85 367.91L756.54 352.06L786.79 352.88L798.41 340.58L814.47 329.38L822.68 321.18L844.24 312.99L894.93 264.62L922.65 238.39L951.36 219.81L960.05 221.45L962.77 211.34L987.8 191.6L995.83 190.28L1002.77 193.89L1019.76 173.33L1038.68 168.25L1120.95 212.7L1156.99 247.86L1200.65 270.99L1224.52 289.03L1228.87 309.43L1239.33 332.2L1255.64 352.42L1265.72 366.27L1283.94 379.75L1333.98 406.71L1352.72 416.54L1400.21 431.12L1420.25 440.59L1452.09 456.25L1475.06 459.53L1492.25 457.71L1501.56 470.46L1513.56 477.2L1521.07 482.67L1531.72 497.24L1539.23 492.5L1540.67 506.35L1586 528.57L1588.35 534.95L1612.67 543.69L1621.41 555.17L1643.26 574.84L1671.89 599.8L1705.93 626.58L1747.64 667.38L1762.26 631.86L1774.22 630.4L1778.77 651.9L1827.66 593.97L1850.57 578.3L1862.77 560.09L1874.45 549.89L1903.36 510.17L1919.74 493.78M-3.34 759.71L15.15 784.02L31.21 803.56L54.02 808.32L74.04 804.62L100.84 776.09L115.41 798.81L136.53 801.45L151.62 794.58L181.33 812.01L193.7 803.56L223.26 814.66L246.68 806.2L269.58 816.24L286.59 800.39L303.35 784.32L320.36 777.15L330.63 766.05L350.83 753.38L384.92 727.03L391.27 713.23L405.92 702.13L411.69 683.12L431.96 666.44L453.12 651.68L482.91 624.52L495.3 607.31L513.2 596.15L535.91 573.85L572.75 562.93L590.22 547.53L612.92 537.31L623.88 516.71L637.17 505.09L651.09 485.01L669.12 471.28L678.17 451.2L693.85 434.3L718.69 414.22L729.06 408.15L739.02 391.51L755.74 376.19L785.75 376.98L797.42 365.1L813.44 354.27L821.67 346.34L843.1 338.42L893.88 291.67L921.65 266.31L950.28 248.35L958.9 249.93L961.8 240.16L986.8 221.08L994.78 219.8L1001.68 223.3L1018.78 203.42L1037.57 198.51L1119.48 241.48L1155.6 275.47L1199.06 297.83L1222.9 315.26L1227.64 334.98L1238.4 357L1254.83 376.54L1265.01 389.92L1283.21 402.95L1333.03 429.02L1351.68 438.53L1398.85 452.61L1418.78 461.77L1450.46 476.91L1473.26 480.08L1490.31 478.32L1499.72 490.65L1511.67 497.16L1519.17 502.45L1529.92 516.53L1537.4 511.96L1539.16 525.34L1584.26 546.82L1586.71 552.98L1610.87 561.44L1619.69 572.53L1641.57 591.55L1670.21 615.67L1704.23 641.56L1746.04 681L1761.17 646.66L1773.03 645.26L1778 666.03L1827.2 610.04L1850.06 594.89L1862.42 577.28L1874.1 567.42L1903.31 529.04L1919.74 513.19M-4.88 770.62L13.79 794.08L29.98 812.96L52.62 817.55L72.49 813.98L99.41 786.43L114.21 808.37L135.17 810.92L150.17 804.29L179.77 821.12L192.11 812.96L221.49 823.67L244.76 815.51L267.53 825.2L284.58 809.9L301.39 794.38L318.3 787.45L328.62 776.74L348.76 764.5L382.82 739.06L389.36 725.74L404 715.03L410.11 696.66L430.38 680.56L451.5 666.32L481.34 640.09L493.88 623.47L511.73 612.7L534.51 591.17L571.09 580.63L588.58 565.75L611.16 555.89L622.37 536L635.68 524.77L649.77 505.39L667.79 492.13L677.12 472.75L692.89 456.43L717.72 437.05L728.05 431.18L738.2 415.11L754.95 400.32L784.71 401.09L796.42 389.61L812.4 379.15L820.66 371.5L841.95 363.86L892.83 318.71L920.65 294.23L949.19 276.89L957.75 278.42L960.83 268.98L985.81 250.56L993.72 249.33L1000.59 252.7L1017.81 233.51L1036.46 228.77L1118.01 270.26L1154.22 303.07L1197.48 324.66L1221.28 341.49L1226.42 360.54L1237.47 381.79L1254.02 400.66L1264.31 413.58L1282.48 426.16L1332.07 451.33L1350.64 460.51L1397.49 474.11L1417.31 482.95L1448.84 497.57L1471.46 500.63L1488.37 498.93L1497.88 510.83L1509.77 517.12L1517.26 522.22L1528.12 535.83L1535.58 531.41L1537.64 544.33L1582.52 565.07L1585.07 571.02L1609.07 579.18L1617.97 589.89L1639.87 608.25L1668.53 631.55L1702.52 656.54L1744.44 694.62L1760.07 661.47L1771.84 660.11L1777.23 680.17L1826.74 626.11L1849.55 611.48L1862.06 594.48L1873.76 584.96L1903.27 547.9L1919.74 532.6M-6.42 781.53L12.44 804.15L28.75 822.35L51.22 826.78L70.94 823.33L97.98 796.78L113.01 817.92L133.8 820.38L148.72 813.99L178.22 830.22L190.53 822.35L219.72 832.68L242.85 824.81L265.49 834.16L282.57 819.4L299.42 804.43L316.24 797.76L326.6 787.43L346.68 775.63L380.72 751.1L387.45 738.25L402.07 727.92L408.54 710.21L428.81 694.69L449.88 680.95L479.78 655.66L492.46 639.63L510.25 629.25L533.1 608.48L569.43 598.32L586.94 583.98L609.39 574.46L620.86 555.28L634.18 544.46L648.46 525.77L666.46 512.98L676.08 494.29L691.92 478.56L716.75 459.87L727.04 454.21L737.37 438.72L754.15 424.45L783.67 425.19L795.43 414.12L811.37 404.04L819.64 396.66L840.81 389.29L891.79 345.76L919.66 322.15L948.11 305.43L956.6 306.9L959.86 297.81L984.82 280.04L992.67 278.85L999.5 282.1L1016.84 263.6L1035.35 259.03L1116.54 299.03L1152.83 330.68L1195.9 351.5L1219.67 367.73L1225.2 386.09L1236.54 406.58L1253.22 424.78L1263.6 437.24L1281.74 449.37L1331.12 473.64L1349.6 482.49L1396.13 495.61L1415.85 504.13L1447.21 518.23L1469.66 521.18L1486.43 519.54L1496.03 531.02L1507.88 537.08L1515.35 542L1526.32 555.12L1533.75 550.86L1536.13 563.32L1580.78 583.32L1583.42 589.06L1607.28 596.92L1616.25 607.25L1638.18 624.96L1666.85 647.42L1700.81 671.52L1742.84 708.24L1758.97 676.27L1770.65 674.96L1776.46 694.31L1826.29 642.17L1849.04 628.07L1861.71 611.68L1873.41 602.5L1903.22 566.76L1919.74 552M-7.96 792.44L11.08 814.22L27.52 831.75L49.82 836.01L69.38 832.69L96.56 807.12L111.81 827.48L132.43 829.85L147.27 823.69L176.66 839.32L188.94 831.75L217.96 841.69L240.93 834.11L263.45 843.11L280.56 828.9L297.45 814.49L314.17 808.06L324.59 798.12L344.61 786.75L378.62 763.13L385.55 750.76L400.15 740.81L406.96 723.76L427.23 708.81L448.27 695.58L478.21 671.23L491.04 655.8L508.77 645.79L531.69 625.8L567.77 616.01L585.3 602.2L607.63 593.04L619.35 574.57L632.69 564.15L647.14 546.15L665.13 533.84L675.03 515.84L690.95 500.68L715.78 482.69L726.04 477.24L736.54 462.32L753.35 448.58L782.63 449.3L794.43 438.64L810.34 428.93L818.63 421.83L839.66 414.73L890.74 372.81L918.66 350.07L947.03 333.97L955.45 335.39L958.89 326.63L983.83 309.52L991.61 308.38L998.42 311.51L1015.86 293.69L1034.25 289.29L1115.07 327.81L1151.45 358.28L1194.31 378.33L1218.05 393.96L1223.97 411.64L1235.62 431.38L1252.41 448.9L1262.9 460.9L1281.01 472.58L1330.16 495.95L1348.55 504.47L1394.76 517.1L1414.38 525.31L1445.59 538.89L1467.86 541.73L1484.5 540.15L1494.19 551.2L1505.98 557.04L1513.44 561.78L1524.52 574.41L1531.92 570.31L1534.62 582.3L1579.04 601.57L1581.78 607.09L1605.48 614.67L1614.53 624.61L1636.48 641.67L1665.18 663.29L1699.11 686.5L1741.24 721.87L1757.87 691.08L1769.46 689.82L1775.68 708.45L1825.83 658.24L1848.53 644.66L1861.36 628.88L1873.07 620.04L1903.17 585.62L1919.74 571.41M-9.5 803.34L9.73 824.29L26.3 841.14L48.42 845.24L67.83 842.05L95.13 817.46L110.61 837.04L131.07 839.32L145.83 833.4L175.1 848.43L187.36 841.14L216.19 850.7L239.01 843.42L261.4 852.07L278.55 838.41L295.49 824.55L312.11 818.37L322.58 808.81L342.53 797.88L376.52 775.16L383.64 763.27L398.23 753.7L405.38 737.31L425.66 722.93L446.65 710.21L476.65 686.8L489.62 671.96L507.3 662.34L530.29 643.12L566.11 633.7L583.66 620.42L605.87 611.62L617.85 593.86L631.2 583.84L645.83 566.53L663.79 554.69L673.99 537.38L689.99 522.81L714.81 505.51L725.03 500.27L735.71 485.92L752.55 472.72L781.59 473.4L793.43 463.15L809.3 453.82L817.62 446.99L838.52 440.16L889.7 399.85L917.67 377.99L945.95 362.51L954.3 363.87L957.91 355.45L982.83 339L990.56 337.9L997.33 340.91L1014.89 323.77L1033.14 319.55L1113.6 356.59L1150.06 385.89L1192.73 405.16L1216.43 420.19L1222.75 437.2L1234.69 456.17L1251.61 473.02L1262.2 484.56L1280.27 495.79L1329.21 518.26L1347.51 526.45L1393.4 538.6L1412.91 546.49L1443.96 559.55L1466.05 562.28L1482.56 560.76L1492.35 571.39L1504.09 577L1511.53 581.56L1522.72 593.7L1530.1 589.76L1533.1 601.29L1577.3 619.81L1580.14 625.13L1603.68 632.41L1612.81 641.98L1634.78 658.37L1663.5 679.17L1697.4 701.48L1739.63 735.49L1756.78 705.89L1768.27 704.67L1774.91 722.58L1825.38 674.31L1848.01 661.26L1861.01 646.08L1872.72 637.57L1903.13 604.48L1919.74 590.82M-11.04 814.25L8.37 834.36L25.07 850.54L47.02 854.47L66.28 851.41L93.7 827.8L109.41 846.6L129.7 848.79L144.38 843.1L173.54 857.53L185.77 850.54L214.42 859.72L237.09 852.72L259.36 861.03L276.54 847.91L293.52 834.61L310.04 828.68L320.57 819.5L340.46 809L374.42 787.2L381.73 775.78L396.31 766.6L403.81 750.86L424.09 737.06L445.03 724.84L475.08 702.37L488.2 688.12L505.82 678.89L528.88 660.43L564.45 651.4L582.02 638.65L604.1 630.19L616.34 613.14L629.7 603.52L644.51 586.91L662.46 575.54L672.94 558.93L689.02 544.94L713.84 528.33L724.02 523.3L734.89 509.53L751.76 496.85L780.56 497.5L792.44 487.67L808.27 478.71L816.61 472.15L837.37 465.6L888.65 426.9L916.67 405.91L944.86 391.05L953.15 392.36L956.94 384.27L981.84 368.48L989.5 367.43L996.24 370.32L1013.92 353.86L1032.03 349.81L1112.13 385.37L1148.67 413.49L1191.14 432L1214.81 446.43L1221.53 462.75L1233.76 480.96L1250.8 497.14L1261.49 508.22L1279.54 519L1328.25 540.57L1346.47 548.44L1392.04 560.1L1411.45 567.67L1442.34 580.21L1464.25 582.83L1480.62 581.37L1490.5 591.57L1502.2 596.97L1509.62 601.34L1520.92 613L1528.27 609.21L1531.59 620.28L1575.56 638.06L1578.49 643.16L1601.89 650.16L1611.09 659.34L1633.09 675.08L1661.82 695.04L1695.69 716.46L1738.03 749.11L1755.68 720.69L1767.08 719.52L1774.14 736.72L1824.92 690.38L1847.5 677.85L1860.65 663.27L1872.38 655.11L1903.08 623.34L1919.74 610.23M-12.58 825.16L7.02 844.43L23.84 859.93L45.62 863.7L64.72 860.77L92.28 838.14L108.21 856.16L128.33 858.26L142.93 852.81L171.99 866.63L184.19 859.93L212.65 868.73L235.18 862.03L257.31 869.99L274.53 857.42L291.56 844.67L307.98 838.98L318.55 830.18L338.38 820.13L372.32 799.23L379.83 788.29L394.39 779.49L402.23 764.4L422.51 751.18L443.42 739.48L473.52 717.93L486.78 704.28L504.34 695.44L527.47 677.75L562.79 669.09L580.38 656.87L602.34 648.77L614.83 632.43L628.21 623.21L643.2 607.29L661.13 596.4L671.9 580.47L688.06 567.07L712.87 551.15L723.01 546.33L734.06 533.13L750.96 520.98L779.52 521.61L791.44 512.18L807.24 503.59L815.6 497.31L836.23 491.03L887.61 453.94L915.67 433.83L943.78 419.59L952 420.85L955.97 413.1L980.85 397.96L988.45 396.95L995.15 399.72L1012.94 383.95L1030.92 380.07L1110.66 414.14L1147.29 441.1L1189.56 458.83L1213.2 472.66L1220.3 488.3L1232.83 505.76L1249.99 521.26L1260.79 531.87L1278.81 542.21L1327.3 562.88L1345.43 570.42L1390.68 581.59L1409.98 588.85L1440.72 600.87L1462.45 603.38L1478.68 601.98L1488.66 611.76L1500.3 616.93L1507.72 621.12L1519.12 632.29L1526.45 628.66L1530.07 639.27L1573.83 656.31L1576.85 661.2L1600.09 667.9L1609.37 676.7L1631.39 691.78L1660.14 710.92L1693.98 731.45L1736.43 762.73L1754.58 735.5L1765.89 734.38L1773.36 750.86L1824.46 706.45L1846.99 694.44L1860.3 680.47L1872.03 672.65L1903.04 642.2L1919.74 629.63M-14.12 836.06L5.66 854.5L22.61 869.33L44.22 872.93L63.17 870.13L90.85 848.49L107.01 865.72L126.97 867.72L141.48 862.51L170.43 875.74L182.6 869.33L210.88 877.74L233.26 871.33L255.27 878.94L272.53 866.92L289.59 854.73L305.92 849.29L316.54 840.87L336.31 831.25L370.22 811.27L377.92 800.8L392.47 792.38L400.65 777.95L420.94 765.3L441.8 754.11L471.95 733.5L485.36 720.44L502.87 711.98L526.07 695.06L561.13 686.78L578.74 675.09L600.58 667.34L613.32 651.71L626.71 642.9L641.88 627.67L659.8 617.25L670.86 602.02L687.09 589.2L711.9 573.97L722 569.36L733.23 556.73L750.16 545.11L778.48 545.71L790.45 536.7L806.2 528.48L814.59 522.47L835.08 516.46L886.56 480.99L914.68 461.75L942.7 448.13L950.85 449.33L955 441.92L979.86 427.44L987.39 426.48L994.06 429.12L1011.97 414.04L1029.82 410.32L1109.19 442.92L1145.9 468.7L1187.98 485.67L1211.58 498.89L1219.08 513.85L1231.91 530.55L1249.19 545.38L1260.09 555.53L1278.07 565.42L1326.35 585.19L1344.39 592.4L1389.32 603.09L1408.52 610.04L1439.09 621.52L1460.65 623.93L1476.75 622.59L1486.82 631.94L1498.41 636.89L1505.81 640.89L1517.32 651.58L1524.62 648.11L1528.56 658.26L1572.09 674.56L1575.21 679.23L1598.29 685.65L1607.65 694.06L1629.7 708.49L1658.46 726.79L1692.28 746.43L1734.83 776.35L1753.49 750.3L1764.7 749.23L1772.59 765L1824.01 722.51L1846.48 711.03L1859.95 697.67L1871.69 690.19L1902.99 661.07L1919.74 649.04M-15.66 846.97L4.31 864.57L21.38 878.72L42.82 882.16L61.62 879.49L89.42 858.83L105.81 875.28L125.6 877.19L140.03 872.22L168.87 884.84L181.02 878.72L209.11 886.75L231.34 880.63L253.22 887.9L270.52 876.43L287.62 864.78L303.85 859.59L314.53 851.56L334.23 842.38L368.12 823.3L376.02 813.31L390.54 805.27L399.08 791.5L419.36 779.43L440.18 768.74L470.39 749.07L483.93 736.61L501.39 728.53L524.66 712.38L559.47 704.47L577.1 693.32L598.82 685.92L611.82 671L625.22 662.58L640.57 648.05L658.47 638.1L669.81 623.57L686.12 611.32L710.93 596.79L720.99 592.39L732.4 580.34L749.36 569.24L777.44 569.82L789.45 561.21L805.17 553.37L813.58 547.63L833.94 541.9L885.51 508.04L913.68 489.68L941.62 476.67L949.7 477.82L954.03 470.74L978.86 456.92L986.34 456L992.97 458.53L1011 444.13L1028.71 440.58L1107.72 471.7L1144.52 496.31L1186.39 512.5L1209.96 525.12L1217.86 539.41L1230.98 555.35L1248.38 569.5L1259.38 579.19L1277.34 588.63L1325.39 607.5L1343.35 614.38L1387.96 624.59L1407.05 631.22L1437.47 642.18L1458.84 644.48L1474.81 643.2L1484.97 652.13L1496.52 656.85L1503.9 660.67L1515.52 670.87L1522.8 667.56L1527.05 677.25L1570.35 692.81L1573.56 697.27L1596.5 703.39L1605.93 711.42L1628 725.19L1656.78 742.66L1690.57 761.41L1733.23 789.97L1752.39 765.11L1763.51 764.09L1771.82 779.13L1823.55 738.58L1845.97 727.62L1859.59 714.87L1871.35 707.72L1902.94 679.93L1919.74 668.45M-17.2 857.88L2.95 874.64L20.15 888.12L41.42 891.39L60.06 888.84L88 869.17L104.61 884.84L124.23 886.66L138.58 881.92L167.32 893.94L179.43 888.12L207.35 895.77L229.43 889.94L251.18 896.86L268.51 885.93L285.66 874.84L301.79 869.9L312.51 862.25L332.16 853.5L366.02 835.33L374.11 825.82L388.62 818.17L397.5 805.05L417.79 793.55L438.57 783.37L468.82 764.64L482.51 752.77L499.91 745.08L523.25 729.7L557.81 722.17L575.46 711.54L597.05 704.5L610.31 690.29L623.72 682.27L639.26 668.43L657.14 658.95L668.77 645.11L685.16 633.45L709.97 619.61L719.98 615.42L731.58 603.94L748.57 593.38L776.4 593.92L788.46 585.73L804.14 578.26L812.56 572.79L832.79 567.33L884.47 535.08L912.69 517.6L940.53 505.21L948.55 506.3L953.06 499.56L977.87 486.4L985.28 485.52L991.88 487.93L1010.02 474.22L1027.6 470.84L1106.25 500.47L1143.13 523.91L1184.81 539.33L1208.34 551.36L1216.63 564.96L1230.05 580.14L1247.57 593.62L1258.68 602.85L1276.6 611.84L1324.44 629.81L1342.31 636.37L1386.59 646.08L1405.58 652.4L1435.84 662.84L1457.04 665.03L1472.87 663.81L1483.13 672.31L1494.62 676.81L1501.99 680.45L1513.72 690.17L1520.97 687.01L1525.53 696.24L1568.61 711.05L1571.92 715.3L1594.7 721.13L1604.22 728.78L1626.3 741.9L1655.1 758.54L1688.86 776.39L1731.63 803.59L1751.29 779.91L1762.32 778.94L1771.04 793.27L1823.1 754.65L1845.46 744.21L1859.24 732.06L1871 725.26L1902.9 698.79L1919.74 687.86M-18.74 868.78L1.6 884.7L18.92 897.51L40.02 900.63L58.51 898.2L86.57 879.51L103.41 894.4L122.87 896.13L137.14 891.63L165.76 903.05L177.84 897.51L205.58 904.78L227.51 899.24L249.14 905.82L266.5 895.43L283.69 884.9L299.72 880.21L310.5 872.94L330.08 864.63L363.92 847.37L372.2 838.33L386.7 831.06L395.92 818.6L416.21 807.67L436.95 798L467.26 780.21L481.09 768.93L498.44 761.62L521.85 747.01L556.15 739.86L573.82 729.77L595.29 723.07L608.8 709.57L622.23 701.96L637.94 688.81L655.8 679.81L667.72 666.66L684.19 655.58L709 642.43L718.98 638.45L730.75 627.55L747.77 617.51L775.36 618.03L787.46 610.24L803.1 603.14L811.55 597.95L831.65 592.77L883.42 562.13L911.69 545.52L939.45 533.75L947.4 534.79L952.09 528.39L976.88 515.88L984.23 515.05L990.8 517.34L1009.05 504.31L1026.49 501.1L1104.78 529.25L1141.75 551.52L1183.22 566.17L1206.73 577.59L1215.41 590.51L1229.12 604.93L1246.77 617.74L1257.97 626.51L1275.87 635.04L1323.48 652.12L1341.27 658.35L1385.23 667.58L1404.12 673.58L1434.22 683.5L1455.24 685.58L1470.94 684.42L1481.29 692.5L1492.73 696.77L1500.08 700.23L1511.91 709.46L1519.14 706.46L1524.02 715.23L1566.87 729.3L1570.28 733.34L1592.9 738.88L1602.5 746.15L1624.61 758.61L1653.42 774.41L1687.16 791.37L1730.03 817.21L1750.19 794.72L1761.13 793.79L1770.27 807.41L1822.64 770.72L1844.95 760.8L1858.89 749.26L1870.66 742.8L1902.85 717.65L1919.74 707.27M-20.28 879.69L0.240002 894.77L17.69 906.91L38.62 909.86L56.96 907.56L85.14 889.86L102.21 903.95L121.5 905.59L135.69 901.33L164.2 912.15L176.26 906.91L203.81 913.79L225.59 908.55L247.09 914.78L264.49 904.94L281.73 894.96L297.66 890.51L308.49 883.63L328.01 875.76L361.82 859.4L370.3 850.84L384.78 843.95L394.35 832.15L414.64 821.8L435.33 812.64L465.69 795.78L479.67 785.09L496.96 778.17L520.44 764.33L554.49 757.55L572.18 747.99L593.53 741.65L607.29 728.86L620.74 721.65L636.63 709.19L654.47 700.66L666.68 688.2L683.22 677.71L708.03 665.25L717.97 661.48L729.92 651.15L746.97 641.64L774.32 642.13L786.47 634.75L802.07 628.03L810.54 623.11L830.5 618.2L882.38 589.18L910.69 573.44L938.37 562.29L946.25 563.27L951.12 557.21L975.88 545.36L983.17 544.57L989.71 546.74L1008.08 534.4L1025.39 531.36L1103.31 558.03L1140.36 579.12L1181.64 593L1205.11 603.82L1214.18 616.06L1228.2 629.73L1245.96 641.86L1257.27 650.17L1275.14 658.25L1322.53 674.43L1340.23 680.33L1383.87 689.08L1402.65 694.76L1432.59 704.16L1453.44 706.13L1469 705.03L1479.44 712.68L1490.83 716.73L1498.17 720.01L1510.11 728.75L1517.32 725.91L1522.51 734.22L1565.13 747.55L1568.63 751.38L1591.11 756.62L1600.78 763.51L1622.91 775.31L1651.74 790.29L1685.45 806.35L1728.43 830.83L1749.1 809.52L1759.94 808.65L1769.5 821.54L1822.18 786.79L1844.44 777.39L1858.54 766.46L1870.31 760.34L1902.81 736.51L1919.74 726.67M-21.82 890.6L-1.11 904.84L16.47 916.3L37.22 919.09L55.41 916.92L83.72 900.2L101.01 913.51L120.13 915.06L134.24 911.04L162.64 921.26L174.67 916.3L202.04 922.8L223.67 917.85L245.05 923.73L262.48 914.44L279.76 905.02L295.6 900.82L306.48 894.31L325.93 886.88L359.72 871.44L368.39 863.35L382.86 856.84L392.77 845.69L413.06 835.92L433.72 827.27L464.13 811.35L478.25 801.26L495.48 794.72L519.03 781.64L552.83 775.24L570.54 766.21L591.77 760.22L605.79 748.15L619.24 741.33L635.31 729.57L653.14 721.51L665.63 709.75L682.26 699.84L707.06 688.07L716.96 684.51L729.09 674.75L746.18 665.77L773.28 666.24L785.47 659.27L801.04 652.92L809.53 648.28L829.35 643.63L881.33 616.22L909.7 601.36L937.28 590.83L945.1 591.76L950.15 586.03L974.89 574.84L982.12 574.1L988.62 576.14L1007.1 564.49L1024.28 561.62L1101.84 586.8L1138.98 606.73L1180.06 619.84L1203.49 630.06L1212.96 641.62L1227.27 654.52L1245.16 665.98L1256.57 673.82L1274.4 681.46L1321.57 696.74L1339.19 702.31L1382.51 710.57L1401.18 715.94L1430.97 724.82L1451.64 726.68L1467.06 725.64L1477.6 732.87L1488.94 736.69L1496.27 739.78L1508.31 748.04L1515.49 745.36L1520.99 753.2L1563.39 765.8L1566.99 769.41L1589.31 774.37L1599.06 780.87L1621.22 792.02L1650.06 806.16L1683.74 821.33L1726.83 844.46L1748 824.33L1758.75 823.5L1768.73 835.68L1821.73 802.86L1843.93 793.98L1858.18 783.66L1869.97 777.88L1902.76 755.37L1919.74 746.08M-23.36 901.5L-2.47 914.91L15.24 925.7L35.82 928.32L53.85 926.28L82.29 910.54L99.81 923.07L118.76 924.53L132.79 920.74L161.09 930.36L173.09 925.7L200.27 931.82L221.76 927.15L243 932.69L260.47 923.95L277.79 915.08L293.53 911.12L304.46 905L323.86 898.01L357.62 883.47L366.48 875.86L380.94 869.74L391.19 859.24L411.49 850.04L432.1 841.9L462.56 826.92L476.83 817.42L494.01 811.26L517.63 798.96L551.17 792.94L568.9 784.44L590 778.8L604.28 767.43L617.75 761.02L634 749.94L651.81 742.37L664.59 731.29L681.29 721.96L706.09 710.89L715.95 707.54L728.27 698.36L745.38 689.9L772.24 690.34L784.47 683.78L800.01 677.81L808.52 673.44L828.21 669.07L880.28 643.27L908.7 629.28L936.2 619.37L943.95 620.24L949.18 614.85L973.9 604.32L981.06 603.62L987.53 605.55L1006.13 594.58L1023.17 591.88L1100.37 615.58L1137.59 634.33L1178.47 646.67L1201.87 656.29L1211.74 667.17L1226.34 679.31L1244.35 690.1L1255.86 697.48L1273.67 704.67L1320.62 719.05L1338.14 724.3L1381.15 732.07L1399.72 737.12L1429.34 745.48L1449.83 747.22L1465.12 746.25L1475.76 753.05L1487.05 756.65L1494.36 759.56L1506.51 767.34L1513.67 764.81L1519.48 772.19L1561.65 784.05L1565.35 787.45L1587.51 792.11L1597.34 798.23L1619.52 808.72L1648.38 822.03L1682.04 836.31L1725.22 858.08L1746.9 839.13L1757.56 838.35L1767.95 849.82L1821.27 818.92L1843.42 810.57L1857.83 800.85L1869.62 795.41L1902.71 774.23L1919.74 765.49M-24.9 912.41L-3.82 924.98L14.01 935.09L34.42 937.55L52.3 935.64L80.86 920.88L98.61 932.63L117.4 934L131.34 930.45L159.53 939.46L171.5 935.09L198.5 940.83L219.84 936.46L240.96 941.65L258.46 933.45L275.83 925.14L291.47 921.43L302.45 915.69L321.78 909.13L355.52 895.5L364.58 888.37L379.01 882.63L389.62 872.79L409.92 864.17L430.48 856.53L461 842.48L475.41 833.58L492.53 827.81L516.22 816.28L549.51 810.63L567.26 802.66L588.24 797.38L602.77 786.72L616.25 780.71L632.68 770.32L650.48 763.22L663.55 752.84L680.33 744.09L705.12 733.71L714.94 730.57L727.44 721.96L744.58 714.04L771.2 714.45L783.48 708.3L798.97 702.7L807.51 698.6L827.06 694.5L879.24 670.32L907.71 657.2L935.12 647.91L942.8 648.73L948.21 643.68L972.91 633.8L980.01 633.15L986.44 634.95L1005.16 624.67L1022.06 622.13L1098.9 644.36L1136.21 661.94L1176.89 673.5L1200.25 682.52L1210.51 692.72L1225.41 704.11L1243.54 714.22L1255.16 721.14L1272.93 727.88L1319.66 741.36L1337.1 746.28L1379.79 753.57L1398.25 758.3L1427.72 766.13L1448.03 767.77L1463.19 766.86L1473.91 773.24L1485.15 776.61L1492.45 779.34L1504.71 786.63L1511.84 784.26L1517.97 791.18L1559.92 802.29L1563.71 805.48L1585.72 809.85L1595.62 815.59L1617.82 825.43L1646.7 837.91L1680.33 851.3L1723.62 871.7L1745.81 853.94L1756.37 853.21L1767.18 863.96L1820.82 834.99L1842.91 827.16L1857.48 818.05L1869.28 812.95L1902.67 793.09L1919.74 784.9M-26.44 923.32L-5.18 935.05L12.78 944.49L33.02 946.78L50.75 945L79.44 931.22L97.41 942.19L116.03 943.47L129.89 940.15L157.97 948.57L169.92 944.49L196.74 949.84L217.92 945.76L238.91 950.61L256.45 942.96L273.86 935.19L289.4 931.73L300.44 926.38L319.71 920.26L353.42 907.54L362.67 900.88L377.09 895.52L388.04 886.34L408.34 878.29L428.87 871.16L459.43 858.05L473.99 849.74L491.05 844.36L514.81 833.59L547.85 828.32L565.62 820.88L586.48 815.95L601.26 806.01L614.76 800.39L631.37 790.7L649.15 784.07L662.5 774.38L679.36 766.22L704.15 756.53L713.93 753.6L726.61 745.56L743.78 738.17L770.16 738.55L782.48 732.81L797.94 727.58L806.5 723.76L825.92 719.94L878.19 697.36L906.71 685.12L934.04 676.45L941.66 677.22L947.23 672.5L971.91 663.29L978.95 662.67L985.35 664.36L1004.19 654.76L1020.96 652.39L1097.43 673.14L1134.82 689.54L1175.31 700.34L1198.64 708.75L1209.29 718.28L1224.49 728.9L1242.74 738.34L1254.46 744.8L1272.2 751.09L1318.71 763.67L1336.06 768.26L1378.42 775.06L1396.79 779.48L1426.09 786.79L1446.23 788.32L1461.25 787.47L1472.07 793.42L1483.26 796.57L1490.54 799.12L1502.91 805.92L1510.02 803.71L1516.45 810.17L1558.18 820.54L1562.06 823.52L1583.92 827.6L1593.9 832.95L1616.13 842.13L1645.03 853.78L1678.62 866.28L1722.02 885.32L1744.71 868.74L1755.18 868.06L1766.41 878.09L1820.36 851.06L1842.4 843.75L1857.12 835.25L1868.93 830.49L1902.62 811.96L1919.74 804.31M-27.98 934.22L-6.53 945.12L11.55 953.88L31.62 956.01L49.19 954.35L78.01 941.57L96.21 951.75L114.66 952.93L128.45 949.85L156.42 957.67L168.33 953.88L194.97 958.85L216.01 955.06L236.87 959.56L254.44 952.46L271.9 945.25L287.34 942.04L298.42 937.07L317.63 931.38L351.32 919.57L360.76 913.39L375.17 908.41L386.46 899.89L406.77 892.41L427.25 885.8L457.87 873.62L472.57 865.9L489.58 860.9L513.41 850.91L546.19 846.01L563.98 839.11L584.72 834.53L599.76 825.29L613.26 820.08L630.05 811.08L647.81 804.93L661.46 795.93L678.39 788.35L703.18 779.35L712.93 776.63L725.78 769.17L742.99 762.3L769.12 762.65L781.49 757.33L796.91 752.47L805.48 748.92L824.77 745.37L877.15 724.41L905.71 713.04L932.95 704.99L940.51 705.7L946.26 701.32L970.92 692.77L977.9 692.2L984.26 693.76L1003.21 684.85L1019.85 682.65L1095.96 701.91L1133.44 717.15L1173.72 727.17L1197.02 734.99L1208.07 743.83L1223.56 753.7L1241.93 762.46L1253.75 768.46L1271.47 774.3L1317.75 785.98L1335.02 790.24L1377.06 796.56L1395.32 800.66L1424.47 807.45L1444.43 808.87L1459.31 808.08L1470.23 813.61L1481.36 816.53L1488.63 818.9L1501.11 825.21L1508.19 823.16L1514.94 829.16L1556.44 838.79L1560.42 841.55L1582.12 845.34L1592.18 850.31L1614.43 858.84L1643.35 869.65L1676.91 881.26L1720.42 898.94L1743.61 883.55L1753.99 882.92L1765.63 892.23L1819.9 867.13L1841.89 860.34L1856.77 852.45L1868.59 848.03L1902.57 830.82L1919.74 823.71M-29.52 945.13L-7.89 955.19L10.32 963.28L30.22 965.24L47.64 963.71L76.58 951.91L95.01 961.31L113.3 962.4L127 959.56L154.86 966.77L166.75 963.28L193.2 967.87L214.09 964.37L234.83 968.52L252.43 961.96L269.93 955.31L285.28 952.35L296.41 947.76L315.56 942.51L349.22 931.61L358.86 925.9L373.25 921.3L384.89 913.44L405.19 906.54L425.63 900.43L456.3 889.19L471.15 882.07L488.1 877.45L512 868.22L544.53 863.71L562.34 857.33L582.95 853.1L598.25 844.58L611.77 839.77L628.74 831.46L646.48 825.78L660.41 817.47L677.43 810.48L702.21 802.17L711.92 799.66L724.96 792.77L742.19 786.43L768.08 786.76L780.49 781.84L795.87 777.36L804.47 774.08L823.63 770.8L876.1 751.46L904.72 740.96L931.87 733.53L939.36 734.19L945.29 730.14L969.93 722.25L976.84 721.72L983.18 723.17L1002.24 714.94L1018.74 712.91L1094.49 730.69L1132.05 744.75L1172.14 754.01L1195.4 761.22L1206.84 769.38L1222.63 778.49L1241.13 786.58L1253.05 792.12L1270.73 797.51L1316.8 808.29L1333.98 812.23L1375.7 818.06L1393.85 821.84L1422.84 828.11L1442.63 829.42L1457.37 828.69L1468.38 833.79L1479.47 836.49L1486.72 838.68L1499.31 844.51L1506.36 842.61L1513.43 848.15L1554.7 857.04L1558.78 859.59L1580.33 863.09L1590.46 867.68L1612.74 875.55L1641.67 885.53L1675.21 896.24L1718.82 912.56L1742.52 898.35L1752.8 897.77L1764.86 906.37L1819.45 883.2L1841.38 876.93L1856.42 869.64L1868.24 865.56L1902.53 849.68L1919.74 843.12M-31.06 956.04L-9.24 965.26L9.09 972.67L28.82 974.47L46.09 973.07L75.16 962.25L93.81 970.87L111.93 971.87L125.55 969.26L153.3 975.88L165.16 972.67L191.43 976.88L212.17 973.67L232.78 977.48L250.42 971.47L267.96 965.37L283.21 962.65L294.4 958.44L313.48 953.63L347.12 943.64L356.95 938.41L371.33 934.2L383.31 926.98L403.62 920.66L424.02 915.06L454.74 904.76L469.73 898.23L486.62 894L510.6 885.54L542.87 881.4L560.7 875.55L581.19 871.68L596.74 863.86L610.28 859.46L627.43 851.84L645.15 846.63L659.37 839.02L676.46 832.61L701.24 824.99L710.91 822.69L724.13 816.37L741.39 810.56L767.04 810.86L779.5 806.36L794.84 802.25L803.46 799.24L822.48 796.24L875.05 778.5L903.72 768.88L930.79 762.07L938.21 762.67L944.32 758.97L968.94 751.73L975.79 751.25L982.09 752.57L1001.27 745.03L1017.63 743.17L1093.02 759.47L1130.67 772.36L1170.55 780.84L1193.78 787.45L1205.62 794.93L1221.7 803.28L1240.32 810.7L1252.34 815.77L1270 820.72L1315.85 830.6L1332.94 834.21L1374.34 839.55L1392.39 843.02L1421.22 848.77L1440.82 849.97L1455.44 849.3L1466.54 853.98L1477.58 856.45L1484.82 858.45L1497.51 863.8L1504.54 862.06L1511.91 867.14L1552.96 875.29L1557.13 877.62L1578.53 880.83L1588.75 885.04L1611.04 892.25L1639.99 901.4L1673.5 911.22L1717.22 926.18L1741.42 913.16L1751.61 912.62L1764.09 920.5L1818.99 899.26L1840.87 893.52L1856.07 886.84L1867.9 883.1L1902.48 868.54L1919.74 862.53M-32.6 966.95L-10.6 975.33L7.86 982.07L27.42 983.7L44.53 982.43L73.73 972.59L92.61 980.43L110.56 981.34L124.1 978.97L151.74 984.98L163.58 982.07L189.66 985.89L210.25 982.98L230.74 986.44L248.41 980.97L266 975.43L281.15 972.96L292.39 969.13L311.41 964.76L345.02 955.67L355.04 950.92L369.41 947.09L381.73 940.53L402.04 934.78L422.4 929.69L453.17 920.33L468.31 914.39L485.15 910.55L509.19 902.86L541.21 899.09L559.06 893.78L579.43 890.26L595.23 883.15L608.78 879.14L626.11 872.22L643.82 867.48L658.32 860.56L675.5 854.73L700.27 847.81L709.9 845.72L723.3 839.98L740.59 834.7L766 834.97L778.5 830.87L793.81 827.14L802.45 824.4L821.34 821.67L874.01 805.55L902.72 796.81L929.71 790.61L937.06 791.16L943.35 787.79L967.94 781.21L974.73 780.77L981 781.97L1000.29 775.12L1016.53 773.43L1091.55 788.24L1129.28 799.96L1168.97 807.67L1192.17 813.69L1204.4 820.49L1220.78 828.08L1239.51 834.82L1251.64 839.43L1269.27 843.93L1314.89 852.91L1331.9 856.19L1372.98 861.05L1390.92 864.21L1419.6 869.43L1439.02 870.52L1453.5 869.91L1464.7 874.16L1475.68 876.41L1482.91 878.23L1495.71 883.09L1502.71 881.51L1510.4 886.13L1551.22 893.53L1555.49 895.66L1576.73 898.57L1587.03 902.4L1609.34 908.96L1638.31 917.28L1671.79 926.2L1715.62 939.8L1740.32 927.96L1750.42 927.48L1763.31 934.64L1818.54 915.33L1840.36 910.11L1855.71 904.04L1867.55 900.64L1902.44 887.4L1919.74 881.94M-34.14 977.85L-11.95 985.39L6.63 991.46L26.02 992.94L42.98 991.79L72.3 982.93L91.41 989.98L109.2 990.8L122.65 988.67L150.19 994.08L161.99 991.46L187.89 994.9L208.34 992.28L228.69 995.39L246.4 990.48L264.03 985.49L279.08 983.26L290.37 979.82L309.33 975.89L342.92 967.71L353.14 963.43L367.48 959.98L380.16 954.08L400.47 948.91L420.78 944.33L451.61 935.9L466.89 930.55L483.67 927.09L507.78 920.17L539.55 916.78L557.42 912L577.66 908.83L593.73 902.44L607.29 898.83L624.8 892.6L642.49 888.34L657.28 882.11L674.53 876.86L699.3 870.63L708.89 868.75L722.48 863.58L739.8 858.83L764.96 859.07L777.51 855.38L792.77 852.02L801.44 849.56L820.19 847.11L872.96 832.6L901.73 824.73L928.62 819.15L935.91 819.64L942.38 816.61L966.95 810.69L973.68 810.29L979.91 811.38L999.32 805.21L1015.42 803.69L1090.08 817.02L1127.89 827.57L1167.39 834.51L1190.55 839.92L1203.17 846.04L1219.85 852.87L1238.71 858.94L1250.94 863.09L1268.53 867.13L1313.94 875.22L1330.86 878.17L1371.62 882.54L1389.45 885.39L1417.97 890.09L1437.22 891.07L1451.56 890.52L1462.85 894.35L1473.79 896.37L1481 898.01L1493.91 902.38L1500.89 900.96L1508.88 905.11L1549.48 911.78L1553.85 913.69L1574.94 916.32L1585.31 919.76L1607.65 925.66L1636.63 933.15L1670.09 941.18L1714.02 953.42L1739.22 942.77L1749.23 942.33L1762.54 948.78L1818.08 931.4L1839.85 926.7L1855.36 921.24L1867.21 918.18L1902.39 906.26L1919.74 901.34M-35.68 988.76L-13.31 995.46L5.41 1000.86L24.62 1002.17L41.43 1001.15L70.88 993.28L90.21 999.54L107.83 1000.27L121.2 998.38L148.63 1003.19L160.41 1000.86L186.13 1003.92L206.42 1001.58L226.65 1004.35L244.39 999.98L262.07 995.55L277.02 993.57L288.36 990.51L307.26 987.01L340.82 979.74L351.23 975.94L365.56 972.87L378.58 967.63L398.89 963.03L419.17 958.96L450.04 951.47L465.47 946.72L482.19 943.64L506.38 937.49L537.89 934.47L555.78 930.23L575.9 927.41L592.22 921.72L605.79 918.52L623.48 912.98L641.16 909.19L656.23 903.65L673.56 898.99L698.33 893.45L707.88 891.78L721.65 887.19L739 882.96L763.92 883.18L776.51 879.9L791.74 876.91L800.43 874.73L819.05 872.54L871.92 859.64L900.73 852.65L927.54 847.69L934.76 848.13L941.41 845.43L965.96 840.17L972.62 839.82L978.82 840.78L998.35 835.3L1014.31 833.95L1088.61 845.8L1126.51 855.17L1165.8 861.34L1188.93 866.15L1201.95 871.59L1218.92 877.66L1237.9 883.06L1250.23 886.75L1267.8 890.34L1312.98 897.53L1329.82 900.16L1370.25 904.04L1387.99 906.57L1416.35 910.75L1435.42 911.62L1449.63 911.13L1461.01 914.53L1471.89 916.33L1479.09 917.79L1492.11 921.67L1499.06 920.41L1507.37 924.1L1547.74 930.03L1552.2 931.73L1573.14 934.06L1583.59 937.12L1605.95 942.37L1634.95 949.02L1668.38 956.16L1712.42 967.05L1738.13 957.57L1748.04 957.18L1761.77 962.92L1817.62 947.47L1839.34 943.29L1855.01 938.43L1866.86 935.71L1902.34 925.12L1919.74 920.75M-37.22 999.67L-14.66 1005.53L4.18 1010.25L23.22 1011.4L39.87 1010.51L69.45 1003.62L89.01 1009.1L106.46 1009.74L119.76 1008.08L147.07 1012.29L158.82 1010.25L184.36 1012.93L204.5 1010.89L224.6 1013.31L242.39 1009.48L260.1 1005.6L274.96 1003.87L286.35 1001.2L305.18 998.14L338.72 991.78L349.33 988.45L363.64 985.77L377 981.18L397.32 977.15L417.55 973.59L448.48 967.03L464.05 962.88L480.72 960.19L504.97 954.8L536.23 952.17L554.14 948.45L574.14 945.98L590.71 941.01L604.3 938.2L622.17 933.36L639.82 930.04L655.19 925.2L672.6 921.12L697.36 916.27L706.87 914.81L720.82 910.79L738.2 907.09L762.88 907.28L775.51 904.41L790.71 901.8L799.42 899.89L817.9 897.98L870.87 886.69L899.74 880.57L926.46 876.23L933.61 876.62L940.44 874.26L964.96 869.65L971.57 869.34L977.73 870.19L997.37 865.39L1013.2 864.2L1087.14 874.58L1125.12 882.78L1164.22 888.18L1187.31 892.38L1200.73 897.15L1217.99 902.46L1237.09 907.18L1249.53 910.41L1267.06 913.55L1312.03 919.84L1328.77 922.14L1368.89 925.54L1386.52 927.75L1414.72 931.4L1433.62 932.17L1447.69 931.74L1459.16 934.72L1470 936.29L1477.18 937.57L1490.31 940.97L1497.24 939.86L1505.86 943.09L1546.01 948.28L1550.56 949.77L1571.34 951.81L1581.87 954.48L1604.25 959.07L1633.27 964.9L1666.67 971.15L1710.81 980.67L1737.03 972.38L1746.85 972.04L1761 977.05L1817.17 963.54L1838.83 959.88L1854.65 955.63L1866.52 953.25L1902.3 943.99L1919.74 940.16M-38.76 1010.57L-16.02 1015.6L2.95 1019.64L21.82 1020.63L38.32 1019.86L68.02 1013.96L87.81 1018.66L105.1 1019.21L118.31 1017.79L145.52 1021.39L157.24 1019.64L182.59 1021.94L202.59 1020.19L222.56 1022.27L240.38 1018.99L258.13 1015.66L272.89 1014.18L284.33 1011.88L303.1 1009.26L336.62 1003.81L347.42 1000.96L361.72 998.66L375.43 994.73L395.75 991.27L415.93 988.22L446.91 982.6L462.63 979.04L479.24 976.73L503.56 972.12L534.57 969.86L552.5 966.67L572.38 964.56L589.2 960.3L602.8 957.89L620.85 953.74L638.49 950.9L654.15 946.74L671.63 943.25L696.39 939.09L705.87 937.84L719.99 934.39L737.41 931.22L761.84 931.39L774.52 928.93L789.67 926.69L798.4 925.05L816.76 923.41L898.74 908.49L925.37 904.77L932.46 905.1L939.47 903.08L963.97 899.13L970.51 898.87L976.64 899.59L996.4 895.48L1012.1 894.46L1085.67 903.35L1123.74 910.38L1162.63 915.01L1185.7 918.62L1199.5 922.7L1217.07 927.25L1236.29 931.3L1248.83 934.06L1266.33 936.76L1311.07 942.15L1327.73 944.12L1367.53 947.03L1385.06 948.93L1413.1 952.06L1431.81 952.72L1445.75 952.35L1457.32 954.9L1468.11 956.25L1475.27 957.35L1488.5 960.26L1495.41 959.31L1504.34 962.08L1544.27 966.53L1548.92 967.8L1569.55 969.55L1580.15 971.85L1602.56 975.78L1631.59 980.77L1664.96 986.13L1709.21 994.29L1735.93 987.18L1745.66 986.89L1760.22 991.19L1816.71 979.61L1838.32 976.47L1854.3 972.83L1866.17 970.79L1902.25 962.85L1919.74 959.57M-40.3 1021.48L-17.37 1025.67L1.72 1029.04L20.42 1029.86L36.77 1029.22L66.6 1024.3L86.61 1028.22L103.73 1028.68L116.86 1027.49L143.96 1030.5L155.65 1029.04L180.82 1030.95L200.67 1029.5L220.51 1031.23L238.37 1028.49L256.17 1025.72L270.83 1024.49L282.32 1022.57L301.03 1020.39L334.52 1015.84L345.51 1013.46L359.8 1011.55L373.85 1008.27L394.17 1005.4L414.32 1002.85L445.35 998.17L461.21 995.2L477.76 993.28L502.16 989.43L532.91 987.55L550.86 984.9L570.61 983.13L587.7 979.58L601.31 977.58L619.54 974.12L637.16 971.75L653.1 968.29L670.66 965.37L695.42 961.91L704.86 960.87L719.17 958L736.61 955.36L760.8 955.49L773.52 953.44L788.64 951.58L797.39 950.21L815.61 948.84L897.74 936.41L924.29 933.31L931.31 933.59L938.5 931.9L962.98 928.61L969.46 928.39L975.56 928.99L995.43 925.57L1010.99 924.72L1084.2 932.13L1122.35 937.99L1161.05 941.84L1184.08 944.85L1198.28 948.25L1216.14 952.05L1235.48 955.42L1248.12 957.72L1265.6 959.97L1310.12 964.46L1326.69 966.1L1366.17 968.53L1383.59 970.11L1411.47 972.72L1430.01 973.27L1443.81 972.96L1455.48 975.09L1466.21 976.21L1473.36 977.12L1486.7 979.55L1493.58 978.76L1502.83 981.07L1542.53 984.77L1547.28 985.84L1567.75 987.29L1578.43 989.21L1600.86 992.49L1629.91 996.65L1663.26 1001.11L1707.61 1007.91L1734.84 1001.99L1744.47 1001.75L1759.45 1005.33L1816.26 995.67L1837.81 993.06L1853.95 990.03L1865.83 988.33L1902.2 981.71L1919.74 978.98M-41.84 1032.39L-18.73 1035.74L0.490002 1038.43L19.02 1039.09L35.21 1038.58L65.17 1034.65L85.41 1037.78L102.36 1038.14L115.41 1037.2L142.4 1039.6L154.07 1038.43L179.05 1039.96L198.75 1038.8L218.47 1040.18L236.36 1038L254.2 1035.78L268.76 1034.79L280.31 1033.26L298.95 1031.51L332.42 1027.88L343.61 1025.97L357.87 1024.44L372.27 1021.82L392.6 1019.52L412.7 1017.49L443.78 1013.74L459.79 1011.37L476.29 1009.83L500.75 1006.75L531.25 1005.24L549.22 1003.12L568.85 1001.71L586.19 998.87L599.82 997.27L618.22 994.5L635.83 992.6L652.06 989.83L669.7 987.5L694.45 984.73L703.85 983.9L718.34 981.6L735.81 979.49L759.77 979.6L772.53 977.96L787.61 976.46L796.38 975.37L814.47 974.28L896.75 964.33L923.21 961.85L930.16 962.07L937.53 960.72L961.99 958.09L968.4 957.92L974.47 958.4L994.45 955.66L1009.88 954.98L1082.73 960.91L1120.97 965.59L1159.47 968.68L1182.46 971.08L1197.06 973.8L1215.21 976.84L1234.68 979.54L1247.42 981.38L1264.86 983.18L1325.65 988.09L1364.81 990.03L1382.12 991.29L1409.85 993.38L1428.21 993.82L1441.88 993.57L1453.63 995.27L1464.32 996.17L1471.46 996.9L1484.9 998.84L1491.76 998.21L1501.32 1000.06L1540.79 1003.02L1545.63 1003.87L1565.95 1005.04L1576.71 1006.57L1599.17 1009.19L1628.23 1012.52L1661.55 1016.09L1706.01 1021.53L1733.74 1016.79L1743.28 1016.6L1758.68 1019.47L1815.8 1011.74L1837.3 1009.65L1853.6 1007.22L1865.48 1005.86L1902.16 1000.57L1919.74 998.38M-43.38 1043.29L-20.08 1045.81L-0.740002 1047.83L17.62 1048.32L33.66 1047.94L63.74 1044.99L84.21 1047.34L101 1047.61L113.96 1046.9L140.84 1048.7L152.48 1047.83L177.28 1048.98L196.83 1048.1L216.43 1049.14L234.35 1047.5L252.24 1045.84L266.7 1045.1L278.3 1043.95L296.88 1042.64L330.32 1039.91L341.7 1038.48L355.95 1037.34L370.7 1035.37L391.02 1033.64L411.08 1032.12L442.22 1029.31L458.37 1027.53L474.81 1026.37L499.34 1024.07L529.59 1022.94L547.58 1021.34L567.09 1020.29L584.68 1018.16L598.32 1016.95L616.91 1014.88L634.5 1013.46L651.01 1011.38L668.73 1009.63L693.48 1007.55L702.84 1006.93L717.51 1005.2L735.01 1003.62L758.73 1003.7L771.53 1002.47L786.58 1001.35L795.37 1000.53L813.32 999.71L895.75 992.25L922.13 990.39L929.01 990.56L936.55 989.55L960.99 987.57L967.35 987.44L973.38 987.8L993.48 985.75L1008.77 985.24L1081.26 989.68L1119.58 993.2L1157.88 995.51L1180.84 997.32L1195.83 999.36L1214.28 1001.63L1233.87 1003.66L1246.71 1005.04L1264.13 1006.39L1324.61 1010.07L1363.45 1011.52L1380.66 1012.47L1408.22 1014.04L1426.41 1014.37L1439.94 1014.18L1451.79 1015.46L1462.43 1016.13L1469.55 1016.68L1483.1 1018.14L1489.93 1017.66L1499.8 1019.05L1539.05 1021.27L1543.99 1021.91L1564.16 1022.78L1574.99 1023.93L1597.47 1025.9L1626.56 1028.39L1659.84 1031.07L1704.41 1035.15L1732.64 1031.6L1742.09 1031.45L1757.9 1033.6L1815.34 1027.81L1836.79 1026.24L1853.24 1024.42L1865.14 1023.4L1902.11 1019.43L1919.74 1017.79M-44.92 1054.2L-21.44 1055.88L-1.97 1057.22L16.22 1057.55L32.11 1057.3L62.32 1055.33L83.01 1056.9L99.63 1057.08L112.51 1056.61L139.29 1057.81L150.89 1057.22L175.52 1057.99L194.92 1057.41L214.38 1058.1L232.34 1057.01L250.27 1055.9L264.64 1055.4L276.28 1054.64L294.8 1053.76L328.22 1051.95L339.79 1050.99L354.03 1050.23L369.12 1048.92L389.45 1047.77L409.47 1046.75L440.65 1044.88L456.95 1043.69L473.33 1042.92L497.94 1041.38L527.93 1040.63L545.94 1039.57L565.33 1038.86L583.17 1037.44L596.83 1036.64L615.6 1035.26L633.17 1034.31L649.97 1032.92L667.77 1031.76L692.51 1030.37L701.83 1029.95L716.68 1028.81L734.22 1027.75L757.69 1027.81L770.54 1026.99L785.54 1026.24L794.36 1025.69L812.18 1025.15L894.76 1020.17L921.04 1018.93L927.86 1019.04L935.58 1018.37L960 1017.05L966.29 1016.97L972.29 1017.21L992.51 1015.84L1007.67 1015.5L1079.79 1018.46L1118.2 1020.8L1156.3 1022.35L1179.23 1023.55L1194.61 1024.91L1213.36 1026.43L1233.06 1027.78L1246.01 1028.7L1263.39 1029.6L1323.57 1032.05L1362.08 1033.02L1379.19 1033.65L1406.6 1034.7L1424.61 1034.92L1438 1034.79L1449.95 1035.64L1460.53 1036.09L1467.64 1036.46L1481.3 1037.43L1488.11 1037.11L1498.29 1038.04L1537.31 1039.52L1542.35 1039.94L1562.36 1040.53L1573.27 1041.29L1624.88 1044.27L1658.14 1046.05L1702.81 1048.77L1731.55 1046.4L1740.9 1046.31L1757.13 1047.74L1814.89 1043.88L1836.28 1042.83L1852.89 1041.62L1864.79 1040.94L1902.07 1038.29L1919.74 1037.2M-46.46 1065.11L-22.79 1065.95L-3.2 1066.62L14.82 1066.78L30.55 1066.66L60.89 1065.67L81.81 1066.46L98.26 1066.55L111.07 1066.31L137.73 1066.91L149.31 1066.62L173.75 1067L193 1066.71L212.34 1067.06L248.31 1065.96L262.57 1065.71L274.27 1065.33L292.73 1064.89L326.12 1063.98L337.89 1063.5L352.11 1063.12L367.54 1062.47L387.87 1061.89L407.85 1061.38L439.09 1060.45L455.53 1059.85L471.86 1059.47L496.53 1058.7L526.27 1058.32L544.3 1057.79L563.56 1057.44L581.67 1056.73L595.33 1056.33L614.28 1055.64L631.83 1055.16L648.92 1054.47L666.8 1053.89L691.54 1053.19L700.82 1052.98L715.86 1052.41L733.42 1051.88L756.65 1051.91L769.54 1051.5L784.51 1051.13L793.35 1050.85L811.03 1050.58L893.76 1048.09L919.96 1047.47L926.71 1047.53L934.61 1047.19L959.01 1046.53L965.24 1046.49L971.2 1046.61L991.54 1045.92L1006.56 1045.76L1078.32 1047.24L1116.81 1048.41L1154.72 1049.18L1177.61 1049.78L1193.39 1050.46L1212.43 1051.22L1232.26 1051.89L1245.31 1052.36L1262.66 1052.81L1322.53 1054.03L1360.72 1054.52L1377.72 1054.83L1404.97 1055.36L1422.8 1055.47L1436.06 1055.4L1448.1 1055.83L1458.64 1056.05L1465.73 1056.24L1479.5 1056.72L1486.28 1056.56L1496.78 1057.03L1535.57 1057.77L1540.7 1057.98L1560.56 1058.27L1571.56 1058.65L1623.2 1060.14L1656.43 1061.03L1701.21 1062.39L1730.45 1061.21L1739.71 1061.16L1756.36 1061.88L1814.43 1059.95L1835.77 1059.42L1852.54 1058.82L1864.45 1058.48L1902.02 1057.15L1919.74 1056.61M-48 1076.01H1919.74" stroke="url(#paint0_linear_33_26)" stroke-width="1.5" stroke-miterlimit="10"/>
</g>
<defs>
<linearGradient id="paint0_linear_33_26" x1="935.87" y1="138" x2="935.87" y2="1076.01" gradientUnits="userSpaceOnUse">
<stop stop-color="#C9B777"/>
<stop offset="0.981157" stop-color="#232222"/>
</linearGradient>
<clipPath id="clip0_33_26">
<rect width="1920" height="1080" fill="white"/>
</clipPath>
</defs>
</svg>
