<svg width="1440" height="649" viewBox="0 0 1440 649" fill="none" xmlns="http://www.w3.org/2000/svg">
<g clip-path="url(#clip0_561_1353)">
<g opacity="0.5" clip-path="url(#clip1_561_1353)">
<g opacity="0.2">
<path d="M1501.22 105.99C1499.05 106.131 1497.4 108.005 1497.54 110.18C1497.59 110.991 1497.88 111.726 1498.34 112.325L1456.88 150.608C1456.78 150.605 1456.67 150.606 1456.56 150.612C1456.02 150.648 1455.51 150.792 1455.05 151.019L1404.56 69.6908C1405.58 68.9166 1406.2 67.6653 1406.12 66.2926C1405.98 64.1175 1404.1 62.47 1401.92 62.6077C1399.75 62.7488 1398.1 64.6228 1398.24 66.7993C1398.29 67.6589 1398.62 68.434 1399.13 69.0514L1352.01 115.839C1351.26 115.211 1350.28 114.859 1349.23 114.928C1347.82 115.02 1346.63 115.844 1346 117.004L1302.43 98.6331C1302.57 98.1781 1302.65 97.6936 1302.61 97.1887C1302.47 95.0136 1300.6 93.366 1298.42 93.5071C1296.25 93.6482 1294.6 95.5221 1294.74 97.6986C1294.82 99.0174 1295.55 100.142 1296.59 100.791L1273.11 147.663C1272.59 147.461 1272.02 147.36 1271.42 147.397C1269.47 147.523 1267.95 149.048 1267.75 150.929L1214.17 148.092C1214 145.942 1212.14 144.317 1209.98 144.456C1207.8 144.597 1206.15 146.471 1206.29 148.646C1206.32 149.025 1206.4 149.387 1206.52 149.729L1170.57 167.789C1169.82 166.596 1168.46 165.843 1166.97 165.94C1166.57 165.964 1166.2 166.046 1165.86 166.174L1139.52 111C1140.75 110.264 1141.53 108.888 1141.44 107.358C1141.3 105.183 1139.42 103.536 1137.25 103.677C1135.07 103.818 1133.42 105.692 1133.56 107.867C1133.57 108.027 1133.59 108.18 1133.62 108.333L1046.84 132.961C1046.23 131.397 1044.66 130.334 1042.9 130.446C1040.73 130.586 1039.08 132.461 1039.22 134.636C1039.36 136.811 1041.23 138.459 1043.41 138.318C1044.03 138.278 1044.6 138.091 1045.11 137.804L1120.88 245.881C1120.06 246.658 1119.58 247.778 1119.66 248.994C1119.8 251.169 1121.67 252.817 1123.85 252.679C1126.02 252.538 1127.67 250.664 1127.53 248.489C1127.52 248.271 1127.48 248.062 1127.44 247.857L1170.67 230.901C1171.34 232.319 1172.83 233.255 1174.49 233.147C1175.03 233.113 1175.53 232.97 1175.99 232.743L1236.56 324.288C1235.6 325.067 1235.01 326.284 1235.1 327.614C1235.24 329.789 1237.11 331.437 1239.29 331.296C1241.46 331.155 1243.11 329.281 1242.97 327.104C1242.94 326.604 1242.81 326.135 1242.62 325.709L1286.58 300.276C1287.35 301.352 1288.64 302.022 1290.05 301.932L1289.69 301.983L1307.3 429.876C1305.45 430.306 1304.13 432.016 1304.26 433.969C1304.32 434.974 1304.76 435.865 1305.43 436.523L1271.23 478.31C1270.53 477.837 1269.68 477.585 1268.77 477.642C1266.6 477.783 1264.95 479.657 1265.09 481.832C1265.23 484.007 1267.1 485.655 1269.28 485.514C1270.13 485.457 1270.89 485.137 1271.51 484.641L1328.45 542.993C1327.81 543.745 1327.45 544.738 1327.51 545.801C1327.65 547.976 1329.53 549.624 1331.7 549.483C1332.61 549.423 1333.42 549.061 1334.05 548.505L1370.33 582.796C1369.75 583.534 1369.43 584.475 1369.49 585.48C1369.63 587.655 1371.51 589.303 1373.69 589.165C1373.91 589.149 1374.14 589.112 1374.35 589.062L1405.54 675.104C1404.16 675.792 1403.25 677.257 1403.35 678.891C1403.43 680.122 1404.07 681.186 1405 681.852L1374.4 736.723C1373.82 736.452 1373.17 736.322 1372.48 736.364C1370.31 736.505 1368.66 738.379 1368.8 740.554C1368.94 742.73 1370.81 744.377 1372.99 744.239C1373.01 744.237 1373.02 744.235 1373.04 744.235L1392.35 815.51C1390.94 816.186 1390.01 817.665 1390.12 819.32C1390.26 821.495 1392.13 823.143 1394.31 823.005C1396 822.896 1397.37 821.738 1397.83 820.205L1453.88 825.178C1453.88 825.234 1453.88 825.289 1453.88 825.346C1454.02 827.521 1455.9 829.169 1458.07 829.031C1460.25 828.89 1461.9 827.016 1461.76 824.841C1461.72 824.324 1461.59 823.842 1461.38 823.402L1507.66 798.855C1508.41 800.004 1509.74 800.726 1511.21 800.63C1513.39 800.489 1515.03 798.615 1514.9 796.439C1514.79 794.734 1513.61 793.356 1512.06 792.906L1529.25 703.201C1529.46 703.221 1529.67 703.228 1529.88 703.214C1532.06 703.073 1533.71 701.199 1533.57 699.023C1533.43 696.847 1531.55 695.2 1529.38 695.338C1529.03 695.36 1528.7 695.43 1528.38 695.538L1507.92 649.114C1509.21 648.397 1510.04 646.985 1509.94 645.415C1509.8 643.24 1507.92 641.592 1505.75 641.73C1504.78 641.794 1503.92 642.196 1503.28 642.811L1461.28 606.187C1461.79 605.471 1462.07 604.577 1462.01 603.626C1461.95 602.593 1461.49 601.685 1460.79 601.025L1542.48 497.668C1543.16 498.114 1543.99 498.356 1544.88 498.301C1547.05 498.16 1548.7 496.286 1548.56 494.111C1548.42 491.936 1546.55 490.288 1544.37 490.426C1543.74 490.468 1543.15 490.659 1542.64 490.957L1450.08 361.413C1452.04 361.08 1453.48 359.306 1453.35 357.271C1453.21 355.096 1451.33 353.449 1449.16 353.586C1448.96 353.598 1448.77 353.63 1448.58 353.673L1430.96 297.847C1432.47 297.214 1433.48 295.68 1433.37 293.959C1433.32 293.091 1432.98 292.311 1432.47 291.693L1484.81 239.287L1485.13 240.235L1485.31 238.781L1485.63 238.467L1485.36 238.372L1501.34 113.876C1501.48 113.881 1501.6 113.878 1501.73 113.872C1503.91 113.73 1505.56 111.857 1505.42 109.681C1505.28 107.506 1503.4 105.859 1501.23 105.997L1501.22 105.99ZM1540.67 494.462L1475.95 502.167C1475.55 500.284 1473.82 498.929 1471.84 499.056L1465.67 460.107L1540.87 493.112C1540.73 493.536 1540.66 493.991 1540.67 494.461L1540.67 494.462ZM1393.79 815.126C1393.53 815.145 1393.27 815.188 1393.02 815.251L1384.35 783.241L1373.75 744.11C1374.12 744.012 1374.47 743.86 1374.79 743.661L1427.32 795.82L1397.19 816.682C1396.42 815.663 1395.17 815.038 1393.79 815.126ZM1335.1 544.057C1334.74 543.17 1334.06 542.452 1333.22 542.027L1346.86 507.328L1396.94 523.65C1396.86 524.01 1396.83 524.388 1396.85 524.775C1396.86 524.958 1396.89 525.136 1396.93 525.312L1335.1 544.062L1335.1 544.057ZM1312.13 433.457C1312.09 432.861 1311.92 432.308 1311.65 431.819L1361.05 398.507L1319.42 435.864L1312.1 434.218C1312.13 433.97 1312.15 433.717 1312.13 433.457ZM1240.58 323.731L1265.54 245.718L1308.75 253.359C1308.73 253.55 1308.73 253.741 1308.74 253.939C1308.8 254.804 1309.13 255.584 1309.64 256.204L1241.55 324.325C1241.26 324.081 1240.93 323.881 1240.58 323.731ZM1124.29 244.86L1129.03 197.009L1170.81 227.262C1170.44 227.909 1170.25 228.666 1170.3 229.462C1170.31 229.722 1170.36 229.971 1170.42 230.213L1127.21 247.159C1126.69 245.962 1125.59 245.088 1124.29 244.857L1124.29 244.86ZM1129.11 196.171L1137.48 111.56C1137.57 111.561 1137.66 111.562 1137.76 111.555C1137.94 111.544 1138.11 111.514 1138.28 111.482L1172.61 225.613C1172.07 225.857 1171.6 226.218 1171.22 226.663L1129.11 196.167L1129.11 196.171ZM1047.1 134.13C1047.08 133.969 1047.06 133.813 1047.04 133.663L1133.83 109.046C1134.31 110.305 1135.42 111.234 1136.76 111.492L1128.43 195.674L1046.55 136.392C1046.94 135.732 1047.15 134.953 1047.09 134.131L1047.1 134.13ZM1428.81 290.314C1428.03 290.437 1427.33 290.788 1426.78 291.291L1384.82 252.897L1421.67 215.506C1422.33 216.043 1423.16 216.373 1424.06 216.397L1428.81 290.312L1428.81 290.314ZM1525.68 699.522C1525.74 700.501 1526.16 701.372 1526.8 702.024L1477.73 759.707C1477.45 759.506 1477.14 759.344 1476.81 759.226L1500.54 668.054L1526.7 696.62C1526.01 697.385 1525.61 698.412 1525.68 699.525L1525.68 699.522ZM1488.14 658.754L1475.59 758.99C1475.47 758.988 1475.34 758.988 1475.21 758.994C1474.49 759.04 1473.84 759.279 1473.28 759.652L1426.29 701.625L1486.05 657.526C1486.59 658.137 1487.32 658.574 1488.14 658.754ZM1476.52 757.428L1488.87 658.847C1488.99 658.849 1489.12 658.849 1489.24 658.843C1490.05 658.79 1490.78 658.5 1491.37 658.05L1499.95 667.415L1476.53 757.431L1476.52 757.428ZM1485.05 655.158C1485.06 655.326 1485.09 655.489 1485.12 655.649L1410.95 677.173C1410.7 676.529 1410.27 675.974 1409.75 675.552L1442.5 627.402L1485.44 653.193C1485.15 653.786 1485.01 654.454 1485.06 655.157L1485.05 655.158ZM1376.88 587.136C1376.96 586.984 1377.04 586.827 1377.1 586.664L1454.15 603.397C1454.12 603.637 1454.11 603.88 1454.12 604.129C1454.2 605.26 1454.74 606.247 1455.55 606.914L1442.28 626.42L1376.88 587.131L1376.88 587.136ZM1454.3 602.686L1377.3 585.961C1377.36 585.641 1377.39 585.313 1377.36 584.973C1377.32 584.311 1377.12 583.698 1376.79 583.169L1417.87 548.813L1455.47 600.905C1454.93 601.376 1454.52 601.991 1454.3 602.687L1454.3 602.686ZM1403.39 527.485C1404.28 526.703 1404.81 525.537 1404.73 524.26C1404.72 524.077 1404.69 523.903 1404.66 523.729L1468.44 504.475C1468.55 504.743 1468.69 504.997 1468.85 505.232L1418.01 547.751L1403.39 527.483L1403.39 527.485ZM1292.88 295.528L1321.53 271.415L1335.54 296.866C1334.64 297.478 1334.01 298.449 1333.85 299.563L1293.71 297.5C1293.62 296.754 1293.32 296.079 1292.88 295.528ZM1275.62 151.086C1275.61 150.803 1275.56 150.533 1275.48 150.272L1313.38 134.394L1323.07 158.106C1322.11 158.601 1321.4 159.474 1321.1 160.515L1275.6 151.89C1275.63 151.628 1275.64 151.36 1275.62 151.086ZM1300.5 100.944C1301.21 100.575 1301.79 100.003 1302.16 99.3078L1345.73 117.679C1345.59 118.131 1345.52 118.619 1345.55 119.122C1345.57 119.444 1345.64 119.755 1345.73 120.051L1313.78 133.437L1300.5 100.944ZM1346.01 120.72C1346.3 121.266 1346.71 121.735 1347.21 122.09L1326.53 158.012C1325.96 157.748 1325.31 157.618 1324.64 157.662C1324.32 157.68 1324.03 157.74 1323.74 157.827L1314.05 134.109L1346.01 120.72ZM1425.49 294.096L1341.65 299.508C1341.54 298.777 1341.22 298.119 1340.77 297.584L1384.31 253.409L1426.29 291.822C1425.8 292.462 1425.51 293.247 1425.49 294.092L1425.49 294.096ZM1400.54 520.577C1400.23 520.596 1399.93 520.657 1399.65 520.744L1371.22 451.325C1371.56 451.212 1371.88 451.052 1372.17 450.854L1413.81 472.749L1401.43 520.623C1401.14 520.577 1400.85 520.557 1400.55 520.579L1400.54 520.577ZM1468.16 503.248C1468.18 503.428 1468.2 503.605 1468.24 503.779L1454.97 507.783L1404.45 523.03C1404.03 521.988 1403.18 521.18 1402.13 520.801L1414.47 473.092L1468.46 501.486C1468.23 502.027 1468.12 502.622 1468.16 503.245L1468.16 503.248ZM1414 472.024L1372.78 450.349C1373.13 449.986 1373.42 449.556 1373.61 449.082L1411.9 442.868L1418.71 441.761C1419.03 443.013 1419.95 444.013 1421.12 444.462L1414 472.024ZM1418.59 441.032C1418.59 441.032 1418.6 441.035 1418.6 441.038L1373.84 448.301C1373.9 447.988 1373.92 447.666 1373.9 447.334C1373.86 446.788 1373.72 446.274 1373.49 445.817L1395.86 419.961L1419.21 438.654C1418.77 439.337 1418.54 440.156 1418.59 441.028L1418.59 441.032ZM1368.64 397.236C1369.02 396.584 1369.22 395.812 1369.16 395.001C1369.14 394.684 1369.08 394.379 1368.99 394.088L1369.03 394.07L1445.98 359.46C1446.14 359.747 1446.34 360.015 1446.56 360.251L1395.77 418.955L1368.64 397.233L1368.64 397.236ZM1316.32 252.151C1315.83 250.988 1314.8 250.121 1313.56 249.839L1317.36 221.232L1360.8 233.887C1360.74 234.211 1360.71 234.544 1360.73 234.889C1360.74 234.992 1360.75 235.092 1360.77 235.196L1316.32 252.151ZM1339.58 296.633L1363.52 238.402C1363.96 238.537 1364.43 238.6 1364.92 238.57C1365.77 238.516 1366.53 238.196 1367.15 237.704L1383.78 252.92L1340.25 297.075C1340.05 296.905 1339.82 296.758 1339.58 296.633ZM1420.24 212.704C1420.26 212.972 1420.3 213.232 1420.37 213.48L1401.07 220.663L1368.21 232.894C1368.12 232.695 1368 232.512 1367.88 232.332L1402.87 201.948L1420.52 210.984C1420.31 211.515 1420.2 212.096 1420.24 212.704ZM1367.4 231.783C1366.63 231.046 1365.57 230.62 1364.42 230.694C1363.96 230.724 1363.52 230.837 1363.12 231.008L1327.09 164.869C1327.55 164.563 1327.93 164.17 1328.22 163.708L1402.18 201.587L1367.4 231.779L1367.4 231.783ZM1325.15 165.534C1325.61 165.504 1326.05 165.391 1326.45 165.22L1362.48 231.359C1361.82 231.805 1361.3 232.441 1361.01 233.183L1317.45 220.498L1324.74 165.542C1324.88 165.546 1325.01 165.544 1325.15 165.538L1325.15 165.534ZM1362.66 238.025L1338.9 296.35C1338.46 296.217 1337.99 296.152 1337.51 296.184C1337.04 296.214 1336.59 296.33 1336.19 296.506L1322.11 270.926L1361.91 237.434C1362.13 237.659 1362.39 237.859 1362.66 238.021L1362.66 238.025ZM1364.97 391.317C1364.91 391.321 1364.86 391.329 1364.8 391.337L1349.26 338.16L1339.21 303.792C1339.99 303.482 1340.64 302.934 1341.08 302.242L1403.6 334.381L1367.25 391.87C1366.59 391.472 1365.81 391.263 1364.97 391.317ZM1367.67 237.192C1368.32 236.44 1368.68 235.444 1368.61 234.377C1368.6 234.109 1368.55 233.849 1368.49 233.599L1420.62 214.162C1420.77 214.463 1420.95 214.737 1421.16 214.988L1384.29 252.397L1367.67 237.192ZM1425.79 208.849C1425.22 208.593 1424.59 208.466 1423.92 208.509C1422.62 208.594 1421.51 209.308 1420.85 210.333L1403.47 201.431L1454.15 157.438C1454.29 157.574 1454.45 157.697 1454.61 157.81L1436.89 189.199L1425.79 208.849ZM1452.93 155.199C1453.04 155.831 1453.3 156.411 1453.66 156.9L1402.77 201.076L1328.55 163.065C1328.72 162.655 1328.82 162.217 1328.84 161.754L1452.93 155.2L1452.93 155.199ZM1324.02 165.44L1316.75 220.287L1280.77 209.805C1280.83 209.481 1280.86 209.147 1280.84 208.803C1280.78 207.946 1280.45 207.171 1279.95 206.556L1322.36 164.613C1322.84 165.01 1323.4 165.298 1324.02 165.439L1324.02 165.44ZM1280.56 210.506L1316.65 221.019L1312.84 249.737C1312.71 249.734 1312.57 249.735 1312.43 249.742C1311.72 249.788 1311.07 250.023 1310.51 250.389L1279.63 211.894C1280.03 211.505 1280.35 211.033 1280.56 210.507L1280.56 210.506ZM1316.63 253.425C1316.62 253.226 1316.58 253.032 1316.54 252.845L1360.94 235.906C1361.06 236.256 1361.23 236.584 1361.43 236.88L1321.75 270.279L1314.53 257.165C1315.86 256.462 1316.73 255.025 1316.62 253.427L1316.63 253.425ZM1368.21 397.824L1395.29 419.501L1373.08 445.168C1372.35 444.217 1371.18 443.622 1369.9 443.644L1366.24 399.062C1367.03 398.855 1367.71 398.413 1368.22 397.822L1368.21 397.824ZM1468.8 500.838L1414.66 472.366L1421.82 444.651C1422.13 444.707 1422.45 444.732 1422.79 444.708C1423.47 444.665 1424.1 444.448 1424.64 444.107L1469.37 500.147C1469.16 500.354 1468.97 500.589 1468.8 500.841L1468.8 500.838ZM1422.28 436.832C1421.24 436.9 1420.32 437.366 1419.66 438.071L1396.34 419.402L1447.11 360.722C1447.34 360.886 1447.59 361.023 1447.85 361.134L1423.32 436.905C1422.99 436.835 1422.64 436.807 1422.28 436.832ZM1445.47 357.767C1445.49 358.126 1445.57 358.468 1445.68 358.792L1368.71 393.411C1368.49 392.988 1368.19 392.612 1367.84 392.299L1404.25 334.714L1445.75 356.045C1445.54 356.576 1445.43 357.159 1445.47 357.77L1445.47 357.767ZM1341.41 301.588C1341.58 301.164 1341.69 300.706 1341.7 300.225L1425.54 294.813C1425.7 295.838 1426.25 296.72 1427.03 297.321L1403.99 333.755L1341.41 301.588ZM1452.89 154.296L1452.69 154.474L1328.8 161.018C1328.67 160.137 1328.25 159.359 1327.65 158.774L1357.61 121.938L1452.98 153.645C1452.93 153.858 1452.9 154.074 1452.89 154.296ZM1327.47 157.846L1347.85 122.445C1348.42 122.709 1349.07 122.838 1349.75 122.794C1351.27 122.696 1352.53 121.747 1353.1 120.442L1356.87 121.693L1327.47 157.845L1327.47 157.846ZM1298.94 101.375C1299.25 101.356 1299.55 101.296 1299.83 101.21L1313.11 133.709L1275.23 149.582C1274.9 148.921 1274.39 148.368 1273.77 147.981L1297.26 101.109C1297.78 101.314 1298.35 101.412 1298.94 101.373L1298.94 101.375ZM1275.43 152.587L1314.8 160.05L1272.68 155.145C1273.98 154.809 1275.01 153.833 1275.42 152.589L1275.43 152.587ZM1320.95 161.499C1320.95 161.614 1320.95 161.728 1320.96 161.846C1321.01 162.702 1321.34 163.477 1321.85 164.093L1279.43 206.036C1278.68 205.404 1277.7 205.049 1276.64 205.119C1275.71 205.178 1274.88 205.557 1274.24 206.139L1213.47 150.659C1213.8 150.188 1214.03 149.647 1214.13 149.06L1320.95 161.501L1320.95 161.499ZM1208.95 152.129C1209.43 152.296 1209.95 152.371 1210.49 152.336C1211.47 152.273 1212.34 151.856 1212.99 151.221L1273.75 206.689C1273.58 206.911 1273.43 207.148 1273.31 207.401L1196.5 179.956L1208.96 152.131L1208.95 152.129ZM1273.07 208.087C1272.97 208.479 1272.92 208.893 1272.95 209.32C1272.96 209.369 1272.96 209.414 1272.97 209.463L1178 228.035C1177.68 227.009 1176.95 226.171 1176.02 225.696L1196.2 180.622L1273.07 208.087ZM1175.35 225.426C1174.92 225.3 1174.46 225.24 1173.98 225.271L1168.04 173.739C1169.28 173.478 1170.29 172.648 1170.8 171.548L1195.51 180.376L1175.35 225.426ZM1167.31 173.822L1173.24 225.144L1139.22 112.062L1165.2 166.496C1163.97 167.232 1163.18 168.609 1163.28 170.137C1163.42 172.255 1165.21 173.872 1167.31 173.823L1167.31 173.822ZM1178.18 228.955C1178.17 228.887 1178.16 228.818 1178.15 228.749L1273.11 210.179C1273.44 211.324 1274.27 212.239 1275.35 212.695L1265.04 244.894L1178.17 229.532C1178.18 229.341 1178.19 229.15 1178.18 228.955ZM1276.04 212.919C1276.39 212.997 1276.76 213.028 1277.14 213.005C1277.85 212.959 1278.51 212.724 1279.06 212.358L1309.94 250.852C1309.44 251.338 1309.07 251.954 1308.88 252.645L1265.77 245.021L1276.04 212.918L1276.04 212.919ZM1311.11 257.303C1311.66 257.548 1312.29 257.667 1312.94 257.623C1313.25 257.602 1313.56 257.542 1313.85 257.451L1321.17 270.763L1292.37 295.001C1292.19 294.844 1291.99 294.702 1291.79 294.58L1311.11 257.298L1311.11 257.303ZM1293.74 298.232L1333.81 300.292C1333.81 300.323 1333.81 300.352 1333.81 300.385C1333.96 302.56 1335.83 304.208 1338.01 304.07C1338.18 304.059 1338.34 304.034 1338.5 304.002L1364.08 391.49C1363.82 391.569 1363.57 391.671 1363.34 391.794L1292.63 300.74C1293.28 300.079 1293.69 299.199 1293.74 298.23L1293.74 298.232ZM1362.54 398.154C1363.31 398.861 1364.35 399.271 1365.47 399.199C1365.48 399.198 1365.5 399.196 1365.51 399.195L1369.17 443.734C1367.76 444.02 1366.64 445.052 1366.2 446.38L1320.29 436.063L1362.54 398.158L1362.54 398.154ZM1366.05 447.09C1366.01 447.338 1366 447.591 1366.02 447.851C1366.03 448.076 1366.07 448.292 1366.12 448.504L1272.63 479.978C1272.51 479.71 1272.36 479.457 1272.19 479.225L1319.63 436.659L1366.04 447.091L1366.05 447.09ZM1272.96 481.323C1272.95 481.098 1272.91 480.882 1272.86 480.67L1366.35 449.195C1366.73 450.031 1367.37 450.708 1368.18 451.116L1346.44 506.422L1272.87 482.447C1272.96 482.087 1272.99 481.709 1272.96 481.323ZM1368.86 451.383C1369.29 451.505 1369.74 451.565 1370.21 451.535C1370.31 451.53 1370.4 451.514 1370.5 451.501L1398.97 521.027C1398.17 521.446 1397.53 522.13 1397.17 522.962L1347.13 506.654L1368.86 451.386L1368.86 451.383ZM1399.52 528.254C1399.99 528.418 1400.51 528.491 1401.05 528.458C1401.69 528.418 1402.28 528.22 1402.79 527.917L1417.45 548.227L1376.35 582.592C1376.1 582.309 1375.8 582.063 1375.47 581.865L1399.51 528.255L1399.52 528.254ZM1376.47 587.742L1441.87 627.029L1409.14 675.157C1408.51 674.825 1407.79 674.652 1407.04 674.701C1406.75 674.72 1406.48 674.77 1406.21 674.844L1375.04 588.829C1375.6 588.578 1376.09 588.204 1376.47 587.741L1376.47 587.742ZM1411.22 678.387C1411.21 678.216 1411.19 678.045 1411.15 677.878L1485.31 656.353C1485.4 656.562 1485.5 656.76 1485.61 656.949L1425.83 701.065L1409.99 681.511C1410.81 680.734 1411.3 679.608 1411.22 678.384L1411.22 678.387ZM1472.71 760.117C1472.25 760.567 1471.9 761.132 1471.7 761.759L1376.53 741.363C1376.64 740.945 1376.7 740.503 1376.67 740.049C1376.63 739.509 1376.49 739.003 1376.26 738.547L1425.7 702.068L1472.71 760.12L1472.71 760.117ZM1375.38 743.222C1375.74 742.892 1376.04 742.497 1376.26 742.053L1471.55 762.47C1471.52 762.705 1471.51 762.945 1471.52 763.19C1471.56 763.801 1471.74 764.371 1472.02 764.871L1427.93 795.401L1375.38 743.219L1375.38 743.222ZM1472.45 765.47C1472.86 765.969 1473.41 766.361 1474.02 766.603L1458.12 821.16C1457.93 821.146 1457.74 821.141 1457.56 821.152C1456.56 821.217 1455.68 821.646 1455.02 822.3L1428.46 795.925L1472.44 765.472L1472.45 765.47ZM1459.09 821.355C1459.01 821.328 1458.93 821.304 1458.84 821.284L1474.72 766.808C1475.04 766.87 1475.37 766.898 1475.72 766.874C1476.62 766.815 1477.43 766.458 1478.06 765.907L1486.38 773.827L1459.09 821.36L1459.09 821.355ZM1478.56 765.377C1479.15 764.638 1479.47 763.695 1479.41 762.682C1479.34 761.703 1478.92 760.832 1478.29 760.18L1527.33 702.52L1486.76 773.173L1478.56 765.377ZM1527.24 696.127L1500.76 667.212L1505.35 649.553C1505.64 649.598 1505.94 649.618 1506.24 649.598C1506.59 649.575 1506.92 649.505 1507.24 649.398L1527.71 695.819C1527.54 695.91 1527.39 696.01 1527.24 696.122L1527.24 696.127ZM1504.65 649.374L1500.17 666.575L1491.91 657.557C1492.61 656.791 1493 655.764 1492.93 654.652C1492.9 654.189 1492.79 653.753 1492.62 653.349L1502.72 647.859C1503.19 648.553 1503.86 649.086 1504.65 649.372L1504.65 649.374ZM1485.81 652.573L1442.91 626.801L1456.16 607.328C1456.79 607.681 1457.54 607.865 1458.32 607.814C1458.84 607.78 1459.34 607.642 1459.79 607.422L1486.65 651.733C1486.33 651.971 1486.05 652.251 1485.81 652.568L1485.81 652.573ZM1457.81 599.942C1457.17 599.982 1456.57 600.177 1456.06 600.484L1418.44 548.352L1469.32 505.8C1469.83 506.307 1470.48 506.676 1471.2 506.843L1458.24 599.944C1458.1 599.937 1457.95 599.938 1457.81 599.947L1457.81 599.942ZM1471.12 499.177C1470.69 499.287 1470.29 499.465 1469.94 499.703L1425.21 443.671C1425.52 443.389 1425.77 443.059 1425.97 442.693L1464.87 459.764L1471.12 499.177ZM1426.27 442.026C1426.42 441.558 1426.5 441.052 1426.46 440.526C1426.36 438.965 1425.36 437.678 1424.01 437.128L1448.53 361.372C1448.77 361.425 1449.02 361.459 1449.28 361.466L1464.73 458.908L1426.26 442.024L1426.27 442.026ZM1446.08 355.404L1404.63 334.101L1427.64 297.721C1428.25 298.034 1428.95 298.193 1429.68 298.145C1429.88 298.133 1430.07 298.102 1430.26 298.058L1447.88 353.885C1447.13 354.197 1446.51 354.733 1446.08 355.4L1446.08 355.404ZM1429.54 290.269L1424.82 216.926L1442.91 223.565L1429.82 290.288C1429.73 290.279 1429.64 290.267 1429.54 290.269ZM1425.16 216.274C1426.96 215.81 1428.23 214.124 1428.11 212.202C1428.03 210.952 1427.37 209.88 1426.42 209.214L1455.24 158.169C1455.39 158.233 1455.55 158.288 1455.7 158.332L1443.05 222.838L1425.16 216.269L1425.16 216.274ZM1454.44 151.408C1453.9 151.813 1453.48 152.349 1453.2 152.968L1358.09 121.347L1399.99 69.8252C1400.68 70.2917 1401.53 70.5448 1402.43 70.4861C1402.98 70.4504 1403.49 70.3065 1403.94 70.079L1454.44 151.408ZM1397.57 71.633L1357.35 121.102L1353.33 119.765C1353.41 119.397 1353.45 119.012 1353.42 118.615C1353.37 117.755 1353.04 116.98 1352.53 116.363L1397.58 71.6364L1397.57 71.633ZM1267.75 151.664C1267.87 153.053 1268.69 154.214 1269.84 154.825L1221.81 149.23L1267.75 151.664ZM1206.84 150.396C1207.19 150.992 1207.69 151.489 1208.29 151.826L1195.81 179.707L1171.05 170.86C1171.15 170.469 1171.19 170.054 1171.16 169.627C1171.13 169.21 1171.04 168.813 1170.9 168.444L1206.84 150.395L1206.84 150.396ZM1045.71 137.387C1045.86 137.263 1046 137.126 1046.13 136.983L1128.34 196.514L1123.56 244.802C1123.49 244.805 1123.42 244.8 1123.35 244.806C1122.65 244.851 1122 245.078 1121.45 245.434L1045.71 137.387ZM1176.61 232.358C1177.3 231.837 1177.81 231.097 1178.04 230.248L1264.82 245.595L1239.88 323.513C1239.53 323.436 1239.16 323.404 1238.78 323.427C1238.2 323.464 1237.66 323.629 1237.17 323.891L1176.61 232.361L1176.61 232.358ZM1242.25 325.079C1242.19 324.997 1242.13 324.916 1242.07 324.841L1310.16 256.72C1310.26 256.802 1310.36 256.878 1310.47 256.951L1291.12 294.278C1290.63 294.104 1290.09 294.022 1289.54 294.057C1287.37 294.198 1285.72 296.072 1285.86 298.247C1285.89 298.747 1286.02 299.217 1286.22 299.642L1242.25 325.076L1242.25 325.079ZM1290.41 301.888C1291.03 301.791 1291.59 301.552 1292.07 301.211L1362.73 392.196C1361.77 392.975 1361.19 394.184 1361.28 395.507C1361.31 396.104 1361.49 396.656 1361.76 397.146L1311.24 431.209C1310.48 430.279 1309.31 429.71 1308.02 429.767L1290.41 301.885L1290.41 301.888ZM1308.45 437.647C1310.11 437.539 1311.46 436.418 1311.94 434.927L1318.76 436.458L1272.3 478.143L1305.99 436.983C1306.69 437.456 1307.54 437.711 1308.45 437.651L1308.45 437.647ZM1272.03 484.128C1272.28 483.831 1272.49 483.498 1272.64 483.135L1346.17 507.096L1332.54 541.753C1332.12 541.632 1331.66 541.571 1331.19 541.604C1330.34 541.66 1329.58 541.981 1328.97 542.477L1272.02 484.125L1272.03 484.128ZM1334.55 547.973C1335.13 547.236 1335.45 546.294 1335.39 545.288C1335.38 545.105 1335.35 544.927 1335.31 544.75L1397.14 526.001C1397.48 526.831 1398.09 527.514 1398.86 527.946L1374.83 581.536C1374.31 581.343 1373.76 581.251 1373.18 581.285C1372.27 581.346 1371.47 581.707 1370.83 582.263L1334.55 547.972L1334.55 547.973ZM1405.63 682.214C1406.2 682.482 1406.86 682.615 1407.54 682.57C1408.23 682.527 1408.87 682.303 1409.42 681.951L1425.24 701.492L1375.88 737.917C1375.64 737.597 1375.35 737.316 1375.03 737.084L1405.63 682.214ZM1397.97 819.48C1397.99 819.259 1398 819.035 1397.99 818.805C1397.95 818.262 1397.81 817.753 1397.58 817.297L1427.85 796.339L1454.56 822.856C1454.24 823.326 1454.02 823.864 1453.92 824.441L1397.97 819.475L1397.97 819.48ZM1461 822.763C1460.67 822.308 1460.24 821.929 1459.76 821.652L1486.93 774.335L1507.86 794.24C1507.27 794.979 1506.95 795.923 1507.01 796.935C1507.04 797.383 1507.15 797.805 1507.31 798.201L1461 822.766L1461 822.763ZM1511.33 792.758C1511.12 792.738 1510.91 792.731 1510.7 792.745C1509.8 792.804 1508.99 793.164 1508.36 793.712L1487.3 773.683L1527.98 702.854C1528.15 702.935 1528.34 702.997 1528.52 703.053L1511.33 792.758ZM1502.79 643.352C1502.27 644.068 1501.99 644.961 1502.05 645.913C1502.08 646.375 1502.2 646.811 1502.37 647.215L1492.27 652.705C1491.51 651.577 1490.19 650.869 1488.74 650.965C1488.21 650.998 1487.71 651.137 1487.26 651.357L1460.4 607.045C1460.54 606.947 1460.66 606.844 1460.78 606.733L1502.78 643.358L1502.79 643.352ZM1460.21 600.567C1459.83 600.322 1459.41 600.139 1458.96 600.03L1471.92 506.929C1472.06 506.936 1472.21 506.935 1472.35 506.926C1474.48 506.791 1476.09 504.996 1476.04 502.888L1540.76 495.182C1540.93 495.976 1541.33 496.676 1541.9 497.21L1460.21 600.567ZM1541.16 492.445L1465.53 459.25L1450.26 362.924L1542.04 491.374C1541.69 491.676 1541.39 492.037 1541.17 492.443L1541.16 492.445ZM1431.94 291.17C1431.54 290.832 1431.06 290.578 1430.54 290.424L1443.6 223.816L1484.3 238.752L1431.94 291.172L1431.94 291.17ZM1484.37 238.003L1443.74 223.091L1456.42 158.47C1456.63 158.492 1456.85 158.501 1457.07 158.487C1457.29 158.474 1457.51 158.436 1457.72 158.389L1484.37 238.008L1484.37 238.003ZM1484.8 236.983L1458.41 158.154C1459.88 157.504 1460.86 155.994 1460.75 154.292C1460.64 152.554 1459.42 151.151 1457.82 150.732L1498.84 112.855C1499.34 113.3 1499.94 113.622 1500.61 113.773L1484.8 236.984L1484.8 236.983Z" fill="#1CA3A9" fill-opacity="0.4"/>
</g>
<path d="M1441.96 7.10725C1440.9 5.90248 1439.07 5.78035 1437.86 6.83687C1436.88 7.69203 1436.62 9.06193 1437.11 10.1908L1379.09 42.4106C1379.02 42.3164 1378.96 42.2221 1378.88 42.1368C1377.82 40.932 1375.99 40.8065 1374.78 41.8664C1373.58 42.9215 1373.45 44.7554 1374.51 45.9621C1375.25 46.8093 1376.38 47.118 1377.4 46.8646L1392.31 89.3015C1392.06 89.4155 1391.83 89.5643 1391.61 89.7554C1390.78 90.4843 1390.46 91.5806 1390.69 92.5878L1362.58 101.837C1362.46 101.596 1362.32 101.366 1362.13 101.156C1361.08 99.9513 1359.25 99.8292 1358.04 100.886C1356.84 101.933 1356.71 103.749 1357.74 104.955L1331.28 134.254C1330.2 133.373 1328.62 133.368 1327.54 134.318C1327.21 134.607 1326.96 134.957 1326.79 135.33L1290.22 123.084C1290.43 122.202 1290.22 121.243 1289.58 120.51C1288.53 119.305 1286.69 119.18 1285.49 120.24C1284.28 121.295 1284.15 123.129 1285.21 124.335C1285.46 124.615 1285.75 124.834 1286.06 124.996L1272.88 157.193C1271.95 156.913 1270.9 157.098 1270.12 157.782C1269.54 158.293 1269.21 158.987 1269.14 159.701L1220.29 159.774C1220.24 159.188 1220.01 158.612 1219.59 158.134C1218.53 156.929 1216.7 156.807 1215.49 157.864C1214.28 158.919 1214.16 160.751 1215.22 161.959C1215.88 162.72 1216.86 163.047 1217.79 162.921L1233.69 231.532C1233.33 231.651 1232.99 231.84 1232.69 232.104C1232.63 232.157 1232.58 232.211 1232.52 232.269L1191.03 233.834C1190.96 233.282 1190.74 232.748 1190.34 232.299C1189.29 231.094 1187.45 230.968 1186.24 232.028C1185.04 233.083 1184.91 234.917 1185.97 236.124C1187.03 237.329 1188.86 237.454 1190.07 236.394C1190.14 236.33 1190.21 236.265 1190.28 236.195L1263.24 292.801L1263.15 292.986L1263.48 292.989L1264.33 293.65L1264 292.992L1318.49 293.141C1318.55 293.732 1318.78 294.312 1319.2 294.792C1320.04 295.746 1321.36 296.02 1322.47 295.568L1342.27 333.815C1342.15 333.893 1342.04 333.976 1341.93 334.072C1340.72 335.127 1340.6 336.959 1341.66 338.168C1342.65 339.298 1344.31 339.476 1345.51 338.627L1364.51 454.211C1364.09 454.322 1363.68 454.526 1363.33 454.832C1362.12 455.887 1362 457.72 1363.06 458.928C1364.11 460.133 1365.95 460.255 1367.16 459.198C1367.65 458.768 1367.95 458.213 1368.08 457.624L1464.32 469.1C1464.3 469.803 1464.53 470.515 1465.03 471.088C1465.49 471.616 1466.11 471.936 1466.75 472.041L1463.86 512.939C1463.2 512.952 1462.54 513.187 1462.01 513.655C1460.8 514.71 1460.68 516.544 1461.74 517.751C1462.5 518.621 1463.67 518.924 1464.71 518.63L1478.14 553.455C1477.93 553.565 1477.72 553.699 1477.52 553.869C1476.32 554.924 1476.19 556.757 1477.25 557.965C1478.31 559.17 1480.14 559.292 1481.35 558.235C1481.47 558.132 1481.57 558.017 1481.67 557.898L1537.2 595.738C1536.63 596.776 1536.72 598.109 1537.55 599.053C1538.61 600.258 1540.44 600.38 1541.65 599.324C1542.47 598.61 1542.79 597.545 1542.58 596.554L1579.45 585.327C1579.57 585.666 1579.75 585.988 1580 586.273C1581.06 587.478 1582.89 587.6 1584.1 586.543C1585.3 585.488 1585.43 583.656 1584.37 582.448C1584.34 582.416 1584.31 582.388 1584.29 582.36L1610.92 550.673C1611.96 551.231 1613.27 551.124 1614.21 550.305C1615.41 549.25 1615.54 547.417 1614.48 546.209C1613.68 545.292 1612.43 545.005 1611.34 545.383L1584.41 498.201C1584.41 498.201 1584.42 498.186 1584.43 498.179C1585.64 497.124 1585.76 495.291 1584.7 494.083C1583.65 492.878 1581.82 492.756 1580.61 493.813C1580.23 494.145 1579.96 494.553 1579.8 494.996L1535.36 482.276C1535.5 481.445 1535.28 480.561 1534.68 479.879C1533.89 478.971 1532.66 478.679 1531.58 479.037L1503.17 417.995C1503.31 417.909 1503.45 417.815 1503.57 417.704C1504.78 416.649 1504.9 414.816 1503.84 413.608C1503.35 413.049 1502.7 412.727 1502.01 412.642L1503.12 375.931C1503.74 375.893 1504.35 375.659 1504.85 375.22C1506.06 374.165 1506.19 372.331 1505.13 371.124C1504.61 370.534 1503.91 370.204 1503.18 370.147L1502.57 310.17C1503.15 310.112 1503.72 309.881 1504.19 309.468C1505.39 308.413 1505.51 306.58 1504.46 305.372C1503.4 304.167 1501.57 304.045 1500.36 305.102C1499.86 305.54 1499.55 306.117 1499.43 306.728L1459.91 302.695C1459.91 302.006 1459.68 301.316 1459.19 300.757C1458.24 299.674 1456.67 299.468 1455.48 300.202L1398.27 224.388L1398.06 224.55C1398.84 223.862 1399.16 222.846 1399 221.886L1435.13 212.322C1435.25 212.649 1435.42 212.956 1435.66 213.234C1436.72 214.439 1438.55 214.561 1439.76 213.504C1440.97 212.448 1441.09 210.617 1440.03 209.409C1439.39 208.671 1438.45 208.34 1437.54 208.437L1421.59 129.269C1421.95 129.15 1422.29 128.963 1422.59 128.698C1423.51 127.892 1423.79 126.633 1423.41 125.544L1454.75 111.942C1454.83 112.073 1454.92 112.2 1455.03 112.321C1456.08 113.526 1457.92 113.652 1459.12 112.592C1460.33 111.537 1460.46 109.703 1459.4 108.496C1458.81 107.821 1457.98 107.49 1457.14 107.508L1440.53 11.8357C1440.95 11.724 1441.34 11.5214 1441.69 11.2211C1442.9 10.166 1443.02 8.33351 1441.96 7.12539L1441.96 7.10725ZM1454.5 111.448L1423.18 125.043C1423.09 124.885 1422.98 124.729 1422.85 124.589C1422.47 124.148 1421.98 123.852 1421.45 123.705L1427.52 86.243L1454.83 108.732C1454.27 109.528 1454.16 110.554 1454.51 111.45L1454.5 111.448ZM1434.95 211.034L1364.09 210.871C1364.03 210.28 1363.8 209.701 1363.38 209.22C1363.28 209.111 1363.18 209.015 1363.07 208.923L1381.63 182.507L1435.14 210.216C1435.03 210.48 1434.97 210.755 1434.94 211.033L1434.95 211.034ZM1454.81 304.563C1454.93 304.707 1455.07 304.834 1455.22 304.947L1452.26 309.599L1411.16 311.735L1454.21 303.456C1454.32 303.852 1454.52 304.23 1454.81 304.558L1454.81 304.563ZM1500.25 374.144L1458.28 396.466C1458.21 396.355 1458.13 396.249 1458.05 396.148C1457.86 395.931 1457.64 395.753 1457.41 395.608L1475.05 361.101L1500.17 372.11C1499.96 372.769 1499.98 373.495 1500.25 374.144ZM1610.83 545.592C1610.67 545.686 1610.51 545.795 1610.37 545.926C1609.61 546.593 1609.28 547.569 1609.4 548.503L1582.86 553.269L1583.17 498.805C1583.44 498.742 1583.7 498.642 1583.94 498.498L1600.05 526.709L1610.83 545.59L1610.83 545.592ZM1367.34 455.007C1367.1 454.755 1366.83 454.554 1366.54 454.407L1388.6 398.162L1405.6 421.671C1404.51 422.632 1404.31 424.236 1405.08 425.425L1367.34 455.005L1367.34 455.007ZM1330.9 138.999L1311.49 163.415L1328.15 139.089C1329.01 139.517 1330.05 139.496 1330.9 138.998L1330.9 138.999ZM1361.86 105.246C1362.16 104.985 1362.39 104.673 1362.55 104.339L1383.49 112.379L1357.7 166.564C1357.5 166.495 1357.3 166.444 1357.1 166.417L1359.98 105.964C1360.65 105.958 1361.31 105.721 1361.86 105.245L1361.86 105.246ZM1395.52 94.0316C1396.64 92.9639 1396.74 91.1945 1395.71 90.0191C1394.96 89.1719 1393.84 88.8632 1392.82 89.1166L1378.11 47.2487L1419.08 123.86L1395.52 94.0316ZM1392.52 94.6583C1393.36 94.9661 1394.32 94.8724 1395.1 94.3658L1418.75 124.315C1418.49 124.545 1418.28 124.811 1418.12 125.101L1384.22 112.084L1392.52 94.6549L1392.52 94.6583ZM1417.91 125.598C1417.67 126.329 1417.73 127.141 1418.1 127.844L1358.95 167.461C1358.92 167.434 1358.9 167.404 1358.88 167.378C1358.67 167.142 1358.44 166.949 1358.18 166.795L1383.99 112.572L1417.91 125.598ZM1393.83 224.123L1373.99 246.033C1373.32 245.537 1372.49 245.36 1371.7 245.508L1365.79 224.97L1393.25 222.666C1393.31 223.184 1393.5 223.689 1393.84 224.125L1393.83 224.123ZM1481.61 554.126C1481.07 553.508 1480.32 553.18 1479.57 553.142L1478.38 524.665L1538.08 559.877C1537.97 560.112 1537.89 560.359 1537.85 560.609L1482.32 556.007C1482.32 555.338 1482.08 554.666 1481.61 554.124L1481.61 554.126ZM1479.48 514.001C1479.56 513.94 1479.62 513.875 1479.69 513.808L1537.3 558.795L1478.36 524.028L1477.96 514.692C1478.51 514.619 1479.04 514.392 1479.49 514L1479.48 514.001ZM1538.79 558.932C1538.72 558.993 1538.65 559.059 1538.59 559.125L1480.01 513.384C1480.35 512.865 1480.5 512.261 1480.46 511.658L1534.51 503.627L1540.14 558.27C1539.65 558.364 1539.19 558.584 1538.79 558.93L1538.79 558.932ZM1529.82 482.917L1479.98 510.195C1479.91 510.097 1479.84 509.998 1479.76 509.906C1479.41 509.517 1478.99 509.241 1478.54 509.083L1487.53 473.347L1529.61 481.446C1529.55 481.941 1529.62 482.45 1529.82 482.92L1529.82 482.917ZM1487.14 472.724L1470.09 469.445C1470.17 468.676 1469.94 467.879 1469.39 467.251C1469.27 467.112 1469.14 466.99 1469 466.883L1500.48 418.164C1500.6 418.218 1500.72 418.259 1500.84 418.294L1487.14 472.728L1487.14 472.724ZM1499.46 417.419C1499.63 417.607 1499.81 417.765 1500.01 417.899L1468.55 466.59C1468.07 466.343 1467.54 466.233 1467.02 466.269L1459.58 419.598L1498.83 416.181C1498.93 416.625 1499.15 417.052 1499.47 417.418L1499.46 417.419ZM1458.95 419.114L1410.37 423.34C1410.33 423.132 1410.28 422.928 1410.19 422.735L1453.44 399.659C1453.51 399.767 1453.59 399.873 1453.68 399.974C1454.3 400.68 1455.18 401.012 1456.05 400.955L1458.95 419.111L1458.95 419.114ZM1283.78 249.508C1284.23 249.03 1284.49 248.428 1284.56 247.805L1323.18 248.165L1321.24 289.963C1320.69 289.99 1320.14 290.169 1319.67 290.513L1283.78 249.512L1283.78 249.508ZM1288.26 125.179L1298.2 149.007L1274.6 158.613C1274.49 158.41 1274.37 158.219 1274.21 158.037C1273.96 157.757 1273.68 157.538 1273.37 157.376L1286.54 125.181C1287.1 125.348 1287.69 125.348 1288.25 125.177L1288.26 125.179ZM1274.8 159.111L1298.41 149.503L1305.67 166.9C1305.48 167.003 1305.29 167.128 1305.12 167.277C1304.74 167.604 1304.48 168.009 1304.31 168.446L1274.88 160.454C1274.96 160.01 1274.93 159.55 1274.8 159.114L1274.8 159.111ZM1326.9 137.907C1327 138.081 1327.12 138.246 1327.25 138.402C1327.39 138.555 1327.53 138.687 1327.69 138.804L1308.44 166.922C1307.74 166.535 1306.92 166.451 1306.16 166.688L1298.9 149.298L1326.9 137.903L1326.9 137.907ZM1354.51 171.198C1354.67 171.389 1354.86 171.549 1355.06 171.687L1341.74 195.828L1309.48 171.009C1309.73 170.616 1309.88 170.171 1309.92 169.718L1353.8 169.566C1353.86 170.151 1354.09 170.723 1354.5 171.199L1354.51 171.198ZM1358.5 212.215L1326.53 226.447C1326.49 226.387 1326.44 226.327 1326.39 226.27C1326.23 226.079 1326.03 225.919 1325.84 225.781L1341.91 196.629L1358.74 209.574C1358.24 210.365 1358.15 211.351 1358.5 212.212L1358.5 212.215ZM1453.94 395.873C1453.78 396.02 1453.63 396.182 1453.51 396.355L1422.2 377.824L1432.54 344.798C1432.8 344.751 1433.04 344.668 1433.28 344.551L1454.5 395.496C1454.31 395.6 1454.12 395.724 1453.95 395.875L1453.94 395.873ZM1403.56 364.213L1409.76 359.763L1430.87 344.618C1431.21 344.765 1431.59 344.842 1431.96 344.846L1421.72 377.542L1403.7 366.873C1404.08 366.03 1404.04 365.033 1403.56 364.213ZM1453.23 396.814C1452.88 397.555 1452.86 398.415 1453.18 399.178L1419.08 417.373L1409.93 422.254C1409.86 422.147 1409.79 422.04 1409.7 421.94C1409.39 421.594 1409.03 421.342 1408.63 421.175L1422.04 378.347L1453.23 396.814ZM1429.81 343.855C1429.98 344.04 1430.15 344.194 1430.35 344.326L1403.24 363.772C1403.24 363.772 1403.24 363.769 1403.24 363.766C1402.82 363.281 1402.27 362.977 1401.69 362.845L1404.16 340.978L1429.24 342.843C1429.36 343.203 1429.55 343.544 1429.82 343.847L1429.81 343.855ZM1403.68 340.413L1346.73 336.179C1346.72 335.938 1346.69 335.698 1346.63 335.464L1399.65 315.469L1404.73 313.55C1404.84 313.746 1404.97 313.937 1405.12 314.114C1405.51 314.564 1406.01 314.863 1406.55 315.006L1403.68 340.413ZM1323.37 290.751C1322.92 290.322 1322.36 290.063 1321.77 289.982L1323.71 248.164L1369.34 248.59C1369.39 249.102 1369.56 249.609 1369.88 250.05L1323.37 290.751ZM1237.44 234.822C1237.47 234.678 1237.48 234.533 1237.49 234.385L1286.75 231.013L1282.31 244.676C1281.43 244.479 1280.48 244.688 1279.76 245.32C1279.39 245.642 1279.12 246.037 1278.96 246.466L1266.08 242.856L1237.44 234.822ZM1326.12 230.362C1326.39 230.124 1326.6 229.844 1326.77 229.541L1369.47 247.475C1369.41 247.664 1369.37 247.856 1369.35 248.05L1323.74 247.624L1324.51 231.059C1325.08 230.998 1325.65 230.769 1326.11 230.36L1326.12 230.362ZM1323.65 225.332L1308.1 172.153C1308.4 172.033 1308.69 171.866 1308.94 171.639C1309.02 171.573 1309.09 171.504 1309.16 171.429L1341.49 196.296L1325.37 225.519C1324.83 225.283 1324.23 225.219 1323.65 225.332ZM1306.39 172.285C1306.78 172.372 1307.19 172.38 1307.58 172.304L1323.13 225.484C1322.83 225.604 1322.55 225.77 1322.29 225.997C1321.65 226.555 1321.32 227.328 1321.3 228.112L1287.5 230.428L1306.39 172.29L1306.39 172.285ZM1321.34 228.645C1321.37 228.803 1321.41 228.961 1321.46 229.116L1298.89 239.381L1284.19 246.067C1284.1 245.903 1283.99 245.745 1283.86 245.597C1283.56 245.26 1283.21 245.011 1282.82 244.844L1287.32 230.975L1321.35 228.644L1321.34 228.645ZM1284.41 246.558L1321.68 229.623C1321.78 229.788 1321.89 229.945 1322.02 230.096C1322.54 230.687 1323.24 231.019 1323.97 231.076L1323.2 247.63L1284.56 247.27C1284.54 247.031 1284.49 246.791 1284.41 246.558ZM1371.6 251.182C1372.19 251.312 1372.82 251.261 1373.38 251.016L1385.72 273.663L1405.49 309.938C1405.46 309.963 1405.42 309.99 1405.39 310.018C1404.93 310.421 1404.63 310.938 1404.49 311.49L1355.69 300.39L1371.6 251.179L1371.6 251.182ZM1370.32 246.168C1370.05 246.406 1369.84 246.682 1369.68 246.979L1327.01 228.909C1327.07 228.68 1327.1 228.445 1327.1 228.209L1365.24 225.011L1371.18 245.654C1370.87 245.772 1370.58 245.943 1370.32 246.172L1370.32 246.168ZM1305.05 171.589C1305.3 171.82 1305.58 171.994 1305.88 172.123L1286.92 230.466L1237.46 233.856C1237.4 233.412 1237.23 232.977 1236.96 232.592L1305.05 171.589ZM1323.72 291.159L1370.24 250.458C1370.49 250.702 1370.78 250.888 1371.09 251.019L1355.17 300.274L1324.25 293.241C1324.34 292.527 1324.17 291.777 1323.72 291.162L1323.72 291.159ZM1355.53 300.904L1404.41 312.022C1404.38 312.368 1404.43 312.719 1404.53 313.054L1346.44 334.961C1346.33 334.735 1346.19 334.518 1346.02 334.319C1345.72 333.982 1345.36 333.73 1344.97 333.564L1355.53 300.899L1355.53 300.904ZM1346.69 336.713L1403.62 340.948L1401.16 362.786C1400.44 362.763 1399.72 362.994 1399.15 363.499C1398.95 363.671 1398.78 363.869 1398.64 364.076L1346.52 337.309C1346.6 337.116 1346.66 336.915 1346.69 336.708L1346.69 336.713ZM1402.97 367.866C1403.15 367.705 1403.31 367.526 1403.44 367.335L1421.56 378.065L1408.11 421.016C1407.9 420.971 1407.68 420.949 1407.46 420.949L1401.69 368.514C1402.14 368.41 1402.59 368.196 1402.96 367.864L1402.97 367.866ZM1429.12 342.306L1404.22 340.455L1407.08 315.096C1407.65 315.139 1408.24 315.015 1408.75 314.716L1429.99 339.86C1429.31 340.514 1429.01 341.426 1429.12 342.306ZM1365.09 224.482L1327.06 227.671C1327.02 227.408 1326.94 227.151 1326.82 226.907L1358.75 212.689C1358.83 212.81 1358.91 212.925 1359.01 213.037C1359.79 213.925 1360.99 214.224 1362.05 213.9L1365.09 224.483L1365.09 224.482ZM1359.29 208.94C1359.21 209.006 1359.14 209.076 1359.07 209.151L1342.18 196.155L1355.53 171.943C1355.91 172.107 1356.32 172.194 1356.73 172.184L1360.62 208.283C1360.14 208.379 1359.68 208.598 1359.28 208.942L1359.29 208.94ZM1359.44 105.914L1356.57 166.383C1355.93 166.411 1355.3 166.647 1354.78 167.096C1354.2 167.608 1353.87 168.305 1353.8 169.023L1309.92 169.175C1309.86 168.591 1309.63 168.018 1309.22 167.542C1309.16 167.479 1309.1 167.418 1309.04 167.36L1358.27 105.424C1358.63 105.678 1359.03 105.842 1359.44 105.914ZM1326.69 137.411L1298.7 148.8L1288.75 124.966C1288.95 124.863 1289.13 124.738 1289.3 124.589C1289.63 124.3 1289.88 123.951 1290.04 123.577L1326.62 135.823C1326.5 136.345 1326.52 136.898 1326.69 137.414L1326.69 137.411ZM1273.94 162.133C1274.31 161.805 1274.58 161.4 1274.74 160.963L1303.75 168.84L1269.65 165.255L1270.96 162.649C1271.94 163.03 1273.09 162.869 1273.94 162.133ZM1304.13 169.419C1304.12 170.035 1304.31 170.657 1304.7 171.181L1236.71 232.088L1236.52 232.093C1236.4 231.987 1236.27 231.887 1236.13 231.802L1269.39 165.763L1304.13 169.416L1304.13 169.419ZM1237.29 235.335L1278.82 246.98C1278.66 247.821 1278.88 248.72 1279.49 249.416C1280.42 250.482 1281.96 250.698 1283.14 250.007L1277.22 262.723L1237.14 235.661C1237.2 235.555 1237.25 235.448 1237.29 235.335ZM1283.65 250.173L1319.27 290.853C1319.22 290.904 1319.17 290.958 1319.13 291.012L1277.67 263.02L1283.65 250.168L1283.65 250.173ZM1323.28 295.034C1323.69 294.678 1323.97 294.231 1324.13 293.751L1355 300.776L1344.46 333.397C1343.89 333.271 1343.28 333.315 1342.73 333.539L1322.93 295.292C1323.05 295.215 1323.17 295.132 1323.28 295.035L1323.28 295.034ZM1398.38 364.543C1397.96 365.538 1398.11 366.724 1398.87 367.589C1399.12 367.881 1399.42 368.106 1399.75 368.269L1388.46 397.041L1345.93 338.22C1346.06 338.084 1346.17 337.935 1346.27 337.781L1398.38 364.54L1398.38 364.543ZM1400.25 368.464C1400.54 368.55 1400.85 368.589 1401.15 368.576L1406.93 421.004C1406.62 421.069 1406.32 421.181 1406.03 421.349L1388.83 397.559L1400.25 368.464ZM1410.41 423.863L1459.02 419.633L1466.48 466.34C1466.05 466.449 1465.64 466.655 1465.28 466.967C1465.2 467.039 1465.13 467.113 1465.06 467.189L1409.97 425.382C1410.26 424.921 1410.4 424.395 1410.41 423.863ZM1469.11 471.333C1469.54 470.954 1469.83 470.472 1469.98 469.959L1487 473.235L1478.01 508.94C1477.72 508.897 1477.43 508.897 1477.14 508.938L1468.14 471.894C1468.48 471.774 1468.81 471.591 1469.11 471.333ZM1475.38 513.72C1475.92 514.337 1476.66 514.667 1477.41 514.703L1477.79 523.693L1466.53 517.049C1466.79 516.489 1466.87 515.857 1466.75 515.255L1474.86 512.873C1474.98 513.173 1475.15 513.458 1475.37 513.714L1475.38 513.72ZM1465.81 517.998C1465.98 517.851 1466.13 517.688 1466.25 517.514L1477.82 524.332L1479.02 553.151C1478.89 553.167 1478.76 553.199 1478.62 553.238L1465.19 518.412C1465.41 518.303 1465.62 518.168 1465.81 517.998ZM1537.79 561.135C1537.79 561.804 1538.03 562.476 1538.5 563.018C1538.99 563.581 1539.65 563.904 1540.34 563.985L1540.12 572.305L1482.29 556.537L1537.79 561.135ZM1540.88 563.999C1541.5 563.961 1542.1 563.726 1542.6 563.289C1542.79 563.123 1542.95 562.935 1543.09 562.735L1579.64 582.893C1579.61 582.949 1579.58 583.001 1579.55 583.056L1540.65 572.447L1540.87 563.997L1540.88 563.999ZM1580.25 582.156C1580.14 582.247 1580.05 582.348 1579.96 582.452L1543.35 562.266C1543.54 561.821 1543.62 561.337 1543.58 560.859L1582.32 553.898L1582.16 581.44C1581.48 581.438 1580.8 581.673 1580.25 582.156ZM1543.49 560.328C1543.37 559.92 1543.17 559.532 1542.88 559.191C1542.76 559.056 1542.63 558.936 1542.49 558.829L1581.57 498.719C1581.91 498.837 1582.27 498.887 1582.63 498.871L1582.33 553.354L1543.49 560.33L1543.49 560.328ZM1580.31 497.882C1580.54 498.136 1580.79 498.34 1581.07 498.496L1542.04 558.536C1541.61 558.313 1541.14 558.198 1540.66 558.203L1535.03 503.533L1579.74 496.89C1579.86 497.245 1580.05 497.584 1580.31 497.882ZM1534.45 503.08L1480.38 511.115C1480.34 510.958 1480.29 510.803 1480.23 510.654L1530.06 483.377C1530.13 483.481 1530.21 483.581 1530.29 483.679C1530.88 484.356 1531.72 484.69 1532.55 484.667L1534.45 503.083L1534.45 503.08ZM1530.56 479.579C1530.14 479.945 1529.86 480.408 1529.71 480.906L1487.65 472.81L1501.35 418.377C1501.79 418.418 1502.24 418.363 1502.66 418.201L1531.06 479.223C1530.89 479.319 1530.72 479.436 1530.56 479.575L1530.56 479.579ZM1498.74 415.635L1459.47 419.051L1456.57 400.854C1457 400.744 1457.41 400.54 1457.77 400.227C1458.06 399.967 1458.29 399.66 1458.46 399.329L1498.82 414.795C1498.75 415.07 1498.73 415.351 1498.74 415.633L1498.74 415.635ZM1456.93 395.354C1456.31 395.109 1455.63 395.079 1454.99 395.279L1433.74 344.256C1433.79 344.213 1433.85 344.17 1433.91 344.124C1434.17 343.895 1434.37 343.629 1434.53 343.344L1474.55 360.876L1456.93 395.355L1456.93 395.354ZM1434.75 342.851C1434.96 342.218 1434.94 341.529 1434.7 340.899L1499.78 308.775C1499.87 308.913 1499.96 309.043 1500.07 309.167C1500.26 309.383 1500.47 309.562 1500.7 309.707L1474.8 360.393L1434.75 342.849L1434.75 342.851ZM1499.54 308.293L1434.46 340.416C1434.38 340.278 1434.29 340.148 1434.18 340.025C1434.05 339.881 1433.92 339.752 1433.77 339.641L1452.55 310.107L1499.38 307.671C1499.41 307.881 1499.46 308.09 1499.54 308.291L1499.54 308.293ZM1433.32 339.355C1432.4 338.885 1431.29 338.93 1430.4 339.516L1409.19 314.394C1409.19 314.394 1409.21 314.384 1409.21 314.376C1409.84 313.832 1410.17 313.076 1410.2 312.308L1451.9 310.138L1433.32 339.349L1433.32 339.355ZM1405.94 309.632L1373.85 250.749C1373.95 250.679 1374.05 250.607 1374.14 250.524C1375.35 249.469 1375.48 247.635 1374.42 246.429C1374.4 246.411 1374.38 246.399 1374.37 246.381L1394.19 224.503C1394.72 224.979 1395.39 225.224 1396.07 225.234L1406.48 309.409C1406.29 309.462 1406.11 309.537 1405.93 309.633L1405.94 309.632ZM1393.23 222.113L1365.63 224.428L1362.54 213.683C1362.74 213.579 1362.93 213.453 1363.11 213.301C1363.47 212.987 1363.73 212.601 1363.89 212.183L1393.32 221.588C1393.27 221.76 1393.25 221.937 1393.23 222.112L1393.23 222.113ZM1362.63 208.599C1362.18 208.34 1361.66 208.21 1361.15 208.215L1357.26 172.117C1357.74 172.021 1358.2 171.802 1358.6 171.458C1358.81 171.273 1358.98 171.063 1359.13 170.839L1381.15 182.243L1362.63 208.599ZM1359.38 170.364C1359.7 169.572 1359.66 168.658 1359.24 167.89L1418.38 128.278C1418.41 128.319 1418.44 128.359 1418.47 128.399C1418.57 128.508 1418.67 128.603 1418.78 128.694L1381.46 181.804L1359.38 170.367L1359.38 170.364ZM1420.91 123.595C1420.48 123.559 1420.04 123.617 1419.64 123.77L1378.29 46.4484C1378.39 46.3764 1378.5 46.3011 1378.6 46.2124C1378.65 46.1673 1378.7 46.117 1378.75 46.0699L1427.03 85.8302L1420.91 123.591L1420.91 123.595ZM1379.09 45.6585C1379.65 44.8303 1379.75 43.7688 1379.34 42.8598L1437.37 10.64C1437.43 10.7342 1437.5 10.8285 1437.58 10.9138C1437.98 11.3688 1438.49 11.6722 1439.04 11.8109L1427.13 85.216L1379.08 45.6552L1379.09 45.6585ZM1391.33 93.8276C1391.54 94.0638 1391.77 94.2565 1392.03 94.4099L1383.71 111.875L1362.73 103.82C1362.87 103.332 1362.87 102.813 1362.75 102.319L1390.85 93.0711C1390.97 93.3365 1391.13 93.5934 1391.33 93.8243L1391.33 93.8276ZM1332.2 137.335C1332.49 136.42 1332.31 135.386 1331.65 134.603L1354.34 109.483L1332.2 137.335ZM1269.83 161.849C1270.03 162.068 1270.24 162.252 1270.48 162.398L1269.08 165.183L1222.43 160.276L1269.13 160.208C1269.19 160.794 1269.42 161.37 1269.84 161.847L1269.83 161.849ZM1218.3 162.773C1218.66 162.654 1219 162.466 1219.3 162.201C1219.8 161.762 1220.11 161.191 1220.23 160.588L1268.82 165.699L1235.65 231.559C1235.18 231.378 1234.68 231.317 1234.2 231.385L1218.3 162.773ZM1190.59 235.74C1190.86 235.314 1191.01 234.831 1191.04 234.342L1232.09 232.794C1231.47 233.841 1231.56 235.209 1232.41 236.171C1233.23 237.114 1234.53 237.391 1235.63 236.965L1262.8 291.759L1190.59 235.739L1190.59 235.74ZM1263.55 292.07L1236.11 236.724C1236.25 236.641 1236.38 236.548 1236.5 236.442C1236.63 236.335 1236.73 236.217 1236.83 236.096L1276.99 263.206L1263.55 292.072L1263.55 292.07ZM1263.98 292.423L1277.44 263.508L1318.83 291.451C1318.64 291.8 1318.52 292.182 1318.48 292.569L1263.98 292.423ZM1346.18 339.481L1388.23 397.628L1366.03 454.196C1365.7 454.1 1365.36 454.068 1365.02 454.09L1346.19 339.483L1346.18 339.481ZM1368.12 457.056C1368.14 456.484 1367.99 455.911 1367.66 455.409L1405.4 425.829C1406.47 426.958 1408.24 427.053 1409.42 426.021C1409.5 425.948 1409.58 425.874 1409.65 425.796L1464.74 467.604C1464.56 467.89 1464.44 468.207 1464.36 468.53L1368.13 457.055L1368.12 457.056ZM1467.26 472.041C1467.38 472.038 1467.5 472.029 1467.62 472.011L1476.62 509.055C1476.27 509.175 1475.94 509.358 1475.65 509.617C1474.84 510.323 1474.52 511.377 1474.71 512.357L1466.6 514.738C1466.48 514.438 1466.32 514.153 1466.09 513.898C1465.63 513.37 1465.02 513.05 1464.38 512.945L1467.26 472.047L1467.26 472.041ZM1481.95 557.423C1482.02 557.296 1482.08 557.169 1482.13 557.038L1540.1 572.847L1539.52 594.218C1538.91 594.256 1538.3 594.491 1537.8 594.928C1537.68 595.032 1537.58 595.147 1537.48 595.266L1481.95 557.426L1481.95 557.423ZM1542.4 596.012C1542.28 595.724 1542.12 595.447 1541.9 595.199C1541.41 594.636 1540.75 594.312 1540.06 594.232L1540.63 572.99L1579.36 583.55C1579.25 583.948 1579.23 584.366 1579.29 584.776L1542.4 596.009L1542.4 596.012ZM1583.86 581.976C1583.51 581.725 1583.11 581.558 1582.7 581.48L1582.86 553.791L1609.52 549.001C1609.64 549.356 1609.82 549.698 1610.09 549.997C1610.2 550.124 1610.32 550.235 1610.45 550.338L1583.86 581.972L1583.86 581.976ZM1579.64 495.478C1579.59 495.769 1579.58 496.065 1579.62 496.356L1534.98 502.991L1533.08 484.59C1533.55 484.491 1534 484.275 1534.38 483.935C1534.76 483.602 1535.03 483.196 1535.2 482.756L1579.63 495.475L1579.64 495.478ZM1501.45 412.59C1500.84 412.629 1500.22 412.863 1499.72 413.301C1499.4 413.583 1499.16 413.92 1498.99 414.285L1458.64 398.825C1458.82 398.2 1458.78 397.528 1458.53 396.922L1500.49 374.599C1500.57 374.71 1500.64 374.816 1500.73 374.917C1501.22 375.476 1501.88 375.798 1502.56 375.883L1501.45 412.593L1501.45 412.59ZM1502.62 370.118C1502.04 370.176 1501.48 370.406 1501.01 370.82C1500.75 371.048 1500.54 371.315 1500.38 371.6L1475.29 360.605L1501.18 309.944C1501.45 310.053 1501.73 310.117 1502.02 310.14L1502.62 370.116L1502.62 370.118ZM1498.76 307.163L1452.91 309.547L1455.66 305.213C1456.69 305.739 1457.98 305.624 1458.9 304.815C1459.4 304.376 1459.71 303.8 1459.83 303.189L1498.76 307.16L1498.76 307.163ZM1455.04 300.489C1454.33 301.128 1454.02 302.032 1454.1 302.915L1410.09 311.379C1409.97 310.984 1409.77 310.606 1409.48 310.277C1408.84 309.542 1407.91 309.213 1407.01 309.302L1396.61 225.191C1397.04 225.12 1397.46 224.951 1397.82 224.682L1455.03 300.49L1455.04 300.489ZM1398.85 221.335C1398.73 221.007 1398.55 220.7 1398.31 220.423C1397.25 219.218 1395.42 219.096 1394.21 220.152C1393.91 220.42 1393.67 220.738 1393.51 221.084L1364.04 211.667C1364.06 211.574 1364.07 211.482 1364.08 211.388L1434.94 211.55C1434.95 211.622 1434.96 211.696 1434.97 211.77L1398.85 221.335ZM1437 208.51C1436.61 208.627 1436.24 208.822 1435.92 209.105C1435.71 209.29 1435.54 209.5 1435.39 209.724L1381.95 182.047L1419.22 128.997C1419.78 129.319 1420.43 129.442 1421.06 129.356L1437 208.509L1437 208.51ZM1456.6 107.535C1456.13 107.635 1455.68 107.85 1455.29 108.191C1455.25 108.227 1455.21 108.267 1455.17 108.301L1427.62 85.6087L1439.57 11.8965C1439.71 11.905 1439.86 11.904 1440 11.8916L1456.6 107.534L1456.6 107.535Z" fill="#1CA3A9" fill-opacity="0.4"/>
</g>
<rect y="218" width="1440" height="307" fill="url(#paint0_linear_561_1353)"/>
</g>
<defs>
<linearGradient id="paint0_linear_561_1353" x1="1440" y1="218" x2="404.151" y2="1039.1" gradientUnits="userSpaceOnUse">
<stop stop-color="#1CA3A9" stop-opacity="0.05"/>
<stop offset="1" stop-color="#1CA3A9" stop-opacity="0.1"/>
</linearGradient>
<clipPath id="clip0_561_1353">
<rect width="1440" height="648" fill="white" transform="translate(0 0.96582)"/>
</clipPath>
<clipPath id="clip1_561_1353">
<rect width="440.849" height="804.575" fill="white" transform="translate(1038 132.242) rotate(-22.4397)"/>
</clipPath>
</defs>
</svg>
