<svg width="13" height="10" viewBox="0 0 13 10" fill="none" xmlns="http://www.w3.org/2000/svg">
<g clip-path="url(#clip0_133_6)">
<path fill-rule="evenodd" clip-rule="evenodd" d="M4.95 0.861286C5.16479 1.07607 5.16479 1.42432 4.95 1.6391L1.32782 5.20029L4.95 8.56124C5.16479 8.77603 5.16479 9.12427 4.95 9.33906C4.73521 9.55385 4.38697 9.55385 4.17218 9.33906L0.161091 5.5892C0.0579463 5.48605 0 5.34616 0 5.20029C0 5.05442 0.0579462 4.91452 0.161091 4.81138L4.17218 0.861286C4.38697 0.646498 4.73521 0.646498 4.95 0.861286Z" fill="#564F3C"/>
<path fill-rule="evenodd" clip-rule="evenodd" d="M0 5.20015C0 4.89639 0.246243 4.65015 0.55 4.65015H11.7962C12.1 4.65015 12.3462 4.89639 12.3462 5.20015C12.3462 5.5039 12.1 5.75015 11.7962 5.75015H0.55C0.246243 5.75015 0 5.5039 0 5.20015Z" fill="#564F3C"/>
</g>
<defs>
<clipPath id="clip0_133_6">
<rect width="13" height="9" fill="white" transform="translate(0 0.5)"/>
</clipPath>
</defs>
</svg>
