<svg width="13" height="9" viewBox="0 0 13 9" fill="none" xmlns="http://www.w3.org/2000/svg">
<path fill-rule="evenodd" clip-rule="evenodd" d="M4.95 0.361195C5.16479 0.575983 5.16479 0.924224 4.95 1.13901L1.32782 4.7002L4.95 8.06115C5.16479 8.27594 5.16479 8.62418 4.95 8.83897C4.73521 9.05376 4.38697 9.05376 4.17218 8.83897L0.161091 5.08911C0.0579463 4.98596 0 4.84607 0 4.7002C0 4.55433 0.0579462 4.41443 0.161091 4.31129L4.17218 0.361195C4.38697 0.146407 4.73521 0.146407 4.95 0.361195Z" fill="#3C4656"/>
<path fill-rule="evenodd" clip-rule="evenodd" d="M0 4.70018C0 4.39642 0.246243 4.15018 0.55 4.15018H11.7962C12.1 4.15018 12.3462 4.39642 12.3462 4.70018C12.3462 5.00393 12.1 5.25018 11.7962 5.25018H0.55C0.246243 5.25018 0 5.00393 0 4.70018Z" fill="#3C4656"/>
</svg>
