<svg width="42" height="44" viewBox="0 0 42 44" fill="none" xmlns="http://www.w3.org/2000/svg">
<path d="M37.1 39.5C37.59 39.5 37.8351 39.5 38.0222 39.4046C38.1869 39.3207 38.3207 39.1869 38.4046 39.0222C38.5 38.8351 38.5 38.59 38.5 38.1V19.9C38.5 19.41 38.5 19.1649 38.4046 18.9778C38.3207 18.8131 38.1869 18.6793 38.0222 18.5954C37.8351 18.5 37.59 18.5 37.1 18.5H32.9C32.41 18.5 32.1649 18.5 31.9778 18.5954C31.8131 18.6793 31.6793 18.8131 31.5954 18.9778C31.5 19.1649 31.5 19.41 31.5 19.9V24.1C31.5 24.59 31.5 24.8351 31.4046 25.0222C31.3207 25.1869 31.1869 25.3207 31.0222 25.4046C30.8351 25.5 30.59 25.5 30.1 25.5H25.9C25.41 25.5 25.1649 25.5 24.9778 25.5954C24.8131 25.6793 24.6793 25.8131 24.5954 25.9778C24.5 26.1649 24.5 26.41 24.5 26.9V31.1C24.5 31.59 24.5 31.8351 24.4046 32.0222C24.3207 32.1869 24.1869 32.3207 24.0222 32.4046C23.8351 32.5 23.59 32.5 23.1 32.5H18.9C18.41 32.5 18.1649 32.5 17.9778 32.5954C17.8131 32.6793 17.6793 32.8131 17.5954 32.9778C17.5 33.1649 17.5 33.41 17.5 33.9V38.1C17.5 38.59 17.5 38.8351 17.5954 39.0222C17.6793 39.1869 17.8131 39.3207 17.9778 39.4046C18.1649 39.5 18.41 39.5 18.9 39.5H37.1Z" stroke="#3C3100" stroke-width="1.5" stroke-linecap="round" stroke-linejoin="round"/>
<path d="M17.5 12.9C17.5 12.41 17.5 12.1649 17.5954 11.9778C17.6793 11.8131 17.8131 11.6793 17.9778 11.5954C18.1649 11.5 18.41 11.5 18.9 11.5H23.1C23.59 11.5 23.8351 11.5 24.0222 11.5954C24.1869 11.6793 24.3207 11.8131 24.4046 11.9778C24.5 12.1649 24.5 12.41 24.5 12.9V17.1C24.5 17.59 24.5 17.8351 24.4046 18.0222C24.3207 18.1869 24.1869 18.3207 24.0222 18.4046C23.8351 18.5 23.59 18.5 23.1 18.5H18.9C18.41 18.5 18.1649 18.5 17.9778 18.4046C17.8131 18.3207 17.6793 18.1869 17.5954 18.0222C17.5 17.8351 17.5 17.59 17.5 17.1V12.9Z" stroke="#3C3100" stroke-width="1.5" stroke-linecap="round" stroke-linejoin="round"/>
<path d="M5.25 23.4C5.25 22.91 5.25 22.6649 5.34537 22.4778C5.42926 22.3131 5.56312 22.1793 5.72776 22.0954C5.91493 22 6.15995 22 6.65 22H10.85C11.34 22 11.5851 22 11.7722 22.0954C11.9369 22.1793 12.0707 22.3131 12.1546 22.4778C12.25 22.6649 12.25 22.91 12.25 23.4V27.6C12.25 28.09 12.25 28.3351 12.1546 28.5222C12.0707 28.6869 11.9369 28.8207 11.7722 28.9046C11.5851 29 11.34 29 10.85 29H6.65C6.15995 29 5.91493 29 5.72776 28.9046C5.56312 28.8207 5.42926 28.6869 5.34537 28.5222C5.25 28.3351 5.25 28.09 5.25 27.6V23.4Z" stroke="#3C3100" stroke-width="1.5" stroke-linecap="round" stroke-linejoin="round"/>
<path d="M3.5 5.9C3.5 5.40995 3.5 5.16493 3.59537 4.97776C3.67926 4.81312 3.81312 4.67926 3.97776 4.59537C4.16493 4.5 4.40995 4.5 4.9 4.5H9.1C9.59005 4.5 9.83507 4.5 10.0222 4.59537C10.1869 4.67926 10.3207 4.81312 10.4046 4.97776C10.5 5.16493 10.5 5.40995 10.5 5.9V10.1C10.5 10.5901 10.5 10.8351 10.4046 11.0222C10.3207 11.1869 10.1869 11.3207 10.0222 11.4046C9.83507 11.5 9.59005 11.5 9.1 11.5H4.9C4.40995 11.5 4.16493 11.5 3.97776 11.4046C3.81312 11.3207 3.67926 11.1869 3.59537 11.0222C3.5 10.8351 3.5 10.5901 3.5 10.1V5.9Z" stroke="#3C3100" stroke-width="1.5" stroke-linecap="round" stroke-linejoin="round"/>
</svg>
