<svg width="42" height="42" viewBox="0 0 42 42" fill="none" xmlns="http://www.w3.org/2000/svg">
<path d="M37.1 38.5C37.59 38.5 37.8351 38.5 38.0222 38.4046C38.1869 38.3207 38.3207 38.1869 38.4046 38.0222C38.5 37.8351 38.5 37.59 38.5 37.1V18.9C38.5 18.41 38.5 18.1649 38.4046 17.9778C38.3207 17.8131 38.1869 17.6793 38.0222 17.5954C37.8351 17.5 37.59 17.5 37.1 17.5L32.9 17.5C32.41 17.5 32.1649 17.5 31.9778 17.5954C31.8131 17.6793 31.6793 17.8131 31.5954 17.9778C31.5 18.1649 31.5 18.41 31.5 18.9V23.1C31.5 23.59 31.5 23.8351 31.4046 24.0222C31.3207 24.1869 31.1869 24.3207 31.0222 24.4046C30.8351 24.5 30.59 24.5 30.1 24.5H25.9C25.41 24.5 25.1649 24.5 24.9778 24.5954C24.8131 24.6793 24.6793 24.8131 24.5954 24.9778C24.5 25.1649 24.5 25.41 24.5 25.9V30.1C24.5 30.59 24.5 30.8351 24.4046 31.0222C24.3207 31.1869 24.1869 31.3207 24.0222 31.4046C23.8351 31.5 23.59 31.5 23.1 31.5H18.9C18.41 31.5 18.1649 31.5 17.9778 31.5954C17.8131 31.6793 17.6793 31.8131 17.5954 31.9778C17.5 32.1649 17.5 32.41 17.5 32.9V37.1C17.5 37.59 17.5 37.8351 17.5954 38.0222C17.6793 38.1869 17.8131 38.3207 17.9778 38.4046C18.1649 38.5 18.41 38.5 18.9 38.5L37.1 38.5Z" stroke="#01B69B" stroke-width="1.5" stroke-linecap="round" stroke-linejoin="round"/>
<path d="M17.5 11.9C17.5 11.41 17.5 11.1649 17.5954 10.9778C17.6793 10.8131 17.8131 10.6793 17.9778 10.5954C18.1649 10.5 18.41 10.5 18.9 10.5H23.1C23.59 10.5 23.8351 10.5 24.0222 10.5954C24.1869 10.6793 24.3207 10.8131 24.4046 10.9778C24.5 11.1649 24.5 11.41 24.5 11.9V16.1C24.5 16.59 24.5 16.8351 24.4046 17.0222C24.3207 17.1869 24.1869 17.3207 24.0222 17.4046C23.8351 17.5 23.59 17.5 23.1 17.5H18.9C18.41 17.5 18.1649 17.5 17.9778 17.4046C17.8131 17.3207 17.6793 17.1869 17.5954 17.0222C17.5 16.8351 17.5 16.59 17.5 16.1V11.9Z" stroke="#01B69B" stroke-width="1.5" stroke-linecap="round" stroke-linejoin="round"/>
<path d="M5.25 22.4C5.25 21.91 5.25 21.6649 5.34537 21.4778C5.42926 21.3131 5.56312 21.1793 5.72776 21.0954C5.91493 21 6.15995 21 6.65 21H10.85C11.34 21 11.5851 21 11.7722 21.0954C11.9369 21.1793 12.0707 21.3131 12.1546 21.4778C12.25 21.6649 12.25 21.91 12.25 22.4V26.6C12.25 27.09 12.25 27.3351 12.1546 27.5222C12.0707 27.6869 11.9369 27.8207 11.7722 27.9046C11.5851 28 11.34 28 10.85 28H6.65C6.15995 28 5.91493 28 5.72776 27.9046C5.56312 27.8207 5.42926 27.6869 5.34537 27.5222C5.25 27.3351 5.25 27.09 5.25 26.6V22.4Z" stroke="#01B69B" stroke-width="1.5" stroke-linecap="round" stroke-linejoin="round"/>
<path d="M3.5 4.9C3.5 4.40995 3.5 4.16493 3.59537 3.97776C3.67926 3.81312 3.81312 3.67926 3.97776 3.59537C4.16493 3.5 4.40995 3.5 4.9 3.5H9.1C9.59005 3.5 9.83507 3.5 10.0222 3.59537C10.1869 3.67926 10.3207 3.81312 10.4046 3.97776C10.5 4.16493 10.5 4.40995 10.5 4.9V9.1C10.5 9.59005 10.5 9.83507 10.4046 10.0222C10.3207 10.1869 10.1869 10.3207 10.0222 10.4046C9.83507 10.5 9.59005 10.5 9.1 10.5H4.9C4.40995 10.5 4.16493 10.5 3.97776 10.4046C3.81312 10.3207 3.67926 10.1869 3.59537 10.0222C3.5 9.83507 3.5 9.59005 3.5 9.1V4.9Z" stroke="#01B69B" stroke-width="1.5" stroke-linecap="round" stroke-linejoin="round"/>
</svg>
