<svg width="18" height="19" viewBox="0 0 18 19" fill="none" xmlns="http://www.w3.org/2000/svg">
<path d="M15.75 8H2.25M12 2V5M6 2V5M5.85 17H12.15C13.4101 17 14.0402 17 14.5215 16.7548C14.9448 16.539 15.289 16.1948 15.5048 15.7715C15.75 15.2902 15.75 14.6601 15.75 13.4V7.1C15.75 5.83988 15.75 5.20982 15.5048 4.72852C15.289 4.30516 14.9448 3.96095 14.5215 3.74524C14.0402 3.5 13.4101 3.5 12.15 3.5H5.85C4.58988 3.5 3.95982 3.5 3.47852 3.74524C3.05516 3.96095 2.71095 4.30516 2.49524 4.72852C2.25 5.20982 2.25 5.83988 2.25 7.1V13.4C2.25 14.6601 2.25 15.2902 2.49524 15.7715C2.71095 16.1948 3.05516 16.539 3.47852 16.7548C3.95982 17 4.58988 17 5.85 17Z" stroke="black" stroke-width="1.5" stroke-linecap="round" stroke-linejoin="round"/>
</svg>
