<svg width="50" height="50" viewBox="0 0 50 50" fill="none" xmlns="http://www.w3.org/2000/svg">
<g clip-path="url(#clip0_97_16)">
<path opacity="0.15" d="M25 50C38.8071 50 50 38.8071 50 25C50 11.1929 38.8071 0 25 0C11.1929 0 0 11.1929 0 25C0 38.8071 11.1929 50 25 50Z" fill="#1CA3A9"/>
<path opacity="0.15" d="M24.9997 43.2692C35.0895 43.2692 43.2689 35.0898 43.2689 25C43.2689 14.9102 35.0895 6.73077 24.9997 6.73077C14.9099 6.73077 6.7305 14.9102 6.7305 25C6.7305 35.0898 14.9099 43.2692 24.9997 43.2692Z" fill="#1CA3A9"/>
<path d="M33.3087 31.275C33.3087 31.575 33.242 31.8833 33.1003 32.1833C32.9587 32.4833 32.7753 32.7667 32.5337 33.0333C32.1253 33.4833 31.6753 33.8083 31.167 34.0167C30.667 34.225 30.1253 34.3333 29.542 34.3333C28.692 34.3333 27.7837 34.1333 26.8253 33.725C25.867 33.3167 24.9087 32.7667 23.9587 32.075C23.0003 31.375 22.092 30.6 21.2253 29.7417C20.367 28.875 19.592 27.9667 18.9003 27.0167C18.217 26.0667 17.667 25.1167 17.267 24.175C16.867 23.225 16.667 22.3167 16.667 21.45C16.667 20.8833 16.767 20.3417 16.967 19.8417C17.167 19.3333 17.4837 18.8667 17.9253 18.45C18.4587 17.925 19.042 17.6667 19.6587 17.6667C19.892 17.6667 20.1253 17.7167 20.3337 17.8167C20.5503 17.9167 20.742 18.0667 20.892 18.2833L22.8253 21.0083C22.9753 21.2167 23.0837 21.4083 23.1587 21.5917C23.2337 21.7667 23.2753 21.9417 23.2753 22.1C23.2753 22.3 23.217 22.5 23.1003 22.6917C22.992 22.8833 22.8337 23.0833 22.6337 23.2833L22.0003 23.9417C21.9087 24.0333 21.867 24.1417 21.867 24.275C21.867 24.3417 21.8753 24.4 21.892 24.4667C21.917 24.5333 21.942 24.5833 21.9587 24.6333C22.1087 24.9083 22.367 25.2667 22.7337 25.7C23.1087 26.1333 23.5087 26.575 23.942 27.0167C24.392 27.4583 24.8253 27.8667 25.267 28.2417C25.7003 28.6083 26.0587 28.8583 26.342 29.0083C26.3837 29.025 26.4337 29.05 26.492 29.075C26.5587 29.1 26.6253 29.1083 26.7003 29.1083C26.842 29.1083 26.9503 29.0583 27.042 28.9667L27.6753 28.3417C27.8837 28.1333 28.0837 27.975 28.2753 27.875C28.467 27.7583 28.6587 27.7 28.867 27.7C29.0253 27.7 29.192 27.7333 29.3753 27.8083C29.5587 27.8833 29.7503 27.9917 29.9587 28.1333L32.717 30.0917C32.9337 30.2417 33.0837 30.4167 33.1753 30.625C33.2587 30.8333 33.3087 31.0417 33.3087 31.275Z" stroke="#1CA3A9" stroke-width="1.5" stroke-miterlimit="10"/>
<path d="M30.4167 23.5C30.4167 23 30.025 22.2333 29.4417 21.6083C28.9083 21.0333 28.2 20.5833 27.5 20.5833" stroke="#1CA3A9" stroke-width="1.5" stroke-linecap="round" stroke-linejoin="round"/>
<path d="M33.3333 23.5C33.3333 20.275 30.725 17.6667 27.5 17.6667" stroke="#1CA3A9" stroke-width="1.5" stroke-linecap="round" stroke-linejoin="round"/>
</g>
<defs>
<clipPath id="clip0_97_16">
<rect width="50" height="50" fill="white"/>
</clipPath>
</defs>
</svg>
