<svg width="50" height="52" viewBox="0 0 50 52" fill="none" xmlns="http://www.w3.org/2000/svg">
<mask id="mask0_133_18" style="mask-type:luminance" maskUnits="userSpaceOnUse" x="0" y="1" width="50" height="50">
<path d="M50 1H0V51H50V1Z" fill="white"/>
</mask>
<g mask="url(#mask0_133_18)">
<mask id="mask1_133_18" style="mask-type:luminance" maskUnits="userSpaceOnUse" x="0" y="1" width="50" height="50">
<path d="M50 1H0V51H50V1Z" fill="white"/>
</mask>
<g mask="url(#mask1_133_18)">
<path opacity="0.15" d="M25 51C38.8071 51 50 39.8071 50 26C50 12.1929 38.8071 1 25 1C11.1929 1 0 12.1929 0 26C0 39.8071 11.1929 51 25 51Z" fill="#3C3100"/>
<path opacity="0.15" d="M24.9996 44.2691C35.0894 44.2691 43.2688 36.0897 43.2688 25.9999C43.2688 15.9101 35.0894 7.73071 24.9996 7.73071C14.9098 7.73071 6.73047 15.9101 6.73047 25.9999C6.73047 36.0897 14.9098 44.2691 24.9996 44.2691Z" fill="#3C3100"/>
<path d="M33.3087 32.275C33.3087 32.575 33.242 32.8833 33.1003 33.1833C32.9587 33.4833 32.7753 33.7667 32.5337 34.0333C32.1253 34.4833 31.6753 34.8083 31.167 35.0167C30.667 35.225 30.1253 35.3333 29.542 35.3333C28.692 35.3333 27.7837 35.1333 26.8253 34.725C25.867 34.3167 24.9087 33.7667 23.9587 33.075C23.0003 32.375 22.092 31.6 21.2253 30.7417C20.367 29.875 19.592 28.9667 18.9003 28.0167C18.217 27.0667 17.667 26.1167 17.267 25.175C16.867 24.225 16.667 23.3167 16.667 22.45C16.667 21.8833 16.767 21.3417 16.967 20.8417C17.167 20.3333 17.4837 19.8667 17.9253 19.45C18.4587 18.925 19.042 18.6667 19.6587 18.6667C19.892 18.6667 20.1253 18.7167 20.3337 18.8167C20.5503 18.9167 20.742 19.0667 20.892 19.2833L22.8253 22.0083C22.9753 22.2167 23.0837 22.4083 23.1587 22.5917C23.2337 22.7667 23.2753 22.9417 23.2753 23.1C23.2753 23.3 23.217 23.5 23.1003 23.6917C22.992 23.8833 22.8337 24.0833 22.6337 24.2833L22.0003 24.9417C21.9087 25.0333 21.867 25.1417 21.867 25.275C21.867 25.3417 21.8753 25.4 21.892 25.4667C21.917 25.5333 21.942 25.5833 21.9587 25.6333C22.1087 25.9083 22.367 26.2667 22.7337 26.7C23.1087 27.1333 23.5087 27.575 23.942 28.0167C24.392 28.4583 24.8253 28.8667 25.267 29.2417C25.7003 29.6083 26.0587 29.8583 26.342 30.0083C26.3837 30.025 26.4337 30.05 26.492 30.075C26.5587 30.1 26.6253 30.1083 26.7003 30.1083C26.842 30.1083 26.9503 30.0583 27.042 29.9667L27.6753 29.3417C27.8837 29.1333 28.0837 28.975 28.2753 28.875C28.467 28.7583 28.6587 28.7 28.867 28.7C29.0253 28.7 29.192 28.7333 29.3753 28.8083C29.5587 28.8833 29.7503 28.9917 29.9587 29.1333L32.717 31.0917C32.9337 31.2417 33.0837 31.4167 33.1753 31.625C33.2587 31.8333 33.3087 32.0417 33.3087 32.275Z" stroke="#3C3100" stroke-width="1.5" stroke-miterlimit="10"/>
<path d="M30.4167 24.5C30.4167 24 30.025 23.2333 29.4417 22.6083C28.9083 22.0333 28.2 21.5833 27.5 21.5833" stroke="#3C3100" stroke-width="1.5" stroke-linecap="round" stroke-linejoin="round"/>
<path d="M33.3333 24.5C33.3333 21.275 30.725 18.6667 27.5 18.6667" stroke="#3C3100" stroke-width="1.5" stroke-linecap="round" stroke-linejoin="round"/>
</g>
</g>
</svg>
