<svg width="32" height="33" viewBox="0 0 32 33" fill="none" xmlns="http://www.w3.org/2000/svg">
<g clip-path="url(#clip0_133_42)">
<path d="M16 32.5C24.8366 32.5 32 25.3366 32 16.5C32 7.66344 24.8366 0.5 16 0.5C7.16344 0.5 0 7.66344 0 16.5C0 25.3366 7.16344 32.5 16 32.5Z" fill="#CCCCCC"/>
<path fill-rule="evenodd" clip-rule="evenodd" d="M14.5 12.6464C14.6953 12.8417 14.6953 13.1583 14.5 13.3536L11.2071 16.591L14.5 19.6464C14.6953 19.8417 14.6953 20.1583 14.5 20.3535C14.3047 20.5488 13.9882 20.5488 13.7929 20.3535L10.1464 16.9445C10.0527 16.8508 10 16.7236 10 16.591C10 16.4584 10.0527 16.3312 10.1464 16.2374L13.7929 12.6464C13.9882 12.4512 14.3047 12.4512 14.5 12.6464Z" fill="#564F3C"/>
<path fill-rule="evenodd" clip-rule="evenodd" d="M10 16.5908C10 16.3147 10.2239 16.0908 10.5 16.0908H20.7239C21 16.0908 21.2239 16.3147 21.2239 16.5908C21.2239 16.867 21 17.0908 20.7239 17.0908H10.5C10.2239 17.0908 10 16.867 10 16.5908Z" fill="#564F3C"/>
</g>
<defs>
<clipPath id="clip0_133_42">
<rect width="32" height="32" fill="white" transform="translate(0 0.5)"/>
</clipPath>
</defs>
</svg>
