<svg width="18" height="20" viewBox="0 0 18 20" fill="none" xmlns="http://www.w3.org/2000/svg">
<mask id="mask0_133_74" style="mask-type:luminance" maskUnits="userSpaceOnUse" x="0" y="1" width="18" height="18">
<path d="M18 1H0V19H18V1Z" fill="white"/>
</mask>
<g mask="url(#mask0_133_74)">
<mask id="mask1_133_74" style="mask-type:luminance" maskUnits="userSpaceOnUse" x="0" y="1" width="18" height="18">
<path d="M18 1H0V19H18V1Z" fill="white"/>
</mask>
<g mask="url(#mask1_133_74)">
<path d="M10.1471 7.26389C9.7178 7.56996 9.19243 7.75 8.625 7.75C7.17525 7.75 6 6.57475 6 5.125C6 3.67525 7.17525 2.5 8.625 2.5C9.56474 2.5 10.3891 2.99381 10.8529 3.73611M4.5 16.0654H6.45772C6.71297 16.0654 6.96666 16.0957 7.21411 16.1565L9.28267 16.6592C9.73151 16.7685 10.1991 16.7791 10.6526 16.6911L12.9397 16.2461C13.5439 16.1284 14.0997 15.8391 14.5353 15.4154L16.1534 13.8413C16.6155 13.3925 16.6155 12.6643 16.1534 12.2148C15.7374 11.8101 15.0785 11.7645 14.6078 12.1077L12.7219 13.4836C12.4519 13.6811 12.1232 13.7874 11.7852 13.7874H9.96412L11.1233 13.7873C11.7767 13.7873 12.3059 13.2725 12.3059 12.6369V12.4069C12.3059 11.8791 11.9367 11.419 11.4106 11.2914L9.62145 10.8563C9.33029 10.7857 9.0321 10.75 8.73235 10.75C8.00875 10.75 6.69892 11.3491 6.69892 11.3491L4.5 12.2687M15 5.875C15 7.32475 13.8247 8.5 12.375 8.5C10.9253 8.5 9.75 7.32475 9.75 5.875C9.75 4.42525 10.9253 3.25 12.375 3.25C13.8247 3.25 15 4.42525 15 5.875ZM1.5 11.95V16.3C1.5 16.72 1.5 16.9301 1.58175 17.0905C1.65365 17.2316 1.76839 17.3463 1.90951 17.4183C2.06994 17.5 2.27996 17.5 2.7 17.5H3.3C3.72004 17.5 3.93006 17.5 4.09049 17.4183C4.23161 17.3463 4.34635 17.2316 4.41825 17.0905C4.5 16.9301 4.5 16.72 4.5 16.3V11.95C4.5 11.53 4.5 11.3199 4.41825 11.1595C4.34635 11.0184 4.23161 10.9036 4.09049 10.8317C3.93006 10.75 3.72004 10.75 3.3 10.75H2.7C2.27996 10.75 2.06994 10.75 1.90951 10.8317C1.76839 10.9036 1.65365 11.0184 1.58175 11.1595C1.5 11.3199 1.5 11.53 1.5 11.95Z" stroke="#3C3100" stroke-width="1.5" stroke-linecap="round" stroke-linejoin="round"/>
</g>
</g>
</svg>
