<svg width="20" height="22" viewBox="0 0 20 22" fill="none" xmlns="http://www.w3.org/2000/svg">
<path d="M7.91675 12.4582C7.91675 13.2666 8.54176 13.9166 9.30843 13.9166H10.8751C11.5417 13.9166 12.0834 13.3499 12.0834 12.6416C12.0834 11.8832 11.7501 11.6082 11.2584 11.4332L8.75008 10.5583C8.25841 10.3833 7.92509 10.1166 7.92509 9.34995C7.92509 8.64995 8.46674 8.07495 9.13341 8.07495H10.7001C11.4667 8.07495 12.0918 8.72495 12.0918 9.53329" stroke="#3C3100" stroke-width="1.5" stroke-linecap="round" stroke-linejoin="round"/>
<path d="M10 7.25V14.75" stroke="#3C3100" stroke-width="1.5" stroke-linecap="round" stroke-linejoin="round"/>
<path d="M18.3334 11.0001C18.3334 15.6001 14.6001 19.3335 10.0001 19.3335C5.40008 19.3335 1.66675 15.6001 1.66675 11.0001C1.66675 6.40008 5.40008 2.66675 10.0001 2.66675" stroke="#3C3100" stroke-width="1.5" stroke-linecap="round" stroke-linejoin="round"/>
<path d="M14.1667 3.5V6.83333H17.5001" stroke="#3C3100" stroke-width="1.5" stroke-linecap="round" stroke-linejoin="round"/>
<path d="M18.3334 2.66675L14.1667 6.83341" stroke="#3C3100" stroke-width="1.5" stroke-linecap="round" stroke-linejoin="round"/>
</svg>
