<svg width="25" height="25" viewBox="0 0 25 25" fill="none" xmlns="http://www.w3.org/2000/svg">
<path d="M6.09668 14.8382C6.09668 14.5621 5.87282 14.3382 5.59668 14.3382C5.32054 14.3382 5.09668 14.5621 5.09668 14.8382H6.09668ZM5.59668 18.5H5.09668V19H5.59668V18.5ZM19.1848 18.5V19H19.6848V18.5H19.1848ZM19.6848 14.8382C19.6848 14.5621 19.461 14.3382 19.1848 14.3382C18.9087 14.3382 18.6848 14.5621 18.6848 14.8382H19.6848ZM12.8911 6.5C12.8911 6.22386 12.6673 6 12.3911 6C12.115 6 11.8911 6.22386 11.8911 6.5H12.8911ZM12.0376 16.383C12.2328 16.5782 12.5494 16.5782 12.7447 16.383L15.9267 13.201C16.1219 13.0057 16.1219 12.6891 15.9267 12.4939C15.7314 12.2986 15.4148 12.2986 15.2195 12.4939L12.3911 15.3223L9.56269 12.4939C9.36743 12.2986 9.05085 12.2986 8.85559 12.4939C8.66032 12.6891 8.66032 13.0057 8.85559 13.201L12.0376 16.383ZM5.59668 14.8382H5.09668V18.5H5.59668H6.09668V14.8382H5.59668ZM5.59668 18.5V19H19.1848V18.5V18H5.59668V18.5ZM12.3911 6.5H11.8911V16.0294H12.3911H12.8911V6.5H12.3911ZM19.1848 18.5H19.6848V16.6691H19.1848H18.6848V18.5H19.1848ZM19.1848 16.6691H19.6848V14.8382H19.1848H18.6848V16.6691H19.1848Z" fill="#C9B777"/>
</svg>
