<svg width="25" height="24" viewBox="0 0 25 24" fill="none" xmlns="http://www.w3.org/2000/svg">
<path d="M6.09668 14.3382C6.09668 14.0621 5.87282 13.8382 5.59668 13.8382C5.32054 13.8382 5.09668 14.0621 5.09668 14.3382H6.09668ZM5.59668 18H5.09668V18.5H5.59668V18ZM19.1848 18V18.5H19.6848V18H19.1848ZM19.6848 14.3382C19.6848 14.0621 19.461 13.8382 19.1848 13.8382C18.9087 13.8382 18.6848 14.0621 18.6848 14.3382H19.6848ZM12.8911 6C12.8911 5.72386 12.6673 5.5 12.3911 5.5C12.115 5.5 11.8911 5.72386 11.8911 6H12.8911ZM12.0376 15.883C12.2328 16.0782 12.5494 16.0782 12.7447 15.883L15.9267 12.701C16.1219 12.5057 16.1219 12.1891 15.9267 11.9939C15.7314 11.7986 15.4148 11.7986 15.2195 11.9939L12.3911 14.8223L9.56269 11.9939C9.36743 11.7986 9.05085 11.7986 8.85559 11.9939C8.66032 12.1891 8.66032 12.5057 8.85559 12.701L12.0376 15.883ZM5.59668 14.3382H5.09668V18H5.59668H6.09668V14.3382H5.59668ZM5.59668 18V18.5H19.1848V18V17.5H5.59668V18ZM12.3911 6H11.8911V15.5294H12.3911H12.8911V6H12.3911ZM19.1848 18H19.6848V16.1691H19.1848H18.6848V18H19.1848ZM19.1848 16.1691H19.6848V14.3382H19.1848H18.6848V16.1691H19.1848Z" fill="#00B39F"/>
</svg>
