<svg width="18" height="19" viewBox="0 0 18 19" fill="none" xmlns="http://www.w3.org/2000/svg">
<path d="M2.53942 4.75015C1.97216 4.11616 1.68854 3.79917 1.67784 3.52976C1.66854 3.29573 1.76912 3.07079 1.94972 2.92167C2.15763 2.75 2.58299 2.75 3.43371 2.75H14.5659C15.4166 2.75 15.842 2.75 16.0499 2.92167C16.2305 3.07079 16.3311 3.29573 16.3218 3.52976C16.3111 3.79917 16.0275 4.11616 15.4602 4.75015L11.1805 9.53332C11.0674 9.6597 11.0109 9.72289 10.9706 9.79481C10.9348 9.85859 10.9086 9.92726 10.8927 9.99863C10.8748 10.0791 10.8748 10.1639 10.8748 10.3335V14.3438C10.8748 14.4905 10.8748 14.5638 10.8512 14.6272C10.8303 14.6832 10.7963 14.7334 10.752 14.7736C10.7019 14.8192 10.6338 14.8464 10.4976 14.9009L7.94764 15.9209C7.67199 16.0311 7.53416 16.0863 7.42351 16.0633C7.32676 16.0432 7.24185 15.9857 7.18725 15.9033C7.12481 15.8091 7.12481 15.6607 7.12481 15.3638V10.3335C7.12481 10.1639 7.12481 10.0791 7.1069 9.99863C7.09102 9.92726 7.06478 9.85859 7.02903 9.79481C6.98871 9.72289 6.93217 9.6597 6.8191 9.53332L2.53942 4.75015Z" stroke="#717171" stroke-width="1.5" stroke-linecap="round" stroke-linejoin="round"/>
</svg>
