<svg width="25" height="26" viewBox="0 0 25 26" fill="none" xmlns="http://www.w3.org/2000/svg">
<path d="M13.5 8L12.3845 5.76892C12.0634 5.1268 11.9029 4.80573 11.6634 4.57116C11.4516 4.36373 11.1963 4.20597 10.9161 4.10931C10.5992 4 10.2402 4 9.52229 4H5.7C4.5799 4 4.01984 4 3.59202 4.21799C3.21569 4.40973 2.90973 4.71569 2.71799 5.09202C2.5 5.51984 2.5 6.0799 2.5 7.2V8M2.5 8H17.7C19.3802 8 20.2202 8 20.862 8.32698C21.4265 8.6146 21.8854 9.07354 22.173 9.63803C22.5 10.2798 22.5 11.1198 22.5 12.8V17.2C22.5 18.8802 22.5 19.7202 22.173 20.362C21.8854 20.9265 21.4265 21.3854 20.862 21.673C20.2202 22 19.3802 22 17.7 22H7.3C5.61984 22 4.77976 22 4.13803 21.673C3.57354 21.3854 3.1146 20.9265 2.82698 20.362C2.5 19.7202 2.5 18.8802 2.5 17.2V8ZM12.5 18V12M9.5 15H15.5" stroke="black" stroke-width="1.5" stroke-linecap="round" stroke-linejoin="round"/>
</svg>
