<svg width="20" height="22" viewBox="0 0 20 22" fill="none" xmlns="http://www.w3.org/2000/svg">
<path d="M10.8337 6.83333L9.90404 4.9741C9.6365 4.439 9.50271 4.17144 9.30313 3.97597C9.12664 3.80311 8.91393 3.67164 8.68039 3.59109C8.4163 3.5 8.11716 3.5 7.5189 3.5H4.33366C3.40024 3.5 2.93353 3.5 2.57701 3.68166C2.2634 3.84144 2.00844 4.09641 1.84865 4.41002C1.66699 4.76654 1.66699 5.23325 1.66699 6.16667V6.83333M1.66699 6.83333H14.3337C15.7338 6.83333 16.4339 6.83333 16.9686 7.10582C17.439 7.3455 17.8215 7.72795 18.0612 8.19836C18.3337 8.73314 18.3337 9.4332 18.3337 10.8333V14.5C18.3337 15.9001 18.3337 16.6002 18.0612 17.135C17.8215 17.6054 17.439 17.9878 16.9686 18.2275C16.4339 18.5 15.7338 18.5 14.3337 18.5H5.66699C4.26686 18.5 3.5668 18.5 3.03202 18.2275C2.56161 17.9878 2.17916 17.6054 1.93948 17.135C1.66699 16.6002 1.66699 15.9001 1.66699 14.5V6.83333Z" stroke="#3C3100" stroke-width="1.5" stroke-linecap="round" stroke-linejoin="round"/>
</svg>
