<svg width="20" height="22" viewBox="0 0 20 22" fill="none" xmlns="http://www.w3.org/2000/svg">
<path d="M15.8334 9.33325H4.16678M15.8334 9.33325L17.3869 11.9223C17.735 12.5026 17.9091 12.7927 17.9995 13.105C18.0796 13.3817 18.1113 13.6703 18.0931 13.9578C18.0726 14.2823 17.9656 14.6032 17.7516 15.2452L17.5785 15.7648C17.2506 16.7483 17.0867 17.2401 16.7826 17.6037C16.5142 17.9247 16.1694 18.1732 15.7799 18.3264C15.3388 18.4999 14.8204 18.4999 13.7837 18.4999H6.21648C5.17976 18.4999 4.66139 18.4999 4.22033 18.3264C3.83084 18.1732 3.48604 17.9247 3.21756 17.6037C2.91351 17.2401 2.74959 16.7483 2.42175 15.7648L2.24856 15.2452C2.03457 14.6032 1.92757 14.2823 1.90707 13.9578C1.88891 13.6703 1.92058 13.3817 2.00068 13.105C2.09109 12.7927 2.26516 12.5026 2.61332 11.9223L4.16678 9.33325M15.8334 9.33325L16.1812 8.11621C16.346 7.53923 16.4284 7.25073 16.3637 7.02248C16.307 6.82255 16.1776 6.65102 16.0009 6.54155C15.7992 6.41659 15.4992 6.41659 14.8991 6.41659H5.10109C4.50101 6.41659 4.20097 6.41659 3.99929 6.54155C3.82263 6.65102 3.69324 6.82255 3.63652 7.02248C3.57177 7.25073 3.6542 7.53923 3.81905 8.11622L4.16678 9.33325M10.0001 6.41659H7.05368C6.61955 6.41659 6.2032 6.24099 5.89622 5.92843C5.58924 5.61587 5.41678 5.19195 5.41678 4.74992C5.41678 4.30789 5.58924 3.88397 5.89622 3.57141C6.2032 3.25885 6.61955 3.08325 7.05368 3.08325C9.34535 3.08325 10.0001 6.41659 10.0001 6.41659ZM10.0001 6.41659H12.9465C13.3807 6.41659 13.797 6.24099 14.104 5.92843C14.411 5.61587 14.5834 5.19195 14.5834 4.74992C14.5834 4.30789 14.411 3.88397 14.104 3.57141C13.797 3.25885 13.3807 3.08325 12.9465 3.08325C10.6549 3.08325 10.0001 6.41659 10.0001 6.41659Z" stroke="#3C3100" stroke-width="1.5" stroke-linecap="round" stroke-linejoin="round"/>
</svg>
