<svg width="20" height="20" viewBox="0 0 20 20" fill="none" xmlns="http://www.w3.org/2000/svg">
<path d="M15.8333 8.33331L4.16666 8.33331M15.8333 8.33331L17.3868 10.9224C17.7349 11.5027 17.909 11.7928 17.9994 12.1051C18.0795 12.3818 18.1112 12.6704 18.093 12.9579C18.0725 13.2824 17.9655 13.6033 17.7515 14.2453L17.5784 14.7649C17.2505 15.7484 17.0866 16.2402 16.7825 16.6038C16.5141 16.9248 16.1693 17.1733 15.7798 17.3265C15.3387 17.5 14.8203 17.5 13.7836 17.5L6.21636 17.5C5.17964 17.5 4.66127 17.5 4.22021 17.3265C3.83072 17.1733 3.48592 16.9248 3.21744 16.6038C2.91339 16.2402 2.74947 15.7484 2.42163 14.7649L2.24844 14.2453C2.03445 13.6033 1.92745 13.2824 1.90695 12.9579C1.88879 12.6704 1.92046 12.3818 2.00056 12.1051C2.09097 11.7928 2.26504 11.5027 2.6132 10.9224L4.16666 8.33331M15.8333 8.33331L16.1811 7.11627C16.3459 6.53929 16.4283 6.25079 16.3636 6.02254C16.3069 5.82261 16.1775 5.65108 16.0008 5.54161C15.7991 5.41665 15.4991 5.41665 14.899 5.41665L5.10097 5.41665C4.50089 5.41665 4.20085 5.41665 3.99917 5.54161C3.82251 5.65108 3.69312 5.82261 3.6364 6.02254C3.57165 6.25079 3.65408 6.53929 3.81893 7.11628L4.16666 8.33331M9.99999 5.41665H7.05356C6.61943 5.41665 6.20308 5.24105 5.8961 4.92849C5.58912 4.61593 5.41666 4.19201 5.41666 3.74998C5.41666 3.30795 5.58912 2.88403 5.8961 2.57147C6.20308 2.25891 6.61943 2.08331 7.05356 2.08331C9.34523 2.08331 9.99999 5.41665 9.99999 5.41665ZM9.99999 5.41665H12.9464C13.3806 5.41665 13.7969 5.24105 14.1039 4.92849C14.4109 4.61593 14.5833 4.19201 14.5833 3.74998C14.5833 3.30795 14.4109 2.88403 14.1039 2.57147C13.7969 2.25891 13.3806 2.08331 12.9464 2.08331C10.6548 2.08331 9.99999 5.41665 9.99999 5.41665Z" stroke="#01B69B" stroke-width="1.5" stroke-linecap="round" stroke-linejoin="round"/>
</svg>
