<svg width="24" height="26" viewBox="0 0 24 26" fill="none" xmlns="http://www.w3.org/2000/svg">
<path d="M15.5799 12.9999C15.5799 14.9799 13.9799 16.5799 11.9999 16.5799C10.0199 16.5799 8.41992 14.9799 8.41992 12.9999C8.41992 11.0199 10.0199 9.41992 11.9999 9.41992C13.9799 9.41992 15.5799 11.0199 15.5799 12.9999Z" stroke="#3C3100" stroke-width="1.5" stroke-linecap="round" stroke-linejoin="round"/>
<path d="M11.9998 21.27C15.5298 21.27 18.8198 19.19 21.1098 15.59C22.0098 14.18 22.0098 11.81 21.1098 10.4C18.8198 6.79997 15.5298 4.71997 11.9998 4.71997C8.46984 4.71997 5.17984 6.79997 2.88984 10.4C1.98984 11.81 1.98984 14.18 2.88984 15.59C5.17984 19.19 8.46984 21.27 11.9998 21.27Z" stroke="#3C3100" stroke-width="1.5" stroke-linecap="round" stroke-linejoin="round"/>
</svg>
