<svg width="18" height="20" viewBox="0 0 18 20" fill="none" xmlns="http://www.w3.org/2000/svg">
<path d="M6 13.7501H12M8.26327 3.07306L3.17654 7.0294C2.83652 7.29387 2.6665 7.4261 2.54402 7.5917C2.43552 7.73839 2.3547 7.90365 2.30552 8.07935C2.25 8.2777 2.25 8.49308 2.25 8.92385V14.3501C2.25 15.1902 2.25 15.6102 2.41349 15.9311C2.5573 16.2133 2.78677 16.4428 3.06901 16.5866C3.38988 16.7501 3.80992 16.7501 4.65 16.7501H13.35C14.1901 16.7501 14.6101 16.7501 14.931 16.5866C15.2132 16.4428 15.4427 16.2133 15.5865 15.9311C15.75 15.6102 15.75 15.1902 15.75 14.3501V8.92385C15.75 8.49308 15.75 8.2777 15.6945 8.07935C15.6453 7.90365 15.5645 7.73839 15.456 7.5917C15.3335 7.4261 15.1635 7.29387 14.8235 7.0294L9.73673 3.07306C9.47324 2.86812 9.34149 2.76565 9.19601 2.72626C9.06765 2.69151 8.93235 2.69151 8.80399 2.72626C8.65851 2.76565 8.52677 2.86812 8.26327 3.07306Z" stroke="#3C3100" stroke-width="1.5" stroke-linecap="round" stroke-linejoin="round"/>
</svg>
