<svg width="25" height="24" viewBox="0 0 25 24" fill="none" xmlns="http://www.w3.org/2000/svg">
<path d="M8.5 17.0001H16.5M11.5177 2.76407L4.73539 8.0392C4.28202 8.39182 4.05534 8.56813 3.89203 8.78893C3.74737 8.98452 3.6396 9.20486 3.57403 9.43913C3.5 9.7036 3.5 9.99077 3.5 10.5651V17.8001C3.5 18.9202 3.5 19.4802 3.71799 19.908C3.90973 20.2844 4.21569 20.5903 4.59202 20.7821C5.01984 21.0001 5.57989 21.0001 6.7 21.0001H18.3C19.4201 21.0001 19.9802 21.0001 20.408 20.7821C20.7843 20.5903 21.0903 20.2844 21.282 19.908C21.5 19.4802 21.5 18.9202 21.5 17.8001V10.5651C21.5 9.99077 21.5 9.7036 21.426 9.43913C21.3604 9.20486 21.2526 8.98452 21.108 8.78893C20.9447 8.56813 20.718 8.39182 20.2646 8.0392L13.4823 2.76408C13.131 2.49082 12.9553 2.3542 12.7613 2.30168C12.5902 2.25534 12.4098 2.25534 12.2387 2.30168C12.0447 2.3542 11.869 2.49082 11.5177 2.76407Z" stroke="white" stroke-width="1.07755" stroke-linecap="round" stroke-linejoin="round"/>
</svg>
