<svg width="20" height="22" viewBox="0 0 20 22" fill="none" xmlns="http://www.w3.org/2000/svg">
<path d="M14.5833 10.1667H10.4167M14.5833 13.5H10.4167M14.5833 6.83333H10.4167M7.5 3.5V18.5M6.5 3.5H13.5C14.9001 3.5 15.6002 3.5 16.135 3.77248C16.6054 4.01217 16.9878 4.39462 17.2275 4.86502C17.5 5.3998 17.5 6.09987 17.5 7.5V14.5C17.5 15.9001 17.5 16.6002 17.2275 17.135C16.9878 17.6054 16.6054 17.9878 16.135 18.2275C15.6002 18.5 14.9001 18.5 13.5 18.5H6.5C5.09987 18.5 4.3998 18.5 3.86502 18.2275C3.39462 17.9878 3.01217 17.6054 2.77248 17.135C2.5 16.6002 2.5 15.9001 2.5 14.5V7.5C2.5 6.09987 2.5 5.3998 2.77248 4.86502C3.01217 4.39462 3.39462 4.01217 3.86502 3.77248C4.3998 3.5 5.09987 3.5 6.5 3.5Z" stroke="#3C3100" stroke-linecap="round" stroke-linejoin="round"/>
</svg>
