<svg width="20" height="21" viewBox="0 0 20 21" fill="none" xmlns="http://www.w3.org/2000/svg">
<path d="M14.7826 5.43243V5.44368M0.728516 5.9946C0.728516 4.80184 1.20234 3.65793 2.04574 2.81453C2.88915 1.97112 4.03306 1.4973 5.22581 1.4973H14.2204C15.4132 1.4973 16.5571 1.97112 17.4005 2.81453C18.2439 3.65793 18.7177 4.80184 18.7177 5.9946V14.9892C18.7177 16.1819 18.2439 17.3259 17.4005 18.1693C16.5571 19.0127 15.4132 19.4865 14.2204 19.4865H5.22581C4.03306 19.4865 2.88915 19.0127 2.04574 18.1693C1.20234 17.3259 0.728516 16.1819 0.728516 14.9892V5.9946ZM6.35014 10.4919C6.35014 11.3865 6.7055 12.2444 7.33806 12.8769C7.97061 13.5095 8.82854 13.8649 9.72311 13.8649C10.6177 13.8649 11.4756 13.5095 12.1082 12.8769C12.7407 12.2444 13.0961 11.3865 13.0961 10.4919C13.0961 9.59733 12.7407 8.7394 12.1082 8.10684C11.4756 7.47429 10.6177 7.11892 9.72311 7.11892C8.82854 7.11892 7.97061 7.47429 7.33806 8.10684C6.7055 8.7394 6.35014 9.59733 6.35014 10.4919Z" stroke="#01B69B" stroke-width="1.12432" stroke-linecap="round" stroke-linejoin="round"/>
</svg>
