<svg width="20" height="23" viewBox="0 0 20 23" fill="none" xmlns="http://www.w3.org/2000/svg">
<path d="M14.7826 6.43244V6.44369M0.728516 6.99461C0.728516 5.80185 1.20234 4.65794 2.04574 3.81454C2.88915 2.97113 4.03306 2.49731 5.22581 2.49731H14.2204C15.4132 2.49731 16.5571 2.97113 17.4005 3.81454C18.2439 4.65794 18.7177 5.80185 18.7177 6.99461V15.9892C18.7177 17.1819 18.2439 18.3259 17.4005 19.1693C16.5571 20.0127 15.4132 20.4865 14.2204 20.4865H5.22581C4.03306 20.4865 2.88915 20.0127 2.04574 19.1693C1.20234 18.3259 0.728516 17.1819 0.728516 15.9892V6.99461ZM6.35014 11.4919C6.35014 12.3865 6.7055 13.2444 7.33806 13.8769C7.97061 14.5095 8.82854 14.8649 9.72311 14.8649C10.6177 14.8649 11.4756 14.5095 12.1082 13.8769C12.7407 13.2444 13.0961 12.3865 13.0961 11.4919C13.0961 10.5973 12.7407 9.73941 12.1082 9.10685C11.4756 8.4743 10.6177 8.11893 9.72311 8.11893C8.82854 8.11893 7.97061 8.4743 7.33806 9.10685C6.7055 9.73941 6.35014 10.5973 6.35014 11.4919Z" stroke="#3C3100" stroke-width="1.12432" stroke-linecap="round" stroke-linejoin="round"/>
</svg>
