<svg width="24" height="25" viewBox="0 0 24 25" fill="none" xmlns="http://www.w3.org/2000/svg">
<path d="M9.125 6.025C9.125 4.83489 9.125 4.23983 9.35661 3.78527C9.56034 3.38543 9.88543 3.06034 10.2853 2.85661C10.7398 2.625 11.3349 2.625 12.525 2.625H18.475C19.6651 2.625 20.2602 2.625 20.7147 2.85661C21.1146 3.06034 21.4397 3.38543 21.6434 3.78527C21.875 4.23983 21.875 4.83489 21.875 6.025V9.85C21.875 11.0401 21.875 11.6352 21.6434 12.0897C21.4397 12.4896 21.1146 12.8147 20.7147 13.0184C20.2602 13.25 19.6651 13.25 18.475 13.25H16.6927C16.2506 13.25 16.0296 13.25 15.8182 13.2934C15.6306 13.3319 15.4491 13.3955 15.2786 13.4827C15.0865 13.5808 14.9139 13.7189 14.5687 13.995L12.879 15.3468C12.5843 15.5826 12.4369 15.7005 12.3129 15.7006C12.205 15.7007 12.103 15.6517 12.0357 15.5674C11.9583 15.4705 11.9583 15.2817 11.9583 14.9043V13.25C11.2996 13.25 10.9702 13.25 10.7 13.1776C9.96669 12.9811 9.3939 12.4083 9.19741 11.675C9.125 11.4048 9.125 11.0754 9.125 10.4167V6.025Z" fill="white"/>
<path d="M14.0833 6.16833C14.2081 5.81354 14.4545 5.51438 14.7787 5.32381C15.103 5.13325 15.4842 5.06359 15.8549 5.12717C16.2256 5.19076 16.5618 5.38348 16.804 5.6712C17.0462 5.95893 17.1788 6.32309 17.1782 6.69918C17.1782 7.76089 15.5857 8.29175 15.5857 8.29175" fill="white"/>
<path d="M14.0833 6.16825C14.2081 5.81346 14.4545 5.5143 14.7787 5.32373C15.103 5.13317 15.4842 5.06351 15.8549 5.12709C16.2256 5.19068 16.5618 5.3834 16.804 5.67112C17.0462 5.95885 17.1788 6.32301 17.1782 6.6991C17.1782 7.76081 15.5857 8.29167 15.5857 8.29167M15.6062 10.4167H15.6133M11.9583 13.25V14.9043C11.9583 15.2817 11.9583 15.4705 12.0357 15.5674C12.103 15.6517 12.205 15.7007 12.3129 15.7006C12.4369 15.7005 12.5843 15.5826 12.879 15.3468L14.5687 13.995C14.9139 13.7189 15.0865 13.5808 15.2786 13.4827C15.4491 13.3955 15.6306 13.3319 15.8182 13.2934C16.0296 13.25 16.2506 13.25 16.6927 13.25H18.475C19.6651 13.25 20.2602 13.25 20.7147 13.0184C21.1146 12.8147 21.4397 12.4896 21.6434 12.0897C21.875 11.6352 21.875 11.0401 21.875 9.85V6.025C21.875 4.83489 21.875 4.23983 21.6434 3.78527C21.4397 3.38543 21.1146 3.06034 20.7147 2.85661C20.2602 2.625 19.6651 2.625 18.475 2.625H12.525C11.3349 2.625 10.7398 2.625 10.2853 2.85661C9.88543 3.06034 9.56034 3.38543 9.35661 3.78527C9.125 4.23983 9.125 4.83489 9.125 6.025V10.4167C9.125 11.0754 9.125 11.4048 9.19741 11.675C9.3939 12.4083 9.96669 12.9811 10.7 13.1776C10.9702 13.25 11.2996 13.25 11.9583 13.25Z" stroke="#616161" stroke-width="1.25" stroke-linecap="round" stroke-linejoin="round"/>
<path d="M1.875 14.375C1.875 13.3249 1.875 12.7999 2.07936 12.3988C2.25913 12.046 2.54596 11.7591 2.89877 11.5794C3.29985 11.375 3.8249 11.375 4.875 11.375H10.125C11.1751 11.375 11.7001 11.375 12.1012 11.5794C12.454 11.7591 12.7409 12.046 12.9206 12.3988C13.125 12.7999 13.125 13.3249 13.125 14.375V17.75C13.125 18.8001 13.125 19.3251 12.9206 19.7262C12.7409 20.079 12.454 20.3659 12.1012 20.5456C11.7001 20.75 11.1751 20.75 10.125 20.75H6.05234C5.66231 20.75 5.46729 20.75 5.28076 20.7883C5.11527 20.8222 4.95512 20.8784 4.80468 20.9553C4.63511 21.0419 4.48282 21.1637 4.17826 21.4074L2.68735 22.6001C2.42729 22.8082 2.29727 22.9122 2.18784 22.9123C2.09267 22.9124 2.00264 22.8691 1.94327 22.7948C1.875 22.7092 1.875 22.5427 1.875 22.2097V14.375Z" fill="white"/>
<path d="M4.375 14.8125H7.5M4.375 17H9.375M6.05234 20.75H10.125C11.1751 20.75 11.7001 20.75 12.1012 20.5456C12.454 20.3659 12.7409 20.079 12.9206 19.7262C13.125 19.3251 13.125 18.8001 13.125 17.75V14.375C13.125 13.3249 13.125 12.7999 12.9206 12.3988C12.7409 12.046 12.454 11.7591 12.1012 11.5794C11.7001 11.375 11.1751 11.375 10.125 11.375H4.875C3.8249 11.375 3.29985 11.375 2.89877 11.5794C2.54596 11.7591 2.25913 12.046 2.07936 12.3988C1.875 12.7999 1.875 13.3249 1.875 14.375V22.2097C1.875 22.5427 1.875 22.7092 1.94327 22.7948C2.00264 22.8691 2.09267 22.9124 2.18784 22.9123C2.29727 22.9122 2.42729 22.8082 2.68735 22.6001L4.17826 21.4074C4.48282 21.1637 4.63511 21.0419 4.80468 20.9553C4.95512 20.8784 5.11527 20.8222 5.28076 20.7883C5.46729 20.75 5.66231 20.75 6.05234 20.75Z" stroke="#616161" stroke-width="1.25" stroke-linecap="round" stroke-linejoin="round"/>
</svg>
