<svg width="18" height="20" viewBox="0 0 18 20" fill="none" xmlns="http://www.w3.org/2000/svg">
<path d="M9.75 4.75C9.75 5.57843 7.90317 6.25 5.625 6.25C3.34683 6.25 1.5 5.57843 1.5 4.75M9.75 4.75C9.75 3.92157 7.90317 3.25 5.625 3.25C3.34683 3.25 1.5 3.92157 1.5 4.75M9.75 4.75V5.875M1.5 4.75V13.75C1.5 14.5784 3.34683 15.25 5.625 15.25M5.625 9.25C5.49859 9.25 5.37351 9.24793 5.25 9.24388C3.14756 9.17499 1.5 8.53246 1.5 7.75M5.625 12.25C3.34683 12.25 1.5 11.5784 1.5 10.75M16.5 9.625C16.5 10.4534 14.6532 11.125 12.375 11.125C10.0968 11.125 8.25 10.4534 8.25 9.625M16.5 9.625C16.5 8.79657 14.6532 8.125 12.375 8.125C10.0968 8.125 8.25 8.79657 8.25 9.625M16.5 9.625V15.25C16.5 16.0784 14.6532 16.75 12.375 16.75C10.0968 16.75 8.25 16.0784 8.25 15.25V9.625M16.5 12.4375C16.5 13.2659 14.6532 13.9375 12.375 13.9375C10.0968 13.9375 8.25 13.2659 8.25 12.4375" stroke="#3C3100" stroke-width="1.2" stroke-linecap="round" stroke-linejoin="round"/>
</svg>
