<svg width="20" height="20" viewBox="0 0 20 20" fill="none" xmlns="http://www.w3.org/2000/svg">
<g clip-path="url(#clip0_284_6999)">
<path d="M17.6667 18.3333C17.9001 18.3333 18.0168 18.3333 18.1059 18.2879C18.1843 18.248 18.2481 18.1842 18.288 18.1058C18.3334 18.0167 18.3334 17.9 18.3334 17.6667V8.99999C18.3334 8.76664 18.3334 8.64996 18.288 8.56083C18.2481 8.48243 18.1843 8.41869 18.1059 8.37874C18.0168 8.33333 17.9001 8.33333 17.6667 8.33333L15.6667 8.33332C15.4334 8.33332 15.3167 8.33332 15.2276 8.37874C15.1492 8.41869 15.0854 8.48243 15.0455 8.56083C15.0001 8.64996 15.0001 8.76664 15.0001 8.99999V11C15.0001 11.2333 15.0001 11.35 14.9547 11.4392C14.9147 11.5176 14.851 11.5813 14.7726 11.6212C14.6834 11.6667 14.5668 11.6667 14.3334 11.6667H12.3334C12.1001 11.6667 11.9834 11.6667 11.8943 11.7121C11.8159 11.752 11.7521 11.8158 11.7122 11.8942C11.6667 11.9833 11.6667 12.1 11.6667 12.3333V14.3333C11.6667 14.5667 11.6667 14.6834 11.6213 14.7725C11.5814 14.8509 11.5176 14.9146 11.4392 14.9546C11.3501 15 11.2334 15 11.0001 15H9.00008C8.76673 15 8.65005 15 8.56092 15.0454C8.48252 15.0854 8.41878 15.1491 8.37883 15.2275C8.33342 15.3166 8.33342 15.4333 8.33342 15.6667V17.6667C8.33342 17.9 8.33342 18.0167 8.37883 18.1058C8.41878 18.1842 8.48252 18.248 8.56092 18.2879C8.65005 18.3333 8.76673 18.3333 9.00008 18.3333L17.6667 18.3333Z" stroke="#01B69B" stroke-width="1.5" stroke-linecap="round" stroke-linejoin="round"/>
<path d="M8.33342 5.66666C8.33342 5.4333 8.33342 5.31662 8.37883 5.22749C8.41878 5.14909 8.48252 5.08535 8.56092 5.0454C8.65005 4.99999 8.76673 4.99999 9.00008 4.99999H11.0001C11.2334 4.99999 11.3501 4.99999 11.4392 5.0454C11.5176 5.08535 11.5814 5.14909 11.6213 5.22749C11.6667 5.31662 11.6667 5.4333 11.6667 5.66666V7.66666C11.6667 7.90001 11.6667 8.01669 11.6213 8.10582C11.5814 8.18422 11.5176 8.24796 11.4392 8.28791C11.3501 8.33332 11.2334 8.33332 11.0001 8.33332H9.00008C8.76673 8.33332 8.65005 8.33332 8.56092 8.28791C8.48252 8.24796 8.41878 8.18422 8.37883 8.10582C8.33342 8.01669 8.33342 7.90001 8.33342 7.66666V5.66666Z" stroke="#01B69B" stroke-width="1.5" stroke-linecap="round" stroke-linejoin="round"/>
<path d="M2.50008 10.6667C2.50008 10.4333 2.50008 10.3166 2.5455 10.2275C2.58544 10.1491 2.64918 10.0854 2.72759 10.0454C2.81672 9.99999 2.93339 9.99999 3.16675 9.99999H5.16675C5.4001 9.99999 5.51678 9.99999 5.60591 10.0454C5.68431 10.0854 5.74805 10.1491 5.788 10.2275C5.83341 10.3166 5.83341 10.4333 5.83341 10.6667V12.6667C5.83341 12.9 5.83341 13.0167 5.788 13.1058C5.74805 13.1842 5.68431 13.248 5.60591 13.2879C5.51678 13.3333 5.4001 13.3333 5.16675 13.3333H3.16675C2.93339 13.3333 2.81672 13.3333 2.72759 13.2879C2.64918 13.248 2.58544 13.1842 2.5455 13.1058C2.50008 13.0167 2.50008 12.9 2.50008 12.6667V10.6667Z" stroke="#01B69B" stroke-width="1.5" stroke-linecap="round" stroke-linejoin="round"/>
<path d="M1.66675 2.33332C1.66675 2.09997 1.66675 1.98329 1.71216 1.89416C1.75211 1.81576 1.81585 1.75202 1.89425 1.71207C1.98338 1.66666 2.10006 1.66666 2.33341 1.66666H4.33341C4.56677 1.66666 4.68345 1.66666 4.77258 1.71207C4.85098 1.75202 4.91472 1.81576 4.95467 1.89416C5.00008 1.98329 5.00008 2.09997 5.00008 2.33332V4.33332C5.00008 4.56668 5.00008 4.68336 4.95467 4.77249C4.91472 4.85089 4.85098 4.91463 4.77258 4.95458C4.68345 4.99999 4.56677 4.99999 4.33341 4.99999H2.33341C2.10006 4.99999 1.98338 4.99999 1.89425 4.95458C1.81585 4.91463 1.75211 4.85089 1.71216 4.77249C1.66675 4.68336 1.66675 4.56668 1.66675 4.33332V2.33332Z" stroke="#01B69B" stroke-width="1.5" stroke-linecap="round" stroke-linejoin="round"/>
</g>
<defs>
<clipPath id="clip0_284_6999">
<rect width="20" height="20" fill="white"/>
</clipPath>
</defs>
</svg>
