<svg width="20" height="22" viewBox="0 0 20 22" fill="none" xmlns="http://www.w3.org/2000/svg">
<mask id="mask0_133_129" style="mask-type:luminance" maskUnits="userSpaceOnUse" x="0" y="1" width="20" height="20">
<path d="M20 1H0V21H20V1Z" fill="white"/>
</mask>
<g mask="url(#mask0_133_129)">
<mask id="mask1_133_129" style="mask-type:luminance" maskUnits="userSpaceOnUse" x="0" y="1" width="20" height="20">
<path d="M20 1H0V21H20V1Z" fill="white"/>
</mask>
<g mask="url(#mask1_133_129)">
<path d="M17.6666 19.3335C17.9 19.3335 18.0167 19.3335 18.1058 19.2881C18.1842 19.2482 18.248 19.1844 18.2879 19.106C18.3333 19.0169 18.3333 18.9002 18.3333 18.6669V10.0002C18.3333 9.76682 18.3333 9.65014 18.2879 9.56101C18.248 9.48261 18.1842 9.41887 18.1058 9.37892C18.0167 9.33351 17.9 9.33351 17.6666 9.33351L15.6666 9.3335C15.4333 9.3335 15.3166 9.3335 15.2275 9.37892C15.1491 9.41887 15.0853 9.48261 15.0454 9.56101C15 9.65014 15 9.76682 15 10.0002V12.0002C15 12.2335 15 12.3502 14.9546 12.4394C14.9146 12.5178 14.8509 12.5815 14.7725 12.6214C14.6833 12.6669 14.5667 12.6669 14.3333 12.6669H12.3333C12.1 12.6669 11.9833 12.6669 11.8942 12.7123C11.8158 12.7522 11.752 12.816 11.7121 12.8944C11.6666 12.9835 11.6666 13.1002 11.6666 13.3335V15.3335C11.6666 15.5669 11.6666 15.6836 11.6212 15.7727C11.5813 15.8511 11.5175 15.9148 11.4391 15.9548C11.35 16.0002 11.2333 16.0002 11 16.0002H8.99991C8.76656 16.0002 8.64988 16.0002 8.56075 16.0456C8.48235 16.0856 8.41861 16.1493 8.37866 16.2277C8.33325 16.3168 8.33325 16.4335 8.33325 16.6669V18.6669C8.33325 18.9002 8.33325 19.0169 8.37866 19.106C8.41861 19.1844 8.48235 19.2482 8.56075 19.2881C8.64988 19.3335 8.76656 19.3335 8.99991 19.3335H17.6666Z" stroke="#3C3100" stroke-width="1.5" stroke-linecap="round" stroke-linejoin="round"/>
<path d="M8.33325 6.66667C8.33325 6.43331 8.33325 6.31663 8.37866 6.2275C8.41861 6.1491 8.48235 6.08536 8.56075 6.04541C8.64988 6 8.76656 6 8.99991 6H11C11.2333 6 11.35 6 11.4391 6.04541C11.5175 6.08536 11.5813 6.1491 11.6212 6.2275C11.6666 6.31663 11.6666 6.43331 11.6666 6.66667V8.66667C11.6666 8.90002 11.6666 9.0167 11.6212 9.10583C11.5813 9.18423 11.5175 9.24797 11.4391 9.28792C11.35 9.33333 11.2333 9.33333 11 9.33333H8.99991C8.76656 9.33333 8.64988 9.33333 8.56075 9.28792C8.48235 9.24797 8.41861 9.18423 8.37866 9.10583C8.33325 9.0167 8.33325 8.90002 8.33325 8.66667V6.66667Z" stroke="#3C3100" stroke-width="1.5" stroke-linecap="round" stroke-linejoin="round"/>
<path d="M2.5 11.6667C2.5 11.4333 2.5 11.3166 2.54542 11.2275C2.58536 11.1491 2.6491 11.0854 2.72751 11.0454C2.81664 11 2.93331 11 3.16667 11H5.16667C5.40002 11 5.5167 11 5.60583 11.0454C5.68423 11.0854 5.74797 11.1491 5.78792 11.2275C5.83333 11.3166 5.83333 11.4333 5.83333 11.6667V13.6667C5.83333 13.9 5.83333 14.0167 5.78792 14.1058C5.74797 14.1842 5.68423 14.248 5.60583 14.2879C5.5167 14.3333 5.40002 14.3333 5.16667 14.3333H3.16667C2.93331 14.3333 2.81664 14.3333 2.72751 14.2879C2.6491 14.248 2.58536 14.1842 2.54542 14.1058C2.5 14.0167 2.5 13.9 2.5 13.6667V11.6667Z" stroke="#3C3100" stroke-width="1.5" stroke-linecap="round" stroke-linejoin="round"/>
<path d="M1.66675 3.33341C1.66675 3.10006 1.66675 2.98338 1.71216 2.89425C1.75211 2.81585 1.81585 2.75211 1.89425 2.71216C1.98338 2.66675 2.10006 2.66675 2.33341 2.66675H4.33341C4.56677 2.66675 4.68345 2.66675 4.77258 2.71216C4.85098 2.75211 4.91472 2.81585 4.95467 2.89425C5.00008 2.98338 5.00008 3.10006 5.00008 3.33341V5.33341C5.00008 5.56677 5.00008 5.68345 4.95467 5.77258C4.91472 5.85098 4.85098 5.91472 4.77258 5.95467C4.68345 6.00008 4.56677 6.00008 4.33341 6.00008H2.33341C2.10006 6.00008 1.98338 6.00008 1.89425 5.95467C1.81585 5.91472 1.75211 5.85098 1.71216 5.77258C1.66675 5.68345 1.66675 5.56677 1.66675 5.33341V3.33341Z" stroke="#3C3100" stroke-width="1.5" stroke-linecap="round" stroke-linejoin="round"/>
</g>
</g>
</svg>
