<svg width="18" height="18" viewBox="0 0 18 18" fill="none" xmlns="http://www.w3.org/2000/svg">
<path d="M9.75 3.75C9.75 4.57843 7.90317 5.25 5.625 5.25C3.34683 5.25 1.5 4.57843 1.5 3.75M9.75 3.75C9.75 2.92157 7.90317 2.25 5.625 2.25C3.34683 2.25 1.5 2.92157 1.5 3.75M9.75 3.75V4.875M1.5 3.75V12.75C1.5 13.5784 3.34683 14.25 5.625 14.25M5.625 8.25C5.49859 8.25 5.37351 8.24793 5.25 8.24388C3.14756 8.17499 1.5 7.53246 1.5 6.75M5.625 11.25C3.34683 11.25 1.5 10.5784 1.5 9.75M16.5 8.625C16.5 9.45343 14.6532 10.125 12.375 10.125C10.0968 10.125 8.25 9.45343 8.25 8.625M16.5 8.625C16.5 7.79657 14.6532 7.125 12.375 7.125C10.0968 7.125 8.25 7.79657 8.25 8.625M16.5 8.625V14.25C16.5 15.0784 14.6532 15.75 12.375 15.75C10.0968 15.75 8.25 15.0784 8.25 14.25V8.625M16.5 11.4375C16.5 12.2659 14.6532 12.9375 12.375 12.9375C10.0968 12.9375 8.25 12.2659 8.25 11.4375" stroke="#01B69B" stroke-width="1.2" stroke-linecap="round" stroke-linejoin="round"/>
</svg>
