<svg width="50" height="52" viewBox="0 0 50 52" fill="none" xmlns="http://www.w3.org/2000/svg">
<mask id="mask0_133_158" style="mask-type:luminance" maskUnits="userSpaceOnUse" x="0" y="1" width="50" height="50">
<path d="M50 1H0V51H50V1Z" fill="white"/>
</mask>
<g mask="url(#mask0_133_158)">
<mask id="mask1_133_158" style="mask-type:luminance" maskUnits="userSpaceOnUse" x="0" y="1" width="50" height="50">
<path d="M50 1H0V51H50V1Z" fill="white"/>
</mask>
<g mask="url(#mask1_133_158)">
<path opacity="0.15" d="M25 51C38.8071 51 50 39.8071 50 26C50 12.1929 38.8071 1 25 1C11.1929 1 0 12.1929 0 26C0 39.8071 11.1929 51 25 51Z" fill="#3C3100"/>
<path opacity="0.15" d="M24.9996 44.2691C35.0894 44.2691 43.2688 36.0897 43.2688 25.9999C43.2688 15.9101 35.0894 7.73071 24.9996 7.73071C14.9098 7.73071 6.73047 15.9101 6.73047 25.9999C6.73047 36.0897 14.9098 44.2691 24.9996 44.2691Z" fill="#3C3100"/>
<path d="M25.0004 27.1917C26.4363 27.1917 27.6004 26.0276 27.6004 24.5917C27.6004 23.1557 26.4363 21.9917 25.0004 21.9917C23.5645 21.9917 22.4004 23.1557 22.4004 24.5917C22.4004 26.0276 23.5645 27.1917 25.0004 27.1917Z" stroke="#3C3100" stroke-width="1.5"/>
<path d="M18.0167 23.0751C19.6584 15.8584 30.3501 15.8668 31.9834 23.0834C32.9417 27.3168 30.3084 30.9001 28.0001 33.1168C26.3251 34.7334 23.6751 34.7334 21.9917 33.1168C19.6918 30.9001 17.0584 27.3084 18.0167 23.0751Z" stroke="#3C3100" stroke-width="1.5"/>
</g>
</g>
</svg>
