<svg width="50" height="50" viewBox="0 0 50 50" fill="none" xmlns="http://www.w3.org/2000/svg">
<g clip-path="url(#clip0_97_6)">
<path opacity="0.15" d="M25 50C38.8071 50 50 38.8071 50 25C50 11.1929 38.8071 0 25 0C11.1929 0 0 11.1929 0 25C0 38.8071 11.1929 50 25 50Z" fill="#1CA3A9"/>
<path opacity="0.15" d="M24.9997 43.2692C35.0895 43.2692 43.2689 35.0898 43.2689 25C43.2689 14.9102 35.0895 6.7308 24.9997 6.7308C14.9099 6.7308 6.7305 14.9102 6.7305 25C6.7305 35.0898 14.9099 43.2692 24.9997 43.2692Z" fill="#1CA3A9"/>
<path d="M25.0004 26.1917C26.4363 26.1917 27.6004 25.0276 27.6004 23.5917C27.6004 22.1557 26.4363 20.9917 25.0004 20.9917C23.5645 20.9917 22.4004 22.1557 22.4004 23.5917C22.4004 25.0276 23.5645 26.1917 25.0004 26.1917Z" stroke="#1CA3A9" stroke-width="1.5"/>
<path d="M18.0167 22.075C19.6584 14.8583 30.3501 14.8667 31.9834 22.0833C32.9417 26.3167 30.3084 29.9 28.0001 32.1167C26.3251 33.7333 23.6751 33.7333 21.9917 32.1167C19.6918 29.9 17.0584 26.3083 18.0167 22.075Z" stroke="#1CA3A9" stroke-width="1.5"/>
</g>
<defs>
<clipPath id="clip0_97_6">
<rect width="50" height="50" fill="white"/>
</clipPath>
</defs>
</svg>
