<svg width="18" height="19" viewBox="0 0 18 19" fill="none" xmlns="http://www.w3.org/2000/svg">
<path d="M6 13.25L2.25 9.5M2.25 9.5L6 5.75M2.25 9.5H11.25M9 13.25C9 13.9475 9 14.2962 9.07667 14.5823C9.28472 15.3588 9.8912 15.9653 10.6677 16.1733C10.9538 16.25 11.3025 16.25 12 16.25H12.375C13.4234 16.25 13.9476 16.25 14.361 16.0787C14.9124 15.8504 15.3504 15.4124 15.5787 14.861C15.75 14.4476 15.75 13.9234 15.75 12.875V6.125C15.75 5.07663 15.75 4.55245 15.5787 4.13896C15.3504 3.58765 14.9124 3.14963 14.361 2.92127C13.9476 2.75 13.4234 2.75 12.375 2.75H12C11.3025 2.75 10.9538 2.75 10.6677 2.82667C9.8912 3.03472 9.28472 3.6412 9.07667 4.41766C9 4.70378 9 5.05252 9 5.75" stroke="#323029" stroke-width="1.5" stroke-linecap="round" stroke-linejoin="round"/>
</svg>
