<svg width="50" height="52" viewBox="0 0 50 52" fill="none" xmlns="http://www.w3.org/2000/svg">
<mask id="mask0_133_173" style="mask-type:luminance" maskUnits="userSpaceOnUse" x="0" y="1" width="50" height="50">
<path d="M50 1H0V51H50V1Z" fill="white"/>
</mask>
<g mask="url(#mask0_133_173)">
<mask id="mask1_133_173" style="mask-type:luminance" maskUnits="userSpaceOnUse" x="0" y="1" width="50" height="50">
<path d="M50 1H0V51H50V1Z" fill="white"/>
</mask>
<g mask="url(#mask1_133_173)">
<path opacity="0.15" d="M25 51C38.8071 51 50 39.8071 50 26C50 12.1929 38.8071 1 25 1C11.1929 1 0 12.1929 0 26C0 39.8071 11.1929 51 25 51Z" fill="#3C3100"/>
<path opacity="0.15" d="M24.9997 44.2691C35.0895 44.2691 43.2689 36.0897 43.2689 25.9999C43.2689 15.9101 35.0895 7.73071 24.9997 7.73071C14.9099 7.73071 6.73047 15.9101 6.73047 25.9999C6.73047 36.0897 14.9099 44.2691 24.9997 44.2691Z" fill="#3C3100"/>
<path d="M29.167 33.7083H20.8337C17.792 33.7083 16.042 31.9583 16.042 28.9167V23.0833C16.042 20.0417 17.792 18.2917 20.8337 18.2917H29.167C32.2087 18.2917 33.9587 20.0417 33.9587 23.0833V28.9167C33.9587 31.9583 32.2087 33.7083 29.167 33.7083ZM20.8337 19.5417C18.4503 19.5417 17.292 20.7 17.292 23.0833V28.9167C17.292 31.3 18.4503 32.4583 20.8337 32.4583H29.167C31.5503 32.4583 32.7087 31.3 32.7087 28.9167V23.0833C32.7087 20.7 31.5503 19.5417 29.167 19.5417H20.8337Z" fill="#3C3100"/>
<path d="M25 26.725C24.3 26.725 23.5916 26.5083 23.05 26.0666L20.4416 23.9833C20.175 23.7666 20.125 23.375 20.3416 23.1083C20.5583 22.8416 20.95 22.7916 21.2166 23.0083L23.825 25.0916C24.4583 25.6 25.5333 25.6 26.1666 25.0916L28.775 23.0083C29.0416 22.7916 29.4416 22.8333 29.65 23.1083C29.8666 23.375 29.825 23.775 29.55 23.9833L26.9416 26.0666C26.4083 26.5083 25.7 26.725 25 26.725Z" fill="#3C3100"/>
</g>
</g>
</svg>
