<svg width="50" height="50" viewBox="0 0 50 50" fill="none" xmlns="http://www.w3.org/2000/svg">
<g clip-path="url(#clip0_97_11)">
<path opacity="0.15" d="M25 50C38.8071 50 50 38.8071 50 25C50 11.1929 38.8071 0 25 0C11.1929 0 0 11.1929 0 25C0 38.8071 11.1929 50 25 50Z" fill="#1CA3A9"/>
<path opacity="0.15" d="M24.9997 43.2692C35.0895 43.2692 43.2689 35.0898 43.2689 25C43.2689 14.9102 35.0895 6.73077 24.9997 6.73077C14.9099 6.73077 6.7305 14.9102 6.7305 25C6.7305 35.0898 14.9099 43.2692 24.9997 43.2692Z" fill="#1CA3A9"/>
<path d="M29.167 32.7083H20.8337C17.792 32.7083 16.042 30.9583 16.042 27.9167V22.0833C16.042 19.0417 17.792 17.2917 20.8337 17.2917H29.167C32.2087 17.2917 33.9587 19.0417 33.9587 22.0833V27.9167C33.9587 30.9583 32.2087 32.7083 29.167 32.7083ZM20.8337 18.5417C18.4503 18.5417 17.292 19.7 17.292 22.0833V27.9167C17.292 30.3 18.4503 31.4583 20.8337 31.4583H29.167C31.5503 31.4583 32.7087 30.3 32.7087 27.9167V22.0833C32.7087 19.7 31.5503 18.5417 29.167 18.5417H20.8337Z" fill="#1CA3A9"/>
<path d="M25 25.725C24.3 25.725 23.5916 25.5083 23.05 25.0666L20.4416 22.9833C20.175 22.7666 20.125 22.375 20.3416 22.1083C20.5583 21.8416 20.95 21.7916 21.2166 22.0083L23.825 24.0916C24.4583 24.6 25.5333 24.6 26.1666 24.0916L28.775 22.0083C29.0416 21.7916 29.4416 21.8333 29.65 22.1083C29.8666 22.375 29.825 22.775 29.55 22.9833L26.9416 25.0666C26.4083 25.5083 25.7 25.725 25 25.725Z" fill="#1CA3A9"/>
</g>
<defs>
<clipPath id="clip0_97_11">
<rect width="50" height="50" fill="white"/>
</clipPath>
</defs>
</svg>
