<svg width="20" height="22" viewBox="0 0 20 22" fill="none" xmlns="http://www.w3.org/2000/svg">
<mask id="mask0_133_190" style="mask-type:luminance" maskUnits="userSpaceOnUse" x="0" y="1" width="20" height="20">
<path d="M20 1H0V21H20V1Z" fill="white"/>
</mask>
<g mask="url(#mask0_133_190)">
<mask id="mask1_133_190" style="mask-type:luminance" maskUnits="userSpaceOnUse" x="0" y="1" width="20" height="20">
<path d="M20 1H0V21H20V1Z" fill="white"/>
</mask>
<g mask="url(#mask1_133_190)">
<path d="M17.6668 19.3335C17.9001 19.3335 18.0168 19.3335 18.106 19.288C18.1844 19.2481 18.2481 19.1844 18.288 19.106C18.3335 19.0168 18.3335 18.9001 18.3335 18.6668V10.0002C18.3335 9.76682 18.3335 9.65014 18.288 9.56101C18.2481 9.48261 18.1844 9.41887 18.106 9.37892C18.0168 9.33351 17.9001 9.33351 17.6668 9.33351L15.6668 9.3335C15.4334 9.3335 15.3168 9.3335 15.2276 9.37892C15.1492 9.41887 15.0855 9.48261 15.0455 9.56101C15.0001 9.65014 15.0001 9.76682 15.0001 10.0002V12.0001C15.0001 12.2335 15.0001 12.3502 14.9547 12.4393C14.9148 12.5177 14.851 12.5814 14.7726 12.6214C14.6835 12.6668 14.5668 12.6668 14.3335 12.6668H12.3335C12.1001 12.6668 11.9834 12.6668 11.8943 12.7122C11.8159 12.7521 11.7521 12.8159 11.7122 12.8943C11.6668 12.9834 11.6668 13.1001 11.6668 13.3335V15.3335C11.6668 15.5668 11.6668 15.6835 11.6214 15.7726C11.5814 15.851 11.5177 15.9148 11.4393 15.9547C11.3502 16.0001 11.2335 16.0001 11.0001 16.0001H9.00017C8.76682 16.0001 8.65014 16.0001 8.56101 16.0455C8.48261 16.0855 8.41887 16.1492 8.37892 16.2276C8.3335 16.3168 8.3335 16.4334 8.3335 16.6668V18.6668C8.3335 18.9001 8.3335 19.0168 8.37892 19.1059C8.41887 19.1843 8.48261 19.2481 8.56101 19.288C8.65014 19.3335 8.76682 19.3335 9.00017 19.3335H17.6668Z" stroke="#3C3100" stroke-width="1.5" stroke-linecap="round" stroke-linejoin="round"/>
<path d="M8.3335 6.66667C8.3335 6.43331 8.3335 6.31663 8.37892 6.2275C8.41887 6.1491 8.48261 6.08536 8.56101 6.04541C8.65014 6 8.76682 6 9.00017 6H11.0001C11.2335 6 11.3502 6 11.4393 6.04541C11.5177 6.08536 11.5814 6.1491 11.6214 6.2275C11.6668 6.31663 11.6668 6.43331 11.6668 6.66667V8.66667C11.6668 8.90002 11.6668 9.0167 11.6214 9.10583C11.5814 9.18423 11.5177 9.24797 11.4393 9.28792C11.3502 9.33333 11.2335 9.33333 11.0001 9.33333H9.00017C8.76682 9.33333 8.65014 9.33333 8.56101 9.28792C8.48261 9.24797 8.41887 9.18423 8.37892 9.10583C8.3335 9.0167 8.3335 8.90002 8.3335 8.66667V6.66667Z" stroke="#3C3100" stroke-width="1.5" stroke-linecap="round" stroke-linejoin="round"/>
<path d="M2.5 11.6667C2.5 11.4333 2.5 11.3167 2.54541 11.2275C2.58536 11.1491 2.6491 11.0854 2.7275 11.0454C2.81663 11 2.93331 11 3.16667 11H5.16667C5.40002 11 5.5167 11 5.60583 11.0454C5.68423 11.0854 5.74797 11.1491 5.78792 11.2275C5.83333 11.3167 5.83333 11.4333 5.83333 11.6667V13.6667C5.83333 13.9 5.83333 14.0167 5.78792 14.1059C5.74797 14.1843 5.68423 14.248 5.60583 14.2879C5.5167 14.3334 5.40002 14.3334 5.16667 14.3334H3.16667C2.93331 14.3334 2.81663 14.3334 2.7275 14.2879C2.6491 14.248 2.58536 14.1843 2.54541 14.1059C2.5 14.0167 2.5 13.9 2.5 13.6667V11.6667Z" stroke="#3C3100" stroke-width="1.5" stroke-linecap="round" stroke-linejoin="round"/>
<path d="M1.66675 3.33341C1.66675 3.10006 1.66675 2.98338 1.71216 2.89425C1.75211 2.81585 1.81585 2.75211 1.89425 2.71216C1.98338 2.66675 2.10006 2.66675 2.33341 2.66675H4.33341C4.56677 2.66675 4.68345 2.66675 4.77258 2.71216C4.85098 2.75211 4.91472 2.81585 4.95467 2.89425C5.00008 2.98338 5.00008 3.10006 5.00008 3.33341V5.33341C5.00008 5.56677 5.00008 5.68345 4.95467 5.77258C4.91472 5.85098 4.85098 5.91472 4.77258 5.95467C4.68345 6.00008 4.56677 6.00008 4.33341 6.00008H2.33341C2.10006 6.00008 1.98338 6.00008 1.89425 5.95467C1.81585 5.91472 1.75211 5.85098 1.71216 5.77258C1.66675 5.68345 1.66675 5.56677 1.66675 5.33341V3.33341Z" stroke="#3C3100" stroke-width="1.5" stroke-linecap="round" stroke-linejoin="round"/>
</g>
</g>
</svg>
