<svg width="20" height="20" viewBox="0 0 20 20" fill="none" xmlns="http://www.w3.org/2000/svg">
<g clip-path="url(#clip0_284_7155)">
<path d="M17.6667 18.3334C17.9 18.3334 18.0167 18.3334 18.1059 18.2879C18.1843 18.248 18.248 18.1843 18.2879 18.1059C18.3334 18.0167 18.3334 17.9 18.3334 17.6667V9.00002C18.3334 8.76667 18.3334 8.64999 18.2879 8.56086C18.248 8.48246 18.1843 8.41872 18.1059 8.37877C18.0167 8.33336 17.9 8.33336 17.6667 8.33336L15.6667 8.33335C15.4333 8.33335 15.3167 8.33335 15.2275 8.37877C15.1491 8.41872 15.0854 8.48246 15.0454 8.56086C15 8.64999 15 8.76667 15 9.00002V11C15 11.2334 15 11.3501 14.9546 11.4392C14.9147 11.5176 14.8509 11.5813 14.7725 11.6213C14.6834 11.6667 14.5667 11.6667 14.3334 11.6667H12.3334C12.1 11.6667 11.9833 11.6667 11.8942 11.7121C11.8158 11.752 11.752 11.8158 11.7121 11.8942C11.6667 11.9833 11.6667 12.1 11.6667 12.3334V14.3334C11.6667 14.5667 11.6667 14.6834 11.6213 14.7725C11.5813 14.8509 11.5176 14.9147 11.4392 14.9546C11.3501 15 11.2334 15 11 15H9.00002C8.76667 15 8.64999 15 8.56086 15.0454C8.48246 15.0854 8.41872 15.1491 8.37877 15.2275C8.33335 15.3167 8.33335 15.4333 8.33335 15.6667V17.6667C8.33335 17.9 8.33335 18.0167 8.37877 18.1058C8.41872 18.1842 8.48246 18.248 8.56086 18.2879C8.64999 18.3334 8.76667 18.3334 9.00002 18.3334L17.6667 18.3334Z" stroke="#01B69B" stroke-width="1.5" stroke-linecap="round" stroke-linejoin="round"/>
<path d="M8.33335 5.66669C8.33335 5.43333 8.33335 5.31665 8.37877 5.22752C8.41872 5.14912 8.48246 5.08538 8.56086 5.04543C8.64999 5.00002 8.76667 5.00002 9.00002 5.00002H11C11.2334 5.00002 11.3501 5.00002 11.4392 5.04543C11.5176 5.08538 11.5813 5.14912 11.6213 5.22752C11.6667 5.31665 11.6667 5.43333 11.6667 5.66669V7.66669C11.6667 7.90004 11.6667 8.01672 11.6213 8.10585C11.5813 8.18425 11.5176 8.24799 11.4392 8.28794C11.3501 8.33335 11.2334 8.33335 11 8.33335H9.00002C8.76667 8.33335 8.64999 8.33335 8.56086 8.28794C8.48246 8.24799 8.41872 8.18425 8.37877 8.10585C8.33335 8.01672 8.33335 7.90004 8.33335 7.66669V5.66669Z" stroke="#01B69B" stroke-width="1.5" stroke-linecap="round" stroke-linejoin="round"/>
<path d="M2.50002 10.6667C2.50002 10.4333 2.50002 10.3167 2.54543 10.2275C2.58538 10.1491 2.64912 10.0854 2.72752 10.0454C2.81665 10 2.93333 10 3.16669 10H5.16669C5.40004 10 5.51672 10 5.60585 10.0454C5.68425 10.0854 5.74799 10.1491 5.78794 10.2275C5.83335 10.3167 5.83335 10.4333 5.83335 10.6667V12.6667C5.83335 12.9 5.83335 13.0167 5.78794 13.1059C5.74799 13.1843 5.68425 13.248 5.60585 13.2879C5.51672 13.3334 5.40004 13.3334 5.16669 13.3334H3.16669C2.93333 13.3334 2.81665 13.3334 2.72752 13.2879C2.64912 13.248 2.58538 13.1843 2.54543 13.1059C2.50002 13.0167 2.50002 12.9 2.50002 12.6667V10.6667Z" stroke="#01B69B" stroke-width="1.5" stroke-linecap="round" stroke-linejoin="round"/>
<path d="M1.66669 2.33335C1.66669 2.1 1.66669 1.98332 1.7121 1.89419C1.75205 1.81579 1.81579 1.75205 1.89419 1.7121C1.98332 1.66669 2.1 1.66669 2.33335 1.66669H4.33335C4.56671 1.66669 4.68339 1.66669 4.77252 1.7121C4.85092 1.75205 4.91466 1.81579 4.95461 1.89419C5.00002 1.98332 5.00002 2.1 5.00002 2.33335V4.33335C5.00002 4.56671 5.00002 4.68339 4.95461 4.77252C4.91466 4.85092 4.85092 4.91466 4.77252 4.95461C4.68339 5.00002 4.56671 5.00002 4.33335 5.00002H2.33335C2.1 5.00002 1.98332 5.00002 1.89419 4.95461C1.81579 4.91466 1.75205 4.85092 1.7121 4.77252C1.66669 4.68339 1.66669 4.56671 1.66669 4.33335V2.33335Z" stroke="#01B69B" stroke-width="1.5" stroke-linecap="round" stroke-linejoin="round"/>
</g>
<defs>
<clipPath id="clip0_284_7155">
<rect width="20" height="20" fill="white"/>
</clipPath>
</defs>
</svg>
