<svg width="25" height="25" viewBox="0 0 25 25" fill="none" xmlns="http://www.w3.org/2000/svg">
<path d="M12.3362 7.89579C11.6602 7.89579 11.1123 8.44145 11.1123 9.11454C11.1123 9.56327 10.747 9.92704 10.2964 9.92704C9.84581 9.92704 9.48051 9.56327 9.48051 9.11454C9.48051 7.54398 10.759 6.27079 12.3362 6.27079C13.9133 6.27079 15.1918 7.54398 15.1918 9.11454C15.1918 10.1582 14.6268 11.0695 13.7887 11.5633C13.5747 11.6894 13.398 11.8271 13.2829 11.9622C13.1711 12.0933 13.1521 12.1789 13.1521 12.2291V13.5833C13.1521 14.032 12.7868 14.3958 12.3362 14.3958C11.8856 14.3958 11.5203 14.032 11.5203 13.5833V12.2291C11.5203 11.6811 11.7612 11.2364 12.0387 10.9107C12.3129 10.589 12.6548 10.3433 12.9578 10.1647C13.3201 9.9513 13.56 9.56039 13.56 9.11454C13.56 8.44145 13.0121 7.89579 12.3362 7.89579Z" fill="#01B69B"/>
<path d="M12.3362 17.9166C12.937 17.9166 13.424 17.4316 13.424 16.8333C13.424 16.235 12.937 15.75 12.3362 15.75C11.7354 15.75 11.2483 16.235 11.2483 16.8333C11.2483 17.4316 11.7354 17.9166 12.3362 17.9166Z" fill="#01B69B"/>
<path fill-rule="evenodd" clip-rule="evenodd" d="M12.2737 0.854126H12.3986C14.9098 0.854113 16.8778 0.854102 18.4133 1.05969C19.985 1.27011 21.2252 1.70923 22.1986 2.67861C23.172 3.64798 23.613 4.88301 23.8243 6.44814C24.0307 7.97725 24.0307 9.93704 24.0307 12.4378V12.5621C24.0307 15.0629 24.0307 17.0227 23.8243 18.5518C23.613 20.1169 23.172 21.3519 22.1986 22.3213C21.2252 23.2907 19.985 23.7298 18.4133 23.9402C16.8778 24.1458 14.9098 24.1458 12.3986 24.1458H12.2737C9.76252 24.1458 7.79453 24.1458 6.25902 23.9402C4.68734 23.7298 3.44715 23.2907 2.47372 22.3213C1.50028 21.3519 1.05933 20.1169 0.848021 18.5518C0.641578 17.0227 0.641588 15.0629 0.641602 12.5621V12.4378C0.641588 9.93705 0.641578 7.97725 0.848021 6.44814C1.05933 4.88301 1.50028 3.64798 2.47372 2.67861C3.44715 1.70923 4.68734 1.27011 6.25902 1.05969C7.79453 0.854102 9.76253 0.854113 12.2737 0.854126ZM6.47646 2.67019C5.08572 2.85639 4.24728 3.21053 3.62757 3.82766C3.00786 4.44478 2.65225 5.27973 2.46527 6.66467C2.27513 8.07298 2.2734 9.92355 2.2734 12.5C2.2734 15.0764 2.27513 16.9269 2.46527 18.3353C2.65225 19.7202 3.00786 20.5551 3.62757 21.1723C4.24728 21.7894 5.08572 22.1435 6.47646 22.3297C7.89066 22.5191 9.74897 22.5208 12.3362 22.5208C14.9234 22.5208 16.7817 22.5191 18.1959 22.3297C19.5866 22.1435 20.425 21.7894 21.0448 21.1723C21.6645 20.5551 22.0201 19.7202 22.2071 18.3353C22.3972 16.9269 22.3989 15.0764 22.3989 12.5C22.3989 9.92355 22.3972 8.07298 22.2071 6.66467C22.0201 5.27973 21.6645 4.44478 21.0448 3.82766C20.425 3.21053 19.5866 2.85639 18.1959 2.67019C16.7817 2.48085 14.9234 2.47913 12.3362 2.47913C9.74897 2.47913 7.89066 2.48085 6.47646 2.67019Z" fill="#01B69B"/>
</svg>
