<svg width="25" height="27" viewBox="0 0 25 27" fill="none" xmlns="http://www.w3.org/2000/svg">
<path d="M12.3362 8.89575C11.6602 8.89575 11.1123 9.44141 11.1123 10.1145C11.1123 10.5632 10.747 10.927 10.2964 10.927C9.84577 10.927 9.48047 10.5632 9.48047 10.1145C9.48047 8.54394 10.759 7.27075 12.3362 7.27075C13.9133 7.27075 15.1918 8.54394 15.1918 10.1145C15.1918 11.1582 14.6268 12.0695 13.7887 12.5633C13.5747 12.6894 13.398 12.8271 13.2829 12.9622C13.1711 13.0933 13.1521 13.1789 13.1521 13.2291V14.5833C13.1521 15.032 12.7868 15.3958 12.3362 15.3958C11.8856 15.3958 11.5203 15.032 11.5203 14.5833V13.2291C11.5203 12.6811 11.7612 12.2364 12.0387 11.9107C12.3129 11.589 12.6548 11.3433 12.9578 11.1647C13.3201 10.9513 13.56 10.5604 13.56 10.1145C13.56 9.44141 13.0121 8.89575 12.3362 8.89575Z" fill="#3C3100"/>
<path d="M12.3362 18.9166C12.937 18.9166 13.424 18.4316 13.424 17.8333C13.424 17.235 12.937 16.75 12.3362 16.75C11.7354 16.75 11.2483 17.235 11.2483 17.8333C11.2483 18.4316 11.7354 18.9166 12.3362 18.9166Z" fill="#3C3100"/>
<path fill-rule="evenodd" clip-rule="evenodd" d="M12.2737 1.854H12.3986C14.9098 1.85399 16.8778 1.85398 18.4133 2.05957C19.985 2.26999 21.2252 2.70911 22.1986 3.67849C23.172 4.64786 23.613 5.88289 23.8243 7.44802C24.0307 8.97713 24.0307 10.9369 24.0307 13.4377V13.562C24.0307 16.0628 24.0307 18.0226 23.8243 19.5517C23.613 21.1168 23.172 22.3518 22.1986 23.3212C21.2252 24.2906 19.985 24.7297 18.4133 24.9401C16.8778 25.1457 14.9098 25.1457 12.3986 25.1457H12.2737C9.76252 25.1457 7.79453 25.1457 6.25902 24.9401C4.68734 24.7297 3.44715 24.2906 2.47372 23.3212C1.50028 22.3518 1.05933 21.1168 0.848021 19.5517C0.641578 18.0226 0.641588 16.0628 0.641602 13.562V13.4377C0.641588 10.9369 0.641578 8.97713 0.848021 7.44802C1.05933 5.88289 1.50028 4.64786 2.47372 3.67849C3.44715 2.70911 4.68734 2.26999 6.25902 2.05957C7.79453 1.85398 9.76253 1.85399 12.2737 1.854ZM6.47646 3.67007C5.08572 3.85627 4.24728 4.21041 3.62757 4.82754C3.00786 5.44466 2.65225 6.27961 2.46527 7.66455C2.27513 9.07286 2.2734 10.9234 2.2734 13.4999C2.2734 16.0763 2.27513 17.9268 2.46527 19.3352C2.65225 20.7201 3.00786 21.555 3.62757 22.1722C4.24728 22.7893 5.08572 23.1434 6.47646 23.3296C7.89066 23.519 9.74897 23.5207 12.3362 23.5207C14.9234 23.5207 16.7817 23.519 18.1959 23.3296C19.5866 23.1434 20.425 22.7893 21.0448 22.1722C21.6645 21.555 22.0201 20.7201 22.2071 19.3352C22.3972 17.9268 22.3989 16.0763 22.3989 13.4999C22.3989 10.9234 22.3972 9.07286 22.2071 7.66455C22.0201 6.27961 21.6645 5.44466 21.0448 4.82754C20.425 4.21041 19.5866 3.85627 18.1959 3.67007C16.7817 3.48073 14.9234 3.47901 12.3362 3.47901C9.74897 3.47901 7.89066 3.48073 6.47646 3.67007Z" fill="#3C3100"/>
</svg>
