<svg width="18" height="20" viewBox="0 0 18 20" fill="none" xmlns="http://www.w3.org/2000/svg">
<path d="M9.69 2.69488L14.5725 5.32738C15.1425 5.63488 15.1425 6.51238 14.5725 6.81988L9.69 9.45238C9.255 9.68488 8.745 9.68488 8.31 9.45238L3.4275 6.81988C2.8575 6.51238 2.8575 5.63488 3.4275 5.32738L8.31 2.69488C8.745 2.46238 9.255 2.46238 9.69 2.69488Z" stroke="#3C3100" stroke-width="1.5" stroke-linecap="round" stroke-linejoin="round"/>
<path d="M2.7075 8.59726L7.245 10.8698C7.8075 11.1548 8.1675 11.7323 8.1675 12.3623V16.6523C8.1675 17.2748 7.515 17.6723 6.96 17.3948L2.4225 15.1223C1.86 14.8373 1.5 14.2598 1.5 13.6298V9.33976C1.5 8.71726 2.1525 8.31976 2.7075 8.59726Z" stroke="#3C3100" stroke-width="1.5" stroke-linecap="round" stroke-linejoin="round"/>
<path d="M15.2925 8.59726L10.755 10.8698C10.1925 11.1548 9.83252 11.7323 9.83252 12.3623V16.6523C9.83252 17.2748 10.485 17.6723 11.04 17.3948L15.5775 15.1223C16.14 14.8373 16.5 14.2598 16.5 13.6298V9.33976C16.5 8.71726 15.8475 8.31976 15.2925 8.59726Z" stroke="#3C3100" stroke-width="1.5" stroke-linecap="round" stroke-linejoin="round"/>
</svg>
