<svg width="18" height="18" viewBox="0 0 18 18" fill="none" xmlns="http://www.w3.org/2000/svg">
<g clip-path="url(#clip0_1_2)">
<path d="M9.69 1.69488L14.5725 4.32738C15.1425 4.63488 15.1425 5.51238 14.5725 5.81988L9.69 8.45238C9.255 8.68488 8.745 8.68488 8.31 8.45238L3.4275 5.81988C2.8575 5.51238 2.8575 4.63488 3.4275 4.32738L8.31 1.69488C8.745 1.46238 9.255 1.46238 9.69 1.69488Z" stroke="#F8FFFE" stroke-width="1.5" stroke-linecap="round" stroke-linejoin="round"/>
<path d="M2.7075 7.59726L7.245 9.86976C7.8075 10.1548 8.1675 10.7323 8.1675 11.3623V15.6523C8.1675 16.2748 7.515 16.6723 6.96 16.3948L2.4225 14.1223C1.86 13.8373 1.5 13.2598 1.5 12.6298V8.33976C1.5 7.71726 2.1525 7.31976 2.7075 7.59726Z" stroke="#F8FFFE" stroke-width="1.5" stroke-linecap="round" stroke-linejoin="round"/>
<path d="M15.2925 7.59726L10.755 9.86976C10.1925 10.1548 9.83252 10.7323 9.83252 11.3623V15.6523C9.83252 16.2748 10.485 16.6723 11.04 16.3948L15.5775 14.1223C16.14 13.8373 16.5 13.2598 16.5 12.6298V8.33976C16.5 7.71726 15.8475 7.31976 15.2925 7.59726Z" stroke="#F8FFFE" stroke-width="1.5" stroke-linecap="round" stroke-linejoin="round"/>
</g>
<defs>
<clipPath id="clip0_1_2">
<rect width="18" height="18" fill="white"/>
</clipPath>
</defs>
</svg>
