<svg width="24" height="25" viewBox="0 0 24 25" fill="none" xmlns="http://www.w3.org/2000/svg">
<path d="M12.92 2.75984L19.43 6.26984C20.19 6.67984 20.19 7.84984 19.43 8.25984L12.92 11.7698C12.34 12.0798 11.66 12.0798 11.08 11.7698L4.57 8.25984C3.81 7.84984 3.81 6.67984 4.57 6.26984L11.08 2.75984C11.66 2.44984 12.34 2.44984 12.92 2.75984Z" stroke="#323029" stroke-width="1.2" stroke-linecap="round" stroke-linejoin="round"/>
<path d="M3.60976 10.6302L9.65976 13.6602C10.4098 14.0402 10.8898 14.8102 10.8898 15.6502V21.3702C10.8898 22.2002 10.0198 22.7302 9.27976 22.3602L3.22976 19.3302C2.47976 18.9502 1.99976 18.1802 1.99976 17.3402V11.6202C1.99976 10.7902 2.86976 10.2602 3.60976 10.6302Z" stroke="#323029" stroke-width="1.2" stroke-linecap="round" stroke-linejoin="round"/>
<path d="M20.3899 10.6302L14.3399 13.6602C13.5899 14.0402 13.1099 14.8102 13.1099 15.6502V21.3702C13.1099 22.2002 13.9799 22.7302 14.7199 22.3602L20.7699 19.3302C21.5199 18.9502 21.9999 18.1802 21.9999 17.3402V11.6202C21.9999 10.7902 21.1299 10.2602 20.3899 10.6302Z" stroke="#323029" stroke-width="1.2" stroke-linecap="round" stroke-linejoin="round"/>
</svg>
