<svg width="50" height="52" viewBox="0 0 50 52" fill="none" xmlns="http://www.w3.org/2000/svg">
<mask id="mask0_133_246" style="mask-type:luminance" maskUnits="userSpaceOnUse" x="0" y="1" width="50" height="50">
<path d="M50 1H0V51H50V1Z" fill="white"/>
</mask>
<g mask="url(#mask0_133_246)">
<mask id="mask1_133_246" style="mask-type:luminance" maskUnits="userSpaceOnUse" x="0" y="1" width="50" height="50">
<path d="M50 1H0V51H50V1Z" fill="white"/>
</mask>
<g mask="url(#mask1_133_246)">
<path opacity="0.15" d="M25 51C38.8071 51 50 39.8071 50 26C50 12.1929 38.8071 1 25 1C11.1929 1 0 12.1929 0 26C0 39.8071 11.1929 51 25 51Z" fill="#3C3100"/>
<path opacity="0.15" d="M24.9996 44.2691C35.0894 44.2691 43.2688 36.0897 43.2688 25.9999C43.2688 15.9101 35.0894 7.73071 24.9996 7.73071C14.9098 7.73071 6.73047 15.9101 6.73047 25.9999C6.73047 36.0897 14.9098 44.2691 24.9996 44.2691Z" fill="#3C3100"/>
<path d="M32.4503 26.8709C32.6267 25.3611 32.3403 23.8333 31.6289 22.49C30.9175 21.1467 29.8148 20.0513 28.4667 19.3489C27.1187 18.6464 25.5891 18.3702 24.0805 18.5568C22.572 18.7433 21.1557 19.3838 20.0194 20.3935C18.8831 21.4031 18.0804 22.7342 17.7176 24.2103C17.3549 25.6865 17.4493 27.238 17.9882 28.6593C18.5272 30.0806 19.4853 31.3046 20.7356 32.1691C21.9859 33.0335 23.4694 33.4977 24.9894 33.5M18.0002 23.5H32.0002M18.0002 28.5H25.8336M24.5836 18.5C23.1797 20.7497 22.4354 23.3483 22.4354 26C22.4354 28.6518 23.1797 31.2504 24.5836 33.5M25.4169 18.5C27.0162 21.0616 27.7547 24.0674 27.5244 27.0784M28.3336 34.3334L32.5003 30.1667M32.5003 30.1667V33.9167M32.5003 30.1667H28.7503" stroke="#3C3100" stroke-width="1.12432" stroke-linecap="round" stroke-linejoin="round"/>
</g>
</g>
</svg>
