<svg width="50" height="50" viewBox="0 0 50 50" fill="none" xmlns="http://www.w3.org/2000/svg">
<g clip-path="url(#clip0_97_2)">
<path opacity="0.15" d="M25 50C38.8071 50 50 38.8071 50 25C50 11.1929 38.8071 0 25 0C11.1929 0 0 11.1929 0 25C0 38.8071 11.1929 50 25 50Z" fill="#1CA3A9"/>
<path opacity="0.15" d="M24.9997 43.2692C35.0895 43.2692 43.2689 35.0898 43.2689 25C43.2689 14.9102 35.0895 6.7308 24.9997 6.7308C14.9099 6.7308 6.7305 14.9102 6.7305 25C6.7305 35.0898 14.9099 43.2692 24.9997 43.2692Z" fill="#1CA3A9"/>
<path d="M32.4503 25.8708C32.6267 24.361 32.3403 22.8332 31.6289 21.4899C30.9175 20.1466 29.8148 19.0512 28.4667 18.3488C27.1187 17.6463 25.5891 17.3701 24.0805 17.5567C22.572 17.7432 21.1557 18.3837 20.0194 19.3934C18.8831 20.403 18.0804 21.7341 17.7176 23.2102C17.3549 24.6864 17.4493 26.2379 17.9882 27.6592C18.5272 29.0805 19.4853 30.3045 20.7356 31.169C21.9859 32.0334 23.4694 32.4976 24.9894 32.4999M18.0002 22.4999H32.0002M18.0002 27.4999H25.8336M24.5836 17.4999C23.1797 19.7496 22.4354 22.3482 22.4354 24.9999C22.4354 27.6517 23.1797 30.2503 24.5836 32.4999M25.4169 17.4999C27.0162 20.0615 27.7547 23.0673 27.5244 26.0783M28.3336 33.3333L32.5003 29.1666M32.5003 29.1666V32.9166M32.5003 29.1666H28.7503" stroke="#1CA3A9" stroke-width="1.12432" stroke-linecap="round" stroke-linejoin="round"/>
</g>
<defs>
<clipPath id="clip0_97_2">
<rect width="50" height="50" fill="white"/>
</clipPath>
</defs>
</svg>
