<svg width="24" height="24" viewBox="0 0 24 24" fill="none" xmlns="http://www.w3.org/2000/svg">
<path d="M14.0833 5.66825C14.2081 5.31346 14.4545 5.0143 14.7787 4.82373C15.103 4.63317 15.4842 4.56351 15.8549 4.62709C16.2256 4.69068 16.5618 4.8834 16.804 5.17112C17.0462 5.45885 17.1788 5.82301 17.1782 6.1991C17.1782 7.26081 15.5857 7.79167 15.5857 7.79167M15.6062 9.91667H15.6133M11.9583 12.75V14.4043C11.9583 14.7817 11.9583 14.9705 12.0357 15.0674C12.103 15.1517 12.205 15.2007 12.3129 15.2006C12.4369 15.2005 12.5843 15.0826 12.879 14.8468L14.5687 13.495C14.9139 13.2189 15.0865 13.0808 15.2786 12.9827C15.4491 12.8955 15.6306 12.8319 15.8182 12.7934C16.0296 12.75 16.2506 12.75 16.6927 12.75H18.475C19.6651 12.75 20.2602 12.75 20.7147 12.5184C21.1146 12.3147 21.4397 11.9896 21.6434 11.5897C21.875 11.1352 21.875 10.5401 21.875 9.35V5.525C21.875 4.33489 21.875 3.73983 21.6434 3.28527C21.4397 2.88543 21.1146 2.56034 20.7147 2.35661C20.2602 2.125 19.6651 2.125 18.475 2.125H12.525C11.3349 2.125 10.7398 2.125 10.2853 2.35661C9.88543 2.56034 9.56034 2.88543 9.35661 3.28527C9.125 3.73983 9.125 4.33489 9.125 5.525V9.91667C9.125 10.5754 9.125 10.9048 9.19741 11.175C9.3939 11.9083 9.96669 12.4811 10.7 12.6776C10.9702 12.75 11.2996 12.75 11.9583 12.75Z" stroke="#01B69B" stroke-width="1.25" stroke-linecap="round" stroke-linejoin="round"/>
<path d="M4.375 14.3125H7.5M4.375 16.5H9.375M6.05234 20.25H10.125C11.1751 20.25 11.7001 20.25 12.1012 20.0456C12.454 19.8659 12.7409 19.579 12.9206 19.2262C13.125 18.8251 13.125 18.3001 13.125 17.25V13.875C13.125 12.8249 13.125 12.2999 12.9206 11.8988C12.7409 11.546 12.454 11.2591 12.1012 11.0794C11.7001 10.875 11.1751 10.875 10.125 10.875H4.875C3.8249 10.875 3.29985 10.875 2.89877 11.0794C2.54596 11.2591 2.25913 11.546 2.07936 11.8988C1.875 12.2999 1.875 12.8249 1.875 13.875V21.7097C1.875 22.0427 1.875 22.2092 1.94327 22.2948C2.00264 22.3691 2.09267 22.4124 2.18784 22.4123C2.29727 22.4122 2.42729 22.3082 2.68735 22.1001L4.17826 20.9074C4.48282 20.6637 4.63511 20.5419 4.80468 20.4553C4.95512 20.3784 5.11527 20.3222 5.28076 20.2883C5.46729 20.25 5.66231 20.25 6.05234 20.25Z" stroke="#01B69B" stroke-width="1.25" stroke-linecap="round" stroke-linejoin="round"/>
</svg>
