<svg width="24" height="26" viewBox="0 0 24 26" fill="none" xmlns="http://www.w3.org/2000/svg">
<path d="M14.0833 6.66825C14.2081 6.31346 14.4545 6.0143 14.7787 5.82373C15.103 5.63317 15.4842 5.56351 15.8549 5.62709C16.2256 5.69068 16.5618 5.8834 16.804 6.17112C17.0462 6.45885 17.1788 6.82301 17.1782 7.1991C17.1782 8.26081 15.5857 8.79167 15.5857 8.79167M15.6062 10.9167H15.6133M11.9583 13.75V15.4043C11.9583 15.7817 11.9583 15.9705 12.0357 16.0674C12.103 16.1517 12.205 16.2007 12.3129 16.2006C12.4369 16.2005 12.5843 16.0826 12.879 15.8468L14.5687 14.495C14.9139 14.2189 15.0865 14.0808 15.2786 13.9827C15.4491 13.8955 15.6306 13.8319 15.8182 13.7934C16.0296 13.75 16.2506 13.75 16.6927 13.75H18.475C19.6651 13.75 20.2602 13.75 20.7147 13.5184C21.1146 13.3147 21.4397 12.9896 21.6434 12.5897C21.875 12.1352 21.875 11.5401 21.875 10.35V6.525C21.875 5.33489 21.875 4.73983 21.6434 4.28527C21.4397 3.88543 21.1146 3.56034 20.7147 3.35661C20.2602 3.125 19.6651 3.125 18.475 3.125H12.525C11.3349 3.125 10.7398 3.125 10.2853 3.35661C9.88543 3.56034 9.56034 3.88543 9.35661 4.28527C9.125 4.73983 9.125 5.33489 9.125 6.525V10.9167C9.125 11.5754 9.125 11.9048 9.19741 12.175C9.3939 12.9083 9.96669 13.4811 10.7 13.6776C10.9702 13.75 11.2996 13.75 11.9583 13.75Z" stroke="#3C3100" stroke-width="1.25" stroke-linecap="round" stroke-linejoin="round"/>
<path d="M4.375 15.3125H7.5M4.375 17.5H9.375M6.05234 21.25H10.125C11.1751 21.25 11.7001 21.25 12.1012 21.0456C12.454 20.8659 12.7409 20.579 12.9206 20.2262C13.125 19.8251 13.125 19.3001 13.125 18.25V14.875C13.125 13.8249 13.125 13.2999 12.9206 12.8988C12.7409 12.546 12.454 12.2591 12.1012 12.0794C11.7001 11.875 11.1751 11.875 10.125 11.875H4.875C3.8249 11.875 3.29985 11.875 2.89877 12.0794C2.54596 12.2591 2.25913 12.546 2.07936 12.8988C1.875 13.2999 1.875 13.8249 1.875 14.875V22.7097C1.875 23.0427 1.875 23.2092 1.94327 23.2948C2.00264 23.3691 2.09267 23.4124 2.18784 23.4123C2.29727 23.4122 2.42729 23.3082 2.68735 23.1001L4.17826 21.9074C4.48282 21.6637 4.63511 21.5419 4.80468 21.4553C4.95512 21.3784 5.11527 21.3222 5.28076 21.2883C5.46729 21.25 5.66231 21.25 6.05234 21.25Z" stroke="#3C3100" stroke-width="1.25" stroke-linecap="round" stroke-linejoin="round"/>
</svg>
