<svg width="24" height="26" viewBox="0 0 24 26" fill="none" xmlns="http://www.w3.org/2000/svg">
<path d="M13 8L11.8845 5.76892C11.5634 5.1268 11.4029 4.80573 11.1634 4.57116C10.9516 4.36373 10.6963 4.20597 10.4161 4.10931C10.0992 4 9.74021 4 9.02229 4H5.2C4.0799 4 3.51984 4 3.09202 4.21799C2.71569 4.40973 2.40973 4.71569 2.21799 5.09202C2 5.51984 2 6.0799 2 7.2V8M2 8H17.2C18.8802 8 19.7202 8 20.362 8.32698C20.9265 8.6146 21.3854 9.07354 21.673 9.63803C22 10.2798 22 11.1198 22 12.8V17.2C22 18.8802 22 19.7202 21.673 20.362C21.3854 20.9265 20.9265 21.3854 20.362 21.673C19.7202 22 18.8802 22 17.2 22H6.8C5.11984 22 4.27976 22 3.63803 21.673C3.07354 21.3854 2.6146 20.9265 2.32698 20.362C2 19.7202 2 18.8802 2 17.2V8ZM12 18V12M9 15H15" stroke="#3C3100" stroke-width="1.5" stroke-linecap="round" stroke-linejoin="round"/>
</svg>
