<svg width="76" height="76" viewBox="0 0 76 76" fill="none" xmlns="http://www.w3.org/2000/svg">
<circle opacity="0.15" cx="38" cy="38.0002" r="38" fill="#1CA3A9"/>
<circle opacity="0.15" cx="37.9997" cy="38.0002" r="27.7692" fill="#1CA3A9"/>
<path d="M48.0402 46.7693C49.4287 45.7316 50.5687 43.4662 50.5687 41.7416V30.8824C50.5687 29.0847 49.1949 27.097 47.5141 26.4685L40.221 23.7355C39.0079 23.2824 37.0202 23.2824 35.8071 23.7355L28.5141 26.4685C26.8333 27.097 25.4595 29.0847 25.4595 30.8824V41.7416C25.4595 43.4662 26.5994 45.7316 27.9879 46.7693L34.2725 51.4609C36.3333 53.0101 39.7241 53.0101 41.7848 51.4609L42.8664 50.6424" stroke="#1CA3A9" stroke-width="2.19231" stroke-linecap="round" stroke-linejoin="round"/>
<path d="M37.9995 36.4217C37.941 36.4217 37.8679 36.4217 37.8095 36.4217C36.4356 36.3778 35.3395 35.2378 35.3395 33.8494C35.3395 32.4317 36.4941 31.277 37.9118 31.277C39.3295 31.277 40.4841 32.4317 40.4841 33.8494C40.4695 35.2524 39.3733 36.3778 37.9995 36.4217Z" stroke="#1CA3A9" stroke-width="2.19231" stroke-linecap="round" stroke-linejoin="round"/>
<path d="M35.091 40.514C33.6879 41.4494 33.6879 42.984 35.091 43.9194C36.6841 44.9863 39.3002 44.9863 40.8933 43.9194C42.2964 42.984 42.2964 41.4494 40.8933 40.514C39.3149 39.4471 36.6987 39.4471 35.091 40.514Z" stroke="#1CA3A9" stroke-width="2.19231" stroke-linecap="round" stroke-linejoin="round"/>
</svg>
