<svg width="76" height="78" viewBox="0 0 76 78" fill="none" xmlns="http://www.w3.org/2000/svg">
<mask id="mask0_133_270" style="mask-type:luminance" maskUnits="userSpaceOnUse" x="0" y="1" width="76" height="76">
<path d="M76 1H0V77H76V1Z" fill="white"/>
</mask>
<g mask="url(#mask0_133_270)">
<path opacity="0.15" d="M38 77C58.9868 77 76 59.9868 76 39C76 18.0132 58.9868 1 38 1C17.0132 1 0 18.0132 0 39C0 59.9868 17.0132 77 38 77Z" fill="#3C3100"/>
<path opacity="0.15" d="M37.9997 66.7694C53.3362 66.7694 65.7689 54.3367 65.7689 39.0002C65.7689 23.6637 53.3362 11.231 37.9997 11.231C22.6632 11.231 10.2305 23.6637 10.2305 39.0002C10.2305 54.3367 22.6632 66.7694 37.9997 66.7694Z" fill="#3C3100"/>
<path d="M48.0402 47.7694C49.4287 46.7317 50.5687 44.4663 50.5687 42.7417V31.8825C50.5687 30.0848 49.1949 28.0971 47.5141 27.4686L40.221 24.7356C39.0079 24.2825 37.0202 24.2825 35.8071 24.7356L28.5141 27.4686C26.8333 28.0971 25.4595 30.0848 25.4595 31.8825V42.7417C25.4595 44.4663 26.5994 46.7317 27.9879 47.7694L34.2725 52.461C36.3333 54.0102 39.7241 54.0102 41.7848 52.461L42.8664 51.6425" stroke="#3C3100" stroke-width="2.19231" stroke-linecap="round" stroke-linejoin="round"/>
<path d="M37.9996 37.4218C37.9411 37.4218 37.868 37.4218 37.8096 37.4218C36.4357 37.3779 35.3396 36.2379 35.3396 34.8495C35.3396 33.4318 36.4942 32.2771 37.9119 32.2771C39.3296 32.2771 40.4842 33.4318 40.4842 34.8495C40.4696 36.2525 39.3734 37.3779 37.9996 37.4218Z" stroke="#3C3100" stroke-width="2.19231" stroke-linecap="round" stroke-linejoin="round"/>
<path d="M35.0909 41.514C33.6878 42.4494 33.6878 43.984 35.0909 44.9194C36.684 45.9863 39.3001 45.9863 40.8932 44.9194C42.2963 43.984 42.2963 42.4494 40.8932 41.514C39.3148 40.4471 36.6986 40.4471 35.0909 41.514Z" stroke="#3C3100" stroke-width="2.19231" stroke-linecap="round" stroke-linejoin="round"/>
</g>
</svg>
