<svg width="24" height="26" viewBox="0 0 24 26" fill="none" xmlns="http://www.w3.org/2000/svg">
<path d="M8.37988 13.0001L10.7899 15.4201L15.6199 10.5801" stroke="#3C3100" stroke-width="1.5" stroke-linecap="round" stroke-linejoin="round"/>
<path d="M10.7499 3.45007C11.4399 2.86007 12.5699 2.86007 13.2699 3.45007L14.8499 4.81007C15.1499 5.07007 15.7099 5.28007 16.1099 5.28007H17.8099C18.8699 5.28007 19.7399 6.15007 19.7399 7.21007V8.91007C19.7399 9.30007 19.9499 9.87007 20.2099 10.1701L21.5699 11.7501C22.1599 12.4401 22.1599 13.5701 21.5699 14.2701L20.2099 15.8501C19.9499 16.1501 19.7399 16.7101 19.7399 17.1101V18.8101C19.7399 19.8701 18.8699 20.7401 17.8099 20.7401H16.1099C15.7199 20.7401 15.1499 20.9501 14.8499 21.2101L13.2699 22.5701C12.5799 23.1601 11.4499 23.1601 10.7499 22.5701L9.16988 21.2101C8.86988 20.9501 8.30988 20.7401 7.90988 20.7401H6.17988C5.11988 20.7401 4.24988 19.8701 4.24988 18.8101V17.1001C4.24988 16.7101 4.03988 16.1501 3.78988 15.8501L2.43988 14.2601C1.85988 13.5701 1.85988 12.4501 2.43988 11.7601L3.78988 10.1701C4.03988 9.87007 4.24988 9.31007 4.24988 8.92007V7.20007C4.24988 6.14007 5.11988 5.27007 6.17988 5.27007H7.90988C8.29988 5.27007 8.86988 5.06007 9.16988 4.80007L10.7499 3.45007Z" stroke="#3C3100" stroke-width="1.5" stroke-linecap="round" stroke-linejoin="round"/>
</svg>
