<svg width="18" height="20" viewBox="0 0 18 20" fill="none" xmlns="http://www.w3.org/2000/svg">
<path d="M12 6.99999V4.37548C12 3.75168 12 3.43978 11.8686 3.2481C11.7538 3.08063 11.576 2.96687 11.3758 2.9328C11.1467 2.89382 10.8635 3.02452 10.2971 3.28593L3.64426 6.35649C3.13913 6.58963 2.88656 6.70619 2.70158 6.88698C2.53804 7.04681 2.41321 7.24191 2.33663 7.45737C2.25 7.70108 2.25 7.97925 2.25 8.53559V12.25M12.375 11.875H12.3825M2.25 9.39999V14.35C2.25 15.1901 2.25 15.6101 2.41349 15.931C2.5573 16.2132 2.78677 16.4427 3.06901 16.5865C3.38988 16.75 3.80992 16.75 4.65 16.75H13.35C14.1901 16.75 14.6101 16.75 14.931 16.5865C15.2132 16.4427 15.4427 16.2132 15.5865 15.931C15.75 15.6101 15.75 15.1901 15.75 14.35V9.39999C15.75 8.55992 15.75 8.13988 15.5865 7.81901C15.4427 7.53677 15.2132 7.30729 14.931 7.16348C14.6101 6.99999 14.1901 6.99999 13.35 6.99999H4.65C3.80992 6.99999 3.38988 6.99999 3.06901 7.16348C2.78677 7.30729 2.5573 7.53676 2.41349 7.81901C2.25 8.13987 2.25 8.55991 2.25 9.39999ZM12.75 11.875C12.75 12.0821 12.5821 12.25 12.375 12.25C12.1679 12.25 12 12.0821 12 11.875C12 11.6679 12.1679 11.5 12.375 11.5C12.5821 11.5 12.75 11.6679 12.75 11.875Z" stroke="#3C3100" stroke-width="1.5" stroke-linecap="round" stroke-linejoin="round"/>
</svg>
